<svg xmlns="http://www.w3.org/2000/svg" viewBox="0 0 338 338"><title>unipathic</title><g id="558ea9e6-0658-44b3-8043-69a01c7ca68b" data-name="Content"><path d="M333.49.5H4c-2.25,0-4,2.2-4,5v5H338v-5A4.74,4.74,0,0,0,333.49.5Z" fill="#ff7301" opacity="0.85" style="isolation:isolate"/><path d="M97.07,75.7H330.23c.49,0,.82.4.82,1v96.48c0,.6-.33,1-.82,1H97.07c-.49,0-.82-.4-.82-1V76.7A.93.93,0,0,1,97.07,75.7Z" fill="#f5f6f8"/><path d="M97.07,290.67H330.23c.49,0,.82,1.27.82,3.18v42.44c0,1.91-.33,0-.82,0H97.07c-.49,0-.82,1.91-.82,0V293.85C96.25,292.26,96.58,290.67,97.07,290.67Z" fill="#f5f6f8"/><path d="M8.34,53.58H84.82c1,0,1.59.44,1.59,1.1v283c0,.66-.64,0-1.59,0H8.34c-1,0-1.59.66-1.59,0v-283C6.75,54.12,7.39,53.58,8.34,53.58Z" fill="#d6dce5" fill-opacity="0.7"/><path d="M8.34,135.68H84.82c1,0,1.59.31,1.59.78V337.79c0,.47-.64,0-1.59,0H8.34c-1,0-1.59.47-1.59,0V136.46C6.75,136.07,7.39,135.68,8.34,135.68Z" fill="#3e3e3f" fill-opacity="0.7"/><path d="M8.34,135.68H84.82a4,4,0,0,1,1.59.15v37.81a7.7,7.7,0,0,1-1.59,0H8.34a7.7,7.7,0,0,1-1.59,0V135.82A4.32,4.32,0,0,1,8.34,135.68Z" fill="#3e3e3f" fill-opacity="0.7"/><path d="M97.12,53.58h40.77a.92.92,0,0,1,.87,1v8a.92.92,0,0,1-.87,1H97.12a.92.92,0,0,1-.87-1v-8A1,1,0,0,1,97.12,53.58Z" fill="#3e3e3f" fill-opacity="0.7"/><path d="M142.05,53.58h40.77a.92.92,0,0,1,.87,1v8a.92.92,0,0,1-.87,1H142.05a.92.92,0,0,1-.87-1v-8A1,1,0,0,1,142.05,53.58Z" fill="#f5f6f8"/><path d="M187,53.58h40.77a.92.92,0,0,1,.87,1v8a.92.92,0,0,1-.87,1H187a.92.92,0,0,1-.87-1v-8A1,1,0,0,1,187,53.58Z" fill="#f5f6f8"/><path d="M231.92,53.58h40.77a.92.92,0,0,1,.87,1v8a.92.92,0,0,1-.87,1H231.92a.92.92,0,0,1-.87-1v-8A1,1,0,0,1,231.92,53.58Z" fill="#f5f6f8"/><path d="M161,17.63h26a.94.94,0,0,1,1,1v1a.94.94,0,0,1-1,1H161a.94.94,0,0,1-1-1v-1A1,1,0,0,1,161,17.63Z" fill="#adbacc" fill-opacity="0.2"/><path d="M196.85,17.63h26a.94.94,0,0,1,1,1v1a.94.94,0,0,1-1,1h-26a.94.94,0,0,1-1-1v-1A1,1,0,0,1,196.85,17.63Z" fill="#adbacc" fill-opacity="0.2"/><path d="M232.55,17.63h26a.94.94,0,0,1,1,1v1a.94.94,0,0,1-1,1h-26a.94.94,0,0,1-1-1v-1A1.08,1.08,0,0,1,232.55,17.63Z" fill="#adbacc" fill-opacity="0.2"/><path d="M268.35,17.63h26a.94.94,0,0,1,1,1v1a.94.94,0,0,1-1,1h-26a.94.94,0,0,1-1-1v-1A1,1,0,0,1,268.35,17.63Z" fill="#adbacc" fill-opacity="0.2"/><path d="M304,17.63h26a.94.94,0,0,1,1,1v1a.94.94,0,0,1-1,1H304a.94.94,0,0,1-1-1v-1A1.08,1.08,0,0,1,304,17.63Z" fill="#ff7301" opacity="0.85" style="isolation:isolate"/><g id="500ee17a-fb6d-43b3-8846-4edc8fa2d3e6" data-name="Layer 5" opacity="0.85"><rect x="6.92" y="14.12" width="2.13" height="2.12" fill="#ff7300"/><rect x="6.92" y="16.81" width="2.13" height="2.13" fill="#ff7300"/><rect x="6.92" y="19.5" width="2.13" height="2.13" fill="#ff7300"/><polyline points="6.92 22.21 9.05 22.21 9.05 24.32" fill="#ff7300"/><rect x="9.65" y="22.21" width="2.13" height="2.12" fill="#ff7300"/><rect x="9.65" y="14.1" width="7.5" height="7.52" fill="#585f69"/><rect x="12.32" y="22.21" width="2.13" height="2.12" fill="#ff7300"/><rect x="15.01" y="22.21" width="2.12" height="2.12" fill="#ff7300"/><rect x="17.7" y="14.09" width="2.17" height="2.17" fill="#ff7300"/><rect x="17.7" y="16.78" width="2.17" height="2.19" fill="#ff7300"/><rect x="17.7" y="19.48" width="2.17" height="2.15" fill="#ff7300"/><polyline points="17.7 24.32 17.7 22.21 19.87 22.21" fill="#ff7300"/><polygon points="16.5 17.1 14.15 17.1 14.15 14.75 12.6 14.75 12.6 17.1 10.25 17.1 10.25 18.66 12.6 18.66 12.6 21 14.15 21 14.15 18.66 16.5 18.66 16.5 17.1" fill="#fff"/><path d="M24.54,14.24v-.15h2v.15h-.21a.59.59,0,0,0-.52.29,1.3,1.3,0,0,0-.09.61v2.33a4.15,4.15,0,0,1-.17,1.34,1.65,1.65,0,0,1-.68.82,2.41,2.41,0,0,1-1.37.34,2.56,2.56,0,0,1-1.43-.33,1.78,1.78,0,0,1-.69-.88,4.92,4.92,0,0,1-.14-1.42V15.1a1.09,1.09,0,0,0-.15-.69.59.59,0,0,0-.48-.17h-.21v-.15h2.49v.15H22.7a.58.58,0,0,0-.51.23,1.25,1.25,0,0,0-.11.64v2.51a5.33,5.33,0,0,0,.06.77,1.56,1.56,0,0,0,.23.68,1.18,1.18,0,0,0,.46.4,1.58,1.58,0,0,0,.74.15,2.1,2.1,0,0,0,1-.24,1.36,1.36,0,0,0,.61-.63,3.68,3.68,0,0,0,.17-1.3V15.1a1.22,1.22,0,0,0-.12-.68.62.62,0,0,0-.49-.18Z" fill="#585f69"/><path d="M26.84,14.09H28.4l3.52,4.32V15.08a1.17,1.17,0,0,0-.12-.67.64.64,0,0,0-.5-.18h-.2v-.15h2v.15h-.2a.58.58,0,0,0-.52.22,1.31,1.31,0,0,0-.1.62v4.85h-.15L28.34,15.3v3.54a1.18,1.18,0,0,0,.11.67.64.64,0,0,0,.5.18h.2v.15h-2v-.15h.2a.59.59,0,0,0,.52-.22,1.31,1.31,0,0,0,.1-.62v-4a2.3,2.3,0,0,0-.38-.39,1.54,1.54,0,0,0-.38-.17,1.46,1.46,0,0,0-.37,0v-.16Z" fill="#585f69"/><path d="M35.86,19.69v.15H33.39v-.15h.2a.62.62,0,0,0,.52-.21,1.32,1.32,0,0,0,.1-.65V15.1a1.94,1.94,0,0,0-.05-.58.42.42,0,0,0-.17-.18.84.84,0,0,0-.39-.1h-.2v-.15h2.46v.15h-.21a.63.63,0,0,0-.52.21,1.24,1.24,0,0,0-.11.65v3.72a1.94,1.94,0,0,0,.05.58.4.4,0,0,0,.18.18.8.8,0,0,0,.39.1h.21Z" fill="#585f69"/><path d="M37.8,17.14v1.67a1.21,1.21,0,0,0,.12.68.61.61,0,0,0,.49.18h.22v.15H36.16v-.15h.21a.58.58,0,0,0,.52-.24,1.37,1.37,0,0,0,.08-.62V15.1a1.22,1.22,0,0,0-.11-.68.62.62,0,0,0-.49-.18h-.21v-.15h2.11a3.7,3.7,0,0,1,1.22.16,1.73,1.73,0,0,1,.75.53,1.39,1.39,0,0,1,.31.9,1.52,1.52,0,0,1-.46,1.15,1.82,1.82,0,0,1-1.31.44l-.45,0A4.59,4.59,0,0,1,37.8,17.14Zm0-.24.4.07.3,0a1,1,0,0,0,.76-.34,1.24,1.24,0,0,0,.32-.88,1.61,1.61,0,0,0-.15-.69,1,1,0,0,0-.43-.48,1.25,1.25,0,0,0-.64-.16,2.58,2.58,0,0,0-.56.08V16.9Z" fill="#585f69"/><path d="M43.36,17.92H41.13l-.39.91a1.48,1.48,0,0,0-.14.5.29.29,0,0,0,.12.23,1.14,1.14,0,0,0,.54.13v.15H39.45v-.15a.93.93,0,0,0,.47-.17,2.68,2.68,0,0,0,.48-.83l2-4.74h.15l2,4.79a2.14,2.14,0,0,0,.44.75.93.93,0,0,0,.55.2v.15H43.29v-.15a.83.83,0,0,0,.46-.11.28.28,0,0,0,.12-.24,1.77,1.77,0,0,0-.17-.59Zm-.12-.31-1-2.33-1,2.33Z" fill="#585f69"/><path d="M49.45,14.09l.07,1.35h-.16a1.62,1.62,0,0,0-.12-.51.83.83,0,0,0-.35-.36,1.24,1.24,0,0,0-.58-.12h-.81v4.4a1.18,1.18,0,0,0,.11.67.64.64,0,0,0,.5.18h.2v.15H45.86v-.15h.2a.58.58,0,0,0,.52-.22,1.31,1.31,0,0,0,.1-.62V14.44H46a1.92,1.92,0,0,0-.58.06.78.78,0,0,0-.38.31,1.23,1.23,0,0,0-.18.62h-.16l.07-1.35h4.7Z" fill="#585f69"/><path d="M51.35,16.75H54V15.11a2,2,0,0,0-.05-.58.4.4,0,0,0-.18-.18.8.8,0,0,0-.39-.1h-.2v-.15h2.46v.15h-.2a.79.79,0,0,0-.39.1.35.35,0,0,0-.18.21,2.18,2.18,0,0,0,0,.56v3.72a1.94,1.94,0,0,0,.05.58.42.42,0,0,0,.17.18.84.84,0,0,0,.39.1h.2v.15H53.2v-.15h.2a.63.63,0,0,0,.52-.21,1.24,1.24,0,0,0,.11-.65V17.07H51.35v1.75a1.94,1.94,0,0,0,.05.58.4.4,0,0,0,.18.18.8.8,0,0,0,.39.1h.21v.15H49.71v-.15h.2a.62.62,0,0,0,.52-.21,1.32,1.32,0,0,0,.1-.65V15.11a2,2,0,0,0-.05-.58.42.42,0,0,0-.17-.18.84.84,0,0,0-.39-.1h-.2v-.15h2.46v.15H52a.79.79,0,0,0-.39.1.37.37,0,0,0-.18.21,1.87,1.87,0,0,0-.05.56v1.64Z" fill="#585f69"/><path d="M58.41,19.69v.15H55.95v-.15h.2a.62.62,0,0,0,.52-.21,1.32,1.32,0,0,0,.1-.65V15.1a1.94,1.94,0,0,0-.05-.58.42.42,0,0,0-.17-.18.84.84,0,0,0-.39-.1h-.2v-.15h2.46v.15h-.21a.63.63,0,0,0-.52.21,1.24,1.24,0,0,0-.11.65v3.72a1.94,1.94,0,0,0,.05.58.4.4,0,0,0,.18.18.8.8,0,0,0,.39.1h.21Z" fill="#585f69"/><path d="M63.58,13.95l.13,2h-.13a2.46,2.46,0,0,0-.75-1.26,1.85,1.85,0,0,0-1.17-.39,1.89,1.89,0,0,0-1,.29,2,2,0,0,0-.73.93,4.09,4.09,0,0,0-.27,1.59,3.36,3.36,0,0,0,.25,1.35,1.86,1.86,0,0,0,.75.88,2.17,2.17,0,0,0,1.15.3,2,2,0,0,0,1-.24,3.25,3.25,0,0,0,.94-1l.13.08a3,3,0,0,1-1,1.12,2.57,2.57,0,0,1-1.37.36,2.59,2.59,0,0,1-2.21-1.06A3,3,0,0,1,58.66,17,3.33,3.33,0,0,1,59,15.46a2.75,2.75,0,0,1,1.06-1.12,2.85,2.85,0,0,1,1.48-.4,2.72,2.72,0,0,1,1.23.3.72.72,0,0,0,.26.1.29.29,0,0,0,.2-.08.68.68,0,0,0,.15-.32h.15Z" fill="#585f69"/><path d="M65.06,14.66v.16h0s0,0,0-.06a.09.09,0,0,0,0,0h-.17v.53a.16.16,0,0,0,0,.08l.06,0h0v0h-.29v0h0a.06.06,0,0,0,.06,0,.17.17,0,0,0,0-.07V14.7h-.15l0,0a.2.2,0,0,0,0,.07h0v-.16h.58Z" fill="#585f69"/><path d="M65.49,15.35l-.27-.58v.46a.16.16,0,0,0,0,.08.08.08,0,0,0,.06,0h0v0h-.24v0h0a.06.06,0,0,0,.06,0,.17.17,0,0,0,0-.07v-.45a.16.16,0,0,0,0-.07l0,0h-.06v0h.2l.25.54.24-.54H66v0h0a.08.08,0,0,0-.07,0,.17.17,0,0,0,0,.07v.45a.16.16,0,0,0,0,.08.08.08,0,0,0,.06,0h0v0h-.29v0h0a.06.06,0,0,0,.06,0,.17.17,0,0,0,0-.07v-.46l-.27.58h0Z" fill="#585f69"/><path d="M65.21,16.06A1.05,1.05,0,1,1,66.26,15,1.05,1.05,0,0,1,65.21,16.06Zm0-2a1,1,0,1,0,1,1A1,1,0,0,0,65.21,14.05Z" fill="#585f69"/><polygon points="60.5 24.32 21.27 24.32 21.27 20.61 63.84 20.61 60.5 24.32" fill="#585f69"/><path d="M23.51,23.8l-1-2.24v1.78a.55.55,0,0,0,.05.31.3.3,0,0,0,.23.08h.1v.07h-.93v-.07H22a.27.27,0,0,0,.24-.1.58.58,0,0,0,0-.29V21.6a.55.55,0,0,0,0-.26.23.23,0,0,0-.1-.1.58.58,0,0,0-.24,0v-.07h.75l1,2.08,1-2.08h.75v.07h-.1a.28.28,0,0,0-.24.1.58.58,0,0,0,0,.29v1.74a.55.55,0,0,0,.05.31.3.3,0,0,0,.23.08h.1v.07H24.22v-.07h.1a.27.27,0,0,0,.24-.1.58.58,0,0,0,0-.29V21.57l-1,2.24h-.07Z" fill="#fff"/><path d="M26.51,21.28v1.05h.58a.34.34,0,0,0,.42-.39h.07v.93h-.07a1,1,0,0,0-.05-.25.22.22,0,0,0-.11-.11.63.63,0,0,0-.25,0h-.58v.88a.7.7,0,0,0,0,.21.13.13,0,0,0,.05.06.29.29,0,0,0,.15,0h.45a1.37,1.37,0,0,0,.33,0,.52.52,0,0,0,.2-.12,1.4,1.4,0,0,0,.25-.37H28l-.23.67h-2v-.07h.1a.36.36,0,0,0,.18,0,.16.16,0,0,0,.08-.1.79.79,0,0,0,0-.26V21.59a.57.57,0,0,0-.05-.31.3.3,0,0,0-.24-.08h-.1v-.07h2l0,.58h-.08a1.14,1.14,0,0,0-.09-.29.3.3,0,0,0-.15-.12,1,1,0,0,0-.28,0h-.72Z" fill="#fff"/><path d="M28.19,23.8v-.07h.1a.26.26,0,0,0,.24-.11.61.61,0,0,0,0-.29V21.62a.59.59,0,0,0-.05-.31.28.28,0,0,0-.23-.09h-.1v-.07h1.08a2.39,2.39,0,0,1,.91.14,1.08,1.08,0,0,1,.5.45,1.39,1.39,0,0,1,.19.73,1.33,1.33,0,0,1-.34.93,1.48,1.48,0,0,1-1.15.42H28.19Zm.76-.2a2,2,0,0,0,.42.05,1,1,0,0,0,.75-.32,1.21,1.21,0,0,0,.3-.87,1.2,1.2,0,0,0-.3-.87,1,1,0,0,0-.77-.32,1.54,1.54,0,0,0-.4.06V23.6Z" fill="#fff"/><path d="M32.19,23.72v.07H31v-.07h.1a.27.27,0,0,0,.24-.1.62.62,0,0,0,0-.3V21.61a.86.86,0,0,0,0-.27.16.16,0,0,0-.08-.08.4.4,0,0,0-.18,0H31v-.07h1.14v.07h-.1a.28.28,0,0,0-.24.1.55.55,0,0,0,0,.3v1.72a.86.86,0,0,0,0,.27.16.16,0,0,0,.08.08.36.36,0,0,0,.18,0Z" fill="#fff"/><path d="M34.63,21.08l.06.9h-.06a1.14,1.14,0,0,0-.34-.58.85.85,0,0,0-.54-.18.85.85,0,0,0-.82.56,1.87,1.87,0,0,0-.12.73,1.52,1.52,0,0,0,.11.62.84.84,0,0,0,.35.4,1,1,0,0,0,.53.14.89.89,0,0,0,.46-.11,1.44,1.44,0,0,0,.43-.44l.06,0a1.4,1.4,0,0,1-.47.52,1.17,1.17,0,0,1-.64.17,1.19,1.19,0,0,1-1-.49,1.42,1.42,0,0,1-.27-.86,1.51,1.51,0,0,1,.18-.73,1.33,1.33,0,0,1,.49-.52,1.31,1.31,0,0,1,.68-.18,1.26,1.26,0,0,1,.57.14.28.28,0,0,0,.12,0,.15.15,0,0,0,.1,0,.27.27,0,0,0,.07-.15Z" fill="#fff"/><path d="M36.14,23.72v.07H35v-.07h.1a.27.27,0,0,0,.24-.1.62.62,0,0,0,0-.3V21.61a.86.86,0,0,0,0-.27.16.16,0,0,0-.08-.08.4.4,0,0,0-.18,0H35v-.07h1.14v.07H36a.28.28,0,0,0-.24.1.55.55,0,0,0,0,.3v1.72a.86.86,0,0,0,0,.27.16.16,0,0,0,.08.08.36.36,0,0,0,.18,0Z" fill="#fff"/><path d="M36.39,21.14h.72l1.63,2V21.6a.55.55,0,0,0-.05-.31.3.3,0,0,0-.23-.08h-.1v-.07h.93v.07h-.1a.27.27,0,0,0-.24.1.58.58,0,0,0,0,.29v2.24h-.07L37.09,21.7v1.64a.55.55,0,0,0,.05.31.3.3,0,0,0,.23.08h.1v.07h-.93v-.07h.1a.28.28,0,0,0,.24-.1.58.58,0,0,0,0-.29V21.49a1.21,1.21,0,0,0-.18-.18.84.84,0,0,0-.18-.08l-.17,0v-.07Z" fill="#fff"/><path d="M40.36,21.28v1.05h.58a.34.34,0,0,0,.42-.39h.07v.93h-.07a1,1,0,0,0-.05-.25.22.22,0,0,0-.11-.11.63.63,0,0,0-.25,0h-.58v.88a.7.7,0,0,0,0,.21.13.13,0,0,0,.05.06.29.29,0,0,0,.15,0H41a1.37,1.37,0,0,0,.33,0,.52.52,0,0,0,.2-.12,1.4,1.4,0,0,0,.25-.37h.08l-.23.67h-2v-.07h.1a.36.36,0,0,0,.18,0,.16.16,0,0,0,.08-.1.79.79,0,0,0,0-.26V21.59a.57.57,0,0,0-.05-.31.3.3,0,0,0-.24-.08h-.1v-.07h2.06l0,.58h-.08a1.14,1.14,0,0,0-.09-.29.3.3,0,0,0-.15-.12,1,1,0,0,0-.28,0h-.73Z" fill="#fff"/></g><path d="M15.51,143.18H63.69c.6,0,1,.84,1,2.09v2.09c0,1.26-.4,2.09-1,2.09H15.51c-.6,0-1-.84-1-2.09v-2.09C14.5,144.22,14.91,143.18,15.51,143.18Z" fill="#f5f6f8" opacity="0.5"/><path d="M15.37,164.68H52.31c.46,0,.77.4.77,1v1c0,.6-.31,1-.77,1H15.37c-.46,0-.77-.4-.77-1v-1C14.6,165.18,14.9,164.68,15.37,164.68Z" fill="#f5f6f8" opacity="0.5"/><path d="M15.6,178.23h48a.94.94,0,0,1,1,1v1a.94.94,0,0,1-1,1h-48a.94.94,0,0,1-1-1v-1A1,1,0,0,1,15.6,178.23Z" fill="#f5f6f8" opacity="0.5"/><path d="M15.45,190.73H56.23a.88.88,0,0,1,.85,1v1a.88.88,0,0,1-.85,1H15.45a.88.88,0,0,1-.85-1v-1A.94.94,0,0,1,15.45,190.73Z" fill="#f5f6f8" opacity="0.5"/><path d="M15.39,203.23H53.62c.48,0,.8.4.8,1v1c0,.6-.32,1-.8,1H15.39c-.48,0-.8-.4-.8-1v-1A.92.92,0,0,1,15.39,203.23Z" fill="#f5f6f8" opacity="0.5"/><path d="M15.45,215.78H56.23a.88.88,0,0,1,.85,1v1a.88.88,0,0,1-.85,1H15.45a.88.88,0,0,1-.85-1v-1A.94.94,0,0,1,15.45,215.78Z" fill="#f5f6f8" opacity="0.5"/><path d="M15.39,228.28H53.62c.48,0,.8.4.8,1v1c0,.6-.32,1-.8,1H15.39c-.48,0-.8-.4-.8-1v-1A.92.92,0,0,1,15.39,228.28Z" fill="#f5f6f8" opacity="0.5"/><path d="M15.45,240.78H56.23a.88.88,0,0,1,.85,1v1a.88.88,0,0,1-.85,1H15.45a.88.88,0,0,1-.85-1v-1A.94.94,0,0,1,15.45,240.78Z" fill="#f5f6f8" opacity="0.5"/><g opacity="0.25"><path d="M64.07,88.48a19.88,19.88,0,0,1,0,15.59,20.45,20.45,0,0,1-4.27,6.41,20,20,0,0,1-6.4,4.29,20,20,0,0,1-15.62,0A19.72,19.72,0,0,1,27.1,104.07a19.9,19.9,0,0,1,0-15.6A19.72,19.72,0,0,1,37.78,77.79a19.91,19.91,0,0,1,15.6,0A19.72,19.72,0,0,1,64.07,88.48ZM59.63,106.2a14.36,14.36,0,0,0-2-5.77,5.58,5.58,0,0,0-4.13-2.66,10.75,10.75,0,0,1-15.91,0,5.58,5.58,0,0,0-4.13,2.66,14.36,14.36,0,0,0-2,5.77,17.15,17.15,0,0,0,6.07,5.32,17.21,17.21,0,0,0,16,0A17.15,17.15,0,0,0,59.63,106.2Zm-8-9.58A8.6,8.6,0,1,0,39.5,84.45,8.6,8.6,0,1,0,51.67,96.62Z" fill="#3e3e3f"/></g><path d="M143.7,83.51h85c1,0,1.81.4,1.81,1v4c0,.6-.82,1-1.81,1h-85c-1,0-1.81-.4-1.81-1v-4C142,84,142.72,83.51,143.7,83.51Z" fill="#d6dce5" fill-opacity="0.7"/><path d="M145.56,105.51H317.84c2,0,3.67.4,3.67,1v1c0,.6-1.67,1-3.67,1H145.56c-2,0-3.67-.4-3.67-1v-1C142.06,106,143.56,105.51,145.56,105.51Z" fill="#d6dce5" fill-opacity="0.7"/><path d="M145.56,114H317.84c2,0,3.67.4,3.67,1v1c0,.6-1.67,1-3.67,1H145.56c-2,0-3.67-.4-3.67-1v-1C142.06,114.47,143.56,114,145.56,114Z" fill="#d6dce5" fill-opacity="0.7"/><path d="M145.41,122.44h165.4c1.92,0,3.52.4,3.52,1v1c0,.6-1.6,1-3.52,1H145.41c-1.92,0-3.52-.4-3.52-1v-1C142.05,122.94,143.49,122.44,145.41,122.44Z" fill="#d6dce5" fill-opacity="0.7"/><path d="M145.14,130.67H297.62c1.77,0,3.24.4,3.24,1v1c0,.6-1.47,1-3.24,1H145.14c-1.77,0-3.24-.4-3.24-1v-1C142,131.17,143.37,130.67,145.14,130.67Z" fill="#d6dce5" fill-opacity="0.7"/><rect x="102.14" y="83.51" width="31.06" height="37.77" rx="2.52" ry="2.52" fill="#d6dce5"/><path d="M272.43,158.39H320.5c.6,0,1,.84,1,2.09v2.09c0,1.26-.4,2.09-1,2.09H272.43c-.6,0-1-.84-1-2.09v-2.09C271.42,159.44,271.83,158.39,272.43,158.39Z" fill="#3e3e3f" fill-opacity="0.7"/><path d="M143.7,186.3h85c1,0,1.81.4,1.81,1v4c0,.6-.82,1-1.81,1h-85c-1,0-1.81-.4-1.81-1v-4C142,186.8,142.72,186.3,143.7,186.3Z" fill="#d6dce5" fill-opacity="0.7"/><path d="M145.56,208.3H317.84c2,0,3.67.4,3.67,1v1c0,.6-1.67,1-3.67,1H145.56c-2,0-3.67-.4-3.67-1v-1C142.06,208.8,143.56,208.3,145.56,208.3Z" fill="#d6dce5" fill-opacity="0.7"/><path d="M145.56,216.68H317.84c2,0,3.67.4,3.67,1v1c0,.6-1.67,1-3.67,1H145.56c-2,0-3.67-.4-3.67-1v-1C142.06,217.18,143.56,216.68,145.56,216.68Z" fill="#d6dce5" fill-opacity="0.7"/><path d="M145.56,225.07H317.84c2,0,3.67.4,3.67,1v1c0,.6-1.67,1-3.67,1H145.56c-2,0-3.67-.4-3.67-1v-1C142.06,225.57,143.56,225.07,145.56,225.07Z" fill="#d6dce5" fill-opacity="0.7"/><path d="M145.41,233.46h165.4c1.92,0,3.52.4,3.52,1v1c0,.6-1.6,1-3.52,1H145.41c-1.92,0-3.52-.4-3.52-1v-1C142.05,234,143.49,233.46,145.41,233.46Z" fill="#d6dce5" fill-opacity="0.7"/><path d="M145,241.85H293.31c1.72,0,3.15.4,3.15,1v1c0,.6-1.43,1-3.15,1H145c-1.72,0-3.15-.4-3.15-1v-1C142,242.35,143.33,241.85,145,241.85Z" fill="#d6dce5" fill-opacity="0.7"/><rect x="102.14" y="186.3" width="31.06" height="37.77" rx="2.52" ry="2.52" fill="#d6dce5"/><path d="M272.43,268.18H320.5c.6,0,1,.84,1,2.09v2.09c0,1.26-.4,2.09-1,2.09H272.43c-.6,0-1-.84-1-2.09v-2.09C271.42,269.23,271.83,268.18,272.43,268.18Z" fill="#3e3e3f" fill-opacity="0.7"/><path d="M143.7,299.22h85c1,0,1.81.4,1.81,1v4c0,.6-.82,1-1.81,1h-85c-1,0-1.81-.4-1.81-1v-4C142,299.72,142.72,299.22,143.7,299.22Z" fill="#d6dce5" fill-opacity="0.7"/><path d="M145.56,321.22H317.84c2,0,3.67.4,3.67,1v1c0,.6-1.67,1-3.67,1H145.56c-2,0-3.67-.4-3.67-1v-1C142.06,321.72,143.56,321.22,145.56,321.22Z" fill="#d6dce5" fill-opacity="0.7"/><path d="M145.56,329.6H317.84c2,0,3.67.4,3.67,1v1c0,.6-1.67,1-3.67,1H145.56c-2,0-3.67-.4-3.67-1v-1C142.06,330.1,143.56,329.6,145.56,329.6Z" fill="#d6dce5" fill-opacity="0.7"/><rect x="102.14" y="299.22" width="31.06" height="37.77" rx="2.52" ry="2.52" fill="#d6dce5"/></g><g id="608fb99f-864a-43f5-8c24-265cae6ee295" data-name="Outline"><path d="M334.77,2c.57,0,1.23.88,1.23,2V334c0,1.14-.66,2-1.23,2H3.23c-.57,0-1.23-.88-1.23-2V4c0-1.14.66-2,1.23-2H334.77m0-2H3.23C1.46,0,0,1.81,0,4V334c0,2.21,1.46,4,3.23,4H334.77c1.78,0,3.23-1.81,3.23-4V4c0-2.21-1.46-4-3.23-4Z" fill="#eff1f5"/></g></svg>