<svg xmlns="http://www.w3.org/2000/svg" width="25" height="25" data-name="Layer 1">
  <path d="M8.33 12.5a4.17 4.17 0 1 1 4.17 4.17 4.17 4.17 0 0 1-4.17-4.17m-2.25 0a6.42 6.42 0 1 0 6.42-6.42 6.42 6.42 0 0 0-6.42 6.42m11.59-6.67a1.5 1.5 0 1 0 1.5-1.5 1.5 1.5 0 0 0-1.5 1.5M7.45 22.68a6.72 6.72 0 0 1-2.32-.44 3.73 3.73 0 0 1-1.44-.93 3.73 3.73 0 0 1-.93-1.44 6.55 6.55 0 0 1-.43-2.32c-.07-1.32-.08-1.71-.08-5.05s0-3.73.08-5a6.55 6.55 0 0 1 .43-2.32 3.73 3.73 0 0 1 .93-1.44 3.87 3.87 0 0 1 1.44-.94 7 7 0 0 1 2.32-.43c1.32-.06 1.71-.07 5.05-.07s3.73 0 5.05.07a7 7 0 0 1 2.32.43 3.87 3.87 0 0 1 1.44.94 3.87 3.87 0 0 1 .94 1.44 7 7 0 0 1 .43 2.32c.06 1.32.07 1.71.07 5.05s0 3.73-.07 5.05a7 7 0 0 1-.43 2.32 3.87 3.87 0 0 1-.94 1.44 3.73 3.73 0 0 1-1.44.93 6.72 6.72 0 0 1-2.32.44c-1.32.06-1.71.07-5.05.07s-3.73 0-5-.07M7.35.08a9.2 9.2 0 0 0-3 .58A5.9 5.9 0 0 0 2.1 2.1 6 6 0 0 0 .66 4.31a9.2 9.2 0 0 0-.58 3C0 8.68 0 9.11 0 12.5s0 3.82.08 5.15a9.2 9.2 0 0 0 .58 3A6 6 0 0 0 2.1 22.9a6 6 0 0 0 2.21 1.44 9.2 9.2 0 0 0 3 .58c1.37.08 1.8.08 5.19.08s3.82 0 5.15-.08a9.15 9.15 0 0 0 3-.58 6.39 6.39 0 0 0 3.65-3.65 9.17 9.17 0 0 0 .59-3c.06-1.33.07-1.76.07-5.15s0-3.82-.07-5.15a9.44 9.44 0 0 0-.59-3 6 6 0 0 0-1.4-2.29A5.9 5.9 0 0 0 20.69.66a8.89 8.89 0 0 0-3-.58C16.32 0 15.9 0 12.5 0S8.68 0 7.35.08"/>
</svg>
