<?xml version="1.0" encoding="utf-8"?>
<!-- Generator: Adobe Illustrator 22.0.0, SVG Export Plug-In . SVG Version: 6.00 Build 0)  -->
<svg version="1.1" id="Layer_1" xmlns="http://www.w3.org/2000/svg" xmlns:xlink="http://www.w3.org/1999/xlink" x="0px" y="0px"
	 width="2500px" height="2500px" viewBox="0 0 2500 2500" style="enable-background:new 0 0 2500 2500;" xml:space="preserve">
<style type="text/css">
	.st0{fill:#010101;}
</style>
<g>
	<path class="st0" d="M2467.4,1222.7c-5.8-407.6-234.3-803.5-584.3-1012.8C1605.2,38.4,1257-8.7,941.9,72.1l0,0
		c-475,118-851.8,548.2-900,1036C-18,1569.8,215.1,2050.6,614.5,2289c391.9,245.4,922.7,235.5,1306.4-22.7
		C2265.7,2042.4,2480.2,1634.3,2467.4,1222.7z M1318,2286.6c-553.5,55.2-1088.4-414-1104.1-969.8
		c-41.3-450,255.2-896.5,679.6-1045.4C1489,33.1,2219.2,473.3,2280.8,1111.6C2376.7,1686,1900,2269.8,1318,2286.6z"/>
	<path class="st0" d="M1179.1,1309.9c-143,219.8-290.1,437.2-433.1,657c273.3-211.1,533.1-438.4,801.7-655.2
		C1425,1309.9,1302.3,1309.9,1179.1,1309.9L1179.1,1309.9z"/>
	<path class="st0" d="M953.5,1188.4C953.5,1188.4,953.5,1188.4,953.5,1188.4C953.5,1188.4,953.5,1188.4,953.5,1188.4L953.5,1188.4z"
		/>
	<path class="st0" d="M1320.9,1189.5c143-219.8,290.1-436.6,433.1-656.4c-272.7,211.6-533.7,437.2-800.6,655.2
		C1075.6,1190.1,1198.3,1190.1,1320.9,1189.5z"/>
</g>
</svg>
