<svg id="4e2780a4-58cb-4cc6-8802-f83e369af1d7" data-name="Portfolio" xmlns="http://www.w3.org/2000/svg" viewBox="0 0 500 487.37"><title>portfolio</title><polygon points="500 357.98 0 322.56 0 0 500 0 500 357.98" fill="#516fb6"/><rect x="29.01" y="390.87" width="127" height="96.5" rx="5.25" ry="5.25" fill="#d6dde6" opacity="0.5"/><path d="M33.37,401.42H55.83c.26,0,.47.83.47,2.07v2.06c0,1.24-.21,2.06-.47,2.06H33.37c-.27,0-.48-.82-.48-2.06v-2.06C32.91,402.46,33.1,401.42,33.37,401.42Z" fill="#778ca6" opacity="0.75"/><path d="M33.16,416.76h13c.15,0,.28.48.28,1.19v1.2c0,.72-.13,1.2-.28,1.2h-13c-.15,0-.27-.48-.27-1.2V418C32.9,417.36,33,416.76,33.16,416.76Z" fill="#778ca6" opacity="0.75"/><path d="M31.3,358H97.59c.77,0,1.41.82,1.41,2.06v2.06c0,1.24-.64,2.07-1.41,2.07H31.3c-.77,0-1.41-.83-1.41-2.07V360C30,359,30.53,358,31.3,358Z" fill="#778ca6" opacity="0.75"/><path d="M30.71,373.31H69.15c.45,0,.82.48.82,1.2v1.19c0,.72-.37,1.2-.82,1.2H30.71c-.45,0-.82-.48-.82-1.2v-1.19C29.92,373.91,30.26,373.31,30.71,373.31Z" fill="#778ca6" opacity="0.75"/><path d="M181.4,79.15H318.6c1.59,0,2.92,1.7,2.92,4.26v4.27c0,2.56-1.33,4.27-2.92,4.27H181.4c-1.59,0-2.92-1.71-2.92-4.27V83.41C178.61,81.28,179.81,79.15,181.4,79.15Z" fill="#fff" opacity="0.75"/><path d="M210.21,110.88h79.58c.92,0,1.69,1,1.69,2.47v2.48c0,1.49-.77,2.48-1.69,2.48H210.21c-.92,0-1.69-1-1.69-2.48v-2.48C208.6,112.12,209.29,110.88,210.21,110.88Z" fill="#fff" opacity="0.75"/><path d="M31.11,11.21H137.87c1.24,0,2.27,1.32,2.27,3.32v3.32c0,2-1,3.32-2.27,3.32H31.11c-1.24,0-2.27-1.33-2.27-3.32V14.53C28.94,12.87,29.87,11.21,31.11,11.21Z" fill="#fff" opacity="0.75"/><path d="M30.16,26.9H92.07c.72,0,1.32.77,1.32,1.93v1.92c0,1.16-.6,1.93-1.32,1.93H30.16c-.72,0-1.32-.77-1.32-1.93V28.83C28.9,27.86,29.44,26.9,30.16,26.9Z" fill="#fff" opacity="0.75"/><path d="M315.06,18.28h40.85c.48,0,.87.77.87,1.93v1.92c0,1.16-.39,1.93-.87,1.93H315.06c-.47,0-.87-.77-.87-1.93V20.21C314.23,19.24,314.59,18.28,315.06,18.28Z" fill="#fff" opacity="0.75"/><path d="M371.77,18.28h40.85c.48,0,.87.77.87,1.93v1.92c0,1.16-.39,1.93-.87,1.93H371.77c-.47,0-.87-.77-.87-1.93V20.21C370.94,19.24,371.3,18.28,371.77,18.28Z" fill="#fff" opacity="0.75"/><path d="M428.48,18.28h40.85c.48,0,.87.77.87,1.93v1.92c0,1.16-.39,1.93-.87,1.93H428.48c-.48,0-.87-.77-.87-1.93V20.21C427.65,19.24,428,18.28,428.48,18.28Z" fill="#fff" opacity="0.75"/><path d="M108.11,170.33H433.17c3.77,0,6.91,1,6.91,2.48v2.47c0,1.49-3.14,2.48-6.91,2.48H108.11c-3.77,0-6.91-1-6.91-2.48v-2.47C101.51,171.57,104.34,170.33,108.11,170.33Z" fill="#fff" opacity="0.75"/><path d="M108.11,192.47H433.17c3.77,0,6.91,1,6.91,2.47v2.48c0,1.48-3.14,2.47-6.91,2.47H108.11c-3.77,0-6.91-1-6.91-2.47v-2.48C101.51,193.71,104.34,192.47,108.11,192.47Z" fill="#fff" opacity="0.75"/><path d="M107.67,214.84H412c3.53,0,6.47.93,6.47,2.32v2.32c0,1.39-2.94,2.31-6.47,2.31H107.67c-3.53,0-6.47-.92-6.47-2.31v-2.32C101.49,216,104.14,214.84,107.67,214.84Z" fill="#fff" opacity="0.75"/><path d="M105.26,236.74H296.11c2.21,0,4.06,1,4.06,2.47v2.48c0,1.49-1.85,2.48-4.06,2.48H105.26c-2.22,0-4.06-1-4.06-2.48v-2.48C101.38,238,103,236.74,105.26,236.74Z" fill="#fff" opacity="0.75"/><path d="M108.11,270.56H433.17c3.77,0,6.91,1,6.91,2.47v2.48c0,1.48-3.14,2.47-6.91,2.47H108.11c-3.77,0-6.91-1-6.91-2.47V273C101.51,271.79,104.34,270.56,108.11,270.56Z" fill="#fff" opacity="0.75"/><path d="M106.62,292.69H361.45c3,0,5.42,1,5.42,2.48v2.47c0,1.49-2.46,2.48-5.42,2.48H106.62c-3,0-5.42-1-5.42-2.48v-2.47C101.44,293.93,103.66,292.69,106.62,292.69Z" fill="#fff" opacity="0.75"/><path d="M33.16,473.23h13c.15,0,.28.48.28,1.19v1.2c0,.72-.13,1.2-.28,1.2h-13c-.15,0-.27-.48-.27-1.2v-1.2C32.9,473.83,33,473.23,33.16,473.23Z" fill="#778ca6" opacity="0.75"/><path d="M33.16,439.52H135.81c.16,0,.28.48.28,1.2v1.19c0,.72-.12,1.2-.28,1.2H33.16c-.15,0-.27-.48-.27-1.2v-1.19C32.9,440.12,33,439.52,33.16,439.52Z" fill="#778ca6" opacity="0.75"/><path d="M33.16,452.27H123.4c.15,0,.28.48.28,1.2v1.19c0,.72-.13,1.2-.28,1.2H33.16c-.15,0-.27-.48-.27-1.2v-1.19C32.9,452.87,33,452.27,33.16,452.27Z" fill="#778ca6" opacity="0.75"/><rect x="186.5" y="390.87" width="127" height="96.5" rx="5.25" ry="5.25" fill="#d6dde6" opacity="0.5"/><path d="M190.86,401.42h22.46c.26,0,.48.83.48,2.07v2.06c0,1.24-.22,2.06-.48,2.06H190.86c-.26,0-.48-.82-.48-2.06v-2.06C190.4,402.46,190.6,401.42,190.86,401.42Z" fill="#778ca6" opacity="0.75"/><path d="M190.66,416.76h13c.15,0,.28.48.28,1.19v1.2c0,.72-.13,1.2-.28,1.2h-13c-.15,0-.28-.48-.28-1.2V418C190.39,417.36,190.51,416.76,190.66,416.76Z" fill="#778ca6" opacity="0.75"/><path d="M190.66,473.23h13c.15,0,.28.48.28,1.19v1.2c0,.72-.13,1.2-.28,1.2h-13c-.15,0-.28-.48-.28-1.2v-1.2C190.39,473.83,190.51,473.23,190.66,473.23Z" fill="#778ca6" opacity="0.75"/><path d="M190.66,439.52H293.31c.15,0,.27.48.27,1.2v1.19c0,.72-.12,1.2-.27,1.2H190.66c-.15,0-.28-.48-.28-1.2v-1.19C190.39,440.12,190.51,439.52,190.66,439.52Z" fill="#778ca6" opacity="0.75"/><path d="M190.66,452.27h90.23c.15,0,.28.48.28,1.2v1.19c0,.72-.13,1.2-.28,1.2H190.66c-.15,0-.28-.48-.28-1.2v-1.19C190.39,452.87,190.51,452.27,190.66,452.27Z" fill="#778ca6" opacity="0.75"/><rect x="343.99" y="390.87" width="127" height="96.5" rx="5.25" ry="5.25" fill="#d6dde6" opacity="0.5"/><path d="M348.35,401.42h22.46c.26,0,.48.83.48,2.07v2.06c0,1.24-.22,2.06-.48,2.06H348.35c-.26,0-.48-.82-.48-2.06v-2.06C347.89,402.46,348.09,401.42,348.35,401.42Z" fill="#778ca6" opacity="0.75"/><path d="M348.15,416.76h13c.15,0,.27.48.27,1.19v1.2c0,.72-.12,1.2-.27,1.2h-13c-.15,0-.28-.48-.28-1.2V418C347.88,417.36,348,416.76,348.15,416.76Z" fill="#778ca6" opacity="0.75"/><path d="M348.15,473.23h13c.15,0,.27.48.27,1.19v1.2c0,.72-.12,1.2-.27,1.2h-13c-.15,0-.28-.48-.28-1.2v-1.2C347.88,473.83,348,473.23,348.15,473.23Z" fill="#778ca6" opacity="0.75"/><path d="M348.15,439.52H450.8c.15,0,.28.48.28,1.2v1.19c0,.72-.13,1.2-.28,1.2H348.15c-.15,0-.28-.48-.28-1.2v-1.19C347.88,440.12,348,439.52,348.15,439.52Z" fill="#778ca6" opacity="0.75"/><path d="M348.15,452.27h90.23c.15,0,.28.48.28,1.2v1.19c0,.72-.13,1.2-.28,1.2H348.15c-.15,0-.28-.48-.28-1.2v-1.19C347.88,452.87,348,452.27,348.15,452.27Z" fill="#778ca6" opacity="0.75"/><circle cx="56.3" cy="203.98" r="8.31" fill="#fff" opacity="0.75"/><circle cx="56.3" cy="235.23" r="8.31" fill="#fff" opacity="0.75"/><circle cx="56.3" cy="266.47" r="8.31" fill="#fff" opacity="0.75"/></svg>