<?xml version="1.0" encoding="utf-8"?>
<!-- Generator: Adobe Illustrator 22.0.0, SVG Export Plug-In . SVG Version: 6.00 Build 0)  -->
<svg version="1.1" id="Layer_1" xmlns="http://www.w3.org/2000/svg" xmlns:xlink="http://www.w3.org/1999/xlink" x="0px" y="0px"
	 width="886.2px" height="88.7px" viewBox="0 0 886.2 88.7" style="enable-background:new 0 0 886.2 88.7;" xml:space="preserve">
<style type="text/css">
	.st0{fill:#3B4550;}
</style>
<path class="st0" d="M37.3,24.6L7.1,43.1l30.2,18.5l-4.2,6.1L0,47v-7.9l33.4-20.6L37.3,24.6z M85.4,66.2c-4.3,2.7-9.8,4-16.3,4H52.4
	V10.5h15.4c6.2,0,11.3,1.2,15.3,3.5s6.1,6.2,6,11.6c0.2,3.2-1,6.3-3.1,8.7c-2.1,2.2-4.9,3.7-7.9,4.3c9.1,1.6,13.7,6.4,13.7,14.6
	C91.9,59.1,89.7,63.5,85.4,66.2z M77.6,19.3c-1.9-1.4-4.8-2.2-8.4-2.2H61v18.5h8.8c7.1,0,10.7-3.2,10.7-9.5
	C80.5,23,79.5,20.8,77.6,19.3z M79.5,44.8c-2.2-1.6-5.2-2.4-9.1-2.4H61v20.9h9.1c8.5,0,12.7-3.3,12.7-10
	C82.8,49.2,81.7,46.4,79.5,44.8L79.5,44.8z M137.5,29.8c3.5,4.3,5.2,10.1,5.2,17.5c0,7.3-1.8,13.1-5.3,17.4
	c-3.5,4.3-8.5,6.5-14.8,6.5c-6.5,0-11.4-2.1-14.9-6.4c-3.5-4.2-5.2-10.1-5.2-17.5c0-7.3,1.8-13.1,5.3-17.5c3.5-4.4,8.5-6.5,14.9-6.5
	C129.1,23.4,134.1,25.5,137.5,29.8z M114.2,34.3c-1.9,2.8-2.8,7.2-2.8,13.1s0.9,10.2,2.8,13c1.8,2.8,4.7,4.3,8.5,4.3
	c3.8,0,6.6-1.4,8.5-4.2s2.8-7.2,2.8-13.1s-0.9-10.2-2.8-13c-1.8-2.8-4.7-4.2-8.4-4.2S116.1,31.5,114.2,34.3z M171,25.2
	c2.2-1.2,4.6-1.8,7.1-1.8c5.8,0,10.1,2.1,12.9,6.3c2.8,4.2,4.2,10.1,4.2,17.6c0,7.1-1.6,12.9-4.8,17.3c-3,4.3-8.1,6.8-13.4,6.6
	c-5.2,0-9.3-1.9-12.2-5.7l-0.5,4.7h-7.4v-64l8.3-1v25.1C166.7,28.2,168.7,26.4,171,25.2L171,25.2z M183.3,60.4
	c1.9-2.9,2.9-7.3,2.9-13.1c0-11.6-3.4-17.3-10.2-17.3c-2.2,0-4.3,0.7-6,2c-1.9,1.4-3.5,3.1-4.8,5.1v22.1c1.1,1.7,2.6,3.1,4.3,4.2
	c1.7,1,3.5,1.5,5.5,1.5C178.3,64.9,181.5,63.2,183.3,60.4L183.3,60.4z M223,25.2c2.2-1.2,4.6-1.8,7.1-1.8c5.8,0,10.1,2.1,12.9,6.3
	c2.8,4.2,4.2,10.1,4.2,17.6c0,7.1-1.6,12.9-4.8,17.3c-3,4.3-8.1,6.8-13.4,6.6c-5.2,0-9.3-1.9-12.2-5.7l-0.5,4.7h-7.4v-64l8.3-1v25.1
	C218.7,28.2,220.7,26.4,223,25.2L223,25.2z M235.3,60.4c1.9-2.9,2.9-7.3,2.9-13.1c0-11.6-3.4-17.3-10.2-17.3c-2.2,0-4.3,0.7-6,2
	c-1.9,1.4-3.5,3.1-4.8,5.1v22.1c1.1,1.7,2.6,3.1,4.3,4.2c1.7,1,3.5,1.5,5.5,1.5C230.3,64.9,233.5,63.2,235.3,60.4L235.3,60.4z
	 M283.8,70.5c-1.4,4.8-4.1,9.2-7.6,12.7c-3.3,3.1-7.8,5-13.6,5.6l-1.1-6.5c2.5-0.4,5-1.1,7.3-2.2c1.7-0.9,3.2-2.2,4.4-3.8
	c1.2-1.9,2.2-3.9,2.9-6h-2.9l-15.7-45.7h8.8l12.5,39.6l12.4-39.6h8.6L283.8,70.5z M346.9,43.7c-4.1,3.1-9.8,4.7-16.9,4.7h-7.5v21.8
	h-8.6V10.5h15.8c7.5,0,13.3,1.5,17.4,4.6c4.1,3.1,6.1,7.7,6.1,13.9C353.1,35.7,351.1,40.6,346.9,43.7L346.9,43.7z M340.4,19.9
	c-2.4-1.9-5.7-2.9-9.9-2.9h-8.1v24.6h8c4.3,0,7.6-1,10-2.9c2.4-1.9,3.6-5.2,3.6-9.8C344,24.9,342.8,21.8,340.4,19.9L340.4,19.9z
	 M399.4,63.7c0.7,0.9,1.7,1.6,2.9,1.9l-2,5.7c-4.6-0.6-7.5-2.7-8.8-6.4c-1.6,2.1-3.7,3.7-6.2,4.8c-2.6,1.1-5.4,1.7-8.3,1.7
	c-4.6,0-8.3-1.3-10.9-3.9c-2.7-2.7-4.2-6.4-4-10.3c-0.2-4.4,1.9-8.6,5.6-11c3.7-2.6,9.1-3.9,16-3.9h6.6v-3.3c0-3.1-0.9-5.3-2.7-6.7
	c-1.8-1.4-4.4-2.1-7.8-2.1c-4.1,0.1-8.2,0.9-12,2.3l-2.2-6.1c4.9-1.9,10.2-2.9,15.4-3c5.8,0,10.1,1.3,13.1,3.9s4.5,6.3,4.5,11v21.3
	C398.5,61.1,398.7,62.4,399.4,63.7L399.4,63.7z M385.4,63.4c2-1.1,3.6-2.7,4.9-4.6V47.8h-6.1c-4.6,0-8,0.8-10.1,2.3
	c-2.1,1.6-3.3,4.2-3.2,6.8c-0.2,2.2,0.6,4.4,2.1,6.1c1.4,1.4,3.5,2.1,6.2,2.1C381.4,65.1,383.5,64.5,385.4,63.4L385.4,63.4z
	 M448.1,70.3c-2.2,0.6-4.6,0.9-6.9,0.9c-5,0-8.9-1.3-11.7-3.9c-2.8-2.7-4.3-6.5-4.1-10.4V30.8h-10.2v-6.2h10.3V14.2l8.3-1v11.3h15.7
	l-1,6.2h-14.7v26.1c0,2.5,0.7,4.4,2,5.7c1.3,1.2,3.5,1.9,6.4,1.9c3,0,6-0.7,8.7-2.1l3.1,5.6C452.2,69,450.2,69.8,448.1,70.3
	L448.1,70.3z M500.1,70.3c-2.2,0.6-4.6,0.9-6.9,0.9c-5,0-8.9-1.3-11.7-3.9c-2.8-2.7-4.3-6.5-4.1-10.4V30.8h-10.2v-6.2h10.3V14.2
	l8.3-1v11.3h15.7l-1,6.2h-14.7v26.1c0,2.5,0.7,4.4,2,5.7c1.3,1.2,3.5,1.9,6.4,1.9c3,0,6-0.7,8.7-2.1l3.1,5.6
	C504.2,69,502.2,69.8,500.1,70.3z M531.5,61c2.4,2.4,5.7,3.7,9.1,3.6c2.1,0,4.2-0.3,6.2-1c2.1-0.8,4.1-1.8,6-3.1l3.7,5.3
	c-2.2,1.8-4.7,3.1-7.5,4c-2.8,1-5.7,1.5-8.7,1.5c-6.8,0-12-2.2-15.8-6.5c-3.8-4.3-5.6-10.1-5.6-17.3c-0.1-4.2,0.8-8.5,2.5-12.3
	c1.5-3.5,4-6.4,7.1-8.5c3.2-2.1,7-3.2,10.8-3.1c5.9,0,10.6,2,14,6.1s5.1,9.6,5.1,16.5c0,1.4-0.1,2.8-0.2,4.2h-30.7
	C527.8,55,529.1,58.6,531.5,61L531.5,61z M531.2,33.5c-2.1,2.4-3.3,5.9-3.6,10.6h22.7c-0.1-4.6-1.1-8.1-3-10.5
	c-1.9-2.4-4.8-3.8-7.9-3.7C536.3,29.8,533.3,31.1,531.2,33.5L531.2,33.5z M611,24.5l-1.3,16h-6.4V31h-0.1c-6.9,0-11.8,4.9-14.7,14.7
	V64h9.3v6.2h-24.6V64h7V30.7h-7v-6.1h13.3l1.5,10.7c1.4-3.4,3.7-6.5,6.5-8.8c2.8-2,6.3-3,9.8-2.9C606.6,23.5,608.9,23.9,611,24.5z
	 M648.7,62.8c1.8-1,2.9-2.9,2.9-4.9c0-1.2-0.2-2.5-0.8-3.5c-0.8-1.1-1.9-2-3.1-2.5c-2.3-1-4.7-1.8-7.1-2.3
	c-5.2-1.3-9.1-2.9-11.6-4.8c-2.5-1.9-3.8-4.7-3.8-8.4c-0.1-3.7,1.8-7.2,4.8-9.3c3.2-2.3,7.5-3.5,12.8-3.5c6.1-0.2,12.1,1.6,17,5.2
	l-3.7,5.4c-1.9-1.3-3.9-2.3-6-3c-2.3-0.7-4.6-1.1-7-1.1c-6.2,0-9.4,1.9-9.4,5.5c-0.1,1.1,0.3,2.2,1,3.1c1,1,2.2,1.8,3.5,2.2
	c2.4,0.9,4.8,1.7,7.3,2.3c5,1.3,8.7,3,11.1,5.1c2.5,2,3.7,5.1,3.7,9.1c0.2,4.3-2,8.3-5.7,10.4c-3.8,2.3-8.5,3.5-14,3.5
	c-7.3,0-13.4-2.1-18.2-6.2l4.5-5.3c1.9,1.6,4,2.8,6.3,3.6c2.4,0.9,4.9,1.3,7.4,1.3C643.6,64.8,646.3,64.2,648.7,62.8z M709.5,29.8
	c3.5,4.3,5.2,10.1,5.2,17.5c0,7.3-1.8,13.1-5.3,17.4s-8.5,6.5-14.8,6.5c-6.5,0-11.4-2.1-14.9-6.4c-3.5-4.2-5.2-10.1-5.2-17.5
	c0-7.3,1.8-13.1,5.3-17.5c3.5-4.4,8.5-6.5,14.9-6.5C701.1,23.4,706,25.5,709.5,29.8z M686.1,34.3c-1.9,2.8-2.8,7.2-2.8,13.1
	s0.9,10.2,2.8,13c1.8,2.8,4.7,4.3,8.5,4.3c3.8,0,6.6-1.4,8.5-4.2s2.8-7.2,2.8-13.1s-0.9-10.2-2.8-13c-1.9-2.8-4.7-4.2-8.4-4.2
	S688,31.5,686.1,34.3z M728.8,24.5h7.2l0.6,6.1c3.7-4.5,9.2-7.2,15-7.3c4.3,0,7.5,1.2,9.6,3.5s3.2,5.7,3.2,10.1v33.2h-8.3V42.1
	c0.1-2.4-0.1-4.9-0.5-7.3c-0.2-1.5-1-2.8-2.1-3.7c-1.4-0.9-3-1.3-4.7-1.2c-2.3,0-4.6,0.8-6.5,2.1c-2,1.4-3.8,3.1-5.2,5.2v33h-8.3
	L728.8,24.5z M799.8,76.2L836.7,0l6.6,3.1l-36.8,76.1L799.8,76.2z M886.2,39.1V47l-33.1,20.6l-4.2-6.1L879,43.1l-30.2-18.4l4-6.2
	L886.2,39.1z"/>
</svg>
