<svg xmlns="http://www.w3.org/2000/svg" width="500" height="500">
  <g data-name="Layer 5">
    <path fill="#fff" d="M0 0h500v500H0z"/>
    <path fill="#f7fafe" d="M0 0h500v500H0z"/>
  </g>
  <g data-name="Canon">
    <path fill="#d6dde6" d="M0 0h500v13H0z" opacity=".4"/>
    <path fill="#353535" d="M0 62.7h500V82H0z" opacity=".5"/>
    <path fill="#d6dde6" d="M25.97 146.04h407.84v33.93H25.97zM25.97 344.7h407.84v33.93H25.97zM25.97 203.08H87.6V253H25.97zM438.66 146.04h34.69v38.3h-34.69zM438.66 207.87h34.69v38.3h-34.69zM438.66 269.7h34.69V308h-34.69zM438.66 331.52h34.69v38.3h-34.69zM438.66 393.35h34.69v38.3h-34.69z" opacity=".4"/>
    <path fill="#55c6d3" d="M139.1 94.63h152.13c2.82 0 4.71.5 4.71 1.24v1.25c0 .75-1.89 1.25-4.71 1.25H139.1c-2.83 0-4.72-.5-4.72-1.25v-1.25c0-.62 2.36-1.24 4.72-1.24z" opacity=".4" style="isolation:isolate"/>
    <path fill="#7b7c81" d="M309.81 94.63h51.09c2.83 0 4.72.5 4.72 1.24v1.25c0 .75-1.89 1.25-4.72 1.25h-51.09c-2.83 0-4.72-.5-4.72-1.25v-1.25c0-.62 2.36-1.24 4.72-1.24zM36.58 157.6h150.67c3.48 0 5.8.41 5.8 1v1c0 .62-2.32 1-5.8 1H36.58c-3.48 0-5.8-.41-5.8-1v-1c0-.49 2.9-1 5.8-1zM34.11 166h86.6c2 0 3.33.41 3.33 1v1c0 .62-1.33 1-3.33 1h-86.6c-2 0-3.33-.41-3.33-1v-1c0-.49 1.67-1 3.33-1zM27.48 193.5h39.4c.91 0 1.52.41 1.52 1v1c0 .62-.61 1-1.52 1h-39.4c-.91 0-1.52-.41-1.52-1v-1c.04-.5.76-1 1.52-1zM27.48 261.27h115.83c.91 0 1.51.41 1.51 1v1c0 .61-.6 1-1.51 1H27.48c-.91 0-1.52-.41-1.52-1v-1c.04-.49.76-1 1.52-1z" opacity=".3"/>
    <path fill="#ed2025" d="M95.21 211h39.41c.91 0 1.51.41 1.51 1v1c0 .62-.6 1-1.51 1H95.21c-.91 0-1.51-.41-1.51-1v-1c0-.49.75-1 1.51-1zM364.91 210.92h24.37c.56 0 .94.56.94 1.4v1.41c0 .84-.38 1.4-.94 1.4h-24.37c-.57 0-.94-.56-.94-1.4v-1.41c.03-.7.47-1.4.94-1.4zM94.86 228h30.2a1 1 0 0 1 1.16 1v1a1 1 0 0 1-1.16 1h-30.2a1 1 0 0 1-1.16-1v-1a1.18 1.18 0 0 1 1.16-1z"/>
    <path fill="#7b7c81" d="M234.86 193.5h29.74a1 1 0 0 1 1.14 1v1a1 1 0 0 1-1.14 1h-29.74a1 1 0 0 1-1.14-1v-1a1.17 1.17 0 0 1 1.14-1zM95.27 219.52h34.44c.8 0 1.33.41 1.33 1v1c0 .62-.53 1-1.33 1H95.27c-.8 0-1.33-.41-1.33-1v-1c0-.52.67-1 1.33-1zM275.4 211h20.53c.47 0 .79.41.79 1v1c0 .62-.32 1-.79 1H275.4c-.48 0-.79-.4-.79-1v-1c0-.49.39-1 .79-1zM318.46 211H339c.47 0 .79.41.79 1v1c0 .62-.32 1-.79 1h-20.54c-.48 0-.79-.4-.79-1v-1c0-.49.39-1 .79-1zM405.65 211h20.53c.47 0 .79.41.79 1v1c0 .62-.32 1-.79 1h-20.53c-.48 0-.79-.4-.79-1v-1c0-.49.39-1 .79-1zM445.74 189.07h20.53c.47 0 .79.41.79 1v1c0 .61-.32 1-.79 1h-20.53c-.48 0-.79-.41-.79-1v-1c.05-.49.39-1 .79-1zM445.74 250.47h20.53c.47 0 .79.41.79 1v1c0 .61-.32 1-.79 1h-20.53c-.48 0-.79-.41-.79-1v-1c.05-.47.39-1 .79-1zM445.74 312.23h20.53c.47 0 .79.4.79 1v1c0 .61-.32 1-.79 1h-20.53c-.48 0-.79-.41-.79-1v-1c.05-.49.39-1 .79-1zM445.74 374h20.53c.47 0 .79.41.79 1v1c0 .61-.32 1-.79 1h-20.53c-.48 0-.79-.41-.79-1v-1c.05-.5.39-1 .79-1zM445.74 435.74h20.53c.47 0 .79.41.79 1v1c0 .61-.32 1-.79 1h-20.53c-.48 0-.79-.41-.79-1v-1c.05-.49.39-1 .79-1zM318.24 218.05h14.9c.35 0 .58.41.58 1v1c0 .61-.23 1-.58 1h-14.9c-.34 0-.57-.41-.57-1v-1c0-.49.33-1 .57-1zM95.09 236.56h29.74a1 1 0 0 1 1.14 1v1a1 1 0 0 1-1.14 1H95.09a1 1 0 0 1-1.15-1v-1a1.18 1.18 0 0 1 1.15-1zM273.63 193.5h24.16a.92.92 0 0 1 .93 1v1a.93.93 0 0 1-.93 1h-24.16a.93.93 0 0 1-.93-1v-1a1.06 1.06 0 0 1 .93-1zM316.65 193.5h24.15a.92.92 0 0 1 .93 1v1a.93.93 0 0 1-.93 1h-24.15a.93.93 0 0 1-.93-1v-1a1 1 0 0 1 .93-1zM364.9 193.5h24.15a.92.92 0 0 1 .93 1v1a.93.93 0 0 1-.93 1H364.9a.93.93 0 0 1-.93-1v-1a1 1 0 0 1 .93-1zM316.8 161.11h106.09c2.44 0 4.08.51 4.08 1.28v1.29c0 .77-1.64 1.28-4.08 1.28H316.8c-2.45 0-4.08-.51-4.08-1.28v-1.29c0-.64 2.04-1.28 4.08-1.28zM84.92 359.74h295.6c2.45 0 4.08.51 4.08 1.29v1.28c0 .77-1.63 1.29-4.08 1.29H84.92c-2.45 0-4.09-.52-4.09-1.29V361c0-.62 2.04-1.26 4.09-1.26z" opacity=".3"/>
    <path fill="#55c6d3" d="M346.7 27.63h122.56c2.83 0 4.72 1.12 4.72 2.79v2.8c0 1.68-1.89 2.79-4.72 2.79H346.7c-2.82 0-4.71-1.11-4.71-2.79v-2.8c.01-1.42 2.36-2.79 4.71-2.79z" opacity=".4" style="isolation:isolate"/>
    <path fill="#7b7c81" d="M346.7 41.3h122.56c2.83 0 4.72.41 4.72 1v1c0 .62-1.89 1-4.72 1H346.7c-2.82 0-4.71-.41-4.71-1v-1c.01-.49 2.36-1 4.71-1zM139.35 37.7h43.9c1 0 1.68.41 1.68 1v1c0 .61-.67 1-1.68 1h-43.9c-1 0-1.69-.41-1.69-1v-1c0-.49.85-1 1.69-1zM138.83 30.63h30.41a1 1 0 0 1 1.17 1v1a1 1 0 0 1-1.17 1h-30.41a1 1 0 0 1-1.17-1v-1a1.19 1.19 0 0 1 1.17-1z" opacity=".3"/>
    <path fill="#ed2025" d="M25.97 62.7h91.79V82H25.97zM356.88 113.3h76.93v15.69h-76.93z"/>
    <path fill="#353535" d="M274.61 113.3h76.25v15.69h-76.25z" opacity=".5"/>
    <path fill="#d6dde6" d="M263.3 395.74h135.4a2.92 2.92 0 0 1 2.88 3.12V402a2.92 2.92 0 0 1-2.88 3.11H263.3a2.92 2.92 0 0 1-2.88-3.11v-3.11c.13-1.59 1.31-3.15 2.88-3.15z" opacity=".4"/>
    <path fill="#ed2025" d="M404.8 395.74l17.62.18a2.93 2.93 0 0 1 2.88 3.08v3.11a2.92 2.92 0 0 1-2.88 3.11l-17.62-.18a2.92 2.92 0 0 1-2.88-3.11v-3.11c.13-1.52 1.31-3.08 2.88-3.08z"/>
    <path fill="#fff" d="M137.9 70.57h57c1.32 0 2.19.47 2.19 1.19V73c0 .71-.87 1.19-2.19 1.19h-57c-1.32 0-2.2-.48-2.2-1.19v-1.24c0-.6.88-1.19 2.2-1.19zM284.23 119.35h57c1.32 0 2.19.48 2.19 1.19v1.19c0 .72-.87 1.2-2.19 1.2h-57c-1.31 0-2.19-.48-2.19-1.2v-1.19c-.04-.54.88-1.19 2.19-1.19zM366.51 119.35h57c1.31 0 2.19.48 2.19 1.19v1.19c0 .72-.88 1.2-2.19 1.2h-57c-1.31 0-2.19-.48-2.19-1.2v-1.19c0-.54.88-1.19 2.19-1.19z" opacity=".85"/>
    <path fill="#ed2025" d="M356.88 472.66h76.93v15.69h-76.93z"/>
    <path fill="#353535" d="M274.61 472.66h76.25v15.69h-76.25z" opacity=".5"/>
    <path fill="#fff" d="M284.23 478.72h57c1.32 0 2.19.48 2.19 1.19v1.19c0 .72-.87 1.19-2.19 1.19h-57c-1.31 0-2.19-.47-2.19-1.19v-1.19c-.04-.59.88-1.19 2.19-1.19zM366.51 478.72h57c1.31 0 2.19.48 2.19 1.19v1.19c0 .72-.88 1.19-2.19 1.19h-57c-1.31 0-2.19-.47-2.19-1.19v-1.19c0-.59.88-1.19 2.19-1.19z" opacity=".85"/>
    <path fill="#d6dde6" d="M242.6 207.86h15a2.93 2.93 0 0 1 2.88 3.11v3.12a2.92 2.92 0 0 1-2.88 3.11h-15a2.92 2.92 0 0 1-2.89-3.11V211c.14-1.58 1.29-3.14 2.89-3.14zM25.97 276.58H87.6v49.92H25.97z" opacity=".4"/>
    <path fill="#ed2025" d="M95.21 284.5h39.41c.91 0 1.51.41 1.51 1v1c0 .62-.6 1-1.51 1H95.21c-.91 0-1.51-.41-1.51-1v-1c0-.5.75-1 1.51-1zM364.91 284.42h24.37c.56 0 .94.56.94 1.4v1.41c0 .84-.38 1.4-.94 1.4h-24.37c-.57 0-.94-.56-.94-1.4v-1.41c.03-.7.47-1.4.94-1.4zM94.86 301.54h30.2a1 1 0 0 1 1.16 1v1a1 1 0 0 1-1.16 1h-30.2a1 1 0 0 1-1.16-1v-1a1.18 1.18 0 0 1 1.16-1z"/>
    <path fill="#7b7c81" d="M95.27 293h34.44c.8 0 1.33.41 1.33 1v1c0 .62-.53 1-1.33 1H95.27c-.8 0-1.33-.41-1.33-1v-1c0-.47.67-1 1.33-1zM275.4 284.5h20.53c.47 0 .79.41.79 1v1c0 .62-.32 1-.79 1H275.4c-.48 0-.79-.4-.79-1v-1c0-.5.39-1 .79-1zM318.46 284.5H339c.47 0 .79.41.79 1v1c0 .62-.32 1-.79 1h-20.54c-.48 0-.79-.4-.79-1v-1c0-.5.39-1 .79-1zM405.65 284.5h20.53c.47 0 .79.41.79 1v1c0 .62-.32 1-.79 1h-20.53c-.48 0-.79-.4-.79-1v-1c0-.5.39-1 .79-1zM318.24 291.55h14.9c.35 0 .58.41.58 1v1c0 .61-.23 1-.58 1h-14.9c-.34 0-.57-.41-.57-1v-1c0-.49.33-1 .57-1zM95.09 310.06h29.74a1 1 0 0 1 1.14 1v1a1 1 0 0 1-1.14 1H95.09a1 1 0 0 1-1.15-1v-1a1.18 1.18 0 0 1 1.15-1zM27.11 416.72H148a1 1 0 0 1 1.15 1v1a1 1 0 0 1-1.15 1H27.11a1 1 0 0 1-1.15-1v-1a1.18 1.18 0 0 1 1.15-1zM27.11 424.37h65.83a1 1 0 0 1 1.15 1v1a1 1 0 0 1-1.15 1H27.11a1 1 0 0 1-1.15-1v-1a1.18 1.18 0 0 1 1.15-1zM399.94 424.37h23.19a1 1 0 0 1 1.15 1v1a1 1 0 0 1-1.15 1h-23.19a1 1 0 0 1-1.15-1v-1a1.18 1.18 0 0 1 1.15-1zM399.94 438.13h23.19a1 1 0 0 1 1.15 1v1a1 1 0 0 1-1.15 1h-23.19a1 1 0 0 1-1.15-1v-1a1.18 1.18 0 0 1 1.15-1z" opacity=".3"/>
    <path fill="#ed2025" d="M407.94 451.9h15.19a1 1 0 0 1 1.15 1v1a1 1 0 0 1-1.15 1h-15.19a1 1 0 0 1-1.15-1v-1a1.18 1.18 0 0 1 1.15-1z"/>
    <path fill="#7b7c81" d="M286.81 424.37h60.83a1 1 0 0 1 1.15 1v1a1 1 0 0 1-1.15 1h-60.83a1 1 0 0 1-1.15-1v-1a1.17 1.17 0 0 1 1.15-1zM286.81 451.9h65.83a1 1 0 0 1 1.15 1v1a1 1 0 0 1-1.15 1h-65.83a1 1 0 0 1-1.15-1v-1a1.17 1.17 0 0 1 1.15-1zM286.81 438.13h54.83a1 1 0 0 1 1.15 1v1a1 1 0 0 1-1.15 1h-54.83a1 1 0 0 1-1.15-1v-1a1.17 1.17 0 0 1 1.15-1zM27.11 432H148a1 1 0 0 1 1.15 1v1a1 1 0 0 1-1.15 1H27.11a1 1 0 0 1-1.15-1v-1a1.18 1.18 0 0 1 1.15-1zM27.11 439.67h72.5a1 1 0 0 1 1.15 1v1a1 1 0 0 1-1.15 1h-72.5a1 1 0 0 1-1.15-1v-1a1.18 1.18 0 0 1 1.15-1zM27.11 447.32H148a1 1 0 0 1 1.15 1v1a1 1 0 0 1-1.15 1H27.11a1 1 0 0 1-1.15-1v-1a1.18 1.18 0 0 1 1.15-1zM27.11 455h58.28a1 1 0 0 1 1.15 1v1a1 1 0 0 1-1.15 1H27.11a1 1 0 0 1-1.11-1v-1a1.18 1.18 0 0 1 1.11-1z" opacity=".3"/>
    <path fill="#d6dde6" d="M242.6 281.36h15a2.93 2.93 0 0 1 2.88 3.11v3.12a2.92 2.92 0 0 1-2.88 3.11h-15a2.92 2.92 0 0 1-2.89-3.11v-3.12c.14-1.55 1.29-3.11 2.89-3.11z" opacity=".4"/>
    <path fill="#ed2025" d="M33.39 39.65a7.67 7.67 0 0 0 6.49 3.65 8 8 0 0 0 6.23-3.47l.28.93a11.15 11.15 0 0 1-8.89 3.87c-4.28 0-8-2-9.66-5a7.28 7.28 0 0 1-1-3.65c0-4.77 4.77-8.63 10.66-8.63 4.16 0 7.5 1.78 9.26 4.36l-7 4.18 4-6.12a7.84 7.84 0 0 0-4-1.38 7.52 7.52 0 0 0-7.44 7.49 7.15 7.15 0 0 0 1.07 3.77zm18.69 0a3 3 0 0 0 0 .42 2.81 2.81 0 1 0 5.61 0 3 3 0 0 0 0-.42 2.81 2.81 0 0 0-5.55 0zm10.42 0l1.39 4.7H59l-1-3.22c-.64 1.85-2.82 3.22-5.4 3.22-3.09 0-5.6-2-5.6-4.36v-.34c.22-2.25 2.63-4 5.58-4a6.41 6.41 0 0 1 4.2 1.48l-1.28-4.49h-5.62A38.11 38.11 0 0 1 55 30.57c4.14-1.5 5.46 2.07 5.46 2.07l2.08 7zm15.65 0v4.7h-5V34a1.38 1.38 0 0 0-1.38-1.38 1.39 1.39 0 0 0-1.28.88v10.85h-4.98V32.64h-2.89s4-2.43 5.41-2.43a2.45 2.45 0 0 1 2.41 2.31c1.94-1.05 3.87-2.31 5.19-2.31a2.52 2.52 0 0 1 2.52 2.45v7zm7.76 0l.7 2.31a1.82 1.82 0 0 0 1.83 1.79 1.85 1.85 0 0 0 1.85-1.85 1.55 1.55 0 0 0 0-.22l-.6-2-2.09-7.16a1.85 1.85 0 0 0-1.84-1.64 2.13 2.13 0 0 0-2 1.79l2.12 7zm8 0a7.26 7.26 0 0 1-13.78 0 7.35 7.35 0 0 1-.36-2.28 7.26 7.26 0 0 1 14.51 0 7.17 7.17 0 0 1-.36 2.28zm8.34 0v4.7h-4.93V32.64h-2.77s3.9-2.43 5.29-2.43a2.45 2.45 0 0 1 2.41 2.31c1.94-1.05 3.87-2.31 5.19-2.31a2.52 2.52 0 0 1 2.56 2.45v11.69h-5V34a1.38 1.38 0 0 0-1.38-1.38 1.39 1.39 0 0 0-1.28.88v6.13z"/>
  </g>
</svg>
