<svg xmlns="http://www.w3.org/2000/svg" viewBox="0 0 500 500"><title>canon</title><g id="b8c81127-291a-4325-b459-a48eaca21868" data-name="Layer 5"><rect width="500" height="500" fill="#fff"/></g><g id="314fa329-34ba-41ee-b40c-05407be74805" data-name="Canon"><rect width="500" height="13" fill="#d6dde6" opacity="0.4"/><rect y="62.7" width="500" height="19.3" fill="#353535" opacity="0.5"/><rect x="45.66" y="146.04" width="369.16" height="33.93" fill="#d6dde6" opacity="0.4"/><rect x="45.66" y="344.7" width="369.16" height="33.93" fill="#d6dde6" opacity="0.4"/><rect x="46.45" y="203.08" width="60.16" height="49.92" fill="#d6dde6" opacity="0.4"/><rect x="419.66" y="146.04" width="34.69" height="38.3" fill="#d6dde6" opacity="0.4"/><rect x="419.66" y="207.87" width="34.69" height="38.3" fill="#d6dde6" opacity="0.4"/><rect x="419.66" y="269.7" width="34.69" height="38.3" fill="#d6dde6" opacity="0.4"/><rect x="419.66" y="331.52" width="34.69" height="38.3" fill="#d6dde6" opacity="0.4"/><rect x="419.66" y="393.35" width="34.69" height="38.3" fill="#d6dde6" opacity="0.4"/><path d="M327.07,29H449.63c2.83,0,4.71,1.12,4.71,2.79v2.8c0,1.68-1.88,2.79-4.71,2.79H327.07c-2.83,0-4.71-1.11-4.71-2.79v-2.8C322.36,30.35,324.72,29,327.07,29Z" transform="translate(0)" fill="#55c6d3" opacity="0.4" style="isolation:isolate"/><path d="M130.81,94.63H282.94c2.83,0,4.72.5,4.72,1.24v1.25c0,.75-1.89,1.25-4.72,1.25H130.81c-2.83,0-4.71-.5-4.71-1.25V95.87C126.1,95.25,128.46,94.63,130.81,94.63Z" transform="translate(0)" fill="#55c6d3" opacity="0.4" style="isolation:isolate"/><path d="M301.52,94.63h51.1c2.83,0,4.71.5,4.71,1.24v1.25c0,.75-1.88,1.25-4.71,1.25h-51.1c-2.82,0-4.71-.5-4.71-1.25V95.87C296.81,95.25,299.17,94.63,301.52,94.63Z" transform="translate(0)" fill="#7b7c81" opacity="0.3"/><path d="M327.07,42.62H449.63c2.83,0,4.71.41,4.71,1v1c0,.62-1.88,1-4.71,1H327.07c-2.83,0-4.71-.41-4.71-1v-1C322.36,43.13,324.72,42.62,327.07,42.62Z" transform="translate(0)" fill="#7b7c81" opacity="0.3"/><path d="M158.73,39h43.89c1,0,1.69.41,1.69,1v1c0,.61-.68,1-1.69,1H158.73c-1,0-1.69-.41-1.69-1V40C157,39.53,157.88,39,158.73,39Z" transform="translate(0)" fill="#7b7c81" opacity="0.3"/><path d="M62.58,157.6H213.25c3.48,0,5.8.41,5.8,1v1c0,.62-2.32,1-5.8,1H62.58c-3.48,0-5.8-.41-5.8-1v-1C56.78,158.11,59.68,157.6,62.58,157.6Z" transform="translate(0)" fill="#7b7c81" opacity="0.3"/><path d="M60.11,166h86.6c2,0,3.33.41,3.33,1v1c0,.62-1.33,1-3.33,1H60.11c-2,0-3.33-.41-3.33-1v-1C56.78,166.51,58.45,166,60.11,166Z" transform="translate(0)" fill="#7b7c81" opacity="0.3"/><path d="M53.3,193.5H92.7c.91,0,1.52.41,1.52,1v1c0,.62-.61,1-1.52,1H53.3c-.91,0-1.52-.41-1.52-1v-1C51.78,194,52.54,193.5,53.3,193.5Z" transform="translate(0)" fill="#7b7c81" opacity="0.3"/><path d="M56.82,261.27H172.65c.91,0,1.52.41,1.52,1v1c0,.61-.61,1-1.52,1H56.82c-.9,0-1.51-.41-1.51-1v-1C55.31,261.78,56.07,261.27,56.82,261.27Z" transform="translate(0)" fill="#7b7c81" opacity="0.3"/><path d="M114.21,211h39.41c.91,0,1.51.41,1.51,1v1c0,.62-.6,1-1.51,1H114.21c-.91,0-1.51-.41-1.51-1v-1C112.7,211.51,113.45,211,114.21,211Z" transform="translate(0)" fill="#ed2025"/><path d="M345.91,210.92h24.37c.56,0,.94.56.94,1.4v1.41c0,.84-.38,1.4-.94,1.4H345.91c-.57,0-.94-.56-.94-1.4v-1.41C345,211.62,345.44,210.92,345.91,210.92Z" transform="translate(0)" fill="#ed2025"/><path d="M113.86,228h30.2a1,1,0,0,1,1.16,1v1a1,1,0,0,1-1.16,1h-30.2a1,1,0,0,1-1.16-1v-1A1.18,1.18,0,0,1,113.86,228Z" transform="translate(0)" fill="#ed2025"/><path d="M215.86,193.5H245.6a1,1,0,0,1,1.14,1v1a1,1,0,0,1-1.14,1H215.86a1,1,0,0,1-1.14-1v-1A1.17,1.17,0,0,1,215.86,193.5Z" transform="translate(0)" fill="#7b7c81" opacity="0.3"/><path d="M114.27,219.52h34.44c.8,0,1.33.41,1.33,1v1c0,.62-.53,1-1.33,1H114.27c-.8,0-1.33-.41-1.33-1v-1C112.94,220,113.61,219.52,114.27,219.52Z" transform="translate(0)" fill="#7b7c81" opacity="0.3"/><path d="M256.4,211h20.53c.47,0,.79.41.79,1v1c0,.62-.32,1-.79,1H256.4c-.48,0-.79-.4-.79-1v-1C255.61,211.51,256,211,256.4,211Z" transform="translate(0)" fill="#7b7c81" opacity="0.3"/><path d="M299.46,211H320c.47,0,.79.41.79,1v1c0,.62-.32,1-.79,1H299.46c-.48,0-.79-.4-.79-1v-1C298.67,211.51,299.06,211,299.46,211Z" transform="translate(0)" fill="#7b7c81" opacity="0.3"/><path d="M386.68,211h20.53c.47,0,.79.41.79,1v1c0,.62-.32,1-.79,1H386.68c-.48,0-.79-.4-.79-1v-1C385.89,211.51,386.28,211,386.68,211Z" transform="translate(0)" fill="#7b7c81" opacity="0.3"/><path d="M426.74,189.07h20.53c.47,0,.79.41.79,1v1c0,.61-.32,1-.79,1H426.74c-.48,0-.79-.41-.79-1v-1C426,189.58,426.34,189.07,426.74,189.07Z" transform="translate(0)" fill="#7b7c81" opacity="0.3"/><path d="M426.74,250.47h20.53c.47,0,.79.41.79,1v1c0,.61-.32,1-.79,1H426.74c-.48,0-.79-.41-.79-1v-1C426,251,426.34,250.47,426.74,250.47Z" transform="translate(0)" fill="#7b7c81" opacity="0.3"/><path d="M426.74,312.23h20.53c.47,0,.79.4.79,1v1c0,.61-.32,1-.79,1H426.74c-.48,0-.79-.41-.79-1v-1C426,312.74,426.34,312.23,426.74,312.23Z" transform="translate(0)" fill="#7b7c81" opacity="0.3"/><path d="M426.74,374h20.53c.47,0,.79.41.79,1v1c0,.61-.32,1-.79,1H426.74c-.48,0-.79-.41-.79-1v-1C426,374.5,426.34,374,426.74,374Z" transform="translate(0)" fill="#7b7c81" opacity="0.3"/><path d="M426.74,435.74h20.53c.47,0,.79.41.79,1v1c0,.61-.32,1-.79,1H426.74c-.48,0-.79-.41-.79-1v-1C426,436.25,426.34,435.74,426.74,435.74Z" transform="translate(0)" fill="#7b7c81" opacity="0.3"/><path d="M299.24,218.05h14.9c.35,0,.58.41.58,1v1c0,.61-.23,1-.58,1h-14.9c-.34,0-.57-.41-.57-1v-1C298.67,218.56,299,218.05,299.24,218.05Z" transform="translate(0)" fill="#7b7c81" opacity="0.3"/><path d="M114.09,236.56h29.74a1,1,0,0,1,1.14,1v1a1,1,0,0,1-1.14,1H114.09a1,1,0,0,1-1.15-1v-1A1.18,1.18,0,0,1,114.09,236.56Z" transform="translate(0)" fill="#7b7c81" opacity="0.3"/><path d="M254.63,193.5h24.16a.92.92,0,0,1,.93,1v1a.93.93,0,0,1-.93,1H254.63a.93.93,0,0,1-.93-1v-1A1.06,1.06,0,0,1,254.63,193.5Z" transform="translate(0)" fill="#7b7c81" opacity="0.3"/><path d="M297.65,193.5H321.8a.92.92,0,0,1,.93,1v1a.93.93,0,0,1-.93,1H297.65a.93.93,0,0,1-.93-1v-1A1,1,0,0,1,297.65,193.5Z" transform="translate(0)" fill="#7b7c81" opacity="0.3"/><path d="M345.9,193.5h24.15a.92.92,0,0,1,.93,1v1a.93.93,0,0,1-.93,1H345.9a.93.93,0,0,1-.93-1v-1A1,1,0,0,1,345.9,193.5Z" transform="translate(0)" fill="#7b7c81" opacity="0.3"/><path d="M300.8,161.11H406.89c2.44,0,4.08.51,4.08,1.28v1.29c0,.77-1.64,1.28-4.08,1.28H300.8c-2.45,0-4.08-.51-4.08-1.28v-1.29C296.72,161.75,298.76,161.11,300.8,161.11Z" transform="translate(0)" fill="#7b7c81" opacity="0.3"/><path d="M158.21,32h30.4a1,1,0,0,1,1.17,1v1a1,1,0,0,1-1.17,1h-30.4A1,1,0,0,1,157,34V33A1.18,1.18,0,0,1,158.21,32Z" transform="translate(0)" fill="#7b7c81" opacity="0.3"/><rect x="45.66" y="62.7" width="93.79" height="19.3" fill="#ed2025"/><rect x="337.88" y="113.3" width="76.25" height="15.69" fill="#ed2025"/><rect x="255.61" y="113.3" width="76.25" height="15.69" fill="#353535" opacity="0.5"/><g id="6ee851a6-d5de-4e07-aaa6-e2365873a303" data-name="cGhfKF.tif"><path d="M139.48,46.3v.56H45.66V27.23H56.44l-.28.05c-.48.06-1,.11-1.45.19a12,12,0,0,0-3,.94,12.8,12.8,0,0,0-2.41,1.44,8.73,8.73,0,0,0-2.92,3.72,9.46,9.46,0,0,0-.66,2.92,7.5,7.5,0,0,0,.07,1.77A8.68,8.68,0,0,0,46,39.49a16,16,0,0,0,.6,1.49A7.58,7.58,0,0,0,48,43c.32.33.66.66,1,1a12.48,12.48,0,0,0,2.79,1.66,12,12,0,0,0,2,.64c.41.1.82.2,1.23.27s.69.11,1,.15.82.1,1.23.11a15.9,15.9,0,0,0,1.69,0,12.71,12.71,0,0,0,1.51-.19,13.37,13.37,0,0,0,5.13-2.15,11.76,11.76,0,0,0,2-1.65.15.15,0,0,0,0-.12c-.07-.33-.16-.66-.25-1a.64.64,0,0,1-.06.1A9.4,9.4,0,0,1,64.9,43.8a7.54,7.54,0,0,1-3.41,1.1,9.66,9.66,0,0,1-1.32,0,8,8,0,0,1-1.73-.38,7.77,7.77,0,0,1-2.81-1.59,7.93,7.93,0,0,1-1-1.07,9,9,0,0,1-.93-1.55A7.76,7.76,0,0,1,53,37.64a9.89,9.89,0,0,1,0-1.44,5.48,5.48,0,0,1,.29-1.38,8.17,8.17,0,0,1,.94-2,7.46,7.46,0,0,1,1-1.25c.21-.21.42-.42.64-.62s.43-.35.65-.52a8,8,0,0,1,1.43-.8,7.92,7.92,0,0,1,1.9-.54,5.88,5.88,0,0,1,1.39,0c.47.05.93.11,1.4.19a6.06,6.06,0,0,1,2,.71,4.5,4.5,0,0,1,.45.31c-.11.18-.21.35-.32.51l-1.65,2.63c-.58.93-1.16,1.87-1.75,2.8-.14.23-.27.46-.41.68v0h0v0h0l.55-.31L63,35.75l1.85-1.08,1.37-.8,1.24-.73,1.22-.71s.06,0,0-.11a7.9,7.9,0,0,0-1-1.31A12.21,12.21,0,0,0,66.58,30a9.5,9.5,0,0,0-1.22-.89A8.29,8.29,0,0,0,64,28.38a12.82,12.82,0,0,0-3-.84c-.53-.09-1.08-.15-1.62-.21s-.84,0-1.27-.08l-.07,0h81.44v5.63a.14.14,0,0,1,0-.06A2.65,2.65,0,0,0,138,30.87a3.28,3.28,0,0,0-2.69-.09c-1.1.44-2.16,1-3.24,1.46l-1.26.59a.45.45,0,0,1,0-.11,2.72,2.72,0,0,0-2.83-2.2,3.28,3.28,0,0,0-1.38.32l-5.23,2.41-.11.06v0l3.87.06V46.29h5.76V34.69a1.62,1.62,0,0,1,0-.22,1.48,1.48,0,0,1,1.78-1.13,1.37,1.37,0,0,1,1,1.34V46.3h5.79Zm-41.87,0h5.79V33a1.15,1.15,0,0,0,0-.19,2.63,2.63,0,0,0-1.47-2,3.34,3.34,0,0,0-2.8,0c-1.22.52-2.42,1.1-3.63,1.65l-.75.35-.06-.23a2.7,2.7,0,0,0-2.54-2.08,3.36,3.36,0,0,0-1.63.33L86,32.91l-.85.4v0l3.88.07V46.29H94.8v-.14c0-3.81,0-7.63,0-11.44a1.45,1.45,0,0,1,1.65-1.39,1.34,1.34,0,0,1,1.16,1.36V46.29Zm-27-12.94v0h7.24L79.07,38l-.13-.1A9.29,9.29,0,0,0,77.47,37a7.27,7.27,0,0,0-3.68-.62,6.53,6.53,0,0,0-2.29.6,5,5,0,0,0-2.63,2.38,4.3,4.3,0,0,0-.13,4,5.6,5.6,0,0,0,3.07,2.81,7.65,7.65,0,0,0,3.51.48,6.94,6.94,0,0,0,3.07-1,8.74,8.74,0,0,0,2-1.76l.18-.2c.23.85.45,1.68.68,2.5,0,.1.06.13.16.13h5.66s0-.08,0-.11c-.57-2.12-1.13-4.25-1.7-6.37s-1.09-4-1.66-6a4.28,4.28,0,0,0-3-3,5.09,5.09,0,0,0-3.18.14c-2.1.73-4.19,1.49-6.29,2.23Zm43.35,13.48a8.16,8.16,0,1,0-8.16-8.16A8.16,8.16,0,0,0,113.93,46.83Z" transform="translate(0)" fill="#fffffe"/><path d="M58,27.23l.07,0c.43,0,.85,0,1.27.08s1.09.12,1.62.21a12.82,12.82,0,0,1,3,.84,8.29,8.29,0,0,1,1.32.69,9.5,9.5,0,0,1,1.22.89A12.21,12.21,0,0,1,67.69,31a7.9,7.9,0,0,1,1,1.31c0,.06,0,.08,0,.11l-1.22.71-1.24.73-1.37.8L63,35.75l-1.44.85-.55.31h0c.14-.22.27-.45.41-.68.59-.93,1.17-1.87,1.75-2.8l1.65-2.63c.11-.16.21-.33.32-.51a4.5,4.5,0,0,0-.45-.31,6.06,6.06,0,0,0-2-.71c-.47-.08-.93-.14-1.4-.19a5.88,5.88,0,0,0-1.39,0,7.92,7.92,0,0,0-1.9.54,8,8,0,0,0-1.43.8c-.22.17-.44.34-.65.52s-.43.41-.64.62a7.46,7.46,0,0,0-1,1.25,8.17,8.17,0,0,0-.94,2A5.48,5.48,0,0,0,53,36.2a9.89,9.89,0,0,0,0,1.44,7.76,7.76,0,0,0,.69,2.63,9,9,0,0,0,.93,1.55,7.93,7.93,0,0,0,1,1.07,7.77,7.77,0,0,0,2.81,1.59,8,8,0,0,0,1.73.38,9.66,9.66,0,0,0,1.32,0,7.54,7.54,0,0,0,3.41-1.1,9.4,9.4,0,0,0,2.38-2.06.64.64,0,0,0,.06-.1c.09.37.18.7.25,1a.15.15,0,0,1,0,.12,11.76,11.76,0,0,1-2,1.65,13.37,13.37,0,0,1-5.13,2.15,12.71,12.71,0,0,1-1.51.19,15.9,15.9,0,0,1-1.69,0c-.41,0-.82-.06-1.23-.11s-.69-.08-1-.15-.82-.17-1.23-.27a12,12,0,0,1-2-.64A12.48,12.48,0,0,1,49,44c-.35-.3-.69-.63-1-1A7.58,7.58,0,0,1,46.62,41a16,16,0,0,1-.6-1.49,8.68,8.68,0,0,1-.26-1.23,7.5,7.5,0,0,1-.07-1.77,9.46,9.46,0,0,1,.66-2.92,8.73,8.73,0,0,1,2.92-3.72,12.8,12.8,0,0,1,2.41-1.44,12,12,0,0,1,3-.94c.48-.08,1-.13,1.45-.19l.28-.05Z" transform="translate(0)" fill="#e92427"/><path d="M139.48,46.3h-5.79V34.68a1.37,1.37,0,0,0-1-1.34,1.48,1.48,0,0,0-1.78,1.13,1.62,1.62,0,0,0,0,.22v11.6h-5.76V33.4l-3.87-.06v0l.11-.06,5.23-2.41a3.28,3.28,0,0,1,1.38-.32,2.72,2.72,0,0,1,2.83,2.2.45.45,0,0,0,0,.11l1.26-.59c1.08-.49,2.14-1,3.24-1.46a3.28,3.28,0,0,1,2.69.09,2.65,2.65,0,0,1,1.45,1.93.14.14,0,0,0,0,.06Z" transform="translate(0)" fill="#e92427"/><path d="M97.61,46.29V34.68a1.34,1.34,0,0,0-1.16-1.36,1.45,1.45,0,0,0-1.65,1.39c0,3.81,0,7.63,0,11.44v.14H89.05V33.4l-3.88-.07v0l.85-.4,4.5-2.06a3.36,3.36,0,0,1,1.63-.33,2.7,2.7,0,0,1,2.54,2.08l.06.23.75-.35c1.21-.55,2.41-1.13,3.63-1.65a3.34,3.34,0,0,1,2.8,0,2.63,2.63,0,0,1,1.47,2,1.15,1.15,0,0,1,0,.19V46.29Z" transform="translate(0)" fill="#e92427"/><path d="M70.58,33.35l.59-.22c2.1-.74,4.19-1.5,6.29-2.23a5.09,5.09,0,0,1,3.18-.14,4.28,4.28,0,0,1,3,3c.57,2,1.11,4,1.66,6s1.13,4.25,1.7,6.37c0,0,0,.06,0,.11H81.39c-.1,0-.14,0-.16-.13-.23-.82-.45-1.65-.68-2.5l-.18.2a8.74,8.74,0,0,1-2,1.76,6.94,6.94,0,0,1-3.07,1,7.65,7.65,0,0,1-3.51-.48,5.6,5.6,0,0,1-3.07-2.81,4.3,4.3,0,0,1,.13-4A5,5,0,0,1,71.5,37a6.53,6.53,0,0,1,2.29-.6,7.27,7.27,0,0,1,3.68.62,9.29,9.29,0,0,1,1.47.92l.13.1-1.24-4.63H70.59Zm6.37,11a2.86,2.86,0,1,0-2.86-2.86A2.86,2.86,0,0,0,77,44.39Z" transform="translate(0)" fill="#e92527"/><path d="M113.93,46.83a8.16,8.16,0,1,1,8.16-8A8.16,8.16,0,0,1,113.93,46.83ZM117.16,44a5.07,5.07,0,0,0-.09-.54c-.34-1.3-.69-2.6-1-3.9L114.29,33a1.91,1.91,0,0,0-.53-.91,1.71,1.71,0,0,0-1.64-.38,1.53,1.53,0,0,0-1.14.84,2.22,2.22,0,0,0-.13,1.6c.22.88.47,1.76.71,2.63.72,2.59,1.44,5.17,2.15,7.76a1.4,1.4,0,0,0,.77.91,2,2,0,0,0,1.67,0A1.53,1.53,0,0,0,117.16,44Z" transform="translate(0)" fill="#e92527"/><path d="M61,36.9v0h0v0Z" transform="translate(0)" fill="#e92427"/><path d="M77,44.39a2.86,2.86,0,1,1,2.86-2.8A2.85,2.85,0,0,1,77,44.39Z" transform="translate(0)" fill="#fffefe"/><path d="M117.16,44a1.53,1.53,0,0,1-1,1.48,2,2,0,0,1-1.67,0,1.4,1.4,0,0,1-.77-.91c-.71-2.59-1.43-5.17-2.15-7.76-.24-.87-.49-1.75-.71-2.63a2.22,2.22,0,0,1,.13-1.6,1.53,1.53,0,0,1,1.14-.84,1.71,1.71,0,0,1,1.64.38,1.91,1.91,0,0,1,.53.91L116,39.56c.35,1.3.7,2.6,1,3.9A5.07,5.07,0,0,1,117.16,44Z" transform="translate(0)" fill="#fffefe"/></g><path d="M244.3,395.74H379.7a2.92,2.92,0,0,1,2.88,3.12V402a2.92,2.92,0,0,1-2.88,3.11H244.3a2.92,2.92,0,0,1-2.88-3.11v-3.11C241.55,397.3,242.73,395.74,244.3,395.74Z" transform="translate(0)" fill="#d6dde6" opacity="0.4"/><path d="M385.8,395.74l17.62.18A2.93,2.93,0,0,1,406.3,399v3.11a2.92,2.92,0,0,1-2.88,3.11l-17.62-.18a2.92,2.92,0,0,1-2.88-3.11v-3.11C383.05,397.3,384.23,395.74,385.8,395.74Z" transform="translate(0)" fill="#ed2025"/><path d="M159.58,70.57h57c1.32,0,2.19.47,2.19,1.19V73c0,.71-.87,1.19-2.19,1.19h-57c-1.32,0-2.2-.48-2.2-1.19V71.76C157.38,71.16,158.26,70.57,159.58,70.57Z" transform="translate(0)" fill="#fff" opacity="0.85"/><path d="M265.23,119.35h57c1.32,0,2.19.48,2.19,1.19v1.19c0,.72-.87,1.2-2.19,1.2h-57c-1.31,0-2.19-.48-2.19-1.2v-1.19C263,120,263.92,119.35,265.23,119.35Z" transform="translate(0)" fill="#fff" opacity="0.85"/><path d="M347.51,119.35h57c1.31,0,2.19.48,2.19,1.19v1.19c0,.72-.88,1.2-2.19,1.2h-57c-1.31,0-2.19-.48-2.19-1.2v-1.19C345.32,120,346.2,119.35,347.51,119.35Z" transform="translate(0)" fill="#fff" opacity="0.85"/><rect x="337.88" y="472.66" width="76.25" height="15.69" fill="#ed2025"/><rect x="255.61" y="472.66" width="76.25" height="15.69" fill="#353535" opacity="0.5"/><path d="M265.23,478.72h57c1.32,0,2.19.48,2.19,1.19v1.19c0,.72-.87,1.19-2.19,1.19h-57c-1.31,0-2.19-.47-2.19-1.19v-1.19C263,479.32,263.92,478.72,265.23,478.72Z" transform="translate(0)" fill="#fff" opacity="0.85"/><path d="M347.51,478.72h57c1.31,0,2.19.48,2.19,1.19v1.19c0,.72-.88,1.19-2.19,1.19h-57c-1.31,0-2.19-.47-2.19-1.19v-1.19C345.32,479.32,346.2,478.72,347.51,478.72Z" transform="translate(0)" fill="#fff" opacity="0.85"/><path d="M223.6,207.86h15.05a2.93,2.93,0,0,1,2.88,3.11v3.12a2.92,2.92,0,0,1-2.88,3.11H223.6a2.92,2.92,0,0,1-2.89-3.11V211C220.85,209.42,222,207.86,223.6,207.86Z" transform="translate(0)" fill="#d6dde6" opacity="0.4"/><rect x="46.45" y="276.58" width="60.16" height="49.92" fill="#d6dde6" opacity="0.4"/><path d="M114.21,284.5h39.41c.91,0,1.51.41,1.51,1v1c0,.62-.6,1-1.51,1H114.21c-.91,0-1.51-.41-1.51-1v-1C112.7,285,113.45,284.5,114.21,284.5Z" transform="translate(0)" fill="#ed2025"/><path d="M345.91,284.42h24.37c.56,0,.94.56.94,1.4v1.41c0,.84-.38,1.4-.94,1.4H345.91c-.57,0-.94-.56-.94-1.4v-1.41C345,285.12,345.44,284.42,345.91,284.42Z" transform="translate(0)" fill="#ed2025"/><path d="M113.86,301.54h30.2a1,1,0,0,1,1.16,1v1a1,1,0,0,1-1.16,1h-30.2a1,1,0,0,1-1.16-1v-1A1.18,1.18,0,0,1,113.86,301.54Z" transform="translate(0)" fill="#ed2025"/><path d="M114.27,293h34.44c.8,0,1.33.41,1.33,1v1c0,.62-.53,1-1.33,1H114.27c-.8,0-1.33-.41-1.33-1v-1C112.94,293.53,113.61,293,114.27,293Z" transform="translate(0)" fill="#7b7c81" opacity="0.3"/><path d="M256.4,284.5h20.53c.47,0,.79.41.79,1v1c0,.62-.32,1-.79,1H256.4c-.48,0-.79-.4-.79-1v-1C255.61,285,256,284.5,256.4,284.5Z" transform="translate(0)" fill="#7b7c81" opacity="0.3"/><path d="M299.46,284.5H320c.47,0,.79.41.79,1v1c0,.62-.32,1-.79,1H299.46c-.48,0-.79-.4-.79-1v-1C298.67,285,299.06,284.5,299.46,284.5Z" transform="translate(0)" fill="#7b7c81" opacity="0.3"/><path d="M386.68,284.5h20.53c.47,0,.79.41.79,1v1c0,.62-.32,1-.79,1H386.68c-.48,0-.79-.4-.79-1v-1C385.89,285,386.28,284.5,386.68,284.5Z" transform="translate(0)" fill="#7b7c81" opacity="0.3"/><path d="M299.24,291.55h14.9c.35,0,.58.41.58,1v1c0,.61-.23,1-.58,1h-14.9c-.34,0-.57-.41-.57-1v-1C298.67,292.06,299,291.55,299.24,291.55Z" transform="translate(0)" fill="#7b7c81" opacity="0.3"/><path d="M114.09,310.06h29.74a1,1,0,0,1,1.14,1v1a1,1,0,0,1-1.14,1H114.09a1,1,0,0,1-1.15-1v-1A1.18,1.18,0,0,1,114.09,310.06Z" transform="translate(0)" fill="#7b7c81" opacity="0.3"/><path d="M55.88,416.72h96.91a1,1,0,0,1,1.14,1v1a1,1,0,0,1-1.14,1H55.88a1,1,0,0,1-1.14-1v-1A1.17,1.17,0,0,1,55.88,416.72Z" transform="translate(0)" fill="#7b7c81" opacity="0.3"/><path d="M55.88,424.37h65.84a1,1,0,0,1,1.14,1v1a1,1,0,0,1-1.14,1H55.88a1,1,0,0,1-1.14-1v-1A1.17,1.17,0,0,1,55.88,424.37Z" transform="translate(0)" fill="#7b7c81" opacity="0.3"/><path d="M380.94,424.37h23.19a1,1,0,0,1,1.15,1v1a1,1,0,0,1-1.15,1H380.94a1,1,0,0,1-1.15-1v-1A1.18,1.18,0,0,1,380.94,424.37Z" transform="translate(0)" fill="#7b7c81" opacity="0.3"/><path d="M380.94,438.13h23.19a1,1,0,0,1,1.15,1v1a1,1,0,0,1-1.15,1H380.94a1,1,0,0,1-1.15-1v-1A1.18,1.18,0,0,1,380.94,438.13Z" transform="translate(0)" fill="#7b7c81" opacity="0.3"/><path d="M388.94,451.9h15.19a1,1,0,0,1,1.15,1v1a1,1,0,0,1-1.15,1H388.94a1,1,0,0,1-1.15-1v-1A1.18,1.18,0,0,1,388.94,451.9Z" transform="translate(0)" fill="#ed2025"/><path d="M267.81,424.37h60.83a1,1,0,0,1,1.15,1v1a1,1,0,0,1-1.15,1H267.81a1,1,0,0,1-1.15-1v-1A1.17,1.17,0,0,1,267.81,424.37Z" transform="translate(0)" fill="#7b7c81" opacity="0.3"/><path d="M267.81,451.9h65.83a1,1,0,0,1,1.15,1v1a1,1,0,0,1-1.15,1H267.81a1,1,0,0,1-1.15-1v-1A1.17,1.17,0,0,1,267.81,451.9Z" transform="translate(0)" fill="#7b7c81" opacity="0.3"/><path d="M267.81,438.13h54.83a1,1,0,0,1,1.15,1v1a1,1,0,0,1-1.15,1H267.81a1,1,0,0,1-1.15-1v-1A1.17,1.17,0,0,1,267.81,438.13Z" transform="translate(0)" fill="#7b7c81" opacity="0.3"/><path d="M55.88,432h96.91a1,1,0,0,1,1.14,1v1a1,1,0,0,1-1.14,1H55.88a1,1,0,0,1-1.14-1v-1A1.17,1.17,0,0,1,55.88,432Z" transform="translate(0)" fill="#7b7c81" opacity="0.3"/><path d="M55.88,439.67h72.51a1,1,0,0,1,1.14,1v1a1,1,0,0,1-1.14,1H55.88a1,1,0,0,1-1.14-1v-1A1.17,1.17,0,0,1,55.88,439.67Z" transform="translate(0)" fill="#7b7c81" opacity="0.3"/><path d="M55.88,447.32h96.91a1,1,0,0,1,1.14,1v1a1,1,0,0,1-1.14,1H55.88a1,1,0,0,1-1.14-1v-1A1.17,1.17,0,0,1,55.88,447.32Z" transform="translate(0)" fill="#7b7c81" opacity="0.3"/><path d="M55.88,455h58.29a1,1,0,0,1,1.14,1v1a1,1,0,0,1-1.14,1H55.88a1,1,0,0,1-1.14-1v-1A1.17,1.17,0,0,1,55.88,455Z" transform="translate(0)" fill="#7b7c81" opacity="0.3"/><path d="M223.6,281.36h15.05a2.93,2.93,0,0,1,2.88,3.11v3.12a2.92,2.92,0,0,1-2.88,3.11H223.6a2.92,2.92,0,0,1-2.89-3.11v-3.12C220.85,282.92,222,281.36,223.6,281.36Z" transform="translate(0)" fill="#d6dde6" opacity="0.4"/></g></svg>