<svg xmlns="http://www.w3.org/2000/svg" viewBox="0 0 500 500"><title>canon</title><g id="9dfa47ea-8a10-420f-b99a-7b20cb9d52be" data-name="Layer 5"><rect width="500" height="500" fill="#fff"/></g><g id="de5a6860-0440-439e-8000-21c6e03a1ff7" data-name="Canon"><rect width="500" height="13" fill="#d6dde6" opacity="0.4"/><rect y="62.7" width="500" height="19.3" fill="#353535" opacity="0.5"/><rect x="25.97" y="146.04" width="407.84" height="33.93" fill="#d6dde6" opacity="0.4"/><rect x="25.97" y="344.7" width="407.84" height="33.93" fill="#d6dde6" opacity="0.4"/><rect x="25.97" y="203.08" width="61.63" height="49.92" fill="#d6dde6" opacity="0.4"/><rect x="438.66" y="146.04" width="34.69" height="38.3" fill="#d6dde6" opacity="0.4"/><rect x="438.66" y="207.87" width="34.69" height="38.3" fill="#d6dde6" opacity="0.4"/><rect x="438.66" y="269.7" width="34.69" height="38.3" fill="#d6dde6" opacity="0.4"/><rect x="438.66" y="331.52" width="34.69" height="38.3" fill="#d6dde6" opacity="0.4"/><rect x="438.66" y="393.35" width="34.69" height="38.3" fill="#d6dde6" opacity="0.4"/><path d="M346.7,29H469.26c2.83,0,4.72,1.12,4.72,2.79v2.8c0,1.68-1.89,2.79-4.72,2.79H346.7c-2.82,0-4.71-1.11-4.71-2.79v-2.8C342,30.35,344.35,29,346.7,29Z" fill="#55c6d3" opacity="0.4" style="isolation:isolate"/><path d="M139.1,94.63H291.23c2.82,0,4.71.5,4.71,1.24v1.25c0,.75-1.89,1.25-4.71,1.25H139.1c-2.83,0-4.72-.5-4.72-1.25V95.87C134.38,95.25,136.74,94.63,139.1,94.63Z" fill="#55c6d3" opacity="0.4" style="isolation:isolate"/><path d="M309.81,94.63H360.9c2.83,0,4.72.5,4.72,1.24v1.25c0,.75-1.89,1.25-4.72,1.25H309.81c-2.83,0-4.72-.5-4.72-1.25V95.87C305.09,95.25,307.45,94.63,309.81,94.63Z" fill="#7b7c81" opacity="0.3"/><path d="M346.7,42.62H469.26c2.83,0,4.72.41,4.72,1v1c0,.62-1.89,1-4.72,1H346.7c-2.82,0-4.71-.41-4.71-1v-1C342,43.13,344.35,42.62,346.7,42.62Z" fill="#7b7c81" opacity="0.3"/><path d="M139.35,39h43.9c1,0,1.68.41,1.68,1v1c0,.61-.67,1-1.68,1h-43.9c-1,0-1.69-.41-1.69-1V40C137.66,39.53,138.51,39,139.35,39Z" fill="#7b7c81" opacity="0.3"/><path d="M36.58,157.6H187.25c3.48,0,5.8.41,5.8,1v1c0,.62-2.32,1-5.8,1H36.58c-3.48,0-5.8-.41-5.8-1v-1C30.78,158.11,33.68,157.6,36.58,157.6Z" fill="#7b7c81" opacity="0.3"/><path d="M34.11,166h86.6c2,0,3.33.41,3.33,1v1c0,.62-1.33,1-3.33,1H34.11c-2,0-3.33-.41-3.33-1v-1C30.78,166.51,32.45,166,34.11,166Z" fill="#7b7c81" opacity="0.3"/><path d="M27.48,193.5h39.4c.91,0,1.52.41,1.52,1v1c0,.62-.61,1-1.52,1H27.48c-.91,0-1.52-.41-1.52-1v-1C26,194,26.72,193.5,27.48,193.5Z" fill="#7b7c81" opacity="0.3"/><path d="M27.48,261.27H143.31c.91,0,1.51.41,1.51,1v1c0,.61-.6,1-1.51,1H27.48c-.91,0-1.52-.41-1.52-1v-1C26,261.78,26.72,261.27,27.48,261.27Z" fill="#7b7c81" opacity="0.3"/><path d="M95.21,211h39.41c.91,0,1.51.41,1.51,1v1c0,.62-.6,1-1.51,1H95.21c-.91,0-1.51-.41-1.51-1v-1C93.7,211.51,94.45,211,95.21,211Z" fill="#ed2025"/><path d="M364.91,210.92h24.37c.56,0,.94.56.94,1.4v1.41c0,.84-.38,1.4-.94,1.4H364.91c-.57,0-.94-.56-.94-1.4v-1.41C364,211.62,364.44,210.92,364.91,210.92Z" fill="#ed2025"/><path d="M94.86,228h30.2a1,1,0,0,1,1.16,1v1a1,1,0,0,1-1.16,1H94.86a1,1,0,0,1-1.16-1v-1A1.18,1.18,0,0,1,94.86,228Z" fill="#ed2025"/><path d="M234.86,193.5H264.6a1,1,0,0,1,1.14,1v1a1,1,0,0,1-1.14,1H234.86a1,1,0,0,1-1.14-1v-1A1.17,1.17,0,0,1,234.86,193.5Z" fill="#7b7c81" opacity="0.3"/><path d="M95.27,219.52h34.44c.8,0,1.33.41,1.33,1v1c0,.62-.53,1-1.33,1H95.27c-.8,0-1.33-.41-1.33-1v-1C93.94,220,94.61,219.52,95.27,219.52Z" fill="#7b7c81" opacity="0.3"/><path d="M275.4,211h20.53c.47,0,.79.41.79,1v1c0,.62-.32,1-.79,1H275.4c-.48,0-.79-.4-.79-1v-1C274.61,211.51,275,211,275.4,211Z" fill="#7b7c81" opacity="0.3"/><path d="M318.46,211H339c.47,0,.79.41.79,1v1c0,.62-.32,1-.79,1H318.46c-.48,0-.79-.4-.79-1v-1C317.67,211.51,318.06,211,318.46,211Z" fill="#7b7c81" opacity="0.3"/><path d="M405.65,211h20.53c.47,0,.79.41.79,1v1c0,.62-.32,1-.79,1H405.65c-.48,0-.79-.4-.79-1v-1C404.86,211.51,405.25,211,405.65,211Z" fill="#7b7c81" opacity="0.3"/><path d="M445.74,189.07h20.53c.47,0,.79.41.79,1v1c0,.61-.32,1-.79,1H445.74c-.48,0-.79-.41-.79-1v-1C445,189.58,445.34,189.07,445.74,189.07Z" fill="#7b7c81" opacity="0.3"/><path d="M445.74,250.47h20.53c.47,0,.79.41.79,1v1c0,.61-.32,1-.79,1H445.74c-.48,0-.79-.41-.79-1v-1C445,251,445.34,250.47,445.74,250.47Z" fill="#7b7c81" opacity="0.3"/><path d="M445.74,312.23h20.53c.47,0,.79.4.79,1v1c0,.61-.32,1-.79,1H445.74c-.48,0-.79-.41-.79-1v-1C445,312.74,445.34,312.23,445.74,312.23Z" fill="#7b7c81" opacity="0.3"/><path d="M445.74,374h20.53c.47,0,.79.41.79,1v1c0,.61-.32,1-.79,1H445.74c-.48,0-.79-.41-.79-1v-1C445,374.5,445.34,374,445.74,374Z" fill="#7b7c81" opacity="0.3"/><path d="M445.74,435.74h20.53c.47,0,.79.41.79,1v1c0,.61-.32,1-.79,1H445.74c-.48,0-.79-.41-.79-1v-1C445,436.25,445.34,435.74,445.74,435.74Z" fill="#7b7c81" opacity="0.3"/><path d="M318.24,218.05h14.9c.35,0,.58.41.58,1v1c0,.61-.23,1-.58,1h-14.9c-.34,0-.57-.41-.57-1v-1C317.67,218.56,318,218.05,318.24,218.05Z" fill="#7b7c81" opacity="0.3"/><path d="M95.09,236.56h29.74a1,1,0,0,1,1.14,1v1a1,1,0,0,1-1.14,1H95.09a1,1,0,0,1-1.15-1v-1A1.18,1.18,0,0,1,95.09,236.56Z" fill="#7b7c81" opacity="0.3"/><path d="M273.63,193.5h24.16a.92.92,0,0,1,.93,1v1a.93.93,0,0,1-.93,1H273.63a.93.93,0,0,1-.93-1v-1A1.06,1.06,0,0,1,273.63,193.5Z" fill="#7b7c81" opacity="0.3"/><path d="M316.65,193.5H340.8a.92.92,0,0,1,.93,1v1a.93.93,0,0,1-.93,1H316.65a.93.93,0,0,1-.93-1v-1A1,1,0,0,1,316.65,193.5Z" fill="#7b7c81" opacity="0.3"/><path d="M364.9,193.5h24.15a.92.92,0,0,1,.93,1v1a.93.93,0,0,1-.93,1H364.9a.93.93,0,0,1-.93-1v-1A1,1,0,0,1,364.9,193.5Z" fill="#7b7c81" opacity="0.3"/><path d="M316.8,161.11H422.89c2.44,0,4.08.51,4.08,1.28v1.29c0,.77-1.64,1.28-4.08,1.28H316.8c-2.45,0-4.08-.51-4.08-1.28v-1.29C312.72,161.75,314.76,161.11,316.8,161.11Z" fill="#7b7c81" opacity="0.3"/><path d="M84.92,359.74h295.6c2.45,0,4.08.51,4.08,1.29v1.28c0,.77-1.63,1.29-4.08,1.29H84.92c-2.45,0-4.09-.52-4.09-1.29V361C80.83,360.38,82.87,359.74,84.92,359.74Z" fill="#7b7c81" opacity="0.3"/><path d="M138.83,32h30.41a1,1,0,0,1,1.17,1v1a1,1,0,0,1-1.17,1H138.83a1,1,0,0,1-1.17-1V33A1.19,1.19,0,0,1,138.83,32Z" fill="#7b7c81" opacity="0.3"/><rect x="25.97" y="62.7" width="91.79" height="19.3" fill="#ed2025"/><rect x="356.88" y="113.3" width="76.93" height="15.69" fill="#ed2025"/><rect x="274.61" y="113.3" width="76.25" height="15.69" fill="#353535" opacity="0.5"/><g id="c5fa3e12-b35f-433c-a52c-f7c0b81f6cd2" data-name="cGhfKF.tif"><path d="M120.1,46.3v.56H26.29V27.23H37.07l0,0-.52.05c-.51.08-1,.14-1.52.24a11.52,11.52,0,0,0-3.27,1.17c-.44.24-.88.49-1.29.76a9,9,0,0,0-3.22,3.58,9.17,9.17,0,0,0-.89,3.45,7.49,7.49,0,0,0,.09,2,9.07,9.07,0,0,0,.24,1.06c.16.46.35.9.54,1.35a7.56,7.56,0,0,0,1.35,2.06,12,12,0,0,0,.88.87,9.72,9.72,0,0,0,1.25.94A12,12,0,0,0,33,45.86a13.18,13.18,0,0,0,2.31.64c.45.09.9.16,1.36.22s.82.1,1.24.11,1.15,0,1.73,0a14.43,14.43,0,0,0,1.47-.2,13.35,13.35,0,0,0,5.14-2.15,11.76,11.76,0,0,0,1.94-1.65s.07-.08.06-.12c-.08-.33-.16-.66-.25-1l-.07.07a9.12,9.12,0,0,1-3.14,2.47,7.22,7.22,0,0,1-2.65.69,9.7,9.7,0,0,1-1.32,0,8,8,0,0,1-1.74-.39,7.71,7.71,0,0,1-2.78-1.57,7.49,7.49,0,0,1-1-1.08,7.79,7.79,0,0,1-.93-1.54,8.08,8.08,0,0,1-.71-2.81,7,7,0,0,1,.08-1.65,8.08,8.08,0,0,1,1-2.64,7.9,7.9,0,0,1,1.1-1.48,9.46,9.46,0,0,1,1-1,8.21,8.21,0,0,1,1.1-.75,7,7,0,0,1,1.65-.68,7.61,7.61,0,0,1,1.72-.26,5.1,5.1,0,0,1,.78,0c.41.05.81.1,1.21.17a6,6,0,0,1,2,.69c.17.1.32.22.49.33-.12.18-.22.35-.32.52l-1.65,2.62L42,36.22l-.42.69h0v0h0l.62-.36,1.84-1.07,1.72-1,1.86-1.09,1.62-.94s0-.06,0-.11a7.9,7.9,0,0,0-1-1.31,15,15,0,0,0-1.43-1.33,9.54,9.54,0,0,0-2.22-1.31,11.9,11.9,0,0,0-2.7-.76c-.57-.1-1.14-.19-1.72-.26s-1-.07-1.51-.1l-.06,0H120.1v5.6a.05.05,0,0,1,0,0,2.61,2.61,0,0,0-1.45-1.92,3.27,3.27,0,0,0-2.75-.06c-1.14.47-2.25,1-3.36,1.52l-1.08.5c0-.07,0-.13,0-.19a2.75,2.75,0,0,0-3.15-2.1,3.5,3.5,0,0,0-1.1.33L102.44,33l-.59.29v0l3.9.06V46.29h5.76v-.14q0-5.71,0-11.43a1.47,1.47,0,0,1,1.65-1.4,1.33,1.33,0,0,1,1.16,1.36V46.3h5.79ZM51.23,33.35h0l3.75,0h3.47L59.69,38l-.62-.44a6.61,6.61,0,0,0-2.62-1.1,8.42,8.42,0,0,0-1-.08,10.92,10.92,0,0,0-1.28,0,7.21,7.21,0,0,0-2.65.88A4.92,4.92,0,0,0,49,41.85,3.9,3.9,0,0,0,49.23,43a5.65,5.65,0,0,0,3.33,3.15,7.57,7.57,0,0,0,3.89.38,6.64,6.64,0,0,0,2.13-.68,7.76,7.76,0,0,0,2.12-1.66c.16-.17.31-.35.47-.53l0,0,.66,2.45c0,.09.06.12.16.12h5.67l-.12-.48c-.6-2.23-1.18-4.45-1.78-6.67-.49-1.8-1-3.59-1.49-5.38a4.25,4.25,0,0,0-3-3,5.1,5.1,0,0,0-3.18.14c-1.77.61-3.53,1.24-5.29,1.87Zm14.57,0h.12l3,0h.74v12.9h5.76V34.72a1.45,1.45,0,0,1,1.66-1.4,1.35,1.35,0,0,1,1.14,1.35V46.29H84V33a.55.55,0,0,0,0-.18,2.59,2.59,0,0,0-1.48-2,3.36,3.36,0,0,0-2.79,0c-1.15.49-2.28,1-3.43,1.56l-.94.44,0-.11,0-.11a2.63,2.63,0,0,0-1.69-1.91,2.93,2.93,0,0,0-2.14,0c-.71.28-1.41.6-2.1.92L65.8,33.3l0,0Zm29-2.82a8.16,8.16,0,1,0-.35,16.32,8.16,8.16,0,0,0,8.26-9,7.84,7.84,0,0,0-2.36-4.9A8,8,0,0,0,94.75,30.51Z" fill="#fff"/><path d="M41.58,36.91l.42-.69,1.75-2.8L45.4,30.8c.1-.17.2-.34.32-.52-.17-.11-.32-.23-.49-.33a6,6,0,0,0-2-.69c-.4-.07-.8-.12-1.21-.17a5.1,5.1,0,0,0-.78,0,7.61,7.61,0,0,0-1.72.26,7,7,0,0,0-1.65.68,8.21,8.21,0,0,0-1.1.75,9.46,9.46,0,0,0-1,1,7.9,7.9,0,0,0-1.1,1.48,8.08,8.08,0,0,0-1,2.64,7,7,0,0,0-.08,1.65,8.08,8.08,0,0,0,.71,2.81,7.79,7.79,0,0,0,.93,1.54,7.49,7.49,0,0,0,1,1.08,7.71,7.71,0,0,0,2.78,1.57,8,8,0,0,0,1.74.39,9.7,9.7,0,0,0,1.32,0,7.22,7.22,0,0,0,2.65-.69,9.12,9.12,0,0,0,3.14-2.47l.07-.07c.09.34.17.67.25,1,0,0,0,.09-.06.12a11.76,11.76,0,0,1-1.94,1.65,13.35,13.35,0,0,1-5.14,2.15,14.43,14.43,0,0,1-1.47.2c-.58,0-1.16.05-1.73,0s-.83-.06-1.24-.11-.91-.13-1.36-.22A13.18,13.18,0,0,1,33,45.86a12,12,0,0,1-2.3-1.13,9.72,9.72,0,0,1-1.25-.94,12,12,0,0,1-.88-.87,7.56,7.56,0,0,1-1.35-2.06c-.19-.45-.38-.89-.54-1.35a9.07,9.07,0,0,1-.24-1.06,7.49,7.49,0,0,1-.09-2,9.17,9.17,0,0,1,.89-3.45,9,9,0,0,1,3.22-3.58c.41-.27.85-.52,1.29-.76A11.52,11.52,0,0,1,35,27.54c.5-.1,1-.16,1.52-.24l.52-.05,0,0h1.6l.06,0c.5,0,1,.05,1.51.1s1.15.16,1.72.26a11.9,11.9,0,0,1,2.7.76,9.54,9.54,0,0,1,2.22,1.31A15,15,0,0,1,48.31,31a7.9,7.9,0,0,1,1,1.31s0,.08,0,.11l-1.62.94L45.8,34.46l-1.72,1-1.84,1.07-.62.36h0Z" fill="#e14244"/><path d="M120.1,46.3h-5.79V34.68a1.33,1.33,0,0,0-1.16-1.36,1.47,1.47,0,0,0-1.65,1.4q0,5.72,0,11.43v.14h-5.76V33.4l-3.9-.06v0l.59-.29,4.7-2.16a3.5,3.5,0,0,1,1.1-.33,2.75,2.75,0,0,1,3.15,2.1c0,.06,0,.12,0,.19l1.08-.5c1.11-.51,2.22-1,3.36-1.52a3.27,3.27,0,0,1,2.75.06,2.61,2.61,0,0,1,1.45,1.92.05.05,0,0,0,0,0Z" fill="#e14143"/><path d="M65.8,33.3l3.58-1.67c.69-.32,1.39-.64,2.1-.92a2.93,2.93,0,0,1,2.14,0,2.63,2.63,0,0,1,1.69,1.91l0,.11,0,.11.94-.44c1.15-.52,2.28-1.07,3.43-1.56a3.36,3.36,0,0,1,2.79,0,2.59,2.59,0,0,1,1.48,2A.55.55,0,0,1,84,33V46.29H78.23V34.67a1.35,1.35,0,0,0-1.14-1.35,1.45,1.45,0,0,0-1.66,1.4V46.29H69.67V33.39h-.74l-3,0H65.8Z" fill="#e14143"/><path d="M51.23,33.35l1.56-.58c1.76-.63,3.52-1.26,5.29-1.87a5.1,5.1,0,0,1,3.18-.14,4.25,4.25,0,0,1,3,3c.52,1.79,1,3.58,1.49,5.38.6,2.22,1.18,4.44,1.78,6.67l.12.48H62c-.1,0-.13,0-.16-.12l-.66-2.45,0,0c-.16.18-.31.36-.47.53a7.76,7.76,0,0,1-2.12,1.66,6.64,6.64,0,0,1-2.13.68,7.57,7.57,0,0,1-3.89-.38A5.65,5.65,0,0,1,49.23,43,3.9,3.9,0,0,1,49,41.85a4.92,4.92,0,0,1,2.54-4.57,7.21,7.21,0,0,1,2.65-.88,10.92,10.92,0,0,1,1.28,0,8.42,8.42,0,0,1,1,.08,6.61,6.61,0,0,1,2.62,1.1l.62.44L58.46,33.4H55l-3.75,0Zm6.34,11a2.86,2.86,0,1,0-2.86-2.85A2.87,2.87,0,0,0,57.57,44.39Z" fill="#e14243"/><path d="M94.75,30.51a8,8,0,0,1,5.55,2.37,8.16,8.16,0,0,1,.08,11.5,7.92,7.92,0,0,1-6,2.45,8.16,8.16,0,1,1,.35-16.32Zm3,13.51c0-.21-.05-.43-.11-.64L94.92,33a2,2,0,0,0-.53-.91,1.81,1.81,0,0,0-3,1.21,2.49,2.49,0,0,0,.08.86l.72,2.61c.71,2.59,1.43,5.17,2.15,7.76a1.36,1.36,0,0,0,.76.91,2,2,0,0,0,1.75,0A1.52,1.52,0,0,0,97.79,44Z" fill="#e14244"/><path d="M65.8,33.3v0h0Z" fill="#eb8a79"/><path d="M51.23,33.35v0h0Z" fill="#e87466"/><path d="M41.58,36.9v0h0Z" fill="#e14244"/><path d="M57.57,44.39a2.86,2.86,0,1,1,2.87-2.8A2.85,2.85,0,0,1,57.57,44.39Z" fill="#fffefd"/><path d="M97.79,44a1.52,1.52,0,0,1-.94,1.43,2,2,0,0,1-1.75,0,1.36,1.36,0,0,1-.76-.91c-.72-2.59-1.44-5.17-2.15-7.76l-.72-2.61a2.49,2.49,0,0,1-.08-.86,1.81,1.81,0,0,1,3-1.21,2,2,0,0,1,.53.91l2.76,10.34C97.74,43.59,97.75,43.81,97.79,44Z" fill="#fffefe"/></g><path d="M263.3,395.74H398.7a2.92,2.92,0,0,1,2.88,3.12V402a2.92,2.92,0,0,1-2.88,3.11H263.3a2.92,2.92,0,0,1-2.88-3.11v-3.11C260.55,397.3,261.73,395.74,263.3,395.74Z" fill="#d6dde6" opacity="0.4"/><path d="M404.8,395.74l17.62.18A2.93,2.93,0,0,1,425.3,399v3.11a2.92,2.92,0,0,1-2.88,3.11l-17.62-.18a2.92,2.92,0,0,1-2.88-3.11v-3.11C402.05,397.3,403.23,395.74,404.8,395.74Z" fill="#ed2025"/><path d="M137.9,70.57h57c1.32,0,2.19.47,2.19,1.19V73c0,.71-.87,1.19-2.19,1.19h-57c-1.32,0-2.2-.48-2.2-1.19V71.76C135.7,71.16,136.58,70.57,137.9,70.57Z" fill="#fff" opacity="0.85"/><path d="M284.23,119.35h57c1.32,0,2.19.48,2.19,1.19v1.19c0,.72-.87,1.2-2.19,1.2h-57c-1.31,0-2.19-.48-2.19-1.2v-1.19C282,120,282.92,119.35,284.23,119.35Z" fill="#fff" opacity="0.85"/><path d="M366.51,119.35h57c1.31,0,2.19.48,2.19,1.19v1.19c0,.72-.88,1.2-2.19,1.2h-57c-1.31,0-2.19-.48-2.19-1.2v-1.19C364.32,120,365.2,119.35,366.51,119.35Z" fill="#fff" opacity="0.85"/><rect x="356.88" y="472.66" width="76.93" height="15.69" fill="#ed2025"/><rect x="274.61" y="472.66" width="76.25" height="15.69" fill="#353535" opacity="0.5"/><path d="M284.23,478.72h57c1.32,0,2.19.48,2.19,1.19v1.19c0,.72-.87,1.19-2.19,1.19h-57c-1.31,0-2.19-.47-2.19-1.19v-1.19C282,479.32,282.92,478.72,284.23,478.72Z" fill="#fff" opacity="0.85"/><path d="M366.51,478.72h57c1.31,0,2.19.48,2.19,1.19v1.19c0,.72-.88,1.19-2.19,1.19h-57c-1.31,0-2.19-.47-2.19-1.19v-1.19C364.32,479.32,365.2,478.72,366.51,478.72Z" fill="#fff" opacity="0.85"/><path d="M242.6,207.86h15a2.93,2.93,0,0,1,2.88,3.11v3.12a2.92,2.92,0,0,1-2.88,3.11h-15a2.92,2.92,0,0,1-2.89-3.11V211C239.85,209.42,241,207.86,242.6,207.86Z" fill="#d6dde6" opacity="0.4"/><rect x="25.97" y="276.58" width="61.63" height="49.92" fill="#d6dde6" opacity="0.4"/><path d="M95.21,284.5h39.41c.91,0,1.51.41,1.51,1v1c0,.62-.6,1-1.51,1H95.21c-.91,0-1.51-.41-1.51-1v-1C93.7,285,94.45,284.5,95.21,284.5Z" fill="#ed2025"/><path d="M364.91,284.42h24.37c.56,0,.94.56.94,1.4v1.41c0,.84-.38,1.4-.94,1.4H364.91c-.57,0-.94-.56-.94-1.4v-1.41C364,285.12,364.44,284.42,364.91,284.42Z" fill="#ed2025"/><path d="M94.86,301.54h30.2a1,1,0,0,1,1.16,1v1a1,1,0,0,1-1.16,1H94.86a1,1,0,0,1-1.16-1v-1A1.18,1.18,0,0,1,94.86,301.54Z" fill="#ed2025"/><path d="M95.27,293h34.44c.8,0,1.33.41,1.33,1v1c0,.62-.53,1-1.33,1H95.27c-.8,0-1.33-.41-1.33-1v-1C93.94,293.53,94.61,293,95.27,293Z" fill="#7b7c81" opacity="0.3"/><path d="M275.4,284.5h20.53c.47,0,.79.41.79,1v1c0,.62-.32,1-.79,1H275.4c-.48,0-.79-.4-.79-1v-1C274.61,285,275,284.5,275.4,284.5Z" fill="#7b7c81" opacity="0.3"/><path d="M318.46,284.5H339c.47,0,.79.41.79,1v1c0,.62-.32,1-.79,1H318.46c-.48,0-.79-.4-.79-1v-1C317.67,285,318.06,284.5,318.46,284.5Z" fill="#7b7c81" opacity="0.3"/><path d="M405.65,284.5h20.53c.47,0,.79.41.79,1v1c0,.62-.32,1-.79,1H405.65c-.48,0-.79-.4-.79-1v-1C404.86,285,405.25,284.5,405.65,284.5Z" fill="#7b7c81" opacity="0.3"/><path d="M318.24,291.55h14.9c.35,0,.58.41.58,1v1c0,.61-.23,1-.58,1h-14.9c-.34,0-.57-.41-.57-1v-1C317.67,292.06,318,291.55,318.24,291.55Z" fill="#7b7c81" opacity="0.3"/><path d="M95.09,310.06h29.74a1,1,0,0,1,1.14,1v1a1,1,0,0,1-1.14,1H95.09a1,1,0,0,1-1.15-1v-1A1.18,1.18,0,0,1,95.09,310.06Z" fill="#7b7c81" opacity="0.3"/><path d="M27.11,416.72H148a1,1,0,0,1,1.15,1v1a1,1,0,0,1-1.15,1H27.11a1,1,0,0,1-1.15-1v-1A1.18,1.18,0,0,1,27.11,416.72Z" fill="#7b7c81" opacity="0.3"/><path d="M27.11,424.37H92.94a1,1,0,0,1,1.15,1v1a1,1,0,0,1-1.15,1H27.11a1,1,0,0,1-1.15-1v-1A1.18,1.18,0,0,1,27.11,424.37Z" fill="#7b7c81" opacity="0.3"/><path d="M399.94,424.37h23.19a1,1,0,0,1,1.15,1v1a1,1,0,0,1-1.15,1H399.94a1,1,0,0,1-1.15-1v-1A1.18,1.18,0,0,1,399.94,424.37Z" fill="#7b7c81" opacity="0.3"/><path d="M399.94,438.13h23.19a1,1,0,0,1,1.15,1v1a1,1,0,0,1-1.15,1H399.94a1,1,0,0,1-1.15-1v-1A1.18,1.18,0,0,1,399.94,438.13Z" fill="#7b7c81" opacity="0.3"/><path d="M407.94,451.9h15.19a1,1,0,0,1,1.15,1v1a1,1,0,0,1-1.15,1H407.94a1,1,0,0,1-1.15-1v-1A1.18,1.18,0,0,1,407.94,451.9Z" fill="#ed2025"/><path d="M286.81,424.37h60.83a1,1,0,0,1,1.15,1v1a1,1,0,0,1-1.15,1H286.81a1,1,0,0,1-1.15-1v-1A1.17,1.17,0,0,1,286.81,424.37Z" fill="#7b7c81" opacity="0.3"/><path d="M286.81,451.9h65.83a1,1,0,0,1,1.15,1v1a1,1,0,0,1-1.15,1H286.81a1,1,0,0,1-1.15-1v-1A1.17,1.17,0,0,1,286.81,451.9Z" fill="#7b7c81" opacity="0.3"/><path d="M286.81,438.13h54.83a1,1,0,0,1,1.15,1v1a1,1,0,0,1-1.15,1H286.81a1,1,0,0,1-1.15-1v-1A1.17,1.17,0,0,1,286.81,438.13Z" fill="#7b7c81" opacity="0.3"/><path d="M27.11,432H148a1,1,0,0,1,1.15,1v1a1,1,0,0,1-1.15,1H27.11a1,1,0,0,1-1.15-1v-1A1.18,1.18,0,0,1,27.11,432Z" fill="#7b7c81" opacity="0.3"/><path d="M27.11,439.67h72.5a1,1,0,0,1,1.15,1v1a1,1,0,0,1-1.15,1H27.11a1,1,0,0,1-1.15-1v-1A1.18,1.18,0,0,1,27.11,439.67Z" fill="#7b7c81" opacity="0.3"/><path d="M27.11,447.32H148a1,1,0,0,1,1.15,1v1a1,1,0,0,1-1.15,1H27.11a1,1,0,0,1-1.15-1v-1A1.18,1.18,0,0,1,27.11,447.32Z" fill="#7b7c81" opacity="0.3"/><path d="M27.11,455H85.39a1,1,0,0,1,1.15,1v1a1,1,0,0,1-1.15,1H27.11A1,1,0,0,1,26,457v-1A1.18,1.18,0,0,1,27.11,455Z" fill="#7b7c81" opacity="0.3"/><path d="M242.6,281.36h15a2.93,2.93,0,0,1,2.88,3.11v3.12a2.92,2.92,0,0,1-2.88,3.11h-15a2.92,2.92,0,0,1-2.89-3.11v-3.12C239.85,282.92,241,281.36,242.6,281.36Z" fill="#d6dde6" opacity="0.4"/></g></svg>