<svg xmlns="http://www.w3.org/2000/svg" width="500" height="500">
  <g data-name="Layer 5">
    <path fill="#fff" d="M0 0h500v500H0z"/>
    <path fill="#f7fafe" d="M0 0h500v500H0z"/>
  </g>
  <g data-name="Canon">
    <path fill="#d6dde6" d="M0 0h500v13H0z" opacity=".4"/>
    <path fill="#353535" d="M0 62.7h500V82H0z" opacity=".5"/>
    <path fill="#d6dde6" d="M25.97 146.04h407.84v33.93H25.97zM25.97 344.7h407.84v33.93H25.97zM25.97 203.08H87.6V253H25.97zM438.66 146.04h34.69v38.3h-34.69zM438.66 207.87h34.69v38.3h-34.69zM438.66 269.7h34.69V308h-34.69zM438.66 331.52h34.69v38.3h-34.69zM438.66 393.35h34.69v38.3h-34.69z" opacity=".4"/>
    <path fill="#55c6d3" d="M346.7 29h122.56c2.83 0 4.72 1.12 4.72 2.79v2.8c0 1.68-1.89 2.79-4.72 2.79H346.7c-2.82 0-4.71-1.11-4.71-2.79v-2.8c.01-1.44 2.36-2.79 4.71-2.79zM139.1 94.63h152.13c2.82 0 4.71.5 4.71 1.24v1.25c0 .75-1.89 1.25-4.71 1.25H139.1c-2.83 0-4.72-.5-4.72-1.25v-1.25c0-.62 2.36-1.24 4.72-1.24z" opacity=".4" style="isolation:isolate"/>
    <path fill="#7b7c81" d="M309.81 94.63h51.09c2.83 0 4.72.5 4.72 1.24v1.25c0 .75-1.89 1.25-4.72 1.25h-51.09c-2.83 0-4.72-.5-4.72-1.25v-1.25c0-.62 2.36-1.24 4.72-1.24zM346.7 42.62h122.56c2.83 0 4.72.41 4.72 1v1c0 .62-1.89 1-4.72 1H346.7c-2.82 0-4.71-.41-4.71-1v-1c.01-.49 2.36-1 4.71-1zM139.35 39h43.9c1 0 1.68.41 1.68 1v1c0 .61-.67 1-1.68 1h-43.9c-1 0-1.69-.41-1.69-1v-1c0-.47.85-1 1.69-1zM36.58 157.6h150.67c3.48 0 5.8.41 5.8 1v1c0 .62-2.32 1-5.8 1H36.58c-3.48 0-5.8-.41-5.8-1v-1c0-.49 2.9-1 5.8-1zM34.11 166h86.6c2 0 3.33.41 3.33 1v1c0 .62-1.33 1-3.33 1h-86.6c-2 0-3.33-.41-3.33-1v-1c0-.49 1.67-1 3.33-1zM27.48 193.5h39.4c.91 0 1.52.41 1.52 1v1c0 .62-.61 1-1.52 1h-39.4c-.91 0-1.52-.41-1.52-1v-1c.04-.5.76-1 1.52-1zM27.48 261.27h115.83c.91 0 1.51.41 1.51 1v1c0 .61-.6 1-1.51 1H27.48c-.91 0-1.52-.41-1.52-1v-1c.04-.49.76-1 1.52-1z" opacity=".3"/>
    <path fill="#ed2025" d="M95.21 211h39.41c.91 0 1.51.41 1.51 1v1c0 .62-.6 1-1.51 1H95.21c-.91 0-1.51-.41-1.51-1v-1c0-.49.75-1 1.51-1zM364.91 210.92h24.37c.56 0 .94.56.94 1.4v1.41c0 .84-.38 1.4-.94 1.4h-24.37c-.57 0-.94-.56-.94-1.4v-1.41c.03-.7.47-1.4.94-1.4zM94.86 228h30.2a1 1 0 0 1 1.16 1v1a1 1 0 0 1-1.16 1h-30.2a1 1 0 0 1-1.16-1v-1a1.18 1.18 0 0 1 1.16-1z"/>
    <path fill="#7b7c81" d="M234.86 193.5h29.74a1 1 0 0 1 1.14 1v1a1 1 0 0 1-1.14 1h-29.74a1 1 0 0 1-1.14-1v-1a1.17 1.17 0 0 1 1.14-1zM95.27 219.52h34.44c.8 0 1.33.41 1.33 1v1c0 .62-.53 1-1.33 1H95.27c-.8 0-1.33-.41-1.33-1v-1c0-.52.67-1 1.33-1zM275.4 211h20.53c.47 0 .79.41.79 1v1c0 .62-.32 1-.79 1H275.4c-.48 0-.79-.4-.79-1v-1c0-.49.39-1 .79-1zM318.46 211H339c.47 0 .79.41.79 1v1c0 .62-.32 1-.79 1h-20.54c-.48 0-.79-.4-.79-1v-1c0-.49.39-1 .79-1zM405.65 211h20.53c.47 0 .79.41.79 1v1c0 .62-.32 1-.79 1h-20.53c-.48 0-.79-.4-.79-1v-1c0-.49.39-1 .79-1zM445.74 189.07h20.53c.47 0 .79.41.79 1v1c0 .61-.32 1-.79 1h-20.53c-.48 0-.79-.41-.79-1v-1c.05-.49.39-1 .79-1zM445.74 250.47h20.53c.47 0 .79.41.79 1v1c0 .61-.32 1-.79 1h-20.53c-.48 0-.79-.41-.79-1v-1c.05-.47.39-1 .79-1zM445.74 312.23h20.53c.47 0 .79.4.79 1v1c0 .61-.32 1-.79 1h-20.53c-.48 0-.79-.41-.79-1v-1c.05-.49.39-1 .79-1zM445.74 374h20.53c.47 0 .79.41.79 1v1c0 .61-.32 1-.79 1h-20.53c-.48 0-.79-.41-.79-1v-1c.05-.5.39-1 .79-1zM445.74 435.74h20.53c.47 0 .79.41.79 1v1c0 .61-.32 1-.79 1h-20.53c-.48 0-.79-.41-.79-1v-1c.05-.49.39-1 .79-1zM318.24 218.05h14.9c.35 0 .58.41.58 1v1c0 .61-.23 1-.58 1h-14.9c-.34 0-.57-.41-.57-1v-1c0-.49.33-1 .57-1zM95.09 236.56h29.74a1 1 0 0 1 1.14 1v1a1 1 0 0 1-1.14 1H95.09a1 1 0 0 1-1.15-1v-1a1.18 1.18 0 0 1 1.15-1zM273.63 193.5h24.16a.92.92 0 0 1 .93 1v1a.93.93 0 0 1-.93 1h-24.16a.93.93 0 0 1-.93-1v-1a1.06 1.06 0 0 1 .93-1zM316.65 193.5h24.15a.92.92 0 0 1 .93 1v1a.93.93 0 0 1-.93 1h-24.15a.93.93 0 0 1-.93-1v-1a1 1 0 0 1 .93-1zM364.9 193.5h24.15a.92.92 0 0 1 .93 1v1a.93.93 0 0 1-.93 1H364.9a.93.93 0 0 1-.93-1v-1a1 1 0 0 1 .93-1zM316.8 161.11h106.09c2.44 0 4.08.51 4.08 1.28v1.29c0 .77-1.64 1.28-4.08 1.28H316.8c-2.45 0-4.08-.51-4.08-1.28v-1.29c0-.64 2.04-1.28 4.08-1.28zM84.92 359.74h295.6c2.45 0 4.08.51 4.08 1.29v1.28c0 .77-1.63 1.29-4.08 1.29H84.92c-2.45 0-4.09-.52-4.09-1.29V361c0-.62 2.04-1.26 4.09-1.26zM138.83 32h30.41a1 1 0 0 1 1.17 1v1a1 1 0 0 1-1.17 1h-30.41a1 1 0 0 1-1.17-1v-1a1.19 1.19 0 0 1 1.17-1z" opacity=".3"/>
    <path fill="#ed2025" d="M25.97 62.7h91.79V82H25.97zM356.88 113.3h76.93v15.69h-76.93z"/>
    <path fill="#353535" d="M274.61 113.3h76.25v15.69h-76.25z" opacity=".5"/>
    <g data-name="cGhfKF.tif">
      <path fill="#fff" d="M120.1 46.3v.56H26.29V27.23h10.78l-.52.05c-.51.08-1 .14-1.52.24a11.52 11.52 0 0 0-3.27 1.17c-.44.24-.88.49-1.29.76a9 9 0 0 0-3.22 3.58 9.17 9.17 0 0 0-.89 3.45 7.49 7.49 0 0 0 .09 2 9.07 9.07 0 0 0 .24 1.06c.16.46.35.9.54 1.35a7.56 7.56 0 0 0 1.35 2.06 12 12 0 0 0 .88.87 9.72 9.72 0 0 0 1.25.94 12 12 0 0 0 2.29 1.1 13.18 13.18 0 0 0 2.31.64c.45.09.9.16 1.36.22s.82.1 1.24.11 1.15 0 1.73 0a14.43 14.43 0 0 0 1.47-.2 13.35 13.35 0 0 0 5.14-2.15 11.76 11.76 0 0 0 1.94-1.65s.07-.08.06-.12c-.08-.33-.16-.66-.25-1l-.07.07a9.12 9.12 0 0 1-3.14 2.47 7.22 7.22 0 0 1-2.65.69 9.7 9.7 0 0 1-1.32 0 8 8 0 0 1-1.74-.39 7.71 7.71 0 0 1-2.78-1.57 7.49 7.49 0 0 1-1-1.08 7.79 7.79 0 0 1-.93-1.54 8.08 8.08 0 0 1-.71-2.81 7 7 0 0 1 .08-1.65 8.08 8.08 0 0 1 1-2.64 7.9 7.9 0 0 1 1.1-1.48 9.46 9.46 0 0 1 1-1 8.21 8.21 0 0 1 1.1-.75 7 7 0 0 1 1.65-.68 7.61 7.61 0 0 1 1.72-.26 5.1 5.1 0 0 1 .78 0c.41.05.81.1 1.21.17a6 6 0 0 1 2 .69c.17.1.32.22.49.33-.12.18-.22.35-.32.52l-1.65 2.62-1.82 2.8-.42.69.62-.36 1.84-1.07 1.72-1 1.86-1.09 1.62-.94v-.11a7.9 7.9 0 0 0-1-1.31 15 15 0 0 0-1.43-1.33 9.54 9.54 0 0 0-2.22-1.31 11.9 11.9 0 0 0-2.7-.76c-.57-.1-1.14-.19-1.72-.26s-1-.07-1.51-.1h-.06 81.5v5.6a2.61 2.61 0 0 0-1.45-1.92 3.27 3.27 0 0 0-2.75-.06c-1.14.47-2.25 1-3.36 1.52l-1.08.5v-.19a2.75 2.75 0 0 0-3.15-2.1 3.5 3.5 0 0 0-1.1.33L102.44 33l-.59.29 3.9.06v12.94h5.76v-.14-11.43a1.47 1.47 0 0 1 1.65-1.4 1.33 1.33 0 0 1 1.16 1.36V46.3h5.79zM51.23 33.35H58.45L59.69 38l-.62-.44a6.61 6.61 0 0 0-2.62-1.1 8.42 8.42 0 0 0-1-.08 10.92 10.92 0 0 0-1.28 0 7.21 7.21 0 0 0-2.65.88A4.92 4.92 0 0 0 49 41.85a3.9 3.9 0 0 0 .23 1.15 5.65 5.65 0 0 0 3.33 3.15 7.57 7.57 0 0 0 3.89.38 6.64 6.64 0 0 0 2.13-.68 7.76 7.76 0 0 0 2.12-1.66c.16-.17.31-.35.47-.53l.66 2.45c0 .09.06.12.16.12h5.67l-.12-.48c-.6-2.23-1.18-4.45-1.78-6.67-.49-1.8-1-3.59-1.49-5.38a4.25 4.25 0 0 0-3-3 5.1 5.1 0 0 0-3.18.14c-1.77.61-3.53 1.24-5.29 1.87zm14.57 0H69.66v12.9h5.76V34.72a1.45 1.45 0 0 1 1.66-1.4 1.35 1.35 0 0 1 1.14 1.35v11.62H84V33a.55.55 0 0 0 0-.18 2.59 2.59 0 0 0-1.48-2 3.36 3.36 0 0 0-2.79 0c-1.15.49-2.28 1-3.43 1.56l-.94.44v-.22a2.63 2.63 0 0 0-1.69-1.91 2.93 2.93 0 0 0-2.14 0c-.71.28-1.41.6-2.1.92L65.8 33.3zm29-2.82a8.16 8.16 0 1 0-.35 16.32 8.16 8.16 0 0 0 8.26-9 7.84 7.84 0 0 0-2.36-4.9 8 8 0 0 0-5.6-2.44z"/>
      <path fill="#e14244" d="M41.58 36.91l.42-.69 1.75-2.8 1.65-2.62c.1-.17.2-.34.32-.52-.17-.11-.32-.23-.49-.33a6 6 0 0 0-2-.69c-.4-.07-.8-.12-1.21-.17a5.1 5.1 0 0 0-.78 0 7.61 7.61 0 0 0-1.72.26 7 7 0 0 0-1.65.68 8.21 8.21 0 0 0-1.1.75 9.46 9.46 0 0 0-1 1 7.9 7.9 0 0 0-1.1 1.48 8.08 8.08 0 0 0-1 2.64 7 7 0 0 0-.08 1.65 8.08 8.08 0 0 0 .71 2.81 7.79 7.79 0 0 0 .93 1.54 7.49 7.49 0 0 0 1 1.08 7.71 7.71 0 0 0 2.78 1.57 8 8 0 0 0 1.74.39 9.7 9.7 0 0 0 1.32 0 7.22 7.22 0 0 0 2.65-.69 9.12 9.12 0 0 0 3.14-2.47l.07-.07c.09.34.17.67.25 1 0 0 0 .09-.06.12a11.76 11.76 0 0 1-1.94 1.65 13.35 13.35 0 0 1-5.14 2.15 14.43 14.43 0 0 1-1.47.2c-.58 0-1.16.05-1.73 0s-.83-.06-1.24-.11-.91-.13-1.36-.22a13.18 13.18 0 0 1-2.24-.64 12 12 0 0 1-2.3-1.13 9.72 9.72 0 0 1-1.25-.94 12 12 0 0 1-.88-.87 7.56 7.56 0 0 1-1.35-2.06c-.19-.45-.38-.89-.54-1.35a9.07 9.07 0 0 1-.24-1.06 7.49 7.49 0 0 1-.09-2 9.17 9.17 0 0 1 .89-3.45 9 9 0 0 1 3.22-3.58c.41-.27.85-.52 1.29-.76A11.52 11.52 0 0 1 35 27.54c.5-.1 1-.16 1.52-.24l.52-.05H38.7c.5 0 1 .05 1.51.1s1.15.16 1.72.26a11.9 11.9 0 0 1 2.7.76 9.54 9.54 0 0 1 2.22 1.31A15 15 0 0 1 48.31 31a7.9 7.9 0 0 1 1 1.31v.11l-1.62.94-1.89 1.1-1.72 1-1.84 1.07-.62.36z"/>
      <path fill="#e14143" d="M120.1 46.3h-5.79V34.68a1.33 1.33 0 0 0-1.16-1.36 1.47 1.47 0 0 0-1.65 1.4v11.57h-5.76V33.4l-3.9-.06.59-.29 4.7-2.16a3.5 3.5 0 0 1 1.1-.33 2.75 2.75 0 0 1 3.15 2.1v.19l1.08-.5c1.11-.51 2.22-1 3.36-1.52a3.27 3.27 0 0 1 2.75.06 2.61 2.61 0 0 1 1.45 1.92zM65.8 33.3l3.58-1.67c.69-.32 1.39-.64 2.1-.92a2.93 2.93 0 0 1 2.14 0 2.63 2.63 0 0 1 1.69 1.91v.22l.94-.44c1.15-.52 2.28-1.07 3.43-1.56a3.36 3.36 0 0 1 2.79 0 2.59 2.59 0 0 1 1.48 2A.55.55 0 0 1 84 33v13.29h-5.77V34.67a1.35 1.35 0 0 0-1.14-1.35 1.45 1.45 0 0 0-1.66 1.4v11.57h-5.76v-12.9H65.8z"/>
      <path fill="#e14243" d="M51.23 33.35l1.56-.58c1.76-.63 3.52-1.26 5.29-1.87a5.1 5.1 0 0 1 3.18-.14 4.25 4.25 0 0 1 3 3c.52 1.79 1 3.58 1.49 5.38.6 2.22 1.18 4.44 1.78 6.67l.12.48H62c-.1 0-.13 0-.16-.12l-.66-2.45c-.16.18-.31.36-.47.53a7.76 7.76 0 0 1-2.12 1.66 6.64 6.64 0 0 1-2.13.68 7.57 7.57 0 0 1-3.89-.38A5.65 5.65 0 0 1 49.23 43a3.9 3.9 0 0 1-.23-1.15 4.92 4.92 0 0 1 2.54-4.57 7.21 7.21 0 0 1 2.65-.88 10.92 10.92 0 0 1 1.28 0 8.42 8.42 0 0 1 1 .08 6.61 6.61 0 0 1 2.62 1.1l.62.44-1.25-4.62h-7.21zm6.34 11a2.86 2.86 0 1 0-2.86-2.85 2.87 2.87 0 0 0 2.86 2.89z"/>
      <path fill="#e14244" d="M94.75 30.51a8 8 0 0 1 5.55 2.37 8.16 8.16 0 0 1 .08 11.5 7.92 7.92 0 0 1-6 2.45 8.16 8.16 0 1 1 .35-16.32zm3 13.51c0-.21-.05-.43-.11-.64L94.92 33a2 2 0 0 0-.53-.91 1.81 1.81 0 0 0-3 1.21 2.49 2.49 0 0 0 .08.86l.72 2.61c.71 2.59 1.43 5.17 2.15 7.76a1.36 1.36 0 0 0 .76.91 2 2 0 0 0 1.75 0 1.52 1.52 0 0 0 .94-1.44z"/>
      <path fill="#eb8a79" d="M65.8 33.3z"/>
      <path fill="#e87466" d="M51.23 33.35z"/>
      <path fill="#e14244" d="M41.58 36.9z"/>
      <path fill="#fffefd" d="M57.57 44.39a2.86 2.86 0 1 1 2.87-2.8 2.85 2.85 0 0 1-2.87 2.8z"/>
      <path fill="#fffefe" d="M97.79 44a1.52 1.52 0 0 1-.94 1.43 2 2 0 0 1-1.75 0 1.36 1.36 0 0 1-.76-.91c-.72-2.59-1.44-5.17-2.15-7.76l-.72-2.61a2.49 2.49 0 0 1-.08-.86 1.81 1.81 0 0 1 3-1.21 2 2 0 0 1 .53.91l2.76 10.34c.06.26.07.48.11.67z"/>
    </g>
    <path fill="#d6dde6" d="M263.3 395.74h135.4a2.92 2.92 0 0 1 2.88 3.12V402a2.92 2.92 0 0 1-2.88 3.11H263.3a2.92 2.92 0 0 1-2.88-3.11v-3.11c.13-1.59 1.31-3.15 2.88-3.15z" opacity=".4"/>
    <path fill="#ed2025" d="M404.8 395.74l17.62.18a2.93 2.93 0 0 1 2.88 3.08v3.11a2.92 2.92 0 0 1-2.88 3.11l-17.62-.18a2.92 2.92 0 0 1-2.88-3.11v-3.11c.13-1.52 1.31-3.08 2.88-3.08z"/>
    <path fill="#fff" d="M137.9 70.57h57c1.32 0 2.19.47 2.19 1.19V73c0 .71-.87 1.19-2.19 1.19h-57c-1.32 0-2.2-.48-2.2-1.19v-1.24c0-.6.88-1.19 2.2-1.19zM284.23 119.35h57c1.32 0 2.19.48 2.19 1.19v1.19c0 .72-.87 1.2-2.19 1.2h-57c-1.31 0-2.19-.48-2.19-1.2v-1.19c-.04-.54.88-1.19 2.19-1.19zM366.51 119.35h57c1.31 0 2.19.48 2.19 1.19v1.19c0 .72-.88 1.2-2.19 1.2h-57c-1.31 0-2.19-.48-2.19-1.2v-1.19c0-.54.88-1.19 2.19-1.19z" opacity=".85"/>
    <path fill="#ed2025" d="M356.88 472.66h76.93v15.69h-76.93z"/>
    <path fill="#353535" d="M274.61 472.66h76.25v15.69h-76.25z" opacity=".5"/>
    <path fill="#fff" d="M284.23 478.72h57c1.32 0 2.19.48 2.19 1.19v1.19c0 .72-.87 1.19-2.19 1.19h-57c-1.31 0-2.19-.47-2.19-1.19v-1.19c-.04-.59.88-1.19 2.19-1.19zM366.51 478.72h57c1.31 0 2.19.48 2.19 1.19v1.19c0 .72-.88 1.19-2.19 1.19h-57c-1.31 0-2.19-.47-2.19-1.19v-1.19c0-.59.88-1.19 2.19-1.19z" opacity=".85"/>
    <path fill="#d6dde6" d="M242.6 207.86h15a2.93 2.93 0 0 1 2.88 3.11v3.12a2.92 2.92 0 0 1-2.88 3.11h-15a2.92 2.92 0 0 1-2.89-3.11V211c.14-1.58 1.29-3.14 2.89-3.14zM25.97 276.58H87.6v49.92H25.97z" opacity=".4"/>
    <path fill="#ed2025" d="M95.21 284.5h39.41c.91 0 1.51.41 1.51 1v1c0 .62-.6 1-1.51 1H95.21c-.91 0-1.51-.41-1.51-1v-1c0-.5.75-1 1.51-1zM364.91 284.42h24.37c.56 0 .94.56.94 1.4v1.41c0 .84-.38 1.4-.94 1.4h-24.37c-.57 0-.94-.56-.94-1.4v-1.41c.03-.7.47-1.4.94-1.4zM94.86 301.54h30.2a1 1 0 0 1 1.16 1v1a1 1 0 0 1-1.16 1h-30.2a1 1 0 0 1-1.16-1v-1a1.18 1.18 0 0 1 1.16-1z"/>
    <path fill="#7b7c81" d="M95.27 293h34.44c.8 0 1.33.41 1.33 1v1c0 .62-.53 1-1.33 1H95.27c-.8 0-1.33-.41-1.33-1v-1c0-.47.67-1 1.33-1zM275.4 284.5h20.53c.47 0 .79.41.79 1v1c0 .62-.32 1-.79 1H275.4c-.48 0-.79-.4-.79-1v-1c0-.5.39-1 .79-1zM318.46 284.5H339c.47 0 .79.41.79 1v1c0 .62-.32 1-.79 1h-20.54c-.48 0-.79-.4-.79-1v-1c0-.5.39-1 .79-1zM405.65 284.5h20.53c.47 0 .79.41.79 1v1c0 .62-.32 1-.79 1h-20.53c-.48 0-.79-.4-.79-1v-1c0-.5.39-1 .79-1zM318.24 291.55h14.9c.35 0 .58.41.58 1v1c0 .61-.23 1-.58 1h-14.9c-.34 0-.57-.41-.57-1v-1c0-.49.33-1 .57-1zM95.09 310.06h29.74a1 1 0 0 1 1.14 1v1a1 1 0 0 1-1.14 1H95.09a1 1 0 0 1-1.15-1v-1a1.18 1.18 0 0 1 1.15-1zM27.11 416.72H148a1 1 0 0 1 1.15 1v1a1 1 0 0 1-1.15 1H27.11a1 1 0 0 1-1.15-1v-1a1.18 1.18 0 0 1 1.15-1zM27.11 424.37h65.83a1 1 0 0 1 1.15 1v1a1 1 0 0 1-1.15 1H27.11a1 1 0 0 1-1.15-1v-1a1.18 1.18 0 0 1 1.15-1zM399.94 424.37h23.19a1 1 0 0 1 1.15 1v1a1 1 0 0 1-1.15 1h-23.19a1 1 0 0 1-1.15-1v-1a1.18 1.18 0 0 1 1.15-1zM399.94 438.13h23.19a1 1 0 0 1 1.15 1v1a1 1 0 0 1-1.15 1h-23.19a1 1 0 0 1-1.15-1v-1a1.18 1.18 0 0 1 1.15-1z" opacity=".3"/>
    <path fill="#ed2025" d="M407.94 451.9h15.19a1 1 0 0 1 1.15 1v1a1 1 0 0 1-1.15 1h-15.19a1 1 0 0 1-1.15-1v-1a1.18 1.18 0 0 1 1.15-1z"/>
    <path fill="#7b7c81" d="M286.81 424.37h60.83a1 1 0 0 1 1.15 1v1a1 1 0 0 1-1.15 1h-60.83a1 1 0 0 1-1.15-1v-1a1.17 1.17 0 0 1 1.15-1zM286.81 451.9h65.83a1 1 0 0 1 1.15 1v1a1 1 0 0 1-1.15 1h-65.83a1 1 0 0 1-1.15-1v-1a1.17 1.17 0 0 1 1.15-1zM286.81 438.13h54.83a1 1 0 0 1 1.15 1v1a1 1 0 0 1-1.15 1h-54.83a1 1 0 0 1-1.15-1v-1a1.17 1.17 0 0 1 1.15-1zM27.11 432H148a1 1 0 0 1 1.15 1v1a1 1 0 0 1-1.15 1H27.11a1 1 0 0 1-1.15-1v-1a1.18 1.18 0 0 1 1.15-1zM27.11 439.67h72.5a1 1 0 0 1 1.15 1v1a1 1 0 0 1-1.15 1h-72.5a1 1 0 0 1-1.15-1v-1a1.18 1.18 0 0 1 1.15-1zM27.11 447.32H148a1 1 0 0 1 1.15 1v1a1 1 0 0 1-1.15 1H27.11a1 1 0 0 1-1.15-1v-1a1.18 1.18 0 0 1 1.15-1zM27.11 455h58.28a1 1 0 0 1 1.15 1v1a1 1 0 0 1-1.15 1H27.11a1 1 0 0 1-1.11-1v-1a1.18 1.18 0 0 1 1.11-1z" opacity=".3"/>
    <path fill="#d6dde6" d="M242.6 281.36h15a2.93 2.93 0 0 1 2.88 3.11v3.12a2.92 2.92 0 0 1-2.88 3.11h-15a2.92 2.92 0 0 1-2.89-3.11v-3.12c.14-1.55 1.29-3.11 2.89-3.11z" opacity=".4"/>
  </g>
</svg>
