<svg id="cbbf7585-9f80-43a2-a478-c9490215bd96" data-name="4625cc37-e1de-4c51-8408-87e9417515a3" xmlns="http://www.w3.org/2000/svg" viewBox="0 0 956.28 199.91"><title>canon-logo</title><path d="M155.47,99,234.8,52.54a91.24,91.24,0,0,0-14.58-18.26c-6.74-6.3-13.83-13.15-27.81-20.2-15.2-7.66-41-14-74.94-14.07C76.89-.13,42.14,18.12,22.61,39.47,4.92,58.81,0,83.2,0,99c0,15.51,1.91,25.11,10,42.06,11.14,23.11,40.14,51.78,98.14,58,73.81,7.87,115.33-41.19,115.33-41.19L220.8,147.2s-29.49,40.32-77.33,32c-46-8-69.33-44.84-69.33-80.17,0-25.85,15-49.87,33.77-64.31,15.63-12,33.87-16.81,48.23-16.18,30.5,1.33,41.77,12.64,41.77,12.64Z" transform="translate(0 -0.01)" fill="#ee1b22"/><path d="M387.14,66.2C383,52.62,374.77,45,363.81,38.87c-11.75-6.57-28.42-4.62-36-2.67s-74.33,26.33-74.33,26.33l74.33.33,12.67,47.33c-22.33-17.67-38.33-17-51.67-17s-34.34,7.68-44.67,19.35-15.67,26.66-12,43.33,20.33,31.67,34.67,37,32.83,7,50,2a66.79,66.79,0,0,0,21-10.23,103.31,103.31,0,0,0,17.65-17.11l7.33,26.89h59S392.87,85.06,387.14,66.2ZM318.81,175.09A29.22,29.22,0,1,1,348,145.87a29.22,29.22,0,0,1-29.22,29.22Z" transform="translate(0 -0.01)" fill="#ee1b22"/><path d="M402.14,62.2s44.73-21.33,57.33-26.33,24.15-1.21,30,3.33c5,3.92,8.67,8.79,10.67,18,0,0,40-19,46.67-21.33s20.67-3.33,29.33,2.67,12.33,15,12.33,20.67V194.43h-59V75.54c0-6.17-5-13.67-13.67-13.67-9.33,0-15,7.83-15,13.67V194.43H442.14V62.87Z" transform="translate(0 -0.01)" fill="#ee1b22"/><path d="M769.94,62.2s44.73-21.33,57.34-26.33,24.15-1.21,30,3.33c5,3.92,8.67,8.79,10.67,18,0,0,40-19,46.67-21.33s20.67-3.33,29.33,2.67,12.33,15,12.33,20.67V194.43h-59V75.54c0-6.17-5-13.67-13.67-13.67-9.33,0-15,7.83-15,13.67V194.43H809.94V62.87Z" transform="translate(0 -0.01)" fill="#ee1b22"/><path d="M695.82,33.5A83.18,83.18,0,1,0,779,116.68h0A83.18,83.18,0,0,0,695.82,33.5Zm20.65,153.37c-11.22,3.59-20.53-1.94-22.67-9.33-2.35-8.11-27.83-100.17-29.33-106s-2.88-21.27,11.67-25.33c14.33-4,21.45,5.8,23.33,12.67,1.46,5.33,26,97.32,28.33,106S728.38,183.06,716.47,186.87Z" transform="translate(0 -0.01)" fill="#ee1b22"/></svg>