<svg xmlns="http://www.w3.org/2000/svg" viewBox="0 0 500 500">
  <path fill="#f0f1f4" opacity=".5" d="M0 0h500v500H0z" data-name="Layer 5"/>
  <g data-name="Chanel">
    <rect x="136" y="13.9" width="228" height="472.2" rx="26.79" ry="26.79" fill="#fff" stroke="#d6dde6" stroke-miterlimit="10"/>
    <path fill="#f8f8f8" stroke="#ddd" stroke-miterlimit="10" stroke-width=".75" d="M147.99 67.32h204.03v365.37H147.99z"/>
    <circle cx="250" cy="459.39" r="15.52" transform="rotate(-81.64 250.014 459.395)" fill="none" stroke="#d6dde6" stroke-miterlimit="10"/>
    <path d="M253.09 34.93a3.09 3.09 0 1 1-3.09-3.1 3.09 3.09 0 0 1 3.09 3.1zM218 48.93a3.78 3.78 0 1 1-3.78-3.78 3.78 3.78 0 0 1 3.78 3.78zM267 51h-34.65a2.06 2.06 0 1 1 0-4.12H267a2.06 2.06 0 0 1 0 4.12zM147.99 67.32h204.03v365.37H147.99z" fill="none" stroke="#d6dde6" stroke-miterlimit="10"/>
    <path fill="#d6dde6" stroke="#9ea1a4" stroke-miterlimit="10" opacity=".1" d="M147.99 67.32h204.03v50.25H147.99zM156 128.33h188v304.35H156z"/>
    <path fill="#b6bbbf" d="M156 176.33h188v203.13H156z"/>
    <circle cx="180.67" cy="152.33" r="15.67" fill="#b6bbbf"/>
    <rect x="207" y="141.33" width="82.67" height="6.64" rx="3.32" ry="3.32" fill="#b6bbbf"/>
    <rect x="207" y="152.46" width="103.5" height="4.58" rx="2.29" ry="2.29" fill="#b6bbbf"/>
    <rect x="170.31" y="393.86" width="159.37" height="21.99" rx="6.23" ry="6.23" fill="#f8f8f8" stroke="#ddd" stroke-miterlimit="10" stroke-width=".75"/>
    <rect x="207" y="160.75" width="65.37" height="4.19" rx="2.09" ry="2.09" fill="#b6bbbf"/>
    <g data-name="64c577b1-cc1e-4157-8677-35dc436603a1" opacity=".75">
      <g data-name="dd256ab3-30ed-4052-a292-513be0d54b82">
        <g data-name="913773d0-25ea-4b77-bc49-f14a9f8c64c4">
          <g data-name="cdf826a0-e4c4-46f6-b462-60e3ed0fb56e">
            <path data-name="0af1f7db-cd8d-4435-b433-17a4b9bb3f72" d="M231.14 106.43a3.84 3.84 0 0 1-3.37 2.07 4 4 0 1 1 0-7.9 3.85 3.85 0 0 1 3.39 2.09.25.25 0 0 1 0 .07s-1.23.9-1.24.88a2.3 2.3 0 0 0-2.17-1.46 2.42 2.42 0 1 0 0 4.84 2.36 2.36 0 0 0 2.13-1.39v-.07z" fill="#b6bbbf"/>
          </g>
          <g data-name="9c6f631a-3822-45eb-aa4a-10bd4622aaae">
            <path data-name="ff06fda7-2d68-46a3-ab78-194a367b5dab" d="M232.75 100.71h1.48v2.77h3.89v-2.77h1.49v7.69h-1.49V105h-3.89v3.38h-1.48z" fill="#b6bbbf"/>
          </g>
          <g data-name="e894fc07-261e-4296-9735-19354b5c70cc">
            <path data-name="aef6a0cf-9978-4496-bbdc-a8b3fbd5de91" d="M260.52 108.4v-7.69h5.37v1.56H262v1.53h3.59v1.54H262v1.53h4.43v1.53z" fill="#b6bbbf"/>
          </g>
          <g data-name="b2f6667f-b893-458f-8c15-c5c0223db846">
            <path data-name="8b5fdba0-3b3f-49a0-8c09-9539191172a7" d="M268.54 108.4v-7.69H270v6.16h4.18v1.53z" fill="#b6bbbf"/>
          </g>
          <g data-name="04d7fca4-f49a-44bf-b613-08c1972b755d">
            <path data-name="9c7fc179-3500-4769-8ab9-0b5e1ce2ef8d" d="M252.44 108.4h-1.51v-7.69H253l3.29 4.61v-4.61h1.5v7.69h-1.19l-4.18-5.8z" fill="#b6bbbf"/>
          </g>
          <g data-name="49a7763d-72cd-40f8-8920-94349008db98">
            <path data-name="066b9674-67b0-485e-88d3-a40ea69f0e1a" d="M245.27 102.27l-1.27 3.07h2.69zm-2 4.61l-.7 1.52h-1.78l3.41-7.69h2.08l3.43 7.69H248l-.68-1.53z" fill="#b6bbbf"/>
          </g>
        </g>
      </g>
      <path d="M262.14 91.81l-.05.06a7.81 7.81 0 0 1-6.65 3.72 8.15 8.15 0 0 1-2.55-.41 11.22 11.22 0 0 0 2.77-7.41 11.33 11.33 0 0 0-2.74-7.41 8 8 0 0 1 2.52-.41 7.84 7.84 0 0 1 6.74 3.88l3.25-1.68a.35.35 0 0 0-.05-.08 11.47 11.47 0 0 0-9.94-5.79 11.12 11.12 0 0 0-5.6 1.51 11.16 11.16 0 0 0-5.61-1.51 11.49 11.49 0 0 0-10 5.8v.08l3.24 1.68a7.88 7.88 0 0 1 6.76-3.84 7.7 7.7 0 0 1 2.52.42 11.33 11.33 0 0 0 0 14.81 8.14 8.14 0 0 1-2.54.41 7.81 7.81 0 0 1-6.65-3.72l-.05-.06-1.61.82-1.62.84v.07a11.49 11.49 0 0 0 9.92 5.7 11.2 11.2 0 0 0 5.6-1.49 11.2 11.2 0 0 0 5.6 1.49 11.48 11.48 0 0 0 9.89-5.7v-.06l-1.62-.84zm-12.3 1.4a7.91 7.91 0 0 1-2.19-5.43 7.61 7.61 0 0 1 2.19-5.37 7.65 7.65 0 0 1 2.16 5.37 7.94 7.94 0 0 1-2.16 5.43z" fill="#b6bbbf" data-name="1405f47d-53eb-43e3-aa98-32d0d33dd8e9"/>
    </g>
    <path d="M336.83 99.81a1.27 1.27 0 0 1-.39.93 1.29 1.29 0 0 1-.93.39 1.24 1.24 0 0 1-.93-.39L331 97.22a7.07 7.07 0 0 1-4.11 1.28 7.44 7.44 0 0 1-5.14-2.12 7.49 7.49 0 0 1-1.55-2.32 7.26 7.26 0 0 1 0-5.64 7.37 7.37 0 0 1 1.55-2.32 7.25 7.25 0 0 1 11.83 2.32 7.25 7.25 0 0 1-.71 6.93l3.54 3.54a1.26 1.26 0 0 1 .42.92zm-6.64-5.31a4.59 4.59 0 1 0-3.26 1.36 4.42 4.42 0 0 0 3.26-1.36zM176.37 97.74a3 3 0 0 1-.65 1.93 1.91 1.91 0 0 1-1.55.8h-8.8a1.91 1.91 0 0 1-1.55-.8 3 3 0 0 1-.65-1.93 14.41 14.41 0 0 1 .09-1.65 9.94 9.94 0 0 1 .32-1.57 5 5 0 0 1 .61-1.35 2.86 2.86 0 0 1 1-.92 2.72 2.72 0 0 1 1.38-.35 4.61 4.61 0 0 0 6.46 0 2.72 2.72 0 0 1 1.38.35 2.86 2.86 0 0 1 1 .92 5 5 0 0 1 .61 1.35 9.94 9.94 0 0 1 .32 1.57 14.41 14.41 0 0 1 .03 1.65zm-3.8-11.94a4 4 0 1 1-2.8-1.16 3.81 3.81 0 0 1 2.8 1.16z" fill="#b6bbbf" opacity=".75"/>
    <g data-name="64c577b1-cc1e-4157-8677-35dc436603a1" opacity=".4">
      <g data-name="dd256ab3-30ed-4052-a292-513be0d54b82">
        <g data-name="913773d0-25ea-4b77-bc49-f14a9f8c64c4">
          <g data-name="cdf826a0-e4c4-46f6-b462-60e3ed0fb56e">
            <path data-name="0af1f7db-cd8d-4435-b433-17a4b9bb3f72" d="M195.67 312.67a.77.77 0 0 0-.07.16 11.48 11.48 0 0 1-10.06 6.17 11.8 11.8 0 0 1 0-23.59 11.48 11.48 0 0 1 10.13 6.24.94.94 0 0 1 .12.22s-3.66 2.67-3.7 2.62a.3.3 0 0 0-.07-.15 6.84 6.84 0 0 0-6.47-4.35 7.23 7.23 0 0 0 0 14.45 7 7 0 0 0 6.35-4.15 1.63 1.63 0 0 0 .11-.23z" fill="#fff"/>
          </g>
          <g data-name="9c6f631a-3822-45eb-aa4a-10bd4622aaae">
            <path data-name="ff06fda7-2d68-46a3-ab78-194a367b5dab" d="M200.48 295.6h4.42v8.25h11.61v-8.25H221v22.95h-4.45v-10.09h-11.66v10.09h-4.41z" fill="#fff"/>
          </g>
          <g data-name="e894fc07-261e-4296-9735-19354b5c70cc">
            <path data-name="aef6a0cf-9978-4496-bbdc-a8b3fbd5de91" d="M283.36 318.55V295.6h16.05v4.64h-11.58v4.58h10.69v4.58h-10.69v4.6H301v4.57z" fill="#fff"/>
          </g>
          <g data-name="b2f6667f-b893-458f-8c15-c5c0223db846">
            <path data-name="8b5fdba0-3b3f-49a0-8c09-9539191172a7" d="M307.31 318.55V295.6h4.49V314h12.47v4.56z" fill="#fff"/>
          </g>
          <g data-name="04d7fca4-f49a-44bf-b613-08c1972b755d">
            <path data-name="9c7fc179-3500-4769-8ab9-0b5e1ce2ef8d" d="M259.24 318.55h-4.49V295.6H261l9.83 13.76V295.6h4.46v22.95h-3.56l-12.47-17.31z" fill="#fff"/>
          </g>
          <g data-name="49a7763d-72cd-40f8-8920-94349008db98">
            <path data-name="066b9674-67b0-485e-88d3-a40ea69f0e1a" d="M237.84 300.24l-3.93 9.17h8zm-5.9 13.76l-2.08 4.55h-5.32l10.17-22.95h6.22l10.24 22.95h-5.31l-2-4.56z" fill="#fff"/>
          </g>
        </g>
      </g>
      <path d="M288.19 269a.59.59 0 0 0-.13.18 23.35 23.35 0 0 1-19.86 11.11 24.53 24.53 0 0 1-7.6-1.23 33.85 33.85 0 0 0 .1-44.22 22.76 22.76 0 0 1 7.5-1.22 23.43 23.43 0 0 1 20.13 11.57.17.17 0 0 1 0 .14l9.69-5a.84.84 0 0 0-.14-.24 34.23 34.23 0 0 0-29.68-17.27 32.89 32.89 0 0 0-16.7 4.49 32.89 32.89 0 0 0-16.75-4.49 34.25 34.25 0 0 0-29.75 17.3 1.88 1.88 0 0 0-.14.24l9.69 5a.33.33 0 0 1 0-.14 23.41 23.41 0 0 1 20.18-11.59 23.14 23.14 0 0 1 7.52 1.22 34 34 0 0 0-8.16 22.15 33.55 33.55 0 0 0 8.28 22.11 24.64 24.64 0 0 1-7.61 1.23 23.32 23.32 0 0 1-19.84-11.11.65.65 0 0 0-.15-.18l-4.77 2.43-4.86 2.52v.2a34.25 34.25 0 0 0 29.61 17 33.67 33.67 0 0 0 16.71-4.44 33.6 33.6 0 0 0 16.7 4.44 34.29 34.29 0 0 0 29.54-17v-.2l-4.83-2.51zm-36.71 4.18A23.64 23.64 0 0 1 245 257a22.75 22.75 0 0 1 6.53-16 22.74 22.74 0 0 1 6.47 16 23.67 23.67 0 0 1-6.52 16.2z" fill="#fff" data-name="1405f47d-53eb-43e3-aa98-32d0d33dd8e9"/>
    </g>
  </g>
</svg>
