<svg id="540d4102-2bc2-46de-8703-ca6464ad3997" data-name="svg2" xmlns="http://www.w3.org/2000/svg" viewBox="0 0 152.85 97.86"><title>chanel-logo</title><g id="64c577b1-cc1e-4157-8677-35dc436603a1" data-name="g2452"><g id="dd256ab3-30ed-4052-a292-513be0d54b82" data-name="g2414"><g id="913773d0-25ea-4b77-bc49-f14a9f8c64c4" data-name="g2438"><g id="cdf826a0-e4c4-46f6-b462-60e3ed0fb56e" data-name="g4"><path id="0af1f7db-cd8d-4435-b433-17a4b9bb3f72" data-name="path6" d="M22,91.42a1.3,1.3,0,0,0-.07.16A11.67,11.67,0,0,1,11.7,97.86a12,12,0,0,1,0-24A11.65,11.65,0,0,1,22,80.21a1.16,1.16,0,0,1,.13.22s-3.73,2.72-3.77,2.67a.35.35,0,0,0-.07-.16,6.94,6.94,0,0,0-6.58-4.42,7.35,7.35,0,0,0,0,14.7A7.17,7.17,0,0,0,18.17,89a2.5,2.5,0,0,0,.11-.24Z" transform="translate(-0.02 0)" fill="#3a4550"/></g><g id="9c6f631a-3822-45eb-aa4a-10bd4622aaae" data-name="g8"><path id="ff06fda7-2d68-46a3-ab78-194a367b5dab" data-name="path10" d="M26.9,74.05h4.5v8.39H43.21V74.05h4.53V97.4H43.21V87.14H31.39V97.4H26.9Z" transform="translate(-0.02 0)" fill="#3a4550"/></g><g id="e894fc07-261e-4296-9735-19354b5c70cc" data-name="g12"><path id="aef6a0cf-9978-4496-bbdc-a8b3fbd5de91" data-name="path14" d="M111.23,97.4V74.05h16.33v4.72H115.78v4.66h10.88v4.66H115.78v4.66h13.44V97.4Z" transform="translate(-0.02 0)" fill="#3a4550"/></g><g id="b2f6667f-b893-458f-8c15-c5c0223db846" data-name="g16"><path id="8b5fdba0-3b3f-49a0-8c09-9539191172a7" data-name="path18" d="M135.6,97.4V74.05h4.57V92.76h12.69V97.4Z" transform="translate(-0.02 0)" fill="#3a4550"/></g><g id="04d7fca4-f49a-44bf-b613-08c1972b755d" data-name="g20"><path id="9c7fc179-3500-4769-8ab9-0b5e1ce2ef8d" data-name="path22" d="M86.69,97.4H82.12V74.05h6.34l10,14v-14H103V97.4H99.38L86.69,79.79Z" transform="translate(-0.02 0)" fill="#3a4550"/></g><g id="49a7763d-72cd-40f8-8920-94349008db98" data-name="g24"><path id="066b9674-67b0-485e-88d3-a40ea69f0e1a" data-name="path26" d="M64.91,78.77l-4,9.33h8.16Zm-6,14L56.79,97.4H51.38L61.73,74.05h6.33L78.48,97.4H73.07L71,92.76Z" transform="translate(-0.02 0)" fill="#3a4550"/></g></g></g><g id="1405f47d-53eb-43e3-aa98-32d0d33dd8e9" data-name="g28"><path d="M116.15,47a.68.68,0,0,0-.14.19,23.74,23.74,0,0,1-20.2,11.3,25.07,25.07,0,0,1-7.74-1.25,34.14,34.14,0,0,0,8.42-22.5,34.52,34.52,0,0,0-8.32-22.5A23.42,23.42,0,0,1,95.81,11a23.84,23.84,0,0,1,20.48,11.78.18.18,0,0,1,0,.14l9.86-5.1a1.13,1.13,0,0,0-.14-.24A34.85,34.85,0,0,0,95.81,0a33.58,33.58,0,0,0-17,4.57A33.58,33.58,0,0,0,61.77,0,34.85,34.85,0,0,0,31.52,17.6a1.13,1.13,0,0,0-.14.24l9.86,5.1a.18.18,0,0,1,0-.14A23.84,23.84,0,0,1,61.77,11a23.42,23.42,0,0,1,7.65,1.25,34.52,34.52,0,0,0-8.32,22.5,34.14,34.14,0,0,0,8.42,22.5,25.07,25.07,0,0,1-7.74,1.25,23.74,23.74,0,0,1-20.19-11.3.64.64,0,0,0-.15-.19l-4.9,2.5-4.9,2.55s0,0,0,.1,0,0,0,.1A34.85,34.85,0,0,0,61.77,69.58a34.06,34.06,0,0,0,17-4.52,34.06,34.06,0,0,0,17,4.52,34.85,34.85,0,0,0,30.05-17.31s0,0,0-.1,0,0,0-.1l-4.91-2.55ZM78.79,51.26a24.06,24.06,0,0,1-6.64-16.49,23.13,23.13,0,0,1,6.64-16.3,23.13,23.13,0,0,1,6.64,16.3A24.07,24.07,0,0,1,78.79,51.26Z" transform="translate(-0.02 0)" fill="#3a4550"/></g></g></svg>