<svg xmlns="http://www.w3.org/2000/svg" viewBox="0 0 500 500"><title>chanel</title><g id="11c00afc-c4fb-4b0f-afeb-e53de321ce6c" data-name="Layer 5"><rect width="500" height="500" fill="#f0f1f4" opacity="0.5"/></g><g id="f47bb4db-6b98-4d58-bd03-7a1baed0319d" data-name="Chanel"><rect x="136" y="13.9" width="228" height="472.2" rx="26.79" ry="26.79" fill="#fff" stroke="#d6dde6" stroke-miterlimit="10"/><rect x="147.99" y="67.32" width="204.03" height="365.37" fill="#f8f8f8" stroke="#ddd" stroke-miterlimit="10" stroke-width="0.75"/><circle cx="250" cy="459.39" r="15.52" transform="translate(-240.85 639.96) rotate(-81.64)" fill="none" stroke="#d6dde6" stroke-miterlimit="10"/><path d="M253.09,34.93a3.09,3.09,0,1,1-3.09-3.1A3.09,3.09,0,0,1,253.09,34.93Z" fill="none" stroke="#d6dde6" stroke-miterlimit="10"/><path d="M218,48.93a3.78,3.78,0,1,1-3.78-3.78A3.78,3.78,0,0,1,218,48.93Z" fill="none" stroke="#d6dde6" stroke-miterlimit="10"/><path d="M267,51H232.35a2.06,2.06,0,1,1,0-4.12H267A2.06,2.06,0,0,1,267,51Z" fill="none" stroke="#d6dde6" stroke-miterlimit="10"/><rect x="147.99" y="67.32" width="204.03" height="365.37" fill="none" stroke="#d6dde6" stroke-miterlimit="10"/><rect x="147.99" y="67.32" width="204.03" height="50.25" fill="#d6dde6" stroke="#9ea1a4" stroke-miterlimit="10" opacity="0.1"/><rect x="156" y="128.33" width="188" height="304.35" fill="#d6dde6" stroke="#9ea1a4" stroke-miterlimit="10" opacity="0.1"/><rect x="156" y="176.33" width="188" height="203.13" fill="#b6bbbf"/><circle cx="180.67" cy="152.33" r="15.67" fill="#b6bbbf"/><rect x="207" y="141.33" width="82.67" height="6.64" rx="3.32" ry="3.32" fill="#b6bbbf"/><rect x="207" y="152.46" width="103.5" height="4.58" rx="2.29" ry="2.29" fill="#b6bbbf"/><rect x="170.31" y="393.86" width="159.37" height="21.99" rx="6.23" ry="6.23" fill="#f8f8f8" stroke="#ddd" stroke-miterlimit="10" stroke-width="0.75"/><rect x="207" y="160.75" width="65.37" height="4.19" rx="2.09" ry="2.09" fill="#b6bbbf"/><g id="93ae6a69-b303-4205-9275-a575be9ecae7" data-name="64c577b1-cc1e-4157-8677-35dc436603a1" opacity="0.75"><g id="4f65170c-9e7d-4ed6-8174-f465126ffbd9" data-name="dd256ab3-30ed-4052-a292-513be0d54b82"><g id="061f83db-8e88-4990-a79f-4dd54bb7d004" data-name="913773d0-25ea-4b77-bc49-f14a9f8c64c4"><g id="2642729f-921f-46bd-87b0-e52d1f9398fc" data-name="cdf826a0-e4c4-46f6-b462-60e3ed0fb56e"><path id="53975ebb-7298-4e30-932b-7f8a9a4598a7" data-name="0af1f7db-cd8d-4435-b433-17a4b9bb3f72" d="M231.14,106.43a.17.17,0,0,0,0,0,3.84,3.84,0,0,1-3.37,2.07,4,4,0,1,1,0-7.9,3.85,3.85,0,0,1,3.39,2.09.25.25,0,0,1,0,.07s-1.23.9-1.24.88,0,0,0,0a2.3,2.3,0,0,0-2.17-1.46,2.42,2.42,0,1,0,0,4.84,2.36,2.36,0,0,0,2.13-1.39l0-.07Z" fill="#b6bbbf"/></g><g id="1f46610d-a0b8-415b-b472-103f5cadebc5" data-name="9c6f631a-3822-45eb-aa4a-10bd4622aaae"><path id="48607f37-e87d-42c7-ba76-f6dfbd128e31" data-name="ff06fda7-2d68-46a3-ab78-194a367b5dab" d="M232.75,100.71h1.48v2.77h3.89v-2.77h1.49v7.69h-1.49V105h-3.89v3.38h-1.48Z" fill="#b6bbbf"/></g><g id="49c32961-9e19-4f88-a647-76b5a15697cd" data-name="e894fc07-261e-4296-9735-19354b5c70cc"><path id="fd2859e3-2f38-4d0c-afb3-de60cf47e6ce" data-name="aef6a0cf-9978-4496-bbdc-a8b3fbd5de91" d="M260.52,108.4v-7.69h5.37v1.56H262v1.53h3.59v1.54H262v1.53h4.43v1.53Z" fill="#b6bbbf"/></g><g id="79ba3065-5d67-4904-ab75-eb131fb23715" data-name="b2f6667f-b893-458f-8c15-c5c0223db846"><path id="085542e8-58ae-4d14-8f97-baec8447ffd7" data-name="8b5fdba0-3b3f-49a0-8c09-9539191172a7" d="M268.54,108.4v-7.69H270v6.16h4.18v1.53Z" fill="#b6bbbf"/></g><g id="1f8bde89-5b15-4fea-b010-405b5f39d3cd" data-name="04d7fca4-f49a-44bf-b613-08c1972b755d"><path id="3959fe6f-b9c8-42f1-81a4-4dbff0533c1c" data-name="9c7fc179-3500-4769-8ab9-0b5e1ce2ef8d" d="M252.44,108.4h-1.51v-7.69H253l3.29,4.61v-4.61h1.5v7.69h-1.19l-4.18-5.8Z" fill="#b6bbbf"/></g><g id="1acfa327-e4d1-46cd-b31f-0b4dc40a0cf8" data-name="49a7763d-72cd-40f8-8920-94349008db98"><path id="e8f991bd-0239-4161-a2d2-d37b5b3e4fef" data-name="066b9674-67b0-485e-88d3-a40ea69f0e1a" d="M245.27,102.27,244,105.34h2.69Zm-2,4.61-.7,1.52h-1.78l3.41-7.69h2.08l3.43,7.69H248l-.68-1.53Z" fill="#b6bbbf"/></g></g></g><g id="db7ac140-82db-4c9e-8846-793c70141d9a" data-name="1405f47d-53eb-43e3-aa98-32d0d33dd8e9"><path d="M262.14,91.81l-.05.06a7.81,7.81,0,0,1-6.65,3.72,8.15,8.15,0,0,1-2.55-.41,11.22,11.22,0,0,0,2.77-7.41,11.33,11.33,0,0,0-2.74-7.41,8,8,0,0,1,2.52-.41,7.84,7.84,0,0,1,6.74,3.88,0,0,0,0,1,0,0l3.25-1.68a.35.35,0,0,0-.05-.08,11.47,11.47,0,0,0-9.94-5.79,11.12,11.12,0,0,0-5.6,1.51,11.16,11.16,0,0,0-5.61-1.51,11.49,11.49,0,0,0-10,5.8l0,.08,3.24,1.68v0A7.88,7.88,0,0,1,244.23,80a7.7,7.7,0,0,1,2.52.42,11.33,11.33,0,0,0,0,14.81,8.14,8.14,0,0,1-2.54.41,7.81,7.81,0,0,1-6.65-3.72l-.05-.06-1.61.82-1.62.84v.07a11.49,11.49,0,0,0,9.92,5.7,11.2,11.2,0,0,0,5.6-1.49,11.2,11.2,0,0,0,5.6,1.49,11.48,11.48,0,0,0,9.89-5.7v-.06l-1.62-.84Zm-12.3,1.4a7.91,7.91,0,0,1-2.19-5.43,7.61,7.61,0,0,1,2.19-5.37A7.65,7.65,0,0,1,252,87.78,7.94,7.94,0,0,1,249.84,93.21Z" fill="#b6bbbf"/></g></g><g opacity="0.75"><path d="M336.83,99.81a1.27,1.27,0,0,1-.39.93,1.29,1.29,0,0,1-.93.39,1.24,1.24,0,0,1-.93-.39L331,97.22a7.07,7.07,0,0,1-4.11,1.28,7.44,7.44,0,0,1-5.14-2.12,7.49,7.49,0,0,1-1.55-2.32,7.26,7.26,0,0,1,0-5.64,7.37,7.37,0,0,1,1.55-2.32,7.25,7.25,0,0,1,11.83,2.32,7.25,7.25,0,0,1-.71,6.93l3.54,3.54A1.26,1.26,0,0,1,336.83,99.81Zm-6.64-5.31a4.59,4.59,0,1,0-3.26,1.36A4.42,4.42,0,0,0,330.19,94.5Z" fill="#b6bbbf"/></g><g opacity="0.75"><path d="M176.37,97.74a3,3,0,0,1-.65,1.93,1.91,1.91,0,0,1-1.55.8h-8.8a1.91,1.91,0,0,1-1.55-.8,3,3,0,0,1-.65-1.93,14.41,14.41,0,0,1,.09-1.65,9.94,9.94,0,0,1,.32-1.57,5,5,0,0,1,.61-1.35,2.86,2.86,0,0,1,1-.92,2.72,2.72,0,0,1,1.38-.35,4.61,4.61,0,0,0,6.46,0,2.72,2.72,0,0,1,1.38.35,2.86,2.86,0,0,1,1,.92,5,5,0,0,1,.61,1.35,9.94,9.94,0,0,1,.32,1.57A14.41,14.41,0,0,1,176.37,97.74Zm-3.8-11.94a4,4,0,1,1-2.8-1.16A3.81,3.81,0,0,1,172.57,85.8Z" fill="#b6bbbf"/></g><g id="61f561c4-1693-47ea-b252-eebf4a7193dc" data-name="64c577b1-cc1e-4157-8677-35dc436603a1" opacity="0.4"><g id="e65a4408-ba55-41a2-b584-4949a31e3247" data-name="dd256ab3-30ed-4052-a292-513be0d54b82"><g id="ab23a265-ca0b-435a-a024-a6a106bc56e4" data-name="913773d0-25ea-4b77-bc49-f14a9f8c64c4"><g id="5128e7bf-8b44-42f4-a011-53a669c2ba95" data-name="cdf826a0-e4c4-46f6-b462-60e3ed0fb56e"><path id="03726a44-4522-4a5a-ad27-9e96e578093a" data-name="0af1f7db-cd8d-4435-b433-17a4b9bb3f72" d="M195.67,312.67a.77.77,0,0,0-.07.16A11.48,11.48,0,0,1,185.54,319a11.8,11.8,0,0,1,0-23.59,11.48,11.48,0,0,1,10.13,6.24.94.94,0,0,1,.12.22s-3.66,2.67-3.7,2.62a.3.3,0,0,0-.07-.15,6.84,6.84,0,0,0-6.47-4.35,7.23,7.23,0,0,0,0,14.45,7,7,0,0,0,6.35-4.15,1.63,1.63,0,0,0,.11-.23Z" fill="#fff"/></g><g id="9d01128f-041a-4a92-a3d4-f27d0c024f9a" data-name="9c6f631a-3822-45eb-aa4a-10bd4622aaae"><path id="3cbfc323-36c3-4618-ae43-b18e1505250a" data-name="ff06fda7-2d68-46a3-ab78-194a367b5dab" d="M200.48,295.6h4.42v8.25h11.61V295.6H221v22.95h-4.45V308.46H204.89v10.09h-4.41Z" fill="#fff"/></g><g id="656b7f26-b925-4db5-a3af-2e96666fe5c9" data-name="e894fc07-261e-4296-9735-19354b5c70cc"><path id="f9a8a106-b72f-4254-b032-8cb8655f970e" data-name="aef6a0cf-9978-4496-bbdc-a8b3fbd5de91" d="M283.36,318.55V295.6h16.05v4.64H287.83v4.58h10.69v4.58H287.83V314H301v4.57Z" fill="#fff"/></g><g id="9416f3bf-fb9f-4b88-a84f-305f7ca7caf3" data-name="b2f6667f-b893-458f-8c15-c5c0223db846"><path id="47cc9fb3-f3b7-4f45-97cc-c4c7d5b44bc6" data-name="8b5fdba0-3b3f-49a0-8c09-9539191172a7" d="M307.31,318.55V295.6h4.49V314h12.47v4.56Z" fill="#fff"/></g><g id="1a120837-9c9d-4af1-a9cd-4b6d33abe409" data-name="04d7fca4-f49a-44bf-b613-08c1972b755d"><path id="ac6d6ad6-9cc8-4334-aaf0-18ae0b695944" data-name="9c7fc179-3500-4769-8ab9-0b5e1ce2ef8d" d="M259.24,318.55h-4.49V295.6H261l9.83,13.76V295.6h4.46v22.95h-3.56l-12.47-17.31Z" fill="#fff"/></g><g id="931ae5c9-1e23-4e2c-8f2c-73914dde0683" data-name="49a7763d-72cd-40f8-8920-94349008db98"><path id="1b45f8b0-af31-4fd9-af2f-88118f0cafed" data-name="066b9674-67b0-485e-88d3-a40ea69f0e1a" d="M237.84,300.24l-3.93,9.17h8ZM231.94,314l-2.08,4.55h-5.32l10.17-22.95h6.22l10.24,22.95h-5.31l-2-4.56Z" fill="#fff"/></g></g></g><g id="82025ceb-cb74-4804-b7d1-4845c4d6b1d3" data-name="1405f47d-53eb-43e3-aa98-32d0d33dd8e9"><path d="M288.19,269a.59.59,0,0,0-.13.18,23.35,23.35,0,0,1-19.86,11.11,24.53,24.53,0,0,1-7.6-1.23,33.85,33.85,0,0,0,.1-44.22,22.76,22.76,0,0,1,7.5-1.22,23.43,23.43,0,0,1,20.13,11.57.17.17,0,0,1,0,.14l9.69-5a.84.84,0,0,0-.14-.24,34.23,34.23,0,0,0-29.68-17.27,32.89,32.89,0,0,0-16.7,4.49,32.89,32.89,0,0,0-16.75-4.49A34.25,34.25,0,0,0,205,240.12a1.88,1.88,0,0,0-.14.24l9.69,5a.33.33,0,0,1,0-.14,23.41,23.41,0,0,1,20.18-11.59,23.14,23.14,0,0,1,7.52,1.22A34,34,0,0,0,234.09,257a33.55,33.55,0,0,0,8.28,22.11,24.64,24.64,0,0,1-7.61,1.23,23.32,23.32,0,0,1-19.84-11.11.65.65,0,0,0-.15-.18L210,271.48,205.14,274v.2a34.25,34.25,0,0,0,29.61,17,33.67,33.67,0,0,0,16.71-4.44,33.6,33.6,0,0,0,16.7,4.44,34.29,34.29,0,0,0,29.54-17V274l-4.83-2.51Zm-36.71,4.18A23.64,23.64,0,0,1,245,257a22.75,22.75,0,0,1,6.53-16A22.74,22.74,0,0,1,258,257,23.67,23.67,0,0,1,251.48,273.2Z" fill="#fff"/></g></g></g></svg>