<svg xmlns="http://www.w3.org/2000/svg" viewBox="0 0 500 500"><title>chatify</title><g id="c8b6c63d-3456-4df2-a11a-1ce141d5e7e4" data-name="Layer 5"><rect width="500" height="500" fill="#fff"/></g><g id="c6e5dd95-cad5-4900-a980-594ceee0cf4b" data-name="Chatify"><rect width="140" height="500" fill="#77b1e0"/><path d="M271.45,8.43h93.1c1.08,0,2,1.07,2,2.69v2.69c0,1.61-.9,2.69-2,2.69h-93.1c-1.08,0-2-1.08-2-2.69V11.12C269.56,9.77,270.37,8.43,271.45,8.43Z" fill="#94989b"/><path d="M23.41,8.43h91.2c1.06,0,1.94,1.07,1.94,2.69v2.69c0,1.61-.88,2.69-1.94,2.69H23.41c-1.06,0-1.94-1.08-1.94-2.69V11.12C21.56,9.77,22.35,8.43,23.41,8.43Z" fill="#f4f6fb"/><path d="M22.7,74.72H80.59c.67,0,1.23.83,1.23,2.07v2.06c0,1.23-.56,2.06-1.23,2.06H22.7c-.67,0-1.23-.83-1.23-2.06V76.79C21.52,75.75,22,74.72,22.7,74.72Z" fill="#f4f6fb"/><path d="M22.58,95.32H74.89c.6,0,1.11.82,1.11,2.06v2.06c0,1.24-.51,2.06-1.11,2.06H22.58c-.61,0-1.11-.82-1.11-2.06V97.38C21.52,96.35,22,95.32,22.58,95.32Z" fill="#f4f6fb"/><path d="M22.58,54.13H74.89c.6,0,1.11.83,1.11,2.06v2.07c0,1.23-.51,2.06-1.11,2.06H22.58c-.61,0-1.11-.83-1.11-2.06V56.19C21.52,55.16,22,54.13,22.58,54.13Z" fill="#f4f6fb"/><path d="M22.7,115.91H80.59c.67,0,1.23.82,1.23,2.06V120c0,1.24-.56,2.06-1.23,2.06H22.7c-.67,0-1.23-.82-1.23-2.06V118C21.52,116.94,22,115.91,22.7,115.91Z" fill="#f4f6fb"/><path d="M22.7,136.5H80.59c.67,0,1.23.82,1.23,2.06v2.06c0,1.24-.56,2.07-1.23,2.07H22.7c-.67,0-1.23-.83-1.23-2.07v-2.06C21.52,137.53,22,136.5,22.7,136.5Z" fill="#f4f6fb"/><path d="M22.7,157.09H80.59c.67,0,1.23.83,1.23,2.06v2.07c0,1.23-.56,2.06-1.23,2.06H22.7c-.67,0-1.23-.83-1.23-2.06v-2.07C21.52,158.12,22,157.09,22.7,157.09Z" fill="#f4f6fb"/><path d="M22.67,177.68H79.38c.66,0,1.21.83,1.21,2.07v2.06c0,1.24-.55,2.06-1.21,2.06H22.67c-.65,0-1.2-.82-1.2-2.06v-2.06C21.52,178.72,22,177.68,22.67,177.68Z" fill="#f4f6fb"/><rect x="140" y="434.43" width="360" height="65" fill="#d6dde6" opacity="0.75"/><rect x="148.51" y="442.26" width="284.21" height="49.89" rx="10.79" ry="10.79" fill="#fff"/><rect x="265.97" y="375.13" width="222.03" height="46.38" rx="9.19" ry="9.19" fill="#77b1e0"/><path d="M448.87,462.86h36.27c.47,0,.86,1.16.86,2.9v2.9c0,1.74-.39,2.9-.86,2.9H448.87c-.46,0-.86-1.16-.86-2.9v-2.9C448.05,464.31,448.41,462.86,448.87,462.86Z" fill="#94989b"/><path d="M281.19,385.11h183c.39,0,.71.53.71,1.32v1.32c0,.79-.32,1.32-.71,1.32h-183c-.39,0-.71-.53-.71-1.32v-1.32C280.51,385.77,280.8,385.11,281.19,385.11Z" fill="#f4f6fb"/><path d="M281.19,397.12h189.6c.39,0,.71.52.71,1.31v1.32c0,.79-.32,1.32-.71,1.32H281.19c-.39,0-.71-.53-.71-1.32v-1.32C280.51,397.78,280.8,397.12,281.19,397.12Z" fill="#f4f6fb"/><path d="M281.19,409.12H389.72c.39,0,.71.53.71,1.32v1.32c0,.79-.32,1.31-.71,1.31H281.19c-.39,0-.71-.52-.71-1.31v-1.32C280.51,409.78,280.8,409.12,281.19,409.12Z" fill="#f4f6fb"/><rect x="312.44" y="257" width="175.56" height="48.79" rx="9.43" ry="9.43" fill="#77b1e0"/><path d="M326.19,268h146c.39,0,.71.53.71,1.32v1.32c0,.79-.32,1.32-.71,1.32h-146c-.39,0-.71-.53-.71-1.32v-1.32C325.51,268.63,325.8,268,326.19,268Z" fill="#f4f6fb"/><path d="M326.19,280h144.6c.39,0,.71.52.71,1.31v1.32c0,.79-.32,1.32-.71,1.32H326.19c-.39,0-.71-.53-.71-1.32v-1.32C325.51,280.63,325.8,280,326.19,280Z" fill="#f4f6fb"/><path d="M326.19,292H433.25c.39,0,.71.53.71,1.32v1.32c0,.79-.32,1.31-.71,1.31H326.19c-.39,0-.71-.52-.71-1.31V293.3C325.51,292.64,325.8,292,326.19,292Z" fill="#f4f6fb"/><rect x="265.97" y="57.2" width="222.03" height="125.64" rx="17.01" ry="17.01" fill="#77b1e0"/><path d="M283.36,142H469.78c.49,0,.9.52.9,1.31v1.32c0,.79-.41,1.32-.9,1.32H283.36c-.49,0-.89-.53-.89-1.32v-1.32C282.51,142.61,282.87,142,283.36,142Z" fill="#f4f6fb"/><path d="M283.36,153.9h186c.49,0,.9.53.9,1.32v1.32c0,.79-.41,1.31-.9,1.31h-186c-.49,0-.89-.52-.89-1.31v-1.32C282.51,154.56,282.87,153.9,283.36,153.9Z" fill="#f4f6fb"/><path d="M283.36,165.85h135.4c.49,0,.9.53.9,1.32v1.32c0,.79-.41,1.32-.9,1.32H283.36c-.49,0-.89-.53-.89-1.32v-1.32C282.51,166.51,282.87,165.85,283.36,165.85Z" fill="#f4f6fb"/><path d="M283.36,70.22H468c.49,0,.9.53.9,1.32v1.32c0,.79-.41,1.32-.9,1.32H283.36c-.49,0-.89-.53-.89-1.32V71.54C282.51,70.88,282.87,70.22,283.36,70.22Z" fill="#f4f6fb"/><path d="M283.36,82.18H468.43c.49,0,.9.52.9,1.31v1.32c0,.79-.41,1.32-.9,1.32H283.36c-.49,0-.89-.53-.89-1.32V83.49C282.51,82.84,282.87,82.18,283.36,82.18Z" fill="#f4f6fb"/><path d="M283.36,94.13H468.43c.49,0,.9.53.9,1.32v1.32c0,.79-.41,1.31-.9,1.31H283.36c-.49,0-.89-.52-.89-1.31V95.45C282.51,94.79,282.87,94.13,283.36,94.13Z" fill="#f4f6fb"/><path d="M283.36,106.08H461.44c.49,0,.9.53.9,1.32v1.32c0,.79-.41,1.32-.9,1.32H283.36c-.49,0-.89-.53-.89-1.32V107.4C282.51,106.74,282.87,106.08,283.36,106.08Z" fill="#f4f6fb"/><path d="M283.36,118H468.88c.49,0,.9.53.9,1.32v1.31c0,.8-.41,1.32-.9,1.32H283.36c-.49,0-.89-.52-.89-1.32v-1.31C282.51,118.7,282.87,118,283.36,118Z" fill="#f4f6fb"/><path d="M283.36,130H468.88c.49,0,.9.53.9,1.32v1.32c0,.79-.41,1.32-.9,1.32H283.36c-.49,0-.89-.53-.89-1.32v-1.32C282.51,130.65,282.87,130,283.36,130Z" fill="#f4f6fb"/><rect x="147.73" y="195.55" width="170.03" height="48.73" rx="9.27" ry="9.27" fill="#d6dde6" opacity="0.75"/><path d="M155.94,206.67h136c.39,0,.72.53.72,1.32v1.32c0,.79-.33,1.31-.72,1.31h-136c-.39,0-.71-.52-.71-1.31V208C155.26,207.33,155.55,206.67,155.94,206.67Z" fill="#94989b"/><path d="M155.94,219.17h144.6c.39,0,.71.53.71,1.32v1.32c0,.79-.32,1.32-.71,1.32H155.94c-.39,0-.71-.53-.71-1.32v-1.32C155.26,219.83,155.55,219.17,155.94,219.17Z" fill="#94989b"/><path d="M155.94,232.68H176c.39,0,.71.53.71,1.32v1.31c0,.79-.32,1.32-.71,1.32H155.94c-.39,0-.71-.53-.71-1.32V234C155.26,233.34,155.55,232.68,155.94,232.68Z" fill="#94989b"/><rect x="148.51" y="319.06" width="215.03" height="43.95" rx="8.81" ry="8.81" fill="#d6dde6" opacity="0.75"/><path d="M156.73,326h183c.39,0,.71.53.71,1.32v1.32c0,.79-.32,1.32-.71,1.32h-183c-.39,0-.71-.53-.71-1.32v-1.32C156.05,326.7,156.34,326,156.73,326Z" fill="#94989b"/><path d="M156.73,338.05h189.6c.38,0,.71.52.71,1.31v1.32c0,.79-.33,1.32-.71,1.32H156.73c-.39,0-.71-.53-.71-1.32v-1.32C156.05,338.71,156.34,338.05,156.73,338.05Z" fill="#94989b"/><path d="M156.73,350.05H265.26c.39,0,.71.53.71,1.32v1.32c0,.79-.32,1.31-.71,1.31H156.73c-.39,0-.71-.52-.71-1.31v-1.32C156.05,350.71,156.34,350.05,156.73,350.05Z" fill="#94989b"/></g></svg>