<svg xmlns="http://www.w3.org/2000/svg" width="500" height="500">
  <g data-name="Layer 5">
    <path fill="#fff" d="M0 0h500v500H0z"/>
    <path fill="#f7fafe" d="M0 0h500v500H0z"/>
  </g>
  <g data-name="Chatify">
    <path fill="#77b1e0" d="M0 0h140v500H0z"/>
    <path fill="#94989b" d="M271.45 8.43h93.1c1.08 0 2 1.07 2 2.69v2.69c0 1.61-.9 2.69-2 2.69h-93.1c-1.08 0-2-1.08-2-2.69v-2.69c.11-1.35.92-2.69 2-2.69z"/>
    <path fill="#f4f6fb" d="M23.41 8.43h91.2c1.06 0 1.94 1.07 1.94 2.69v2.69c0 1.61-.88 2.69-1.94 2.69h-91.2c-1.06 0-1.94-1.08-1.94-2.69v-2.69c.09-1.35.88-2.69 1.94-2.69zM22.7 74.72h57.89c.67 0 1.23.83 1.23 2.07v2.06c0 1.23-.56 2.06-1.23 2.06H22.7c-.67 0-1.23-.83-1.23-2.06v-2.06c.05-1.04.53-2.07 1.23-2.07zM22.58 95.32h52.31c.6 0 1.11.82 1.11 2.06v2.06c0 1.24-.51 2.06-1.11 2.06H22.58c-.61 0-1.11-.82-1.11-2.06v-2.06c.05-1.03.53-2.06 1.11-2.06zM22.58 54.13h52.31c.6 0 1.11.83 1.11 2.06v2.07c0 1.23-.51 2.06-1.11 2.06H22.58c-.61 0-1.11-.83-1.11-2.06v-2.07c.05-1.03.53-2.06 1.11-2.06zM22.7 115.91h57.89c.67 0 1.23.82 1.23 2.06V120c0 1.24-.56 2.06-1.23 2.06H22.7c-.67 0-1.23-.82-1.23-2.06v-2c.05-1.06.53-2.09 1.23-2.09zM22.7 136.5h57.89c.67 0 1.23.82 1.23 2.06v2.06c0 1.24-.56 2.07-1.23 2.07H22.7c-.67 0-1.23-.83-1.23-2.07v-2.06c.05-1.03.53-2.06 1.23-2.06zM22.7 157.09h57.89c.67 0 1.23.83 1.23 2.06v2.07c0 1.23-.56 2.06-1.23 2.06H22.7c-.67 0-1.23-.83-1.23-2.06v-2.07c.05-1.03.53-2.06 1.23-2.06zM22.67 177.68h56.71c.66 0 1.21.83 1.21 2.07v2.06c0 1.24-.55 2.06-1.21 2.06H22.67c-.65 0-1.2-.82-1.2-2.06v-2.06c.05-1.03.53-2.07 1.2-2.07z"/>
    <path fill="#d6dde6" d="M140 434.43h360v65H140z" opacity=".75"/>
    <rect width="284.21" height="49.89" x="148.51" y="442.26" fill="#fff" rx="10.79" ry="10.79"/>
    <rect width="222.03" height="46.38" x="265.97" y="375.13" fill="#77b1e0" rx="9.19" ry="9.19"/>
    <path fill="#94989b" d="M448.87 462.86h36.27c.47 0 .86 1.16.86 2.9v2.9c0 1.74-.39 2.9-.86 2.9h-36.27c-.46 0-.86-1.16-.86-2.9v-2.9c.04-1.45.4-2.9.86-2.9z"/>
    <path fill="#f4f6fb" d="M281.19 385.11h183c.39 0 .71.53.71 1.32v1.32c0 .79-.32 1.32-.71 1.32h-183c-.39 0-.71-.53-.71-1.32v-1.32c.03-.66.32-1.32.71-1.32zM281.19 397.12h189.6c.39 0 .71.52.71 1.31v1.32c0 .79-.32 1.32-.71 1.32h-189.6c-.39 0-.71-.53-.71-1.32v-1.32c.03-.65.32-1.31.71-1.31zM281.19 409.12h108.53c.39 0 .71.53.71 1.32v1.32c0 .79-.32 1.31-.71 1.31H281.19c-.39 0-.71-.52-.71-1.31v-1.32c.03-.66.32-1.32.71-1.32z"/>
    <rect width="175.56" height="48.79" x="312.44" y="257" fill="#77b1e0" rx="9.43" ry="9.43"/>
    <path fill="#f4f6fb" d="M326.19 268h146c.39 0 .71.53.71 1.32v1.32c0 .79-.32 1.32-.71 1.32h-146c-.39 0-.71-.53-.71-1.32v-1.32c.03-.69.32-1.32.71-1.32zM326.19 280h144.6c.39 0 .71.52.71 1.31v1.32c0 .79-.32 1.32-.71 1.32h-144.6c-.39 0-.71-.53-.71-1.32v-1.32c.03-.68.32-1.31.71-1.31zM326.19 292h107.06c.39 0 .71.53.71 1.32v1.32c0 .79-.32 1.31-.71 1.31H326.19c-.39 0-.71-.52-.71-1.31v-1.34c.03-.66.32-1.3.71-1.3z"/>
    <rect width="222.03" height="125.64" x="265.97" y="57.2" fill="#77b1e0" rx="17.01" ry="17.01"/>
    <path fill="#f4f6fb" d="M283.36 142h186.42c.49 0 .9.52.9 1.31v1.32c0 .79-.41 1.32-.9 1.32H283.36c-.49 0-.89-.53-.89-1.32v-1.32c.04-.7.4-1.31.89-1.31zM283.36 153.9h186c.49 0 .9.53.9 1.32v1.32c0 .79-.41 1.31-.9 1.31h-186c-.49 0-.89-.52-.89-1.31v-1.32c.04-.66.4-1.32.89-1.32zM283.36 165.85h135.4c.49 0 .9.53.9 1.32v1.32c0 .79-.41 1.32-.9 1.32h-135.4c-.49 0-.89-.53-.89-1.32v-1.32c.04-.66.4-1.32.89-1.32zM283.36 70.22H468c.49 0 .9.53.9 1.32v1.32c0 .79-.41 1.32-.9 1.32H283.36c-.49 0-.89-.53-.89-1.32v-1.32c.04-.66.4-1.32.89-1.32zM283.36 82.18h185.07c.49 0 .9.52.9 1.31v1.32c0 .79-.41 1.32-.9 1.32H283.36c-.49 0-.89-.53-.89-1.32v-1.32c.04-.65.4-1.31.89-1.31zM283.36 94.13h185.07c.49 0 .9.53.9 1.32v1.32c0 .79-.41 1.31-.9 1.31H283.36c-.49 0-.89-.52-.89-1.31v-1.32c.04-.66.4-1.32.89-1.32zM283.36 106.08h178.08c.49 0 .9.53.9 1.32v1.32c0 .79-.41 1.32-.9 1.32H283.36c-.49 0-.89-.53-.89-1.32v-1.32c.04-.66.4-1.32.89-1.32zM283.36 118h185.52c.49 0 .9.53.9 1.32v1.31c0 .8-.41 1.32-.9 1.32H283.36c-.49 0-.89-.52-.89-1.32v-1.31c.04-.62.4-1.32.89-1.32zM283.36 130h185.52c.49 0 .9.53.9 1.32v1.32c0 .79-.41 1.32-.9 1.32H283.36c-.49 0-.89-.53-.89-1.32v-1.32c.04-.67.4-1.32.89-1.32z"/>
    <rect width="170.03" height="48.73" x="147.73" y="195.55" fill="#d6dde6" opacity=".75" rx="9.27" ry="9.27"/>
    <path fill="#94989b" d="M155.94 206.67h136c.39 0 .72.53.72 1.32v1.32c0 .79-.33 1.31-.72 1.31h-136c-.39 0-.71-.52-.71-1.31V208c.03-.67.32-1.33.71-1.33zM155.94 219.17h144.6c.39 0 .71.53.71 1.32v1.32c0 .79-.32 1.32-.71 1.32h-144.6c-.39 0-.71-.53-.71-1.32v-1.32c.03-.66.32-1.32.71-1.32zM155.94 232.68H176c.39 0 .71.53.71 1.32v1.31c0 .79-.32 1.32-.71 1.32h-20.06c-.39 0-.71-.53-.71-1.32V234c.03-.66.32-1.32.71-1.32z"/>
    <rect width="215.03" height="43.95" x="148.51" y="319.06" fill="#d6dde6" opacity=".75" rx="8.81" ry="8.81"/>
    <path fill="#94989b" d="M156.73 326h183c.39 0 .71.53.71 1.32v1.32c0 .79-.32 1.32-.71 1.32h-183c-.39 0-.71-.53-.71-1.32v-1.32c.03-.62.32-1.32.71-1.32zM156.73 338.05h189.6c.38 0 .71.52.71 1.31v1.32c0 .79-.33 1.32-.71 1.32h-189.6c-.39 0-.71-.53-.71-1.32v-1.32c.03-.65.32-1.31.71-1.31zM156.73 350.05h108.53c.39 0 .71.53.71 1.32v1.32c0 .79-.32 1.31-.71 1.31H156.73c-.39 0-.71-.52-.71-1.31v-1.32c.03-.66.32-1.32.71-1.32z"/>
  </g>
</svg>
