<svg xmlns="http://www.w3.org/2000/svg" viewBox="0 0 500 500"><title>chatify</title><g id="1f7fc9c3-ba22-4d77-95ed-4fa0eaccc50f" data-name="Layer 5"><rect width="500" height="500" fill="#fdfdfe" opacity="0.1"/></g><g id="7e1e46a5-5b30-4d21-a2ea-ad9bbf2eed9e" data-name="Chatify"><rect width="140" height="500" fill="#77b1e0"/><path d="M273.45,9h93.1c1.08,0,2,1.33,2,3.32v3.31c0,2-.9,3.32-2,3.32h-93.1c-1.08,0-2-1.33-2-3.32V12.32C271.56,10.66,272.37,9,273.45,9Z" fill="#d6dde6"/><path d="M23.45,9h93.1c1.08,0,2,1.33,2,3.32v3.31c0,2-.9,3.32-2,3.32H23.45c-1.08,0-2-1.33-2-3.32V12.32C21.56,10.66,22.37,9,23.45,9Z" fill="#d6dde6"/><path d="M22.7,74.72H80.59c.67,0,1.23.83,1.23,2.07v2.06c0,1.23-.56,2.06-1.23,2.06H22.7c-.67,0-1.23-.83-1.23-2.06V76.79C21.52,75.75,22,74.72,22.7,74.72Z" fill="#d6dde6"/><path d="M22.58,95.32H74.89c.6,0,1.11.82,1.11,2.06v2.06c0,1.24-.51,2.06-1.11,2.06H22.58c-.61,0-1.11-.82-1.11-2.06V97.38C21.52,96.35,22,95.32,22.58,95.32Z" fill="#d6dde6"/><path d="M22.58,54.13H74.89c.6,0,1.11.83,1.11,2.06v2.07c0,1.23-.51,2.06-1.11,2.06H22.58c-.61,0-1.11-.83-1.11-2.06V56.19C21.52,55.16,22,54.13,22.58,54.13Z" fill="#d6dde6"/><path d="M22.7,115.91H80.59c.67,0,1.23.82,1.23,2.06V120c0,1.24-.56,2.06-1.23,2.06H22.7c-.67,0-1.23-.82-1.23-2.06V118C21.52,116.94,22,115.91,22.7,115.91Z" fill="#d6dde6"/><path d="M22.7,136.5H80.59c.67,0,1.23.82,1.23,2.06v2.06c0,1.24-.56,2.07-1.23,2.07H22.7c-.67,0-1.23-.83-1.23-2.07v-2.06C21.52,137.53,22,136.5,22.7,136.5Z" fill="#d6dde6"/><rect x="140" y="434.43" width="360" height="65" fill="#d6dde6"/><rect x="148.51" y="441.98" width="284.21" height="49.89" rx="10.79" ry="10.79" fill="#f4f6fb"/><rect x="272.97" y="375.13" width="215.03" height="37.75" rx="8.16" ry="8.16" fill="#77b1e0"/><path d="M448.87,464.54h36.27c.47,0,.86.64.86,1.59v1.6c0,.95-.39,1.59-.86,1.59H448.87c-.46,0-.86-.64-.86-1.59v-1.6C448.05,465.34,448.41,464.54,448.87,464.54Z" fill="#b6bbbf"/><path d="M159.8,452.84H396c.47,0,.86.63.86,1.59V456c0,1-.39,1.6-.86,1.6H159.8c-.47,0-.86-.64-.86-1.6v-1.59C159,453.63,159.33,452.84,159.8,452.84Z" fill="#b6bbbf"/><path d="M159.8,464.93H389c.47,0,.86.64.86,1.59v1.6c0,.95-.39,1.59-.86,1.59H159.8c-.47,0-.86-.64-.86-1.59v-1.6C159,465.73,159.33,464.93,159.8,464.93Z" fill="#b6bbbf"/><path d="M159.8,477H326c.47,0,.86.64.86,1.6v1.59c0,1-.39,1.59-.86,1.59H159.8c-.47,0-.86-.63-.86-1.59v-1.59C159,477.82,159.33,477,159.8,477Z" fill="#b6bbbf"/><g opacity="0.92"><path d="M281.19,382.11h183c.39,0,.71.53.71,1.32v1.32c0,.79-.32,1.32-.71,1.32h-183c-.39,0-.71-.53-.71-1.32v-1.32C280.51,382.77,280.8,382.11,281.19,382.11Z" fill="#f4f6fb"/><path d="M281.19,392.12h189.6c.39,0,.71.52.71,1.31v1.32c0,.79-.32,1.32-.71,1.32H281.19c-.39,0-.71-.53-.71-1.32v-1.32C280.51,392.78,280.8,392.12,281.19,392.12Z" fill="#f4f6fb"/><path d="M281.19,402.12H389.72c.39,0,.71.53.71,1.32v1.32c0,.79-.32,1.31-.71,1.31H281.19c-.39,0-.71-.52-.71-1.31v-1.32C280.51,402.78,280.8,402.12,281.19,402.12Z" fill="#f4f6fb"/></g><rect x="317.97" y="264.99" width="170.03" height="37.75" rx="8.16" ry="8.16" fill="#77b1e0"/><g opacity="0.92"><path d="M326.19,272h146c.39,0,.71.53.71,1.32v1.32c0,.79-.32,1.32-.71,1.32h-146c-.39,0-.71-.53-.71-1.32v-1.32C325.51,272.63,325.8,272,326.19,272Z" fill="#f4f6fb"/><path d="M326.19,282h144.6c.39,0,.71.52.71,1.31v1.32c0,.79-.32,1.32-.71,1.32H326.19c-.39,0-.71-.53-.71-1.32v-1.32C325.51,282.63,325.8,282,326.19,282Z" fill="#f4f6fb"/><path d="M326.19,292H433.25c.39,0,.71.53.71,1.32v1.32c0,.79-.32,1.31-.71,1.31H326.19c-.39,0-.71-.52-.71-1.31V293.3C325.51,292.64,325.8,292,326.19,292Z" fill="#f4f6fb"/></g><rect x="317.97" y="70.5" width="170.03" height="115.11" rx="14.25" ry="14.25" fill="#77b1e0"/><path d="M326.19,153.6h147.4c.39,0,.71.53.71,1.32v1.32c0,.79-.32,1.32-.71,1.32H326.19c-.39,0-.71-.53-.71-1.32v-1.32C325.51,154.26,325.8,153.6,326.19,153.6Z" fill="#f4f6fb"/><path d="M326.19,164.23H473.24c.39,0,.71.53.71,1.32v1.31c0,.8-.32,1.32-.71,1.32h-147c-.39,0-.71-.52-.71-1.32v-1.31C325.51,164.89,325.8,164.23,326.19,164.23Z" fill="#f4f6fb"/><path d="M326.19,174.85H433.25c.39,0,.71.53.71,1.32v1.32c0,.79-.32,1.32-.71,1.32H326.19c-.39,0-.71-.53-.71-1.32v-1.32C325.51,175.51,325.8,174.85,326.19,174.85Z" fill="#f4f6fb"/><path d="M326.19,79.22h146c.39,0,.71.53.71,1.32v1.32c0,.79-.32,1.32-.71,1.32h-146c-.39,0-.71-.53-.71-1.32V80.54C325.51,79.88,325.8,79.22,326.19,79.22Z" fill="#f4f6fb"/><path d="M326.19,89.85H472.53c.38,0,.71.53.71,1.32v1.31c0,.8-.33,1.32-.71,1.32H326.19c-.39,0-.71-.52-.71-1.32V91.17C325.51,90.51,325.8,89.85,326.19,89.85Z" fill="#f4f6fb"/><path d="M326.19,100.47H472.53c.38,0,.71.53.71,1.32v1.32c0,.79-.33,1.32-.71,1.32H326.19c-.39,0-.71-.53-.71-1.32v-1.32C325.51,101.13,325.8,100.47,326.19,100.47Z" fill="#f4f6fb"/><path d="M326.19,111.1H467c.39,0,.71.53.71,1.32v1.32c0,.79-.32,1.31-.71,1.31H326.19c-.39,0-.71-.52-.71-1.31v-1.32C325.51,111.76,325.8,111.1,326.19,111.1Z" fill="#f4f6fb"/><path d="M326.19,121.73H472.88c.39,0,.71.52.71,1.31v1.32c0,.79-.32,1.32-.71,1.32H326.19c-.39,0-.71-.53-.71-1.32V123C325.51,122.38,325.8,121.73,326.19,121.73Z" fill="#f4f6fb"/><path d="M326.19,132.35H467.36c.38,0,.71.53.71,1.32V135c0,.79-.33,1.32-.71,1.32H326.19c-.39,0-.71-.53-.71-1.32v-1.32C325.51,133,325.8,132.35,326.19,132.35Z" fill="#f4f6fb"/><path d="M326.19,143H472.88c.39,0,.71.52.71,1.32v1.31c0,.79-.32,1.32-.71,1.32H326.19c-.39,0-.71-.53-.71-1.32V144.3C325.51,143.64,325.8,143,326.19,143Z" fill="#f4f6fb"/><rect x="147.73" y="205.69" width="170.03" height="37.75" rx="8.16" ry="8.16" fill="#d6dde6" opacity="0.6"/><path d="M155.94,212.67h136c.39,0,.72.53.72,1.32v1.32c0,.79-.33,1.31-.72,1.31h-136c-.39,0-.71-.52-.71-1.31V214C155.26,213.33,155.55,212.67,155.94,212.67Z" fill="#b6bbbf"/><path d="M155.94,222.67h144.6c.39,0,.71.53.71,1.32v1.32c0,.79-.32,1.32-.71,1.32H155.94c-.39,0-.71-.53-.71-1.32V224C155.26,223.33,155.55,222.67,155.94,222.67Z" fill="#b6bbbf"/><path d="M155.94,232.68H176c.39,0,.71.53.71,1.32v1.31c0,.79-.32,1.32-.71,1.32H155.94c-.39,0-.71-.53-.71-1.32V234C155.26,233.34,155.55,232.68,155.94,232.68Z" fill="#b6bbbf"/><rect x="148.51" y="320.06" width="215.03" height="37.75" rx="8.16" ry="8.16" fill="#d6dde6" opacity="0.6"/><path d="M156.73,327h183c.39,0,.71.53.71,1.32v1.32c0,.79-.32,1.32-.71,1.32h-183c-.39,0-.71-.53-.71-1.32v-1.32C156.05,327.7,156.34,327,156.73,327Z" fill="#b6bbbf"/><path d="M156.73,337.05h189.6c.38,0,.71.52.71,1.31v1.32c0,.79-.33,1.32-.71,1.32H156.73c-.39,0-.71-.53-.71-1.32v-1.32C156.05,337.71,156.34,337.05,156.73,337.05Z" fill="#b6bbbf"/><path d="M156.73,347.05H265.26c.39,0,.71.53.71,1.32v1.32c0,.79-.32,1.31-.71,1.31H156.73c-.39,0-.71-.52-.71-1.31v-1.32C156.05,347.71,156.34,347.05,156.73,347.05Z" fill="#b6bbbf"/></g></svg>