<svg xmlns="http://www.w3.org/2000/svg" viewBox="0 0 500.17 500"><title>envita</title><g id="43ed68b1-4323-469d-b6e3-fbfd8983d983" data-name="Layer 5"><rect width="500" height="500" fill="#fdfefe"/></g><g id="c49b2093-3951-48d4-a180-7d50352500a3" data-name="Envita"><rect y="40.41" width="71" height="155.59" fill="#80888e" opacity="0.05"/><rect x="71" y="40.41" width="71.57" height="155.59" fill="#80888e" opacity="0.1"/><rect x="142.57" y="40.41" width="71.33" height="155.59" fill="#80888e" opacity="0.15"/><rect x="213.91" y="40.41" width="72.06" height="155.59" fill="#80888e" opacity="0.2"/><rect x="285.96" y="40.41" width="71.54" height="155.59" fill="#80888e" opacity="0.25"/><rect x="357.5" y="40.41" width="71.87" height="155.59" fill="#80888e" opacity="0.3"/><rect x="429.37" y="40.41" width="70.8" height="155.59" fill="#80888e" opacity="0.35"/><path d="M115,267H55a16.24,16.24,0,0,1-29.39,0H22a8.9,8.9,0,0,1-1.94,0V406.14c0,.43.72,0,1.94,0h93c1.16,0,1.94.43,1.94,0V267A9.14,9.14,0,0,1,115,267ZM38.7,288.76a1.2,1.2,0,0,1,1.19-1.19H97a1.13,1.13,0,0,1,1.19,1.19V290A1.12,1.12,0,0,1,97,291.14H39.89A1.12,1.12,0,0,1,38.7,290ZM26.86,340c0-.59.95-1.19,2.14-1.19h78.93c1.19,0,2.14.48,2.14,1.19v1.19c0,.72-.95,1.19-2.14,1.19H29c-1.19,0-2.14-.47-2.14-1.19Zm83.33,52.74c0,1.79-.71,3.33-1.67,3.33h-80c-.95,0-1.66-1.54-1.66-3.33v-3.33c0-1.91.71-3.34,1.66-3.34h80c1,0,1.67,1.55,1.67,3.34Zm0-15.83c0,.71-.71,1.19-1.67,1.19h-80c-.95,0-1.66-.48-1.66-1.19v-1.19c0-.6.71-1.19,1.66-1.19h80c1,0,1.67.47,1.67,1.19Zm0-11.91c0,.72-1.07,1.19-2.38,1.19H29.24c-1.31,0-2.38-.47-2.38-1.19v-1.19c0-.59,1.07-1.19,2.38-1.19h78.57c1.31,0,2.38.48,2.38,1.19Zm0-11.9c0,.71-.83,1.19-1.78,1.19H28.64c-.95,0-1.78-.48-1.78-1.19v-1.19c0-.6.83-1.19,1.78-1.19h79.77c1,0,1.78.47,1.78,1.19Zm0-23.81c0,.71-.59,1.19-1.43,1.19H28.29c-.84,0-1.43-.48-1.43-1.19v-1.19a1.33,1.33,0,0,1,1.43-1.19h80.47c.84,0,1.43.47,1.43,1.19Zm0-11.91c0,.72-1,1.19-2,1.19H28.88c-1.07,0-2-.47-2-1.19v-1.19c0-.59.95-1.19,2-1.19h79.29c1.07,0,2,.48,2,1.19Zm0-11.9c0,.71-.71,1.19-1.67,1.19h-80c-.95,0-1.66-.48-1.66-1.19v-1.19c0-.6.71-1.19,1.66-1.19h80c1,0,1.67.47,1.67,1.19Z" fill="#d6dde6" fill-opacity="0.7" opacity="0.3"/><path d="M115,221.11H22a5.38,5.38,0,0,0-1.94.17V267A8.9,8.9,0,0,0,22,267h3.62A16.28,16.28,0,1,1,55,267h60a9.14,9.14,0,0,0,1.94,0V221.28A4.87,4.87,0,0,0,115,221.11Z" fill="#80888e" opacity="0.3"/><path d="M0,40.41H500V12.73H0Zm437.68-12.6V26.33a1.61,1.61,0,0,1,1.48-1.48h38.46a1.39,1.39,0,0,1,1.48,1.29v1.67a1.4,1.4,0,0,1-1.3,1.48H439.16a1.39,1.39,0,0,1-1.48-1.3A.54.54,0,0,1,437.68,27.81Zm-53.55,0V26.33a1.59,1.59,0,0,1,1.48-1.48h38.46a1.39,1.39,0,0,1,1.48,1.29v1.67a1.4,1.4,0,0,1-1.3,1.48H385.61a1.39,1.39,0,0,1-1.48-1.3A.54.54,0,0,1,384.13,27.81Zm-53.55,0V26.33a1.59,1.59,0,0,1,1.48-1.48h38.46A1.39,1.39,0,0,1,372,26.14v1.67a1.4,1.4,0,0,1-1.3,1.48H332.06a1.39,1.39,0,0,1-1.48-1.3A.54.54,0,0,1,330.58,27.81Zm-53.55,0V26.33a1.59,1.59,0,0,1,1.48-1.48H317a1.39,1.39,0,0,1,1.48,1.29v1.67a1.4,1.4,0,0,1-1.3,1.48H278.51A1.39,1.39,0,0,1,277,28,.54.54,0,0,1,277,27.81Zm-53.56,0V26.33A1.61,1.61,0,0,1,225,24.85h38.47a1.39,1.39,0,0,1,1.47,1.29.6.6,0,0,1,0,.19v1.48a1.38,1.38,0,0,1-1.29,1.48H225a1.4,1.4,0,0,1-1.48-1.3ZM37.62,29.23s-.18,0-.54.08a8.92,8.92,0,0,0-4,1.46c-.25.21-.86.81-.21,1.13,1.15.57,4.63-.25,4.71-.27s.12,0,.09.08a10.5,10.5,0,0,1-3.47,1,2.69,2.69,0,0,1-.69-.06A2,2,0,0,1,32,31.24a1.45,1.45,0,0,1,.38-1.34c.83-1,3.13-1.68,4.06-2s1,.19,1,.25a1.87,1.87,0,0,1,.28.82C37.74,29.18,37.66,29.21,37.62,29.23ZM62.28,25.9a.73.73,0,1,1-.73.73A.73.73,0,0,1,62.28,25.9ZM51.19,26c0-.13.16-.18.36-.21a2,2,0,0,0,.64-.18c.11-.06.18-.14.23-.12s.07.07.06.14a1.37,1.37,0,0,1-.21.58,1,1,0,0,1-.58.43.46.46,0,0,1-.41-.22A.45.45,0,0,1,51.19,26Zm-2.56,4.53A10.55,10.55,0,0,1,49.91,28c.06-.1.28-.44.32-.53s0-.11-.07-.14a.1.1,0,0,1,0-.13s.11-.06.28,0a3.21,3.21,0,0,1,.37.21.71.71,0,0,1,.35.62c0,.57-1,1.74-1.29,2.15s-.66,1.15-.56,1.3.15.05.28,0a6.46,6.46,0,0,0,2.29-1.8A9.33,9.33,0,0,1,53,27.9s.08-.12.07-.13-.05,0-.1,0a1.26,1.26,0,0,1-.71-.12.18.18,0,0,1-.09-.16c0-.1.15-.13.22-.13h1a.09.09,0,0,0,.07,0,5.31,5.31,0,0,0,.77-1c.19-.29.63-1,.66-1.07s0-.09,0-.13a.09.09,0,0,1,0-.1A.15.15,0,0,1,55,25a1.42,1.42,0,0,1,.26.17.61.61,0,0,1,.19.48,2,2,0,0,1-.25.85c0,.11-.36.64-.4.71s0,.11,0,.11l.75,0h1c.1,0,.11.05.11.08s0,.08-.16.13a2.13,2.13,0,0,1-.63.14l-1.14.05a.38.38,0,0,0-.24,0,.48.48,0,0,0-.09.14A28.79,28.79,0,0,0,52.71,31c0,.11-.09.38,0,.47s.09.08.26,0a8.14,8.14,0,0,0,2.23-1.64c.08-.08.42-.33.45-.38.63-1.08,2.93-2.88,3.82-3a.71.71,0,0,1,.66.41,5.65,5.65,0,0,1,.3.56.12.12,0,0,1,0,.17.09.09,0,0,1-.14,0l-.13-.1a.54.54,0,0,0-.35-.06,3.12,3.12,0,0,0-.68.24,7.56,7.56,0,0,0-2.43,2.07c-.08.12-.28.43-.17.58s.47-.12.64-.29a19.77,19.77,0,0,1,2.19-1.76.74.74,0,0,1,.78.05.71.71,0,0,1,.19.73c0,.21-.86,1.59-1,1.79s-.15.27,0,.39.22,0,.32-.08S60.94,30,61,29.93s.49-.5.56-.58.12-.11.15-.08,0,.1,0,.17a17.45,17.45,0,0,1-2,2c-.12.11-.45.34-.74.17a.84.84,0,0,1-.42-.67,1.8,1.8,0,0,1,.1-.79c.06-.18.43-.9.46-.95s0-.12,0-.14-.07,0-.25.08c-.74.44-2.23,2.51-2.66,2.72a.74.74,0,0,1-.53,0,1.13,1.13,0,0,1-.63-1,1.68,1.68,0,0,1,.06-.4.32.32,0,0,0,0-.13s0,0-.12.09a10,10,0,0,1-1,1,2.25,2.25,0,0,1-1.22.63,1.22,1.22,0,0,1-1.23-.76,2.24,2.24,0,0,1,0-.93.13.13,0,0,0,0-.09s0,0-.08.05a7.61,7.61,0,0,1-.79.82,2.24,2.24,0,0,1-1.17.66.81.81,0,0,1-.79-.4A1.35,1.35,0,0,1,48.63,30.53ZM42.75,27.6a.92.92,0,0,1,.38.54,1.79,1.79,0,0,1-.25,1.21c-.05.1-.62,1.11-.69,1.25s-.31.68-.15.79.29,0,.43-.12a21.37,21.37,0,0,0,1.71-1.53c.12-.12.55-1.2.84-1.73.08-.15,0-.19-.05-.26s0-.17.11-.15a2.51,2.51,0,0,1,.34.11,1.17,1.17,0,0,1,.66.56,1.45,1.45,0,0,1-.13.89c-.11.25-.88,1.45-1,1.72,0,.1-.08.32,0,.41.27.26,1.53-.95,1.87-1.31a3,3,0,0,0,.93-2.63,4.67,4.67,0,0,0-.21-.63s0,0,.08,0a1.79,1.79,0,0,1,.86,1.1,2.71,2.71,0,0,1-.91,2.2A10.82,10.82,0,0,1,46.1,31.2a3.34,3.34,0,0,1-1.14.54.93.93,0,0,1-1-.72c0-.28.13-.65.06-.73s-.06,0-.09,0-1.29,1.59-2,1.54a1,1,0,0,1-.89-1,1.91,1.91,0,0,1,.11-.79,4.4,4.4,0,0,1,.34-.73c.15-.26.31-.56.43-.78s.11-.36,0-.41-.26,0-.4.12-.58.46-.76.61a15.75,15.75,0,0,0-2.29,2.6c0,.11-.09.2-.16.21s-.15,0-.24-.1a1,1,0,0,1-.27-.42c-.23-.74,1.28-2.8,1.71-3.39A3.41,3.41,0,0,0,40,27a.18.18,0,0,0-.1-.18.09.09,0,0,1,.09-.15,2,2,0,0,1,.36.17c.52.39.26,1,.17,1.23a5,5,0,0,1-.57.93c-.12.15-.33.41-.27.47s.1,0,.16-.06.29-.27.55-.5a13.72,13.72,0,0,1,1.52-1.24C42.4,27.37,42.67,27.56,42.75,27.6Zm-19.11,0c.29-3.46,2.26-10.38,9.88-11.23,0,0-1.06.42-.46,3.15.37,1.72.92,3.71.89,3.75s-2.59,1.08-2.21,2.6A1.67,1.67,0,0,0,33.11,27a1.45,1.45,0,0,1-1-1.24c0-.2-.07-.68.73-1.35,2-1.67,6.72-2.5,6.93-2.52a2.45,2.45,0,0,1,1.13,0,1.74,1.74,0,0,1,.73,1.14,1.55,1.55,0,0,1-.22,1.28.71.71,0,0,1-.43.33c-.09,0-.1-.1,0-.16a.85.85,0,0,0,.24-.3c0-.08.07-.29-.33-.34a8.72,8.72,0,0,0-2.3.18,24.5,24.5,0,0,0-3.92,1.06l-.45.19a10.21,10.21,0,0,1-.11,1.31,3.59,3.59,0,0,1-1.19-.18c.14.3.75.43,1.41.41a4.42,4.42,0,0,1,1.31.09c0,.07-.75.19-.82.2a4.65,4.65,0,0,1-.83,0c0,.08,0,.2,0,.22-.42.24-3.86,1.62-1.62,3.68a18.25,18.25,0,0,1-4.31,4c-1,.71-2.25,1.5-2.94,2,0,0,.37-2.9,3.23-7.07,1-1.46,3.34-5.83,4.57-7.12,0,0-1.74.52-3.72,4.05,0,0,1.8-3.92-1.34-5.76,0,0,2.51,3-.66,8.1a40.27,40.27,0,0,1-7,8.81S23,35.35,23.64,27.6Z" fill="#2a51a3" opacity="0.75"/><path d="M250.56,221h-117a2.42,2.42,0,0,0-2.49,1.48v5.92c0,.88,1.11,1.48,2.49,1.48h117c1.36,0,2.49-.6,2.49-1.48v-5.92C253.05,221.59,251.94,221,250.56,221Z" fill="#5674b9" opacity="0.75"/><path d="M470.6,247.54H138.16c-3.86,0-6.75.74-7.08,1.48v1.48c0,.89,3.22,1.48,7.08,1.48H470.6c3.86,0,7.08-.59,7.08-1.48V249C477.68,248.14,474.46,247.54,470.6,247.54Z" fill="#80888e" opacity="0.2"/><path d="M127.3,5c-3,0-5.17.74-5.42,1.48V8c0,.89,2.47,1.48,5.42,1.48H382.16c3,0,5.43-.59,5.43-1.48V6.48c0-.89-2.47-1.48-5.43-1.48Z" fill="#5674b9" opacity="0.75"/><path d="M138.16,264.38H470.6c3.86,0,7.08-.59,7.08-1.48v-1.48c0-.89-3.22-1.48-7.08-1.48H138.16c-3.86,0-6.75.74-7.08,1.48v1.48C131.08,263.79,134.3,264.38,138.16,264.38Z" fill="#80888e" opacity="0.2"/><path d="M477.68,275.31v-1.48c0-.89-3.22-1.48-7.08-1.48H138.16c-3.86,0-6.75.74-7.08,1.48v1.48c0,.89,3.22,1.48,7.08,1.48H470.6C474.46,276.79,477.68,276.2,477.68,275.31Z" fill="#80888e" opacity="0.2"/><path d="M137.87,284.76c-3.71,0-6.48.8-6.79,1.48v1.48c0,.89,3.08,1.48,6.79,1.48H457c3.7,0,6.79-.59,6.79-1.48v-1.48c0-.89-3.09-1.48-6.79-1.48Z" fill="#80888e" opacity="0.2"/><path d="M131,300.13c0,.89,2.76,1.48,6.08,1.48H423.27c3.32,0,6.07-.59,6.07-1.48v-1.48c0-.88-2.75-1.48-6.07-1.48H137.08c-3.22,0-5.79.74-6.08,1.48Z" fill="#80888e" opacity="0.2"/><path d="M470.6,338.83H138.16c-3.86,0-6.75.74-7.08,1.48v1.47c0,.89,3.22,1.48,7.08,1.48H470.6c3.86,0,7.08-.59,7.08-1.48v-1.47C477.68,339.42,474.46,338.83,470.6,338.83Z" fill="#80888e" opacity="0.2"/><path d="M138.16,355.66H470.6c3.86,0,7.08-.59,7.08-1.48V352.7c0-.89-3.22-1.48-7.08-1.48H138.16c-3.86,0-6.75.74-7.08,1.48v1.48C131.08,355.07,134.3,355.66,138.16,355.66Z" fill="#80888e" opacity="0.2"/><path d="M477.68,366.59v-1.48c0-.88-3.22-1.48-7.08-1.48H138.16c-3.86,0-6.75.74-7.08,1.48v1.48c0,.89,3.22,1.48,7.08,1.48H470.6C474.46,368.07,477.68,367.48,477.68,366.59Z" fill="#80888e" opacity="0.2"/><path d="M137.87,376.05c-3.71,0-6.48.79-6.79,1.47V379c0,.89,3.08,1.48,6.79,1.48H457c3.7,0,6.79-.59,6.79-1.48v-1.48c0-.88-3.09-1.47-6.79-1.47Z" fill="#80888e" opacity="0.2"/><path d="M131,391.42c0,.88,2.76,1.47,6.08,1.47H423.27c3.32,0,6.07-.59,6.07-1.47v-1.48c0-.89-2.75-1.48-6.07-1.48H137.08c-3.22,0-5.79.74-6.08,1.48Z" fill="#80888e" opacity="0.2"/><path d="M470.6,428.93H138.16c-3.86,0-6.75.74-7.08,1.48v1.48c0,.89,3.22,1.48,7.08,1.48H470.6c3.86,0,7.08-.59,7.08-1.48v-1.48C477.68,429.52,474.46,428.93,470.6,428.93Z" fill="#80888e" opacity="0.2"/><path d="M138.16,445.76H470.6c3.86,0,7.08-.59,7.08-1.48v-1.47c0-.89-3.22-1.48-7.08-1.48H138.16c-3.86,0-6.75.74-7.08,1.48v1.47C131.08,445.17,134.3,445.76,138.16,445.76Z" fill="#80888e" opacity="0.2"/><path d="M477.68,456.7v-1.48c0-.89-3.22-1.48-7.08-1.48H138.16c-3.86,0-6.75.74-7.08,1.48v1.48c0,.88,3.22,1.48,7.08,1.48H470.6C474.46,458.18,477.68,457.58,477.68,456.7Z" fill="#80888e" opacity="0.2"/><path d="M137.87,466.15c-3.71,0-6.48.8-6.79,1.48v1.48c0,.88,3.08,1.48,6.79,1.48H457c3.7,0,6.79-.6,6.79-1.48v-1.48c0-.89-3.09-1.48-6.79-1.48Z" fill="#80888e" opacity="0.2"/><path d="M131,481.52c0,.89,2.76,1.48,6.08,1.48H423.27c3.32,0,6.07-.59,6.07-1.48V480c0-.89-2.75-1.48-6.07-1.48H137.08c-3.22,0-5.79.74-6.08,1.48Z" fill="#80888e" opacity="0.2"/><path d="M333.33,177.5H0V196H500V177.5H333.33Zm-276.9,8.24v2a1.78,1.78,0,0,1-1.3,2H16.49c-.77.07-1.43-.72-1.48-1.76a1,1,0,0,1,0-.25v-2a1.94,1.94,0,0,1,1.48-2H55c.76-.07,1.43.72,1.48,1.76Zm71.35,0v2a1.79,1.79,0,0,1-1.29,2H87.84c-.76.07-1.43-.72-1.48-1.76v-2.27a2,2,0,0,1,1.48-2H126.3c.77-.07,1.43.72,1.48,1.76A1,1,0,0,1,127.78,185.74Zm71.5,0v2a1.79,1.79,0,0,1-1.29,2H159.34c-.76.07-1.43-.72-1.48-1.76v-2.27a2,2,0,0,1,1.48-2H197.8c.77-.07,1.43.72,1.48,1.76A1,1,0,0,1,199.28,185.74Zm72.48,0v2a1.79,1.79,0,0,1-1.29,2H231.82c-.76.07-1.43-.72-1.48-1.76v-2.27a2,2,0,0,1,1.48-2h38.46c.77-.07,1.43.72,1.48,1.76A1,1,0,0,1,271.76,185.74Zm68.67,0v2a1.78,1.78,0,0,1-1.3,2H300.49c-.77.07-1.43-.72-1.48-1.76v-2.27a2,2,0,0,1,1.48-2H339c.77-.07,1.43.72,1.48,1.76Zm76,0v2a1.79,1.79,0,0,1-1.29,2H376.48c-.76.07-1.43-.72-1.48-1.76v-2.27a2,2,0,0,1,1.48-2h38.46c.77-.07,1.43.72,1.48,1.76A1,1,0,0,1,416.42,185.74Zm68.12,0v2a1.78,1.78,0,0,1-1.3,2H444.6c-.77.07-1.43-.72-1.48-1.76a1,1,0,0,1,0-.25v-2a1.94,1.94,0,0,1,1.48-2h38.46c.77-.07,1.43.72,1.48,1.76Z" fill="#80888e" opacity="0.3"/><path d="M108.52,303.05h-80c-.95,0-1.66.59-1.66,1.19v1.19c0,.71.71,1.19,1.66,1.19h80c1,0,1.67-.48,1.67-1.19v-1.19C110.19,303.52,109.48,303.05,108.52,303.05Z" fill="#80888e" opacity="0.2"/><path d="M108.52,374.48h-80c-.95,0-1.66.59-1.66,1.19v1.19c0,.71.71,1.19,1.66,1.19h80c1,0,1.67-.48,1.67-1.19v-1.19C110.19,375,109.48,374.48,108.52,374.48Z" fill="#80888e" opacity="0.2"/><path d="M39.89,291.14H97A1.12,1.12,0,0,0,98.23,290v-1.19A1.13,1.13,0,0,0,97,287.57H39.89a1.2,1.2,0,0,0-1.19,1.19V290A1.12,1.12,0,0,0,39.89,291.14Z" fill="#80888e" opacity="0.2"/><path d="M108.52,386h-80c-.95,0-1.66,1.43-1.66,3.34v3.33c0,1.79.71,3.33,1.66,3.33h80c1,0,1.67-1.54,1.67-3.33v-3.33C110.19,387.57,109.48,386,108.52,386Z" fill="#e8e8e8" fill-opacity="0.7"/><path d="M108.52,386h-80c-.95,0-1.66,1.43-1.66,3.34v3.33c0,1.79.71,3.33,1.66,3.33h80c1,0,1.67-1.54,1.67-3.33v-3.33C110.19,387.57,109.48,386,108.52,386Z" fill="#5674b9" opacity="0.75"/><path d="M108.17,315H28.88c-1.07,0-2,.6-2,1.19v1.19c0,.72.95,1.19,2,1.19h79.29c1.07,0,2-.47,2-1.19v-1.19C110.19,315.43,109.24,315,108.17,315Z" fill="#80888e" opacity="0.2"/><path d="M108.76,326.86H28.29a1.33,1.33,0,0,0-1.43,1.19v1.19c0,.71.59,1.19,1.43,1.19h80.47c.84,0,1.43-.48,1.43-1.19v-1.19C110.19,327.33,109.6,326.86,108.76,326.86Z" fill="#80888e" opacity="0.2"/><path d="M29,342.33h78.93c1.19,0,2.14-.47,2.14-1.19V340c0-.71-.95-1.19-2.14-1.19H29c-1.19,0-2.14.6-2.14,1.19v1.19C26.86,341.86,27.81,342.33,29,342.33Z" fill="#80888e" opacity="0.2"/><path d="M108.41,350.67H28.64c-.95,0-1.78.59-1.78,1.19v1.19c0,.71.83,1.19,1.78,1.19h79.77c1,0,1.78-.48,1.78-1.19v-1.19C110.19,351.14,109.36,350.67,108.41,350.67Z" fill="#80888e" opacity="0.2"/><path d="M107.81,362.57H29.24c-1.31,0-2.38.6-2.38,1.19V365c0,.72,1.07,1.19,2.38,1.19h78.57c1.31,0,2.38-.47,2.38-1.19v-1.19C110.19,363.05,109.12,362.57,107.81,362.57Z" fill="#80888e" opacity="0.2"/><path d="M34.62,270.85a12.29,12.29,0,0,0,15.72-3.79A10.29,10.29,0,0,0,48.92,263,4,4,0,0,0,46,261.06a7.65,7.65,0,0,1-10.81.52c-.18-.17-.35-.34-.51-.52A4,4,0,0,0,31.72,263a10.29,10.29,0,0,0-1.42,4.11A12.13,12.13,0,0,0,34.62,270.85Z" fill="#fff"/><path d="M40.35,276.27A16.3,16.3,0,1,0,25.65,267,16.25,16.25,0,0,0,40.35,276.27ZM27.19,265.55A14.28,14.28,0,0,1,45.9,246.84a14.29,14.29,0,0,1,7.6,18.71,14.65,14.65,0,0,1-3,4.56,14.37,14.37,0,0,1-15.68,3.05A14.06,14.06,0,0,1,27.19,265.55Z" fill="#fff"/><path d="M44.68,260.24h0a6.12,6.12,0,0,0-8.24-9.05q-.21.19-.39.39a6.12,6.12,0,1,0,8.66,8.66Z" fill="#fff"/><path d="M34.79,273.16a14.37,14.37,0,0,0,15.68-3.05,14.65,14.65,0,0,0,3-4.56,14.27,14.27,0,1,0-18.71,7.61ZM36,251.58q.18-.2.39-.39a6.12,6.12,0,0,1,8.24,9.05h0A6.12,6.12,0,1,1,36,251.58ZM31.72,263a4,4,0,0,1,2.94-1.89c.16.18.33.35.51.52A7.65,7.65,0,0,0,46,261.06,4,4,0,0,1,48.92,263a10.29,10.29,0,0,1,1.42,4.11,12.26,12.26,0,0,1-20,0A10.29,10.29,0,0,1,31.72,263Z" fill="#80888e" opacity="0.2"/></g></svg>