<svg xmlns="http://www.w3.org/2000/svg" viewBox="0 0 500 500">
  <path fill="#fff" d="M0 0h500v500H0z" data-name="Layer 5"/>
  <g data-name="Envita">
    <path d="M115 110.81H55a16.24 16.24 0 0 1-29.39 0H22a8.9 8.9 0 0 1-1.94 0V250c0 .43.72 0 1.94 0h93c1.16 0 1.94.43 1.94 0V110.81a9.14 9.14 0 0 1-1.94 0zm-76.3 21.81a1.2 1.2 0 0 1 1.19-1.19H97a1.13 1.13 0 0 1 1.19 1.19v1.19A1.12 1.12 0 0 1 97 135H39.89a1.12 1.12 0 0 1-1.19-1.19zm-11.84 51.19c0-.59.95-1.19 2.14-1.19h78.93c1.19 0 2.14.48 2.14 1.19V185c0 .72-.95 1.19-2.14 1.19H29c-1.19 0-2.14-.47-2.14-1.19zm83.33 52.74c0 1.78-.71 3.33-1.67 3.33h-80c-.95 0-1.66-1.55-1.66-3.33v-3.33c0-1.91.71-3.34 1.66-3.34h80c1 0 1.67 1.55 1.67 3.34zm0-15.83c0 .71-.71 1.19-1.67 1.19h-80c-.95 0-1.66-.48-1.66-1.19v-1.19c0-.6.71-1.2 1.66-1.2h80c1 0 1.67.48 1.67 1.2zm0-11.91c0 .72-1.07 1.19-2.38 1.19H29.24c-1.31 0-2.38-.47-2.38-1.19v-1.19c0-.59 1.07-1.19 2.38-1.19h78.57c1.31 0 2.38.48 2.38 1.19zm0-11.9c0 .71-.83 1.19-1.78 1.19H28.64c-.95 0-1.78-.48-1.78-1.19v-1.19c0-.6.83-1.19 1.78-1.19h79.77c1 0 1.78.47 1.78 1.19zm0-23.81c0 .71-.59 1.19-1.43 1.19H28.29c-.84 0-1.43-.48-1.43-1.19v-1.19a1.33 1.33 0 0 1 1.43-1.19h80.47c.84 0 1.43.47 1.43 1.19zm0-11.91c0 .72-1 1.19-2 1.19H28.88c-1.07 0-2-.47-2-1.19V160c0-.59.95-1.19 2-1.19h79.29c1.07 0 2 .48 2 1.19zm0-11.9c0 .71-.71 1.19-1.67 1.19h-80c-.95 0-1.66-.48-1.66-1.19v-1.19c0-.6.71-1.19 1.66-1.19h80c1 0 1.67.47 1.67 1.19z" fill="#5b6369" opacity=".06"/>
    <path d="M115 65H22a5.38 5.38 0 0 0-1.94.17v45.67a8.9 8.9 0 0 0 1.94 0h3.62a16.28 16.28 0 1 1 29.39 0h60a9.14 9.14 0 0 0 1.94 0v-45.7A4.87 4.87 0 0 0 115 65z" fill="#5b6369" opacity=".35"/>
    <path d="M0 40.41h500V12.73H0zm437.68-12.6v-1.48a1.61 1.61 0 0 1 1.48-1.48h38.46a1.39 1.39 0 0 1 1.48 1.29v1.67a1.4 1.4 0 0 1-1.3 1.48h-38.64a1.39 1.39 0 0 1-1.48-1.3.54.54 0 0 1 0-.18zm-53.55 0v-1.48a1.59 1.59 0 0 1 1.48-1.48h38.46a1.39 1.39 0 0 1 1.48 1.29v1.67a1.4 1.4 0 0 1-1.3 1.48h-38.64a1.39 1.39 0 0 1-1.48-1.3.54.54 0 0 1 0-.18zm-53.55 0v-1.48a1.59 1.59 0 0 1 1.48-1.48h38.46a1.39 1.39 0 0 1 1.48 1.29v1.67a1.4 1.4 0 0 1-1.3 1.48h-38.64a1.39 1.39 0 0 1-1.48-1.3.54.54 0 0 1 0-.18zm-53.55 0v-1.48a1.59 1.59 0 0 1 1.48-1.48H317a1.39 1.39 0 0 1 1.48 1.29v1.67a1.4 1.4 0 0 1-1.3 1.48h-38.67A1.39 1.39 0 0 1 277 28a.54.54 0 0 1 0-.19zm-53.56 0v-1.48a1.61 1.61 0 0 1 1.53-1.48h38.47a1.39 1.39 0 0 1 1.47 1.29.6.6 0 0 1 0 .19v1.48a1.38 1.38 0 0 1-1.29 1.48H225a1.4 1.4 0 0 1-1.48-1.3zM37.62 29.23s-.18 0-.54.08a8.92 8.92 0 0 0-4 1.46c-.25.21-.86.81-.21 1.13 1.15.57 4.63-.25 4.71-.27s.12 0 .09.08a10.5 10.5 0 0 1-3.47 1 2.69 2.69 0 0 1-.69-.06A2 2 0 0 1 32 31.24a1.45 1.45 0 0 1 .38-1.34c.83-1 3.13-1.68 4.06-2s1 .19 1 .25a1.87 1.87 0 0 1 .28.82c.02.21-.06.24-.1.26zm24.66-3.33a.73.73 0 1 1-.73.73.73.73 0 0 1 .73-.73zm-11.09.1c0-.13.16-.18.36-.21a2 2 0 0 0 .64-.18c.11-.06.18-.14.23-.12s.07.07.06.14a1.37 1.37 0 0 1-.21.58 1 1 0 0 1-.58.43.46.46 0 0 1-.41-.22.45.45 0 0 1-.09-.42zm-2.56 4.53A10.55 10.55 0 0 1 49.91 28c.06-.1.28-.44.32-.53s0-.11-.07-.14a.1.1 0 0 1 0-.13s.11-.06.28 0a3.21 3.21 0 0 1 .37.21.71.71 0 0 1 .35.62c0 .57-1 1.74-1.29 2.15s-.66 1.15-.56 1.3.15.05.28 0a6.46 6.46 0 0 0 2.29-1.8A9.33 9.33 0 0 1 53 27.9s.08-.12.07-.13-.05 0-.1 0a1.26 1.26 0 0 1-.71-.12.18.18 0 0 1-.09-.16c0-.1.15-.13.22-.13h1a.09.09 0 0 0 .07 0 5.31 5.31 0 0 0 .77-1c.19-.29.63-1 .66-1.07s0-.09 0-.13a.09.09 0 0 1 0-.1A.15.15 0 0 1 55 25a1.42 1.42 0 0 1 .26.17.61.61 0 0 1 .19.48 2 2 0 0 1-.25.85c0 .11-.36.64-.4.71s0 .11 0 .11h1.75c.1 0 .11.05.11.08s0 .08-.16.13a2.13 2.13 0 0 1-.63.14l-1.14.05a.38.38 0 0 0-.24 0 .48.48 0 0 0-.09.14A28.79 28.79 0 0 0 52.71 31c0 .11-.09.38 0 .47s.09.08.26 0a8.14 8.14 0 0 0 2.23-1.64c.08-.08.42-.33.45-.38.63-1.08 2.93-2.88 3.82-3a.71.71 0 0 1 .66.41 5.65 5.65 0 0 1 .3.56.12.12 0 0 1 0 .17.09.09 0 0 1-.14 0l-.13-.1a.54.54 0 0 0-.35-.06 3.12 3.12 0 0 0-.68.24 7.56 7.56 0 0 0-2.43 2.07c-.08.12-.28.43-.17.58s.47-.12.64-.29a19.77 19.77 0 0 1 2.19-1.76.74.74 0 0 1 .78.05.71.71 0 0 1 .19.73c0 .21-.86 1.59-1 1.79s-.15.27 0 .39.22 0 .32-.08S60.94 30 61 29.93s.49-.5.56-.58.12-.11.15-.08 0 .1 0 .17a17.45 17.45 0 0 1-2 2c-.12.11-.45.34-.74.17a.84.84 0 0 1-.42-.67 1.8 1.8 0 0 1 .1-.79c.06-.18.43-.9.46-.95s0-.12 0-.14-.07 0-.25.08c-.74.44-2.23 2.51-2.66 2.72a.74.74 0 0 1-.53 0 1.13 1.13 0 0 1-.63-1 1.68 1.68 0 0 1 .06-.4.32.32 0 0 0 0-.13l-.12.09a10 10 0 0 1-1 1 2.25 2.25 0 0 1-1.22.63 1.22 1.22 0 0 1-1.23-.76 2.24 2.24 0 0 1 0-.93.13.13 0 0 0 0-.09l-.08.05a7.61 7.61 0 0 1-.79.82 2.24 2.24 0 0 1-1.17.66.81.81 0 0 1-.79-.4 1.35 1.35 0 0 1-.07-.87zm-5.88-2.93a.92.92 0 0 1 .38.54 1.79 1.79 0 0 1-.25 1.21c-.05.1-.62 1.11-.69 1.25s-.31.68-.15.79.29 0 .43-.12a21.37 21.37 0 0 0 1.71-1.53c.12-.12.55-1.2.84-1.73.08-.15 0-.19-.05-.26s0-.17.11-.15a2.51 2.51 0 0 1 .34.11 1.17 1.17 0 0 1 .66.56 1.45 1.45 0 0 1-.13.89c-.11.25-.88 1.45-1 1.72 0 .1-.08.32 0 .41.27.26 1.53-.95 1.87-1.31a3 3 0 0 0 .93-2.63 4.67 4.67 0 0 0-.21-.63h.08a1.79 1.79 0 0 1 .86 1.1 2.71 2.71 0 0 1-.91 2.2 10.82 10.82 0 0 1-1.47 1.18 3.34 3.34 0 0 1-1.14.54.93.93 0 0 1-1-.72c0-.28.13-.65.06-.73s-.06 0-.09 0-1.29 1.59-2 1.54a1 1 0 0 1-.89-1 1.91 1.91 0 0 1 .11-.79 4.4 4.4 0 0 1 .34-.73c.15-.26.31-.56.43-.78s.11-.36 0-.41-.26 0-.4.12-.58.46-.76.61a15.75 15.75 0 0 0-2.29 2.6c0 .11-.09.2-.16.21s-.15 0-.24-.1a1 1 0 0 1-.27-.42c-.23-.74 1.28-2.8 1.71-3.39A3.41 3.41 0 0 0 40 27a.18.18 0 0 0-.1-.18.09.09 0 0 1 .09-.15 2 2 0 0 1 .36.17c.52.39.26 1 .17 1.23a5 5 0 0 1-.57.93c-.12.15-.33.41-.27.47s.1 0 .16-.06.29-.27.55-.5a13.72 13.72 0 0 1 1.52-1.24c.49-.3.76-.11.84-.07zm-19.11 0c.29-3.46 2.26-10.38 9.88-11.23 0 0-1.06.42-.46 3.15.37 1.72.92 3.71.89 3.75s-2.59 1.08-2.21 2.6A1.67 1.67 0 0 0 33.11 27a1.45 1.45 0 0 1-1-1.24c0-.2-.07-.68.73-1.35 2-1.67 6.72-2.5 6.93-2.52a2.45 2.45 0 0 1 1.13 0 1.74 1.74 0 0 1 .73 1.14 1.55 1.55 0 0 1-.22 1.28.71.71 0 0 1-.43.33c-.09 0-.1-.1 0-.16a.85.85 0 0 0 .24-.3c0-.08.07-.29-.33-.34a8.72 8.72 0 0 0-2.3.18 24.5 24.5 0 0 0-3.92 1.06l-.45.19a10.21 10.21 0 0 1-.11 1.31 3.59 3.59 0 0 1-1.19-.18c.14.3.75.43 1.41.41a4.42 4.42 0 0 1 1.31.09c0 .07-.75.19-.82.2a4.65 4.65 0 0 1-.83 0v.22c-.42.24-3.86 1.62-1.62 3.68a18.25 18.25 0 0 1-4.31 4c-1 .71-2.25 1.5-2.94 2 0 0 .37-2.9 3.23-7.07 1-1.46 3.34-5.83 4.57-7.12 0 0-1.74.52-3.72 4.05 0 0 1.8-3.92-1.34-5.76 0 0 2.51 3-.66 8.1a40.27 40.27 0 0 1-7 8.81s2.8-2.66 3.44-10.41z" fill="#2a51a3" opacity=".75"/>
    <path d="M250.56 64.86h-117a2.42 2.42 0 0 0-2.49 1.48v5.92c0 .88 1.11 1.47 2.49 1.47h117c1.36 0 2.49-.59 2.49-1.47v-5.92c0-.89-1.11-1.48-2.49-1.48zM314.62 247.61H134.88c-2.07 0-3.59.74-3.82 1.48V255c0 .89 1.71 1.48 3.82 1.48h179.74c2.09 0 3.83-.59 3.83-1.48v-5.91c0-.89-1.71-1.48-3.83-1.48z" fill="#5674b9" opacity=".75"/>
    <path d="M470.6 91.4H138.16c-3.86 0-6.75.74-7.08 1.48v1.48c0 .89 3.22 1.48 7.08 1.48H470.6c3.86 0 7.08-.59 7.08-1.48v-1.48c0-.88-3.22-1.48-7.08-1.48z" fill="#5b6369" opacity=".35"/>
    <path d="M127.3 5c-3 0-5.17.74-5.42 1.48V8c0 .89 2.47 1.48 5.42 1.48h254.86c3 0 5.43-.59 5.43-1.48V6.48c0-.89-2.47-1.48-5.43-1.48z" fill="#5674b9" opacity=".75"/>
    <path d="M138.16 108.24H470.6c3.86 0 7.08-.59 7.08-1.48v-1.48c0-.89-3.22-1.48-7.08-1.48H138.16c-3.86 0-6.75.74-7.08 1.48v1.48c0 .89 3.22 1.48 7.08 1.48zM477.68 119.17v-1.48c0-.89-3.22-1.48-7.08-1.48H138.16c-3.86 0-6.75.74-7.08 1.48v1.48c0 .89 3.22 1.48 7.08 1.48H470.6c3.86 0 7.08-.59 7.08-1.48zM137.87 128.62c-3.71 0-6.48.8-6.79 1.48v1.48c0 .89 3.08 1.48 6.79 1.48H457c3.7 0 6.79-.59 6.79-1.48v-1.48c0-.89-3.09-1.48-6.79-1.48zM131 144c0 .89 2.76 1.48 6.08 1.48h286.19c3.32 0 6.07-.59 6.07-1.48v-1.48c0-.88-2.75-1.48-6.07-1.48H137.08c-3.22 0-5.79.74-6.08 1.48zM470.6 164.84H138.16c-3.86 0-6.75.74-7.08 1.48v1.48c0 .88 3.22 1.48 7.08 1.48H470.6c3.86 0 7.08-.6 7.08-1.48v-1.48c0-.89-3.22-1.48-7.08-1.48zM138.16 181.67H470.6c3.86 0 7.08-.59 7.08-1.48v-1.48c0-.88-3.22-1.48-7.08-1.48H138.16c-3.86 0-6.75.74-7.08 1.48v1.48c0 .89 3.22 1.48 7.08 1.48zM477.68 192.6v-1.48c0-.88-3.22-1.48-7.08-1.48H138.16c-3.86 0-6.75.74-7.08 1.48v1.48c0 .89 3.22 1.48 7.08 1.48H470.6c3.86 0 7.08-.59 7.08-1.48zM137.87 202.06c-3.71 0-6.48.79-6.79 1.48V205c0 .89 3.08 1.48 6.79 1.48H457c3.7 0 6.79-.59 6.79-1.48v-1.47c0-.89-3.09-1.48-6.79-1.48zM131 217.43c0 .88 2.76 1.48 6.08 1.48h286.19c3.32 0 6.07-.6 6.07-1.48V216c0-.89-2.75-1.48-6.07-1.48H137.08c-3.22 0-5.79.74-6.08 1.48zM470.6 272.79H138.16c-3.86 0-6.75.74-7.08 1.48v1.48c0 .88 3.22 1.48 7.08 1.48H470.6c3.86 0 7.08-.6 7.08-1.48v-1.48c0-.89-3.22-1.48-7.08-1.48zM138.16 289.62H470.6c3.86 0 7.08-.59 7.08-1.48v-1.48c0-.88-3.22-1.47-7.08-1.47H138.16c-3.86 0-6.75.73-7.08 1.47v1.48c0 .86 3.22 1.48 7.08 1.48zM477.68 300.55v-1.47c0-.89-3.22-1.48-7.08-1.48H138.16c-3.86 0-6.75.74-7.08 1.48v1.47c0 .89 3.22 1.48 7.08 1.48H470.6c3.86-.03 7.08-.59 7.08-1.48zM137.87 310c-3.71 0-6.48.8-6.79 1.48V313c0 .88 3.08 1.48 6.79 1.48H457c3.7 0 6.79-.6 6.79-1.48v-1.48c0-.89-3.09-1.48-6.79-1.48zM131 325.38c0 .88 2.76 1.48 6.08 1.48h286.19c3.32 0 6.07-.6 6.07-1.48v-1.48c0-.89-2.75-1.48-6.07-1.48H137.08c-3.22 0-5.79.74-6.08 1.48z" fill="#5b6369" opacity=".35"/>
    <path d="M108.52 146.91h-80c-.95 0-1.66.59-1.66 1.19v1.19c0 .71.71 1.19 1.66 1.19h80c1 0 1.67-.48 1.67-1.19v-1.19c0-.72-.71-1.19-1.67-1.19zM108.52 218.33h-80c-.95 0-1.66.6-1.66 1.2v1.19c0 .71.71 1.19 1.66 1.19h80c1 0 1.67-.48 1.67-1.19v-1.19c0-.72-.71-1.2-1.67-1.2zM39.89 135H97a1.12 1.12 0 0 0 1.19-1.19v-1.19a1.13 1.13 0 0 0-1.19-1.19H39.89a1.2 1.2 0 0 0-1.19 1.19v1.19a1.12 1.12 0 0 0 1.19 1.19z" fill="#5b6369" opacity=".5"/>
    <path d="M39.89 236.67H97a1.13 1.13 0 0 0 1.19-1.19v-1.19A1.12 1.12 0 0 0 97 233.1H39.89a1.19 1.19 0 0 0-1.19 1.19v1.19a1.13 1.13 0 0 0 1.19 1.19z" fill="#fff" opacity=".5"/>
    <path d="M108.52 229.88h-80c-.95 0-1.66 1.43-1.66 3.34v3.33c0 1.78.71 3.33 1.66 3.33h80c1 0 1.67-1.55 1.67-3.33v-3.33c0-1.79-.71-3.34-1.67-3.34z" fill="#e8e8e8" fill-opacity=".7"/>
    <path d="M108.52 229.88h-80c-.95 0-1.66 1.43-1.66 3.34v3.33c0 1.78.71 3.33 1.66 3.33h80c1 0 1.67-1.55 1.67-3.33v-3.33c0-1.79-.71-3.34-1.67-3.34z" fill="#5674b9" opacity=".75"/>
    <path d="M108.17 158.81H28.88c-1.07 0-2 .6-2 1.19v1.19c0 .72.95 1.19 2 1.19h79.29c1.07 0 2-.47 2-1.19V160c.02-.71-.93-1.19-2-1.19zM108.76 170.72H28.29a1.33 1.33 0 0 0-1.43 1.19v1.19c0 .71.59 1.19 1.43 1.19h80.47c.84 0 1.43-.48 1.43-1.19v-1.19c0-.72-.59-1.19-1.43-1.19zM29 186.19h78.93c1.19 0 2.14-.47 2.14-1.19v-1.19c0-.71-.95-1.19-2.14-1.19H29c-1.19 0-2.14.6-2.14 1.19V185c0 .72.95 1.19 2.14 1.19zM108.41 194.53H28.64c-.95 0-1.78.59-1.78 1.19v1.19c0 .71.83 1.19 1.78 1.19h79.77c1 0 1.78-.48 1.78-1.19v-1.19c0-.72-.83-1.19-1.78-1.19zM107.81 206.43H29.24c-1.31 0-2.38.6-2.38 1.19v1.19c0 .72 1.07 1.19 2.38 1.19h78.57c1.31 0 2.38-.47 2.38-1.19v-1.19c0-.71-1.07-1.19-2.38-1.19z" fill="#5b6369" opacity=".5"/>
    <path d="M34.62 114.71a12.29 12.29 0 0 0 15.72-3.79 10.23 10.23 0 0 0-1.42-4.11 4 4 0 0 0-2.92-1.89 7.65 7.65 0 0 1-10.81.52c-.18-.17-.35-.34-.51-.52a4 4 0 0 0-2.94 1.89 10.23 10.23 0 0 0-1.42 4.11 12.13 12.13 0 0 0 4.3 3.79z" fill="#fff"/>
    <path d="M40.35 120.13a16.3 16.3 0 1 0-14.7-9.32 16.25 16.25 0 0 0 14.7 9.32zM27.19 109.4a14.28 14.28 0 1 1 26.31 0 14.58 14.58 0 0 1-3 4.57 14.37 14.37 0 0 1-15.68 3 14.05 14.05 0 0 1-7.63-7.57z" fill="#fff"/>
    <path d="M44.68 104.1a6.12 6.12 0 0 0-8.24-9l-.39.39a6.12 6.12 0 0 0 8.66 8.66z" fill="#fff"/>
    <path d="M34.79 117a14.37 14.37 0 0 0 15.68-3 14.58 14.58 0 0 0 3-4.57A14.27 14.27 0 1 0 34.79 117zM36 95.44l.39-.39a6.12 6.12 0 0 1 8.24 9A6.12 6.12 0 0 1 36 95.44zm-4.3 11.37a4 4 0 0 1 2.94-1.89c.16.18.33.35.51.52a7.65 7.65 0 0 0 10.85-.52 4 4 0 0 1 2.94 1.89 10.23 10.23 0 0 1 1.42 4.11 12.26 12.26 0 0 1-20 0 10.23 10.23 0 0 1 1.36-4.11z" fill="#5b6369" opacity=".5"/>
    <path fill="#5b6369" opacity=".35" d="M131.08 351h346.61v149H131.08z"/>
    <path d="M275.87 440.5v-23.88a6.2 6.2 0 0 1 2.55-4.87 5.26 5.26 0 0 1 5.33 0l44.11 22.73s5.05 2.23 5.05 6.48c0 4-5.05 6.15-5.05 6.15L283.75 470s-2.92 1.65-5.33.81c-2.94-1-2.55-5.33-2.55-5.33z" fill="#fff" data-name="c57a05da-a12d-4341-84b0-9e5a58be08dd"/>
  </g>
</svg>
