<svg id="49bb100b-1cd3-4086-ab8d-f224bb1b9f6c" data-name="2d3eef0f-3d8d-47d7-a59c-d93790e667b2" xmlns="http://www.w3.org/2000/svg" viewBox="0 0 918.55 464"><title>envita-logo</title><path d="M316.1,169.26s-30.3,14.6-34.6,30.5c-7.6,28.2,24.9,30.2,39.3,30.4C320.8,230.16,328.4,186.16,316.1,169.26Z" transform="translate(-23.1 -11.16)" fill="#339946"/><path d="M271.4,213.76c-8-32.6,45-53.1,47.1-55.5.8-.8-11-43.3-19-80-12.7-58.3,10-67.1,10-67.1-162.6,18-204.5,165.7-210.7,239.5-13.7,165.2-75.7,224.5-75.7,224.5,43.9-41.1,87.3-88.8,149.4-187.9,67.7-107.8,14.2-172.6,14.2-172.6,66.9,39.2,28.5,122.8,28.5,122.8,42.3-75.4,79.3-86.4,79.3-86.4-26.1,27.5-76.2,120.7-97.5,151.8-60.8,88.8-68.7,150.8-68.7,150.8,14.6-10.8,41.1-27.5,62.7-42.7,63.2-44.4,91.9-86.5,91.9-86.5-47.6-43.8,25.6-73.3,34.6-78.4,1-.6.4-6.1.4-6.1S278.2,241.76,271.4,213.76Zm-4.5-78.4c-1.3,5.7-7.5,22.5-20,19.6-11.1-2.6-10.5-15.9-10-21.2.6-6.7,6.6-28,22.3-23.8C269.2,112.66,268.4,128.46,266.9,135.36Z" transform="translate(-23.1 -11.16)" fill="#339946"/><path d="M467.9,188.66s4.7-.5,9.2-6.9c5-7,7.1-17.2,4.6-27.4-2.4-9.8-8.1-21-15.6-24.2-8.3-3.6-20.6-1.2-24.1-.9-4.6.5-105.7,18.2-147.8,53.6-17.1,14.4-16.1,24.5-15.6,28.8,3,23.6,24.6,32.5,57.1,29.4,1.5-.1,17.7-2.7,17.5-4.3-.1-.9-12.3-2-27.9-1.7s-30-3-30.9-11c-1-9,24.4-20.9,38.2-26,17.9-6.5,50.6-17.2,83.5-22.8,19.9-3.4,36.8-5.3,49-3.7,8.6,1.1,8,5.5,7.1,7.4a18.25,18.25,0,0,1-5,6.2C465.8,186.46,466.1,188.66,467.9,188.66Z" transform="translate(-23.1 -11.16)" fill="#1b3967"/><path d="M393.4,241.76c-1-1.3-4.4-10.8-22.3-5.4-19.7,6-68.8,19.6-86.5,41.9-12.2,15.4-8.6,26.2-8.1,28.4a46.66,46.66,0,0,0,10,17.5,47.2,47.2,0,0,0,22.2,12.6,62.46,62.46,0,0,0,14.6,1.4c23.1-.3,72.3-18.5,74.1-21.3.6-1-.2-2.1-1.9-1.7-1.9.4-76,17.9-100.5,5.8-13.8-6.8-.8-19.6,4.4-24.2,18.9-16.7,54.4-25.4,85.9-31.1,7.8-1.4,10.6-1.4,11.5-1.7s2.6-1,2.5-4.6C399.2,255.46,396.4,246.06,393.4,241.76Z" transform="translate(-23.1 -11.16)" fill="#1b3967"/><path d="M454.2,213.16c-1.4-1.1-5.8-2.9-7.6-3.6-2.2-.8-3.8,1.8-1.9,3.2,1.6,1.1,2.2,2.2,2,3.9-.3,3.3-7.1,13.1-10.1,17.3-9.2,12.7-41.4,56.4-36.4,72.4a18.46,18.46,0,0,0,5.8,8.9c1.9,1.6,3.6,2.5,5,2.2s2.5-2.2,3.5-4.5c6.7-15.2,45-52,48.9-55.5,3.6-3.3,13-11,16-13s7-4,8.7-2.6c1.3,1.1,1.3,3.8-1.2,8.6s-5.9,11.3-9.1,16.8a133.77,133.77,0,0,0-7.4,15.4,44.06,44.06,0,0,0-2.3,17c.6,13.7,13.1,19.9,19,20.3,15.9,1.1,42.2-31.7,43.5-32.7.6-.5,1.2-1.3,1.9-.6,1.6,1.7-2.2,9.5-1.3,15.5,2.1,14.8,17.7,15.9,22.3,15.4,6.3-.6,16.7-6.7,24.2-11.5a248.42,248.42,0,0,0,32.2-25.9c12.2-12,22-29.6,19.3-46.9-2.2-14-16.9-23-18.3-23.5-1.2-.4-1.7-.1-1.7.7s3.3,6.5,4.6,13.4c2.8,15.1-1,36.1-19.8,56.1-7.3,7.7-34.3,33.4-39.8,27.8-1.9-1.9-1.1-6.5-.3-8.8,1.9-5.6,18.3-31.3,20.6-36.6,1-2.2,5.3-12.4,2.9-19s-11.1-10.8-14.1-12a49.17,49.17,0,0,0-7.4-2.2c-2.2-.5-3.6,1.8-2.2,3.2,1.6,1.5,2.8,2.3,1,5.5-6.2,11.2-15.3,34.3-17.9,36.9-11.6,12-32.4,29.6-36.4,32.7-3.2,2.4-6.8,4.2-9.2,2.5-3.6-2.4,1.4-13.7,3.1-17,1.6-3,13.7-24.4,14.7-26.5s8.4-14.3,5.5-26a21.15,21.15,0,0,0-8.1-11.5c-1.9-.9-7.4-4.8-18.9,1.7-9.6,5.5-26.2,21-32.4,26.5-5.6,4.9-8.3,7.9-11.8,10.5-1.2.9-2.5,2-3.3,1.3-1.3-1.2,3.1-6.8,5.7-9.9,3-3.7,9.7-13.6,12.2-19.8C459.9,234.46,465.3,221.56,454.2,213.16Z" transform="translate(-23.1 -11.16)" fill="#1b3967"/><path d="M733.3,223.86c-.5.1-19.8-.3-21-.3-1.4,0-4.4.6-4.6,2.9-.2,1.8.7,2.6,1.9,3.4,1.7,1.2,5.6,2.6,15.2,2.6.9,0,2.2-.1,2.1.3.1.4-.8,1.9-1.6,2.9-2.3,2.9-18.5,22.1-25.1,37.3-1.4,3.1-15.4,17-26.6,25.2a122.75,122.75,0,0,1-22.4,13.1c-2.6,1.2-4.7,1.3-5.8.2-2.3-3.1,4.8-17.8,11.8-27.8,6.1-8.7,28.2-33.6,27.5-45.8-.5-8.2-4.4-11.1-7.4-13.1a67.07,67.07,0,0,0-8-4.5c-3.5-1.6-5.4-1.1-5.9-.2a2,2,0,0,0,.9,2.6c1.1.8,2.2,1,1.4,3s-5.4,9.2-6.8,11.2-25.5,40.1-27.2,54.7c-1.1,9.1.7,13.6,2.7,18.2,2.8,6.4,12,9.3,16.9,8.5,2.1-.3,12-2.1,24.9-14.2s16-16.4,17-17.4,1.3-1.1,1.6-1,.3,1,.1,1.8-2.9,13-.3,19.9c6.6,17.3,24.3,16.3,26.2,16.2s12.5-1.7,26-13.5,15.9-14.8,21.7-21.1c2.1-2.3,2.5-1.9,2.5-1.9a10.2,10.2,0,0,1-.6,2.9,32.09,32.09,0,0,0-1.4,8.4c.1,12,9,18.9,13.4,21.1,3.4,1.7,8.9,1.2,11.5-.1,9.2-4.3,40.9-48.5,56.7-58,3.7-2.2,4.7-2.1,5.3-1.7s.6,1.5,0,2.9c-.5,1.2-8.4,16.4-9.8,20.3-1.8,5.1-2.8,12-2.1,16.9.6,4.2,1.9,10.3,8.9,14.3,6.2,3.6,13.3-1.4,15.9-3.6,9.1-7.6,37.7-35.3,42-42.2,1-1.6,1.2-3.2.6-3.7s-1.7-.2-3.2,1.8c-1.4,1.8-10,10.6-12,12.4s-24.7,23.7-29.5,27.8c-2.1,1.8-5.2,3.6-6.9,1.8-2.3-2.5-.2-6.3.8-8.3,2.1-4.2,19.4-33.7,20.6-38.1.9-3.4,1.4-10.6-4.2-15.6s-13.2-2.6-16.7-1c-7.9,3.8-42.8,33.5-46.7,37.5-3.6,3.7-10.6,10-13.5,6.1-2.3-3.1,1.8-9.7,3.4-12.4,10.3-16.2,39.5-38.4,52-44.1a67.19,67.19,0,0,1,14.5-5,10.66,10.66,0,0,1,7.5,1.3,17.66,17.66,0,0,1,2.6,2.2c.3.2,1.7,1.8,3.1.6s.6-3,.2-3.7-4.4-9.2-6.4-12c-2.1-3.1-6.1-9.2-14.1-8.6-19,1.6-68,40-81.6,63.1-.6,1-7.8,6.3-9.4,8-2.4,2.5-31.9,31-47.5,35-3.7,1-4.8-.1-5.6-.9-1.8-1.8-.7-7.6,0-9.9,4.5-14.4,34.7-64.7,35.5-66.1a15.13,15.13,0,0,1,2-2.9c.6-.6,2.3-1.1,5-1.2,3,0,22.3-.9,24.4-1,2.4-.1,9.8-1.1,13.4-2.9,2.5-1.2,3.3-2,3.4-2.9,0-.6-.3-1.6-2.4-1.7s-18.2-.1-21-.2-15.6-.4-15.9-.4.3-1.6.8-2.5c.8-1.3,7.5-12.7,8.6-15.1,1.5-3.2,5.6-11.2,5.2-18.1s-2.5-8.7-4-10.2a19.81,19.81,0,0,0-5.5-3.6c-1.2-.4-2.6-.4-3.3.4a1.65,1.65,0,0,0,0,2.2,2.79,2.79,0,0,1,.3,2.8c-.5,1.7-9.9,16.4-14.1,22.7-3,4.5-10.9,17.2-16.4,21.5-.6.5-1.3.3-1.8.4" transform="translate(-23.1 -11.16)" fill="#1b3967"/><path d="M688.2,204.16c1.7,2.2,4.4,4.8,8.7,4.5,4-.3,9.3-4.4,12.5-9.1a28.09,28.09,0,0,0,4.4-12.4c.1-1.5,0-2.7-1.3-3.1-1-.2-2.5,1.4-4.8,2.6a41.81,41.81,0,0,1-13.7,3.9c-4.3.5-6.8,1.7-7.7,4.4S685.9,201.26,688.2,204.16Z" transform="translate(-23.1 -11.16)" fill="#1b3967"/><path d="M926.05,209.71a3,3,0,0,0-.34-.29,5.08,5.08,0,0,0,2.65-1.5,4.82,4.82,0,0,0,1.35-3.45,5.31,5.31,0,0,0-.78-2.87,4.62,4.62,0,0,0-2.25-1.9,11.21,11.21,0,0,0-3.78-.53h-8.3v18.5h3.3v-7.8h2.2a4.36,4.36,0,0,1,1.18.08,3.17,3.17,0,0,1,.92.42,4.35,4.35,0,0,1,1.15,1.15,14,14,0,0,1,1.54,2.17l2.54,4h4.08L928,212.08A11.59,11.59,0,0,0,926.05,209.71Zm-.08-4a2.1,2.1,0,0,1-1.13.88,7.68,7.68,0,0,1-2.34.27h-4.4v-4.8h5a4.12,4.12,0,0,1,2.58.68,2,2,0,0,1,.72,1.62A2.5,2.5,0,0,1,926,205.7Z" transform="translate(-23.1 -11.16)" fill="#1b3967"/><path d="M921.9,188.61a19.75,19.75,0,1,0,19.75,19.75A19.77,19.77,0,0,0,921.9,188.61Zm0,36a16.25,16.25,0,1,1,16.25-16.25A16.27,16.27,0,0,1,921.9,224.61Z" transform="translate(-23.1 -11.16)" fill="#1b3967"/></svg>