<svg xmlns="http://www.w3.org/2000/svg" viewBox="0 0 500 500">
  <path fill="#fff" d="M0 0h500v500H0z" data-name="Layer 5"/>
  <g data-name="Forum">
    <path fill="#d6dde6" opacity=".65" d="M0 0h500v38.6H0z"/>
    <rect x="357.21" y="53.33" width="117.86" height="67.57" rx="4.23" ry="4.23" fill="#d6dde6" opacity=".65"/>
    <rect x="24.92" y="53.33" width="316.62" height="96.5" rx="8.29" ry="8.29" fill="#d6dde6" opacity=".65"/>
    <rect x="24.92" y="165.85" width="316.62" height="96.5" rx="8.29" ry="8.29" fill="#d6dde6" opacity=".65"/>
    <rect x="24.92" y="278.36" width="316.62" height="96.5" rx="8.29" ry="8.29" fill="#d6dde6" opacity=".65"/>
    <rect x="24.92" y="390.87" width="316.62" height="96.5" rx="8.29" ry="8.29" fill="#d6dde6" opacity=".65"/>
    <rect x="357.21" y="136.18" width="117.86" height="143" rx="6.16" ry="6.16" fill="#d6dde6" opacity=".65"/>
    <path d="M26.12 16.21h56c.65 0 1.19.82 1.19 2.06v2.06c0 1.24-.54 2.06-1.19 2.06h-56c-.65 0-1.2-.82-1.2-2.06v-2.06c.08-1.03.55-2.06 1.2-2.06zM94.93 17.51h33.58c.39 0 .71.47.71 1.19v1.2c0 .72-.32 1.19-.71 1.19H94.93c-.39 0-.71-.47-.71-1.19v-1.2c.03-.6.32-1.19.71-1.19zM35.79 62.33h56c.65 0 1.19.83 1.19 2.07v2.06c0 1.23-.54 2.06-1.19 2.06h-56c-.65 0-1.19-.83-1.19-2.06V64.4c.05-1.04.54-2.07 1.19-2.07zM35.29 77.67h32.47c.38 0 .7.48.7 1.19v1.2c0 .72-.32 1.19-.7 1.19H35.29c-.38 0-.69-.47-.69-1.19v-1.2c.03-.6.31-1.19.69-1.19zM35.29 134.14h32.47c.38 0 .7.48.7 1.19v1.2c0 .72-.32 1.2-.7 1.2H35.29c-.38 0-.69-.48-.69-1.2v-1.2c.03-.59.31-1.19.69-1.19zM35.29 100.43H291.2c.38 0 .69.48.69 1.2v1.19c0 .72-.31 1.2-.69 1.2H35.29c-.38 0-.69-.48-.69-1.2v-1.19c.03-.63.31-1.2.69-1.2zM35.29 113.18h225c.37 0 .69.48.69 1.2v1.19c0 .72-.32 1.2-.69 1.2h-225c-.38 0-.69-.48-.69-1.2v-1.19c.03-.6.31-1.2.69-1.2zM35.79 176.4h56c.65 0 1.19.82 1.19 2.06v2.06c0 1.24-.54 2.06-1.19 2.06h-56c-.65 0-1.19-.82-1.19-2.06v-2.06c.05-1.03.54-2.06 1.19-2.06zM35.29 191.73h32.47c.38 0 .7.48.7 1.2v1.19c0 .72-.32 1.2-.7 1.2H35.29c-.38 0-.69-.48-.69-1.2v-1.19c.03-.6.31-1.2.69-1.2zM35.29 248.2h32.47c.38 0 .7.48.7 1.2v1.19c0 .72-.32 1.2-.7 1.2H35.29c-.38 0-.69-.48-.69-1.2v-1.19c.03-.6.31-1.2.69-1.2zM35.29 214.49H291.2c.38 0 .69.48.69 1.2v1.2c0 .71-.31 1.19-.69 1.19H35.29c-.38 0-.69-.48-.69-1.19v-1.2c.03-.6.31-1.2.69-1.2zM35.29 227.25h225c.37 0 .69.47.69 1.19v1.2c0 .72-.32 1.19-.69 1.19h-225c-.38 0-.69-.47-.69-1.19v-1.2c.03-.6.31-1.19.69-1.19zM35.79 288.91h56c.65 0 1.19.83 1.19 2.06V293c0 1.23-.54 2.06-1.19 2.06h-56c-.65 0-1.19-.83-1.19-2.06v-2c.05-1.06.54-2.09 1.19-2.09zM35.29 304.24h32.47c.38 0 .7.48.7 1.2v1.2c0 .71-.32 1.19-.7 1.19H35.29c-.38 0-.69-.48-.69-1.19v-1.2c.03-.6.31-1.2.69-1.2zM35.29 360.72h32.47c.38 0 .7.47.7 1.19v1.2c0 .72-.32 1.19-.7 1.19H35.29c-.38 0-.69-.47-.69-1.19v-1.2c.03-.6.31-1.19.69-1.19zM35.29 327H291.2c.38 0 .69.48.69 1.19v1.2c0 .72-.31 1.2-.69 1.2H35.29c-.38 0-.69-.48-.69-1.2v-1.2c.03-.58.31-1.19.69-1.19zM35.29 339.76h225c.37 0 .69.48.69 1.2v1.19c0 .72-.32 1.2-.69 1.2h-225c-.38 0-.69-.48-.69-1.2V341c.03-.64.31-1.24.69-1.24zM35.79 401.42h56c.65 0 1.19.83 1.19 2.07v2.06c0 1.24-.54 2.06-1.19 2.06h-56c-.65 0-1.19-.82-1.19-2.06v-2.06c.05-1.03.54-2.07 1.19-2.07zM35.29 416.76h32.47c.38 0 .7.48.7 1.19v1.2c0 .72-.32 1.2-.7 1.2H35.29c-.38 0-.69-.48-.69-1.2V418c.03-.64.31-1.24.69-1.24zM35.29 473.23h32.47c.38 0 .7.48.7 1.19v1.2c0 .72-.32 1.2-.7 1.2H35.29c-.38 0-.69-.48-.69-1.2v-1.2c.03-.59.31-1.19.69-1.19zM35.29 439.52H291.2c.38 0 .69.48.69 1.2v1.19c0 .72-.31 1.2-.69 1.2H35.29c-.38 0-.69-.48-.69-1.2v-1.19c.03-.6.31-1.2.69-1.2zM35.29 452.27h225c.37 0 .69.48.69 1.2v1.19c0 .72-.32 1.2-.69 1.2h-225c-.38 0-.69-.48-.69-1.2v-1.19c.03-.6.31-1.2.69-1.2zM141.37 17.51H175c.39 0 .71.47.71 1.19v1.2c0 .72-.32 1.19-.71 1.19h-33.63c-.39 0-.71-.47-.71-1.19v-1.2c.03-.6.34-1.19.71-1.19zM187.81 17.51h33.58c.39 0 .71.47.71 1.19v1.2c0 .72-.32 1.19-.71 1.19h-33.58c-.39 0-.71-.47-.71-1.19v-1.2c.03-.6.32-1.19.71-1.19zM234.25 17.51h33.58c.39 0 .71.47.71 1.19v1.2c0 .72-.32 1.19-.71 1.19h-33.58c-.38 0-.71-.47-.71-1.19v-1.2c.03-.6.33-1.19.71-1.19zM367.86 62.33h57.89c.68 0 1.24.83 1.24 2.07v2.06c0 1.23-.56 2.06-1.24 2.06h-57.89c-.67 0-1.23-.83-1.23-2.06V64.4c.06-1.04.56-2.07 1.23-2.07z" fill="#778ca6" opacity=".75"/>
    <path d="M367.94 78.31h96.41c1.12 0 2 1.49 2 3.73v3.73c0 2.24-.93 3.73-2 3.73h-96.41c-1.12 0-2.05-1.49-2.05-3.73V82c.11-1.82.93-3.69 2.05-3.69zM367.94 98.42h96.41c1.12 0 2 1.5 2 3.73v3.73c0 2.24-.93 3.73-2 3.73h-96.41c-1.12 0-2.05-1.49-2.05-3.73v-3.73c.11-1.86.93-3.73 2.05-3.73z" fill="#fff"/>
    <path d="M369.44 145.92h57.89c.68 0 1.24.83 1.24 2.07v2.06c0 1.24-.56 2.06-1.24 2.06h-57.89c-.67 0-1.23-.82-1.23-2.06V148c.06-1 .56-2.08 1.23-2.08zM368 165.88h97.74c.36 0 .66.47.66 1.19v1.2c0 .71-.3 1.19-.66 1.19H368c-.36 0-.66-.48-.66-1.19v-1.2c.03-.6.3-1.19.66-1.19zM368 178.63h68.28c.35 0 .65.48.65 1.19V181c0 .72-.3 1.19-.65 1.19H368c-.36 0-.66-.47-.66-1.19v-1.2c.03-.58.3-1.17.66-1.17zM368 196h97.74c.36 0 .66.48.66 1.2v1.19c0 .72-.3 1.2-.66 1.2H368c-.36 0-.66-.48-.66-1.2v-1.19c.03-.57.3-1.2.66-1.2zM368 208.78h68.28c.35 0 .65.48.65 1.2v1.19c0 .72-.3 1.2-.65 1.2H368c-.36 0-.66-.48-.66-1.2V210c.03-.62.3-1.22.66-1.22zM368 226.19h97.74c.36 0 .66.48.66 1.19v1.2c0 .72-.3 1.2-.66 1.2H368c-.36 0-.66-.48-.66-1.2v-1.2c.03-.59.3-1.19.66-1.19zM368 238.94h68.28c.35 0 .65.48.65 1.2v1.19c0 .72-.3 1.2-.65 1.2H368c-.36 0-.66-.48-.66-1.2v-1.19c.03-.6.3-1.2.66-1.2zM368 251.69h97.74c.36 0 .66.48.66 1.2v1.19c0 .72-.3 1.2-.66 1.2H368c-.36 0-.66-.48-.66-1.2v-1.19c.03-.6.3-1.2.66-1.2zM368 264.44h68.28c.35 0 .65.48.65 1.2v1.19c0 .72-.3 1.2-.65 1.2H368c-.36 0-.66-.48-.66-1.2v-1.19c.03-.64.3-1.2.66-1.2z" fill="#778ca6" opacity=".75"/>
  </g>
</svg>
