<svg xmlns="http://www.w3.org/2000/svg" viewBox="0 0 500 500"><title>forum</title><g id="efa7abd2-6a10-42b3-b077-b810aab2bd93" data-name="Layer 5"><rect width="500" height="500" fill="#fff"/></g><g id="ace8e7e9-0869-4f76-96e6-b716cd148ee9" data-name="Forum"><rect width="500" height="38.6" fill="#d6dde6" opacity="0.65"/><rect x="357.21" y="53.33" width="117.86" height="67.57" rx="4.23" ry="4.23" fill="#d6dde6" opacity="0.65"/><rect x="24.92" y="53.33" width="316.62" height="96.5" rx="8.29" ry="8.29" fill="#d6dde6" opacity="0.65"/><rect x="24.92" y="165.85" width="316.62" height="96.5" rx="8.29" ry="8.29" fill="#d6dde6" opacity="0.65"/><rect x="24.92" y="278.36" width="316.62" height="96.5" rx="8.29" ry="8.29" fill="#d6dde6" opacity="0.65"/><rect x="24.92" y="390.87" width="316.62" height="96.5" rx="8.29" ry="8.29" fill="#d6dde6" opacity="0.65"/><rect x="357.21" y="136.18" width="117.86" height="143" rx="6.16" ry="6.16" fill="#d6dde6" opacity="0.65"/><path d="M26.12,16.21h56c.65,0,1.19.82,1.19,2.06v2.06c0,1.24-.54,2.06-1.19,2.06h-56c-.65,0-1.2-.82-1.2-2.06V18.27C25,17.24,25.47,16.21,26.12,16.21Z" fill="#778ca6" opacity="0.75"/><path d="M94.93,17.51h33.58c.39,0,.71.47.71,1.19v1.2c0,.72-.32,1.19-.71,1.19H94.93c-.39,0-.71-.47-.71-1.19V18.7C94.25,18.1,94.54,17.51,94.93,17.51Z" fill="#778ca6" opacity="0.75"/><path d="M35.79,62.33h56c.65,0,1.19.83,1.19,2.07v2.06c0,1.23-.54,2.06-1.19,2.06h-56c-.65,0-1.19-.83-1.19-2.06V64.4C34.65,63.36,35.14,62.33,35.79,62.33Z" fill="#778ca6" opacity="0.75"/><path d="M35.29,77.67H67.76c.38,0,.7.48.7,1.19v1.2c0,.72-.32,1.19-.7,1.19H35.29c-.38,0-.69-.47-.69-1.19v-1.2C34.63,78.26,34.91,77.67,35.29,77.67Z" fill="#778ca6" opacity="0.75"/><path d="M35.29,134.14H67.76c.38,0,.7.48.7,1.19v1.2c0,.72-.32,1.2-.7,1.2H35.29c-.38,0-.69-.48-.69-1.2v-1.2C34.63,134.74,34.91,134.14,35.29,134.14Z" fill="#778ca6" opacity="0.75"/><path d="M35.29,100.43H291.2c.38,0,.69.48.69,1.2v1.19c0,.72-.31,1.2-.69,1.2H35.29c-.38,0-.69-.48-.69-1.2v-1.19C34.63,101,34.91,100.43,35.29,100.43Z" fill="#778ca6" opacity="0.75"/><path d="M35.29,113.18h225c.37,0,.69.48.69,1.2v1.19c0,.72-.32,1.2-.69,1.2h-225c-.38,0-.69-.48-.69-1.2v-1.19C34.63,113.78,34.91,113.18,35.29,113.18Z" fill="#778ca6" opacity="0.75"/><path d="M35.79,176.4h56c.65,0,1.19.82,1.19,2.06v2.06c0,1.24-.54,2.06-1.19,2.06h-56c-.65,0-1.19-.82-1.19-2.06v-2.06C34.65,177.43,35.14,176.4,35.79,176.4Z" fill="#778ca6" opacity="0.75"/><path d="M35.29,191.73H67.76c.38,0,.7.48.7,1.2v1.19c0,.72-.32,1.2-.7,1.2H35.29c-.38,0-.69-.48-.69-1.2v-1.19C34.63,192.33,34.91,191.73,35.29,191.73Z" fill="#778ca6" opacity="0.75"/><path d="M35.29,248.2H67.76c.38,0,.7.48.7,1.2v1.19c0,.72-.32,1.2-.7,1.2H35.29c-.38,0-.69-.48-.69-1.2V249.4C34.63,248.8,34.91,248.2,35.29,248.2Z" fill="#778ca6" opacity="0.75"/><path d="M35.29,214.49H291.2c.38,0,.69.48.69,1.2v1.2c0,.71-.31,1.19-.69,1.19H35.29c-.38,0-.69-.48-.69-1.19v-1.2C34.63,215.09,34.91,214.49,35.29,214.49Z" fill="#778ca6" opacity="0.75"/><path d="M35.29,227.25h225c.37,0,.69.47.69,1.19v1.2c0,.72-.32,1.19-.69,1.19h-225c-.38,0-.69-.47-.69-1.19v-1.2C34.63,227.84,34.91,227.25,35.29,227.25Z" fill="#778ca6" opacity="0.75"/><path d="M35.79,288.91h56c.65,0,1.19.83,1.19,2.06V293c0,1.23-.54,2.06-1.19,2.06h-56c-.65,0-1.19-.83-1.19-2.06V291C34.65,289.94,35.14,288.91,35.79,288.91Z" fill="#778ca6" opacity="0.75"/><path d="M35.29,304.24H67.76c.38,0,.7.48.7,1.2v1.2c0,.71-.32,1.19-.7,1.19H35.29c-.38,0-.69-.48-.69-1.19v-1.2C34.63,304.84,34.91,304.24,35.29,304.24Z" fill="#778ca6" opacity="0.75"/><path d="M35.29,360.72H67.76c.38,0,.7.47.7,1.19v1.2c0,.72-.32,1.19-.7,1.19H35.29c-.38,0-.69-.47-.69-1.19v-1.2C34.63,361.31,34.91,360.72,35.29,360.72Z" fill="#778ca6" opacity="0.75"/><path d="M35.29,327H291.2c.38,0,.69.48.69,1.19v1.2c0,.72-.31,1.2-.69,1.2H35.29c-.38,0-.69-.48-.69-1.2v-1.2C34.63,327.61,34.91,327,35.29,327Z" fill="#778ca6" opacity="0.75"/><path d="M35.29,339.76h225c.37,0,.69.48.69,1.2v1.19c0,.72-.32,1.2-.69,1.2h-225c-.38,0-.69-.48-.69-1.2V341C34.63,340.36,34.91,339.76,35.29,339.76Z" fill="#778ca6" opacity="0.75"/><path d="M35.79,401.42h56c.65,0,1.19.83,1.19,2.07v2.06c0,1.24-.54,2.06-1.19,2.06h-56c-.65,0-1.19-.82-1.19-2.06v-2.06C34.65,402.46,35.14,401.42,35.79,401.42Z" fill="#778ca6" opacity="0.75"/><path d="M35.29,416.76H67.76c.38,0,.7.48.7,1.19v1.2c0,.72-.32,1.2-.7,1.2H35.29c-.38,0-.69-.48-.69-1.2V418C34.63,417.36,34.91,416.76,35.29,416.76Z" fill="#778ca6" opacity="0.75"/><path d="M35.29,473.23H67.76c.38,0,.7.48.7,1.19v1.2c0,.72-.32,1.2-.7,1.2H35.29c-.38,0-.69-.48-.69-1.2v-1.2C34.63,473.83,34.91,473.23,35.29,473.23Z" fill="#778ca6" opacity="0.75"/><path d="M35.29,439.52H291.2c.38,0,.69.48.69,1.2v1.19c0,.72-.31,1.2-.69,1.2H35.29c-.38,0-.69-.48-.69-1.2v-1.19C34.63,440.12,34.91,439.52,35.29,439.52Z" fill="#778ca6" opacity="0.75"/><path d="M35.29,452.27h225c.37,0,.69.48.69,1.2v1.19c0,.72-.32,1.2-.69,1.2h-225c-.38,0-.69-.48-.69-1.2v-1.19C34.63,452.87,34.91,452.27,35.29,452.27Z" fill="#778ca6" opacity="0.75"/><path d="M141.37,17.51H175c.39,0,.71.47.71,1.19v1.2c0,.72-.32,1.19-.71,1.19H141.37c-.39,0-.71-.47-.71-1.19V18.7C140.69,18.1,141,17.51,141.37,17.51Z" fill="#778ca6" opacity="0.75"/><path d="M187.81,17.51h33.58c.39,0,.71.47.71,1.19v1.2c0,.72-.32,1.19-.71,1.19H187.81c-.39,0-.71-.47-.71-1.19V18.7C187.13,18.1,187.42,17.51,187.81,17.51Z" fill="#778ca6" opacity="0.75"/><path d="M234.25,17.51h33.58c.39,0,.71.47.71,1.19v1.2c0,.72-.32,1.19-.71,1.19H234.25c-.38,0-.71-.47-.71-1.19V18.7C233.57,18.1,233.87,17.51,234.25,17.51Z" fill="#778ca6" opacity="0.75"/><path d="M367.86,62.33h57.89c.68,0,1.24.83,1.24,2.07v2.06c0,1.23-.56,2.06-1.24,2.06H367.86c-.67,0-1.23-.83-1.23-2.06V64.4C366.69,63.36,367.19,62.33,367.86,62.33Z" fill="#778ca6" opacity="0.75"/><path d="M367.94,78.31h96.41c1.12,0,2,1.49,2,3.73v3.73c0,2.24-.93,3.73-2,3.73H367.94c-1.12,0-2.05-1.49-2.05-3.73V82C366,80.18,366.82,78.31,367.94,78.31Z" fill="#fff"/><path d="M367.94,98.42h96.41c1.12,0,2,1.5,2,3.73v3.73c0,2.24-.93,3.73-2,3.73H367.94c-1.12,0-2.05-1.49-2.05-3.73v-3.73C366,100.29,366.82,98.42,367.94,98.42Z" fill="#fff"/><path d="M369.44,145.92h57.89c.68,0,1.24.83,1.24,2.07v2.06c0,1.24-.56,2.06-1.24,2.06H369.44c-.67,0-1.23-.82-1.23-2.06V148C368.27,147,368.77,145.92,369.44,145.92Z" fill="#778ca6" opacity="0.75"/><path d="M368,165.88h97.74c.36,0,.66.47.66,1.19v1.2c0,.71-.3,1.19-.66,1.19H368c-.36,0-.66-.48-.66-1.19v-1.2C367.37,166.47,367.64,165.88,368,165.88Z" fill="#778ca6" opacity="0.75"/><path d="M368,178.63h68.28c.35,0,.65.48.65,1.19V181c0,.72-.3,1.19-.65,1.19H368c-.36,0-.66-.47-.66-1.19v-1.2C367.37,179.22,367.64,178.63,368,178.63Z" fill="#778ca6" opacity="0.75"/><path d="M368,196h97.74c.36,0,.66.48.66,1.2v1.19c0,.72-.3,1.2-.66,1.2H368c-.36,0-.66-.48-.66-1.2v-1.19C367.37,196.63,367.64,196,368,196Z" fill="#778ca6" opacity="0.75"/><path d="M368,208.78h68.28c.35,0,.65.48.65,1.2v1.19c0,.72-.3,1.2-.65,1.2H368c-.36,0-.66-.48-.66-1.2V210C367.37,209.38,367.64,208.78,368,208.78Z" fill="#778ca6" opacity="0.75"/><path d="M368,226.19h97.74c.36,0,.66.48.66,1.19v1.2c0,.72-.3,1.2-.66,1.2H368c-.36,0-.66-.48-.66-1.2v-1.2C367.37,226.79,367.64,226.19,368,226.19Z" fill="#778ca6" opacity="0.75"/><path d="M368,238.94h68.28c.35,0,.65.48.65,1.2v1.19c0,.72-.3,1.2-.65,1.2H368c-.36,0-.66-.48-.66-1.2v-1.19C367.37,239.54,367.64,238.94,368,238.94Z" fill="#778ca6" opacity="0.75"/><path d="M368,251.69h97.74c.36,0,.66.48.66,1.2v1.19c0,.72-.3,1.2-.66,1.2H368c-.36,0-.66-.48-.66-1.2v-1.19C367.37,252.29,367.64,251.69,368,251.69Z" fill="#778ca6" opacity="0.75"/><path d="M368,264.44h68.28c.35,0,.65.48.65,1.2v1.19c0,.72-.3,1.2-.65,1.2H368c-.36,0-.66-.48-.66-1.2v-1.19C367.37,265,367.64,264.44,368,264.44Z" fill="#778ca6" opacity="0.75"/></g></svg>