<svg xmlns="http://www.w3.org/2000/svg" viewBox="0 0 500 500"><title>forum</title><g id="5fb9c198-5e84-46f7-8b9e-68ac3cd982f9" data-name="Layer 5"><rect width="500" height="500" fill="#fdfdfe" opacity="0.1"/></g><g id="ae215a30-fa74-4411-afb7-89e56f0a9737" data-name="Forum"><g opacity="0.8"><rect width="500" height="38.6" fill="#d6dde6" opacity="0.5"/><rect x="358" y="53.33" width="128" height="67.57" rx="4.41" ry="4.41" fill="#d6dde6" opacity="0.5"/><rect x="15" y="53.33" width="327.33" height="96.5" rx="8.43" ry="8.43" fill="#d6dde6" opacity="0.5"/><rect x="15" y="165.85" width="327.33" height="96.5" rx="8.43" ry="8.43" fill="#d6dde6" opacity="0.5"/><rect x="15" y="278.36" width="327.33" height="96.5" rx="8.43" ry="8.43" fill="#d6dde6" opacity="0.5"/><rect x="15" y="390.87" width="327.33" height="96.5" rx="8.43" ry="8.43" fill="#d6dde6" opacity="0.5"/><rect x="358" y="136.18" width="128" height="143" rx="6.42" ry="6.42" fill="#d6dde6" opacity="0.5"/><path d="M16.23,16.21H74.12c.67,0,1.23.82,1.23,2.06v2.06c0,1.24-.56,2.06-1.23,2.06H16.23c-.67,0-1.23-.82-1.23-2.06V18.27C15.06,17.24,15.56,16.21,16.23,16.21Z" fill="#778ca6" opacity="0.75"/><path d="M90.72,17.51H124.3c.39,0,.71.47.71,1.19v1.2c0,.72-.32,1.19-.71,1.19H90.72c-.39,0-.71-.47-.71-1.19V18.7C90,18.1,90.33,17.51,90.72,17.51Z" fill="#778ca6" opacity="0.75"/><path d="M26.23,62.33H84.12c.67,0,1.23.83,1.23,2.07v2.06c0,1.23-.56,2.06-1.23,2.06H26.23c-.67,0-1.23-.83-1.23-2.06V64.4C25.06,63.36,25.56,62.33,26.23,62.33Z" fill="#778ca6" opacity="0.75"/><path d="M25.71,77.67H59.29c.39,0,.71.48.71,1.19v1.2c0,.72-.32,1.19-.71,1.19H25.71c-.39,0-.71-.47-.71-1.19v-1.2C25,78.26,25.32,77.67,25.71,77.67Z" fill="#778ca6" opacity="0.75"/><path d="M25.71,134.14H59.29c.39,0,.71.48.71,1.19v1.2c0,.72-.32,1.2-.71,1.2H25.71c-.39,0-.71-.48-.71-1.2v-1.2C25,134.74,25.32,134.14,25.71,134.14Z" fill="#778ca6" opacity="0.75"/><path d="M25.71,100.43H290.29c.39,0,.71.48.71,1.2v1.19c0,.72-.32,1.2-.71,1.2H25.71c-.39,0-.71-.48-.71-1.2v-1.19C25,101,25.32,100.43,25.71,100.43Z" fill="#778ca6" opacity="0.75"/><path d="M25.71,113.18H258.29c.39,0,.71.48.71,1.2v1.19c0,.72-.32,1.2-.71,1.2H25.71c-.39,0-.71-.48-.71-1.2v-1.19C25,113.78,25.32,113.18,25.71,113.18Z" fill="#778ca6" opacity="0.75"/><path d="M26.23,176.4H84.12c.67,0,1.23.82,1.23,2.06v2.06c0,1.24-.56,2.06-1.23,2.06H26.23c-.67,0-1.23-.82-1.23-2.06v-2.06C25.06,177.43,25.56,176.4,26.23,176.4Z" fill="#778ca6" opacity="0.75"/><path d="M25.71,191.73H59.29c.39,0,.71.48.71,1.2v1.19c0,.72-.32,1.2-.71,1.2H25.71c-.39,0-.71-.48-.71-1.2v-1.19C25,192.33,25.32,191.73,25.71,191.73Z" fill="#778ca6" opacity="0.75"/><path d="M25.71,248.2H59.29c.39,0,.71.48.71,1.2v1.19c0,.72-.32,1.2-.71,1.2H25.71c-.39,0-.71-.48-.71-1.2V249.4C25,248.8,25.32,248.2,25.71,248.2Z" fill="#778ca6" opacity="0.75"/><path d="M25.71,214.49H290.29c.39,0,.71.48.71,1.2v1.2c0,.71-.32,1.19-.71,1.19H25.71c-.39,0-.71-.48-.71-1.19v-1.2C25,215.09,25.32,214.49,25.71,214.49Z" fill="#778ca6" opacity="0.75"/><path d="M25.71,227.25H258.29c.39,0,.71.47.71,1.19v1.2c0,.72-.32,1.19-.71,1.19H25.71c-.39,0-.71-.47-.71-1.19v-1.2C25,227.84,25.32,227.25,25.71,227.25Z" fill="#778ca6" opacity="0.75"/><path d="M26.23,288.91H84.12c.67,0,1.23.83,1.23,2.06V293c0,1.23-.56,2.06-1.23,2.06H26.23c-.67,0-1.23-.83-1.23-2.06V291C25.06,289.94,25.56,288.91,26.23,288.91Z" fill="#778ca6" opacity="0.75"/><path d="M25.71,304.24H59.29c.39,0,.71.48.71,1.2v1.2c0,.71-.32,1.19-.71,1.19H25.71c-.39,0-.71-.48-.71-1.19v-1.2C25,304.84,25.32,304.24,25.71,304.24Z" fill="#778ca6" opacity="0.75"/><path d="M25.71,360.72H59.29c.39,0,.71.47.71,1.19v1.2c0,.72-.32,1.19-.71,1.19H25.71c-.39,0-.71-.47-.71-1.19v-1.2C25,361.31,25.32,360.72,25.71,360.72Z" fill="#778ca6" opacity="0.75"/><path d="M25.71,327H290.29c.39,0,.71.48.71,1.19v1.2c0,.72-.32,1.2-.71,1.2H25.71c-.39,0-.71-.48-.71-1.2v-1.2C25,327.61,25.32,327,25.71,327Z" fill="#778ca6" opacity="0.75"/><path d="M25.71,339.76H258.29c.39,0,.71.48.71,1.2v1.19c0,.72-.32,1.2-.71,1.2H25.71c-.39,0-.71-.48-.71-1.2V341C25,340.36,25.32,339.76,25.71,339.76Z" fill="#778ca6" opacity="0.75"/><path d="M26.23,401.42H84.12c.67,0,1.23.83,1.23,2.07v2.06c0,1.24-.56,2.06-1.23,2.06H26.23c-.67,0-1.23-.82-1.23-2.06v-2.06C25.06,402.46,25.56,401.42,26.23,401.42Z" fill="#778ca6" opacity="0.75"/><path d="M25.71,416.76H59.29c.39,0,.71.48.71,1.19v1.2c0,.72-.32,1.2-.71,1.2H25.71c-.39,0-.71-.48-.71-1.2V418C25,417.36,25.32,416.76,25.71,416.76Z" fill="#778ca6" opacity="0.75"/><path d="M25.71,473.23H59.29c.39,0,.71.48.71,1.19v1.2c0,.72-.32,1.2-.71,1.2H25.71c-.39,0-.71-.48-.71-1.2v-1.2C25,473.83,25.32,473.23,25.71,473.23Z" fill="#778ca6" opacity="0.75"/><path d="M25.71,439.52H290.29c.39,0,.71.48.71,1.2v1.19c0,.72-.32,1.2-.71,1.2H25.71c-.39,0-.71-.48-.71-1.2v-1.19C25,440.12,25.32,439.52,25.71,439.52Z" fill="#778ca6" opacity="0.75"/><path d="M25.71,452.27H258.29c.39,0,.71.48.71,1.2v1.19c0,.72-.32,1.2-.71,1.2H25.71c-.39,0-.71-.48-.71-1.2v-1.19C25,452.87,25.32,452.27,25.71,452.27Z" fill="#778ca6" opacity="0.75"/><path d="M137.16,17.51h33.58c.39,0,.71.47.71,1.19v1.2c0,.72-.32,1.19-.71,1.19H137.16c-.39,0-.71-.47-.71-1.19V18.7C136.48,18.1,136.77,17.51,137.16,17.51Z" fill="#778ca6" opacity="0.75"/><path d="M183.6,17.51h33.58c.39,0,.71.47.71,1.19v1.2c0,.72-.32,1.19-.71,1.19H183.6c-.39,0-.71-.47-.71-1.19V18.7C182.92,18.1,183.21,17.51,183.6,17.51Z" fill="#778ca6" opacity="0.75"/><path d="M230,17.51h33.58c.39,0,.71.47.71,1.19v1.2c0,.72-.32,1.19-.71,1.19H230c-.39,0-.71-.47-.71-1.19V18.7C229.36,18.1,229.65,17.51,230,17.51Z" fill="#778ca6" opacity="0.75"/><path d="M368.65,62.33h57.89c.68,0,1.24.83,1.24,2.07v2.06c0,1.23-.56,2.06-1.24,2.06H368.65c-.67,0-1.23-.83-1.23-2.06V64.4C367.48,63.36,368,62.33,368.65,62.33Z" fill="#778ca6" opacity="0.75"/><path d="M369.65,78.31h104.7c1.22,0,2.23,1.49,2.23,3.73v3.73c0,2.24-1,3.73-2.23,3.73H369.65c-1.22,0-2.23-1.49-2.23-3.73V82C367.52,80.18,368.43,78.31,369.65,78.31Z" fill="#fff" opacity="0.85"/><path d="M369.65,98.42h104.7c1.22,0,2.23,1.5,2.23,3.73v3.73c0,2.24-1,3.73-2.23,3.73H369.65c-1.22,0-2.23-1.49-2.23-3.73v-3.73C367.52,100.29,368.43,98.42,369.65,98.42Z" fill="#fff" opacity="0.85"/><path d="M370.23,145.92h57.89c.67,0,1.23.83,1.23,2.07v2.06c0,1.24-.56,2.06-1.23,2.06H370.23c-.67,0-1.23-.82-1.23-2.06V148C369.06,147,369.56,145.92,370.23,145.92Z" fill="#778ca6" opacity="0.75"/><path d="M369.71,165.88H475.86c.39,0,.72.47.72,1.19v1.2c0,.71-.33,1.19-.72,1.19H369.71c-.39,0-.71-.48-.71-1.19v-1.2C369,166.47,369.32,165.88,369.71,165.88Z" fill="#778ca6" opacity="0.75"/><path d="M369.71,178.63h74.15c.39,0,.72.48.72,1.19V181c0,.72-.33,1.19-.72,1.19H369.71c-.39,0-.71-.47-.71-1.19v-1.2C369,179.22,369.32,178.63,369.71,178.63Z" fill="#778ca6" opacity="0.75"/><path d="M369.71,196H475.86c.39,0,.72.48.72,1.2v1.19c0,.72-.33,1.2-.72,1.2H369.71c-.39,0-.71-.48-.71-1.2v-1.19C369,196.63,369.32,196,369.71,196Z" fill="#778ca6" opacity="0.75"/><path d="M369.71,208.78h74.15c.39,0,.72.48.72,1.2v1.19c0,.72-.33,1.2-.72,1.2H369.71c-.39,0-.71-.48-.71-1.2V210C369,209.38,369.32,208.78,369.71,208.78Z" fill="#778ca6" opacity="0.75"/><path d="M369.71,226.19H475.86c.39,0,.72.48.72,1.19v1.2c0,.72-.33,1.2-.72,1.2H369.71c-.39,0-.71-.48-.71-1.2v-1.2C369,226.79,369.32,226.19,369.71,226.19Z" fill="#778ca6" opacity="0.75"/><path d="M369.71,238.94h74.15c.39,0,.72.48.72,1.2v1.19c0,.72-.33,1.2-.72,1.2H369.71c-.39,0-.71-.48-.71-1.2v-1.19C369,239.54,369.32,238.94,369.71,238.94Z" fill="#778ca6" opacity="0.75"/><path d="M369.71,251.69H475.86c.39,0,.72.48.72,1.2v1.19c0,.72-.33,1.2-.72,1.2H369.71c-.39,0-.71-.48-.71-1.2v-1.19C369,252.29,369.32,251.69,369.71,251.69Z" fill="#778ca6" opacity="0.75"/><path d="M369.71,264.44h74.15c.39,0,.72.48.72,1.2v1.19c0,.72-.33,1.2-.72,1.2H369.71c-.39,0-.71-.48-.71-1.2v-1.19C369,265,369.32,264.44,369.71,264.44Z" fill="#778ca6" opacity="0.75"/></g></g></svg>