<svg xmlns="http://www.w3.org/2000/svg" viewBox="0 0 500 500"><title>insta</title><g id="e9d4c2a9-fd9d-40ba-a890-66d29e61c353" data-name="Layer 5"><rect width="500" height="500" fill="#dde2e8" opacity="0.5"/></g><g id="c1de5335-41d5-4803-84aa-4e4877a4b730" data-name="Insta"><g opacity="0.25"><rect x="27.96" y="29.38" width="82.9" height="82.9" rx="4.57" ry="4.57" fill="#778ca6"/><rect x="118.25" y="29.38" width="82.9" height="82.9" rx="4.57" ry="4.57" fill="#778ca6"/><rect x="208.55" y="29.38" width="82.9" height="82.9" rx="4.57" ry="4.57" fill="#778ca6"/><rect x="298.85" y="29.38" width="82.9" height="82.9" rx="4.57" ry="4.57" fill="#778ca6"/><rect x="389.15" y="29.38" width="82.9" height="82.9" rx="4.57" ry="4.57" fill="#778ca6"/><rect x="27.96" y="118.97" width="82.9" height="82.9" rx="4.57" ry="4.57" fill="#778ca6"/><rect x="118.25" y="118.97" width="82.9" height="82.9" rx="4.57" ry="4.57" fill="#778ca6"/><rect x="208.55" y="118.97" width="82.9" height="82.9" rx="4.57" ry="4.57" fill="#778ca6"/><rect x="298.85" y="118.97" width="82.9" height="82.9" rx="4.57" ry="4.57" fill="#778ca6"/><rect x="389.15" y="118.97" width="82.9" height="82.9" rx="4.57" ry="4.57" fill="#778ca6"/><rect x="27.96" y="208.55" width="82.9" height="82.9" rx="4.57" ry="4.57" fill="#778ca6"/><rect x="118.25" y="208.55" width="82.9" height="82.9" rx="4.57" ry="4.57" fill="#778ca6"/><rect x="208.55" y="208.55" width="82.9" height="82.9" rx="4.57" ry="4.57" fill="#778ca6"/><rect x="298.85" y="208.55" width="82.9" height="82.9" rx="4.57" ry="4.57" fill="#778ca6"/><rect x="389.15" y="208.55" width="82.9" height="82.9" rx="4.57" ry="4.57" fill="#778ca6"/><rect x="27.96" y="298.14" width="82.9" height="82.9" rx="4.57" ry="4.57" fill="#778ca6"/><rect x="118.25" y="298.14" width="82.9" height="82.9" rx="4.57" ry="4.57" fill="#778ca6"/><rect x="208.55" y="298.14" width="82.9" height="82.9" rx="4.57" ry="4.57" fill="#778ca6"/><rect x="298.85" y="298.14" width="82.9" height="82.9" rx="4.57" ry="4.57" fill="#778ca6"/><rect x="389.15" y="298.14" width="82.9" height="82.9" rx="4.57" ry="4.57" fill="#778ca6"/><rect x="27.96" y="387.72" width="82.9" height="82.9" rx="4.57" ry="4.57" fill="#778ca6"/><rect x="118.25" y="387.72" width="82.9" height="82.9" rx="4.57" ry="4.57" fill="#778ca6"/><rect x="208.55" y="387.72" width="82.9" height="82.9" rx="4.57" ry="4.57" fill="#778ca6"/><rect x="298.85" y="387.72" width="82.9" height="82.9" rx="4.57" ry="4.57" fill="#778ca6"/><rect x="389.15" y="387.72" width="82.9" height="82.9" rx="4.57" ry="4.57" fill="#778ca6"/></g><rect x="50.81" y="100.1" width="398.38" height="299.8" fill="#fff"/><rect x="50.81" y="100.1" width="278.25" height="299.8" fill="#778ca6"/><circle cx="357.05" cy="122.53" r="9.52" fill="#778ca6"/><path d="M348.86,169.2h62.37c.72,0,1.32.89,1.32,2.22v2.22c0,1.33-.6,2.22-1.32,2.22H348.86c-.72,0-1.33-.89-1.33-2.22v-2.22C347.59,170.31,348.14,169.2,348.86,169.2Z" fill="#d6dde6"/><path d="M348.73,186.53h56.35c.65,0,1.2.89,1.2,2.22V191c0,1.33-.55,2.22-1.2,2.22H348.73c-.65,0-1.2-.89-1.2-2.22v-2.23C347.59,187.64,348.08,186.53,348.73,186.53Z" fill="#d6dde6"/><path d="M348.73,151.86h56.35c.65,0,1.2.89,1.2,2.22v2.22c0,1.34-.55,2.23-1.2,2.23H348.73c-.65,0-1.2-.89-1.2-2.23v-2.22C347.59,153,348.08,151.86,348.73,151.86Z" fill="#d6dde6"/><path d="M377.24,119.19H423.9c.65,0,1.19.89,1.19,2.23v2.22c0,1.33-.54,2.22-1.19,2.22H377.24c-.65,0-1.2-.89-1.2-2.22v-2.22C376.1,120.31,376.59,119.19,377.24,119.19Z" fill="#d6dde6"/><path d="M348.86,203.87h62.37c.72,0,1.32.89,1.32,2.22v2.22c0,1.33-.6,2.22-1.32,2.22H348.86c-.72,0-1.33-.89-1.33-2.22v-2.22C347.59,205,348.14,203.87,348.86,203.87Z" fill="#d6dde6"/><path d="M348.86,221.2h62.37c.72,0,1.32.89,1.32,2.23v2.22c0,1.33-.6,2.22-1.32,2.22H348.86c-.72,0-1.33-.89-1.33-2.22v-2.22C347.59,222.32,348.14,221.2,348.86,221.2Z" fill="#d6dde6"/><g id="312f89a8-dc03-4832-8af1-8105f370852f" data-name="c57a05da-a12d-4341-84b0-9e5a58be08dd"><path d="M177.93,249.72V236a3.56,3.56,0,0,1,1.46-2.8,3,3,0,0,1,3.06,0l25.3,13s2.9,1.28,2.9,3.72-2.9,3.53-2.9,3.53l-25.3,13.09a4.3,4.3,0,0,1-3.06.47c-1.68-.59-1.46-3.06-1.46-3.06Z" fill="#fff" stroke="#f0efef" stroke-miterlimit="10"/></g></g></svg>