<svg id="101c40a2-f63e-46e4-8538-a1038adffc7f" data-name="Insta" xmlns="http://www.w3.org/2000/svg" viewBox="0 0 500 500"><title>insta</title><g opacity="0.25"><rect x="6.33" y="7.9" width="90.97" height="90.97" rx="5.01" ry="5.01" fill="#778ca6"/><rect x="105.42" y="7.9" width="90.97" height="90.97" rx="5.01" ry="5.01" fill="#778ca6"/><rect x="204.52" y="7.9" width="90.97" height="90.97" rx="5.01" ry="5.01" fill="#778ca6"/><rect x="303.61" y="7.9" width="90.97" height="90.97" rx="5.01" ry="5.01" fill="#778ca6"/><rect x="402.7" y="7.9" width="90.97" height="90.97" rx="5.01" ry="5.01" fill="#778ca6"/><rect x="6.33" y="106.21" width="90.97" height="90.97" rx="5.01" ry="5.01" fill="#778ca6"/><rect x="105.42" y="106.21" width="90.97" height="90.97" rx="5.01" ry="5.01" fill="#778ca6"/><rect x="204.52" y="106.21" width="90.97" height="90.97" rx="5.01" ry="5.01" fill="#778ca6"/><rect x="303.61" y="106.21" width="90.97" height="90.97" rx="5.01" ry="5.01" fill="#778ca6"/><rect x="402.7" y="106.21" width="90.97" height="90.97" rx="5.01" ry="5.01" fill="#778ca6"/><rect x="6.33" y="204.52" width="90.97" height="90.97" rx="5.01" ry="5.01" fill="#778ca6"/><rect x="105.42" y="204.52" width="90.97" height="90.97" rx="5.01" ry="5.01" fill="#778ca6"/><rect x="204.52" y="204.52" width="90.97" height="90.97" rx="5.01" ry="5.01" fill="#778ca6"/><rect x="303.61" y="204.52" width="90.97" height="90.97" rx="5.01" ry="5.01" fill="#778ca6"/><rect x="402.7" y="204.52" width="90.97" height="90.97" rx="5.01" ry="5.01" fill="#778ca6"/><rect x="6.33" y="302.82" width="90.97" height="90.97" rx="5.01" ry="5.01" fill="#778ca6"/><rect x="105.42" y="302.82" width="90.97" height="90.97" rx="5.01" ry="5.01" fill="#778ca6"/><rect x="204.52" y="302.82" width="90.97" height="90.97" rx="5.01" ry="5.01" fill="#778ca6"/><rect x="303.61" y="302.82" width="90.97" height="90.97" rx="5.01" ry="5.01" fill="#778ca6"/><rect x="402.7" y="302.82" width="90.97" height="90.97" rx="5.01" ry="5.01" fill="#778ca6"/><rect x="6.33" y="401.13" width="90.97" height="90.97" rx="5.01" ry="5.01" fill="#778ca6"/><rect x="105.42" y="401.13" width="90.97" height="90.97" rx="5.01" ry="5.01" fill="#778ca6"/><rect x="204.52" y="401.13" width="90.97" height="90.97" rx="5.01" ry="5.01" fill="#778ca6"/><rect x="303.61" y="401.13" width="90.97" height="90.97" rx="5.01" ry="5.01" fill="#778ca6"/><rect x="402.7" y="401.13" width="90.97" height="90.97" rx="5.01" ry="5.01" fill="#778ca6"/><rect width="500" height="36" fill="#fff"/><path d="M7.64,12.65H98.08c1,0,1.92,1.43,1.92,3.57v3.56c0,2.14-.87,3.57-1.92,3.57H7.64c-1,0-1.92-1.43-1.92-3.57V16.22C5.8,14.43,6.59,12.65,7.64,12.65Z" fill="#33373d"/><path d="M381,15.14h48.33c.56,0,1,.76,1,1.91V19c0,1.15-.47,1.91-1,1.91H381c-.57,0-1-.76-1-1.91v-1.9C380,16.09,380.46,15.14,381,15.14Z" fill="#33373d"/><path d="M442.26,15.14H490.6c.56,0,1,.76,1,1.91V19c0,1.15-.47,1.91-1,1.91H442.26c-.56,0-1-.76-1-1.91v-1.9C441.28,16.09,441.7,15.14,442.26,15.14Z" fill="#33373d"/></g><rect width="500" height="500" fill="#778ca6" opacity="0.4"/><rect width="500" height="500" opacity="0.2"/><rect x="70.61" y="115" width="358.77" height="270" fill="#fff"/><rect x="70.61" y="115" width="250.59" height="270" fill="#33373d"/><circle cx="346.41" cy="135.2" r="8.57" fill="#33373d" opacity="0.75"/><path d="M339,177.23H395.2c.65,0,1.19.8,1.19,2v2c0,1.2-.54,2-1.19,2H339c-.65,0-1.19-.8-1.19-2v-2C337.89,178.23,338.38,177.23,339,177.23Z" fill="#33373d" opacity="0.75"/><path d="M338.92,192.84h50.74c.59,0,1.08.8,1.08,2v2c0,1.2-.49,2-1.08,2H338.92c-.59,0-1.08-.8-1.08-2v-2C337.89,193.84,338.33,192.84,338.92,192.84Z" fill="#33373d" opacity="0.75"/><path d="M338.92,161.62h50.74c.59,0,1.08.8,1.08,2v2c0,1.2-.49,2-1.08,2H338.92c-.59,0-1.08-.8-1.08-2v-2C337.89,162.62,338.33,161.62,338.92,161.62Z" fill="#33373d" opacity="0.75"/><path d="M364.59,132.2h42c.59,0,1.08.8,1.08,2v2c0,1.2-.49,2-1.08,2h-42c-.59,0-1.08-.8-1.08-2v-2C363.56,133.2,364,132.2,364.59,132.2Z" fill="#33373d" opacity="0.75"/><path d="M339,208.45H395.2c.65,0,1.19.81,1.19,2v2c0,1.2-.54,2-1.19,2H339c-.65,0-1.19-.8-1.19-2v-2C337.89,209.46,338.38,208.45,339,208.45Z" fill="#33373d" opacity="0.75"/><path d="M339,224.07H395.2c.65,0,1.19.8,1.19,2v2c0,1.2-.54,2-1.19,2H339c-.65,0-1.19-.8-1.19-2v-2C337.89,225.07,338.38,224.07,339,224.07Z" fill="#33373d" opacity="0.75"/><path d="M472.84,250.79l-12.23,12.94a1,1,0,0,1-.74.33,1,1,0,0,1-.74-.33l-2.73-2.9a1.1,1.1,0,0,1-.32-.78,1.14,1.14,0,0,1,.32-.79l8.74-9.26-8.74-9.26a1.12,1.12,0,0,1-.32-.79,1.1,1.1,0,0,1,.32-.78l2.73-2.9a1,1,0,0,1,.74-.33,1,1,0,0,1,.74.33l12.23,12.95a1.09,1.09,0,0,1,.31.78A1.13,1.13,0,0,1,472.84,250.79Z" fill="#fff"/><path d="M27.16,249.21l12.23-12.94a1,1,0,0,1,.74-.33,1,1,0,0,1,.74.33l2.73,2.9a1.1,1.1,0,0,1,.32.78,1.14,1.14,0,0,1-.32.79L34.86,250l8.74,9.26a1.12,1.12,0,0,1,.32.79,1.1,1.1,0,0,1-.32.78l-2.73,2.9a1,1,0,0,1-.74.33,1,1,0,0,1-.74-.33l-12.23-13a1.09,1.09,0,0,1-.31-.78A1.13,1.13,0,0,1,27.16,249.21Z" fill="#fff"/><path d="M485,26.91a1.55,1.55,0,0,1-.47,1.13l-2.27,2.27a1.61,1.61,0,0,1-2.27,0L475,25.4l-4.91,4.91a1.53,1.53,0,0,1-1.14.47,1.55,1.55,0,0,1-1.14-.47L465.58,28a1.63,1.63,0,0,1,0-2.27l4.91-4.91L465.58,16a1.55,1.55,0,0,1-.46-1.14,1.58,1.58,0,0,1,.46-1.14l2.27-2.27a1.58,1.58,0,0,1,1.14-.46,1.56,1.56,0,0,1,1.14.46L475,16.31,480,11.4a1.63,1.63,0,0,1,2.27,0l2.27,2.27a1.59,1.59,0,0,1,.47,1.14,1.55,1.55,0,0,1-.47,1.14l-4.91,4.91,4.91,4.91A1.55,1.55,0,0,1,485,26.91Z" fill="#fff"/><g id="0ba53ae4-1c86-45f2-b2f3-28ce0e2fe275" data-name="c57a05da-a12d-4341-84b0-9e5a58be08dd"><path d="M167.88,249.5V225.62a6.21,6.21,0,0,1,2.55-4.87c2.55-1.7,5.34,0,5.34,0l44.11,22.73s5,2.24,5,6.49c0,4-5,6.14-5,6.14L175.77,279s-2.93,1.66-5.34.81c-2.94-1-2.55-5.33-2.55-5.33Z" fill="#fff"/></g></svg>