<svg data-name="Insta" xmlns="http://www.w3.org/2000/svg" viewBox="0 0 500 500">
  <g opacity=".25">
    <rect x="26.85" y="77.3" width="83.31" height="83.31" rx="4.59" ry="4.59" fill="#33373d"/>
    <rect x="117.6" y="77.3" width="83.31" height="83.31" rx="4.59" ry="4.59" fill="#33373d"/>
    <rect x="208.35" y="77.3" width="83.31" height="83.31" rx="4.59" ry="4.59" fill="#33373d"/>
    <rect x="299.09" y="77.3" width="83.31" height="83.31" rx="4.59" ry="4.59" fill="#33373d"/>
    <rect x="389.84" y="77.3" width="83.31" height="83.31" rx="4.59" ry="4.59" fill="#33373d"/>
    <rect x="26.85" y="167.33" width="83.31" height="83.31" rx="4.59" ry="4.59" fill="#33373d"/>
    <rect x="117.6" y="167.33" width="83.31" height="83.31" rx="4.59" ry="4.59" fill="#33373d"/>
    <rect x="208.35" y="167.33" width="83.31" height="83.31" rx="4.59" ry="4.59" fill="#33373d"/>
    <rect x="299.09" y="167.33" width="83.31" height="83.31" rx="4.59" ry="4.59" fill="#33373d"/>
    <rect x="389.84" y="167.33" width="83.31" height="83.31" rx="4.59" ry="4.59" fill="#33373d"/>
    <rect x="26.85" y="257.36" width="83.31" height="83.31" rx="4.59" ry="4.59" fill="#33373d"/>
    <rect x="117.6" y="257.36" width="83.31" height="83.31" rx="4.59" ry="4.59" fill="#33373d"/>
    <rect x="208.35" y="257.36" width="83.31" height="83.31" rx="4.59" ry="4.59" fill="#33373d"/>
    <rect x="299.09" y="257.36" width="83.31" height="83.31" rx="4.59" ry="4.59" fill="#33373d"/>
    <rect x="389.84" y="257.36" width="83.31" height="83.31" rx="4.59" ry="4.59" fill="#33373d"/>
    <rect x="26.85" y="347.39" width="83.31" height="83.31" rx="4.59" ry="4.59" fill="#33373d"/>
    <rect x="117.6" y="347.39" width="83.31" height="83.31" rx="4.59" ry="4.59" fill="#33373d"/>
    <rect x="208.35" y="347.39" width="83.31" height="83.31" rx="4.59" ry="4.59" fill="#33373d"/>
    <rect x="299.09" y="347.39" width="83.31" height="83.31" rx="4.59" ry="4.59" fill="#33373d"/>
    <rect x="389.84" y="347.39" width="83.31" height="83.31" rx="4.59" ry="4.59" fill="#33373d"/>
    <path fill="#fff" d="M0 .27h500v31.75H0z"/>
    <path d="M28.62 11.42h79.76c.93 0 1.7 1.26 1.7 3.15v3.14c0 1.89-.77 3.15-1.7 3.15H28.62c-.92 0-1.7-1.26-1.7-3.15v-3.14c.08-1.57.78-3.15 1.7-3.15zM376.1 13.62h42.63c.49 0 .9.67.9 1.68V17c0 1-.41 1.68-.9 1.68H376.1c-.5 0-.91-.67-.91-1.68v-1.7c.04-.84.41-1.68.91-1.68zM430.11 13.62h42.63c.49 0 .9.67.9 1.68V17c0 1-.41 1.68-.9 1.68h-42.63c-.5 0-.91-.67-.91-1.68v-1.7c.04-.84.41-1.68.91-1.68zM30 44.18h148.15c1.72 0 3.15 1 3.15 2.5v2.49c0 1.5-1.43 2.5-3.15 2.5H30c-1.72 0-3.15-1-3.15-2.5v-2.49a3.1 3.1 0 0 1 3.15-2.5zM28.69 58.38h260A1.69 1.69 0 0 1 290.5 60v1.61a1.69 1.69 0 0 1-1.84 1.6h-260a1.69 1.69 0 0 1-1.84-1.6V60a1.86 1.86 0 0 1 1.87-1.62zM120 481h260a1.69 1.69 0 0 1 1.84 1.6v1.6a1.69 1.69 0 0 1-1.84 1.61H120a1.69 1.69 0 0 1-1.84-1.61v-1.6A1.87 1.87 0 0 1 120 481z" fill="#33373d"/>
  </g>
  <path fill="#778ca6" opacity=".4" d="M0 0h500v500H0z"/>
  <path opacity=".2" d="M0 0h500v500H0z"/>
  <path fill="#fff" d="M321.44 115h107.95v270H321.44z"/>
  <path fill="#33373d" d="M70.86 115h250.59v270H70.86z"/>
  <circle cx="346.41" cy="135.2" r="8.57" opacity=".2"/>
  <path d="M339 176.25h56.2a1.26 1.26 0 0 1 1.19 1.37V179a1.26 1.26 0 0 1-1.19 1.37H339a1.26 1.26 0 0 1-1.19-1.37v-1.37a1.38 1.38 0 0 1 1.19-1.38zM338.92 190.88h50.74c.59 0 1.08.55 1.08 1.37v1.37c0 .82-.49 1.37-1.08 1.37h-50.74c-.59 0-1.08-.55-1.08-1.37v-1.37c.05-.69.49-1.37 1.08-1.37zM338.92 161.62h50.74c.59 0 1.08.54 1.08 1.37v1.36c0 .83-.49 1.37-1.08 1.37h-50.74c-.59 0-1.08-.54-1.08-1.37V163c.05-.7.49-1.38 1.08-1.38zM364.59 132.2h42c.59 0 1.08.8 1.08 2v2c0 1.2-.49 2-1.08 2h-42c-.59 0-1.08-.8-1.08-2v-2c.05-1 .49-2 1.08-2zM339 205.51h56.2a1.26 1.26 0 0 1 1.19 1.37v1.37a1.26 1.26 0 0 1-1.19 1.37H339a1.26 1.26 0 0 1-1.19-1.37v-1.37a1.39 1.39 0 0 1 1.19-1.37zM339 220.14h56.2a1.26 1.26 0 0 1 1.19 1.37v1.37a1.26 1.26 0 0 1-1.19 1.37H339a1.26 1.26 0 0 1-1.19-1.37v-1.37a1.39 1.39 0 0 1 1.19-1.37z" opacity=".2"/>
  <path d="M472.84 250.79l-12.23 12.94a1 1 0 0 1-.74.33 1 1 0 0 1-.74-.33l-2.73-2.9a1.1 1.1 0 0 1-.32-.78 1.14 1.14 0 0 1 .32-.79l8.74-9.26-8.74-9.26a1.12 1.12 0 0 1-.32-.79 1.1 1.1 0 0 1 .32-.78l2.73-2.9a1 1 0 0 1 .74-.33 1 1 0 0 1 .74.33l12.23 12.95a1.09 1.09 0 0 1 .31.78 1.13 1.13 0 0 1-.31.79zM27.16 249.21l12.23-12.94a1 1 0 0 1 .74-.33 1 1 0 0 1 .74.33l2.73 2.9a1.1 1.1 0 0 1 .32.78 1.14 1.14 0 0 1-.32.79L34.86 250l8.74 9.26a1.12 1.12 0 0 1 .32.79 1.1 1.1 0 0 1-.32.78l-2.73 2.9a1 1 0 0 1-.74.33 1 1 0 0 1-.74-.33l-12.23-13a1.09 1.09 0 0 1-.31-.78 1.13 1.13 0 0 1 .31-.74zM485 26.91a1.55 1.55 0 0 1-.47 1.13l-2.27 2.27a1.61 1.61 0 0 1-2.27 0L475 25.4l-4.91 4.91a1.53 1.53 0 0 1-1.14.47 1.55 1.55 0 0 1-1.14-.47L465.58 28a1.63 1.63 0 0 1 0-2.27l4.91-4.91-4.91-4.82a1.55 1.55 0 0 1-.46-1.14 1.58 1.58 0 0 1 .46-1.14l2.27-2.27a1.58 1.58 0 0 1 1.14-.46 1.56 1.56 0 0 1 1.14.46l4.87 4.86 5-4.91a1.63 1.63 0 0 1 2.27 0l2.27 2.27a1.59 1.59 0 0 1 .47 1.14 1.55 1.55 0 0 1-.47 1.14l-4.91 4.91 4.91 4.91a1.55 1.55 0 0 1 .46 1.14z" fill="#fff"/>
  <path d="M167.64 249.5v-23.88a6.21 6.21 0 0 1 2.55-4.87 5.26 5.26 0 0 1 5.33 0l44.11 22.73s5 2.24 5 6.49c0 4-5 6.14-5 6.14L175.52 279s-2.92 1.66-5.33.81c-2.94-1-2.55-5.33-2.55-5.33z" fill="#fff" data-name="c57a05da-a12d-4341-84b0-9e5a58be08dd"/>
</svg>
