<svg xmlns="http://www.w3.org/2000/svg" viewBox="0 0 500 500"><title>insta</title><g id="40055412-ecb6-4e7b-b0d4-d62ee5bcffdd" data-name="Layer 5"><rect width="500" height="500" fill="#fff"/></g><g id="a39b311f-abe0-4497-aa2c-243ccda34dd3" data-name="Insta"><g opacity="0.25"><rect x="26.85" y="77.3" width="83.31" height="83.31" rx="4.59" ry="4.59" fill="#33373d"/><rect x="117.6" y="77.3" width="83.31" height="83.31" rx="4.59" ry="4.59" fill="#33373d"/><rect x="208.35" y="77.3" width="83.31" height="83.31" rx="4.59" ry="4.59" fill="#33373d"/><rect x="299.09" y="77.3" width="83.31" height="83.31" rx="4.59" ry="4.59" fill="#33373d"/><rect x="389.84" y="77.3" width="83.31" height="83.31" rx="4.59" ry="4.59" fill="#33373d"/><rect x="26.85" y="167.33" width="83.31" height="83.31" rx="4.59" ry="4.59" fill="#33373d"/><rect x="117.6" y="167.33" width="83.31" height="83.31" rx="4.59" ry="4.59" fill="#33373d"/><rect x="208.35" y="167.33" width="83.31" height="83.31" rx="4.59" ry="4.59" fill="#33373d"/><rect x="299.09" y="167.33" width="83.31" height="83.31" rx="4.59" ry="4.59" fill="#33373d"/><rect x="389.84" y="167.33" width="83.31" height="83.31" rx="4.59" ry="4.59" fill="#33373d"/><rect x="26.85" y="257.36" width="83.31" height="83.31" rx="4.59" ry="4.59" fill="#33373d"/><rect x="117.6" y="257.36" width="83.31" height="83.31" rx="4.59" ry="4.59" fill="#33373d"/><rect x="208.35" y="257.36" width="83.31" height="83.31" rx="4.59" ry="4.59" fill="#33373d"/><rect x="299.09" y="257.36" width="83.31" height="83.31" rx="4.59" ry="4.59" fill="#33373d"/><rect x="389.84" y="257.36" width="83.31" height="83.31" rx="4.59" ry="4.59" fill="#33373d"/><rect x="26.85" y="347.39" width="83.31" height="83.31" rx="4.59" ry="4.59" fill="#33373d"/><rect x="117.6" y="347.39" width="83.31" height="83.31" rx="4.59" ry="4.59" fill="#33373d"/><rect x="208.35" y="347.39" width="83.31" height="83.31" rx="4.59" ry="4.59" fill="#33373d"/><rect x="299.09" y="347.39" width="83.31" height="83.31" rx="4.59" ry="4.59" fill="#33373d"/><rect x="389.84" y="347.39" width="83.31" height="83.31" rx="4.59" ry="4.59" fill="#33373d"/><rect y="0.27" width="500" height="31.75" fill="#fff"/><path d="M28.62,11.42h79.76c.93,0,1.7,1.26,1.7,3.15v3.14c0,1.89-.77,3.15-1.7,3.15H28.62c-.92,0-1.7-1.26-1.7-3.15V14.57C27,13,27.7,11.42,28.62,11.42Z" fill="#33373d"/><path d="M376.1,13.62h42.63c.49,0,.9.67.9,1.68V17c0,1-.41,1.68-.9,1.68H376.1c-.5,0-.91-.67-.91-1.68V15.3C375.23,14.46,375.6,13.62,376.1,13.62Z" fill="#33373d"/><path d="M430.11,13.62h42.63c.49,0,.9.67.9,1.68V17c0,1-.41,1.68-.9,1.68H430.11c-.5,0-.91-.67-.91-1.68V15.3C429.24,14.46,429.61,13.62,430.11,13.62Z" fill="#33373d"/><path d="M30,44.18H178.15c1.72,0,3.15,1,3.15,2.5v2.49c0,1.5-1.43,2.5-3.15,2.5H30c-1.72,0-3.15-1-3.15-2.5V46.68A3.1,3.1,0,0,1,30,44.18Z" fill="#33373d"/><path d="M28.69,58.38h260A1.69,1.69,0,0,1,290.5,60v1.61a1.69,1.69,0,0,1-1.84,1.6h-260a1.69,1.69,0,0,1-1.84-1.6V60A1.86,1.86,0,0,1,28.69,58.38Z" fill="#33373d"/><path d="M120,481H380a1.69,1.69,0,0,1,1.84,1.6v1.6a1.69,1.69,0,0,1-1.84,1.61H120a1.69,1.69,0,0,1-1.84-1.61v-1.6A1.87,1.87,0,0,1,120,481Z" fill="#33373d"/></g><rect width="500" height="500" fill="#778ca6" opacity="0.4"/><rect width="500" height="500" opacity="0.2"/><rect x="70.61" y="115" width="358.77" height="270" fill="#fff"/><rect x="70.86" y="115" width="250.59" height="270" fill="#33373d"/><circle cx="346.41" cy="135.2" r="8.57" opacity="0.2"/><path d="M339,176.25H395.2a1.26,1.26,0,0,1,1.19,1.37V179a1.26,1.26,0,0,1-1.19,1.37H339a1.26,1.26,0,0,1-1.19-1.37v-1.37A1.38,1.38,0,0,1,339,176.25Z" opacity="0.2"/><path d="M338.92,190.88h50.74c.59,0,1.08.55,1.08,1.37v1.37c0,.82-.49,1.37-1.08,1.37H338.92c-.59,0-1.08-.55-1.08-1.37v-1.37C337.89,191.56,338.33,190.88,338.92,190.88Z" opacity="0.2"/><path d="M338.92,161.62h50.74c.59,0,1.08.54,1.08,1.37v1.36c0,.83-.49,1.37-1.08,1.37H338.92c-.59,0-1.08-.54-1.08-1.37V163C337.89,162.3,338.33,161.62,338.92,161.62Z" opacity="0.2"/><path d="M364.59,132.2h42c.59,0,1.08.8,1.08,2v2c0,1.2-.49,2-1.08,2h-42c-.59,0-1.08-.8-1.08-2v-2C363.56,133.2,364,132.2,364.59,132.2Z" opacity="0.2"/><path d="M339,205.51H395.2a1.26,1.26,0,0,1,1.19,1.37v1.37a1.26,1.26,0,0,1-1.19,1.37H339a1.26,1.26,0,0,1-1.19-1.37v-1.37A1.39,1.39,0,0,1,339,205.51Z" opacity="0.2"/><path d="M339,220.14H395.2a1.26,1.26,0,0,1,1.19,1.37v1.37a1.26,1.26,0,0,1-1.19,1.37H339a1.26,1.26,0,0,1-1.19-1.37v-1.37A1.39,1.39,0,0,1,339,220.14Z" opacity="0.2"/><path d="M472.84,250.79l-12.23,12.94a1,1,0,0,1-.74.33,1,1,0,0,1-.74-.33l-2.73-2.9a1.1,1.1,0,0,1-.32-.78,1.14,1.14,0,0,1,.32-.79l8.74-9.26-8.74-9.26a1.12,1.12,0,0,1-.32-.79,1.1,1.1,0,0,1,.32-.78l2.73-2.9a1,1,0,0,1,.74-.33,1,1,0,0,1,.74.33l12.23,12.95a1.09,1.09,0,0,1,.31.78A1.13,1.13,0,0,1,472.84,250.79Z" fill="#fff"/><path d="M27.16,249.21l12.23-12.94a1,1,0,0,1,.74-.33,1,1,0,0,1,.74.33l2.73,2.9a1.1,1.1,0,0,1,.32.78,1.14,1.14,0,0,1-.32.79L34.86,250l8.74,9.26a1.12,1.12,0,0,1,.32.79,1.1,1.1,0,0,1-.32.78l-2.73,2.9a1,1,0,0,1-.74.33,1,1,0,0,1-.74-.33l-12.23-13a1.09,1.09,0,0,1-.31-.78A1.13,1.13,0,0,1,27.16,249.21Z" fill="#fff"/><path d="M485,26.91a1.55,1.55,0,0,1-.47,1.13l-2.27,2.27a1.61,1.61,0,0,1-2.27,0L475,25.4l-4.91,4.91a1.53,1.53,0,0,1-1.14.47,1.55,1.55,0,0,1-1.14-.47L465.58,28a1.63,1.63,0,0,1,0-2.27l4.91-4.91L465.58,16a1.55,1.55,0,0,1-.46-1.14,1.58,1.58,0,0,1,.46-1.14l2.27-2.27a1.58,1.58,0,0,1,1.14-.46,1.56,1.56,0,0,1,1.14.46L475,16.31,480,11.4a1.63,1.63,0,0,1,2.27,0l2.27,2.27a1.59,1.59,0,0,1,.47,1.14,1.55,1.55,0,0,1-.47,1.14l-4.91,4.91,4.91,4.91A1.55,1.55,0,0,1,485,26.91Z" fill="#fff"/><g id="4ee9da31-1cde-41aa-b5ce-00dc34ed26e4" data-name="c57a05da-a12d-4341-84b0-9e5a58be08dd"><path d="M167.64,249.5V225.62a6.21,6.21,0,0,1,2.55-4.87,5.26,5.26,0,0,1,5.33,0l44.11,22.73s5,2.24,5,6.49c0,4-5,6.14-5,6.14L175.52,279s-2.92,1.66-5.33.81c-2.94-1-2.55-5.33-2.55-5.33Z" fill="#fff"/></g></g></svg>