<svg xmlns="http://www.w3.org/2000/svg" viewBox="0 0 500 500"><title>jegs</title><g id="48e80832-caed-4984-956c-70582bac4f18" data-name="Layer 5"><rect width="500" height="500" fill="#fff"/></g><g id="4053f290-c0b5-450f-b511-3fc1027350f4" data-name="Jegs"><rect x="72.06" y="373.26" width="83.28" height="69.1" fill="#d6dde6" opacity="0.4"/><rect x="162.93" y="373.26" width="83.28" height="69.1" fill="#d6dde6" opacity="0.4"/><rect x="253.8" y="373.26" width="83.28" height="69.1" fill="#d6dde6" opacity="0.4"/><rect x="344.66" y="373.26" width="83.28" height="69.1" fill="#d6dde6" opacity="0.4"/><rect x="72.06" y="450.45" width="83.28" height="49.55" fill="#d6dde6" opacity="0.4"/><rect x="162.93" y="450.45" width="83.28" height="49.55" fill="#d6dde6" opacity="0.4"/><rect x="253.8" y="450.45" width="83.28" height="49.55" fill="#d6dde6" opacity="0.4"/><rect x="344.66" y="450.45" width="83.28" height="49.55" fill="#d6dde6" opacity="0.4"/><rect width="500" height="13" fill="#7b7c81" opacity="0.75"/><path d="M221.4,24.68h31a1.13,1.13,0,0,1,1.19,1.19v1.19a1.12,1.12,0,0,1-1.19,1.19h-31a1.12,1.12,0,0,1-1.19-1.19V25.87A1.2,1.2,0,0,1,221.4,24.68Z" transform="translate(0)" fill="#d6dde6"/><path d="M264,24.68h31a1.13,1.13,0,0,1,1.19,1.19v1.19A1.12,1.12,0,0,1,295,28.25H264a1.12,1.12,0,0,1-1.19-1.19V25.87A1.2,1.2,0,0,1,264,24.68Z" transform="translate(0)" fill="#d6dde6"/><path d="M306.52,24.68h31a1.13,1.13,0,0,1,1.19,1.19v1.19a1.12,1.12,0,0,1-1.19,1.19h-31a1.12,1.12,0,0,1-1.19-1.19V25.87A1.29,1.29,0,0,1,306.52,24.68Z" transform="translate(0)" fill="#d6dde6"/><path d="M349.14,24.68h30.95a1.12,1.12,0,0,1,1.19,1.19v1.19a1.12,1.12,0,0,1-1.19,1.19H349.14A1.12,1.12,0,0,1,348,27.06V25.87A1.2,1.2,0,0,1,349.14,24.68Z" transform="translate(0)" fill="#d6dde6"/><path d="M393.51,24.68h30.95a1.12,1.12,0,0,1,1.19,1.19v1.19a1.12,1.12,0,0,1-1.19,1.19H393.51a1.12,1.12,0,0,1-1.19-1.19V25.87A1.28,1.28,0,0,1,393.51,24.68Z" transform="translate(0)" fill="#353535" opacity="0.5" style="isolation:isolate"/><path d="M78.17,39.56H121.5c1,0,1.67.47,1.67,1.19v1.19c0,.71-.67,1.19-1.67,1.19H78.17c-1,0-1.66-.48-1.66-1.19V40.75C76.51,40.15,77.34,39.56,78.17,39.56Z" transform="translate(0)" fill="#353535" opacity="0.5" style="isolation:isolate"/><g id="e2976ee9-42e9-4870-9364-0ef517e9e6a0" data-name="rpICIZ.tif"><path d="M105.93,18.28h9.22a1.73,1.73,0,0,1,1.18.79,3.47,3.47,0,0,1,1.32-.68l.48-.11h8.7a1.71,1.71,0,0,1,1.4,1.4v.52c-.34,1.1-.67,2.2-1,3.29a3.29,3.29,0,0,1-.49,1.21.16.16,0,0,0,0,.14,2.8,2.8,0,0,1-.08,1.32c-.61,2-1.21,4-1.83,6a3.69,3.69,0,0,1-1,1.61,3.76,3.76,0,0,1-2.63.94c-2.73,0-5.47,0-8.2,0a1.82,1.82,0,0,1-1.08-.34.31.31,0,0,0-.23,0,3.86,3.86,0,0,1-1.63.35h-7.76a2.64,2.64,0,0,1-1.5-.39.16.16,0,0,0-.24,0,1.6,1.6,0,0,1-1,.36H89.63a1.44,1.44,0,0,1-.51-.08c-.26-.12-.51-.27-.78-.42a3.54,3.54,0,0,1-1.88.49H79.24a4.87,4.87,0,0,1-.65,0,2.41,2.41,0,0,1-2.06-2.48,7.66,7.66,0,0,1,.4-1.78c.42-1.36.83-2.71,1.24-4.07a.29.29,0,0,0,0-.22c-.62-1.24-1.24-2.48-1.87-3.72a1.66,1.66,0,0,1,.34-2,1.63,1.63,0,0,1,2.09-.05l1.46,1c.15-.22.28-.43.42-.63a1.64,1.64,0,0,1,2.71,0c.13.2.26.4.41.61.4-.28.79-.53,1.17-.82a1.93,1.93,0,0,1,1.5-.5l0,0a.41.41,0,0,0,0-.08,1.92,1.92,0,0,1,1.38-1.61h4.64a1.91,1.91,0,0,0,.51.13,1.53,1.53,0,0,0,.45-.13H103.7l.91.37,1.06-.3ZM77.8,21.74v0h0v0s0,0,0,.06l2,4a.24.24,0,0,0,.26.15h3.67A.25.25,0,0,0,84,25.8l2-3.92.08-.21-2.82,2-1.34-2-1.33,2L78,21.83A1.76,1.76,0,0,0,77.8,21.74Zm37.12-1.81h-8.17l-.55,0a1.46,1.46,0,0,0-1.37.86,12.16,12.16,0,0,0-.56,1.41c-.92,2.94-1.82,5.88-2.72,8.82a8.73,8.73,0,0,0-.28,1.12.75.75,0,0,0,.64.91,2,2,0,0,0,.34,0h7c.36,0,.72,0,1.07,0a1.38,1.38,0,0,0,1.18-.68,3.8,3.8,0,0,0,.37-.79c.65-2.08,1.28-4.17,1.92-6.26.06-.21.13-.42.19-.65h-5.51c-.14,0-.18,0-.22.17-.18.63-.38,1.25-.56,1.88s-.33,1.08-.5,1.65h1.67c-.1.33-.18.63-.28.92a.21.21,0,0,1-.16.1h-2.29c0-.08,0-.15,0-.21l1.62-5.32c0-.16.11-.21.28-.21h5.76ZM96.19,24.67c.08-.29.17-.54.23-.8s.14-.23.32-.23h5.38a.24.24,0,0,0,.28-.21c.33-1.1.66-2.2,1-3.3a1.93,1.93,0,0,0,0-.2H93.89a.3.3,0,0,0-.35.25Q91.77,26,90,31.91c-.12.39-.24.77-.36,1.18h9.67c.14,0,.18-.05.22-.18.28-1,.58-1.9.87-2.85.06-.22.13-.44.2-.69H94.75c.08-.28.17-.54.24-.8s.11-.21.28-.21h5.63l1.12-3.7Zm23.34,0c.09-.3.18-.55.25-.81s.12-.22.29-.22h5.18a.24.24,0,0,0,.28-.2c.29-1,.6-2,.91-3l.15-.51-.09,0h-8a1.74,1.74,0,0,0-1.17.46,3.63,3.63,0,0,0-1,1.55c-.26.76-.49,1.53-.73,2.29s-.53,1.75-.77,2.64a1,1,0,0,0,.72,1.34,3.63,3.63,0,0,0,1,.16c1.07,0,2.15,0,3.22,0h.25c-.08.28-.17.52-.23.78s-.14.25-.35.25h-5.29a.26.26,0,0,0-.3.22c-.16.56-.33,1.12-.5,1.67s-.36,1.2-.55,1.81h7.32c.38,0,.76,0,1.14,0a2,2,0,0,0,1.88-1.32c0-.13.09-.27.13-.41.57-1.86,1.14-3.72,1.69-5.58.23-.76,0-1.08-.84-1.08h-4.67ZM83.69,27H79.85c-.14,0-.18.06-.21.18-.45,1.5-.91,3-1.35,4.49a2.37,2.37,0,0,0-.09.65.69.69,0,0,0,.57.72,1.84,1.84,0,0,0,.41.05h7.15a2,2,0,0,0,2-1.18A15,15,0,0,0,89,30.21q1.45-4.71,2.89-9.43c.08-.27.16-.55.25-.83l-.11,0c-1.24,0-2.48,0-3.72,0-.16,0-.19.09-.22.2q-1,3.27-2,6.53l-.83,2.72H83Z" transform="translate(0)" fill="#4b616b"/><path d="M87.82,18.28a1.92,1.92,0,0,0-1.38,1.61.41.41,0,0,1,0,.08l0,0a1.93,1.93,0,0,0-1.5.5c-.38.29-.77.54-1.17.82-.15-.21-.28-.41-.41-.61a1.64,1.64,0,0,0-2.71,0c-.14.2-.27.41-.42.63l-1.46-1a1.63,1.63,0,0,0-2.09.05,1.66,1.66,0,0,0-.34,2c.63,1.24,1.25,2.48,1.87,3.72a.29.29,0,0,1,0,.22c-.41,1.36-.82,2.71-1.24,4.07a7.66,7.66,0,0,0-.4,1.78,2.41,2.41,0,0,0,2.06,2.48,4.87,4.87,0,0,0,.65,0h7.22a3.54,3.54,0,0,0,1.88-.49c.27.15.52.3.78.42a1.44,1.44,0,0,0,.51.08h9.82a1.6,1.6,0,0,0,1-.36.16.16,0,0,1,.24,0,2.64,2.64,0,0,0,1.5.39H110a3.86,3.86,0,0,0,1.63-.35.31.31,0,0,1,.23,0,1.82,1.82,0,0,0,1.08.34c2.73,0,5.47,0,8.2,0a3.76,3.76,0,0,0,2.63-.94,3.69,3.69,0,0,0,1-1.61c.62-2,1.22-4,1.83-6a2.8,2.8,0,0,0,.08-1.32.16.16,0,0,1,0-.14,3.29,3.29,0,0,0,.49-1.21c.34-1.09.67-2.19,1-3.29V34.76H76V18.28Z" transform="translate(0)" fill="#fefefe"/><path d="M118.13,18.28l-.48.11a3.47,3.47,0,0,0-1.32.68,1.73,1.73,0,0,0-1.18-.79Z" transform="translate(0)" fill="#f7f7f8"/><path d="M128.23,19.68a1.71,1.71,0,0,0-1.4-1.4h1.4Z" transform="translate(0)" fill="#f7f7f7"/><path d="M105.93,18.28l-.26.07-1.06.3-.91-.37Z" transform="translate(0)" fill="#f6f6f7"/><path d="M93.42,18.28a1.53,1.53,0,0,1-.45.13,1.91,1.91,0,0,1-.51-.13Z" transform="translate(0)" fill="#eff0f1"/><path d="M114.92,19.93l-1.13,3.72H108c-.17,0-.24.05-.28.21l-1.62,5.32c0,.06,0,.13,0,.21h2.29a.21.21,0,0,0,.16-.1c.1-.29.18-.59.28-.92h-1.67c.17-.57.33-1.11.5-1.65s.38-1.25.56-1.88c0-.12.08-.17.22-.17h5.51c-.06.23-.13.44-.19.65-.64,2.09-1.27,4.18-1.92,6.26a3.8,3.8,0,0,1-.37.79,1.38,1.38,0,0,1-1.18.68c-.35,0-.71,0-1.07,0h-7a2,2,0,0,1-.34,0,.75.75,0,0,1-.64-.91,8.73,8.73,0,0,1,.28-1.12c.9-2.94,1.8-5.88,2.72-8.82a12.16,12.16,0,0,1,.56-1.41A1.46,1.46,0,0,1,106.2,20l.55,0h8.17Z" transform="translate(0)" fill="#fde555"/><path d="M96.19,24.67H102l-1.12,3.7H95.27c-.17,0-.25.05-.28.21s-.16.52-.24.8h5.83c-.07.25-.14.47-.2.69-.29.95-.59,1.9-.87,2.85,0,.13-.08.18-.22.18H89.62c.12-.41.24-.79.36-1.18Q91.77,26,93.54,20.18a.3.3,0,0,1,.35-.25h9.56a1.93,1.93,0,0,1,0,.2c-.34,1.1-.67,2.2-1,3.3a.24.24,0,0,1-.28.21H96.74c-.18,0-.27,0-.32.23S96.27,24.38,96.19,24.67Z" transform="translate(0)" fill="#fde555"/><path d="M119.53,24.67h4.67c.8,0,1.07.32.84,1.08-.55,1.86-1.12,3.72-1.69,5.58,0,.14-.08.28-.13.41a2,2,0,0,1-1.88,1.32c-.38,0-.76,0-1.14,0h-7.32c.19-.61.37-1.21.55-1.81s.34-1.11.5-1.67a.26.26,0,0,1,.3-.22h5.29c.21,0,.31-.05.35-.25s.15-.5.23-.78h-.25c-1.07,0-2.15,0-3.22,0a3.63,3.63,0,0,1-1-.16,1,1,0,0,1-.72-1.34c.24-.89.51-1.76.77-2.64s.47-1.53.73-2.29a3.63,3.63,0,0,1,1-1.55,1.74,1.74,0,0,1,1.17-.46h8l.09,0-.15.51c-.31,1-.62,2-.91,3a.24.24,0,0,1-.28.2h-5.18c-.17,0-.25,0-.29.22S119.62,24.37,119.53,24.67Z" transform="translate(0)" fill="#fde555"/><path d="M83.69,27,83,29.38h2.28l.83-2.72q1-3.26,2-6.53c0-.11.06-.2.22-.2,1.24,0,2.48,0,3.72,0l.11,0c-.09.28-.17.56-.25.83Q90.45,25.51,89,30.21a15,15,0,0,1-.71,1.71,2,2,0,0,1-2,1.18H79.18a1.84,1.84,0,0,1-.41-.05.69.69,0,0,1-.57-.72,2.37,2.37,0,0,1,.09-.65c.44-1.49.9-3,1.35-4.49,0-.12.07-.18.21-.18h3.84Z" transform="translate(0)" fill="#fde555"/><path d="M77.8,21.74a1.76,1.76,0,0,1,.2.09l2.6,1.81,1.33-2,1.34,2,2.82-2-.08.21L84,25.8a.25.25,0,0,1-.26.16H80.1a.24.24,0,0,1-.26-.15l-2-4s0,0,0-.06Z" transform="translate(0)" fill="#fbe455"/><path d="M77.8,21.74v0h0v0Z" transform="translate(0)" fill="#fbe455"/></g><rect x="18.35" y="50" width="463.3" height="32" fill="#353535" opacity="0.5"/><rect x="18.35" y="331" width="463.3" height="22.1" fill="#353535" opacity="0.5"/><polygon points="72.06 274.67 185 263.67 185 312.36 72.06 312.36 72.06 274.67" fill="#d6dde6" opacity="0.75"/><polygon points="193.53 262.67 306.47 252.33 306.47 312.36 193.53 312.36 193.53 262.67" fill="#d6dde6" opacity="0.75"/><polygon points="481.65 226 18.35 272 18.35 82 481.65 82 481.65 226" fill="#d6dde6" opacity="0.4"/><polygon points="427.94 231.33 72.06 266.67 72.06 82 427.94 82 427.94 231.33" fill="#d6dde6" opacity="0.75"/><polygon points="315 171.07 427.94 160.74 427.94 312.36 315 312.36 315 171.07" fill="#837f7f"/><path d="M82.22,189.25H186.78a2,2,0,0,1,2.22,1.83v1.82a2,2,0,0,1-2.22,1.83H82.22A2,2,0,0,1,80,192.9v-1.82A2.21,2.21,0,0,1,82.22,189.25Z" transform="translate(0)" fill="#fff"/><path d="M324.08,36H424.79a2.18,2.18,0,0,1,2.15,2.32v2.33A2.19,2.19,0,0,1,424.79,43H324.08a2.18,2.18,0,0,1-2.14-2.33V38.34A2.4,2.4,0,0,1,324.08,36Z" transform="translate(0)" fill="#d6dde6"/><g opacity="0.85"><path d="M324.92,196H418c1.08,0,2,1.33,2,3.32v3.31c0,2-.9,3.32-2,3.32h-93.1c-1.08,0-2-1.33-2-3.32v-3.31C323,197.65,323.84,196,324.92,196Z" transform="translate(0)" fill="#fff"/><path d="M324.92,220H418c1.08,0,2,1.33,2,3.32v3.31c0,2-.9,3.32-2,3.32h-93.1c-1.08,0-2-1.33-2-3.32v-3.31C323,221.65,323.84,220,324.92,220Z" transform="translate(0)" fill="#fff"/><path d="M324.92,244H418c1.08,0,2,1.33,2,3.32v3.31c0,2-.9,3.32-2,3.32h-93.1c-1.08,0-2-1.33-2-3.32v-3.31C323,245.65,323.84,244,324.92,244Z" transform="translate(0)" fill="#fff"/></g><path d="M324.92,266H418c1.08,0,2,2.07,2,5.17v5.17c0,3.1-.9,5.17-2,5.17h-93.1c-1.08,0-2-2.07-2-5.17v-5.17C323,268.57,323.84,266,324.92,266Z" transform="translate(0)" fill="#fbee39"/><path d="M77.56,58.72h46.55c.54,0,1,.73,1,1.82v1.81c0,1.09-.45,1.82-1,1.82H77.56c-.54,0-1-.73-1-1.82V60.54C76.61,59.63,77,58.72,77.56,58.72Z" transform="translate(0)" fill="#fbee39"/><path d="M77.56,69.72h46.55c.54,0,1,.55,1,1.38v1.37c0,.82-.45,1.37-1,1.37H77.56c-.54,0-1-.55-1-1.37V71.1C76.61,70.41,77,69.72,77.56,69.72Z" transform="translate(0)" fill="#fff" opacity="0.85"/><path d="M137.22,58.72h46.56c.54,0,1,.73,1,1.82v1.81c0,1.09-.45,1.82-1,1.82H137.22c-.54,0-1-.73-1-1.82V60.54C136.28,59.63,136.68,58.72,137.22,58.72Z" transform="translate(0)" fill="#fbee39"/><path d="M137.22,69.72h46.56c.54,0,1,.55,1,1.38v1.37c0,.82-.45,1.37-1,1.37H137.22c-.54,0-1-.55-1-1.37V71.1C136.28,70.41,136.68,69.72,137.22,69.72Z" transform="translate(0)" fill="#fff" opacity="0.85"/><path d="M196.89,58.72h46.55c.54,0,1,.73,1,1.82v1.81c0,1.09-.45,1.82-1,1.82H196.89c-.54,0-1-.73-1-1.82V60.54C196,59.63,196.35,58.72,196.89,58.72Z" transform="translate(0)" fill="#fbee39"/><path d="M196.89,69.72h46.55c.54,0,1,.55,1,1.38v1.37c0,.82-.45,1.37-1,1.37H196.89c-.54,0-1-.55-1-1.37V71.1C196,70.41,196.35,69.72,196.89,69.72Z" transform="translate(0)" fill="#fff" opacity="0.85"/><path d="M256.56,58.72h46.55c.54,0,1,.73,1,1.82v1.81c0,1.09-.45,1.82-1,1.82H256.56c-.54,0-1-.73-1-1.82V60.54C255.61,59.63,256,58.72,256.56,58.72Z" transform="translate(0)" fill="#fbee39"/><path d="M256.56,69.72h46.55c.54,0,1,.55,1,1.38v1.37c0,.82-.45,1.37-1,1.37H256.56c-.54,0-1-.55-1-1.37V71.1C255.61,70.41,256,69.72,256.56,69.72Z" transform="translate(0)" fill="#fff" opacity="0.85"/><path d="M316.22,58.72h46.56c.54,0,1,.73,1,1.82v1.81c0,1.09-.45,1.82-1,1.82H316.22c-.54,0-1-.73-1-1.82V60.54C315.28,59.63,315.68,58.72,316.22,58.72Z" transform="translate(0)" fill="#fbee39"/><path d="M316.22,69.72h46.56c.54,0,1,.55,1,1.38v1.37c0,.82-.45,1.37-1,1.37H316.22c-.54,0-1-.55-1-1.37V71.1C315.28,70.41,315.68,69.72,316.22,69.72Z" transform="translate(0)" fill="#fff" opacity="0.85"/><path d="M375.89,58.72h46.55c.54,0,1,.73,1,1.82v1.81c0,1.09-.45,1.82-1,1.82H375.89c-.54,0-1-.73-1-1.82V60.54C375,59.63,375.35,58.72,375.89,58.72Z" transform="translate(0)" fill="#fbee39"/><path d="M375.89,69.72h46.55c.54,0,1,.55,1,1.38v1.37c0,.82-.45,1.37-1,1.37H375.89c-.54,0-1-.55-1-1.37V71.1C375,70.41,375.35,69.72,375.89,69.72Z" transform="translate(0)" fill="#fff" opacity="0.85"/><rect x="72.06" y="373.26" width="83.28" height="17.74" fill="#353535" opacity="0.5"/><rect x="72.06" y="205.94" width="126.27" height="12.77" fill="#353535" opacity="0.5"/><rect x="162.93" y="373.26" width="83.28" height="17.74" fill="#353535" opacity="0.5"/><rect x="253.8" y="373.26" width="83.28" height="17.74" fill="#353535" opacity="0.5"/><rect x="344.66" y="373.26" width="83.28" height="17.74" fill="#353535" opacity="0.5"/><rect x="344.66" y="451.9" width="83.28" height="17.74" fill="#353535" opacity="0.5"/><rect x="253.8" y="451.9" width="83.28" height="17.74" fill="#353535" opacity="0.5"/><rect x="162.93" y="451.9" width="83.28" height="17.74" fill="#353535" opacity="0.5"/><rect x="72.06" y="451.9" width="83.28" height="17.74" fill="#353535" opacity="0.5"/><g opacity="0.85"><path d="M81.37,379.39h64.26c.75,0,1.37.73,1.37,1.83V383c0,1.1-.62,1.83-1.37,1.83H81.37c-.75,0-1.37-.73-1.37-1.83v-1.82C80.06,380.3,80.62,379.39,81.37,379.39Z" transform="translate(0)" fill="#fff"/><path d="M172.43,379.39H236.7c.75,0,1.37.73,1.37,1.83V383c0,1.1-.62,1.83-1.37,1.83H172.43c-.74,0-1.36-.73-1.36-1.83v-1.82C171.13,380.3,171.69,379.39,172.43,379.39Z" transform="translate(0)" fill="#fff"/><path d="M263.3,379.39h64.27c.74,0,1.36.73,1.36,1.83V383c0,1.1-.62,1.83-1.36,1.83H263.3c-.75,0-1.37-.73-1.37-1.83v-1.82C262,380.3,262.55,379.39,263.3,379.39Z" transform="translate(0)" fill="#fff"/><path d="M354.17,379.39h64.26c.75,0,1.37.73,1.37,1.83V383c0,1.1-.62,1.83-1.37,1.83H354.17c-.75,0-1.37-.73-1.37-1.83v-1.82C352.86,380.3,353.42,379.39,354.17,379.39Z" transform="translate(0)" fill="#fff"/><path d="M354.17,458h64.26c.75,0,1.37.73,1.37,1.83v1.82c0,1.1-.62,1.83-1.37,1.83H354.17c-.75,0-1.37-.73-1.37-1.83v-1.82C352.86,459,353.42,458,354.17,458Z" transform="translate(0)" fill="#fff"/><path d="M263.3,458h64.27c.74,0,1.36.73,1.36,1.83v1.82c0,1.1-.62,1.83-1.36,1.83H263.3c-.75,0-1.37-.73-1.37-1.83v-1.82C262,459,262.55,458,263.3,458Z" transform="translate(0)" fill="#fff"/><path d="M172.43,458H236.7c.75,0,1.37.73,1.37,1.83v1.82c0,1.1-.62,1.83-1.37,1.83H172.43c-.74,0-1.36-.73-1.36-1.83v-1.82C171.13,459,171.69,458,172.43,458Z" transform="translate(0)" fill="#fff"/><path d="M81.37,458h64.26c.75,0,1.37.73,1.37,1.83v1.82c0,1.1-.62,1.83-1.37,1.83H81.37c-.75,0-1.37-.73-1.37-1.83v-1.82C80.06,459,80.62,458,81.37,458Z" transform="translate(0)" fill="#fff"/></g></g></svg>