<svg id="42e4edb4-9a3e-4d2a-a7ee-97a049817027" data-name="8ffd8f6c-c660-4530-8cda-6317c793ace8" xmlns="http://www.w3.org/2000/svg" viewBox="0 0 286.35 90.15"><title>jegs-logo</title><path d="M264.26,35H238.55l1.7-5.61h30.84L277.37,9h-44.2c-9.53,0-12.17,11-15,20.51l-4.86,16.14c-1.35,4.48-1.35,9.78,10.33,9.78h18L239.89,61H208.14l-6.2,20.27h41.13c9.23,0,12.89-1,15.89-7.88,1.75-5.85,7.84-25.19,9.75-32C269.49,38.62,270.1,35,264.26,35Z" transform="translate(0.13 0)" fill="#fff036"/><polygon points="110.48 34.99 112.19 29.41 144.25 29.41 150.46 9.02 96.39 9.02 74.38 81.23 128.44 81.23 134.65 60.88 102.59 60.88 104.28 55.31 136.35 55.38 142.54 34.99 110.48 34.99" fill="#fff036"/><path d="M176.59,35l-6.18,20.41h9.22l-1.69,5.54H164.62l9.57-31.46H207L213.22,9H170.41c-11.48,0-12,0-18.26,20.41L138.67,73.55c-1.63,5.57.81,7.74,4.89,7.74h36.89c9.92,0,12.64,0,15.64-7.88L207.84,35Z" transform="translate(0.13 0)" fill="#fff036"/><polygon points="43.31 42.12 55.31 18.34 39.55 29.34 32.22 18.34 24.88 29.34 9.13 18.34 21.13 42.12 43.31 42.12" fill="#fff036"/><path d="M66.2,9,50.38,60.82H37.89l3.94-13H19.75L12,73.5c-1.63,5.57.82,7.74,4.89,7.74l36,0c9.92,0,13.31,0,19.52-20.39L88.2,9Z" transform="translate(0.13 0)" fill="#fff036"/><path d="M267.49,75.91c.62-2,8.61-27.82,9.8-32.23s.86-6.41.45-8.33a8.77,8.77,0,0,0,1.87-3.23l6.13-20.28a8.86,8.86,0,0,0-1.66-8.67A9,9,0,0,0,276.83,0H233.75A18.83,18.83,0,0,0,220.9,4.4,8.87,8.87,0,0,0,213.06,0H168.75c-2.75,0-8-.09-12.31,2.43A9,9,0,0,0,150.28,0H96.64a9,9,0,0,0-4.43,1A8.41,8.41,0,0,0,88,0H66.47a9,9,0,0,0-8.79,6.2c-.77,2.53-1,3.3-1,3.3A8.88,8.88,0,0,0,50,11c-3.35,2.35-8.23,5.74-8.23,5.74l-2.35-3.53a8.92,8.92,0,0,0-14.79.16l-2.26,3.37-8-5.61A8.92,8.92,0,0,0,1,22.45c1.73,3.37,10.73,21.3,10.73,21.3a11,11,0,0,0-.62,1.53C10.89,46,4.6,66.77,4,68.82a25.93,25.93,0,0,0-1.53,7.66,13.53,13.53,0,0,0,3.31,9.11c2.47,2.82,6.2,4.55,11.32,4.55H54.21c4.42,0,9.06-.26,13.36-3a9.09,9.09,0,0,0,6.59,3h54.09a8.81,8.81,0,0,0,6.39-2.61,14.68,14.68,0,0,0,8.55,2.61h40.63c4.38,0,8.64-.51,12-2.4a9.35,9.35,0,0,0,5.78,2.4h43.86c4.42-.07,10-.64,14.18-3.59C263.75,83.86,266.38,79.1,267.49,75.91ZM9,18.34l15.75,11,7.34-11,7.34,11,15.76-11-12,23.78H21ZM72.4,60.9c-6.21,20.39-9.6,20.39-19.52,20.39l-36,0c-4.07,0-6.52-2.17-4.89-7.74l7.76-25.68H41.83l-3.94,13H50.38L66.2,9h22Zm31.75-5.58-1.69,5.57h32.06l-6.2,20.35H74.25L96.26,9h54.07l-6.21,20.39H112.06L110.36,35h32.06l-6.2,20.39Zm76.3,26H143.56c-4.08,0-6.52-2.17-4.89-7.74l13.48-44.12C158.41,9,158.93,9,170.41,9h42.81L207,29.45H174.19l-9.57,31.46h13.32l1.69-5.54h-9.22L176.59,35h31.25L196.09,73.41C193.09,81.29,190.37,81.29,180.45,81.29Zm62.62,0H201.94L208.14,61h31.75l1.7-5.57h-18c-11.68,0-11.68-5.3-10.33-9.78l4.86-16.14C221,20,223.64,9,233.17,9h44.2l-6.28,20.39H240.25L238.55,35h25.71c5.84,0,5.23,3.6,4.45,6.39-1.91,6.81-8,26.15-9.75,32C256,80.34,252.3,81.29,243.07,81.29Z" transform="translate(0.13 0)" fill="#3a4550"/></svg>