<svg xmlns="http://www.w3.org/2000/svg" viewBox="0 0 500 500">
  <path fill="#fff" d="M0 0h500v500H0z" data-name="Layer 5"/>
  <g data-name="Jegs">
    <path fill="#d6dde6" opacity=".4" d="M72.06 373.26h83.28v69.1H72.06zM162.93 373.26h83.28v69.1h-83.28zM253.8 373.26h83.28v69.1H253.8zM344.66 373.26h83.28v69.1h-83.28zM72.06 450.45h83.28V500H72.06zM162.93 450.45h83.28V500h-83.28zM253.8 450.45h83.28V500H253.8zM344.66 450.45h83.28V500h-83.28z"/>
    <path fill="#7b7c81" opacity=".75" d="M0 0h500v13H0z"/>
    <path d="M221.4 24.68h31a1.13 1.13 0 0 1 1.19 1.19v1.19a1.12 1.12 0 0 1-1.19 1.19h-31a1.12 1.12 0 0 1-1.19-1.19v-1.19a1.2 1.2 0 0 1 1.19-1.19zM264 24.68h31a1.13 1.13 0 0 1 1.19 1.19v1.19a1.12 1.12 0 0 1-1.19 1.19h-31a1.12 1.12 0 0 1-1.19-1.19v-1.19a1.2 1.2 0 0 1 1.19-1.19zM306.52 24.68h31a1.13 1.13 0 0 1 1.19 1.19v1.19a1.12 1.12 0 0 1-1.19 1.19h-31a1.12 1.12 0 0 1-1.19-1.19v-1.19a1.29 1.29 0 0 1 1.19-1.19zM349.14 24.68h30.95a1.12 1.12 0 0 1 1.19 1.19v1.19a1.12 1.12 0 0 1-1.19 1.19h-30.95a1.12 1.12 0 0 1-1.14-1.19v-1.19a1.2 1.2 0 0 1 1.14-1.19z" fill="#d6dde6"/>
    <path d="M393.51 24.68h30.95a1.12 1.12 0 0 1 1.19 1.19v1.19a1.12 1.12 0 0 1-1.19 1.19h-30.95a1.12 1.12 0 0 1-1.19-1.19v-1.19a1.28 1.28 0 0 1 1.19-1.19zM78.17 39.56h43.33c1 0 1.67.47 1.67 1.19v1.19c0 .71-.67 1.19-1.67 1.19H78.17c-1 0-1.66-.48-1.66-1.19v-1.19c0-.6.83-1.19 1.66-1.19z" fill="#353535" opacity=".5" style="isolation:isolate"/>
    <g data-name="rpICIZ.tif">
      <path d="M105.93 18.28h9.22a1.73 1.73 0 0 1 1.18.79 3.47 3.47 0 0 1 1.32-.68l.48-.11h8.7a1.71 1.71 0 0 1 1.4 1.4v.52c-.34 1.1-.67 2.2-1 3.29a3.29 3.29 0 0 1-.49 1.21.16.16 0 0 0 0 .14 2.8 2.8 0 0 1-.08 1.32c-.61 2-1.21 4-1.83 6a3.69 3.69 0 0 1-1 1.61 3.76 3.76 0 0 1-2.63.94H113a1.82 1.82 0 0 1-1.08-.34.31.31 0 0 0-.23 0 3.86 3.86 0 0 1-1.63.35h-7.76a2.64 2.64 0 0 1-1.5-.39.16.16 0 0 0-.24 0 1.6 1.6 0 0 1-1 .36h-9.93a1.44 1.44 0 0 1-.51-.08c-.26-.12-.51-.27-.78-.42a3.54 3.54 0 0 1-1.88.49h-7.22a4.87 4.87 0 0 1-.65 0 2.41 2.41 0 0 1-2.06-2.48 7.66 7.66 0 0 1 .4-1.78c.42-1.36.83-2.71 1.24-4.07a.29.29 0 0 0 0-.22c-.62-1.24-1.24-2.48-1.87-3.72a1.66 1.66 0 0 1 .34-2 1.63 1.63 0 0 1 2.09-.05l1.46 1c.15-.22.28-.43.42-.63a1.64 1.64 0 0 1 2.71 0c.13.2.26.4.41.61.4-.28.79-.53 1.17-.82a1.93 1.93 0 0 1 1.5-.5.41.41 0 0 0 0-.08 1.92 1.92 0 0 1 1.38-1.61h4.64a1.91 1.91 0 0 0 .51.13 1.53 1.53 0 0 0 .45-.13h10.32l.91.37 1.06-.3zM77.8 21.74v.06l2 4a.24.24 0 0 0 .26.15h3.67a.25.25 0 0 0 .27-.15l2-3.92.08-.21-2.82 2-1.34-2-1.33 2L78 21.83a1.76 1.76 0 0 0-.2-.09zm37.12-1.81h-8.72a1.46 1.46 0 0 0-1.37.86 12.16 12.16 0 0 0-.56 1.41c-.92 2.94-1.82 5.88-2.72 8.82a8.73 8.73 0 0 0-.28 1.12.75.75 0 0 0 .64.91 2 2 0 0 0 .34 0h8.07a1.38 1.38 0 0 0 1.18-.68 3.8 3.8 0 0 0 .37-.79c.65-2.08 1.28-4.17 1.92-6.26.06-.21.13-.42.19-.65h-5.51c-.14 0-.18 0-.22.17-.18.63-.38 1.25-.56 1.88s-.33 1.08-.5 1.65h1.67c-.1.33-.18.63-.28.92a.21.21 0 0 1-.16.1h-2.29v-.21l1.62-5.32c0-.16.11-.21.28-.21h5.76zm-18.73 4.74c.08-.29.17-.54.23-.8s.14-.23.32-.23h5.38a.24.24 0 0 0 .28-.21c.33-1.1.66-2.2 1-3.3a1.93 1.93 0 0 0 0-.2h-9.51a.3.3 0 0 0-.35.25Q91.77 26 90 31.91c-.12.39-.24.77-.36 1.18h9.67c.14 0 .18-.05.22-.18.28-1 .58-1.9.87-2.85.06-.22.13-.44.2-.69h-5.85c.08-.28.17-.54.24-.8s.11-.21.28-.21h5.63l1.12-3.7zm23.34 0c.09-.3.18-.55.25-.81s.12-.22.29-.22h5.18a.24.24 0 0 0 .28-.2c.29-1 .6-2 .91-3l.15-.51h-8.09a1.74 1.74 0 0 0-1.17.46 3.63 3.63 0 0 0-1 1.55c-.26.76-.49 1.53-.73 2.29s-.53 1.75-.77 2.64a1 1 0 0 0 .72 1.34 3.63 3.63 0 0 0 1 .16h3.47c-.08.28-.17.52-.23.78s-.14.25-.35.25h-5.29a.26.26 0 0 0-.3.22c-.16.56-.33 1.12-.5 1.67s-.36 1.2-.55 1.81h8.46a2 2 0 0 0 1.88-1.32c0-.13.09-.27.13-.41.57-1.86 1.14-3.72 1.69-5.58.23-.76 0-1.08-.84-1.08h-4.67zM83.69 27h-3.84c-.14 0-.18.06-.21.18-.45 1.5-.91 3-1.35 4.49a2.37 2.37 0 0 0-.09.65.69.69 0 0 0 .57.72 1.84 1.84 0 0 0 .41.05h7.15a2 2 0 0 0 2-1.18 15 15 0 0 0 .67-1.7q1.45-4.71 2.89-9.43c.08-.27.16-.55.25-.83h-3.83c-.16 0-.19.09-.22.2q-1 3.27-2 6.53l-.83 2.72H83z" fill="#4b616b"/>
      <path d="M87.82 18.28a1.92 1.92 0 0 0-1.38 1.61.41.41 0 0 1 0 .08 1.93 1.93 0 0 0-1.5.5c-.38.29-.77.54-1.17.82-.15-.21-.28-.41-.41-.61a1.64 1.64 0 0 0-2.71 0c-.14.2-.27.41-.42.63l-1.46-1a1.63 1.63 0 0 0-2.09.05 1.66 1.66 0 0 0-.34 2c.63 1.24 1.25 2.48 1.87 3.72a.29.29 0 0 1 0 .22c-.41 1.36-.82 2.71-1.24 4.07a7.66 7.66 0 0 0-.4 1.78 2.41 2.41 0 0 0 2.06 2.48 4.87 4.87 0 0 0 .65 0h7.22a3.54 3.54 0 0 0 1.88-.49c.27.15.52.3.78.42a1.44 1.44 0 0 0 .51.08h9.82a1.6 1.6 0 0 0 1-.36.16.16 0 0 1 .24 0 2.64 2.64 0 0 0 1.5.39H110a3.86 3.86 0 0 0 1.63-.35.31.31 0 0 1 .23 0 1.82 1.82 0 0 0 1.08.34h8.2a3.76 3.76 0 0 0 2.63-.94 3.69 3.69 0 0 0 1-1.61c.62-2 1.22-4 1.83-6a2.8 2.8 0 0 0 .08-1.32.16.16 0 0 1 0-.14 3.29 3.29 0 0 0 .49-1.21c.34-1.09.67-2.19 1-3.29v14.61H76V18.28z" fill="#fefefe"/>
      <path d="M118.13 18.28l-.48.11a3.47 3.47 0 0 0-1.32.68 1.73 1.73 0 0 0-1.18-.79z" fill="#f7f7f8"/>
      <path d="M128.23 19.68a1.71 1.71 0 0 0-1.4-1.4h1.4z" fill="#f7f7f7"/>
      <path d="M105.93 18.28l-.26.07-1.06.3-.91-.37z" fill="#f6f6f7"/>
      <path d="M93.42 18.28a1.53 1.53 0 0 1-.45.13 1.91 1.91 0 0 1-.51-.13z" fill="#eff0f1"/>
      <path d="M114.92 19.93l-1.13 3.72H108c-.17 0-.24.05-.28.21l-1.62 5.32v.21h2.29a.21.21 0 0 0 .16-.1c.1-.29.18-.59.28-.92h-1.67c.17-.57.33-1.11.5-1.65s.38-1.25.56-1.88c0-.12.08-.17.22-.17h5.51c-.06.23-.13.44-.19.65-.64 2.09-1.27 4.18-1.92 6.26a3.8 3.8 0 0 1-.37.79 1.38 1.38 0 0 1-1.18.68h-8.07a2 2 0 0 1-.34 0 .75.75 0 0 1-.64-.91 8.73 8.73 0 0 1 .28-1.12c.9-2.94 1.8-5.88 2.72-8.82a12.16 12.16 0 0 1 .56-1.41 1.46 1.46 0 0 1 1.4-.79h8.72zM96.19 24.67H102l-1.12 3.7h-5.61c-.17 0-.25.05-.28.21s-.16.52-.24.8h5.83c-.07.25-.14.47-.2.69-.29.95-.59 1.9-.87 2.85 0 .13-.08.18-.22.18h-9.67c.12-.41.24-.79.36-1.18q1.79-5.92 3.56-11.74a.3.3 0 0 1 .35-.25h9.56a1.93 1.93 0 0 1 0 .2c-.34 1.1-.67 2.2-1 3.3a.24.24 0 0 1-.28.21h-5.43c-.18 0-.27 0-.32.23s-.15.51-.23.8zM119.53 24.67h4.67c.8 0 1.07.32.84 1.08-.55 1.86-1.12 3.72-1.69 5.58 0 .14-.08.28-.13.41a2 2 0 0 1-1.88 1.32h-8.46c.19-.61.37-1.21.55-1.81s.34-1.11.5-1.67a.26.26 0 0 1 .3-.22h5.29c.21 0 .31-.05.35-.25s.15-.5.23-.78h-3.47a3.63 3.63 0 0 1-1-.16 1 1 0 0 1-.72-1.34c.24-.89.51-1.76.77-2.64s.47-1.53.73-2.29a3.63 3.63 0 0 1 1-1.55 1.74 1.74 0 0 1 1.17-.46h8.09l-.15.51c-.31 1-.62 2-.91 3a.24.24 0 0 1-.28.2h-5.18c-.17 0-.25 0-.29.22s-.24.55-.33.85zM83.69 27L83 29.38h2.28l.83-2.72q1-3.26 2-6.53c0-.11.06-.2.22-.2h3.83c-.09.28-.17.56-.25.83q-1.46 4.75-2.91 9.45a15 15 0 0 1-.71 1.71 2 2 0 0 1-2 1.18h-7.11a1.84 1.84 0 0 1-.41-.05.69.69 0 0 1-.57-.72 2.37 2.37 0 0 1 .09-.65c.44-1.49.9-3 1.35-4.49 0-.12.07-.18.21-.18h3.84z" fill="#fde555"/>
      <path d="M77.8 21.74a1.76 1.76 0 0 1 .2.09l2.6 1.81 1.33-2 1.34 2 2.82-2-.08.21L84 25.8a.25.25 0 0 1-.26.16H80.1a.24.24 0 0 1-.26-.15l-2-4v-.06zM77.8 21.74z" fill="#fbe455"/>
    </g>
    <path fill="#353535" opacity=".5" d="M18.35 50h463.3v32H18.35zM18.35 331h463.3v22.1H18.35z"/>
    <path fill="#d6dde6" opacity=".75" d="M72.06 274.67l112.94-11v48.69H72.06v-37.69zM193.53 262.67l112.94-10.34v60.03H193.53v-49.69z"/>
    <path fill="#d6dde6" opacity=".4" d="M481.65 226l-463.3 46V82h463.3v144z"/>
    <path fill="#d6dde6" opacity=".75" d="M427.94 231.33L72.06 266.67V82h355.88v149.33z"/>
    <path fill="#837f7f" d="M315 171.07l112.94-10.33v151.62H315V171.07z"/>
    <path d="M82.22 189.25h104.56a2 2 0 0 1 2.22 1.83v1.82a2 2 0 0 1-2.22 1.83H82.22A2 2 0 0 1 80 192.9v-1.82a2.21 2.21 0 0 1 2.22-1.83z" fill="#fff"/>
    <path d="M324.08 36h100.71a2.18 2.18 0 0 1 2.15 2.32v2.33a2.19 2.19 0 0 1-2.15 2.35H324.08a2.18 2.18 0 0 1-2.14-2.33v-2.33a2.4 2.4 0 0 1 2.14-2.34z" fill="#d6dde6"/>
    <g opacity=".85" fill="#fff">
      <path d="M324.92 196H418c1.08 0 2 1.33 2 3.32v3.31c0 2-.9 3.32-2 3.32h-93.1c-1.08 0-2-1.33-2-3.32v-3.31c.1-1.67.94-3.32 2.02-3.32zM324.92 220H418c1.08 0 2 1.33 2 3.32v3.31c0 2-.9 3.32-2 3.32h-93.1c-1.08 0-2-1.33-2-3.32v-3.31c.1-1.67.94-3.32 2.02-3.32zM324.92 244H418c1.08 0 2 1.33 2 3.32v3.31c0 2-.9 3.32-2 3.32h-93.1c-1.08 0-2-1.33-2-3.32v-3.31c.1-1.67.94-3.32 2.02-3.32z"/>
    </g>
    <path d="M324.92 266H418c1.08 0 2 2.07 2 5.17v5.17c0 3.1-.9 5.17-2 5.17h-93.1c-1.08 0-2-2.07-2-5.17v-5.17c.1-2.6.94-5.17 2.02-5.17zM77.56 58.72h46.55c.54 0 1 .73 1 1.82v1.81c0 1.09-.45 1.82-1 1.82H77.56c-.54 0-1-.73-1-1.82v-1.81c.05-.91.44-1.82 1-1.82z" fill="#fbee39"/>
    <path d="M77.56 69.72h46.55c.54 0 1 .55 1 1.38v1.37c0 .82-.45 1.37-1 1.37H77.56c-.54 0-1-.55-1-1.37V71.1c.05-.69.44-1.38 1-1.38z" fill="#fff" opacity=".85"/>
    <path d="M137.22 58.72h46.56c.54 0 1 .73 1 1.82v1.81c0 1.09-.45 1.82-1 1.82h-46.56c-.54 0-1-.73-1-1.82v-1.81c.06-.91.46-1.82 1-1.82z" fill="#fbee39"/>
    <path d="M137.22 69.72h46.56c.54 0 1 .55 1 1.38v1.37c0 .82-.45 1.37-1 1.37h-46.56c-.54 0-1-.55-1-1.37V71.1c.06-.69.46-1.38 1-1.38z" fill="#fff" opacity=".85"/>
    <path d="M196.89 58.72h46.55c.54 0 1 .73 1 1.82v1.81c0 1.09-.45 1.82-1 1.82h-46.55c-.54 0-1-.73-1-1.82v-1.81c.11-.91.46-1.82 1-1.82z" fill="#fbee39"/>
    <path d="M196.89 69.72h46.55c.54 0 1 .55 1 1.38v1.37c0 .82-.45 1.37-1 1.37h-46.55c-.54 0-1-.55-1-1.37V71.1c.11-.69.46-1.38 1-1.38z" fill="#fff" opacity=".85"/>
    <path d="M256.56 58.72h46.55c.54 0 1 .73 1 1.82v1.81c0 1.09-.45 1.82-1 1.82h-46.55c-.54 0-1-.73-1-1.82v-1.81c.05-.91.44-1.82 1-1.82z" fill="#fbee39"/>
    <path d="M256.56 69.72h46.55c.54 0 1 .55 1 1.38v1.37c0 .82-.45 1.37-1 1.37h-46.55c-.54 0-1-.55-1-1.37V71.1c.05-.69.44-1.38 1-1.38z" fill="#fff" opacity=".85"/>
    <path d="M316.22 58.72h46.56c.54 0 1 .73 1 1.82v1.81c0 1.09-.45 1.82-1 1.82h-46.56c-.54 0-1-.73-1-1.82v-1.81c.06-.91.46-1.82 1-1.82z" fill="#fbee39"/>
    <path d="M316.22 69.72h46.56c.54 0 1 .55 1 1.38v1.37c0 .82-.45 1.37-1 1.37h-46.56c-.54 0-1-.55-1-1.37V71.1c.06-.69.46-1.38 1-1.38z" fill="#fff" opacity=".85"/>
    <path d="M375.89 58.72h46.55c.54 0 1 .73 1 1.82v1.81c0 1.09-.45 1.82-1 1.82h-46.55c-.54 0-1-.73-1-1.82v-1.81c.11-.91.46-1.82 1-1.82z" fill="#fbee39"/>
    <path d="M375.89 69.72h46.55c.54 0 1 .55 1 1.38v1.37c0 .82-.45 1.37-1 1.37h-46.55c-.54 0-1-.55-1-1.37V71.1c.11-.69.46-1.38 1-1.38z" fill="#fff" opacity=".85"/>
    <path fill="#353535" opacity=".5" d="M72.06 373.26h83.28V391H72.06zM72.06 205.94h126.27v12.77H72.06zM162.93 373.26h83.28V391h-83.28zM253.8 373.26h83.28V391H253.8zM344.66 373.26h83.28V391h-83.28zM344.66 451.9h83.28v17.74h-83.28zM253.8 451.9h83.28v17.74H253.8zM162.93 451.9h83.28v17.74h-83.28zM72.06 451.9h83.28v17.74H72.06z"/>
    <g opacity=".85" fill="#fff">
      <path d="M81.37 379.39h64.26c.75 0 1.37.73 1.37 1.83V383c0 1.1-.62 1.83-1.37 1.83H81.37c-.75 0-1.37-.73-1.37-1.83v-1.82c.06-.88.62-1.79 1.37-1.79zM172.43 379.39h64.27c.75 0 1.37.73 1.37 1.83V383c0 1.1-.62 1.83-1.37 1.83h-64.27c-.74 0-1.36-.73-1.36-1.83v-1.82c.06-.88.62-1.79 1.36-1.79zM263.3 379.39h64.27c.74 0 1.36.73 1.36 1.83V383c0 1.1-.62 1.83-1.36 1.83H263.3c-.75 0-1.37-.73-1.37-1.83v-1.82c.07-.88.62-1.79 1.37-1.79zM354.17 379.39h64.26c.75 0 1.37.73 1.37 1.83V383c0 1.1-.62 1.83-1.37 1.83h-64.26c-.75 0-1.37-.73-1.37-1.83v-1.82c.06-.88.62-1.79 1.37-1.79zM354.17 458h64.26c.75 0 1.37.73 1.37 1.83v1.82c0 1.1-.62 1.83-1.37 1.83h-64.26c-.75 0-1.37-.73-1.37-1.83v-1.82c.06-.83.62-1.83 1.37-1.83zM263.3 458h64.27c.74 0 1.36.73 1.36 1.83v1.82c0 1.1-.62 1.83-1.36 1.83H263.3c-.75 0-1.37-.73-1.37-1.83v-1.82c.07-.83.62-1.83 1.37-1.83zM172.43 458h64.27c.75 0 1.37.73 1.37 1.83v1.82c0 1.1-.62 1.83-1.37 1.83h-64.27c-.74 0-1.36-.73-1.36-1.83v-1.82c.06-.83.62-1.83 1.36-1.83zM81.37 458h64.26c.75 0 1.37.73 1.37 1.83v1.82c0 1.1-.62 1.83-1.37 1.83H81.37c-.75 0-1.37-.73-1.37-1.83v-1.82c.06-.83.62-1.83 1.37-1.83z"/>
    </g>
  </g>
</svg>
