<svg xmlns="http://www.w3.org/2000/svg" width="500" height="500">
  <g data-name="Layer 5">
    <path fill="#fff" d="M0 0h500v500H0z"/>
    <path fill="#f7fafe" d="M0 0h500v500H0z"/>
  </g>
  <g data-name="Jegs">
    <path fill="#d6dde6" d="M72.06 373.26h83.28v69.1H72.06zM162.93 373.26h83.28v69.1h-83.28zM253.8 373.26h83.28v69.1H253.8zM344.66 373.26h83.28v69.1h-83.28zM72.06 450.45h83.28V500H72.06zM162.93 450.45h83.28V500h-83.28zM253.8 450.45h83.28V500H253.8zM344.66 450.45h83.28V500h-83.28z" opacity=".4"/>
    <path fill="#7b7c81" d="M0 0h500v13H0z" opacity=".75"/>
    <path fill="#d6dde6" d="M221.4 24.68h31a1.13 1.13 0 0 1 1.19 1.19v1.19a1.12 1.12 0 0 1-1.19 1.19h-31a1.12 1.12 0 0 1-1.19-1.19v-1.19a1.2 1.2 0 0 1 1.19-1.19zM264 24.68h31a1.13 1.13 0 0 1 1.19 1.19v1.19a1.12 1.12 0 0 1-1.19 1.19h-31a1.12 1.12 0 0 1-1.19-1.19v-1.19a1.2 1.2 0 0 1 1.19-1.19zM306.52 24.68h31a1.13 1.13 0 0 1 1.19 1.19v1.19a1.12 1.12 0 0 1-1.19 1.19h-31a1.12 1.12 0 0 1-1.19-1.19v-1.19a1.29 1.29 0 0 1 1.19-1.19zM349.14 24.68h30.95a1.12 1.12 0 0 1 1.19 1.19v1.19a1.12 1.12 0 0 1-1.19 1.19h-30.95a1.12 1.12 0 0 1-1.14-1.19v-1.19a1.2 1.2 0 0 1 1.14-1.19z"/>
    <path fill="#353535" d="M393.51 24.68h30.95a1.12 1.12 0 0 1 1.19 1.19v1.19a1.12 1.12 0 0 1-1.19 1.19h-30.95a1.12 1.12 0 0 1-1.19-1.19v-1.19a1.28 1.28 0 0 1 1.19-1.19zM78.17 39.56h43.33c1 0 1.67.47 1.67 1.19v1.19c0 .71-.67 1.19-1.67 1.19H78.17c-1 0-1.66-.48-1.66-1.19v-1.19c0-.6.83-1.19 1.66-1.19z" opacity=".5" style="isolation:isolate"/>
    <g data-name="rpICIZ.tif">
      <path fill="#4b616b" d="M105.91 18.28h9.23a1.73 1.73 0 0 1 1.18.79 3.4 3.4 0 0 1 1.32-.68l.47-.11h8.71a1.7 1.7 0 0 1 1.39 1.4v.52c-.33 1.1-.66 2.2-1 3.29a3.14 3.14 0 0 1-.5 1.21.21.21 0 0 0 0 .14 2.68 2.68 0 0 1-.09 1.32c-.6 2-1.2 4-1.82 6a3.65 3.65 0 0 1-3.66 2.55h-8.2a1.8 1.8 0 0 1-1.08-.34.31.31 0 0 0-.23 0 3.86 3.86 0 0 1-1.63.35h-7.76a2.64 2.64 0 0 1-1.5-.39.18.18 0 0 0-.25 0 1.57 1.57 0 0 1-1 .36h-9.87a1.44 1.44 0 0 1-.51-.08c-.27-.12-.51-.27-.78-.42a3.59 3.59 0 0 1-1.88.49h-7.22a4.62 4.62 0 0 1-.65 0 2.4 2.4 0 0 1-2.06-2.48 7.18 7.18 0 0 1 .4-1.78c.42-1.36.83-2.71 1.24-4.07a.34.34 0 0 0 0-.22c-.62-1.24-1.24-2.48-1.87-3.72a1.66 1.66 0 0 1 .34-2 1.63 1.63 0 0 1 2.09-.05l1.46 1 .42-.63a1.64 1.64 0 0 1 2.71 0c.13.2.26.4.41.61.4-.28.79-.53 1.17-.82a1.92 1.92 0 0 1 1.5-.5v-.08a1.92 1.92 0 0 1 1.38-1.61h4.63a1.91 1.91 0 0 0 .51.13 1.59 1.59 0 0 0 .46-.13h10.27l.92.37 1.06-.3zm-28.13 3.46v.06l2 4a.24.24 0 0 0 .25.15h3.67a.25.25 0 0 0 .3-.15c.65-1.31 1.32-2.61 2-3.92a1.61 1.61 0 0 0 .09-.21l-2.82 2-1.34-2-1.33 2-2.6-1.84a1.33 1.33 0 0 0-.22-.09zm37.13-1.81H106.19a1.45 1.45 0 0 0-1.37.86 12.23 12.23 0 0 0-.57 1.41q-1.36 4.41-2.71 8.82a10.83 10.83 0 0 0-.29 1.12.75.75 0 0 0 .64.91 2.07 2.07 0 0 0 .35 0h8.07a1.39 1.39 0 0 0 1.18-.68 4.38 4.38 0 0 0 .37-.79l1.92-6.26.19-.65h-5.51c-.14 0-.18 0-.22.17l-.57 1.88c-.16.54-.32 1.08-.5 1.65h1.68c-.1.33-.18.63-.28.92a.22.22 0 0 1-.17.1h-2.29c0-.08 0-.15.06-.21.54-1.77 1.08-3.55 1.61-5.32a.25.25 0 0 1 .29-.21h5.76zm-18.74 4.74c.09-.29.18-.54.24-.8s.13-.23.32-.23h5.37c.17 0 .24 0 .29-.21.32-1.1.66-2.2 1-3.3v-.2h-9.51c-.2 0-.29.05-.35.25Q91.76 26 90 31.91c-.12.39-.24.77-.36 1.18h9.67c.14 0 .18-.05.22-.18.28-1 .57-1.9.86-2.85.07-.22.14-.44.21-.69h-5.86c.08-.28.17-.54.23-.8s.11-.21.28-.21h5.64l1.12-3.7zm23.35 0c.09-.3.18-.55.24-.81s.12-.22.3-.22h5.18c.16 0 .23 0 .27-.2.3-1 .61-2 .92-3l.15-.51h-8.09a1.78 1.78 0 0 0-1.18.46 3.61 3.61 0 0 0-.94 1.55c-.26.76-.49 1.53-.73 2.29s-.54 1.75-.77 2.64a1 1 0 0 0 .72 1.34 3.63 3.63 0 0 0 1 .16H120.06c-.09.28-.17.52-.23.78s-.15.25-.35.25h-5.29a.26.26 0 0 0-.3.22c-.16.56-.33 1.12-.5 1.67s-.37 1.2-.55 1.81h8.46a2 2 0 0 0 1.87-1.32 2.83 2.83 0 0 0 .14-.41c.57-1.86 1.14-3.72 1.69-5.58.22-.76 0-1.08-.84-1.08h-4.67zM83.68 27h-3.84c-.14 0-.18.06-.22.18-.44 1.5-.9 3-1.35 4.49a2.83 2.83 0 0 0-.09.65.7.7 0 0 0 .58.72 1.84 1.84 0 0 0 .41.05h7.15a2 2 0 0 0 2-1.18 12.09 12.09 0 0 0 .68-1.7c1-3.14 1.93-6.28 2.89-9.43.09-.27.17-.55.26-.83h-3.83c-.17 0-.19.09-.23.2l-2 6.53c-.28.91-.56 1.81-.83 2.72H83z"/>
      <path fill="#fefefe" d="M87.81 18.28a1.92 1.92 0 0 0-1.38 1.61v.08a1.92 1.92 0 0 0-1.5.5c-.38.29-.77.54-1.17.82-.15-.21-.28-.41-.41-.61a1.64 1.64 0 0 0-2.71 0l-.42.63-1.46-1a1.63 1.63 0 0 0-2.09.05 1.66 1.66 0 0 0-.34 2c.63 1.24 1.25 2.48 1.87 3.72a.34.34 0 0 1 0 .22c-.41 1.36-.82 2.71-1.24 4.07a7.18 7.18 0 0 0-.4 1.78 2.4 2.4 0 0 0 2.06 2.48 4.62 4.62 0 0 0 .65 0h7.22a3.59 3.59 0 0 0 1.88-.49c.27.15.51.3.78.42a1.44 1.44 0 0 0 .51.08h9.82a1.57 1.57 0 0 0 1-.36.18.18 0 0 1 .25 0 2.64 2.64 0 0 0 1.5.39H110a3.86 3.86 0 0 0 1.63-.35.31.31 0 0 1 .23 0 1.8 1.8 0 0 0 1.08.34h8.2a3.65 3.65 0 0 0 3.66-2.55c.62-2 1.22-4 1.82-6a2.68 2.68 0 0 0 .09-1.32.21.21 0 0 1 0-.14 3.14 3.14 0 0 0 .5-1.21c.34-1.09.67-2.19 1-3.29v14.61H76V18.28z"/>
      <path fill="#f7f7f8" d="M118.11 18.28l-.47.11a3.4 3.4 0 0 0-1.32.68 1.73 1.73 0 0 0-1.18-.79z"/>
      <path fill="#f7f7f7" d="M128.21 19.68a1.7 1.7 0 0 0-1.39-1.4h1.39z"/>
      <path fill="#f6f6f7" d="M105.91 18.28l-.25.07-1.06.3-.92-.37z"/>
      <path fill="#eff0f1" d="M93.41 18.28a1.59 1.59 0 0 1-.46.13 1.91 1.91 0 0 1-.51-.13z"/>
      <path fill="#fde555" d="M114.91 19.93l-1.13 3.72H108a.25.25 0 0 0-.29.21c-.53 1.77-1.07 3.55-1.61 5.32 0 .06 0 .13-.06.21h2.29a.22.22 0 0 0 .17-.1c.1-.29.18-.59.28-.92h-1.68c.18-.57.34-1.11.5-1.65l.57-1.88c0-.12.08-.17.22-.17h5.51l-.19.65-1.92 6.26a4.38 4.38 0 0 1-.37.79 1.39 1.39 0 0 1-1.18.68h-8.07a2.07 2.07 0 0 1-.35 0 .75.75 0 0 1-.64-.91 10.83 10.83 0 0 1 .29-1.12q1.35-4.41 2.71-8.82a12.23 12.23 0 0 1 .57-1.41 1.45 1.45 0 0 1 1.37-.86H114.84zM96.17 24.67H102l-1.12 3.7h-5.63c-.17 0-.24.05-.28.21s-.15.52-.23.8h5.83c-.07.25-.14.47-.21.69-.29.95-.58 1.9-.86 2.85 0 .13-.08.18-.22.18h-9.67c.12-.41.24-.79.36-1.18q1.79-5.92 3.56-11.74c.06-.2.15-.25.35-.25h9.55v.2c-.34 1.1-.68 2.2-1 3.3 0 .17-.12.21-.29.21h-5.41c-.19 0-.28 0-.32.23s-.15.51-.24.8zM119.52 24.67h4.67c.79 0 1.06.32.84 1.08-.55 1.86-1.12 3.72-1.69 5.58a2.83 2.83 0 0 1-.14.41 2 2 0 0 1-1.87 1.32h-8.46c.18-.61.37-1.21.55-1.81s.34-1.11.5-1.67a.26.26 0 0 1 .3-.22h5.29c.2 0 .3-.05.35-.25s.14-.5.23-.78H116.62a3.63 3.63 0 0 1-1-.16 1 1 0 0 1-.72-1.34c.23-.89.5-1.76.77-2.64s.47-1.53.73-2.29a3.61 3.61 0 0 1 .94-1.55 1.78 1.78 0 0 1 1.18-.46h8.09l-.15.51c-.31 1-.62 2-.92 3 0 .16-.11.2-.27.2h-5.18c-.18 0-.26 0-.3.22s-.18.55-.27.85zM83.68 27L83 29.38h2.28c.27-.91.55-1.81.83-2.72l2-6.53c0-.11.06-.2.23-.2h3.83c-.09.28-.17.56-.26.83-1 3.15-1.91 6.29-2.89 9.43a12.09 12.09 0 0 1-.71 1.71 2 2 0 0 1-2 1.18h-7.14a1.84 1.84 0 0 1-.41-.05.7.7 0 0 1-.58-.72 2.83 2.83 0 0 1 .09-.65c.45-1.49.91-3 1.35-4.49 0-.12.08-.18.22-.18h3.84z"/>
      <path fill="#fbe455" d="M77.78 21.74a1.33 1.33 0 0 1 .21.09l2.6 1.81 1.33-2 1.34 2 2.82-2a1.61 1.61 0 0 1-.09.21c-.65 1.31-1.32 2.61-2 3.92a.25.25 0 0 1-.27.16h-3.64a.24.24 0 0 1-.25-.15l-2-4v-.06zM77.79 21.74z"/>
    </g>
    <path fill="#353535" d="M18.35 50h463.3v32H18.35zM18.35 331h463.3v22.1H18.35z" opacity=".5"/>
    <path fill="#d6dde6" d="M72.06 274.67l112.94-11v48.69H72.06v-37.69zM193.53 262.67l112.94-10.34v60.03H193.53v-49.69z" opacity=".75"/>
    <path fill="#d6dde6" d="M481.65 226l-463.3 46V82h463.3v144z" opacity=".4"/>
    <path fill="#d6dde6" d="M427.94 231.33L72.06 266.67V82h355.88v149.33z" opacity=".75"/>
    <path fill="#837f7f" d="M315 171.07l112.94-10.33v151.62H315V171.07z"/>
    <path fill="#fff" d="M82.22 189.25h104.56a2 2 0 0 1 2.22 1.83v1.82a2 2 0 0 1-2.22 1.83H82.22A2 2 0 0 1 80 192.9v-1.82a2.21 2.21 0 0 1 2.22-1.83z"/>
    <path fill="#d6dde6" d="M324.08 36h100.71a2.18 2.18 0 0 1 2.15 2.32v2.33a2.19 2.19 0 0 1-2.15 2.35H324.08a2.18 2.18 0 0 1-2.14-2.33v-2.33a2.4 2.4 0 0 1 2.14-2.34z"/>
    <g fill="#fff" opacity=".85">
      <path d="M324.92 196H418c1.08 0 2 1.33 2 3.32v3.31c0 2-.9 3.32-2 3.32h-93.1c-1.08 0-2-1.33-2-3.32v-3.31c.1-1.67.94-3.32 2.02-3.32zM324.92 220H418c1.08 0 2 1.33 2 3.32v3.31c0 2-.9 3.32-2 3.32h-93.1c-1.08 0-2-1.33-2-3.32v-3.31c.1-1.67.94-3.32 2.02-3.32zM324.92 244H418c1.08 0 2 1.33 2 3.32v3.31c0 2-.9 3.32-2 3.32h-93.1c-1.08 0-2-1.33-2-3.32v-3.31c.1-1.67.94-3.32 2.02-3.32z"/>
    </g>
    <path fill="#fbee39" d="M324.92 266H418c1.08 0 2 2.07 2 5.17v5.17c0 3.1-.9 5.17-2 5.17h-93.1c-1.08 0-2-2.07-2-5.17v-5.17c.1-2.6.94-5.17 2.02-5.17zM77.56 58.72h46.55c.54 0 1 .73 1 1.82v1.81c0 1.09-.45 1.82-1 1.82H77.56c-.54 0-1-.73-1-1.82v-1.81c.05-.91.44-1.82 1-1.82z"/>
    <path fill="#fff" d="M77.56 69.72h46.55c.54 0 1 .55 1 1.38v1.37c0 .82-.45 1.37-1 1.37H77.56c-.54 0-1-.55-1-1.37V71.1c.05-.69.44-1.38 1-1.38z" opacity=".85"/>
    <path fill="#fbee39" d="M137.22 58.72h46.56c.54 0 1 .73 1 1.82v1.81c0 1.09-.45 1.82-1 1.82h-46.56c-.54 0-1-.73-1-1.82v-1.81c.06-.91.46-1.82 1-1.82z"/>
    <path fill="#fff" d="M137.22 69.72h46.56c.54 0 1 .55 1 1.38v1.37c0 .82-.45 1.37-1 1.37h-46.56c-.54 0-1-.55-1-1.37V71.1c.06-.69.46-1.38 1-1.38z" opacity=".85"/>
    <path fill="#fbee39" d="M196.89 58.72h46.55c.54 0 1 .73 1 1.82v1.81c0 1.09-.45 1.82-1 1.82h-46.55c-.54 0-1-.73-1-1.82v-1.81c.11-.91.46-1.82 1-1.82z"/>
    <path fill="#fff" d="M196.89 69.72h46.55c.54 0 1 .55 1 1.38v1.37c0 .82-.45 1.37-1 1.37h-46.55c-.54 0-1-.55-1-1.37V71.1c.11-.69.46-1.38 1-1.38z" opacity=".85"/>
    <path fill="#fbee39" d="M256.56 58.72h46.55c.54 0 1 .73 1 1.82v1.81c0 1.09-.45 1.82-1 1.82h-46.55c-.54 0-1-.73-1-1.82v-1.81c.05-.91.44-1.82 1-1.82z"/>
    <path fill="#fff" d="M256.56 69.72h46.55c.54 0 1 .55 1 1.38v1.37c0 .82-.45 1.37-1 1.37h-46.55c-.54 0-1-.55-1-1.37V71.1c.05-.69.44-1.38 1-1.38z" opacity=".85"/>
    <path fill="#fbee39" d="M316.22 58.72h46.56c.54 0 1 .73 1 1.82v1.81c0 1.09-.45 1.82-1 1.82h-46.56c-.54 0-1-.73-1-1.82v-1.81c.06-.91.46-1.82 1-1.82z"/>
    <path fill="#fff" d="M316.22 69.72h46.56c.54 0 1 .55 1 1.38v1.37c0 .82-.45 1.37-1 1.37h-46.56c-.54 0-1-.55-1-1.37V71.1c.06-.69.46-1.38 1-1.38z" opacity=".85"/>
    <path fill="#fbee39" d="M375.89 58.72h46.55c.54 0 1 .73 1 1.82v1.81c0 1.09-.45 1.82-1 1.82h-46.55c-.54 0-1-.73-1-1.82v-1.81c.11-.91.46-1.82 1-1.82z"/>
    <path fill="#fff" d="M375.89 69.72h46.55c.54 0 1 .55 1 1.38v1.37c0 .82-.45 1.37-1 1.37h-46.55c-.54 0-1-.55-1-1.37V71.1c.11-.69.46-1.38 1-1.38z" opacity=".85"/>
    <path fill="#353535" d="M72.06 373.26h83.28V391H72.06zM72.06 205.94h126.27v12.77H72.06zM162.93 373.26h83.28V391h-83.28zM253.8 373.26h83.28V391H253.8zM344.66 373.26h83.28V391h-83.28zM344.66 451.9h83.28v17.74h-83.28zM253.8 451.9h83.28v17.74H253.8zM162.93 451.9h83.28v17.74h-83.28zM72.06 451.9h83.28v17.74H72.06z" opacity=".5"/>
    <g fill="#fff" opacity=".85">
      <path d="M81.37 379.39h64.26c.75 0 1.37.73 1.37 1.83V383c0 1.1-.62 1.83-1.37 1.83H81.37c-.75 0-1.37-.73-1.37-1.83v-1.82c.06-.88.62-1.79 1.37-1.79zM172.43 379.39h64.27c.75 0 1.37.73 1.37 1.83V383c0 1.1-.62 1.83-1.37 1.83h-64.27c-.74 0-1.36-.73-1.36-1.83v-1.82c.06-.88.62-1.79 1.36-1.79zM263.3 379.39h64.27c.74 0 1.36.73 1.36 1.83V383c0 1.1-.62 1.83-1.36 1.83H263.3c-.75 0-1.37-.73-1.37-1.83v-1.82c.07-.88.62-1.79 1.37-1.79zM354.17 379.39h64.26c.75 0 1.37.73 1.37 1.83V383c0 1.1-.62 1.83-1.37 1.83h-64.26c-.75 0-1.37-.73-1.37-1.83v-1.82c.06-.88.62-1.79 1.37-1.79zM354.17 458h64.26c.75 0 1.37.73 1.37 1.83v1.82c0 1.1-.62 1.83-1.37 1.83h-64.26c-.75 0-1.37-.73-1.37-1.83v-1.82c.06-.83.62-1.83 1.37-1.83zM263.3 458h64.27c.74 0 1.36.73 1.36 1.83v1.82c0 1.1-.62 1.83-1.36 1.83H263.3c-.75 0-1.37-.73-1.37-1.83v-1.82c.07-.83.62-1.83 1.37-1.83zM172.43 458h64.27c.75 0 1.37.73 1.37 1.83v1.82c0 1.1-.62 1.83-1.37 1.83h-64.27c-.74 0-1.36-.73-1.36-1.83v-1.82c.06-.83.62-1.83 1.36-1.83zM81.37 458h64.26c.75 0 1.37.73 1.37 1.83v1.82c0 1.1-.62 1.83-1.37 1.83H81.37c-.75 0-1.37-.73-1.37-1.83v-1.82c.06-.83.62-1.83 1.37-1.83z"/>
    </g>
  </g>
</svg>
