<svg xmlns="http://www.w3.org/2000/svg" viewBox="0 0 500 500"><title>kaiser</title><g id="97113bea-8b03-4f05-823b-a30b01ea2781" data-name="Layer 5"><rect width="500" height="500" fill="#fff"/></g><g id="04f458ee-56a0-4278-bbb0-3b92aba90e7c" data-name="Layer 15"><rect y="47" width="500" height="23" fill="#d6dde6" opacity="0.65"/></g><g id="8ce8416f-29dd-417a-ac81-30e45f5e14a7" data-name="Kaiser Permanente"><path d="M23.56,93.54h56c.65,0,1.19.82,1.19,2.06v2.06c0,1.24-.54,2.07-1.19,2.07h-56c-.65,0-1.19-.83-1.19-2.07V95.6C22.42,94.57,22.91,93.54,23.56,93.54Z" fill="#377da8"/><path d="M368.39,93.54h56c.65,0,1.19.82,1.19,2.06v2.06c0,1.24-.54,2.07-1.19,2.07h-56c-.65,0-1.19-.83-1.19-2.07V95.6C367.26,94.57,367.74,93.54,368.39,93.54Z" fill="#377da8"/><path d="M23.56,204h56c.65,0,1.19.82,1.19,2.06v2.06c0,1.24-.54,2.06-1.19,2.06h-56c-.65,0-1.19-.82-1.19-2.06v-2.06C22.42,205,22.91,204,23.56,204Z" fill="#377da8"/><path d="M23.56,364.9h23c.65,0,1.19.73,1.19,1.83v1.82c0,1.1-.54,1.83-1.19,1.83h-23c-.65,0-1.19-.73-1.19-1.83v-1.82C22.42,365.81,22.91,364.9,23.56,364.9Z" fill="#377da8"/><path d="M126.74,364.9h23c.65,0,1.19.73,1.19,1.83v1.82c0,1.1-.54,1.83-1.19,1.83h-23c-.65,0-1.2-.73-1.2-1.83v-1.82C125.6,365.81,126.09,364.9,126.74,364.9Z" fill="#377da8"/><path d="M229.91,364.9h23c.65,0,1.19.73,1.19,1.83v1.82c0,1.1-.54,1.83-1.19,1.83h-23c-.65,0-1.19-.73-1.19-1.83v-1.82C228.77,365.81,229.26,364.9,229.91,364.9Z" fill="#377da8"/><path d="M126.74,204h56c.65,0,1.19.82,1.19,2.06v2.06c0,1.24-.54,2.06-1.19,2.06h-56c-.65,0-1.2-.82-1.2-2.06v-2.06C125.6,205,126.09,204,126.74,204Z" fill="#377da8"/><path d="M229.91,204h56c.65,0,1.19.82,1.19,2.06v2.06c0,1.24-.54,2.06-1.19,2.06h-56c-.65,0-1.19-.82-1.19-2.06v-2.06C228.77,205,229.26,204,229.91,204Z" fill="#377da8"/><path d="M23.06,57.71H55.54c.37,0,.69.47.69,1.19v1.2c0,.72-.32,1.19-.69,1.19H23.06c-.38,0-.69-.47-.69-1.19V58.9C22.4,58.3,22.68,57.71,23.06,57.71Z" fill="#778ca6" opacity="0.75"/><path d="M414.23,57.71H446.7c.38,0,.69.47.69,1.19v1.2c0,.72-.31,1.19-.69,1.19H414.23c-.38,0-.7-.47-.7-1.19V58.9C413.57,58.3,413.85,57.71,414.23,57.71Z" fill="#778ca6" opacity="0.75"/><path d="M69.12,57.71H92.59c.38,0,.69.47.69,1.19v1.2c0,.72-.31,1.19-.69,1.19H69.12c-.38,0-.69-.47-.69-1.19V58.9C68.46,58.3,68.74,57.71,69.12,57.71Z" fill="#778ca6" opacity="0.75"/><path d="M378.45,57.71h23.48c.37,0,.69.47.69,1.19v1.2c0,.72-.32,1.19-.69,1.19H378.45c-.38,0-.69-.47-.69-1.19V58.9C377.79,58.3,378.07,57.71,378.45,57.71Z" fill="#778ca6" opacity="0.75"/><path d="M105.17,57.71h36.48c.38,0,.69.47.69,1.19v1.2c0,.72-.31,1.19-.69,1.19H105.17c-.37,0-.69-.47-.69-1.19V58.9C104.51,58.3,104.8,57.71,105.17,57.71Z" fill="#778ca6" opacity="0.75"/><path d="M152.73,57.71h32.48c.37,0,.69.47.69,1.19v1.2c0,.72-.32,1.19-.69,1.19H152.73c-.38,0-.69-.47-.69-1.19V58.9C152.07,58.3,152.35,57.71,152.73,57.71Z" fill="#778ca6" opacity="0.75"/><path d="M198.29,57.71h32.47c.38,0,.69.47.69,1.19v1.2c0,.72-.31,1.19-.69,1.19H198.29c-.38,0-.69-.47-.69-1.19V58.9C197.63,58.3,197.91,57.71,198.29,57.71Z" fill="#778ca6" opacity="0.75"/><path d="M243.84,57.71h32.48c.38,0,.69.47.69,1.19v1.2c0,.72-.31,1.19-.69,1.19H243.84c-.37,0-.69-.47-.69-1.19V58.9C243.19,58.3,243.47,57.71,243.84,57.71Z" fill="#778ca6" opacity="0.75"/><path d="M289.4,57.71h32.48c.37,0,.69.47.69,1.19v1.2c0,.72-.32,1.19-.69,1.19H289.4c-.38,0-.69-.47-.69-1.19V58.9C288.74,58.3,289,57.71,289.4,57.71Z" fill="#778ca6" opacity="0.75"/><path d="M334.07,57.71h32.47c.38,0,.7.47.7,1.19v1.2c0,.72-.32,1.19-.7,1.19H334.07c-.38,0-.69-.47-.69-1.19V58.9C333.41,58.3,333.69,57.71,334.07,57.71Z" fill="#778ca6" opacity="0.75"/><path d="M453.46,5.75h23.48c.38,0,.69.47.69,1.19v1.2c0,.71-.31,1.19-.69,1.19H453.46c-.37,0-.69-.48-.69-1.19V6.94C452.8,6.34,453.09,5.75,453.46,5.75Z" fill="#778ca6" opacity="0.75"/><path d="M407.12,5.75H441.6c.38,0,.69.47.69,1.19v1.2c0,.71-.31,1.19-.69,1.19H407.12c-.37,0-.69-.48-.69-1.19V6.94C406.46,6.34,406.75,5.75,407.12,5.75Z" fill="#778ca6" opacity="0.75"/><path d="M385.28,5.75h9.48c.38,0,.69.47.69,1.19v1.2c0,.71-.31,1.19-.69,1.19h-9.48c-.37,0-.69-.48-.69-1.19V6.94C384.62,6.34,384.91,5.75,385.28,5.75Z" fill="#778ca6" opacity="0.75"/><path d="M23.06,219.25h80.06c.37,0,.69.48.69,1.19v1.2c0,.72-.32,1.2-.69,1.2H23.06c-.38,0-.69-.48-.69-1.2v-1.2C22.4,219.85,22.68,219.25,23.06,219.25Z" fill="#778ca6" opacity="0.75"/><path d="M23.06,229.26h88.06c.37,0,.69.48.69,1.2v1.2c0,.71-.32,1.19-.69,1.19H23.06c-.38,0-.69-.48-.69-1.19v-1.2C22.4,229.86,22.68,229.26,23.06,229.26Z" fill="#778ca6" opacity="0.75"/><path d="M23.06,239.28h88.06c.37,0,.69.48.69,1.19v1.2c0,.72-.32,1.2-.69,1.2H23.06c-.38,0-.69-.48-.69-1.2v-1.2C22.4,239.88,22.68,239.28,23.06,239.28Z" fill="#778ca6" opacity="0.75"/><path d="M23.06,249.29H51.21c.38,0,.69.48.69,1.2v1.2c0,.71-.31,1.19-.69,1.19H23.06c-.38,0-.69-.48-.69-1.19v-1.2C22.4,249.89,22.68,249.29,23.06,249.29Z" fill="#778ca6" opacity="0.25"/><path d="M23.06,412.83h77.06c.37,0,.69.64.69,1.6V416c0,1-.32,1.6-.69,1.6H23.06c-.38,0-.69-.64-.69-1.6v-1.59C22.4,413.63,22.68,412.83,23.06,412.83Z" fill="#778ca6" opacity="0.75"/><path d="M23.06,424.33H319.81c.38,0,.69.48.69,1.2v1.2c0,.71-.31,1.19-.69,1.19H23.06c-.38,0-.69-.48-.69-1.19v-1.2C22.4,424.93,22.68,424.33,23.06,424.33Z" fill="#778ca6" opacity="0.75"/><path d="M23.06,434.35H197.25c.38,0,.69.48.69,1.19v1.2c0,.72-.31,1.2-.69,1.2H23.06c-.38,0-.69-.48-.69-1.2v-1.2C22.4,435,22.68,434.35,23.06,434.35Z" fill="#778ca6" opacity="0.75"/><path d="M351,441.94h35.7c.38,0,.69.47.69,1.19v1.2c0,.72-.31,1.19-.69,1.19H351c-.38,0-.69-.47-.69-1.19v-1.2C350.34,442.53,350.62,441.94,351,441.94Z" fill="#778ca6" opacity="0.75"/><path d="M351,453h44.7c.38,0,.69.48.69,1.2v1.19c0,.72-.31,1.2-.69,1.2H351c-.38,0-.69-.48-.69-1.2V454.2C350.34,453.6,350.62,453,351,453Z" fill="#778ca6" opacity="0.75"/><path d="M351,464.06h44.7c.38,0,.69.48.69,1.2v1.2c0,.71-.31,1.19-.69,1.19H351c-.38,0-.69-.48-.69-1.19v-1.2C350.34,464.66,350.62,464.06,351,464.06Z" fill="#778ca6" opacity="0.75"/><path d="M351,475.13h30.7c.38,0,.69.48.69,1.19v1.2c0,.72-.31,1.2-.69,1.2H351c-.38,0-.69-.48-.69-1.2v-1.2C350.34,475.73,350.62,475.13,351,475.13Z" fill="#778ca6" opacity="0.75"/><path d="M417.43,441.94h35.71c.37,0,.69.47.69,1.19v1.2c0,.72-.32,1.19-.69,1.19H417.43c-.37,0-.69-.47-.69-1.19v-1.2C416.77,442.53,417.06,441.94,417.43,441.94Z" fill="#778ca6" opacity="0.75"/><path d="M417.43,453h44.71c.37,0,.69.48.69,1.2v1.19c0,.72-.32,1.2-.69,1.2H417.43c-.37,0-.69-.48-.69-1.2V454.2C416.77,453.6,417.06,453,417.43,453Z" fill="#778ca6" opacity="0.75"/><path d="M417.43,464.06h40.71c.37,0,.69.48.69,1.2v1.2c0,.71-.32,1.19-.69,1.19H417.43c-.37,0-.69-.48-.69-1.19v-1.2C416.77,464.66,417.06,464.06,417.43,464.06Z" fill="#778ca6" opacity="0.75"/><path d="M417.43,475.13h32.71c.37,0,.69.48.69,1.19v1.2c0,.72-.32,1.2-.69,1.2H417.43c-.37,0-.69-.48-.69-1.2v-1.2C416.77,475.73,417.06,475.13,417.43,475.13Z" fill="#778ca6" opacity="0.75"/><path d="M126.44,219.25H206.5c.37,0,.69.48.69,1.19v1.2c0,.72-.32,1.2-.69,1.2H126.44c-.38,0-.69-.48-.69-1.2v-1.2C125.78,219.85,126.06,219.25,126.44,219.25Z" fill="#778ca6" opacity="0.75"/><path d="M126.44,229.26H214.5c.37,0,.69.48.69,1.2v1.2c0,.71-.32,1.19-.69,1.19H126.44c-.38,0-.69-.48-.69-1.19v-1.2C125.78,229.86,126.06,229.26,126.44,229.26Z" fill="#778ca6" opacity="0.75"/><path d="M126.44,239.28h28.15c.38,0,.7.48.7,1.19v1.2c0,.72-.32,1.2-.7,1.2H126.44c-.38,0-.69-.48-.69-1.2v-1.2C125.78,239.88,126.06,239.28,126.44,239.28Z" fill="#778ca6" opacity="0.25"/><path d="M126.44,256.26H206.5c.37,0,.69.48.69,1.2v1.19c0,.72-.32,1.2-.69,1.2H126.44c-.38,0-.69-.48-.69-1.2v-1.19C125.78,256.86,126.06,256.26,126.44,256.26Z" fill="#778ca6" opacity="0.75"/><path d="M126.44,266.28H214.5c.37,0,.69.47.69,1.19v1.2c0,.72-.32,1.19-.69,1.19H126.44c-.38,0-.69-.47-.69-1.19v-1.2C125.78,266.87,126.06,266.28,126.44,266.28Z" fill="#778ca6" opacity="0.75"/><path d="M126.44,276.29h28.15c.38,0,.7.48.7,1.2v1.19c0,.72-.32,1.2-.7,1.2H126.44c-.38,0-.69-.48-.69-1.2v-1.19C125.78,276.89,126.06,276.29,126.44,276.29Z" fill="#778ca6" opacity="0.25"/><path d="M126.44,293.27H206.5c.37,0,.69.48.69,1.2v1.2c0,.71-.32,1.19-.69,1.19H126.44c-.38,0-.69-.48-.69-1.19v-1.2C125.78,293.87,126.06,293.27,126.44,293.27Z" fill="#778ca6" opacity="0.75"/><path d="M126.44,303.29H214.5c.37,0,.69.48.69,1.19v1.2c0,.72-.32,1.2-.69,1.2H126.44c-.38,0-.69-.48-.69-1.2v-1.2C125.78,303.89,126.06,303.29,126.44,303.29Z" fill="#778ca6" opacity="0.75"/><path d="M126.44,313.3h28.15c.38,0,.7.48.7,1.2v1.2c0,.71-.32,1.19-.7,1.19H126.44c-.38,0-.69-.48-.69-1.19v-1.2C125.78,313.9,126.06,313.3,126.44,313.3Z" fill="#778ca6" opacity="0.25"/><path d="M126.44,330.29H206.5c.37,0,.69.47.69,1.19v1.2c0,.72-.32,1.19-.69,1.19H126.44c-.38,0-.69-.47-.69-1.19v-1.2C125.78,330.88,126.06,330.29,126.44,330.29Z" fill="#778ca6" opacity="0.75"/><path d="M126.44,340.3H214.5c.37,0,.69.48.69,1.2v1.19c0,.72-.32,1.2-.69,1.2H126.44c-.38,0-.69-.48-.69-1.2V341.5C125.78,340.9,126.06,340.3,126.44,340.3Z" fill="#778ca6" opacity="0.75"/><path d="M126.44,350.32h28.15c.38,0,.7.47.7,1.19v1.2c0,.72-.32,1.19-.7,1.19H126.44c-.38,0-.69-.47-.69-1.19v-1.2C125.78,350.91,126.06,350.32,126.44,350.32Z" fill="#778ca6" opacity="0.25"/><path d="M229.41,219.25h88.06c.37,0,.69.48.69,1.19v1.2c0,.72-.32,1.2-.69,1.2H229.41c-.38,0-.69-.48-.69-1.2v-1.2C228.75,219.85,229,219.25,229.41,219.25Z" fill="#778ca6" opacity="0.75"/><path d="M229.41,229.26h96.06c.37,0,.69.48.69,1.2v1.2c0,.71-.32,1.19-.69,1.19H229.41c-.38,0-.69-.48-.69-1.19v-1.2C228.75,229.86,229,229.26,229.41,229.26Z" fill="#778ca6" opacity="0.75"/><path d="M382.21,129.71h61.06c.38,0,.69.47.69,1.19v1.2c0,.72-.31,1.19-.69,1.19H382.21c-.37,0-.69-.47-.69-1.19v-1.2C381.55,130.3,381.84,129.71,382.21,129.71Z" fill="#778ca6" opacity="0.75"/><path d="M382.21,200.41h45.06c.38,0,.69.48.69,1.2v1.19c0,.72-.31,1.2-.69,1.2H382.21c-.37,0-.69-.48-.69-1.2v-1.19C381.55,201,381.84,200.41,382.21,200.41Z" fill="#778ca6" opacity="0.75"/><path d="M473.87,200.41H476c.38,0,.69.48.69,1.2v1.19c0,.72-.31,1.2-.69,1.2h-2.14c-.37,0-.69-.48-.69-1.2v-1.19C473.21,201,473.5,200.41,473.87,200.41Z" fill="#778ca6" opacity="0.75"/><path d="M473.87,218.66H476c.38,0,.69.48.69,1.2v1.19c0,.72-.31,1.2-.69,1.2h-2.14c-.37,0-.69-.48-.69-1.2v-1.19C473.21,219.26,473.5,218.66,473.87,218.66Z" fill="#778ca6" opacity="0.75"/><path d="M382.21,218.66h61.06c.38,0,.69.48.69,1.2v1.19c0,.72-.31,1.2-.69,1.2H382.21c-.37,0-.69-.48-.69-1.2v-1.19C381.55,219.26,381.84,218.66,382.21,218.66Z" fill="#778ca6" opacity="0.75"/><path d="M473.87,236.91H476c.38,0,.69.48.69,1.2v1.19c0,.72-.31,1.2-.69,1.2h-2.14c-.37,0-.69-.48-.69-1.2v-1.19C473.21,237.51,473.5,236.91,473.87,236.91Z" fill="#778ca6" opacity="0.75"/><path d="M382.21,236.91H460c.38,0,.69.48.69,1.2v1.19c0,.72-.31,1.2-.69,1.2h-77.8c-.37,0-.69-.48-.69-1.2v-1.19C381.55,237.51,381.84,236.91,382.21,236.91Z" fill="#778ca6" opacity="0.75"/><path d="M473.87,255.16H476c.38,0,.69.48.69,1.2v1.2c0,.71-.31,1.19-.69,1.19h-2.14c-.37,0-.69-.48-.69-1.19v-1.2C473.21,255.76,473.5,255.16,473.87,255.16Z" fill="#778ca6" opacity="0.75"/><path d="M382.21,255.16h61.06c.38,0,.69.48.69,1.2v1.2c0,.71-.31,1.19-.69,1.19H382.21c-.37,0-.69-.48-.69-1.19v-1.2C381.55,255.76,381.84,255.16,382.21,255.16Z" fill="#778ca6" opacity="0.75"/><path d="M473.87,273.42H476c.38,0,.69.47.69,1.19v1.2c0,.72-.31,1.19-.69,1.19h-2.14c-.37,0-.69-.47-.69-1.19v-1.2C473.21,274,473.5,273.42,473.87,273.42Z" fill="#778ca6" opacity="0.75"/><path d="M382.21,273.42h61.06c.38,0,.69.47.69,1.19v1.2c0,.72-.31,1.19-.69,1.19H382.21c-.37,0-.69-.47-.69-1.19v-1.2C381.55,274,381.84,273.42,382.21,273.42Z" fill="#778ca6" opacity="0.75"/><path d="M473.87,291.67H476c.38,0,.69.48.69,1.19v1.2c0,.72-.31,1.19-.69,1.19h-2.14c-.37,0-.69-.47-.69-1.19v-1.2C473.21,292.27,473.5,291.67,473.87,291.67Z" fill="#778ca6" opacity="0.75"/><path d="M382.21,291.67h61.06c.38,0,.69.48.69,1.19v1.2c0,.72-.31,1.19-.69,1.19H382.21c-.37,0-.69-.47-.69-1.19v-1.2C381.55,292.27,381.84,291.67,382.21,291.67Z" fill="#778ca6" opacity="0.75"/><path d="M382.21,144.21h69.06c.38,0,.69.47.69,1.19v1.2c0,.72-.31,1.19-.69,1.19H382.21c-.37,0-.69-.47-.69-1.19v-1.2C381.55,144.8,381.84,144.21,382.21,144.21Z" fill="#778ca6" opacity="0.75"/><path d="M382.21,158.71h69.06c.38,0,.69.47.69,1.19v1.2c0,.72-.31,1.19-.69,1.19H382.21c-.37,0-.69-.47-.69-1.19v-1.2C381.55,159.3,381.84,158.71,382.21,158.71Z" fill="#778ca6" opacity="0.75"/><path d="M382.21,173.21h69.06c.38,0,.69.47.69,1.19v1.2c0,.72-.31,1.19-.69,1.19H382.21c-.37,0-.69-.47-.69-1.19v-1.2C381.55,173.8,381.84,173.21,382.21,173.21Z" fill="#377da8"/><path d="M229.41,244.86h88.06c.37,0,.69.48.69,1.2v1.19c0,.72-.32,1.2-.69,1.2H229.41c-.38,0-.69-.48-.69-1.2v-1.19C228.75,245.46,229,244.86,229.41,244.86Z" fill="#778ca6" opacity="0.75"/><path d="M229.41,254.87h96.06c.37,0,.69.48.69,1.2v1.2c0,.71-.32,1.19-.69,1.19H229.41c-.38,0-.69-.48-.69-1.19v-1.2C228.75,255.47,229,254.87,229.41,254.87Z" fill="#778ca6" opacity="0.75"/><path d="M229.41,270.47h88.06c.37,0,.69.48.69,1.2v1.19c0,.72-.32,1.2-.69,1.2H229.41c-.38,0-.69-.48-.69-1.2v-1.19C228.75,271.07,229,270.47,229.41,270.47Z" fill="#778ca6" opacity="0.75"/><path d="M229.41,280.48h96.06c.37,0,.69.48.69,1.2v1.2c0,.71-.32,1.19-.69,1.19H229.41c-.38,0-.69-.48-.69-1.19v-1.2C228.75,281.08,229,280.48,229.41,280.48Z" fill="#778ca6" opacity="0.75"/><path d="M229.41,296.08h88.06c.37,0,.69.48.69,1.2v1.19c0,.72-.32,1.2-.69,1.2H229.41c-.38,0-.69-.48-.69-1.2v-1.19C228.75,296.68,229,296.08,229.41,296.08Z" fill="#778ca6" opacity="0.75"/><path d="M229.41,306.1h96.06c.37,0,.69.47.69,1.19v1.2c0,.71-.32,1.19-.69,1.19H229.41c-.38,0-.69-.48-.69-1.19v-1.2C228.75,306.69,229,306.1,229.41,306.1Z" fill="#778ca6" opacity="0.75"/><path d="M229.41,321.69h88.06c.37,0,.69.48.69,1.2v1.19c0,.72-.32,1.2-.69,1.2H229.41c-.38,0-.69-.48-.69-1.2v-1.19C228.75,322.29,229,321.69,229.41,321.69Z" fill="#778ca6" opacity="0.75"/><path d="M229.41,331.71h96.06c.37,0,.69.47.69,1.19v1.2c0,.72-.32,1.19-.69,1.19H229.41c-.38,0-.69-.47-.69-1.19v-1.2C228.75,332.3,229,331.71,229.41,331.71Z" fill="#778ca6" opacity="0.75"/><path d="M23.06,269.65h80.06c.37,0,.69.48.69,1.2V272c0,.72-.32,1.2-.69,1.2H23.06c-.38,0-.69-.48-.69-1.2v-1.19C22.4,270.25,22.68,269.65,23.06,269.65Z" fill="#778ca6" opacity="0.75"/><path d="M23.06,279.66h88.06c.37,0,.69.48.69,1.2v1.2c0,.71-.32,1.19-.69,1.19H23.06c-.38,0-.69-.48-.69-1.19v-1.2C22.4,280.26,22.68,279.66,23.06,279.66Z" fill="#778ca6" opacity="0.75"/><path d="M23.06,289.68h88.06c.37,0,.69.48.69,1.2v1.19c0,.72-.32,1.2-.69,1.2H23.06c-.38,0-.69-.48-.69-1.2v-1.19C22.4,290.28,22.68,289.68,23.06,289.68Z" fill="#778ca6" opacity="0.75"/><path d="M23.06,299.69H51.21c.38,0,.69.48.69,1.2v1.2c0,.71-.31,1.19-.69,1.19H23.06c-.38,0-.69-.48-.69-1.19v-1.2C22.4,300.29,22.68,299.69,23.06,299.69Z" fill="#778ca6" opacity="0.25"/><path d="M23.06,320.05h80.06c.37,0,.69.48.69,1.2v1.19c0,.72-.32,1.2-.69,1.2H23.06c-.38,0-.69-.48-.69-1.2v-1.19C22.4,320.65,22.68,320.05,23.06,320.05Z" fill="#778ca6" opacity="0.75"/><path d="M23.06,330.07h88.06c.37,0,.69.47.69,1.19v1.2c0,.71-.32,1.19-.69,1.19H23.06c-.38,0-.69-.48-.69-1.19v-1.2C22.4,330.66,22.68,330.07,23.06,330.07Z" fill="#778ca6" opacity="0.75"/><path d="M23.06,340.08h88.06c.37,0,.69.48.69,1.2v1.19c0,.72-.32,1.2-.69,1.2H23.06c-.38,0-.69-.48-.69-1.2v-1.19C22.4,340.68,22.68,340.08,23.06,340.08Z" fill="#778ca6" opacity="0.75"/><path d="M23.06,350.1H51.21c.38,0,.69.47.69,1.19v1.2c0,.71-.31,1.19-.69,1.19H23.06c-.38,0-.69-.48-.69-1.19v-1.2C22.4,350.69,22.68,350.1,23.06,350.1Z" fill="#778ca6" opacity="0.25"/><path d="M36.86,19.42A2.46,2.46,0,0,0,36,18.9l-.52,10.25L38,22.08a2.67,2.67,0,0,0-1.14-2.66Zm-4.19-.61L34.16,29l1.48-10.21A4.58,4.58,0,0,0,32.67,18.81Zm-1.22.61A2.68,2.68,0,0,0,30.27,22l2.53,7.07L32.32,18.9a2.15,2.15,0,0,0-.87.52Zm-5.15,1c1.71,3,3.45,6.19,5.11,9-.57-2.49-1.18-6.63-2.05-7.81A3.69,3.69,0,0,0,26.3,20.38Zm-3,1.48,6.94,8.07L26,20.42A3.38,3.38,0,0,0,23.29,21.86ZM37.82,24l-1.13,5.54c1.48-2.57,3-5.1,4.4-7.72A3.41,3.41,0,0,0,37.82,24Zm3.67-2.18-3.67,8.21,6.46-7A3.89,3.89,0,0,0,41.49,21.86ZM22.38,25.53c2.27,1.74,4.53,3.53,6.8,5.28l-6.11-8.64A6.06,6.06,0,0,0,22.38,25.53ZM45.07,24a3.23,3.23,0,0,0-.53-.74L39,30.89c2.18-1.62,4.34-3.3,6.45-5A3.24,3.24,0,0,0,45.07,24Zm-22.65,5,5.89,2.71c-2-2-3.93-3.84-5.89-5.76v3Zm23,.18v-2.8L39.83,31.9C41.75,31,43.49,30.15,45.41,29.24Zm-23,2.53c1.79.39,3.75.87,5.36,1.22l-5.36-3.54Zm23,.13V29.76C43.76,30.85,42,31.94,40.48,33Zm-23,2.53h5.23L22.38,32.2Zm23,0v-2c-1.7.74-3.18,1.35-4.8,2Z" fill="#377da8"/><path d="M43.63,19.16a2.23,2.23,0,1,0-4.45,0C39.13,22,43.76,22.17,43.63,19.16ZM28.75,17.54c.13-3.14-4.72-3-4.54,0C24,20.68,29.05,20.73,28.75,17.54Zm5.41.61a2.38,2.38,0,0,0,2.57-2.53,2.36,2.36,0,0,0-2.57-2.7,2.37,2.37,0,0,0-2.53,2.7A2.37,2.37,0,0,0,34.16,18.15ZM60.42,25.4h1V19.59h-1ZM58.5,23.74l.57,1.66h1l-2-5.81H56.85l-1.71,4.93-1.65-2.09,2.22-2.84H54.53l-2.05,2.75V19.59h-1V25.4h1V22.56l2.14,2.84H55.8l.57-1.66Zm-1.09-3.23.83,2.4H56.63l.78-2.4Zm10.3,12.3-1-4.23H64.92v5.85h1v-5l1.27,5h1l1.27-5v5h1V28.58h-1.7ZM73,28.58l-2,5.85h1l.52-1.7h2.14l.57,1.7h1l-2-5.85Zm-.22,3.36.79-2.44.83,2.44Zm7.59,1.14-2.31-4.5H76.7v5.85h1V30L80,34.43h1.35V28.58h-1v4.5Zm19.12.48h-2.4V31.94h1.74v-.87H97.08V29.45h2.18v-.87H96.07v5.85h3.41Zm-9.21-5h-.18v4.54l-2.31-4.54H86.43v5H83.37V31.94h1.79v-.87H83.37V29.45h2.19v-.87H82.37v5.85h5V30l2.31,4.45h1.35v-5h1.79v5h1v-5h1.74l0-.87ZM63.48,31.51a1.76,1.76,0,0,0,.57-1.27A1.65,1.65,0,0,0,63.48,29a2.4,2.4,0,0,0-1.7-.44H60.12v5H57V31.94h1.79v-.87H57V29.45H59.2v-.87H56v5.85h5.1V31.94h.48c.48.74,1.49,2.49,1.49,2.49h1.17l-1.57-2.58A1.47,1.47,0,0,0,63.48,31.51Zm-2.36-.4V29.45H62c.79,0,1.09.31,1.09.79s-.3.87-1.09.87ZM71.59,23h.53c.43.7,1.44,2.45,1.44,2.45h1.18l-1.58-2.53a1.63,1.63,0,0,0,.79-.4,1.61,1.61,0,0,0,.57-1.22A1.43,1.43,0,0,0,74,20a2.34,2.34,0,0,0-1.66-.44h-1.7v5h-3.1V22.91h1.79v-.83H67.49V20.42h2.23v-.83H66.53V25.4h5.06V23Zm0-.91V20.42h.88c.74,0,1,.31,1,.83s-.3.83-1,.83h-.88ZM54.84,29a2.34,2.34,0,0,0-1.66-.44h-1.7v5.85h1V32h.7a2.34,2.34,0,0,0,1.66-.44,1.84,1.84,0,0,0,.57-1.31A1.69,1.69,0,0,0,54.84,29Zm-1.53,2.14h-.83V29.45h.83c.79,0,1.09.35,1.09.83S54.05,31.16,53.31,31.16Zm12.57-7.42c0-.83-.53-1.35-1.53-1.75-.78-.26-1.18-.48-1.18-1s.35-.74,1.09-.74a2.73,2.73,0,0,1,1.22.31v-.83a2.81,2.81,0,0,0-1.22-.26c-1.26,0-2.09.69-2.09,1.61s.65,1.35,1.61,1.7c.75.26,1.09.53,1.09,1s-.43.82-1.13.82a3,3,0,0,1-1.57-.43v.91a3.35,3.35,0,0,0,1.53.35c1.48,0,2.18-.82,2.18-1.74Zm34.29,9.47a1,1,0,1,1,1,1h0A1,1,0,0,1,100.17,33.21Zm1,1.22A1.23,1.23,0,1,0,100,33.21,1.22,1.22,0,0,0,101.18,34.43Zm-.26-1.14h.26l.35.61h.26l-.44-.61c.22,0,.39-.13.39-.39s-.17-.39-.52-.39h-.52V33.9h.22v-.61Zm0-.17v-.44h.3c.13,0,.31,0,.31.22s-.18.22-.35.22Z" fill="#377da8"/><polygon points="152.04 12.92 108.46 14.92 115.51 32.89 151.04 29.89 152.04 12.92" fill="#377da8"/><rect x="22.42" y="107" width="310.96" height="78.67" fill="#d7eaf5"/><rect x="22.42" y="149.67" width="310.96" height="36" fill="#377da8"/><rect x="367.24" y="325.28" width="99.01" height="95.08" rx="9.8" ry="9.8" fill="#377da8"/><path d="M31.06,158.59H178c.38,0,.69.48.69,1.19V161c0,.72-.31,1.2-.69,1.2H31.06c-.38,0-.69-.48-.69-1.2v-1.2C30.4,159.19,30.68,158.59,31.06,158.59Z" fill="#fff" opacity="0.75"/><path d="M31.06,167.08H178c.38,0,.69.47.69,1.19v1.2c0,.72-.31,1.19-.69,1.19H31.06c-.38,0-.69-.47-.69-1.19v-1.2C30.4,167.67,30.68,167.08,31.06,167.08Z" fill="#fff" opacity="0.75"/><path d="M31.06,175.56H151.69c.38,0,.7.48.7,1.2V178c0,.71-.32,1.19-.7,1.19H31.06c-.38,0-.69-.48-.69-1.19v-1.2C30.4,176.16,30.68,175.56,31.06,175.56Z" fill="#fff" opacity="0.75"/><path d="M286.44,175.56h32.27c.38,0,.69.48.69,1.2V178c0,.71-.31,1.19-.69,1.19H286.44c-.38,0-.7-.48-.7-1.19v-1.2C285.78,176.16,286.06,175.56,286.44,175.56Z" fill="#fff" opacity="0.75"/><rect x="366.35" y="116" width="110.35" height="2" fill="#abd065"/><rect x="366.35" y="188.5" width="110.35" height="2" fill="#abd065"/></g></svg>