<svg xmlns="http://www.w3.org/2000/svg" width="500" height="500">
  <g data-name="Layer 5">
    <path fill="#fff" d="M0 0h500v500H0z"/>
    <path fill="#f7fafe" d="M0 0h500v500H0z"/>
  </g>
  <g data-name="Kaiser Permanente">
    <path fill="#d6dde6" d="M0 47h500v23H0z" opacity=".65"/>
    <path fill="#377da8" d="M23.56 93.54h56c.65 0 1.19.82 1.19 2.06v2.06c0 1.24-.54 2.07-1.19 2.07h-56c-.65 0-1.19-.83-1.19-2.07V95.6c.05-1.03.54-2.06 1.19-2.06zM368.39 93.54h56c.65 0 1.19.82 1.19 2.06v2.06c0 1.24-.54 2.07-1.19 2.07h-56c-.65 0-1.19-.83-1.19-2.07V95.6c.06-1.03.54-2.06 1.19-2.06zM23.56 204h56c.65 0 1.19.82 1.19 2.06v2.06c0 1.24-.54 2.06-1.19 2.06h-56c-.65 0-1.19-.82-1.19-2.06v-2.06c.05-1.06.54-2.06 1.19-2.06zM23.56 364.9h23c.65 0 1.19.73 1.19 1.83v1.82c0 1.1-.54 1.83-1.19 1.83h-23c-.65 0-1.19-.73-1.19-1.83v-1.82c.05-.92.54-1.83 1.19-1.83zM126.74 364.9h23c.65 0 1.19.73 1.19 1.83v1.82c0 1.1-.54 1.83-1.19 1.83h-23c-.65 0-1.2-.73-1.2-1.83v-1.82c.06-.92.55-1.83 1.2-1.83zM229.91 364.9h23c.65 0 1.19.73 1.19 1.83v1.82c0 1.1-.54 1.83-1.19 1.83h-23c-.65 0-1.19-.73-1.19-1.83v-1.82c.05-.92.54-1.83 1.19-1.83zM126.74 204h56c.65 0 1.19.82 1.19 2.06v2.06c0 1.24-.54 2.06-1.19 2.06h-56c-.65 0-1.2-.82-1.2-2.06v-2.06c.06-1.06.55-2.06 1.2-2.06zM229.91 204h56c.65 0 1.19.82 1.19 2.06v2.06c0 1.24-.54 2.06-1.19 2.06h-56c-.65 0-1.19-.82-1.19-2.06v-2.06c.05-1.06.54-2.06 1.19-2.06z"/>
    <path fill="#778ca6" d="M23.06 57.71h32.48c.37 0 .69.47.69 1.19v1.2c0 .72-.32 1.19-.69 1.19H23.06c-.38 0-.69-.47-.69-1.19v-1.2c.03-.6.31-1.19.69-1.19zM414.23 57.71h32.47c.38 0 .69.47.69 1.19v1.2c0 .72-.31 1.19-.69 1.19h-32.47c-.38 0-.7-.47-.7-1.19v-1.2c.04-.6.32-1.19.7-1.19zM69.12 57.71h23.47c.38 0 .69.47.69 1.19v1.2c0 .72-.31 1.19-.69 1.19H69.12c-.38 0-.69-.47-.69-1.19v-1.2c.03-.6.31-1.19.69-1.19zM378.45 57.71h23.48c.37 0 .69.47.69 1.19v1.2c0 .72-.32 1.19-.69 1.19h-23.48c-.38 0-.69-.47-.69-1.19v-1.2c.03-.6.31-1.19.69-1.19zM105.17 57.71h36.48c.38 0 .69.47.69 1.19v1.2c0 .72-.31 1.19-.69 1.19h-36.48c-.37 0-.69-.47-.69-1.19v-1.2c.03-.6.32-1.19.69-1.19zM152.73 57.71h32.48c.37 0 .69.47.69 1.19v1.2c0 .72-.32 1.19-.69 1.19h-32.48c-.38 0-.69-.47-.69-1.19v-1.2c.03-.6.31-1.19.69-1.19zM198.29 57.71h32.47c.38 0 .69.47.69 1.19v1.2c0 .72-.31 1.19-.69 1.19h-32.47c-.38 0-.69-.47-.69-1.19v-1.2c.03-.6.31-1.19.69-1.19zM243.84 57.71h32.48c.38 0 .69.47.69 1.19v1.2c0 .72-.31 1.19-.69 1.19h-32.48c-.37 0-.69-.47-.69-1.19v-1.2c.04-.6.32-1.19.69-1.19zM289.4 57.71h32.48c.37 0 .69.47.69 1.19v1.2c0 .72-.32 1.19-.69 1.19H289.4c-.38 0-.69-.47-.69-1.19v-1.2c.03-.6.29-1.19.69-1.19zM334.07 57.71h32.47c.38 0 .7.47.7 1.19v1.2c0 .72-.32 1.19-.7 1.19h-32.47c-.38 0-.69-.47-.69-1.19v-1.2c.03-.6.31-1.19.69-1.19zM453.46 5.75h23.48c.38 0 .69.47.69 1.19v1.2c0 .71-.31 1.19-.69 1.19h-23.48c-.37 0-.69-.48-.69-1.19v-1.2c.03-.6.32-1.19.69-1.19zM407.12 5.75h34.48c.38 0 .69.47.69 1.19v1.2c0 .71-.31 1.19-.69 1.19h-34.48c-.37 0-.69-.48-.69-1.19v-1.2c.03-.6.32-1.19.69-1.19zM385.28 5.75h9.48c.38 0 .69.47.69 1.19v1.2c0 .71-.31 1.19-.69 1.19h-9.48c-.37 0-.69-.48-.69-1.19v-1.2c.03-.6.32-1.19.69-1.19zM23.06 219.25h80.06c.37 0 .69.48.69 1.19v1.2c0 .72-.32 1.2-.69 1.2H23.06c-.38 0-.69-.48-.69-1.2v-1.2c.03-.59.31-1.19.69-1.19zM23.06 229.26h88.06c.37 0 .69.48.69 1.2v1.2c0 .71-.32 1.19-.69 1.19H23.06c-.38 0-.69-.48-.69-1.19v-1.2c.03-.6.31-1.2.69-1.2zM23.06 239.28h88.06c.37 0 .69.48.69 1.19v1.2c0 .72-.32 1.2-.69 1.2H23.06c-.38 0-.69-.48-.69-1.2v-1.2c.03-.59.31-1.19.69-1.19z" opacity=".75"/>
    <path fill="#778ca6" d="M23.06 249.29h28.15c.38 0 .69.48.69 1.2v1.2c0 .71-.31 1.19-.69 1.19H23.06c-.38 0-.69-.48-.69-1.19v-1.2c.03-.6.31-1.2.69-1.2z" opacity=".25"/>
    <path fill="#778ca6" d="M23.06 412.83h77.06c.37 0 .69.64.69 1.6V416c0 1-.32 1.6-.69 1.6H23.06c-.38 0-.69-.64-.69-1.6v-1.59c.03-.78.31-1.58.69-1.58zM23.06 424.33h296.75c.38 0 .69.48.69 1.2v1.2c0 .71-.31 1.19-.69 1.19H23.06c-.38 0-.69-.48-.69-1.19v-1.2c.03-.6.31-1.2.69-1.2zM23.06 434.35h174.19c.38 0 .69.48.69 1.19v1.2c0 .72-.31 1.2-.69 1.2H23.06c-.38 0-.69-.48-.69-1.2v-1.2c.03-.54.31-1.19.69-1.19zM351 441.94h35.7c.38 0 .69.47.69 1.19v1.2c0 .72-.31 1.19-.69 1.19H351c-.38 0-.69-.47-.69-1.19v-1.2c.03-.6.31-1.19.69-1.19zM351 453h44.7c.38 0 .69.48.69 1.2v1.19c0 .72-.31 1.2-.69 1.2H351c-.38 0-.69-.48-.69-1.2v-1.19c.03-.6.31-1.2.69-1.2zM351 464.06h44.7c.38 0 .69.48.69 1.2v1.2c0 .71-.31 1.19-.69 1.19H351c-.38 0-.69-.48-.69-1.19v-1.2c.03-.6.31-1.2.69-1.2zM351 475.13h30.7c.38 0 .69.48.69 1.19v1.2c0 .72-.31 1.2-.69 1.2H351c-.38 0-.69-.48-.69-1.2v-1.2c.03-.59.31-1.19.69-1.19zM417.43 441.94h35.71c.37 0 .69.47.69 1.19v1.2c0 .72-.32 1.19-.69 1.19h-35.71c-.37 0-.69-.47-.69-1.19v-1.2c.03-.6.32-1.19.69-1.19zM417.43 453h44.71c.37 0 .69.48.69 1.2v1.19c0 .72-.32 1.2-.69 1.2h-44.71c-.37 0-.69-.48-.69-1.2v-1.19c.03-.6.32-1.2.69-1.2zM417.43 464.06h40.71c.37 0 .69.48.69 1.2v1.2c0 .71-.32 1.19-.69 1.19h-40.71c-.37 0-.69-.48-.69-1.19v-1.2c.03-.6.32-1.2.69-1.2zM417.43 475.13h32.71c.37 0 .69.48.69 1.19v1.2c0 .72-.32 1.2-.69 1.2h-32.71c-.37 0-.69-.48-.69-1.2v-1.2c.03-.59.32-1.19.69-1.19zM126.44 219.25h80.06c.37 0 .69.48.69 1.19v1.2c0 .72-.32 1.2-.69 1.2h-80.06c-.38 0-.69-.48-.69-1.2v-1.2c.03-.59.31-1.19.69-1.19zM126.44 229.26h88.06c.37 0 .69.48.69 1.2v1.2c0 .71-.32 1.19-.69 1.19h-88.06c-.38 0-.69-.48-.69-1.19v-1.2c.03-.6.31-1.2.69-1.2z" opacity=".75"/>
    <path fill="#778ca6" d="M126.44 239.28h28.15c.38 0 .7.48.7 1.19v1.2c0 .72-.32 1.2-.7 1.2h-28.15c-.38 0-.69-.48-.69-1.2v-1.2c.03-.59.31-1.19.69-1.19z" opacity=".25"/>
    <path fill="#778ca6" d="M126.44 256.26h80.06c.37 0 .69.48.69 1.2v1.19c0 .72-.32 1.2-.69 1.2h-80.06c-.38 0-.69-.48-.69-1.2v-1.19c.03-.6.31-1.2.69-1.2zM126.44 266.28h88.06c.37 0 .69.47.69 1.19v1.2c0 .72-.32 1.19-.69 1.19h-88.06c-.38 0-.69-.47-.69-1.19v-1.2c.03-.6.31-1.19.69-1.19z" opacity=".75"/>
    <path fill="#778ca6" d="M126.44 276.29h28.15c.38 0 .7.48.7 1.2v1.19c0 .72-.32 1.2-.7 1.2h-28.15c-.38 0-.69-.48-.69-1.2v-1.19c.03-.6.31-1.2.69-1.2z" opacity=".25"/>
    <path fill="#778ca6" d="M126.44 293.27h80.06c.37 0 .69.48.69 1.2v1.2c0 .71-.32 1.19-.69 1.19h-80.06c-.38 0-.69-.48-.69-1.19v-1.2c.03-.6.31-1.2.69-1.2zM126.44 303.29h88.06c.37 0 .69.48.69 1.19v1.2c0 .72-.32 1.2-.69 1.2h-88.06c-.38 0-.69-.48-.69-1.2v-1.2c.03-.59.31-1.19.69-1.19z" opacity=".75"/>
    <path fill="#778ca6" d="M126.44 313.3h28.15c.38 0 .7.48.7 1.2v1.2c0 .71-.32 1.19-.7 1.19h-28.15c-.38 0-.69-.48-.69-1.19v-1.2c.03-.6.31-1.2.69-1.2z" opacity=".25"/>
    <path fill="#778ca6" d="M126.44 330.29h80.06c.37 0 .69.47.69 1.19v1.2c0 .72-.32 1.19-.69 1.19h-80.06c-.38 0-.69-.47-.69-1.19v-1.2c.03-.6.31-1.19.69-1.19zM126.44 340.3h88.06c.37 0 .69.48.69 1.2v1.19c0 .72-.32 1.2-.69 1.2h-88.06c-.38 0-.69-.48-.69-1.2v-1.19c.03-.6.31-1.2.69-1.2z" opacity=".75"/>
    <path fill="#778ca6" d="M126.44 350.32h28.15c.38 0 .7.47.7 1.19v1.2c0 .72-.32 1.19-.7 1.19h-28.15c-.38 0-.69-.47-.69-1.19v-1.2c.03-.6.31-1.19.69-1.19z" opacity=".25"/>
    <path fill="#778ca6" d="M229.41 219.25h88.06c.37 0 .69.48.69 1.19v1.2c0 .72-.32 1.2-.69 1.2h-88.06c-.38 0-.69-.48-.69-1.2v-1.2c.03-.59.28-1.19.69-1.19zM229.41 229.26h96.06c.37 0 .69.48.69 1.2v1.2c0 .71-.32 1.19-.69 1.19h-96.06c-.38 0-.69-.48-.69-1.19v-1.2c.03-.6.28-1.2.69-1.2zM382.21 129.71h61.06c.38 0 .69.47.69 1.19v1.2c0 .72-.31 1.19-.69 1.19h-61.06c-.37 0-.69-.47-.69-1.19v-1.2c.03-.6.32-1.19.69-1.19zM382.21 200.41h45.06c.38 0 .69.48.69 1.2v1.19c0 .72-.31 1.2-.69 1.2h-45.06c-.37 0-.69-.48-.69-1.2v-1.19c.03-.61.32-1.2.69-1.2zM473.87 200.41H476c.38 0 .69.48.69 1.2v1.19c0 .72-.31 1.2-.69 1.2h-2.14c-.37 0-.69-.48-.69-1.2v-1.19c.04-.61.33-1.2.7-1.2zM473.87 218.66H476c.38 0 .69.48.69 1.2v1.19c0 .72-.31 1.2-.69 1.2h-2.14c-.37 0-.69-.48-.69-1.2v-1.19c.04-.6.33-1.2.7-1.2zM382.21 218.66h61.06c.38 0 .69.48.69 1.2v1.19c0 .72-.31 1.2-.69 1.2h-61.06c-.37 0-.69-.48-.69-1.2v-1.19c.03-.6.32-1.2.69-1.2zM473.87 236.91H476c.38 0 .69.48.69 1.2v1.19c0 .72-.31 1.2-.69 1.2h-2.14c-.37 0-.69-.48-.69-1.2v-1.19c.04-.6.33-1.2.7-1.2zM382.21 236.91H460c.38 0 .69.48.69 1.2v1.19c0 .72-.31 1.2-.69 1.2h-77.8c-.37 0-.69-.48-.69-1.2v-1.19c.04-.6.33-1.2.7-1.2zM473.87 255.16H476c.38 0 .69.48.69 1.2v1.2c0 .71-.31 1.19-.69 1.19h-2.14c-.37 0-.69-.48-.69-1.19v-1.2c.04-.6.33-1.2.7-1.2zM382.21 255.16h61.06c.38 0 .69.48.69 1.2v1.2c0 .71-.31 1.19-.69 1.19h-61.06c-.37 0-.69-.48-.69-1.19v-1.2c.03-.6.32-1.2.69-1.2zM473.87 273.42H476c.38 0 .69.47.69 1.19v1.2c0 .72-.31 1.19-.69 1.19h-2.14c-.37 0-.69-.47-.69-1.19v-1.2c.04-.61.33-1.19.7-1.19zM382.21 273.42h61.06c.38 0 .69.47.69 1.19v1.2c0 .72-.31 1.19-.69 1.19h-61.06c-.37 0-.69-.47-.69-1.19v-1.2c.03-.61.32-1.19.69-1.19zM473.87 291.67H476c.38 0 .69.48.69 1.19v1.2c0 .72-.31 1.19-.69 1.19h-2.14c-.37 0-.69-.47-.69-1.19v-1.2c.04-.59.33-1.19.7-1.19zM382.21 291.67h61.06c.38 0 .69.48.69 1.19v1.2c0 .72-.31 1.19-.69 1.19h-61.06c-.37 0-.69-.47-.69-1.19v-1.2c.03-.59.32-1.19.69-1.19zM382.21 144.21h69.06c.38 0 .69.47.69 1.19v1.2c0 .72-.31 1.19-.69 1.19h-69.06c-.37 0-.69-.47-.69-1.19v-1.2c.03-.6.32-1.19.69-1.19zM382.21 158.71h69.06c.38 0 .69.47.69 1.19v1.2c0 .72-.31 1.19-.69 1.19h-69.06c-.37 0-.69-.47-.69-1.19v-1.2c.03-.6.32-1.19.69-1.19z" opacity=".75"/>
    <path fill="#377da8" d="M382.21 173.21h69.06c.38 0 .69.47.69 1.19v1.2c0 .72-.31 1.19-.69 1.19h-69.06c-.37 0-.69-.47-.69-1.19v-1.2c.03-.6.32-1.19.69-1.19z"/>
    <path fill="#778ca6" d="M229.41 244.86h88.06c.37 0 .69.48.69 1.2v1.19c0 .72-.32 1.2-.69 1.2h-88.06c-.38 0-.69-.48-.69-1.2v-1.19c.03-.6.28-1.2.69-1.2zM229.41 254.87h96.06c.37 0 .69.48.69 1.2v1.2c0 .71-.32 1.19-.69 1.19h-96.06c-.38 0-.69-.48-.69-1.19v-1.2c.03-.6.28-1.2.69-1.2zM229.41 270.47h88.06c.37 0 .69.48.69 1.2v1.19c0 .72-.32 1.2-.69 1.2h-88.06c-.38 0-.69-.48-.69-1.2v-1.19c.03-.6.28-1.2.69-1.2zM229.41 280.48h96.06c.37 0 .69.48.69 1.2v1.2c0 .71-.32 1.19-.69 1.19h-96.06c-.38 0-.69-.48-.69-1.19v-1.2c.03-.6.28-1.2.69-1.2zM229.41 296.08h88.06c.37 0 .69.48.69 1.2v1.19c0 .72-.32 1.2-.69 1.2h-88.06c-.38 0-.69-.48-.69-1.2v-1.19c.03-.6.28-1.2.69-1.2zM229.41 306.1h96.06c.37 0 .69.47.69 1.19v1.2c0 .71-.32 1.19-.69 1.19h-96.06c-.38 0-.69-.48-.69-1.19v-1.2c.03-.6.28-1.19.69-1.19zM229.41 321.69h88.06c.37 0 .69.48.69 1.2v1.19c0 .72-.32 1.2-.69 1.2h-88.06c-.38 0-.69-.48-.69-1.2v-1.19c.03-.6.28-1.2.69-1.2zM229.41 331.71h96.06c.37 0 .69.47.69 1.19v1.2c0 .72-.32 1.19-.69 1.19h-96.06c-.38 0-.69-.47-.69-1.19v-1.2c.03-.6.28-1.19.69-1.19zM23.06 269.65h80.06c.37 0 .69.48.69 1.2V272c0 .72-.32 1.2-.69 1.2H23.06c-.38 0-.69-.48-.69-1.2v-1.19c.03-.56.31-1.16.69-1.16zM23.06 279.66h88.06c.37 0 .69.48.69 1.2v1.2c0 .71-.32 1.19-.69 1.19H23.06c-.38 0-.69-.48-.69-1.19v-1.2c.03-.6.31-1.2.69-1.2zM23.06 289.68h88.06c.37 0 .69.48.69 1.2v1.19c0 .72-.32 1.2-.69 1.2H23.06c-.38 0-.69-.48-.69-1.2v-1.19c.03-.6.31-1.2.69-1.2z" opacity=".75"/>
    <path fill="#778ca6" d="M23.06 299.69h28.15c.38 0 .69.48.69 1.2v1.2c0 .71-.31 1.19-.69 1.19H23.06c-.38 0-.69-.48-.69-1.19v-1.2c.03-.6.31-1.2.69-1.2z" opacity=".25"/>
    <path fill="#778ca6" d="M23.06 320.05h80.06c.37 0 .69.48.69 1.2v1.19c0 .72-.32 1.2-.69 1.2H23.06c-.38 0-.69-.48-.69-1.2v-1.19c.03-.6.31-1.2.69-1.2zM23.06 330.07h88.06c.37 0 .69.47.69 1.19v1.2c0 .71-.32 1.19-.69 1.19H23.06c-.38 0-.69-.48-.69-1.19v-1.2c.03-.6.31-1.19.69-1.19zM23.06 340.08h88.06c.37 0 .69.48.69 1.2v1.19c0 .72-.32 1.2-.69 1.2H23.06c-.38 0-.69-.48-.69-1.2v-1.19c.03-.6.31-1.2.69-1.2z" opacity=".75"/>
    <path fill="#778ca6" d="M23.06 350.1h28.15c.38 0 .69.47.69 1.19v1.2c0 .71-.31 1.19-.69 1.19H23.06c-.38 0-.69-.48-.69-1.19v-1.2c.03-.6.31-1.19.69-1.19z" opacity=".25"/>
    <path fill="#377da8" d="M36.86 19.42a2.46 2.46 0 0 0-.86-.52l-.52 10.25L38 22.08a2.67 2.67 0 0 0-1.14-2.66zm-4.19-.61L34.16 29l1.48-10.21a4.58 4.58 0 0 0-2.97.02zm-1.22.61A2.68 2.68 0 0 0 30.27 22l2.53 7.07-.48-10.17a2.15 2.15 0 0 0-.87.52zm-5.15 1c1.71 3 3.45 6.19 5.11 9-.57-2.49-1.18-6.63-2.05-7.81a3.69 3.69 0 0 0-3.06-1.23zm-3 1.48l6.94 8.07L26 20.42a3.38 3.38 0 0 0-2.71 1.44zM37.82 24l-1.13 5.54c1.48-2.57 3-5.1 4.4-7.72A3.41 3.41 0 0 0 37.82 24zm3.67-2.18l-3.67 8.21 6.46-7a3.89 3.89 0 0 0-2.79-1.17zm-19.11 3.71c2.27 1.74 4.53 3.53 6.8 5.28l-6.11-8.64a6.06 6.06 0 0 0-.69 3.36zM45.07 24a3.23 3.23 0 0 0-.53-.74L39 30.89c2.18-1.62 4.34-3.3 6.45-5a3.24 3.24 0 0 0-.38-1.89zm-22.65 5l5.89 2.71c-2-2-3.93-3.84-5.89-5.76v3zm23 .18v-2.8l-5.59 5.52c1.92-.9 3.66-1.75 5.58-2.66zm-23 2.53c1.79.39 3.75.87 5.36 1.22l-5.36-3.54zm23 .13v-2.08C43.76 30.85 42 31.94 40.48 33zm-23 2.53h5.23l-5.27-2.17zm23 0v-2c-1.7.74-3.18 1.35-4.8 2z"/>
    <path fill="#377da8" d="M43.63 19.16a2.23 2.23 0 1 0-4.45 0c-.05 2.84 4.58 3.01 4.45 0zm-14.88-1.62c.13-3.14-4.72-3-4.54 0-.21 3.14 4.84 3.19 4.54 0zm5.41.61a2.38 2.38 0 0 0 2.57-2.53 2.36 2.36 0 0 0-2.57-2.7 2.37 2.37 0 0 0-2.53 2.7 2.37 2.37 0 0 0 2.53 2.53zm26.26 7.25h1v-5.81h-1zm-1.92-1.66l.57 1.66h1l-2-5.81h-1.22l-1.71 4.93-1.65-2.09 2.22-2.84h-1.18l-2.05 2.75v-2.75h-1v5.81h1v-2.84l2.14 2.84h1.18l.57-1.66zm-1.09-3.23l.83 2.4h-1.61l.78-2.4zm10.3 12.3l-1-4.23h-1.79v5.85h1v-5l1.27 5h1l1.27-5v5h1v-5.85h-1.7zM73 28.58l-2 5.85h1l.52-1.7h2.14l.57 1.7h1l-2-5.85zm-.22 3.36l.79-2.44.83 2.44zm7.59 1.14l-2.31-4.5H76.7v5.85h1V30l2.3 4.43h1.35v-5.85h-1v4.5zm19.12.48h-2.4v-1.62h1.74v-.87h-1.75v-1.62h2.18v-.87h-3.19v5.85h3.41zm-9.21-5h-.18v4.54l-2.31-4.54h-1.36v5h-3.06v-1.62h1.79v-.87h-1.79v-1.62h2.19v-.87h-3.19v5.85h5V30l2.31 4.45h1.35v-5h1.79v5h1v-5h1.74v-.87zm-26.8 2.95a1.76 1.76 0 0 0 .57-1.27 1.65 1.65 0 0 0-.57-1.24 2.4 2.4 0 0 0-1.7-.44h-1.66v5H57v-1.62h1.79v-.87H57v-1.62h2.2v-.87H56v5.85h5.1v-2.49h.48c.48.74 1.49 2.49 1.49 2.49h1.17l-1.57-2.58a1.47 1.47 0 0 0 .81-.34zm-2.36-.4v-1.66H62c.79 0 1.09.31 1.09.79s-.3.87-1.09.87zM71.59 23h.53c.43.7 1.44 2.45 1.44 2.45h1.18l-1.58-2.53a1.63 1.63 0 0 0 .79-.4 1.61 1.61 0 0 0 .57-1.22A1.43 1.43 0 0 0 74 20a2.34 2.34 0 0 0-1.66-.44h-1.7v5h-3.1v-1.65h1.79v-.83h-1.84v-1.66h2.23v-.83h-3.19v5.81h5.06V23zm0-.91v-1.67h.88c.74 0 1 .31 1 .83s-.3.83-1 .83h-.88zM54.84 29a2.34 2.34 0 0 0-1.66-.44h-1.7v5.85h1V32h.7a2.34 2.34 0 0 0 1.66-.44 1.84 1.84 0 0 0 .57-1.31 1.69 1.69 0 0 0-.57-1.25zm-1.53 2.14h-.83v-1.69h.83c.79 0 1.09.35 1.09.83s-.35.88-1.09.88zm12.57-7.42c0-.83-.53-1.35-1.53-1.75-.78-.26-1.18-.48-1.18-1s.35-.74 1.09-.74a2.73 2.73 0 0 1 1.22.31v-.83a2.81 2.81 0 0 0-1.22-.26c-1.26 0-2.09.69-2.09 1.61s.65 1.35 1.61 1.7c.75.26 1.09.53 1.09 1s-.43.82-1.13.82a3 3 0 0 1-1.57-.43v.91a3.35 3.35 0 0 0 1.53.35c1.48 0 2.18-.82 2.18-1.74zm34.29 9.47a1 1 0 1 1 1 1 1 1 0 0 1-1-.98zm1 1.22a1.23 1.23 0 1 0-1.17-1.2 1.22 1.22 0 0 0 1.18 1.22zm-.26-1.14h.26l.35.61h.26l-.44-.61c.22 0 .39-.13.39-.39s-.17-.39-.52-.39h-.52v1.41h.22v-.61zm0-.17v-.44h.3c.13 0 .31 0 .31.22s-.18.22-.35.22zM152.04 12.92l-43.58 2 7.05 17.97 35.53-3 1-16.97z"/>
    <path fill="#d7eaf5" d="M22.42 107h310.96v78.67H22.42z"/>
    <path fill="#377da8" d="M22.42 149.67h310.96v36H22.42z"/>
    <rect width="99.01" height="95.08" x="367.24" y="325.28" fill="#377da8" rx="9.8" ry="9.8"/>
    <path fill="#fff" d="M31.06 158.59H178c.38 0 .69.48.69 1.19V161c0 .72-.31 1.2-.69 1.2H31.06c-.38 0-.69-.48-.69-1.2v-1.2c.03-.61.31-1.21.69-1.21zM31.06 167.08H178c.38 0 .69.47.69 1.19v1.2c0 .72-.31 1.19-.69 1.19H31.06c-.38 0-.69-.47-.69-1.19v-1.2c.03-.6.31-1.19.69-1.19zM31.06 175.56h120.63c.38 0 .7.48.7 1.2V178c0 .71-.32 1.19-.7 1.19H31.06c-.38 0-.69-.48-.69-1.19v-1.2c.03-.64.31-1.24.69-1.24zM286.44 175.56h32.27c.38 0 .69.48.69 1.2V178c0 .71-.31 1.19-.69 1.19h-32.27c-.38 0-.7-.48-.7-1.19v-1.2c.04-.64.32-1.24.7-1.24z" opacity=".75"/>
    <path fill="#abd065" d="M366.35 116H476.7v2H366.35zM366.35 188.5H476.7v2H366.35z"/>
    <path fill="#fff" d="M122.4 21.16l19.13-.91c.38 0 .72.44.75 1.16l.06 1.19c0 .72-.26 1.21-.63 1.23l-19.14.91c-.37 0-.71-.44-.74-1.16l-.06-1.19c0-.6.23-1.21.63-1.23z" opacity=".9"/>
  </g>
</svg>
