<svg id="94822150-6b3e-4d8e-8c21-05543f9df2d9" data-name="4d85bc7a-c81c-4abb-8762-3ba4d1873b81" xmlns="http://www.w3.org/2000/svg" viewBox="0 0 175.74 60.45"><title>kaiser-logo</title><path d="M88.21,10.39a4.11,4.11,0,0,0-1.39-.84L86,25.94l4-11.29a4.27,4.27,0,0,0-1.81-4.25Zm-4.32-2c2.93.07,4-2,4.11-4C88.14,1.25,86.19,0,83.89,0s-4.11,1.33-4,4.32c.07,1.67.77,4,4,4Zm-8.64-1c.21-5-7.53-4.81-7.25,0C67.72,12.39,75.74,12.48,75.25,7.39ZM99,10c.14-4.95-7.25-5-7.11,0C91.82,14.6,99.21,14.81,99,10Zm2.86,24.4V31.1c-2.72,1.19-5.09,2.16-7.67,3.28Zm-36.81,0h8.37l-8.37-3.56Zm36.81-4V26.91c-2.65,1.74-5.44,3.49-7.88,5.23l7.88-1.81Zm-36.81-.21c2.86.63,6,1.4,8.58,2l-8.58-5.65v3.65Zm36.81-4V21.61L93,30.33c3.07-1.4,5.86-2.79,8.93-4.25ZM65.13,25.8l9.41,4.32C71.41,27,68.27,24,65.13,20.92Zm36.18-8a4.58,4.58,0,0,0-.84-1.18l-8.91,12.1c3.56-2.65,7-5.3,10.32-8a5.14,5.14,0,0,0-.56-2.93ZM65.06,20.15c3.63,2.79,7.25,5.65,10.88,8.44l-9.76-13.8a9.68,9.68,0,0,0-1.12,5.37ZM95.6,14.29,89.75,27.4l10.32-11.23a6.22,6.22,0,0,0-4.46-1.88Zm-5.86,3.49-1.81,8.85c2.37-4.11,4.74-8.16,7-12.34-2.23.21-4.46,1-5.23,3.49ZM66.53,14.29l11.09,12.9L70.78,12a5.37,5.37,0,0,0-4.25,2.3Zm4.81-2.37c2.72,4.74,5.51,9.9,8.16,14.43-.91-4-1.88-10.6-3.28-12.48-1.6-2.23-4.88-2-4.88-2Zm8.23-1.53a4.26,4.26,0,0,0-1.88,4.18l4,11.3L81,9.55a3.55,3.55,0,0,0-1.39.84Zm2-1,2.37,16.32,2.32-16.3a7.35,7.35,0,0,0-4.74,0Z" fill="#007dab"/><path d="M20,60.32h2.2v-13H20Zm12.17-3.7c0-1.85-1.17-3-3.41-3.9-1.75-.58-2.63-1.07-2.63-2.14,0-.78.78-1.65,2.43-1.65a6.16,6.16,0,0,1,2.73.68V47.76a6.32,6.32,0,0,0-2.73-.58c-2.82,0-4.67,1.56-4.67,3.6s1.46,3,3.6,3.8c1.66.58,2.43,1.17,2.43,2.24s-1,1.85-2.53,1.85a6.73,6.73,0,0,1-3.51-1v2a7.66,7.66,0,0,0,3.41.78c3.31,0,4.87-1.85,4.87-3.9ZM44.9,54.87h1.17c1,1.56,3.21,5.45,3.21,5.45h2.63L48.4,54.67a3.71,3.71,0,0,0,1.75-.88,3.64,3.64,0,0,0,1.27-2.73,3.2,3.2,0,0,0-1.27-2.73,5.27,5.27,0,0,0-3.7-1h-3.8v5.45h0v5.65H35.74v-3.7h4V52.92h-4v-3.7h5V47.37H33.6v13H44.9Zm0-2v-3.6h2c1.66,0,2.34.68,2.34,1.85S48.51,53,46.85,53h-2Zm-29.22,3.8L17,60.37h2.34l-4.48-13H12l-3.8,11L4.48,53.7l5-6.33H6.82L2.24,53.51V47.37H0v13H2.24V54L7,60.32H9.64l1.27-3.7h4.77Zm-2.43-7.21h0l1.85,5.35H11.5Z" fill="#007dab"/><path d="M96.14,56.72,93.9,47.27h-4v13h2.24v-11L95,60.32h2.34l2.82-11.1v11.1h2.14v-13H98.5l-2.34,9.45Zm73.21.15a2.89,2.89,0,1,1,2.9,2.88h0a2.84,2.84,0,0,1-2.88-2.8S169.35,56.9,169.35,56.87Zm2.88,3.51a3.51,3.51,0,1,0-3.51-3.51h0a3.5,3.5,0,0,0,3.49,3.51Zm-.75-3.26h.75l1,1.76H174l-1.26-1.76c.63-.13,1.13-.38,1.13-1.13s-.5-1.13-1.51-1.13h-1.51v4h.63V57.12Zm0-.5V55.36h.88c.38,0,.88.13.88.63s-.5.63-1,.63ZM67.42,48.24a5.27,5.27,0,0,0-3.7-1h-3.8v13h2.24V55h1.56c1.85,0,2.92-.29,3.7-1a4.09,4.09,0,0,0,1.27-2.92,3.68,3.68,0,0,0-1.27-2.82ZM64,53H62.16V49.2H64c1.75,0,2.43.78,2.43,1.85S65.66,53,64,53Zm22.69.78A3.85,3.85,0,0,0,88,51a3.64,3.64,0,0,0-1.27-2.73c-.78-.68-1.85-1-3.8-1H79.2v5.55h0v5.55H72.28v-3.6h4v-2h-4v-3.6h4.87v-2H70v13H81.44v-5.5h1.07c1.07,1.66,3.31,5.55,3.31,5.55h2.63l-3.51-5.75a3.23,3.23,0,0,0,1.75-.78Zm-5.26-.87v-3.7h1.85c1.75,0,2.43.68,2.43,1.75,0,1.27-.68,2-2.43,2Zm65.05-5.65h-.39V57.4l-5.16-10.13h-3v11.1H131.1v-3.6h4v-2h-4v-3.6H136v-2h-7.11v13h11.2V50.39l5.16,9.93h3V49.22h4v11.1h2.24V49.22h3.9l-.1-2H146.48ZM167,58.37h-5.36v-3.6h3.9v-2h-3.9v-3.6h4.87v-2H159.4v13H167ZM124.39,57.3l-5.16-10h-3v13h2.14V50.49l5.16,9.84h3v-13h-2.14v10Zm-16.46-10-4.48,13h2.24l1.17-3.8h4.77l1.27,3.8h2.34l-4.48-13Zm-.49,7.5,1.75-5.45h0L111,54.77Z" fill="#007dab"/></svg>