<svg xmlns="http://www.w3.org/2000/svg" viewBox="0 0 500 500"><title>kaiser</title><g id="acf91e6a-00f4-4999-995d-0f3f092bc61b" data-name="Layer 5"><rect width="500" height="500" fill="#f4f6fb"/></g><g id="c3e99edd-c6e0-474e-bd1a-fe633400e182" data-name="Kaiser"><g id="f3c86764-ade3-4060-b451-e1cb4ef7dc93" data-name="Home"><g id="d0a90893-53c0-487c-88d2-ce177511b090" data-name="Home-Copy"><g id="d23c65b1-c865-44de-98ae-134f6a7c3982" data-name="1400-expanded"><g id="8899e4f6-a805-47c3-9736-90c2b93eb837" data-name="top-bar"><g id="9349b909-a134-47b6-a861-6f2c5fe99abb" data-name="logo"><path id="921fd12e-2cc4-491c-a7fb-a2479cd828e9" data-name="Fill-1" d="M82.36,241.81a4.91,4.91,0,0,0-1.78-1.05l-1.06,20.62,5.2-14.29c.49-2.19-.73-4-2.36-5.28" fill="#026ca7"/><path id="37871e56-f2f6-4cea-8dc2-618b1754c178" data-name="Fill-2" d="M73.84,240.51l3,20.55,2.93-20.55a8.75,8.75,0,0,0-5.93,0" fill="#026ca7"/><path id="864ee513-6b03-472d-8e08-9288180b29b3" data-name="Fill-3" d="M71.32,241.81c-1.62,1.38-2.84,3.17-2.35,5.28l5.19,14.29-1-20.62a4,4,0,0,0-1.79,1.05" fill="#026ca7"/><path id="fbe76ae3-0085-468a-8d6b-43859ffa8091" data-name="Fill-4" d="M60.93,243.76c3.41,6,7,12.42,10.39,18.19-1.22-5-2.44-13.4-4.22-15.75-2-2.85-6.17-2.44-6.17-2.44" fill="#026ca7"/><path id="875e19c9-195c-493c-8f69-7cac03fb9d79" data-name="Fill-5" d="M54.84,246.76,69,263,60.2,243.84a6.66,6.66,0,0,0-5.36,2.92" fill="#026ca7"/><path id="b82545e5-e287-4a5b-8e13-bed046475d5b" data-name="Fill-6" d="M84.31,251.15,82,262.27c3-5.19,6-10.31,8.93-15.51-2.76.17-5.6,1.22-6.58,4.39" fill="#026ca7"/><path id="b997094a-1134-446c-b94e-ae4a24900280" data-name="Fill-7" d="M91.7,246.76l-7.47,16.49L97.31,249a7.52,7.52,0,0,0-5.61-2.28" fill="#026ca7"/><path id="5ecb2740-0577-45c2-a24d-d2cfbca81df3" data-name="Fill-8" d="M53,254.07c4.63,3.49,9.17,7.15,13.8,10.64L54.35,247.25A12.74,12.74,0,0,0,53,254.07" fill="#026ca7"/><path id="210a1d8c-78fd-45f1-ae43-70e9a455edc3" data-name="Fill-9" d="M98.93,251.07a3.65,3.65,0,0,0-1.06-1.46L86.59,265c4.46-3.33,8.77-6.74,13.07-10.07a6.72,6.72,0,0,0-.73-3.81" fill="#026ca7"/><path id="ef7ed4cb-afb9-4070-99d7-4f600757c156" data-name="Fill-10" d="M53,261.22l12,5.52c-4-4-8-7.79-12-11.69v6.17" fill="#026ca7"/><path id="20a28459-ba03-4af6-b6ca-cc06a05205ba" data-name="Fill-11" d="M99.74,261.62V256L88.37,267c3.9-1.86,7.47-3.57,11.37-5.36" fill="#026ca7"/><path id="6d839a58-ef26-452b-b6f9-738c595e1faf" data-name="Fill-12" d="M53,266.66c3.65.81,7.55,1.79,10.8,2.52L53,262v4.63" fill="#026ca7"/><path id="c86b5840-4c16-46dc-8c7c-d84996ee4c0d" data-name="Fill-13" d="M99.74,267v-4.3c-3.41,2.11-6.9,4.39-10.07,6.58L99.74,267" fill="#026ca7"/><path id="a84853c6-0d3e-4a61-94ec-bcf03dc346fe" data-name="Fill-14" d="M53,272H63.53L53,267.55V272" fill="#026ca7"/><path id="bf4f4d09-d25d-4097-aa5b-d1606dc84712" data-name="Fill-15" d="M99.74,272V268c-3.49,1.46-6.49,2.68-9.74,4.06h9.74" fill="#026ca7"/><path id="f6f4581d-6c05-4f95-9aeb-7393234ab10e" data-name="Fill-16" d="M96.09,241.24c.08-6.33-9.18-6.33-9-.08-.08,5.85,9.26,6.17,9,.08" fill="#026ca7"/><path id="d480cbf9-455e-4e2e-8d44-621971b62dae" data-name="Fill-17" d="M96.09,241.24h0" fill="#026ca7"/><path id="41126870-70e5-4334-8b98-0abd88677d2d" data-name="Fill-18" d="M65.88,238c.33-6.33-9.58-6.09-9.18,0-.32,6.34,9.75,6.42,9.18,0" fill="#026ca7"/><path id="e6694be2-ade5-420b-91e1-a5a2cc4aa6f7" data-name="Fill-19" d="M76.84,239.21c3.66.08,5.12-2.6,5.2-5.11.16-3.9-2.27-5.52-5.2-5.52s-5.28,1.7-5.11,5.52c.08,2.19,1,5,5.11,5.11" fill="#026ca7"/><path id="59e3f1dd-cb11-4237-b617-650d91ec686b" data-name="Fill-20" d="M154.63,247.09h4.31v24.68h-4.31Z" fill="#026ca7"/><path id="ba781fe6-1764-46e6-a0b5-74c3ef0da770" data-name="Fill-21" d="M139.45,247.09l-7.31,21L125,259.11l9.5-12h-5l-8.77,11.69V247.09h-4.3v24.68h4.3V259.59l9.1,12.18h5.19l2.28-7.14h9.09l2.36,7.14h4.46l-8.6-24.68Zm-1.06,14.13L141.72,251h.08l3.41,10.23Z" fill="#026ca7"/><path id="b695565d-792c-4b82-a5d1-651e8ab39ea9" data-name="Fill-22" d="M298.44,265l-4.3-17.86h-7.55v24.68h4.22v-21l5.44,21h4.3c.09,0,5.44-21,5.44-21v21h4.23V247.09h-7.39L298.44,265" fill="#026ca7"/><path id="95949e8c-7845-4dad-88ee-a99c8ca033ee" data-name="Fill-23" d="M321,247.09l-8.61,24.77h4.22l2.28-7.15h9.17l2.44,7.15H335l-8.6-24.77Zm-1,14.13L323.37,251h.08l3.49,10.23Z" fill="#026ca7"/><path id="d8607883-2357-42bd-8c14-1213a68cb7d9" data-name="Fill-24" d="M352.44,266.17l-9.9-19.08h-5.69v24.68h4.06V253.18l9.75,18.59h5.84V247.09h-4.14v19.08" fill="#026ca7"/><path id="09856907-6ebe-4e7e-8485-bbc1989aeb96" data-name="Fill-25" d="M433.89,268.2H423.66v-7h7.55v-3.57h-7.55v-7H433v-3.57H419.35v24.77h14.46l.08-3.66" fill="#026ca7"/><path id="eb5abfc5-6764-4f0a-afa2-e88d1b197c50" data-name="Fill-26" d="M394.67,247h-.81v19.32L384,247.09h-5.69V268.2H365.19v-7h7.55v-3.57h-7.55v-7h9.34v-3.57H361v24.77h21.35V252.94l9.75,18.83h5.85V250.82h7.55v21h4.3v-21h7.39v-3.73H394.67" fill="#026ca7"/><path id="b1781da0-70e0-45a2-96cf-7f1f5edc38f0" data-name="Fill-27" d="M280.42,259.35a6.76,6.76,0,0,0,2.35-5.28,6.57,6.57,0,0,0-2.35-5.19c-1.55-1.3-3.66-1.79-7.23-1.79H266v10.47h0v10.72H252.81v-7h7.55v-3.57h-7.55v-7h9.34v-3.57H248.5v24.77h21.77V261.3h2.11c1.95,3.09,6.17,10.56,6.17,10.56h5.11L277,261a8,8,0,0,0,3.41-1.63Zm-10.07-1.7v-7H274c3.25,0,4.55,1.3,4.55,3.41,0,2.36-1.3,3.49-4.55,3.49h-3.65Z" fill="#026ca7"/><path id="27bbeaa4-ccb4-4a3a-b149-24d8b7278296" data-name="Fill-28" d="M212.53,259.35a6.76,6.76,0,0,0,2.36-5.28,6.57,6.57,0,0,0-2.36-5.19c-1.46-1.3-3.65-1.79-7.23-1.79h-7.22v10.47h0v10.72H184.92v-7h7.55v-3.57h-7.55v-7h9.34v-3.57H180.62v24.77h21.76V261.3h2.11c1.95,3.09,6.17,10.56,6.17,10.56h5.12L209.12,261a7.11,7.11,0,0,0,3.41-1.63Zm-10.07-1.7v-7h3.66c3.24,0,4.54,1.3,4.54,3.41,0,2.36-1.3,3.49-4.54,3.49h-3.66Z" fill="#026ca7"/><path id="ddd33995-e80c-4cc2-91b9-179cf34e588c" data-name="Fill-29" d="M243.63,249c-1.54-1.3-3.65-1.87-7.23-1.87h-7.22v24.77h4.3V261.62h2.92c3.58,0,5.69-.64,7.15-1.94a7,7,0,0,0,2.36-5.36,7.15,7.15,0,0,0-2.28-5.36Zm-6.49,9h-3.66v-7.31h3.66c3.24,0,4.54,1.46,4.54,3.58s-1.46,3.73-4.54,3.73Z" fill="#026ca7"/><path id="a7bafc86-4a09-400b-a80f-ac02a327c44d" data-name="Fill-30" d="M171.52,257.4c-3.41-1.22-5-2.19-5-4.14,0-1.46,1.54-3.17,4.47-3.17a12.31,12.31,0,0,1,5.36,1.3v-3.57a12.74,12.74,0,0,0-5.28-1.14c-5.36,0-9,3-9,7,0,3.57,2.77,5.76,6.91,7.14,3.24,1.14,4.63,2.28,4.63,4.23,0,2.11-1.79,3.57-4.8,3.57a14.57,14.57,0,0,1-6.82-1.79v3.82a14.83,14.83,0,0,0,6.5,1.46c6.41,0,9.5-3.41,9.5-7.39.08-3.65-2.19-5.76-6.5-7.31" fill="#026ca7"/><path id="a355e4c3-57fb-45e4-b93d-433a9ae43f4e" data-name="Fill-31" d="M437.79,267.39a4.1,4.1,0,1,1,8.2,0,4.1,4.1,0,1,1-8.2,0Zm4.14,5a5,5,0,0,0,5.11-5,5.12,5.12,0,1,0-5.11,5Zm-1.06-4.62h1l1.54,2.51h1l-1.62-2.51a1.52,1.52,0,0,0,1.54-1.63c0-1.13-.65-1.62-2-1.62h-2.19v5.76H441V267.8Zm0-.73v-1.79h1.22c.65,0,1.3.16,1.3.81,0,.89-.65,1-1.38,1Z" fill="#026ca7"/></g></g></g></g></g></g></svg>