<svg xmlns="http://www.w3.org/2000/svg" xmlns:xlink="http://www.w3.org/1999/xlink" viewBox="0 0 500 500"><defs><linearGradient id="284e3682-a498-4344-9a44-d12732d79830" x1="250" y1="84.34" x2="250" y2="350.66" gradientUnits="userSpaceOnUse"><stop offset="0" stop-color="#4f7cbe"/><stop offset="1" stop-color="#5d58a6"/></linearGradient></defs><title>portfolio</title><g id="e2aa6f90-7f16-406c-be34-987b87bdf330" data-name="Layer 5"><rect width="500" height="500" fill="#fff"/></g><g id="861c7cba-2d1c-4e59-8bd2-94f5e2cbcbc0" data-name="Portfolio"><rect width="500" height="500" fill="#f7fafe"/><polygon points="500 414.58 0 397.58 0 0 500 0 500 414.58" fill="url(#284e3682-a498-4344-9a44-d12732d79830)"/><path d="M157.07,118.07h22.36c.46,0,.85.69.85,1.72v1.72c0,1-.39,1.72-.85,1.72H157.07c-.46,0-.85-.69-.85-1.72v-1.72C156.25,118.93,156.61,118.07,157.07,118.07Z" fill="#d8e5f3"/><path d="M286.12,118.07h5.94c.46,0,.85.69.85,1.72v1.72c0,1-.39,1.72-.85,1.72h-5.94c-.47,0-.86-.69-.86-1.72v-1.72C285.3,118.93,285.65,118.07,286.12,118.07Z" fill="#d8e5f3"/><path d="M186.91,118.07h32.51c.47,0,.85.69.85,1.72v1.72c0,1-.38,1.72-.85,1.72H186.91c-.46,0-.85-.69-.85-1.72v-1.72C186.1,118.93,186.45,118.07,186.91,118.07Z" fill="#d8e5f3"/><path d="M299.74,118.07h32.5c.47,0,.86.69.86,1.72v1.72c0,1-.39,1.72-.86,1.72h-32.5c-.47,0-.86-.69-.86-1.72v-1.72C298.92,118.93,299.27,118.07,299.74,118.07Z" fill="#d8e5f3"/><path d="M226.77,118.07h51.72c.46,0,.85.69.85,1.72v1.72c0,1-.39,1.72-.85,1.72H226.77c-.46,0-.85-.69-.85-1.72v-1.72C226,118.93,226.31,118.07,226.77,118.07Z" fill="#d8e5f3"/><path d="M27.67,20.33h112.5a.88.88,0,0,1,.82,1v.95a.88.88,0,0,1-.82,1H27.67a.88.88,0,0,1-.83-1v-.95C26.88,20.81,27.22,20.33,27.67,20.33Z" fill="#f7fafe" opacity="0.75"/><path d="M434.73,11.67h37.21c.45,0,.83.51.83,1.28v1.29c0,.78-.38,1.29-.83,1.29H434.73c-.45,0-.83-.51-.83-1.29V13C433.94,12.31,434.28,11.67,434.73,11.67Z" fill="#d8e5f3"/><path d="M385.13,11.67h37.2c.46,0,.83.51.83,1.28v1.29c0,.78-.37,1.29-.83,1.29h-37.2c-.45,0-.83-.51-.83-1.29V13C384.34,12.31,384.68,11.67,385.13,11.67Z" fill="#d8e5f3"/><path d="M187.08,101.63l-4.41,2.7,4.41,2.69-.62.89-4.83-3v-1.16l4.87-3Z" fill="#fff"/><path d="M194.09,107.7a4.44,4.44,0,0,1-2.38.59h-2.43V99.56h2.26a4.45,4.45,0,0,1,2.24.51,1.82,1.82,0,0,1,.89,1.7,1.78,1.78,0,0,1-.47,1.27,2.22,2.22,0,0,1-1.15.63c1.33.23,2,.94,2,2.13A2.08,2.08,0,0,1,194.09,107.7ZM193,100.86a2,2,0,0,0-1.23-.32h-1.19v2.7h1.29c1,0,1.55-.46,1.55-1.38a1.16,1.16,0,0,0-.42-1Zm.29,3.72a2.21,2.21,0,0,0-1.33-.35h-1.38v3h1.33c1.24,0,1.86-.48,1.86-1.46a1.43,1.43,0,0,0-.49-1.23Z" fill="#fff"/><path d="M201.71,102.38a4.63,4.63,0,0,1,0,5.1,3,3,0,0,1-4.34,0,4.61,4.61,0,0,1,0-5.1,3,3,0,0,1,4.33,0Zm-3.41.66a3.57,3.57,0,0,0-.41,1.91,3.49,3.49,0,0,0,.4,1.9,1.55,1.55,0,0,0,2.48,0,3.54,3.54,0,0,0,.41-1.91,3.5,3.5,0,0,0-.41-1.9,1.36,1.36,0,0,0-1.22-.62,1.41,1.41,0,0,0-1.25.63Z" fill="#fff"/><path d="M206.59,101.71a2.23,2.23,0,0,1,1-.26,2.12,2.12,0,0,1,1.89.92,4.69,4.69,0,0,1,.6,2.58,4.2,4.2,0,0,1-.7,2.52,2.3,2.3,0,0,1-2,1,2.12,2.12,0,0,1-1.78-.84l-.08.69h-1.07V98.93l1.22-.15v3.67A2.72,2.72,0,0,1,206.59,101.71Zm1.81,5.15a3.49,3.49,0,0,0,.42-1.91c0-1.69-.5-2.53-1.49-2.54a1.45,1.45,0,0,0-.88.29,2.78,2.78,0,0,0-.71.74v3.23a2,2,0,0,0,.63.61,1.59,1.59,0,0,0,.8.21,1.41,1.41,0,0,0,1.23-.63Z" fill="#fff"/><path d="M214.19,101.71a2.2,2.2,0,0,1,1-.26,2.09,2.09,0,0,1,1.88.92,4.6,4.6,0,0,1,.61,2.58,4.2,4.2,0,0,1-.7,2.52,2.31,2.31,0,0,1-2,1,2.12,2.12,0,0,1-1.78-.84l-.08.68h-1.07V98.93l1.21-.15v3.67A2.88,2.88,0,0,1,214.19,101.71Zm1.8,5.15a3.48,3.48,0,0,0,.43-1.91c0-1.69-.5-2.53-1.5-2.54a1.5,1.5,0,0,0-.88.29,2.6,2.6,0,0,0-.7.74v3.23a2,2,0,0,0,.63.61,1.59,1.59,0,0,0,.8.21A1.38,1.38,0,0,0,216,106.86Z" fill="#fff"/><path d="M223.07,108.33a4.51,4.51,0,0,1-1.1,1.86,3.36,3.36,0,0,1-2,.81l-.16-1a3.85,3.85,0,0,0,1.06-.33,1.79,1.79,0,0,0,.64-.55,3.74,3.74,0,0,0,.42-.88h-.42l-2.28-6.67h1.29l1.82,5.78,1.81-5.78h1.25Z" fill="#fff"/><path d="M232.29,104.41a4,4,0,0,1-2.47.69h-1.1v3.19h-1.25V99.56h2.3a4.15,4.15,0,0,1,2.54.68,2.4,2.4,0,0,1,.89,2A2.49,2.49,0,0,1,232.29,104.41Zm-.95-3.46a2.25,2.25,0,0,0-1.44-.43h-1.18v3.6h1.16a2.27,2.27,0,0,0,1.46-.42,1.74,1.74,0,0,0,.53-1.43A1.59,1.59,0,0,0,231.34,101Z" fill="#fff"/><path d="M240,107.33a.71.71,0,0,0,.41.27l-.29.84a1.43,1.43,0,0,1-1.29-.94,2.47,2.47,0,0,1-.9.7,3.1,3.1,0,0,1-1.2.24,2.19,2.19,0,0,1-1.6-.57,2,2,0,0,1-.58-1.5,1.84,1.84,0,0,1,.82-1.59,4.11,4.11,0,0,1,2.33-.56h1v-.5a1.16,1.16,0,0,0-.39-1,1.78,1.78,0,0,0-1.14-.3,5.29,5.29,0,0,0-1.76.34l-.32-.89a6.49,6.49,0,0,1,2.26-.44,2.84,2.84,0,0,1,1.92.57,2.11,2.11,0,0,1,.65,1.62v3.11A1,1,0,0,0,240,107.33Zm-2,0a2,2,0,0,0,.71-.67V105h-.89a2.47,2.47,0,0,0-1.47.34,1.15,1.15,0,0,0-.47,1,1.23,1.23,0,0,0,.3.89,1.25,1.25,0,0,0,.91.3,1.79,1.79,0,0,0,.91-.24Z" fill="#fff"/><path d="M247.07,108.31a3.71,3.71,0,0,1-1,.13,2.42,2.42,0,0,1-1.7-.56,2,2,0,0,1-.6-1.52v-3.84h-1.51v-.9h1.51v-1.51L245,100v1.65h2.29l-.15.9H245v3.81a1.1,1.1,0,0,0,.29.83,1.35,1.35,0,0,0,.94.27,2.57,2.57,0,0,0,1.27-.31l.45.82A3.44,3.44,0,0,1,247.07,108.31Z" fill="#fff"/><path d="M254.66,108.31a3.71,3.71,0,0,1-1,.13,2.42,2.42,0,0,1-1.7-.56,2,2,0,0,1-.6-1.52v-3.84h-1.51v-.9h1.51v-1.51l1.21-.14v1.65h2.29l-.15.9h-2.14v3.81a1.1,1.1,0,0,0,.29.83,1.37,1.37,0,0,0,.94.27,2.57,2.57,0,0,0,1.27-.31l.45.82A3.15,3.15,0,0,1,254.66,108.31Z" fill="#fff"/><path d="M259.25,106.94a1.77,1.77,0,0,0,1.32.52,2.73,2.73,0,0,0,.9-.14,3.59,3.59,0,0,0,.87-.45l.55.77a3.61,3.61,0,0,1-1.09.59,3.93,3.93,0,0,1-1.27.21,2.87,2.87,0,0,1-2.3-1,3.72,3.72,0,0,1-.83-2.53,4.42,4.42,0,0,1,.36-1.8,3,3,0,0,1,1-1.25,2.78,2.78,0,0,1,1.58-.46,2.54,2.54,0,0,1,2,.89,3.66,3.66,0,0,1,.74,2.42c0,.2,0,.4,0,.6h-4.47A2.35,2.35,0,0,0,259.25,106.94Zm-.05-4a2.49,2.49,0,0,0-.52,1.55H262a2.52,2.52,0,0,0-.43-1.54,1.45,1.45,0,0,0-1.16-.54A1.53,1.53,0,0,0,259.2,102.93Z" fill="#fff"/><path d="M270.86,101.62l-.19,2.34h-.94v-1.39h0c-1,0-1.72.71-2.14,2.15v2.67h1.35v.9h-3.59v-.9h1v-4.87h-1v-.9h2l.22,1.55a3.26,3.26,0,0,1,.95-1.29,2.35,2.35,0,0,1,1.43-.42A3.58,3.58,0,0,1,270.86,101.62Z" fill="#fff"/><path d="M276.37,107.21a.82.82,0,0,0,.42-.72,1,1,0,0,0-.12-.52,1.08,1.08,0,0,0-.45-.37,7.44,7.44,0,0,0-1-.34,5,5,0,0,1-1.69-.7,1.44,1.44,0,0,1-.55-1.23,1.6,1.6,0,0,1,.7-1.36,3.15,3.15,0,0,1,1.88-.51,4,4,0,0,1,2.48.76l-.53.79a3.78,3.78,0,0,0-.88-.43,3,3,0,0,0-1-.16c-.91,0-1.36.27-1.36.81a.62.62,0,0,0,.15.45,1.36,1.36,0,0,0,.52.33,9.39,9.39,0,0,0,1.06.35,4.21,4.21,0,0,1,1.63.74,1.62,1.62,0,0,1,.54,1.32,1.69,1.69,0,0,1-.83,1.51,4.36,4.36,0,0,1-4.71-.4l.66-.77a3.15,3.15,0,0,0,.92.53,3.07,3.07,0,0,0,1.08.19A2.14,2.14,0,0,0,276.37,107.21Z" fill="#fff"/><path d="M285.24,102.38A4,4,0,0,1,286,105a3.93,3.93,0,0,1-.77,2.54,2.68,2.68,0,0,1-2.17.94,2.65,2.65,0,0,1-2.17-.93,3.84,3.84,0,0,1-.76-2.55,4,4,0,0,1,.77-2.55,3,3,0,0,1,4.34,0Zm-3.42.67a3.54,3.54,0,0,0-.41,1.91,3.5,3.5,0,0,0,.41,1.9,1.55,1.55,0,0,0,2.48,0,3.58,3.58,0,0,0,.4-1.91,3.49,3.49,0,0,0-.4-1.9,1.38,1.38,0,0,0-1.23-.62A1.41,1.41,0,0,0,281.82,103.05Z" fill="#fff"/><path d="M288.06,101.62h1l.09.9a2.85,2.85,0,0,1,2.19-1.07,1.83,1.83,0,0,1,1.41.51,2.11,2.11,0,0,1,.47,1.48v4.85H292v-4.1a5.5,5.5,0,0,0-.07-1.07.89.89,0,0,0-.3-.54,1.14,1.14,0,0,0-.69-.18,1.61,1.61,0,0,0-1,.31,2.89,2.89,0,0,0-.76.76v4.82h-1.21Z" fill="#fff"/><path d="M295.07,109.17,300.46,98l1,.46L296,109.6Z" fill="#fff"/><path d="M307.69,103.74v1.16l-4.84,3-.62-.89,4.41-2.69-4.41-2.68.59-.91Z" fill="#fff"/><path d="M28.26,10A1.51,1.51,0,0,1,29,9.84a1.45,1.45,0,0,1,1.3.63,3.23,3.23,0,0,1,.42,1.78A2.89,2.89,0,0,1,30.22,14a1.58,1.58,0,0,1-1.35.67,1.45,1.45,0,0,1-1.23-.58l-.06.48h-.74V8.1l.84-.1v2.53A1.78,1.78,0,0,1,28.26,10Zm1.25,3.55a2.44,2.44,0,0,0,.29-1.32c0-1.16-.34-1.75-1-1.75a1,1,0,0,0-.61.2,1.94,1.94,0,0,0-.48.51v2.23a1.44,1.44,0,0,0,.43.42,1.08,1.08,0,0,0,.55.15A1,1,0,0,0,29.51,13.57Z" fill="#fff"/><path d="M35.37,10.49a2.72,2.72,0,0,1,.53,1.76A2.7,2.7,0,0,1,35.36,14a2.06,2.06,0,0,1-3,0,2.64,2.64,0,0,1-.52-1.76,2.7,2.7,0,0,1,.53-1.76,2,2,0,0,1,3,0ZM33,10.94a2.45,2.45,0,0,0-.28,1.32A2.48,2.48,0,0,0,33,13.57a1.08,1.08,0,0,0,1.72,0A2.55,2.55,0,0,0,35,12.25a2.49,2.49,0,0,0-.27-1.31.93.93,0,0,0-.85-.42A1,1,0,0,0,33,10.94Z" fill="#fff"/><path d="M38.74,10a1.51,1.51,0,0,1,.72-.18,1.45,1.45,0,0,1,1.3.63,3.23,3.23,0,0,1,.42,1.78A2.89,2.89,0,0,1,40.7,14a1.58,1.58,0,0,1-1.35.67,1.5,1.5,0,0,1-1.24-.57l0,.47h-.74V8.1l.84-.1v2.53A1.78,1.78,0,0,1,38.74,10ZM40,13.57a2.44,2.44,0,0,0,.29-1.32c0-1.16-.34-1.75-1-1.75a1,1,0,0,0-.61.2,1.94,1.94,0,0,0-.48.51v2.23a1.36,1.36,0,0,0,.44.42,1,1,0,0,0,.55.15,1,1,0,0,0,.84-.44Z" fill="#fff"/><path d="M44,10a1.51,1.51,0,0,1,.72-.18,1.45,1.45,0,0,1,1.3.63,3.23,3.23,0,0,1,.42,1.78A2.89,2.89,0,0,1,45.94,14a1.58,1.58,0,0,1-1.35.67,1.5,1.5,0,0,1-1.24-.57l-.05.47h-.74V8.1L43.4,8v2.53A1.78,1.78,0,0,1,44,10Zm1.25,3.55a2.44,2.44,0,0,0,.29-1.32c0-1.16-.34-1.75-1-1.75a1,1,0,0,0-.61.2,1.94,1.94,0,0,0-.48.51v2.23a1.36,1.36,0,0,0,.44.42,1,1,0,0,0,.55.15,1,1,0,0,0,.84-.44Z" fill="#fff"/><path d="M50.11,14.58a3,3,0,0,1-.76,1.29,2.29,2.29,0,0,1-1.37.56l-.12-.66a2.3,2.3,0,0,0,.73-.23,1.27,1.27,0,0,0,.45-.38,2.56,2.56,0,0,0,.29-.6H49L47.46,10h.89l1.26,4,1.24-4h.87Z" fill="#fff"/><path d="M56.86,12.25A3.07,3.07,0,0,1,56.4,14a1.66,1.66,0,0,1-2.52.15v2.17l-.84.1V10h.73l.06.62a1.73,1.73,0,0,1,.6-.54,1.59,1.59,0,0,1,.76-.19C56.3,9.84,56.86,10.64,56.86,12.25Zm-2.5-1.55a1.79,1.79,0,0,0-.48.51v2.23a1.4,1.4,0,0,0,.43.41,1.22,1.22,0,0,0,.56.14.91.91,0,0,0,.82-.42A2.49,2.49,0,0,0,56,12.26a2.84,2.84,0,0,0-.24-1.33.81.81,0,0,0-.75-.42A1,1,0,0,0,54.36,10.7Z" fill="#fff"/><path d="M61.76,13.9a.47.47,0,0,0,.28.18l-.2.58A1,1,0,0,1,61,14a1.6,1.6,0,0,1-.62.47,2.12,2.12,0,0,1-.83.17,1.52,1.52,0,0,1-1.1-.39,1.37,1.37,0,0,1-.4-1,1.28,1.28,0,0,1,.56-1.11,2.84,2.84,0,0,1,1.61-.39h.67V11.4a.8.8,0,0,0-.27-.67,1.26,1.26,0,0,0-.79-.21,3.62,3.62,0,0,0-1.21.24l-.22-.61a4.38,4.38,0,0,1,1.56-.31,1.91,1.91,0,0,1,1.32.4,1.39,1.39,0,0,1,.45,1.11V13.5A.8.8,0,0,0,61.76,13.9Zm-1.41,0a1.47,1.47,0,0,0,.49-.47V12.29h-.61a1.7,1.7,0,0,0-1,.24.8.8,0,0,0-.31.69.74.74,0,0,0,.83.82,1.23,1.23,0,0,0,.62-.17Z" fill="#fff"/><path d="M66.67,14.57a2.61,2.61,0,0,1-.69.09,1.64,1.64,0,0,1-1.17-.39,1.39,1.39,0,0,1-.42-1V10.58h-1V10h1v-1l.83-.09V10h1.58l-.1.63H65.23v2.63a.74.74,0,0,0,.2.57.92.92,0,0,0,.65.19,1.9,1.9,0,0,0,.87-.22l.32.57A2.63,2.63,0,0,1,66.67,14.57Z" fill="#fff"/><path d="M71.91,14.57a2.61,2.61,0,0,1-.69.09,1.64,1.64,0,0,1-1.17-.39,1.39,1.39,0,0,1-.42-1V10.58h-1V10h1v-1l.83-.09V10h1.59l-.11.63H70.47v2.63a.74.74,0,0,0,.2.57.92.92,0,0,0,.65.19,1.9,1.9,0,0,0,.87-.22l.32.57A2.63,2.63,0,0,1,71.91,14.57Z" fill="#fff"/><path d="M75.08,13.63A1.24,1.24,0,0,0,76,14a1.88,1.88,0,0,0,.62-.11,2.62,2.62,0,0,0,.6-.31l.38.54a2.38,2.38,0,0,1-.75.41,2.89,2.89,0,0,1-.88.14A2,2,0,0,1,74.37,14a2.63,2.63,0,0,1-.56-1.75A3,3,0,0,1,74.06,11a2.11,2.11,0,0,1,.71-.86,1.92,1.92,0,0,1,1.09-.31,1.76,1.76,0,0,1,1.41.61,2.52,2.52,0,0,1,.51,1.67,3,3,0,0,1,0,.42H74.68A1.61,1.61,0,0,0,75.08,13.63Zm0-2.77a1.77,1.77,0,0,0-.36,1.07H77a1.76,1.76,0,0,0-.3-1.06.93.93,0,0,0-.8-.37A1.05,1.05,0,0,0,75,10.86Z" fill="#fff"/><path d="M83.09,10,83,11.57h-.65v-1h0c-.7,0-1.19.49-1.48,1.48v1.85h.93v.62H79.28v-.62H80V10.57h-.71V10h1.34L80.77,11a2.23,2.23,0,0,1,.66-.89,1.57,1.57,0,0,1,1-.29A2.6,2.6,0,0,1,83.09,10Z" fill="#fff"/><path d="M86.89,13.81a.56.56,0,0,0,.29-.49A.86.86,0,0,0,87.1,13a.66.66,0,0,0-.32-.25,3.58,3.58,0,0,0-.72-.24A3.35,3.35,0,0,1,84.9,12a1,1,0,0,1-.38-.85,1.11,1.11,0,0,1,.49-.94,2.14,2.14,0,0,1,1.29-.35,2.78,2.78,0,0,1,1.72.52l-.37.55a2.81,2.81,0,0,0-.6-.3,2.21,2.21,0,0,0-.72-.11c-.63,0-.94.19-.94.56a.46.46,0,0,0,.1.32.84.84,0,0,0,.36.22,4.91,4.91,0,0,0,.74.24,2.86,2.86,0,0,1,1.12.51,1.11,1.11,0,0,1,.37.91,1.16,1.16,0,0,1-.57,1.05,2.78,2.78,0,0,1-1.41.35A2.72,2.72,0,0,1,84.26,14l.46-.53a2.15,2.15,0,0,0,1.38.5A1.47,1.47,0,0,0,86.89,13.81Z" fill="#fff"/><path d="M93,10.49a2.71,2.71,0,0,1,.52,1.76A2.7,2.7,0,0,1,93,14a2.07,2.07,0,0,1-3,0,2.7,2.7,0,0,1-.52-1.76A2.75,2.75,0,0,1,90,10.5a2,2,0,0,1,3,0Zm-2.35.45a2.44,2.44,0,0,0-.29,1.32,2.58,2.58,0,0,0,.28,1.31,1.07,1.07,0,0,0,1.72,0,2.54,2.54,0,0,0,.28-1.32,2.48,2.48,0,0,0-.28-1.31.94.94,0,0,0-.85-.43A1,1,0,0,0,90.66,10.94Z" fill="#fff"/><path d="M95,10h.72l.06.62a2,2,0,0,1,1.52-.73,1.24,1.24,0,0,1,1,.35,1.46,1.46,0,0,1,.33,1v3.35h-.84V11.74a3.64,3.64,0,0,0,0-.74.61.61,0,0,0-.21-.37A.8.8,0,0,0,97,10.5a1.18,1.18,0,0,0-.66.21,2.05,2.05,0,0,0-.53.53v3.32H95Z" fill="#fff"/><path d="M101.46,10.26a.7.7,0,0,1,.52-.21.75.75,0,1,1,0,1.49.71.71,0,0,1-.52-.22.76.76,0,0,1,0-1.05Zm0,3.14a.7.7,0,0,1,.52-.21.74.74,0,0,1,.53,1.26.72.72,0,0,1-.53.21.7.7,0,0,1-.53-.21.73.73,0,0,1-.21-.52.75.75,0,0,1,.22-.53Z" fill="#fff"/><path d="M107,11.14a3.75,3.75,0,0,1,.51.38,2.16,2.16,0,0,0,.33.27.52.52,0,0,0,.29.09c.31,0,.6-.24.86-.72l.56.28a3.27,3.27,0,0,1-.59.84,1.21,1.21,0,0,1-.85.31,1.06,1.06,0,0,1-.52-.13,2.59,2.59,0,0,1-.5-.37,2.26,2.26,0,0,0-.35-.28.62.62,0,0,0-.32-.09.58.58,0,0,0-.46.19,2.07,2.07,0,0,0-.39.54l-.56-.28a3.11,3.11,0,0,1,.59-.84,1.16,1.16,0,0,1,.85-.32A1.17,1.17,0,0,1,107,11.14Z" fill="#fff"/><path d="M112.87,8.44a3.07,3.07,0,0,1,.9.24,2.68,2.68,0,0,1,.72.46l-.48.51a2,2,0,0,0-1.14-.53V11a3.18,3.18,0,0,1,1.25.68,1.52,1.52,0,0,1,.45,1.17,1.67,1.67,0,0,1-.44,1.16,2,2,0,0,1-1.26.59V15.9h-.61V14.65a2.58,2.58,0,0,1-1.05-.26,3.12,3.12,0,0,1-.8-.56l.48-.53a2.18,2.18,0,0,0,1.37.67V11.66A3.24,3.24,0,0,1,111,11a1.33,1.33,0,0,1-.4-1,1.36,1.36,0,0,1,.41-1,1.86,1.86,0,0,1,1.21-.51V7.14h.61Zm-1.17,1a.72.72,0,0,0-.21.54.76.76,0,0,0,.17.5,1.47,1.47,0,0,0,.6.38V9.13A1,1,0,0,0,111.7,9.4Zm1.17,4.54a1.05,1.05,0,0,0,.64-1.63,1.5,1.5,0,0,0-.64-.44Z" fill="#fff"/><path d="M27.18,448.06h73.14c.49,0,.9.72.9,1.8v1.81c0,1.08-.41,1.8-.9,1.8H27.18c-.49,0-.9-.72-.9-1.8v-1.81C26.33,449,26.69,448.06,27.18,448.06Z" fill="#778ca6"/><path d="M26.9,463.6H77.22c.33,0,.61.49.61,1.24v1.24c0,.74-.28,1.24-.61,1.24H26.9c-.33,0-.62-.5-.62-1.24v-1.24C26.31,464.22,26.57,463.6,26.9,463.6Z" fill="#778ca6" opacity="0.75"/><path d="M77.38,179.16h73.14c.49,0,.9.72.9,1.81v1.8c0,1.08-.41,1.81-.9,1.81H77.38c-.49,0-.89-.73-.89-1.81V181C76.53,180.06,76.89,179.16,77.38,179.16Z" fill="#f4f6fb"/><path d="M77.38,300.9h73.14c.49,0,.9.72.9,1.8v1.81c0,1.08-.41,1.8-.9,1.8H77.38c-.49,0-.89-.72-.89-1.8V302.7C76.53,301.8,76.89,300.9,77.38,300.9Z" fill="#f4f6fb"/><path d="M77.38,204.63H447.3c.49,0,.9.72.9,1.81v1.8c0,1.08-.41,1.81-.9,1.81H77.38c-.49,0-.89-.73-.89-1.81v-1.8C76.53,205.53,76.89,204.63,77.38,204.63Z" fill="#d8e5f3"/><path d="M77.38,222.06H447.3c.49,0,.9.72.9,1.81v1.8c0,1.08-.41,1.8-.9,1.8H77.38c-.49,0-.89-.72-.89-1.8v-1.8C76.53,223,76.89,222.06,77.38,222.06Z" fill="#d8e5f3"/><path d="M77.38,239.49H447.3c.49,0,.9.72.9,1.81v1.8c0,1.08-.41,1.8-.9,1.8H77.38c-.49,0-.89-.72-.89-1.8v-1.8C76.53,240.39,76.89,239.49,77.38,239.49Z" fill="#d8e5f3"/><path d="M77.38,256.92H447.3c.49,0,.9.72.9,1.81v1.8c0,1.08-.41,1.8-.9,1.8H77.38c-.49,0-.89-.72-.89-1.8v-1.8C76.53,257.82,76.89,256.92,77.38,256.92Z" fill="#d8e5f3"/><path d="M77.38,274.35H402.8c.49,0,.9.72.9,1.81V278c0,1.08-.41,1.8-.9,1.8H77.38c-.49,0-.89-.72-.89-1.8v-1.8C76.53,275.25,76.89,274.35,77.38,274.35Z" fill="#d8e5f3"/><path d="M77.38,325.19H242.55c.49,0,.9.72.9,1.8v1.81c0,1.08-.41,1.8-.9,1.8H77.38c-.49,0-.89-.72-.89-1.8V327C76.53,326.09,76.89,325.19,77.38,325.19Z" fill="#d8e5f3"/><path d="M77.38,342.62H220.55c.49,0,.9.72.9,1.8v1.81c0,1.08-.41,1.8-.9,1.8H77.38c-.49,0-.89-.72-.89-1.8v-1.81C76.53,343.52,76.89,342.62,77.38,342.62Z" fill="#d8e5f3"/><path d="M34.82,230.73a7.18,7.18,0,0,1,7.14,0,7.12,7.12,0,0,1,2.58,2.59,7.15,7.15,0,0,1-.4,7.74,7,7,0,0,1-3.5,2.57.4.4,0,0,1-.37-.07.35.35,0,0,1-.12-.28v-.7c0-.46,0-.87,0-1.25a1.64,1.64,0,0,0-.48-1.31,5.87,5.87,0,0,0,.94-.17,3.5,3.5,0,0,0,.87-.36,2.51,2.51,0,0,0,.75-.61,2.81,2.81,0,0,0,.49-1,4.49,4.49,0,0,0,.19-1.39,2.71,2.71,0,0,0-.73-1.9,2.45,2.45,0,0,0-.07-1.89,1.2,1.2,0,0,0-.75.1,4.49,4.49,0,0,0-.85.41l-.35.22a6.72,6.72,0,0,0-3.56,0l-.39-.25a5.3,5.3,0,0,0-.77-.36,1.31,1.31,0,0,0-.79-.12,2.45,2.45,0,0,0-.07,1.89,2.71,2.71,0,0,0-.73,1.9,4.49,4.49,0,0,0,.19,1.39,2.75,2.75,0,0,0,.48,1,2.4,2.4,0,0,0,.75.62,3.5,3.5,0,0,0,.87.36,5.87,5.87,0,0,0,.94.17,1.55,1.55,0,0,0-.45.95,1.88,1.88,0,0,1-.42.14,2.54,2.54,0,0,1-.52,0,1.11,1.11,0,0,1-.61-.2,1.62,1.62,0,0,1-.51-.58,1.48,1.48,0,0,0-.45-.48,1.33,1.33,0,0,0-.46-.22l-.18,0a.58.58,0,0,0-.27,0s-.07.06,0,.11a.77.77,0,0,0,.09.13.43.43,0,0,0,.12.11l.06,0a1.1,1.1,0,0,1,.4.36,1.94,1.94,0,0,1,.29.47l.1.21a1.21,1.21,0,0,0,.4.57,1.51,1.51,0,0,0,.62.28,3.74,3.74,0,0,0,.65.06,3.68,3.68,0,0,0,.51,0l.21,0c0,.24,0,.51,0,.82v.5a.35.35,0,0,1-.12.28.4.4,0,0,1-.37.07,7.13,7.13,0,0,1-4.86-6.75,6.89,6.89,0,0,1,1-3.56A7,7,0,0,1,34.82,230.73ZM34,240s0-.08-.07-.11-.1,0-.12,0,0,.08.07.11A.07.07,0,0,0,34,240Zm.28.32c.05,0,0-.08,0-.15s-.12-.07-.15,0,0,.08,0,.15S34.23,240.34,34.26,240.3Zm.28.41c.06,0,.06-.1,0-.17s-.1-.1-.16-.06-.05.09,0,.17S34.49,240.75,34.54,240.71Zm.39.39s0-.11,0-.17-.13-.09-.18,0-.05.11,0,.17S34.88,241.16,34.93,241.1Zm.53.23c0-.07,0-.11-.12-.15s-.15,0-.18.07,0,.11.12.14S35.43,241.41,35.46,241.33Zm.58,0c0-.08,0-.12-.16-.1s-.15,0-.15.1.06.11.16.1S36,241.45,36,241.38Zm.54-.09c0-.07-.07-.1-.17-.09s-.14.07-.13.14.07.1.17.08S36.59,241.35,36.58,241.29Z" fill="#d8e5f3"/><path d="M46.27,259.15a6.14,6.14,0,0,1-1.5,1.55,3.89,3.89,0,0,1,0,.39,8.66,8.66,0,0,1-.35,2.4,8.56,8.56,0,0,1-1.07,2.3,9.29,9.29,0,0,1-1.7,1.94,7.51,7.51,0,0,1-2.39,1.35,8.65,8.65,0,0,1-3,.51,8.35,8.35,0,0,1-4.59-1.34q.33,0,.72,0A5.84,5.84,0,0,0,36.12,267a3,3,0,0,1-2.79-2.08,2.84,2.84,0,0,0,.56.05,3,3,0,0,0,.79-.1,3,3,0,0,1-1.72-1,2.91,2.91,0,0,1-.68-1.9v0a3,3,0,0,0,1.35.38,3.09,3.09,0,0,1-1-1.06,3,3,0,0,1-.36-1.43,3,3,0,0,1,.41-1.51,8.46,8.46,0,0,0,2.72,2.21,8.35,8.35,0,0,0,3.44.92,3.21,3.21,0,0,1-.07-.68A3,3,0,0,1,44,258.69a5.87,5.87,0,0,0,1.89-.72,2.86,2.86,0,0,1-1.31,1.65A6.13,6.13,0,0,0,46.27,259.15Z" fill="#d8e5f3"/><path d="M34.71,285.42a1.5,1.5,0,0,1-.47,1.13A1.74,1.74,0,0,1,33,287h0a1.67,1.67,0,0,1-1.22-.45,1.53,1.53,0,0,1-.47-1.13,1.46,1.46,0,0,1,.48-1.13,1.74,1.74,0,0,1,1.25-.45,1.69,1.69,0,0,1,1.23.45A1.56,1.56,0,0,1,34.71,285.42Zm-.2,2.83v9.17h-3v-9.17Zm11,3.91v5.26h-3v-4.91a2.69,2.69,0,0,0-.37-1.52,1.31,1.31,0,0,0-1.17-.55,1.52,1.52,0,0,0-1,.32,2,2,0,0,0-.59.79,2.23,2.23,0,0,0-.1.75v5.12h-3q0-3.69,0-6c0-1.53,0-2.44,0-2.74v-.44h3v1.33h0a4.68,4.68,0,0,1,.38-.52,3.58,3.58,0,0,1,.52-.48,2.56,2.56,0,0,1,.81-.4A3.53,3.53,0,0,1,42,288a3.28,3.28,0,0,1,2.54,1A4.4,4.4,0,0,1,45.49,292.16Z" fill="#d8e5f3"/><path d="M30.64,485h89a4.36,4.36,0,0,1,4.36,4.36V500a0,0,0,0,1,0,0H26.28a0,0,0,0,1,0,0V489.36A4.36,4.36,0,0,1,30.64,485Z" fill="#5270b5" opacity="0.65"/><path d="M146.9,485h89a4.36,4.36,0,0,1,4.36,4.36V500a0,0,0,0,1,0,0H142.54a0,0,0,0,1,0,0V489.36A4.36,4.36,0,0,1,146.9,485Z" fill="#7ab2de" opacity="0.65"/><path d="M263.15,485h89a4.36,4.36,0,0,1,4.36,4.36V500a0,0,0,0,1,0,0H258.8a0,0,0,0,1,0,0V489.36A4.36,4.36,0,0,1,263.15,485Z" fill="#a0a6ae" opacity="0.65"/><path d="M379.41,485h89a4.36,4.36,0,0,1,4.36,4.36V500a0,0,0,0,1,0,0H375.05a0,0,0,0,1,0,0V489.36A4.36,4.36,0,0,1,379.41,485Z" fill="#d6dde6" opacity="0.65"/></g></svg>