<svg xmlns="http://www.w3.org/2000/svg" viewBox="0 0 500 500">
  <path fill="#f0f1f4" opacity=".5" d="M0 0h500v500H0z" data-name="Layer 5"/>
  <g data-name="Toshiba">
    <rect x="136" y="13.9" width="228" height="472.2" rx="26.79" ry="26.79" fill="#fff" stroke="#d6dde6" stroke-miterlimit="10"/>
    <circle cx="250" cy="459.39" r="15.52" transform="rotate(-81.64 250.014 459.395)" fill="none" stroke="#d6dde6" stroke-miterlimit="10"/>
    <path d="M253.09 34.93a3.09 3.09 0 1 1-3.09-3.1 3.09 3.09 0 0 1 3.09 3.1zM218 48.93a3.78 3.78 0 1 1-3.78-3.78 3.78 3.78 0 0 1 3.78 3.78zM267 51h-34.65a2.06 2.06 0 1 1 0-4.12H267a2.06 2.06 0 0 1 0 4.12zM147.99 67.32h204.03v365.37H147.99z" fill="none" stroke="#d6dde6" stroke-miterlimit="10"/>
    <path fill="#ed2024" d="M352.01 293l-204.02 75V67.32h204.02V293z"/>
    <path fill="#c12126" d="M352.01 151L147.99 368V67.32h204.02V151z"/>
    <rect x="236.52" y="376" width="92" height="12" rx="6" ry="6" fill="#ed2024"/>
    <rect x="164.48" y="80" width="70.19" height="12" rx="5.24" ry="5.24" fill="#fff"/>
    <path fill="#fdfefe" d="M193.059 351.612l32.82-12.16 12.16 32.82-32.82 12.16z"/>
    <path d="M300.26 352h-70l4.44 12h65.61a6 6 0 0 0 0-12z" fill="#ed2024"/>
    <path d="M214.26 358a6 6 0 0 1 6-6h10l-4.65-12.53-32.82 12.16 12.16 32.82 32.82-12.16-3.12-8.29h-14.39a6 6 0 0 1-6-6z" fill="#ed2024"/>
    <g data-name="K1712x.tif">
      <path d="M240.15 417h-9.79.1a7.5 7.5 0 0 0 1.88-.28 2.68 2.68 0 0 0 1.69-1.36 4.24 4.24 0 0 0 .4-1.44 22.2 22.2 0 0 0 .1-2.45v-1.35a7.63 7.63 0 0 0-.24-1.85 2.67 2.67 0 0 0-1.83-1.91 6 6 0 0 0-1.67-.29h-2a7.13 7.13 0 0 0-2.11.3 2.63 2.63 0 0 0-1.62 1.28 4.12 4.12 0 0 0-.43 1.54q-.08.87-.09 1.74a23.4 23.4 0 0 0 .11 3.13 4.05 4.05 0 0 0 .42 1.4 2.7 2.7 0 0 0 1.67 1.28 8.19 8.19 0 0 0 1.84.28h.1-14.78V406h72.22v10.76q-1.59-5.2-3.16-10.42c0-.09-.06-.13-.16-.12h-4.32l-3.21 10.61h3a.09.09 0 0 0 .11-.08l.51-1.78c0-.06 0-.1.12-.1h3.3a.1.1 0 0 1 .12.09c.1.36.21.72.32 1.09s.15.52.23.78h3.12v.17h-44.56l1.11-.09a4.15 4.15 0 0 0 1.37-.36 2.32 2.32 0 0 0 1.34-1.61 5.62 5.62 0 0 0 0-2.58 2.33 2.33 0 0 0-1.68-1.73 7.84 7.84 0 0 0-1.6-.25l-1.92-.14a1.06 1.06 0 0 1-.7-.25 1 1 0 0 1-.22-1 .73.73 0 0 1 .67-.58 4.26 4.26 0 0 1 1.63 0 .86.86 0 0 1 .82 1v.19h2.84a7 7 0 0 0-.11-1.52 2.12 2.12 0 0 0-1.75-1.75 11 11 0 0 0-2.22-.21 14 14 0 0 0-2.15.1 3.79 3.79 0 0 0-1.23.32 2.58 2.58 0 0 0-1.17 1.14 3.32 3.32 0 0 0-.3 1.12 5.28 5.28 0 0 0 .1 1.94 2.06 2.06 0 0 0 .92 1.34 3.3 3.3 0 0 0 1.14.44 17 17 0 0 0 2.26.22c.32 0 .64 0 1 .09a.83.83 0 0 1 .81.86.84.84 0 0 1-.7 1 2.47 2.47 0 0 1-.66.07 8.18 8.18 0 0 1-1.21-.06.85.85 0 0 1-.8-.86v-.4h-2.85a9.31 9.31 0 0 0 .09 1.59 2.12 2.12 0 0 0 1.57 1.76 7.93 7.93 0 0 0 1.81.28zm25.17-.19h5.76a5.3 5.3 0 0 0 1.63-.22 2.3 2.3 0 0 0 1.65-1.61 4.47 4.47 0 0 0 .1-1.59 2.59 2.59 0 0 0-.3-1.05 2.25 2.25 0 0 0-1.29-1l-.28-.08.38-.13a1.86 1.86 0 0 0 1.25-1.49 4 4 0 0 0 0-1.34 2.1 2.1 0 0 0-1.54-1.87 5.57 5.57 0 0 0-1.77-.24h-5.6zM257 406.23h-3v3.86h-3.48v-3.87h-3v10.61h3v-4.08H254v4.07h3zm-39.89 10.6h3.18v-8h3.17v-2.64h-9.51v2.64h3.16zm45.54-10.6h-3v10.6h3z" fill="#fffefe"/>
      <path d="M228.61 417h-.1a8.19 8.19 0 0 1-1.84-.28 2.7 2.7 0 0 1-1.67-1.28 4.05 4.05 0 0 1-.42-1.4 23.4 23.4 0 0 1-.11-3.13q0-.87.09-1.74a4.12 4.12 0 0 1 .43-1.54 2.63 2.63 0 0 1 1.62-1.28 7.13 7.13 0 0 1 2.11-.3h2a6 6 0 0 1 1.67.29 2.67 2.67 0 0 1 1.83 1.91 7.63 7.63 0 0 1 .24 1.85v1.35a22.2 22.2 0 0 1-.1 2.45 4.24 4.24 0 0 1-.4 1.44 2.68 2.68 0 0 1-1.69 1.36 7.5 7.5 0 0 1-1.88.28h-.1zm2.91-5.5v-.78a10.55 10.55 0 0 0-.12-1.13 1.17 1.17 0 0 0-1.05-1 5.35 5.35 0 0 0-1.74 0 1.1 1.1 0 0 0-.89.77 3 3 0 0 0-.16.78v2.32a3.79 3.79 0 0 0 .15 1.15 1.14 1.14 0 0 0 .91.85 4.91 4.91 0 0 0 1.91 0 1.07 1.07 0 0 0 .82-.73 2.84 2.84 0 0 0 .15-.64c-.02-.54 0-1.09.02-1.57zM240.15 417h-.41a7.93 7.93 0 0 1-1.81-.28 2.12 2.12 0 0 1-1.57-1.76 9.31 9.31 0 0 1-.09-1.59h2.85v.4a.85.85 0 0 0 .8.86 8.18 8.18 0 0 0 1.21.06 2.47 2.47 0 0 0 .66-.07.84.84 0 0 0 .7-1 .83.83 0 0 0-.81-.86c-.32-.05-.64-.07-1-.09a17 17 0 0 1-2.26-.22 3.3 3.3 0 0 1-1.14-.44 2.06 2.06 0 0 1-.92-1.34 5.28 5.28 0 0 1-.1-1.94 3.32 3.32 0 0 1 .3-1.12 2.58 2.58 0 0 1 1.17-1.14 3.79 3.79 0 0 1 1.23-.32 14 14 0 0 1 2.15-.1 11 11 0 0 1 2.22.21 2.12 2.12 0 0 1 1.75 1.75 7 7 0 0 1 .11 1.52h-2.84v-.19a.86.86 0 0 0-.82-1 4.26 4.26 0 0 0-1.63 0 .73.73 0 0 0-.67.58 1 1 0 0 0 .22 1 1.06 1.06 0 0 0 .7.25l1.92.14a7.84 7.84 0 0 1 1.6.25 2.33 2.33 0 0 1 1.68 1.73 5.62 5.62 0 0 1 0 2.58 2.32 2.32 0 0 1-1.34 1.61 4.15 4.15 0 0 1-1.37.36l-1.11.09h-1.07zM286.12 416.83H283c-.08-.26-.16-.52-.23-.78s-.22-.73-.32-1.09a.1.1 0 0 0-.12-.09H279c-.08 0-.1 0-.12.1l-.51 1.78a.09.09 0 0 1-.11.08h-3l3.21-10.61h4.32c.1 0 .13 0 .16.12q1.57 5.21 3.16 10.42v.05zm-4.37-4.33l-1.06-3.64-1.05 3.63z" fill="#ee2325"/>
      <path d="M240.47 417h.76z" fill="#f2684b"/>
      <path d="M265.32 416.83v-10.61h5.6a5.57 5.57 0 0 1 1.77.24 2.1 2.1 0 0 1 1.54 1.87 4 4 0 0 1 0 1.34 1.86 1.86 0 0 1-1.25 1.49l-.38.13.28.08a2.25 2.25 0 0 1 1.29 1 2.59 2.59 0 0 1 .3 1.05 4.47 4.47 0 0 1-.1 1.59 2.3 2.3 0 0 1-1.65 1.61 5.3 5.3 0 0 1-1.63.22h-5.76zm3-4.35v1.92h2.33a.82.82 0 0 0 .72-.66 1.56 1.56 0 0 0 0-.68.63.63 0 0 0-.48-.5 1.76 1.76 0 0 0-.46-.06h-2.1zm0-2.11h2.18a.73.73 0 0 0 .7-.49 1.14 1.14 0 0 0 0-.66.66.66 0 0 0-.55-.53 1.42 1.42 0 0 0-.36 0h-2z" fill="#ed2325"/>
      <path d="M257 406.23v10.59h-3v-4.07h-3.47v4.08h-3v-10.61h3v3.87H254v-3.86z" fill="#ee2325"/>
      <path d="M217.1 416.83v-8h-3.16v-2.64h9.51v2.64h-3.17v8zM262.64 406.23v10.6h-3v-10.6z" fill="#ee2425"/>
      <path d="M231.52 411.52c0 .51 0 1-.08 1.55a2.84 2.84 0 0 1-.15.64 1.07 1.07 0 0 1-.82.73 4.91 4.91 0 0 1-1.91 0 1.14 1.14 0 0 1-.91-.85 3.79 3.79 0 0 1-.15-1.15v-2.32a3 3 0 0 1 .16-.78 1.1 1.1 0 0 1 .89-.77 5.35 5.35 0 0 1 1.74 0 1.17 1.17 0 0 1 1.05 1 10.55 10.55 0 0 1 .12 1.13v.78z" fill="#fffefe"/>
      <path d="M281.75 412.5h-2.13l1.05-3.63z" fill="#fffdfc"/>
      <path d="M268.32 412.48h2.1a1.76 1.76 0 0 1 .46.06.63.63 0 0 1 .48.5 1.56 1.56 0 0 1 0 .68.82.82 0 0 1-.72.66h-2.33z" fill="#fffefe"/>
      <path d="M268.32 410.37v-1.72h2a1.42 1.42 0 0 1 .36 0 .66.66 0 0 1 .55.53 1.14 1.14 0 0 1 0 .66.73.73 0 0 1-.7.49z" fill="#fffefd"/>
    </g>
  </g>
</svg>
