<svg id="7d5af142-7d28-4ac0-ac23-9c46d2438e84" data-name="c1707687-5a8d-4f81-aa43-ffaf195a0593" xmlns="http://www.w3.org/2000/svg" viewBox="0 0 799.99 121.89"><title>toshiba-logo</title><g id="fc6164ac-fa7d-40da-804d-c149b8b8e102" data-name="0b2f7456-7771-4581-9249-560da2a765f7"><g id="9ff227f5-68be-4124-8d62-67d8f525025b" data-name="9ffbb839-b162-4038-9172-417be60236c2"><path id="1ea7d5e2-64a5-41e6-b6a5-deab272f2581" data-name="7c83ccf1-5a6e-4584-aaee-8c3133050520" d="M765.43,119.78H800L764.33,2.12h-49.1L679.58,119.78h34.56L720.44,98H759.1l6.33,21.78M727.92,71.83l11.76-40.65h.2l11.76,40.65Z" fill="red"/><path id="9d347009-416d-4d56-8964-5823e1d29c37" data-name="b126113b-c81e-48ef-b780-95ab1331b861" d="M172.48,121.89c35.48,0,52.63-6.25,55.06-38.26.58-7.62.69-15.44.69-22.69s-.11-15-.69-22.67C225.1,6.24,208,0,172.48,0s-52.62,6.24-55,38.26c-.59,7.62-.71,15.45-.71,22.67s.12,15.07.71,22.69c2.42,32,19.56,38.26,55,38.26m-22.31-61c0-6.46.16-10.28.3-13.11.9-18.16,8.07-20.28,22-20.28s21.12,2.12,22,20.28c.14,2.83.31,6.65.31,13.11s-.17,10.31-.31,13.13c-.89,18.16-8.06,20.28-22,20.28s-21.11-2.12-22-20.28c-.14-2.77-.3-6.59-.3-13.07Z" fill="red"/><polyline id="699b9661-047f-4854-94b3-3faff5b4f799" data-name="76ce0840-f8aa-4595-93e9-e45433758840" points="0 2.17 0 31.5 35.17 31.5 35.17 119.83 70.36 119.83 70.36 31.5 105.53 31.5 105.53 2.17 0 2.17" fill="red"/><polyline id="b34a7944-448e-42b5-bbf1-e4444d7d29b2" data-name="c5840625-6a11-462f-b6ea-94eaad5bd767" points="539.84 119.78 539.84 2.12 506.45 2.12 506.45 119.78 539.84 119.78" fill="red"/><polyline id="9ef6ec79-006d-4f58-9203-87547d60c31a" data-name="698ab51b-50d2-4f9f-8050-12a24f2b61a9" points="405.49 45.08 405.49 2.12 372.29 2.12 372.29 119.78 405.49 119.78 405.49 74.41 444.07 74.41 444.07 119.78 477.26 119.78 477.26 2.12 444.07 2.12 444.07 45.08 405.49 45.08" fill="red"/><g id="de7a7419-32b0-48f7-8d5e-02d17fc8224f" data-name="3d1f5f6f-9b9a-4923-9301-a9f58831d17b"><path id="6427ec2f-2313-4326-aa67-fa23ebff975e" data-name="88f16ef2-0705-4bd8-9eed-2b4f23e092bf" d="M649.65,58.28c14.79-3.78,19.13-12.62,19.13-25.39,0-25.86-16.27-30.78-39.4-30.78H569.44V119.78h62.92c29,0,38.71-12.48,38.71-31.67,0-13.38-3.06-25.19-21.41-29.82m-47,13.17h23c9.3,0,11.24,4.07,11.24,10.7s-3.64,10.72-11.24,10.72h-23Zm0-42.42h23c6,0,9.73,2.85,9.73,9.71,0,5.88-3.68,9.5-9.73,9.5h-23Z" fill="red"/><path id="61d343e3-7fe9-4c99-bf57-b4d795aab8ee" data-name="e4b5b601-098a-4a16-9bdc-6cc4684b0432" d="M247.57,81.17h31.65c0,5.71.76,9.52,3.53,11.63,3.15,2.37,6,3.16,15.32,3.16,9,0,18.86,0,18.86-11.08,0-8.74-5.51-10.74-15.68-11.28-25.22-1.34-34.34-2-43.73-9-6.4-4.76-9.72-14-9.72-26.54,0-21.3,7.43-28.77,18.15-34,11-5.4,54.47-5.4,66.15-.06,14.69,6.77,15.12,21.42,15.12,35H315.65c-.06-6.93-1.62-8.89-2.89-10.17-3.28-2.91-8-3.52-14.69-3.52-8.16,0-17.6.37-17.6,10.28,0,7.56,3.27,10.72,11.85,11.28,11.79.75,35,1.5,43.3,6.38,11.61,6.87,14.62,16.16,14.62,31.32,0,21.91-7.84,28.34-18.75,33.16-12.59,5.56-54.64,5.56-68.31-.43-15.3-6.67-15.61-20-15.61-36.17" fill="red"/></g></g></g></svg>