<svg id="aa7e7b24-5af4-402c-a01d-feb116a96159" data-name="d98de812-2250-4bb5-82e2-bc16671d28f3" xmlns="http://www.w3.org/2000/svg" viewBox="0 0 1000.15 175.45"><title>unipathic-logo</title><rect y="3.55" width="35.8" height="35.7" fill="#ff7300"/><rect y="48.75" width="35.8" height="35.8" fill="#ff7300"/><rect y="94.05" width="35.8" height="35.9" fill="#ff7300"/><polyline points="0 139.75 35.8 139.75 35.8 175.35" fill="#ff7300"/><rect x="45.9" y="139.75" width="35.8" height="35.7" fill="#ff7300"/><rect x="91" y="139.75" width="35.8" height="35.7" fill="#ff7300"/><rect x="136.3" y="139.75" width="35.7" height="35.7" fill="#ff7300"/><rect x="181.5" y="3.05" width="36.6" height="36.6" fill="#ff7300"/><rect x="181.5" y="48.25" width="36.6" height="36.8" fill="#ff7300"/><rect x="181.5" y="93.85" width="36.6" height="36.2" fill="#ff7300"/><polyline points="181.5 175.35 181.5 139.75 218.1 139.75" fill="#ff7300"/><path d="M45.9,3.25V130H172.2V3.25Zm115.4,76.7H121.8v39.5H95.6V79.95H56V53.65H95.6V14.15h26.2v39.5h39.5Z" transform="translate(0 0)" fill="#3a4550"/><path d="M296.8,5.55V3h34.3v2.6h-3.6a9.92,9.92,0,0,0-8.8,4.8c-1,1.5-1.5,4.9-1.5,10.3v39.3c0,9.7-1,17.3-2.9,22.6s-5.7,10-11.4,13.8-13.3,5.8-23.1,5.8c-10.6,0-18.6-1.8-24.1-5.5A30,30,0,0,1,244,81.85c-1.5-4.2-2.3-12.2-2.3-23.9V20.05c0-6-.8-9.9-2.5-11.7s-4.3-2.8-8-2.8h-3.6V3h41.9v2.6h-3.7c-4,0-6.9,1.3-8.6,3.8-1.2,1.7-1.8,5.3-1.8,10.7v42.3a89.7,89.7,0,0,0,1,12.9c.7,4.9,1.9,8.7,3.8,11.4a19.87,19.87,0,0,0,7.8,6.7c3.4,1.8,7.6,2.6,12.5,2.6a35.32,35.32,0,0,0,17-4.1c5-2.8,8.4-6.3,10.3-10.6s2.8-11.6,2.8-21.9V20.05c0-6.1-.7-9.8-2-11.4-1.9-2.1-4.6-3.1-8.3-3.1Z" transform="translate(0 0)" fill="#3a4550"/><path d="M335.4,3h26.3L421,75.65V19.75c0-6-.7-9.7-2-11.2q-2.7-3-8.4-3h-3.4V3H441v2.6h-3.4c-4.1,0-7,1.2-8.7,3.7-1,1.5-1.6,5-1.6,10.4v81.7h-2.6l-63.9-78V83c0,6,.6,9.7,1.9,11.2q2.7,3,8.4,3h3.4v2.6H340.8v-2.6h3.4c4.1,0,7.1-1.2,8.8-3.7,1-1.5,1.6-5,1.6-10.4V15.65c-2.8-3.3-4.9-5.5-6.4-6.5a26,26,0,0,0-6.4-2.9,24.6,24.6,0,0,0-6.3-.6V3Z" transform="translate(0 0)" fill="#3a4550"/><path d="M487.3,97.25v2.6H445.8v-2.6h3.4c4,0,6.9-1.2,8.7-3.5,1.1-1.5,1.7-5.2,1.7-11V20.05c0-4.9-.3-8.2-.9-9.7a7.1,7.1,0,0,0-2.9-3.1,14.09,14.09,0,0,0-6.6-1.7h-3.4V3h41.5v2.6h-3.5c-4,0-6.8,1.2-8.7,3.5-1.2,1.5-1.8,5.2-1.8,11v62.6c0,4.9.3,8.2.9,9.7a6.82,6.82,0,0,0,3,3.1,13.41,13.41,0,0,0,6.5,1.7h3.6Z" transform="translate(0 0)" fill="#3a4550"/><path d="M520,54.45v28.2c0,6.1.7,9.9,2,11.4,1.8,2.1,4.6,3.1,8.2,3.1h3.7v2.6H492.4v-2.6H496c4.1,0,7-1.3,8.8-4,1-1.5,1.4-5,1.4-10.5V20.05c0-6.1-.6-9.9-1.9-11.4-1.9-2.1-4.6-3.1-8.3-3.1h-3.6V3h35.5c8.7,0,15.5.9,20.5,2.7a29.11,29.11,0,0,1,12.7,9,23.45,23.45,0,0,1,5.2,15.1c0,7.9-2.6,14.3-7.8,19.3s-12.6,7.4-22.1,7.4a70.74,70.74,0,0,1-7.6-.5A77.23,77.23,0,0,1,520,54.45Zm0-4.1c2.5.5,4.8.8,6.7,1.1a32.21,32.21,0,0,0,5,.4,16.71,16.71,0,0,0,12.8-5.8c3.6-3.8,5.4-8.8,5.4-14.9a27.09,27.09,0,0,0-2.6-11.7,17.51,17.51,0,0,0-7.3-8.1,21,21,0,0,0-10.7-2.7,43.52,43.52,0,0,0-9.4,1.4v40.3Z" transform="translate(0 0)" fill="#3a4550"/><path d="M613.7,67.45H576.2l-6.6,15.3q-2.4,5.7-2.4,8.4a4.85,4.85,0,0,0,2.1,3.9c1.4,1.1,4.4,1.8,9.1,2.2v2.6H547.9v-2.6c4.1-.7,6.7-1.6,7.9-2.8,2.4-2.3,5.1-6.9,8.1-13.9L598,.75h2.5l33.6,80.6c2.7,6.5,5.2,10.7,7.4,12.6s5.3,3,9.3,3.3v2.6H612.5v-2.6c3.9-.2,6.5-.8,7.8-1.9a4.79,4.79,0,0,0,2-4c0-2.1-1-5.4-2.9-9.9Zm-2-5.3L595.3,23l-16.9,39.2Z" transform="translate(0 0)" fill="#3a4550"/><path d="M716.2,3l1.1,22.7h-2.7c-.5-4-1.2-6.9-2.1-8.6a13.94,13.94,0,0,0-5.9-6.1,20.87,20.87,0,0,0-9.7-2H683.2V83c0,6,.6,9.7,1.9,11.2q2.7,3,8.4,3h3.4v2.6H655.8v-2.6h3.4c4.1,0,7-1.2,8.7-3.7,1-1.5,1.6-5,1.6-10.4V9H657.8c-4.5,0-7.7.3-9.7,1a13.18,13.18,0,0,0-6.4,5.2c-1.8,2.6-2.8,6.1-3.1,10.4h-2.7L637,2.85h79.2Z" transform="translate(0 0)" fill="#3a4550"/><path d="M748.2,47.85h45V20.15c0-5-.3-8.2-.9-9.8a6.82,6.82,0,0,0-3-3.1,13.41,13.41,0,0,0-6.5-1.7h-3.4V3h41.5v2.6h-3.4a13.32,13.32,0,0,0-6.5,1.6,5.94,5.94,0,0,0-3.1,3.5c-.5,1.5-.8,4.7-.8,9.5v62.6c0,4.9.3,8.2.9,9.7a7.1,7.1,0,0,0,2.9,3.1,14.09,14.09,0,0,0,6.6,1.7h3.4v2.6H779.4v-2.6h3.4c4,0,6.8-1.2,8.7-3.5,1.2-1.5,1.8-5.2,1.8-11V53.15h-45v29.5c0,4.9.3,8.2.9,9.7a6.82,6.82,0,0,0,3,3.1,13.41,13.41,0,0,0,6.5,1.7h3.5v2.6H720.7v-2.6h3.4c4,0,6.9-1.2,8.7-3.5,1.1-1.5,1.7-5.2,1.7-11V20.15c0-5-.3-8.2-.9-9.8a7.1,7.1,0,0,0-2.9-3.1,14.09,14.09,0,0,0-6.6-1.7h-3.4V3h41.5v2.6h-3.5a13.32,13.32,0,0,0-6.5,1.6,6.28,6.28,0,0,0-3.1,3.5c-.6,1.5-.9,4.7-.9,9.5Z" transform="translate(0 0)" fill="#3a4550"/><path d="M867.2,97.25v2.6H825.7v-2.6h3.4c4,0,6.9-1.2,8.7-3.5,1.1-1.5,1.7-5.2,1.7-11V20.05c0-4.9-.3-8.2-.9-9.7a7.1,7.1,0,0,0-2.9-3.1,14.09,14.09,0,0,0-6.6-1.7h-3.4V3h41.5v2.6h-3.5c-4,0-6.8,1.2-8.7,3.5-1.2,1.5-1.8,5.2-1.8,11v62.6c0,4.9.3,8.2.9,9.7a6.82,6.82,0,0,0,3,3.1,13.41,13.41,0,0,0,6.5,1.7h3.6Z" transform="translate(0 0)" fill="#3a4550"/><path d="M954.2.65l2.2,33h-2.2c-3-9.9-7.2-17-12.7-21.3a31.13,31.13,0,0,0-19.7-6.5,31.76,31.76,0,0,0-17.4,4.9q-7.8,4.95-12.3,15.6t-4.5,26.7q0,13.2,4.2,22.8a31.29,31.29,0,0,0,12.7,14.8,36.61,36.61,0,0,0,19.3,5.1,33.82,33.82,0,0,0,16.7-4c4.8-2.7,10.1-8,15.9-16.1l2.2,1.4c-4.9,8.6-10.5,14.9-17,18.9s-14.2,6-23.1,6c-16.1,0-28.5-6-37.3-17.9-6.6-8.9-9.9-19.3-9.9-31.3a56.09,56.09,0,0,1,6.5-26.7,46.38,46.38,0,0,1,17.9-18.8A48,48,0,0,1,920.6.55a45.84,45.84,0,0,1,20.7,5.1c2,1,3.4,1.6,4.3,1.6a4.94,4.94,0,0,0,3.4-1.4,11.39,11.39,0,0,0,2.6-5.4h2.6Z" transform="translate(0 0)" fill="#3a4550"/><path d="M979.1,12.65l.1,2.7h-.3c-.1-.5-.1-.8-.3-1a1.58,1.58,0,0,0-.7-.7,2.17,2.17,0,0,0-1.2-.2h-1.6v8.9a2.75,2.75,0,0,0,.2,1.3,1.53,1.53,0,0,0,1,.4h.4v.3h-4.9v-.3h.4a1.05,1.05,0,0,0,1-.4,2.87,2.87,0,0,0,.2-1.2v-9.1H972a4.12,4.12,0,0,0-1.2.1,1.56,1.56,0,0,0-.8.6,3.37,3.37,0,0,0-.4,1.2h-.3l.1-2.7h9.7Z" transform="translate(0 0)" fill="#3a4550"/><path d="M977.08,24.73h-5.65v-1h.78c.49,0,.61-.11.69-.23a2.7,2.7,0,0,0,.14-1V13.73h-1a4,4,0,0,0-1.08.08,1.17,1.17,0,0,0-.61.45,3.06,3.06,0,0,0-.35,1.09l-.06.3h-1l.13-3.45h10.44v.47l.12,3.08h-1l-.06-.3a.61.61,0,0,0-.06-.33.66.66,0,0,0-.14-.48c-.21-.3-.37-.55-.55-.61h-.09a2,2,0,0,0-1-.14H975.5v8.46a3.36,3.36,0,0,0,.12,1.08,1.21,1.21,0,0,0,.7.25h.78ZM973.42,24h1.68l-.06-.06a3,3,0,0,1-.31-1.56V13.08h2a2.54,2.54,0,0,1,1.37.24,1.61,1.61,0,0,1,.71.63v-1h-9v.86a1.94,1.94,0,0,1,1-.69,4.31,4.31,0,0,1,1.32-.12h1.78v9.45a3.11,3.11,0,0,1-.24,1.37Z" transform="translate(0 0)" fill="#3a4550"/><path d="M986.4,24.25l-4.5-9.8v7.8a2.75,2.75,0,0,0,.2,1.3,1.33,1.33,0,0,0,1,.4h.4v.3h-4v-.3h.4a1.05,1.05,0,0,0,1-.4,2.87,2.87,0,0,0,.2-1.2v-7.6a2.68,2.68,0,0,0-.2-1.1.78.78,0,0,0-.4-.4,2.51,2.51,0,0,0-1-.2v-.3h3.3l4.2,9.1,4.1-9.1h3.3V13H994a1.37,1.37,0,0,0-1.1.4,2.87,2.87,0,0,0-.2,1.2v7.6a2.75,2.75,0,0,0,.2,1.3,1.33,1.33,0,0,0,1,.4h.4v.3h-4.9v-.3h.4a1.05,1.05,0,0,0,1-.4,2.87,2.87,0,0,0,.2-1.2v-7.8l-4.5,9.8h-.1Z" transform="translate(0 0)" fill="#3a4550"/><path d="M986.74,24.73H986v-.38l-3.75-8.17v6.07a3.33,3.33,0,0,0,.15,1.1,1,1,0,0,0,.7.25h.78v1h-4.75v-1h.78c.49,0,.61-.11.69-.23a2.84,2.84,0,0,0,.14-1V14.75a2.32,2.32,0,0,0-.16-.93.41.41,0,0,0-.23-.23,2.14,2.14,0,0,0-.83-.16h-.37V12.35H983l4,8.57,3.86-8.57h3.92v1H994a1,1,0,0,0-.79.25,2.73,2.73,0,0,0-.14,1v7.6a3.33,3.33,0,0,0,.12,1.08,1,1,0,0,0,.7.25h.77v1H989v-1h.77c.49,0,.61-.11.69-.23a2.81,2.81,0,0,0,.14-1V16.27Zm4.28-.85h1.68l-.06-.06a2.84,2.84,0,0,1-.31-1.56V14.65a3.22,3.22,0,0,1,.24-1.37l.07-.1.06-.06h-1.32v9.23a3.22,3.22,0,0,1-.24,1.37Zm-9.9,0h.78l-.06-.06a2.85,2.85,0,0,1-.31-1.57V13.12H981a1.23,1.23,0,0,1,.26.36,3,3,0,0,1,.24,1.27v7.6a3.11,3.11,0,0,1-.24,1.37Zm.59-10.75,4.77,10.38.44-1-4.35-9.43Z" transform="translate(0 0)" fill="#3a4550"/><path d="M981.7,36.15a17.7,17.7,0,1,1,17.7-17.7A17.7,17.7,0,0,1,981.7,36.15Zm0-33.8a16.1,16.1,0,1,0,16.1,16.1h0a16.09,16.09,0,0,0-16.08-16.1Z" transform="translate(0 0)" fill="#3a4550"/><path d="M981.7,36.9a18.45,18.45,0,1,1,18.45-18.45A18.45,18.45,0,0,1,981.7,36.9Zm0-35.4a17,17,0,1,0,17,17A16.95,16.95,0,0,0,981.7,1.5Zm0,33.8a16.85,16.85,0,1,1,16.85-16.85h0a16.87,16.87,0,0,1-16.84,16.9h0Zm0-32.2A15.35,15.35,0,1,0,997,18.5v0A15.37,15.37,0,0,0,981.7,3.1Z" transform="translate(0 0)" fill="#3a4550"/><path d="M241.7,112.85v62.5H902.4l56.2-62.5ZM310.4,123h-1.6a4.8,4.8,0,0,0-4.1,1.7c-.5.7-.7,2.3-.7,4.8v29.3c0,2.8.3,4.5.9,5.2a5,5,0,0,0,3.9,1.4h1.6v1.2h-19v-1.2H293c1.9,0,3.3-.6,4-1.7.5-.7.7-2.3.7-4.8V129l-17.3,37.7h-1.1v-.2L262,128.85v29.9c0,2.8.3,4.5.9,5.2a5,5,0,0,0,3.9,1.4h1.6v1.2H252.8v-1.2h1.6a4.6,4.6,0,0,0,4-1.7c.5-.7.7-2.3.7-4.8v-29.3a9.29,9.29,0,0,0-.7-4.3,3.79,3.79,0,0,0-1.7-1.6,9.84,9.84,0,0,0-4-.6v-1.2h12.7l16.3,35.1,16-35.1h12.7Zm41.2,43.3H317.1v-1.2h1.6a6.11,6.11,0,0,0,3-.8,2.73,2.73,0,0,0,1.4-1.6,13.38,13.38,0,0,0,.4-4.3v-29.1c0-2.8-.3-4.6-.9-5.3-.8-.9-2.1-1.3-4-1.3H317v-1.2h34.5l.5,9.8h-1.3a19.15,19.15,0,0,0-1.5-4.9,5,5,0,0,0-2.5-2,16,16,0,0,0-4.7-.5H329.9v17.9h9.8q3.9,0,5.1-1.2c1.1-1,1.8-2.8,1.9-5.4h1.2v15.6h-1.2a17,17,0,0,0-.9-4.2,3.72,3.72,0,0,0-1.9-1.8,10.64,10.64,0,0,0-4.2-.7h-9.8V159a11.77,11.77,0,0,0,.3,3.6,2.19,2.19,0,0,0,.9,1,4.9,4.9,0,0,0,2.5.4h7.6a23.16,23.16,0,0,0,5.5-.5,8.7,8.7,0,0,0,3.3-2.1,23.64,23.64,0,0,0,4.2-6.2h1.3Zm46-6.8c-4.3,4.7-10.7,7-19.4,7h-20v-1.2h1.7a4.41,4.41,0,0,0,4-1.8c.5-.7.7-2.4.7-4.9v-28.9c0-2.8-.3-4.5-.9-5.3a4.76,4.76,0,0,0-3.8-1.5h-1.7v-1.2h18.2c6.7,0,11.8.8,15.3,2.3a18.1,18.1,0,0,1,8.4,7.6,23.47,23.47,0,0,1,3.2,12.3A22.39,22.39,0,0,1,397.6,159.55ZM425.5,123h-1.6a4.67,4.67,0,0,0-4,1.6c-.6.7-.8,2.4-.8,5.1v28.9a14.5,14.5,0,0,0,.4,4.5,2.72,2.72,0,0,0,1.4,1.4,6.11,6.11,0,0,0,3,.8h1.6v1.2H406.3v-1.2h1.6c1.9,0,3.2-.5,4-1.6.5-.7.8-2.4.8-5.1v-28.9a14.49,14.49,0,0,0-.4-4.5,2.72,2.72,0,0,0-1.4-1.4,6.74,6.74,0,0,0-3-.8h-1.6v-1.2h19.2Zm35.1,41.8a19.63,19.63,0,0,1-10.7,2.8c-7.4,0-13.2-2.8-17.2-8.3a23.89,23.89,0,0,1-4.6-14.5,25.45,25.45,0,0,1,3-12.3,22.42,22.42,0,0,1,8.3-8.7,22.06,22.06,0,0,1,11.5-3.1,21.3,21.3,0,0,1,9.6,2.4,4.69,4.69,0,0,0,2,.7,2.45,2.45,0,0,0,1.6-.6,4.53,4.53,0,0,0,1.2-2.5h1.3l1,15.2h-1c-1.4-4.6-3.3-7.8-5.8-9.8a14.94,14.94,0,0,0-22.9,6.5,31.58,31.58,0,0,0-2.1,12.3,25.59,25.59,0,0,0,1.9,10.5,14.11,14.11,0,0,0,5.9,6.8,16.72,16.72,0,0,0,8.9,2.4,14.91,14.91,0,0,0,7.7-1.9c2.2-1.2,4.7-3.7,7.3-7.4l1,.7a23.61,23.61,0,0,1-7.9,8.8ZM492,123h-1.6a4.67,4.67,0,0,0-4,1.6c-.6.7-.8,2.4-.8,5.1v28.9a14.5,14.5,0,0,0,.4,4.5,2.72,2.72,0,0,0,1.4,1.4,6.11,6.11,0,0,0,3,.8H492v1.2H472.8v-1.2h1.6c1.9,0,3.2-.5,4-1.6.5-.7.8-2.4.8-5.1v-28.9a14.49,14.49,0,0,0-.4-4.5,2.72,2.72,0,0,0-1.4-1.4,6.74,6.74,0,0,0-3-.8h-1.6v-1.2H492Zm53.1,0h-1.6a4.6,4.6,0,0,0-4,1.7c-.5.7-.7,2.3-.7,4.8v37.8h-1.2l-29.5-36.1v27.6c0,2.8.3,4.5.9,5.2a5,5,0,0,0,3.9,1.4h1.6v1.2H498.9v-1.2h1.6a4.8,4.8,0,0,0,4.1-1.7c.5-.7.7-2.3.7-4.8v-31.2a20.42,20.42,0,0,0-3-3,14.23,14.23,0,0,0-3-1.4,10.19,10.19,0,0,0-2.9-.3v-1.2h12.1l27.4,33.6v-25.8c0-2.8-.3-4.5-.9-5.2a5,5,0,0,0-3.9-1.4h-1.6v-1.2h15.6Zm39.8,43.4H550.4v-1.2H552a6.11,6.11,0,0,0,3-.8,2.73,2.73,0,0,0,1.4-1.6,13.38,13.38,0,0,0,.4-4.3v-29.1c0-2.8-.3-4.6-.9-5.3-.8-.9-2.1-1.3-4-1.3h-1.6v-1.2H585l.5,9.8h-1.3a19.15,19.15,0,0,0-1.5-4.9,5,5,0,0,0-2.5-2,16,16,0,0,0-4.7-.5H563.2v17.9H573q3.9,0,5.1-1.2c1.1-1,1.8-2.8,1.9-5.4h1.2v15.6H580a17,17,0,0,0-.9-4.2,3.72,3.72,0,0,0-1.9-1.8,10.64,10.64,0,0,0-4.2-.7h-9.8V159a11.77,11.77,0,0,0,.3,3.6,2.19,2.19,0,0,0,.9,1,4.9,4.9,0,0,0,2.5.4h7.6a23.15,23.15,0,0,0,5.5-.5,8.7,8.7,0,0,0,3.3-2.1,23.64,23.64,0,0,0,4.2-6.2h1.3Z" transform="translate(0 0)" fill="#3a4550"/><path d="M377.7,124.15a26,26,0,0,0-6.8,1v38.1h.1a34.29,34.29,0,0,0,7,.9,16.55,16.55,0,0,0,12.7-5.4c3.4-3.6,5.1-8.5,5.1-14.6s-1.7-11.1-5.1-14.6A17,17,0,0,0,377.7,124.15Z" transform="translate(0 0)" fill="#3a4550"/></svg>