<svg xmlns="http://www.w3.org/2000/svg" viewBox="0 0 500 500.15"><title>unipathic</title><g id="b3566278-d66e-4c63-9baf-1570004fc115" data-name="Layer 5"><rect y="0.15" width="500" height="500" fill="#fff"/></g><g id="b47e55e2-4a12-4972-aca3-6e10c6a23d8b" data-name="Unipathic"><g id="cb78a252-45d9-44e9-bb54-57a294ce8f6c" data-name="558ea9e6-0658-44b3-8043-69a01c7ca68b"><path d="M137.13,100.79H480.44c.72,0,1.21.59,1.21,1.47V243.68c0,.87-.49,1.46-1.21,1.46H137.13c-.72,0-1.21-.59-1.21-1.46V102.26A1.38,1.38,0,0,1,137.13,100.79Z" transform="translate(0 0.15)" fill="#d6dde6" fill-opacity="0.7" opacity="0.4"/><path d="M137.13,431.89H480.44c.72,0,1.21,1.86,1.21,4.66v62.21c0,2.8-.49,0-1.21,0H137.13c-.72,0-1.21,2.8-1.21,0V436.55C135.92,434.22,136.41,431.89,137.13,431.89Z" transform="translate(0 0.15)" fill="#d6dde6" fill-opacity="0.7" opacity="0.4"/><path d="M21.92,66.85h93.14c1.22,0,1.94.67,1.94,1.68v431c0,1-.78,0-1.94,0H21.92c-1.22,0-1.93,1-1.93,0v-431A1.81,1.81,0,0,1,21.92,66.85Z" transform="translate(0 0.15)" fill="#d6dde6" fill-opacity="0.7" opacity="0.4"/><path d="M21.92,166.84h93.14c1.22,0,1.94.51,1.94,1.28V499.66c0,.77-.78,0-1.94,0H21.92c-1.22,0-1.93.77-1.93,0V168.12C20,167.48,20.76,166.84,21.92,166.84Z" transform="translate(0 0.15)" fill="#778ca6" fill-opacity="0.7" opacity="0.75"/><path d="M137.2,68.37h60a1.35,1.35,0,0,1,1.28,1.42V81.56A1.35,1.35,0,0,1,197.29,83H137.2a1.35,1.35,0,0,1-1.28-1.42V69.84A1.49,1.49,0,0,1,137.2,68.37Z" transform="translate(0 0.15)" fill="#778ca6" fill-opacity="0.7" opacity="0.75"/><path d="M203.36,68.37h60a1.36,1.36,0,0,1,1.29,1.42V81.56A1.34,1.34,0,0,1,263.44,83H203.36a1.35,1.35,0,0,1-1.28-1.42V69.84A1.47,1.47,0,0,1,203.36,68.37Z" transform="translate(0 0.15)" fill="#d6dde6" fill-opacity="0.7"/><path d="M269.55,68.37h60a1.35,1.35,0,0,1,1.28,1.42V81.56A1.35,1.35,0,0,1,329.63,83H269.55a1.35,1.35,0,0,1-1.29-1.42V69.84A1.47,1.47,0,0,1,269.55,68.37Z" transform="translate(0 0.15)" fill="#d6dde6" fill-opacity="0.7"/><path d="M335.69,68.37h60A1.35,1.35,0,0,1,397,69.79V81.56A1.35,1.35,0,0,1,395.77,83H335.69a1.35,1.35,0,0,1-1.29-1.42V69.84A1.47,1.47,0,0,1,335.69,68.37Z" transform="translate(0 0.15)" fill="#d6dde6" fill-opacity="0.7"/><path d="M230.17,24.93h38.46a1.39,1.39,0,0,1,1.48,1.29v1.66a1.39,1.39,0,0,1-1.3,1.48.54.54,0,0,1-.18,0H230.17a1.39,1.39,0,0,1-1.48-1.29.6.6,0,0,1,0-.19V26.4A1.47,1.47,0,0,1,230.17,24.93Z" transform="translate(0 0.15)" fill="#adbbcc" fill-opacity="0.2"/><path d="M283.2,24.93h38.46a1.38,1.38,0,0,1,1.48,1.29v1.66a1.39,1.39,0,0,1-1.3,1.48.54.54,0,0,1-.18,0H283.2a1.39,1.39,0,0,1-1.48-1.29.6.6,0,0,1,0-.19V26.4A1.47,1.47,0,0,1,283.2,24.93Z" transform="translate(0 0.15)" fill="#adbbcc" fill-opacity="0.2"/><path d="M336,24.93h38.46A1.38,1.38,0,0,1,376,26.22v1.66a1.39,1.39,0,0,1-1.3,1.48.54.54,0,0,1-.18,0H336a1.39,1.39,0,0,1-1.48-1.29V26.4A1.59,1.59,0,0,1,336,24.93Z" transform="translate(0 0.15)" fill="#adbbcc" fill-opacity="0.2"/><path d="M389,24.93h38.46a1.38,1.38,0,0,1,1.48,1.29v1.66a1.39,1.39,0,0,1-1.3,1.48.54.54,0,0,1-.18,0H389a1.39,1.39,0,0,1-1.48-1.29.6.6,0,0,1,0-.19V26.4A1.47,1.47,0,0,1,389,24.93Z" transform="translate(0 0.15)" fill="#adbbcc" fill-opacity="0.2"/><path d="M441.7,24.93h38.47a1.38,1.38,0,0,1,1.47,1.29.54.54,0,0,1,0,.18v1.48a1.38,1.38,0,0,1-1.29,1.48.54.54,0,0,1-.18,0H441.7a1.4,1.4,0,0,1-1.48-1.29V26.4A1.59,1.59,0,0,1,441.7,24.93Z" transform="translate(0 0.15)" fill="#f47421" opacity="0.85" style="isolation:isolate"/><g id="92f1e73f-a4a7-4bf2-a1c8-30332c24aee5" data-name="500ee17a-fb6d-43b3-8846-4edc8fa2d3e6" opacity="0.85"><rect x="20.24" y="19.89" width="3.15" height="3.14" fill="#f47421"/><rect x="20.24" y="23.87" width="3.15" height="3.15" fill="#f47421"/><rect x="20.24" y="27.85" width="3.15" height="3.15" fill="#f47421"/><polyline points="20.24 31.86 23.39 31.86 23.39 34.98" fill="#f47421"/><rect x="24.28" y="31.86" width="3.15" height="3.14" fill="#f47421"/><rect x="24.28" y="19.86" width="11.09" height="11.12" fill="#59606a"/><rect x="28.22" y="31.86" width="3.15" height="3.14" fill="#f47421"/><rect x="32.2" y="31.86" width="3.14" height="3.14" fill="#f47421"/><rect x="36.18" y="19.84" width="3.21" height="3.21" fill="#f47421"/><rect x="36.18" y="23.82" width="3.21" height="3.24" fill="#f47421"/><rect x="36.18" y="27.82" width="3.21" height="3.18" fill="#f47421"/><polyline points="36.18 34.98 36.18 31.86 39.39 31.86" fill="#f47421"/><polygon points="34.41 24.3 30.93 24.3 30.93 20.82 28.64 20.82 28.64 24.3 25.16 24.3 25.16 26.6 28.64 26.6 28.64 30.07 30.93 30.07 30.93 26.6 34.41 26.6 34.41 24.3" fill="#fff"/><path d="M46.3,19.91v-.22h3v.22H49a.86.86,0,0,0-.77.43,1.87,1.87,0,0,0-.13.9v3.45a6.3,6.3,0,0,1-.25,2,2.45,2.45,0,0,1-1,1.21,3.54,3.54,0,0,1-2,.51,3.89,3.89,0,0,1-2.11-.49,2.62,2.62,0,0,1-1-1.3,7.46,7.46,0,0,1-.21-2.1V21.18a1.67,1.67,0,0,0-.22-1,.89.89,0,0,0-.71-.25h-.31v-.22h3.68v.22h-.28a.87.87,0,0,0-.75.34,1.83,1.83,0,0,0-.17.95v3.71a7.3,7.3,0,0,0,.09,1.14,2.42,2.42,0,0,0,.34,1,1.85,1.85,0,0,0,.68.59,2.31,2.31,0,0,0,1.1.22,3.08,3.08,0,0,0,1.48-.36,2,2,0,0,0,.9-.93,5.43,5.43,0,0,0,.25-1.92V21.18a1.74,1.74,0,0,0-.18-1,.92.92,0,0,0-.72-.27Z" transform="translate(0 0.15)" fill="#59606a"/><path d="M49.7,19.69H52l5.21,6.39V21.15a1.71,1.71,0,0,0-.18-1,.91.91,0,0,0-.74-.26H56v-.23h3v.23h-.29a.84.84,0,0,0-.77.32,2.07,2.07,0,0,0-.15.92v7.17h-.22l-5.61-6.83v5.24a1.8,1.8,0,0,0,.17,1,.91.91,0,0,0,.74.26h.29v.22h-3V28h.3a.88.88,0,0,0,.77-.32,2.07,2.07,0,0,0,.15-.92V20.81a3.84,3.84,0,0,0-.57-.57,2.2,2.2,0,0,0-.56-.26,2.53,2.53,0,0,0-.55,0v-.29Z" transform="translate(0 0.15)" fill="#59606a"/><path d="M63.05,28v.22H59.39V28h.3a.9.9,0,0,0,.77-.31,2,2,0,0,0,.15-1V21.18a2.7,2.7,0,0,0-.08-.85.55.55,0,0,0-.25-.27,1.17,1.17,0,0,0-.58-.15h-.29v-.22h3.64v.22h-.31a.93.93,0,0,0-.77.31,1.87,1.87,0,0,0-.17,1v5.51a3.07,3.07,0,0,0,.08.85.62.62,0,0,0,.26.27,1.19,1.19,0,0,0,.58.15h.33Z" transform="translate(0 0.15)" fill="#59606a"/><path d="M65.92,24.2v2.47a1.84,1.84,0,0,0,.17,1,.9.9,0,0,0,.73.26h.32v.23H63.49v-.23h.31a.86.86,0,0,0,.77-.35,2.06,2.06,0,0,0,.12-.92V21.18a1.81,1.81,0,0,0-.16-1,.94.94,0,0,0-.73-.27h-.31v-.22h3.12a5.57,5.57,0,0,1,1.81.24,2.53,2.53,0,0,1,1.11.78A2.15,2.15,0,0,1,70,22a2.26,2.26,0,0,1-.69,1.7,2.63,2.63,0,0,1-1.93.65H66.7A6.82,6.82,0,0,1,65.92,24.2Zm0-.35.59.1H67a1.52,1.52,0,0,0,1.13-.5,1.86,1.86,0,0,0,.47-1.31,2.4,2.4,0,0,0-.22-1,1.47,1.47,0,0,0-.64-.71,1.82,1.82,0,0,0-.94-.23,3.87,3.87,0,0,0-.83.12Z" transform="translate(0 0.15)" fill="#59606a"/><path d="M74.14,25.35h-3.3l-.57,1.35a1.91,1.91,0,0,0-.21.74.42.42,0,0,0,.18.34A1.58,1.58,0,0,0,71,28v.22H68.36V28a1.32,1.32,0,0,0,.69-.25,3.88,3.88,0,0,0,.71-1.23l3-7h.22l3,7.09a3.19,3.19,0,0,0,.65,1.11,1.43,1.43,0,0,0,.82.29v.22H74V28a1.16,1.16,0,0,0,.68-.16.44.44,0,0,0,.18-.35,2.71,2.71,0,0,0-.26-.88ZM74,24.9l-1.47-3.45L71,24.9Z" transform="translate(0 0.15)" fill="#59606a"/><path d="M83.15,19.69l.1,2H83a2.48,2.48,0,0,0-.18-.76,1.16,1.16,0,0,0-.52-.53,1.8,1.8,0,0,0-.86-.18H80.27v6.51a1.7,1.7,0,0,0,.16,1,1,1,0,0,0,.74.27h.29v.22H77.84V28h.3a.87.87,0,0,0,.77-.33,1.9,1.9,0,0,0,.14-.91V20.21h-1a2.5,2.5,0,0,0-.86.09,1.08,1.08,0,0,0-.56.45,1.89,1.89,0,0,0-.27.92h-.24l.11-2h7Z" transform="translate(0 0.15)" fill="#59606a"/><path d="M86,23.62h3.92V21.2a3.1,3.1,0,0,0-.07-.86.59.59,0,0,0-.27-.27,1.16,1.16,0,0,0-.58-.14h-.29V19.7h3.64v.23H92a1.18,1.18,0,0,0-.58.14.57.57,0,0,0-.26.31,2.89,2.89,0,0,0,0,.83v5.51a2.72,2.72,0,0,0,.07.85.66.66,0,0,0,.25.27,1.19,1.19,0,0,0,.58.15h.3v.22H88.7V28H89a.93.93,0,0,0,.77-.31,1.89,1.89,0,0,0,.17-1V24.1H86v2.59a2.73,2.73,0,0,0,.08.85.57.57,0,0,0,.26.27,1.19,1.19,0,0,0,.58.15h.31v.22H83.54V28h.29a.93.93,0,0,0,.77-.31,2,2,0,0,0,.15-1V21.2a2.76,2.76,0,0,0-.08-.86.65.65,0,0,0-.25-.27,1.23,1.23,0,0,0-.57-.14h-.3V19.7h3.64v.23h-.27a1.12,1.12,0,0,0-.57.14.58.58,0,0,0-.27.31,2.6,2.6,0,0,0-.07.83v2.43Z" transform="translate(0 0.15)" fill="#59606a"/><path d="M96.41,28v.22H92.77V28h.29a.9.9,0,0,0,.77-.31,2,2,0,0,0,.15-1V21.18a3,3,0,0,0-.07-.85.62.62,0,0,0-.26-.27,1.13,1.13,0,0,0-.57-.15h-.3v-.22h3.64v.22h-.31a.93.93,0,0,0-.77.31,1.76,1.76,0,0,0-.16,1v5.51a2.72,2.72,0,0,0,.07.85.59.59,0,0,0,.27.27,1.13,1.13,0,0,0,.57.15h.32Z" transform="translate(0 0.15)" fill="#59606a"/><path d="M104.05,19.48l.2,3h-.2a3.6,3.6,0,0,0-1.11-1.86,2.7,2.7,0,0,0-1.73-.58,2.8,2.8,0,0,0-1.48.43,3,3,0,0,0-1.08,1.37,6.3,6.3,0,0,0-.4,2.36,5,5,0,0,0,.37,2,2.9,2.9,0,0,0,1.11,1.31,3.3,3.3,0,0,0,1.7.44,2.92,2.92,0,0,0,1.48-.36,4.58,4.58,0,0,0,1.39-1.48l.2.12A4.55,4.55,0,0,1,103,27.84a4.18,4.18,0,0,1-5.3-1A4.39,4.39,0,0,1,96.78,24a4.83,4.83,0,0,1,.5-2.27,4,4,0,0,1,1.57-1.66,4.21,4.21,0,0,1,2.19-.59,4,4,0,0,1,1.82.44,1.16,1.16,0,0,0,.38.15.42.42,0,0,0,.3-.12,1.07,1.07,0,0,0,.22-.47h.29Z" transform="translate(0 0.15)" fill="#59606a"/><path d="M106.24,20.53v.24h0v-.09H106v.78a.24.24,0,0,0,0,.12h-.34a.08.08,0,0,0,.09,0,.17.17,0,0,0,0-.1v-.89h-.22a.17.17,0,0,0,0,.1h0v-.23h.86Z" transform="translate(0 0.15)" fill="#59606a"/><path d="M106.88,21.55l-.4-.86v.69a.2.2,0,0,0,0,.11.07.07,0,0,0,.09,0h-.36a.08.08,0,0,0,.09,0,.17.17,0,0,0,0-.1v-.67a.17.17,0,0,0,0-.1h.21l.37.8.35-.8h.4a.07.07,0,0,0-.1.1v.67a.24.24,0,0,0,0,.12h-.25a.21.21,0,0,0,0-.11v-.68l-.4.86h0Z" transform="translate(0 0.15)" fill="#59606a"/><path d="M106.46,22.6A1.55,1.55,0,1,1,108,21a1.55,1.55,0,0,1-1.56,1.56Zm0-3a1.48,1.48,0,1,0,1.48,1.48,1.48,1.48,0,0,0-1.48-1.48h0Z" transform="translate(0 0.15)" fill="#59606a"/><polygon points="99.5 34.98 41.46 34.98 41.46 29.49 104.44 29.49 99.5 34.98" fill="#59606a"/><path d="M44.78,34.05,43.3,30.74v2.63a.8.8,0,0,0,.07.46.44.44,0,0,0,.34.12h.15v.1H42.49V34h0a.41.41,0,0,0,.36-.15.79.79,0,0,0,0-.43V30.8a.86.86,0,0,0,0-.39.29.29,0,0,0-.15-.14.69.69,0,0,0-.35,0v-.11h1.11L45,33.24l1.47-3.08h1.11v.11h-.14a.41.41,0,0,0-.36.14.79.79,0,0,0,0,.43v2.58a.93.93,0,0,0,.07.46.49.49,0,0,0,.35.11h.14v.11h-1.8V34H46a.39.39,0,0,0,.35-.14.79.79,0,0,0,0-.43V30.75l-1.48,3.32h-.1Z" transform="translate(0 0.15)" fill="#fff"/><path d="M49.22,30.33v1.55h.85a.51.51,0,0,0,.62-.36.55.55,0,0,0,0-.22h.1v1.38h-.1a1.53,1.53,0,0,0-.08-.37.37.37,0,0,0-.16-.17,1.15,1.15,0,0,0-.37,0h-.86v1.31a1.6,1.6,0,0,0,0,.31l.07.09a.45.45,0,0,0,.23,0h.66a2,2,0,0,0,.49,0,.92.92,0,0,0,.3-.18,2.31,2.31,0,0,0,.37-.55h.07l-.34,1h-3V34h.15a.62.62,0,0,0,.27,0,.24.24,0,0,0,.11-.15.81.81,0,0,0,0-.38v-2.7a.78.78,0,0,0-.07-.45.44.44,0,0,0-.36-.12h-.14V30.1h3V31h-.12a1.66,1.66,0,0,0-.14-.43.49.49,0,0,0-.22-.18,2.81,2.81,0,0,0-.41,0H49.08Z" transform="translate(0 0.15)" fill="#fff"/><path d="M51.7,34.05V34h.15a.39.39,0,0,0,.35-.16.79.79,0,0,0,0-.43V30.83a.8.8,0,0,0-.07-.46.4.4,0,0,0-.34-.13h-.15v-.11h1.6a3.47,3.47,0,0,1,1.35.21,1.6,1.6,0,0,1,.74.67,2.12,2.12,0,0,1,.28,1.08,2,2,0,0,1-.51,1.37,2.19,2.19,0,0,1-1.7.62H51.7Zm1.13-.29a3.18,3.18,0,0,0,.62.07,1.47,1.47,0,0,0,1.11-.47,2.11,2.11,0,0,0,0-2.58,1.5,1.5,0,0,0-1.14-.47,2,2,0,0,0-.59.09Z" transform="translate(0 0.15)" fill="#fff"/><path d="M57.62,33.93V34H55.86v-.11H56a.39.39,0,0,0,.35-.14.86.86,0,0,0,0-.45V30.81a1.34,1.34,0,0,0,0-.4.19.19,0,0,0-.12-.11.57.57,0,0,0-.26,0h-.12v-.11h1.68v.11H57.4a.41.41,0,0,0-.36.14.86.86,0,0,0,0,.45v2.54a1.34,1.34,0,0,0,0,.4.28.28,0,0,0,.12.12.61.61,0,0,0,.27,0Z" transform="translate(0 0.15)" fill="#fff"/><path d="M61.23,30l.09,1.33h-.09a1.73,1.73,0,0,0-.51-.86,1.19,1.19,0,0,0-.79-.26,1.27,1.27,0,0,0-1.22.82,2.69,2.69,0,0,0-.17,1.08,2.21,2.21,0,0,0,.16.92,1.15,1.15,0,0,0,.52.59,1.41,1.41,0,0,0,.78.21,1.34,1.34,0,0,0,.68-.16,2.2,2.2,0,0,0,.64-.65h.09a2.25,2.25,0,0,1-.7.77,1.73,1.73,0,0,1-1,.25,1.78,1.78,0,0,1-1.48-.73,2.2,2.2,0,0,1-.4-1.27A2.25,2.25,0,0,1,58.15,31a2,2,0,0,1,.73-.77,2,2,0,0,1,1.84-.06.28.28,0,0,0,.18,0,.19.19,0,0,0,.15,0,.37.37,0,0,0,.1-.22Z" transform="translate(0 0.15)" fill="#fff"/><path d="M63.46,33.93V34H61.78v-.11h.14a.41.41,0,0,0,.36-.14,1.14,1.14,0,0,0,0-.45V30.81a1.34,1.34,0,0,0,0-.4.25.25,0,0,0-.12-.11.62.62,0,0,0-.27,0h-.11v-.11h1.68v.11h-.21a.4.4,0,0,0-.35.14.86.86,0,0,0,0,.45v2.54a1.34,1.34,0,0,0,0,.4A.23.23,0,0,0,63,34a.57.57,0,0,0,.26,0Z" transform="translate(0 0.15)" fill="#fff"/><path d="M63.83,30.12H64.9l2.41,3V30.8a.81.81,0,0,0-.08-.46.42.42,0,0,0-.34-.12h-.14v-.1h1.37v.1H68a.4.4,0,0,0-.35.15.79.79,0,0,0,0,.43v3.31h-.11L64.87,31v2.42a.8.8,0,0,0,.07.46.44.44,0,0,0,.34.12h.15v.1H64.05V34h.15a.41.41,0,0,0,.36-.15,1,1,0,0,0,0-.43V30.64a1.72,1.72,0,0,0-.27-.27,1.11,1.11,0,0,0-.27-.12h-.25v-.1Z" transform="translate(0 0.15)" fill="#fff"/><path d="M69.7,30.33v1.55h.86a.51.51,0,0,0,.62-.36.54.54,0,0,0,0-.22h.11v1.38h-.11a1.51,1.51,0,0,0-.07-.37.37.37,0,0,0-.16-.17,1.15,1.15,0,0,0-.37,0h-.86v1.31a.81.81,0,0,0,0,.31.28.28,0,0,0,.07.09.41.41,0,0,0,.22,0h.64a2,2,0,0,0,.49,0,.79.79,0,0,0,.29-.18,1.84,1.84,0,0,0,.37-.55h.12l-.34,1h-3V34h.15A.61.61,0,0,0,69,34a.26.26,0,0,0,.12-.15,1.21,1.21,0,0,0,0-.38v-2.7a.79.79,0,0,0-.08-.45.41.41,0,0,0-.35-.12h-.15V30.1h3V31h-.12a2.13,2.13,0,0,0-.13-.43.52.52,0,0,0-.23-.18,2.8,2.8,0,0,0-.41,0H69.66Z" transform="translate(0 0.15)" fill="#fff"/></g><path d="M30.65,176H89.33c.73,0,1.22,1,1.22,2.55v2.54c0,1.54-.49,2.55-1.22,2.55H30.65c-.73,0-1.21-1-1.21-2.55v-2.54C29.42,177.24,29.92,176,30.65,176Z" transform="translate(0 0.15)" fill="#f5f6f8" opacity="0.5" style="isolation:isolate"/><path d="M30.48,202.16h45c.56,0,.94.48.94,1.22v1.21c0,.73-.38,1.22-.94,1.22h-45c-.56,0-.93-.49-.93-1.22v-1.21C29.55,202.77,29.91,202.16,30.48,202.16Z" transform="translate(0 0.15)" fill="#f5f6f8" opacity="0.5" style="isolation:isolate"/><path d="M30.76,218.66H89.22a1.15,1.15,0,0,1,1.22,1.07v1.37a1.14,1.14,0,0,1-1.07,1.21H30.76a1.13,1.13,0,0,1-1.21-1.06.38.38,0,0,1,0-.15v-1.22a1.21,1.21,0,0,1,1.21-1.22Z" transform="translate(0 0.15)" fill="#f5f6f8" opacity="0.5" style="isolation:isolate"/><path d="M30.58,233.88H80.24a1.08,1.08,0,0,1,1.05,1.1.49.49,0,0,1,0,.12v1.22a1.08,1.08,0,0,1-.92,1.21H30.58a1.07,1.07,0,0,1-1-1.1.49.49,0,0,1,0-.12V235.1A1.14,1.14,0,0,1,30.58,233.88Z" transform="translate(0 0.15)" fill="#f5f6f8" opacity="0.5" style="isolation:isolate"/><path d="M30.51,249.11H77.07c.58,0,1,.48,1,1.21v1.22c0,.73-.39,1.22-1,1.22H30.51c-.59,0-1-.49-1-1.22v-1.22A1.12,1.12,0,0,1,30.51,249.11Z" transform="translate(0 0.15)" fill="#f5f6f8" opacity="0.5" style="isolation:isolate"/><path d="M30.58,264.39H80.24a1.07,1.07,0,0,1,1.05,1.1.49.49,0,0,1,0,.12v1.22a1.07,1.07,0,0,1-.92,1.2H30.58a1.06,1.06,0,0,1-1-1.09.49.49,0,0,1,0-.12v-1.22A1.14,1.14,0,0,1,30.58,264.39Z" transform="translate(0 0.15)" fill="#f5f6f8" opacity="0.5" style="isolation:isolate"/><path d="M30.51,279.61H77.07c.58,0,1,.49,1,1.22v1.22c0,.73-.39,1.22-1,1.22H30.51c-.59,0-1-.49-1-1.22v-1.22A1.14,1.14,0,0,1,30.51,279.61Z" transform="translate(0 0.15)" fill="#f5f6f8" opacity="0.5" style="isolation:isolate"/><path d="M30.58,294.84H80.24a1.06,1.06,0,0,1,1.05,1.09.49.49,0,0,1,0,.12v1.22a1.07,1.07,0,0,1-.92,1.21H30.58a1.07,1.07,0,0,1-1-1.1.49.49,0,0,1,0-.12v-1.22A1.12,1.12,0,0,1,30.58,294.84Z" transform="translate(0 0.15)" fill="#f5f6f8" opacity="0.5" style="isolation:isolate"/><path d="M89.79,109.36a24.15,24.15,0,0,1,0,19,24.89,24.89,0,0,1-5.2,7.81,24.53,24.53,0,0,1-26.81,5.22,24.44,24.44,0,0,1,19-45A24,24,0,0,1,89.79,109.36Zm-5.4,21.58a17.47,17.47,0,0,0-2.44-7,6.79,6.79,0,0,0-5-3.24,13.08,13.08,0,0,1-18.49.88,12.32,12.32,0,0,1-.89-.88,6.81,6.81,0,0,0-5,3.24,17.61,17.61,0,0,0-2.43,7,21,21,0,0,0,34.31,0Zm-9.75-11.67a10.47,10.47,0,1,0-14.1-15.48,8.36,8.36,0,0,0-.67.66,10.48,10.48,0,0,0,14.82,14.82Z" transform="translate(0 0.15)" fill="#d6dde6"/><path d="M209.16,112.24H334.32c1.47,0,2.66.59,2.66,1.47v5.86c0,.88-1.2,1.47-2.66,1.47H209.16c-1.47,0-2.66-.59-2.66-1.47v-5.86C206.66,113,207.72,112.24,209.16,112.24Z" transform="translate(0 0.15)" fill="#d6dde6"/><path d="M211.9,144.49H465.57c2.94,0,5.4.58,5.4,1.46v1.47c0,.88-2.46,1.46-5.4,1.46H211.9c-2.94,0-5.4-.58-5.4-1.46V146C206.75,145.21,209,144.49,211.9,144.49Z" transform="translate(0 0.15)" fill="#d6dde6"/><path d="M211.9,156.93H465.57c2.94,0,5.4.59,5.4,1.47v1.46c0,.88-2.46,1.47-5.4,1.47H211.9c-2.94,0-5.4-.59-5.4-1.47V158.4C206.75,157.62,209,156.93,211.9,156.93Z" transform="translate(0 0.15)" fill="#d6dde6"/><path d="M211.68,169.3H455.22c2.83,0,5.18.59,5.18,1.47v1.46c0,.88-2.35,1.47-5.18,1.47H211.68c-2.83,0-5.18-.59-5.18-1.47v-1.46C206.73,170,208.85,169.3,211.68,169.3Z" transform="translate(0 0.15)" fill="#d6dde6"/><path d="M211.27,181.37H435.78c2.61,0,4.77.58,4.77,1.46v1.47c0,.88-2.16,1.46-4.77,1.46H211.27c-2.61,0-4.77-.58-4.77-1.46v-1.47C206.64,182.1,208.66,181.37,211.27,181.37Z" transform="translate(0 0.15)" fill="#d6dde6"/><path d="M150.31,112.24h38.31a3.7,3.7,0,0,1,3.71,3.69v48a3.7,3.7,0,0,1-3.71,3.69H150.31a3.7,3.7,0,0,1-3.71-3.69v-48A3.7,3.7,0,0,1,150.31,112.24Z" transform="translate(0 0.15)" fill="#d6dde6"/><path d="M395.33,222h70.78c.89,0,1.48,1.23,1.48,3.06v3.06c0,1.85-.59,3.07-1.48,3.07H395.33c-.88,0-1.47-1.23-1.47-3.07v-3.06C393.85,223.54,394.45,222,395.33,222Z" transform="translate(0 0.15)" fill="#778ca6" fill-opacity="0.7" opacity="0.75"/><path d="M209.16,275.91H334.32c1.47,0,2.66.58,2.66,1.46v5.87c0,.87-1.2,1.46-2.66,1.46H209.16c-1.47,0-2.66-.59-2.66-1.46v-5.87C206.66,276.64,207.72,275.91,209.16,275.91Z" transform="translate(0 0.15)" fill="#d6dde6"/><path d="M211.9,308.15H465.57c2.94,0,5.4.59,5.4,1.47v1.46c0,.88-2.46,1.47-5.4,1.47H211.9c-2.94,0-5.4-.59-5.4-1.47v-1.46C206.75,308.89,209,308.15,211.9,308.15Z" transform="translate(0 0.15)" fill="#d6dde6"/><path d="M211.9,320.44H465.57c2.94,0,5.4.58,5.4,1.46v1.47c0,.88-2.46,1.46-5.4,1.46H211.9c-2.94,0-5.4-.58-5.4-1.46V321.9C206.75,321.17,209,320.44,211.9,320.44Z" transform="translate(0 0.15)" fill="#d6dde6"/><path d="M211.9,332.73H465.57c2.94,0,5.4.59,5.4,1.47v1.47c0,.87-2.46,1.46-5.4,1.46H211.9c-2.94,0-5.4-.59-5.4-1.46V334.2C206.75,333.47,209,332.73,211.9,332.73Z" transform="translate(0 0.15)" fill="#d6dde6"/><path d="M211.68,345H455.22c2.83,0,5.18.59,5.18,1.47V348c0,.88-2.35,1.47-5.18,1.47H211.68c-2.83,0-5.18-.59-5.18-1.47V346.5C206.73,345.82,208.85,345,211.68,345Z" transform="translate(0 0.15)" fill="#d6dde6"/><path d="M211.14,357.33H429.51c2.53,0,4.64.59,4.64,1.47v1.46c0,.88-2.11,1.47-4.64,1.47H211.14c-2.54,0-4.64-.59-4.64-1.47V358.8C206.72,358.06,208.68,357.33,211.14,357.33Z" transform="translate(0 0.15)" fill="#d6dde6"/><path d="M150.31,275.91h38.31a3.7,3.7,0,0,1,3.71,3.69v48a3.71,3.71,0,0,1-3.71,3.7H150.31a3.71,3.71,0,0,1-3.71-3.7v-48A3.7,3.7,0,0,1,150.31,275.91Z" transform="translate(0 0.15)" fill="#d6dde6"/><path d="M395.33,395.92h70.78c.89,0,1.48,1.23,1.48,3.07v3.06c0,1.85-.59,3.06-1.48,3.06H395.33c-.88,0-1.47-1.23-1.47-3.06V399C393.85,397.46,394.45,395.92,395.33,395.92Z" transform="translate(0 0.15)" fill="#778ca6" fill-opacity="0.7" opacity="0.75"/><path d="M209.16,444.42H334.32c1.47,0,2.66.59,2.66,1.47v5.86c0,.88-1.2,1.46-2.66,1.46H209.16c-1.47,0-2.66-.58-2.66-1.46v-5.86C206.66,445.15,207.72,444.42,209.16,444.42Z" transform="translate(0 0.15)" fill="#d6dde6"/><path d="M211.93,487.42H466.81c3,0,5.43.6,5.43,1.5v1.5c0,.91-2.47,1.51-5.43,1.51H211.93c-3,0-5.43-.6-5.43-1.51v-1.5C206.75,488.17,209,487.42,211.93,487.42Z" transform="translate(0 0.15)" fill="#d6dde6"/><path d="M211.93,473.85H466.81c3,0,5.43.6,5.43,1.5v1.5c0,.9-2.47,1.51-5.43,1.51H211.93c-3,0-5.43-.61-5.43-1.51v-1.5C206.75,474.6,209,473.85,211.93,473.85Z" transform="translate(0 0.15)" fill="#d6dde6"/><path d="M150.31,444.42h38.31a3.7,3.7,0,0,1,3.71,3.69v48a3.7,3.7,0,0,1-3.71,3.69H150.31a3.7,3.7,0,0,1-3.71-3.69v-48A3.7,3.7,0,0,1,150.31,444.42Z" transform="translate(0 0.15)" fill="#d6dde6"/><rect width="500" height="13.15" fill="#f47421"/></g></g></svg>