<svg xmlns="http://www.w3.org/2000/svg" viewBox="0 0 500 500.15">
  <path fill="#fff" d="M0 .15h500v500H0z" data-name="Layer 5"/>
  <g data-name="Unipathic">
    <g data-name="558ea9e6-0658-44b3-8043-69a01c7ca68b">
      <path d="M137.13 100.94h343.31c.72 0 1.21.59 1.21 1.47v141.42c0 .87-.49 1.46-1.21 1.46H137.13c-.72 0-1.21-.59-1.21-1.46V102.41a1.38 1.38 0 0 1 1.21-1.47zM137.13 432.04h343.31c.72 0 1.21 1.86 1.21 4.66v62.21c0 2.8-.49 0-1.21 0H137.13c-.72 0-1.21 2.8-1.21 0V436.7c0-2.33.49-4.66 1.21-4.66zM21.92 67h93.14c1.22 0 1.94.67 1.94 1.68v431c0 1-.78 0-1.94 0H21.92c-1.22 0-1.93 1-1.93 0v-431A1.81 1.81 0 0 1 21.92 67z" fill="#d6dde6" fill-opacity=".7" opacity=".4"/>
      <path d="M21.92 166.99h93.14c1.22 0 1.94.51 1.94 1.28v331.54c0 .77-.78 0-1.94 0H21.92c-1.22 0-1.93.77-1.93 0V168.27c.01-.64.77-1.28 1.93-1.28zM137.2 68.52h60a1.35 1.35 0 0 1 1.28 1.42v11.77a1.35 1.35 0 0 1-1.19 1.44H137.2a1.35 1.35 0 0 1-1.28-1.42V69.99a1.49 1.49 0 0 1 1.28-1.47z" fill="#778ca6" fill-opacity=".7" opacity=".75"/>
      <path d="M203.36 68.52h60a1.36 1.36 0 0 1 1.29 1.42v11.77a1.34 1.34 0 0 1-1.21 1.44h-60.08a1.35 1.35 0 0 1-1.28-1.42V69.99a1.47 1.47 0 0 1 1.28-1.47zM269.55 68.52h60a1.35 1.35 0 0 1 1.28 1.42v11.77a1.35 1.35 0 0 1-1.2 1.44h-60.08a1.35 1.35 0 0 1-1.29-1.42V69.99a1.47 1.47 0 0 1 1.29-1.47zM335.69 68.52h60a1.35 1.35 0 0 1 1.31 1.42v11.77a1.35 1.35 0 0 1-1.23 1.44h-60.08a1.35 1.35 0 0 1-1.29-1.42V69.99a1.47 1.47 0 0 1 1.29-1.47z" fill="#d6dde6" fill-opacity=".7"/>
      <path d="M230.17 25.08h38.46a1.39 1.39 0 0 1 1.48 1.29v1.66a1.39 1.39 0 0 1-1.3 1.48.54.54 0 0 1-.18 0h-38.46a1.39 1.39 0 0 1-1.48-1.29.6.6 0 0 1 0-.19v-1.48a1.47 1.47 0 0 1 1.48-1.47zM283.2 25.08h38.46a1.38 1.38 0 0 1 1.48 1.29v1.66a1.39 1.39 0 0 1-1.3 1.48.54.54 0 0 1-.18 0H283.2a1.39 1.39 0 0 1-1.48-1.29.6.6 0 0 1 0-.19v-1.48a1.47 1.47 0 0 1 1.48-1.47zM336 25.08h38.46a1.38 1.38 0 0 1 1.54 1.29v1.66a1.39 1.39 0 0 1-1.3 1.48.54.54 0 0 1-.18 0H336a1.39 1.39 0 0 1-1.48-1.29v-1.67a1.59 1.59 0 0 1 1.48-1.47zM389 25.08h38.46a1.38 1.38 0 0 1 1.48 1.29v1.66a1.39 1.39 0 0 1-1.3 1.48.54.54 0 0 1-.18 0H389a1.39 1.39 0 0 1-1.48-1.29.6.6 0 0 1 0-.19v-1.48a1.47 1.47 0 0 1 1.48-1.47z" fill="#adbbcc" fill-opacity=".2"/>
      <path d="M441.7 25.08h38.47a1.38 1.38 0 0 1 1.47 1.29.54.54 0 0 1 0 .18v1.48a1.38 1.38 0 0 1-1.29 1.48.54.54 0 0 1-.18 0H441.7a1.4 1.4 0 0 1-1.48-1.29v-1.67a1.59 1.59 0 0 1 1.48-1.47z" fill="#f47421" opacity=".85" style="isolation:isolate"/>
      <g data-name="500ee17a-fb6d-43b3-8846-4edc8fa2d3e6" opacity=".85">
        <path fill="#f47421" d="M20.24 19.89h3.15v3.14h-3.15zM20.24 23.87h3.15v3.15h-3.15zM20.24 27.85h3.15V31h-3.15zM20.24 31.86h3.15v3.12M24.28 31.86h3.15V35h-3.15z"/>
        <path fill="#59606a" d="M24.28 19.86h11.09v11.12H24.28z"/>
        <path fill="#f47421" d="M28.22 31.86h3.15V35h-3.15zM32.2 31.86h3.14V35H32.2zM36.18 19.84h3.21v3.21h-3.21zM36.18 23.82h3.21v3.24h-3.21zM36.18 27.82h3.21V31h-3.21zM36.18 34.98v-3.12h3.21"/>
        <path fill="#fff" d="M34.41 24.3h-3.48v-3.48h-2.29v3.48h-3.48v2.3h3.48v3.47h2.29V26.6h3.48v-2.3z"/>
        <path d="M46.3 20.06v-.22h3v.22H49a.86.86 0 0 0-.77.43 1.87 1.87 0 0 0-.13.9v3.45a6.3 6.3 0 0 1-.25 2 2.45 2.45 0 0 1-1 1.21 3.54 3.54 0 0 1-2 .51 3.89 3.89 0 0 1-2.11-.49 2.62 2.62 0 0 1-1-1.3 7.46 7.46 0 0 1-.21-2.1v-3.34a1.67 1.67 0 0 0-.22-1 .89.89 0 0 0-.71-.25h-.31v-.22h3.68v.22h-.28a.87.87 0 0 0-.75.34 1.83 1.83 0 0 0-.17.95v3.71a7.3 7.3 0 0 0 .09 1.14 2.42 2.42 0 0 0 .34 1 1.85 1.85 0 0 0 .68.59 2.31 2.31 0 0 0 1.1.22 3.08 3.08 0 0 0 1.48-.36 2 2 0 0 0 .9-.93 5.43 5.43 0 0 0 .25-1.92v-3.49a1.74 1.74 0 0 0-.18-1 .92.92 0 0 0-.72-.27zM49.7 19.84H52l5.21 6.39V21.3a1.71 1.71 0 0 0-.18-1 .91.91 0 0 0-.74-.26H56v-.23h3v.23h-.29a.84.84 0 0 0-.77.32 2.07 2.07 0 0 0-.15.92v7.17h-.22l-5.61-6.83v5.24a1.8 1.8 0 0 0 .17 1 .91.91 0 0 0 .74.26h.29v.22h-3v-.19h.3a.88.88 0 0 0 .77-.32 2.07 2.07 0 0 0 .15-.92v-5.95a3.84 3.84 0 0 0-.57-.57 2.2 2.2 0 0 0-.56-.26 2.53 2.53 0 0 0-.55 0v-.29zM63.05 28.15v.22h-3.66v-.22h.3a.9.9 0 0 0 .77-.31 2 2 0 0 0 .15-1v-5.51a2.7 2.7 0 0 0-.08-.85.55.55 0 0 0-.25-.27 1.17 1.17 0 0 0-.58-.15h-.29v-.22h3.64v.22h-.31a.93.93 0 0 0-.77.31 1.87 1.87 0 0 0-.17 1v5.51a3.07 3.07 0 0 0 .08.85.62.62 0 0 0 .26.27 1.19 1.19 0 0 0 .58.15h.33zM65.92 24.35v2.47a1.84 1.84 0 0 0 .17 1 .9.9 0 0 0 .73.26h.32v.23h-3.65v-.23h.31a.86.86 0 0 0 .77-.35 2.06 2.06 0 0 0 .12-.92v-5.48a1.81 1.81 0 0 0-.16-1 .94.94 0 0 0-.73-.27h-.31v-.22h3.12a5.57 5.57 0 0 1 1.81.24 2.53 2.53 0 0 1 1.11.78 2.15 2.15 0 0 1 .47 1.29 2.26 2.26 0 0 1-.69 1.7 2.63 2.63 0 0 1-1.93.65h-.68a6.82 6.82 0 0 1-.78-.15zm0-.35l.59.1H67a1.52 1.52 0 0 0 1.13-.5 1.86 1.86 0 0 0 .47-1.31 2.4 2.4 0 0 0-.22-1 1.47 1.47 0 0 0-.64-.71 1.82 1.82 0 0 0-.94-.23 3.87 3.87 0 0 0-.83.12zM74.14 25.5h-3.3l-.57 1.35a1.91 1.91 0 0 0-.21.74.42.42 0 0 0 .18.34 1.58 1.58 0 0 0 .76.22v.22h-2.64v-.22a1.32 1.32 0 0 0 .69-.25 3.88 3.88 0 0 0 .71-1.23l3-7h.22l3 7.09a3.19 3.19 0 0 0 .65 1.11 1.43 1.43 0 0 0 .82.29v.22H74v-.23a1.16 1.16 0 0 0 .68-.16.44.44 0 0 0 .18-.35 2.71 2.71 0 0 0-.26-.88zm-.14-.45l-1.47-3.45L71 25.05zM83.15 19.84l.1 2H83a2.48 2.48 0 0 0-.18-.76 1.16 1.16 0 0 0-.52-.53 1.8 1.8 0 0 0-.86-.18h-1.17v6.51a1.7 1.7 0 0 0 .16 1 1 1 0 0 0 .74.27h.29v.22h-3.62v-.22h.3a.87.87 0 0 0 .77-.33 1.9 1.9 0 0 0 .14-.91v-6.55h-1a2.5 2.5 0 0 0-.86.09 1.08 1.08 0 0 0-.56.45 1.89 1.89 0 0 0-.27.92h-.24l.11-2h7zM86 23.77h3.92v-2.42a3.1 3.1 0 0 0-.07-.86.59.59 0 0 0-.27-.27 1.16 1.16 0 0 0-.58-.14h-.29v-.23h3.64v.23H92a1.18 1.18 0 0 0-.58.14.57.57 0 0 0-.26.31 2.89 2.89 0 0 0 0 .83v5.51a2.72 2.72 0 0 0 .07.85.66.66 0 0 0 .25.27 1.19 1.19 0 0 0 .58.15h.3v.22H88.7v-.21h.3a.93.93 0 0 0 .77-.31 1.89 1.89 0 0 0 .17-1v-2.59H86v2.59a2.73 2.73 0 0 0 .08.85.57.57 0 0 0 .26.27 1.19 1.19 0 0 0 .58.15h.31v.22h-3.69v-.18h.29a.93.93 0 0 0 .77-.31 2 2 0 0 0 .15-1v-5.49a2.76 2.76 0 0 0-.08-.86.65.65 0 0 0-.25-.27 1.23 1.23 0 0 0-.57-.14h-.3v-.23h3.64v.23h-.27a1.12 1.12 0 0 0-.57.14.58.58 0 0 0-.27.31 2.6 2.6 0 0 0-.07.83v2.43zM96.41 28.15v.22h-3.64v-.22h.29a.9.9 0 0 0 .77-.31 2 2 0 0 0 .15-1v-5.51a3 3 0 0 0-.07-.85.62.62 0 0 0-.26-.27 1.13 1.13 0 0 0-.57-.15h-.3v-.22h3.64v.22h-.31a.93.93 0 0 0-.77.31 1.76 1.76 0 0 0-.16 1v5.51a2.72 2.72 0 0 0 .07.85.59.59 0 0 0 .27.27 1.13 1.13 0 0 0 .57.15h.32zM104.05 19.63l.2 3h-.2a3.6 3.6 0 0 0-1.11-1.86 2.7 2.7 0 0 0-1.73-.58 2.8 2.8 0 0 0-1.48.43 3 3 0 0 0-1.08 1.37 6.3 6.3 0 0 0-.4 2.36 5 5 0 0 0 .37 2 2.9 2.9 0 0 0 1.11 1.31 3.3 3.3 0 0 0 1.7.44 2.92 2.92 0 0 0 1.48-.36 4.58 4.58 0 0 0 1.39-1.48l.2.12a4.55 4.55 0 0 1-1.5 1.61 4.18 4.18 0 0 1-5.3-1 4.39 4.39 0 0 1-.92-2.84 4.83 4.83 0 0 1 .5-2.27 4 4 0 0 1 1.57-1.66 4.21 4.21 0 0 1 2.19-.59 4 4 0 0 1 1.82.44 1.16 1.16 0 0 0 .38.15.42.42 0 0 0 .3-.12 1.07 1.07 0 0 0 .22-.47h.29zM106.24 20.68v.24-.09H106v.78a.24.24 0 0 0 0 .12h-.34a.08.08 0 0 0 .09 0 .17.17 0 0 0 0-.1v-.89h-.22a.17.17 0 0 0 0 .1v-.23h.86z" fill="#59606a"/>
        <path d="M106.88 21.7l-.4-.86v.69a.2.2 0 0 0 0 .11.07.07 0 0 0 .09 0h-.36a.08.08 0 0 0 .09 0 .17.17 0 0 0 0-.1v-.67a.17.17 0 0 0 0-.1h.21l.37.8.35-.8h.4a.07.07 0 0 0-.1.1v.67a.24.24 0 0 0 0 .12h-.25a.21.21 0 0 0 0-.11v-.68l-.4.86z" fill="#59606a"/>
        <path d="M106.46 22.75a1.55 1.55 0 1 1 1.54-1.6 1.55 1.55 0 0 1-1.56 1.56zm0-3a1.48 1.48 0 1 0 1.48 1.48 1.48 1.48 0 0 0-1.48-1.48zM99.5 34.98H41.46v-5.49h62.98l-4.94 5.49z" fill="#59606a"/>
        <path d="M44.78 34.2l-1.48-3.31v2.63a.8.8 0 0 0 .07.46.44.44 0 0 0 .34.12h.15v.1h-1.37v-.05a.41.41 0 0 0 .36-.15.79.79 0 0 0 0-.43v-2.62a.86.86 0 0 0 0-.39.29.29 0 0 0-.15-.14.69.69 0 0 0-.35 0v-.11h1.11L45 33.39l1.47-3.08h1.11v.11h-.14a.41.41 0 0 0-.36.14.79.79 0 0 0 0 .43v2.58a.93.93 0 0 0 .07.46.49.49 0 0 0 .35.11h.14v.11h-1.8v-.1H46a.39.39 0 0 0 .35-.14.79.79 0 0 0 0-.43V30.9l-1.48 3.32h-.1zM49.22 30.48v1.55h.85a.51.51 0 0 0 .62-.36.55.55 0 0 0 0-.22h.1v1.38h-.1a1.53 1.53 0 0 0-.08-.37.37.37 0 0 0-.16-.17 1.15 1.15 0 0 0-.37 0h-.86v1.31a1.6 1.6 0 0 0 0 .31l.07.09a.45.45 0 0 0 .23 0h.66a2 2 0 0 0 .49 0 .92.92 0 0 0 .3-.18 2.31 2.31 0 0 0 .37-.55h.07l-.34 1h-3v-.12h.15a.62.62 0 0 0 .27 0 .24.24 0 0 0 .11-.15.81.81 0 0 0 0-.38v-2.7a.78.78 0 0 0-.07-.45.44.44 0 0 0-.36-.12h-.14v-.1h3v.9h-.12a1.66 1.66 0 0 0-.14-.43.49.49 0 0 0-.22-.18 2.81 2.81 0 0 0-.41 0h-1.06zM51.7 34.2v-.05h.15a.39.39 0 0 0 .35-.16.79.79 0 0 0 0-.43v-2.58a.8.8 0 0 0-.07-.46.4.4 0 0 0-.34-.13h-.15v-.11h1.6a3.47 3.47 0 0 1 1.35.21 1.6 1.6 0 0 1 .74.67 2.12 2.12 0 0 1 .28 1.08 2 2 0 0 1-.51 1.37 2.19 2.19 0 0 1-1.7.62h-1.7zm1.13-.29a3.18 3.18 0 0 0 .62.07 1.47 1.47 0 0 0 1.11-.47 2.11 2.11 0 0 0 0-2.58 1.5 1.5 0 0 0-1.14-.47 2 2 0 0 0-.59.09zM57.62 34.08v.07h-1.76v-.11H56a.39.39 0 0 0 .35-.14.86.86 0 0 0 0-.45v-2.49a1.34 1.34 0 0 0 0-.4.19.19 0 0 0-.12-.11.57.57 0 0 0-.26 0h-.12v-.11h1.68v.11h-.13a.41.41 0 0 0-.36.14.86.86 0 0 0 0 .45v2.54a1.34 1.34 0 0 0 0 .4.28.28 0 0 0 .12.12.61.61 0 0 0 .27 0zM61.23 30.15l.09 1.33h-.09a1.73 1.73 0 0 0-.51-.86 1.19 1.19 0 0 0-.79-.26 1.27 1.27 0 0 0-1.22.82 2.69 2.69 0 0 0-.17 1.08 2.21 2.21 0 0 0 .16.92 1.15 1.15 0 0 0 .52.59 1.41 1.41 0 0 0 .78.21 1.34 1.34 0 0 0 .68-.16 2.2 2.2 0 0 0 .64-.65h.09a2.25 2.25 0 0 1-.7.77 1.73 1.73 0 0 1-1 .25 1.78 1.78 0 0 1-1.48-.73 2.2 2.2 0 0 1-.4-1.27 2.25 2.25 0 0 1 .32-1.04 2 2 0 0 1 .73-.77 2 2 0 0 1 1.84-.06.28.28 0 0 0 .18 0 .19.19 0 0 0 .15 0 .37.37 0 0 0 .1-.22zM63.46 34.08v.07h-1.68v-.11h.14a.41.41 0 0 0 .36-.14 1.14 1.14 0 0 0 0-.45v-2.49a1.34 1.34 0 0 0 0-.4.25.25 0 0 0-.12-.11.62.62 0 0 0-.27 0h-.11v-.11h1.68v.11h-.21a.4.4 0 0 0-.35.14.86.86 0 0 0 0 .45v2.54a1.34 1.34 0 0 0 0 .4.23.23 0 0 0 .1.17.57.57 0 0 0 .26 0zM63.83 30.27h1.07l2.41 3v-2.32a.81.81 0 0 0-.08-.46.42.42 0 0 0-.34-.12h-.14v-.1h1.37v.1H68a.4.4 0 0 0-.35.15.79.79 0 0 0 0 .43v3.31h-.11l-2.67-3.11v2.42a.8.8 0 0 0 .07.46.44.44 0 0 0 .34.12h.15v.1h-1.38v-.1h.15a.41.41 0 0 0 .36-.15 1 1 0 0 0 0-.43v-2.78a1.72 1.72 0 0 0-.27-.27 1.11 1.11 0 0 0-.27-.12h-.25v-.1zM69.7 30.48v1.55h.86a.51.51 0 0 0 .62-.36.54.54 0 0 0 0-.22h.11v1.38h-.11a1.51 1.51 0 0 0-.07-.37.37.37 0 0 0-.16-.17 1.15 1.15 0 0 0-.37 0h-.86v1.31a.81.81 0 0 0 0 .31.28.28 0 0 0 .07.09.41.41 0 0 0 .22 0h.64a2 2 0 0 0 .49 0 .79.79 0 0 0 .29-.18 1.84 1.84 0 0 0 .37-.55h.12l-.34 1h-3v-.12h.15a.61.61 0 0 0 .27 0 .26.26 0 0 0 .12-.15 1.21 1.21 0 0 0 0-.38v-2.7a.79.79 0 0 0-.08-.45.41.41 0 0 0-.35-.12h-.15v-.1h3v.9h-.12a2.13 2.13 0 0 0-.13-.43.52.52 0 0 0-.23-.18 2.8 2.8 0 0 0-.41 0h-.99z" fill="#fff"/>
      </g>
      <path d="M30.65 176.15h58.68c.73 0 1.22 1 1.22 2.55v2.54c0 1.54-.49 2.55-1.22 2.55H30.65c-.73 0-1.21-1-1.21-2.55v-2.54c-.02-1.31.48-2.55 1.21-2.55zM30.48 202.31h45c.56 0 .94.48.94 1.22v1.21c0 .73-.38 1.22-.94 1.22h-45c-.56 0-.93-.49-.93-1.22v-1.21c0-.61.36-1.22.93-1.22zM30.76 218.81h58.46a1.15 1.15 0 0 1 1.22 1.07v1.37a1.14 1.14 0 0 1-1.07 1.21H30.76a1.13 1.13 0 0 1-1.21-1.06.38.38 0 0 1 0-.15v-1.22a1.21 1.21 0 0 1 1.21-1.22zM30.58 234.03h49.66a1.08 1.08 0 0 1 1.05 1.1.49.49 0 0 1 0 .12v1.22a1.08 1.08 0 0 1-.92 1.21H30.58a1.07 1.07 0 0 1-1-1.1.49.49 0 0 1 0-.12v-1.21a1.14 1.14 0 0 1 1-1.22zM30.51 249.26h46.56c.58 0 1 .48 1 1.21v1.22c0 .73-.39 1.22-1 1.22H30.51c-.59 0-1-.49-1-1.22v-1.22a1.12 1.12 0 0 1 1-1.21zM30.58 264.54h49.66a1.07 1.07 0 0 1 1.05 1.1.49.49 0 0 1 0 .12v1.22a1.07 1.07 0 0 1-.92 1.2H30.58a1.06 1.06 0 0 1-1-1.09.49.49 0 0 1 0-.12v-1.22a1.14 1.14 0 0 1 1-1.21zM30.51 279.76h46.56c.58 0 1 .49 1 1.22v1.22c0 .73-.39 1.22-1 1.22H30.51c-.59 0-1-.49-1-1.22v-1.22a1.14 1.14 0 0 1 1-1.22zM30.58 294.99h49.66a1.06 1.06 0 0 1 1.05 1.09.49.49 0 0 1 0 .12v1.22a1.07 1.07 0 0 1-.92 1.21H30.58a1.07 1.07 0 0 1-1-1.1.49.49 0 0 1 0-.12v-1.22a1.12 1.12 0 0 1 1-1.2z" fill="#f5f6f8" opacity=".5" style="isolation:isolate"/>
      <path d="M89.79 109.51a24.15 24.15 0 0 1 0 19 24.89 24.89 0 0 1-5.2 7.81 24.53 24.53 0 0 1-26.81 5.22 24.44 24.44 0 0 1 19-45 24 24 0 0 1 13.01 12.97zm-5.4 21.58a17.47 17.47 0 0 0-2.44-7 6.79 6.79 0 0 0-5-3.24 13.08 13.08 0 0 1-18.49.88 12.32 12.32 0 0 1-.89-.88 6.81 6.81 0 0 0-5 3.24 17.61 17.61 0 0 0-2.43 7 21 21 0 0 0 34.31 0zm-9.75-11.67a10.47 10.47 0 1 0-14.1-15.48 8.36 8.36 0 0 0-.67.66 10.48 10.48 0 0 0 14.82 14.82zM209.16 112.39h125.16c1.47 0 2.66.59 2.66 1.47v5.86c0 .88-1.2 1.47-2.66 1.47H209.16c-1.47 0-2.66-.59-2.66-1.47v-5.86c.16-.71 1.22-1.47 2.66-1.47zM211.9 144.64h253.67c2.94 0 5.4.58 5.4 1.46v1.47c0 .88-2.46 1.46-5.4 1.46H211.9c-2.94 0-5.4-.58-5.4-1.46v-1.42c.25-.79 2.5-1.51 5.4-1.51zM211.9 157.08h253.67c2.94 0 5.4.59 5.4 1.47v1.46c0 .88-2.46 1.47-5.4 1.47H211.9c-2.94 0-5.4-.59-5.4-1.47v-1.46c.25-.78 2.5-1.47 5.4-1.47zM211.68 169.45h243.54c2.83 0 5.18.59 5.18 1.47v1.46c0 .88-2.35 1.47-5.18 1.47H211.68c-2.83 0-5.18-.59-5.18-1.47v-1.46c.23-.77 2.35-1.47 5.18-1.47zM211.27 181.52h224.51c2.61 0 4.77.58 4.77 1.46v1.47c0 .88-2.16 1.46-4.77 1.46H211.27c-2.61 0-4.77-.58-4.77-1.46v-1.47c.14-.73 2.16-1.46 4.77-1.46zM150.31 112.39h38.31a3.7 3.7 0 0 1 3.71 3.69v48a3.7 3.7 0 0 1-3.71 3.69h-38.31a3.7 3.7 0 0 1-3.71-3.69v-48a3.7 3.7 0 0 1 3.71-3.69z" fill="#d6dde6"/>
      <path d="M395.33 222.15h70.78c.89 0 1.48 1.23 1.48 3.06v3.06c0 1.85-.59 3.07-1.48 3.07h-70.78c-.88 0-1.47-1.23-1.47-3.07v-3.06c-.01-1.52.59-3.06 1.47-3.06z" fill="#778ca6" fill-opacity=".7" opacity=".75"/>
      <path d="M209.16 276.06h125.16c1.47 0 2.66.58 2.66 1.46v5.87c0 .87-1.2 1.46-2.66 1.46H209.16c-1.47 0-2.66-.59-2.66-1.46v-5.87c.16-.73 1.22-1.46 2.66-1.46zM211.9 308.3h253.67c2.94 0 5.4.59 5.4 1.47v1.46c0 .88-2.46 1.47-5.4 1.47H211.9c-2.94 0-5.4-.59-5.4-1.47v-1.46c.25-.73 2.5-1.47 5.4-1.47zM211.9 320.59h253.67c2.94 0 5.4.58 5.4 1.46v1.47c0 .88-2.46 1.46-5.4 1.46H211.9c-2.94 0-5.4-.58-5.4-1.46v-1.47c.25-.73 2.5-1.46 5.4-1.46zM211.9 332.88h253.67c2.94 0 5.4.59 5.4 1.47v1.47c0 .87-2.46 1.46-5.4 1.46H211.9c-2.94 0-5.4-.59-5.4-1.46v-1.47c.25-.73 2.5-1.47 5.4-1.47zM211.68 345.15h243.54c2.83 0 5.18.59 5.18 1.47v1.53c0 .88-2.35 1.47-5.18 1.47H211.68c-2.83 0-5.18-.59-5.18-1.47v-1.5c.23-.68 2.35-1.5 5.18-1.5zM211.14 357.48h218.37c2.53 0 4.64.59 4.64 1.47v1.46c0 .88-2.11 1.47-4.64 1.47H211.14c-2.54 0-4.64-.59-4.64-1.47v-1.46c.22-.74 2.18-1.47 4.64-1.47zM150.31 276.06h38.31a3.7 3.7 0 0 1 3.71 3.69v48a3.71 3.71 0 0 1-3.71 3.7h-38.31a3.71 3.71 0 0 1-3.71-3.7v-48a3.7 3.7 0 0 1 3.71-3.69z" fill="#d6dde6"/>
      <path d="M395.33 396.07h70.78c.89 0 1.48 1.23 1.48 3.07v3.06c0 1.85-.59 3.06-1.48 3.06h-70.78c-.88 0-1.47-1.23-1.47-3.06v-3.05c-.01-1.54.59-3.08 1.47-3.08z" fill="#778ca6" fill-opacity=".7" opacity=".75"/>
      <path d="M209.16 444.57h125.16c1.47 0 2.66.59 2.66 1.47v5.86c0 .88-1.2 1.46-2.66 1.46H209.16c-1.47 0-2.66-.58-2.66-1.46v-5.86c.16-.74 1.22-1.47 2.66-1.47zM211.93 487.57h254.88c3 0 5.43.6 5.43 1.5v1.5c0 .91-2.47 1.51-5.43 1.51H211.93c-3 0-5.43-.6-5.43-1.51v-1.5c.25-.75 2.5-1.5 5.43-1.5zM211.93 474h254.88c3 0 5.43.6 5.43 1.5v1.5c0 .9-2.47 1.51-5.43 1.51H211.93c-3 0-5.43-.61-5.43-1.51v-1.5c.25-.75 2.5-1.5 5.43-1.5zM150.31 444.57h38.31a3.7 3.7 0 0 1 3.71 3.69v48a3.7 3.7 0 0 1-3.71 3.69h-38.31a3.7 3.7 0 0 1-3.71-3.69v-48a3.7 3.7 0 0 1 3.71-3.69z" fill="#d6dde6"/>
      <path fill="#f47421" d="M0 0h500v13.15H0z"/>
    </g>
  </g>
</svg>
