<svg id="d7a36108-652e-4255-a5f2-0949dee40359" data-name="86b0bc66-b153-42fe-877f-fbc89e42bdff" xmlns="http://www.w3.org/2000/svg" viewBox="0 0 566.1 130.03"><title>vertisis-logo</title><path d="M142.1,1.82h30.3v1a15.55,15.55,0,0,0-5,1.1A6.59,6.59,0,0,0,165.1,6a5.86,5.86,0,0,0-.9,3.1,12.48,12.48,0,0,0,.2,2.1c.2.6.6,1.9,1.4,4l13.6,36.9,13.3-32.3c1.8-4.6,2.8-7.9,2.8-10a9.19,9.19,0,0,0-.6-3.3,5.11,5.11,0,0,0-1.5-2.3,5.64,5.64,0,0,0-2-1.1,10.88,10.88,0,0,0-2.8-.3v-1H209v1A14.18,14.18,0,0,0,204.6,4a14.21,14.21,0,0,0-3.6,3.1,20,20,0,0,0-2.4,4c-.8,1.7-2,4.3-3.5,7.9l-18.8,45.4h-1.9l-18.3-46.9q-3.6-9.3-5.7-11.7a8.22,8.22,0,0,0-3.4-2.3,14.11,14.11,0,0,0-4.9-.7v-1Z" transform="translate(0 0.01)" fill="#3a4550"/><path d="M259,1.82l.8,15.1h-1.1a20.11,20.11,0,0,0-2-6.4,13,13,0,0,0-4-4.5,13.27,13.27,0,0,0-5.1-2.3,40,40,0,0,0-7.8-.7H229.3v27.5h2.8a24.6,24.6,0,0,0,6.3-.6,6.46,6.46,0,0,0,3.4-2,7.67,7.67,0,0,0,1.9-3.1,23.78,23.78,0,0,0,1-5.3h1.1l-.2,24.6h-1.1a27.82,27.82,0,0,0-1.2-5.7,11.36,11.36,0,0,0-2.2-3.7,8.15,8.15,0,0,0-3.6-2.2,17.78,17.78,0,0,0-5.6-.7h-2.6v10.5c0,4.2.1,7.2.3,9.2a15.31,15.31,0,0,0,1.2,4.8,9.37,9.37,0,0,0,4.8,4.8,19.74,19.74,0,0,0,8.4,1.5,27,27,0,0,0,9.2-1.4,14.15,14.15,0,0,0,6.1-4.3,16.82,16.82,0,0,0,2.7-4.5,40.37,40.37,0,0,0,1.9-6.7H265L264.4,64H209.7v-1.1a14.6,14.6,0,0,0,4.2-.7,7,7,0,0,0,2.9-1.9,8.82,8.82,0,0,0,2-3.7,30.67,30.67,0,0,0,.5-7V16.22a39.5,39.5,0,0,0-.5-7,7.39,7.39,0,0,0-2-3.7,7,7,0,0,0-2.9-1.9,15.37,15.37,0,0,0-4.3-.7V1.82Z" transform="translate(0 0.01)" fill="#3a4550"/><path d="M287.9,33.82V50a39.5,39.5,0,0,0,.5,7,7.39,7.39,0,0,0,2,3.7,7,7,0,0,0,2.9,1.9,15,15,0,0,0,4.3.8v1.1H268.3v-1.1a12.2,12.2,0,0,0,4.3-.8,7.69,7.69,0,0,0,2.9-1.9,7.84,7.84,0,0,0,2-3.7,37.89,37.89,0,0,0,.5-7V16.22a37.89,37.89,0,0,0-.5-7,7.07,7.07,0,0,0-2-3.7,7,7,0,0,0-2.9-1.9,15.37,15.37,0,0,0-4.3-.7V1.82h29.4a38,38,0,0,1,11.2,1.9,14.93,14.93,0,0,1,7,5.5,14.43,14.43,0,0,1,2.5,8.5,14,14,0,0,1-5.4,11.5,13.06,13.06,0,0,1-3.6,2.1,38.8,38.8,0,0,1-5.3,1.6,16.39,16.39,0,0,1,4.1,2.4,9.59,9.59,0,0,1,1.9,2.4,55.27,55.27,0,0,1,2.6,5.1c2.7,5.6,4.8,9.7,6.2,12.3a38.06,38.06,0,0,0,3.5,5.6,9.69,9.69,0,0,0,2.2,2,7.35,7.35,0,0,0,3,.7v1.1H312.4c-.8-1.7-1.3-2.8-1.5-3.2L307.7,54a125.12,125.12,0,0,0-5.8-11.6c-2-3.3-3.7-5.6-5.4-6.8a8.45,8.45,0,0,0-2.7-1.3,11.61,11.61,0,0,0-3.5-.4Zm0-1h1.7a37.72,37.72,0,0,0,8.1-.6,10,10,0,0,0,4.6-2.7,15.26,15.26,0,0,0,4.8-11.4,17.23,17.23,0,0,0-1.4-6.8A13.82,13.82,0,0,0,301.8,6a11.58,11.58,0,0,0-4.6-2.2,36.81,36.81,0,0,0-7.6-.6h-1.9v29.6Z" transform="translate(0 0.01)" fill="#3a4550"/><path d="M353.9,3.22c-1.9,0-4,.1-6.2.2q-7,.3-10.5,1.8a12.18,12.18,0,0,0-5.7,4.9,25.61,25.61,0,0,0-3.2,8.7l-1.1-.1.8-16.9h62.1l.8,16.9-1.1.1c-.8-4.3-2.1-7.5-3.9-9.7a14.28,14.28,0,0,0-7.7-4.7c-2.8-.8-7.7-1.2-14.5-1.2V50a39.5,39.5,0,0,0,.5,7,7.27,7.27,0,0,0,1.9,3.7,7.69,7.69,0,0,0,2.9,1.9,15.25,15.25,0,0,0,4.2.7v1.1H343.9v-1.1a15.37,15.37,0,0,0,4.3-.7,7,7,0,0,0,2.9-1.9,8.82,8.82,0,0,0,2-3.7,30.67,30.67,0,0,0,.5-7V3.22Z" transform="translate(0 0.01)" fill="#3a4550"/><path d="M422.9,1.82v1a14.6,14.6,0,0,0-4.2.7,7,7,0,0,0-2.9,1.9,8.6,8.6,0,0,0-2.2,5.1,46.13,46.13,0,0,0-.3,5.6v33.8a32.53,32.53,0,0,0,.4,6,8,8,0,0,0,1.2,3.5,7.36,7.36,0,0,0,3.1,2.7,13.23,13.23,0,0,0,5,1.1v1.1H393.7v-1.1a12.2,12.2,0,0,0,4.3-.8,7.69,7.69,0,0,0,2.9-1.9,7.84,7.84,0,0,0,2-3.7,37.89,37.89,0,0,0,.5-7V16.22a37.89,37.89,0,0,0-.5-7,7.07,7.07,0,0,0-2-3.7,7,7,0,0,0-2.9-1.9,15.37,15.37,0,0,0-4.3-.7V1.82Z" transform="translate(0 0.01)" fill="#3a4550"/><path d="M429.7,64.22l.1-19h1.1a41.36,41.36,0,0,0,4.6,11.4c3.3,5.1,7.5,7.7,12.6,7.7a11.83,11.83,0,0,0,8.7-3.5,12.3,12.3,0,0,0,3.4-9,16.09,16.09,0,0,0-.8-4.8,16.35,16.35,0,0,0-2-4.2,15.41,15.41,0,0,0-3.7-3.4,74.26,74.26,0,0,0-7.4-4.2c-2.9-1.5-5.1-2.7-6.7-3.7a16.84,16.84,0,0,1-3.7-3.1,15.18,15.18,0,0,1-3.9-10.5,18.35,18.35,0,0,1,1.5-7.3,17.76,17.76,0,0,1,4.3-6.1A16.34,16.34,0,0,1,449.3,0a17,17,0,0,1,4,.4,42,42,0,0,1,4.9,1.7c1.5.6,2.6,1,3.1,1.2a4,4,0,0,0,1.5.3c1.1,0,1.8-.8,2.2-2.3h1.1l.3,18.2h-1.1c-.8-2.9-1.5-5.1-2.1-6.7a24.55,24.55,0,0,0-2.1-4.3,15.86,15.86,0,0,0-4.9-5.3,11.77,11.77,0,0,0-6.2-1.7A10.22,10.22,0,0,0,441.9,5a9.38,9.38,0,0,0-1.9,3.4,10.72,10.72,0,0,0-.7,3.9c0,5.1,3.3,9.2,9.9,12.4l6.5,3.1q7.5,3.6,10.8,7.8a17.57,17.57,0,0,1,3.8,11.1,20.64,20.64,0,0,1-1.7,8.1,18.25,18.25,0,0,1-7.2,8.3A21.46,21.46,0,0,1,450.2,66a30.14,30.14,0,0,1-11.4-2.3c-1.9-.8-3-1.3-3.4-1.4a5,5,0,0,0-1.2-.2,2.9,2.9,0,0,0-3,2.2l-1.5-.1Z" transform="translate(0 0.01)" fill="#3a4550"/><path d="M505.4,1.82v1a14.6,14.6,0,0,0-4.2.7,7,7,0,0,0-2.9,1.9,8.6,8.6,0,0,0-2.2,5.1,46.13,46.13,0,0,0-.3,5.6v33.8a32.53,32.53,0,0,0,.4,6,8,8,0,0,0,1.2,3.5,7.36,7.36,0,0,0,3.1,2.7,13.23,13.23,0,0,0,5,1.1v1.1H476.2v-1.1a12.2,12.2,0,0,0,4.3-.8,7.69,7.69,0,0,0,2.9-1.9,7.84,7.84,0,0,0,2-3.7,37.89,37.89,0,0,0,.5-7V16.22a37.89,37.89,0,0,0-.5-7,7.07,7.07,0,0,0-2-3.7,7,7,0,0,0-2.9-1.9,15.37,15.37,0,0,0-4.3-.7V1.82Z" transform="translate(0 0.01)" fill="#3a4550"/><path d="M512.1,64.22l.1-19h1.1a41.36,41.36,0,0,0,4.6,11.4c3.3,5.1,7.5,7.7,12.6,7.7a11.83,11.83,0,0,0,8.7-3.5,12.3,12.3,0,0,0,3.4-9,16.09,16.09,0,0,0-.8-4.8,16.35,16.35,0,0,0-2-4.2,15.41,15.41,0,0,0-3.7-3.4,74.25,74.25,0,0,0-7.4-4.2c-2.9-1.5-5.1-2.7-6.7-3.7a16.84,16.84,0,0,1-3.7-3.1,15.18,15.18,0,0,1-3.9-10.5,18.35,18.35,0,0,1,1.5-7.3,17.76,17.76,0,0,1,4.3-6.1A16.34,16.34,0,0,1,531.7,0a17,17,0,0,1,4,.4,42,42,0,0,1,4.9,1.7c1.5.6,2.6,1,3.1,1.2a4,4,0,0,0,1.5.3c1.1,0,1.8-.8,2.2-2.3h1.1l.3,18.2h-1.1c-.8-2.9-1.5-5.1-2.1-6.7a24.55,24.55,0,0,0-2.1-4.3,15.86,15.86,0,0,0-4.9-5.3,11.77,11.77,0,0,0-6.2-1.7A10.22,10.22,0,0,0,524.3,5a9.38,9.38,0,0,0-1.9,3.4,10.72,10.72,0,0,0-.7,3.9c0,5.1,3.3,9.2,9.9,12.4l6.5,3.1q7.5,3.6,10.8,7.8a17.57,17.57,0,0,1,3.8,11.1,20.64,20.64,0,0,1-1.7,8.1,18.25,18.25,0,0,1-7.2,8.3A21.46,21.46,0,0,1,532.6,66a30.14,30.14,0,0,1-11.4-2.3c-1.9-.8-3-1.3-3.4-1.4a5,5,0,0,0-1.2-.2,2.9,2.9,0,0,0-3,2.2l-1.5-.1Z" transform="translate(0 0.01)" fill="#3a4550"/><path d="M420.7,91.5a3.2,3.2,0,0,0-1.55-.69,11.8,11.8,0,0,0-2.83-.2h-.2v10.21a21.9,21.9,0,0,0,3.13-.2,5,5,0,0,0,1.55-.89,5.64,5.64,0,0,0,1.72-4,7,7,0,0,0-.47-2.42A5.61,5.61,0,0,0,420.7,91.5Z" transform="translate(0 0.01)" fill="#3a4550"/><polygon points="415.4 101.73 415.4 101.73 415.4 101.73 415.4 101.73" fill="#3a4550"/><path d="M274.62,92.44a6.34,6.34,0,0,0-2.32-2,7.57,7.57,0,0,0-3.1-.66,6.48,6.48,0,0,0-3.08.65,7.69,7.69,0,0,0-2.45,2,12.88,12.88,0,0,0-2.09,4.11,18.62,18.62,0,0,0-.68,5.36,13,13,0,0,0,2.69,8.39,6.75,6.75,0,0,0,2.53,2.16,6.24,6.24,0,0,0,3.08.65,6.75,6.75,0,0,0,3.08-.65,8.66,8.66,0,0,0,2.54-2.17,13.13,13.13,0,0,0,2.68-8.46,18.66,18.66,0,0,0-.78-5.26A11.1,11.1,0,0,0,274.62,92.44Z" transform="translate(0 0.01)" fill="#3a4550"/><polygon points="388.73 102.63 394.46 102.63 391.51 95.31 388.73 102.63" fill="#3a4550"/><path d="M342.28,91.2a4.19,4.19,0,0,0-2.33-1H337.2v10.3h1.2a8.74,8.74,0,0,0,2.54-.27,3.74,3.74,0,0,0,1.5-.88A4.85,4.85,0,0,0,344,95.5a7.17,7.17,0,0,0-.47-2.52A4.35,4.35,0,0,0,342.28,91.2Z" transform="translate(0 0.01)" fill="#3a4550"/><polygon points="472.73 102.63 478.46 102.63 475.51 95.31 472.73 102.63" fill="#3a4550"/><path d="M143.9,78.72V124H553.6V78.72Zm34.9,28.1a9.73,9.73,0,0,1-1.59,4.74,7.2,7.2,0,0,1-3.32,2.57,13.46,13.46,0,0,1-4.78.83,15.39,15.39,0,0,1-4.86-.72,11.28,11.28,0,0,1-5.85-4.39,13.84,13.84,0,0,1-2.09-7.59,15.17,15.17,0,0,1,1.24-6.2A11.84,11.84,0,0,1,161,91.47a12.29,12.29,0,0,1,4.05-2.08,14.62,14.62,0,0,1,4.66-.83,16.4,16.4,0,0,1,4.75.82l1.75.59c.38.14.41.18.59-.09a1.23,1.23,0,0,0,.24-.48l.11-.34h.66v.19h.5l.21,8.51h-1.27l-.11-.34a6.32,6.32,0,0,0-.27-.74c-.31-.83-.59-1.51-.8-2l-.22-.53A8.08,8.08,0,0,0,172,90.32a5.53,5.53,0,0,0-2.2-.36,6.3,6.3,0,0,0-3.24.83,6.62,6.62,0,0,0-2.25,2.06A11.13,11.13,0,0,0,162.6,96a17.55,17.55,0,0,0-.3,10.59,11,11,0,0,0,1.91,3.64,7.6,7.6,0,0,0,6.09,2.58,7.5,7.5,0,0,0,3.38-.65,5.12,5.12,0,0,0,2.31-1.83,9.38,9.38,0,0,0,1.42-3.81l.09-.53,1.34.34Zm29.8-16.65h-.5a3.08,3.08,0,0,0-1.38.25,3.78,3.78,0,0,0-1,.61,3.38,3.38,0,0,0-.67,1.18,16.26,16.26,0,0,0-.18,2.57V106a11.57,11.57,0,0,1-.43,3.88,6.63,6.63,0,0,1-1.61,2.38c-1.77,1.56-4.37,2.35-7.75,2.35s-6-.73-7.73-2.22a6.17,6.17,0,0,1-2-3.91,19.31,19.31,0,0,1-.1-2.87V94.72a16.06,16.06,0,0,0-.19-2.62,1.69,1.69,0,0,0-.61-1.08,2.26,2.26,0,0,0-.92-.62h-.1a3.25,3.25,0,0,0-.95-.18l-.6-.07-.43-.06V88.72h12.3v1.5h-.5a3.8,3.8,0,0,0-1.51.26,3.66,3.66,0,0,0-.93.59,3.11,3.11,0,0,0-.68,1.3,20.1,20.1,0,0,0-.17,2.94v10.1a25.08,25.08,0,0,0,.2,3.43,4.47,4.47,0,0,0,.72,1.79,5.18,5.18,0,0,0,1.91,1.83,6.86,6.86,0,0,0,3,.55,9.84,9.84,0,0,0,3.33-.57,7.09,7.09,0,0,0,2.62-1.48,2.89,2.89,0,0,0,.89-1.23,4.3,4.3,0,0,0,.36-1.61v-.75c0-.6.07-1.51.07-2.75v-9.9a16.16,16.16,0,0,0-.19-2.62,1.7,1.7,0,0,0-.61-1.08,2.25,2.25,0,0,0-.92-.62h-.1a3.09,3.09,0,0,0-.88-.18l-.58-.08-.42-.07V88.72h9.2ZM226,110.39a6.78,6.78,0,0,1-3,3.42,8.19,8.19,0,0,1-4.64,1.16,11.62,11.62,0,0,1-4.6-.94l-.34-.15a8.73,8.73,0,0,1-1-.44h-.3a.68.68,0,0,0-.73.56l-.11.34H209.9v-.71l.11-7.79h1.28l.1.37a15,15,0,0,0,1.74,4.26,5.21,5.21,0,0,0,4.48,2.77,4.11,4.11,0,0,0,3-1.25,4.27,4.27,0,0,0,1.15-3.15,5.2,5.2,0,0,0-.27-1.64,5.54,5.54,0,0,0-.73-1.46,4.11,4.11,0,0,0-1.28-1.18,21.32,21.32,0,0,0-2.83-1.56l-1.21-.63a15.52,15.52,0,0,1-1.46-.81,6.12,6.12,0,0,1-1.52-1.32,6.42,6.42,0,0,1-1.6-4.4,7.26,7.26,0,0,1,.64-3,7.25,7.25,0,0,1,8.28-4.09,8.12,8.12,0,0,1,2,.74A8.35,8.35,0,0,1,223,90a.84.84,0,0,0,.38.05c.2,0,.28-.3.31-.48l.07-.42H225l.11,8.1h-1.29l-.1-.37c-.3-1.1-.6-2-.79-2.57a8.4,8.4,0,0,0-.75-1.6,7.3,7.3,0,0,0-1.76-1.95,3.7,3.7,0,0,0-4.81.6,5.22,5.22,0,0,0-.73,1.18,3.54,3.54,0,0,0-.26,1.31c0,1.77,1.18,3.23,3.52,4.35l2.5,1.2a12.48,12.48,0,0,1,4.37,3.13,7.53,7.53,0,0,1,.86,7.94Zm26.54-13.92-.08-.41A7.49,7.49,0,0,0,251,92.6,5.17,5.17,0,0,0,248.28,91a21.88,21.88,0,0,0-5-.48v17.6a16.19,16.19,0,0,0,.19,2.62,2.25,2.25,0,0,0,.66,1.23,2.07,2.07,0,0,0,.87.57h.1a3.06,3.06,0,0,0,.88.18l.58.08.42.07v1.32H234.6v-1.4h.5a3.82,3.82,0,0,0,1.51-.26,3.64,3.64,0,0,0,.93-.59,3.4,3.4,0,0,0,.67-1.18,16.28,16.28,0,0,0,.18-2.57V90.32a17.57,17.57,0,0,0-1.85.1,12.2,12.2,0,0,0-4,.66,4.54,4.54,0,0,0-2,1.72A10.69,10.69,0,0,0,229.41,96l-.08.4H228l.35-7.6h25l.35,7.6Zm29.29,9.47a12,12,0,0,1-2.5,4.07,15.33,15.33,0,0,1-4.66,3.51,13.5,13.5,0,0,1-5.71,1.25,13.08,13.08,0,0,1-5.61-1.25,13.56,13.56,0,0,1-7-7.36,12.62,12.62,0,0,1-.84-4.5,12,12,0,0,1,1.36-5.73,14.83,14.83,0,0,1,3.83-4.65,15.48,15.48,0,0,1,4-2.28,12.53,12.53,0,0,1,10,.42A13.84,13.84,0,0,1,279.37,93a12.49,12.49,0,0,1,3.22,8.43,13.62,13.62,0,0,1-.82,4.51Zm35.23,8H304.6v-1.4h.5a3.8,3.8,0,0,0,1.51-.26,3.65,3.65,0,0,0,.93-.59,3.13,3.13,0,0,0,.68-1.3,16.91,16.91,0,0,0,.17-2.54V94.36L300,113.92H299L290.7,94.65v13.17a16,16,0,0,0,.19,2.62,1.69,1.69,0,0,0,.61,1.08,2.25,2.25,0,0,0,.92.62h.1a3.06,3.06,0,0,0,.88.18l.58.08.42.07v1.35h-9.2v-1.4h.5a3,3,0,0,0,1.38-.25,3.75,3.75,0,0,0,1-.61,3.11,3.11,0,0,0,.68-1.31,17.14,17.14,0,0,0,.17-2.54V94.62a6.8,6.8,0,0,0-.09-1.38,6.31,6.31,0,0,0-.36-1.8,1.84,1.84,0,0,0-.94-1,5.13,5.13,0,0,0-2-.47h-.45V88.62h8.54l7.38,18.2,7.69-18.2h8.13v1.1h-.4v.5a3,3,0,0,0-1.38.25h-.1a2.08,2.08,0,0,0-.87.57l-.08.06a1.06,1.06,0,0,0-.4.54c-.09.28-.18.64-.28,1a13.53,13.53,0,0,0-.1,2.13v13.1a16,16,0,0,0,.19,2.62,1.69,1.69,0,0,0,.61,1.08,3.67,3.67,0,0,0,2.5.9h.5Zm29.55-12.77a8.5,8.5,0,0,1-3.41,1h-.63c-.53,0-1.31.07-2.31.07l-3-.09V108a16,16,0,0,0,.19,2.62,2.24,2.24,0,0,0,.66,1.23,2.08,2.08,0,0,0,.87.57h.1a3.53,3.53,0,0,0,1.48.25h.5v1.4H328.6v-1.4h.5a3.82,3.82,0,0,0,1.51-.26,3.65,3.65,0,0,0,.93-.59,3.41,3.41,0,0,0,.67-1.18,16.36,16.36,0,0,0,.18-2.57V95a15.91,15.91,0,0,0-.09-2.32,1.82,1.82,0,0,0-.36-1l-.08-.1a2.7,2.7,0,0,0-1-.93,4.32,4.32,0,0,0-1.54-.33h-.5l-.1-.5v-.9h11.2a19.69,19.69,0,0,1,4.22.32,7.09,7.09,0,0,1,2.57,1.18,6.61,6.61,0,0,1,2.71,5.51,5.66,5.66,0,0,1-2.87,5.2ZM379.4,90.32h-.5a3,3,0,0,0-1.38.25,3.76,3.76,0,0,0-1,.61,3.38,3.38,0,0,0-.67,1.18,16.17,16.17,0,0,0-.18,2.56V108a16,16,0,0,0,.19,2.62,2.24,2.24,0,0,0,.66,1.23,2.08,2.08,0,0,0,.87.57h.1a3.33,3.33,0,0,0,1.38.25h.5v1.4H367v-1.4h.5a3.82,3.82,0,0,0,1.51-.26,3.7,3.7,0,0,0,.93-.59,3.39,3.39,0,0,0,.67-1.18,16.31,16.31,0,0,0,.18-2.57V102H359.2v6.1a16,16,0,0,0,.19,2.62,2.24,2.24,0,0,0,.66,1.23,2.09,2.09,0,0,0,.87.57h.1a3.54,3.54,0,0,0,1.48.25h.5v1.4H350.6v-1.34h.5a3.81,3.81,0,0,0,1.51-.26,3.68,3.68,0,0,0,.93-.59,3.41,3.41,0,0,0,.67-1.18,16.34,16.34,0,0,0,.18-2.56V95.12a16.21,16.21,0,0,0-.19-2.62,1.69,1.69,0,0,0-.61-1.08,2.26,2.26,0,0,0-.89-.6h-.1a3.23,3.23,0,0,0-1-.18l-.59-.07-.43-.06V89.12H363v1.4h-.5a3,3,0,0,0-1.38.25,3.75,3.75,0,0,0-1,.61,3.38,3.38,0,0,0-.67,1.18,16.36,16.36,0,0,0-.18,2.57v5h11.5v-5.2a16.13,16.13,0,0,0-.19-2.62,1.69,1.69,0,0,0-.61-1.08,2.25,2.25,0,0,0-.92-.62h-.1a3.24,3.24,0,0,0-1-.18l-.59-.07-.43-.06V88.92h12.4Zm27.6,23.8H394.2v-1.36h.45a5.9,5.9,0,0,0,2-.45,1.73,1.73,0,0,0,.82-1.45A6.93,6.93,0,0,0,397,109l-.29-.67-1.58-3.9H388l-1.18,3.27a8.89,8.89,0,0,0-.77,2.93,2.15,2.15,0,0,0,.25,1,1.86,1.86,0,0,0,.63.71,4.3,4.3,0,0,0,1.59.52l.43.06v1.33h-9v-1.46h.5a2.88,2.88,0,0,0,1.44-.43,5,5,0,0,0,1.27-1.19,10.27,10.27,0,0,0,1-1.79c.29-.58.58-1.31.94-2.24l.45-1.13,6.62-17.12h1.68L402,108.54a16.26,16.26,0,0,0,1.09,2.31,3.7,3.7,0,0,0,1,1.28,2.64,2.64,0,0,0,.82.41,13.14,13.14,0,0,0,1.64.29l.44.05Zm24.2.1h-6.73l-.13-.3a6.5,6.5,0,0,0-.51-1.06l-.09-.14-1.2-2.8a31,31,0,0,0-2.27-4.44,11.06,11.06,0,0,0-2-2.58,4.32,4.32,0,0,0-.84-.41,4.67,4.67,0,0,0-1.24-.17h-.3V108a16,16,0,0,0,.19,2.62,2.24,2.24,0,0,0,.66,1.23,2.08,2.08,0,0,0,.87.57h.1a3.53,3.53,0,0,0,1.48.25h.5v1.4H407.3v-1.4h.5a3.82,3.82,0,0,0,1.51-.26,3.72,3.72,0,0,0,.93-.59,3.41,3.41,0,0,0,.67-1.18,16.36,16.36,0,0,0,.18-2.57V95a16.2,16.2,0,0,0-.19-2.62,1.7,1.7,0,0,0-.61-1.08,2.25,2.25,0,0,0-.92-.61h-.1a3.22,3.22,0,0,0-1-.18l-.6-.07-.43-.06V89h11.9a14.84,14.84,0,0,1,4.49.74,6.17,6.17,0,0,1,4,5.86,5.89,5.89,0,0,1-2.29,4.79,6.91,6.91,0,0,1-1.52.87c-.25.1-.54.2-.88.3q.26.16.5.34a2.61,2.61,0,0,1,.69.83l.12.19.23.42a13.21,13.21,0,0,1,.82,1.67l2.4,4.79a11.73,11.73,0,0,0,1.34,2.11,2.65,2.65,0,0,0,.73.66c.28.09.64.18,1,.27l.38.09Zm32.4-.3H451.2v-1.4h.5a3.8,3.8,0,0,0,1.51-.26,3.66,3.66,0,0,0,.93-.59,3.15,3.15,0,0,0,.68-1.3,17,17,0,0,0,.17-2.54V94.36l-8.37,19.56h-1.06l-8.27-19.27v13.17a16.21,16.21,0,0,0,.19,2.62,1.7,1.7,0,0,0,.61,1.08,2.26,2.26,0,0,0,.92.61h.1a3,3,0,0,0,.88.18l.57.08.42.07v1.36h-9.2v-1.4h.5a3,3,0,0,0,1.38-.25,3.72,3.72,0,0,0,1-.61,3.14,3.14,0,0,0,.68-1.3,17,17,0,0,0,.17-2.54V94.62a6.88,6.88,0,0,0-.08-1.38,6.25,6.25,0,0,0-.36-1.8,1.84,1.84,0,0,0-.94-1,5.13,5.13,0,0,0-2-.47h-.45V88.62h8.54l7.39,18.2,7.66-18.19h8.13v1.1H463v.5a3,3,0,0,0-1.38.25h-.1a2.09,2.09,0,0,0-.87.57,1.2,1.2,0,0,0-.48.6c-.1.29-.19.68-.29,1.06a14.19,14.19,0,0,0-.09,2.08v13.1a16.2,16.2,0,0,0,.19,2.62,1.7,1.7,0,0,0,.61,1.08,3.68,3.68,0,0,0,2.5.9h.5Zm27.4.2H478.2v-1.36h.45a5.9,5.9,0,0,0,2-.45,1.73,1.73,0,0,0,.82-1.45A6.93,6.93,0,0,0,481,109l-.29-.67-1.58-3.9H472l-1.18,3.27a8.89,8.89,0,0,0-.77,2.93,2.15,2.15,0,0,0,.25,1,1.86,1.86,0,0,0,.63.71,4.3,4.3,0,0,0,1.59.52l.43.06v1.33h-9v-1.46h.5a2.88,2.88,0,0,0,1.44-.43,5,5,0,0,0,1.27-1.19,10.27,10.27,0,0,0,1-1.79c.29-.58.58-1.31.94-2.24l.45-1.13,6.62-17.12h1.68L486,108.54a16.26,16.26,0,0,0,1.09,2.31,3.7,3.7,0,0,0,1,1.28,2.64,2.64,0,0,0,.82.41,13.14,13.14,0,0,0,1.64.29l.44.05Zm23.7-7.3a9.73,9.73,0,0,1-1.59,4.74,7.2,7.2,0,0,1-3.32,2.57A11.44,11.44,0,0,1,505,115a15.4,15.4,0,0,1-4.86-.72,11.28,11.28,0,0,1-5.85-4.39,13.84,13.84,0,0,1-2.09-7.59,15.17,15.17,0,0,1,1.24-6.2,11.84,11.84,0,0,1,3.45-4.59,12.28,12.28,0,0,1,4-2.08,14.62,14.62,0,0,1,4.66-.83,16.4,16.4,0,0,1,4.75.82l1.75.59c.38.14.41.18.59-.09a1.26,1.26,0,0,0,.24-.48l.11-.34h.65v.19h.5l.21,8.51h-1.27l-.11-.34a6.52,6.52,0,0,0-.27-.74c-.31-.84-.59-1.52-.8-2l-.21-.51a8.08,8.08,0,0,0-3.83-3.83,5.53,5.53,0,0,0-2.2-.36,6.31,6.31,0,0,0-3.24.83,6.63,6.63,0,0,0-2.25,2.06A11.19,11.19,0,0,0,498.5,96a15.17,15.17,0,0,0-1,5.75,15,15,0,0,0,.67,4.84,11,11,0,0,0,1.91,3.64,7.6,7.6,0,0,0,6.12,2.56,7.5,7.5,0,0,0,3.38-.65,5.12,5.12,0,0,0,2.31-1.83,9.37,9.37,0,0,0,1.42-3.81l.09-.53,1.34.34Zm26.6-16.43-.42.07a10.16,10.16,0,0,0-1.32.28,2.65,2.65,0,0,0-.81.58,22.14,22.14,0,0,0-2.64,3.32l-4.1,6.2a6.6,6.6,0,0,0-.84,1.48,5.54,5.54,0,0,0-.17,1.54v4.4a13.87,13.87,0,0,0,.19,2.6,2,2,0,0,0,.66,1.14,3.2,3.2,0,0,0,2.45.85h.5v1.4H522.4v-1.5h.5a3.82,3.82,0,0,0,1.51-.26,3.65,3.65,0,0,0,.93-.59,2.16,2.16,0,0,0,.56-1.15,16.21,16.21,0,0,0,.19-2.6v-3.5a5.6,5.6,0,0,0-.28-1.56,9.22,9.22,0,0,0-1.33-2.45l-5.41-8.11a4.65,4.65,0,0,0-1.61-1.63,3.27,3.27,0,0,0-.83-.37,4,4,0,0,0-1-.08h-.5V89H527.7V90.4l-1.08.1a3.69,3.69,0,0,0-1,.16,1.06,1.06,0,0,0-.78,1.08,2.53,2.53,0,0,0,.17.73,9.16,9.16,0,0,0,.66,1.21l4.37,6.83,4.19-6.46a3.8,3.8,0,0,0,.61-1.71,1.78,1.78,0,0,0-.55-1.45,2.7,2.7,0,0,0-1.65-.45h-.5V89h9.2Z" transform="translate(0 0.01)" fill="#3a4550"/><path d="M565.7,3.91A6,6,0,0,0,564.52,2a6,6,0,0,0-2.07-1.5,6.27,6.27,0,0,0-5,0,6.08,6.08,0,0,0-3.25,7.77,6.18,6.18,0,0,0,1.17,1.91,6,6,0,0,0,2.06,1.48,6.16,6.16,0,0,0,5,0A6.08,6.08,0,0,0,565.7,3.91Zm-.81,2.19a4.94,4.94,0,0,1-8.25,3.68,4.91,4.91,0,0,1-1.2-1.68,5.07,5.07,0,0,1,0-4.07,4.88,4.88,0,0,1,1.21-1.68,4.81,4.81,0,0,1,1.53-1,4.91,4.91,0,0,1,5.08,1,5,5,0,0,1,1.63,3.71Z" transform="translate(0 0.01)" fill="#3a4550"/><path d="M562.54,8.41a.36.36,0,0,1-.12-.11,9.24,9.24,0,0,1-.85-1.46,3.74,3.74,0,0,0-.36-.62h0a1.63,1.63,0,0,0,.56-.39,1.39,1.39,0,0,0,.36-1,1.46,1.46,0,0,0-.26-.85,1.56,1.56,0,0,0-.74-.55,2.54,2.54,0,0,0-.64-.15h-3.27V3.9h.21a.69.69,0,0,1,.49.15.42.42,0,0,1,.14.14,2.54,2.54,0,0,1,0,.53V7.56a2.43,2.43,0,0,1,0,.52.46.46,0,0,1-.1.21.79.79,0,0,1-.51.15h-.24V9h3.08V8.41h-.2a.79.79,0,0,1-.5-.15.46.46,0,0,1-.11-.21,2.45,2.45,0,0,1,0-.52V6.41a.64.64,0,0,1,.35.09,4.08,4.08,0,0,1,.9,1.47l.28.61.14.3.06.12H563V8.41h-.19A.67.67,0,0,1,562.54,8.41Zm-2.22-2.77a.66.66,0,0,1-.3.17,2.65,2.65,0,0,1-.57,0v-2a2.7,2.7,0,0,1,.52,0,.74.74,0,0,1,.31.14.85.85,0,0,1,.26.35,1.17,1.17,0,0,1,.1.48,1,1,0,0,1-.33.79Z" transform="translate(0 0.01)" fill="#3a4550"/><g id="d078457d-f1c9-4adb-aae9-c4d0135d25d1" data-name="b986f678-cff8-44a4-ac81-0924ff64b74d"><polygon points="71.4 130.03 118.2 21.63 126.4 90.93 71.4 130.03" fill="#b00000"/><polygon points="55 130.03 8.2 21.63 0 90.93 55 130.03" fill="#b00000"/><polygon points="63.2 35.23 16.6 1.93 63.2 110.43 109.8 1.93 63.2 35.23" fill="#b00000"/></g></svg>