<svg xmlns="http://www.w3.org/2000/svg" viewBox="0 0 500 500"><title>vertisis</title><g id="6a09aeca-877d-4c60-808d-3b3cd36724a5" data-name="Layer 5"><rect width="500" height="500" fill="#fff"/></g><g id="665be011-9147-4c0b-8b4d-e9bd6db7dd5f" data-name="Vertisis"><g opacity="0.2"><rect x="126.13" y="119.12" width="83.28" height="69.1" fill="#d6dde6"/><rect x="216.99" y="119.12" width="83.28" height="69.1" fill="#d6dde6"/><rect x="307.86" y="119.12" width="83.28" height="69.1" fill="#d6dde6"/><rect x="398.72" y="119.12" width="83.28" height="69.1" fill="#d6dde6"/><rect x="126.13" y="196.32" width="83.28" height="69.1" fill="#d6dde6"/><rect x="216.99" y="196.32" width="83.28" height="69.1" fill="#d6dde6"/><rect x="307.86" y="196.32" width="83.28" height="69.1" fill="#d6dde6"/><rect x="398.72" y="196.32" width="83.28" height="69.1" fill="#d6dde6"/><rect x="126.13" y="273.51" width="83.28" height="69.1" fill="#d6dde6"/><rect x="216.99" y="273.51" width="83.28" height="69.1" fill="#d6dde6"/><rect x="307.86" y="273.51" width="83.28" height="69.1" fill="#d6dde6"/><rect x="398.72" y="273.51" width="83.28" height="69.1" fill="#d6dde6"/><rect x="126.13" y="350.71" width="83.28" height="69.1" fill="#d6dde6"/><rect x="216.99" y="350.71" width="83.28" height="69.1" fill="#d6dde6"/><rect x="307.86" y="350.71" width="83.28" height="69.1" fill="#d6dde6"/><rect x="398.72" y="350.71" width="83.28" height="69.1" fill="#d6dde6"/><rect x="126.13" y="427.9" width="83.28" height="69.1" fill="#d6dde6"/><rect x="216.99" y="427.9" width="83.28" height="69.1" fill="#d6dde6"/><rect x="307.86" y="427.9" width="83.28" height="69.1" fill="#d6dde6"/><rect x="398.72" y="427.9" width="83.28" height="69.1" fill="#d6dde6"/></g><path d="M135.17,76.54h57.44a1.13,1.13,0,0,1,1.2,1.19v1.2a1.13,1.13,0,0,1-1.2,1.2H135.17a1.13,1.13,0,0,1-1.2-1.2v-1.2A1.19,1.19,0,0,1,135.17,76.54Z" transform="translate(0)" fill="#f5f6f8"/><path d="M21.86,166.73h80c1,0,1.66,1.54,1.66,3.33v3.33c0,1.79-.71,3.34-1.66,3.34h-80c-1,0-1.67-1.55-1.67-3.34v-3.33C20.19,168.15,20.9,166.73,21.86,166.73Z" transform="translate(0)" fill="#ad2128" opacity="0.75" style="isolation:isolate"/><path d="M178.11,134.82h-2.45v-5.7A3.16,3.16,0,0,0,172.5,126H163a3.16,3.16,0,0,0-3.15,3.15v5.7h-2.61a7,7,0,0,0-6.92,6.92v12.91a6.94,6.94,0,0,0,6.92,6.92h20.86a6.94,6.94,0,0,0,6.92-6.92V141.74A6.94,6.94,0,0,0,178.11,134.82Z" transform="translate(0)" fill="#d6dde6"/><path d="M269.06,134.82h-2.45v-5.7a3.16,3.16,0,0,0-3.16-3.15H254a3.16,3.16,0,0,0-3.15,3.15v5.7H248.2a7,7,0,0,0-6.92,6.92v12.91a6.94,6.94,0,0,0,6.92,6.92h20.86a6.94,6.94,0,0,0,6.92-6.92V141.74A7,7,0,0,0,269.06,134.82Z" transform="translate(0)" fill="#d6dde6"/><path d="M359.92,134.82h-2.45v-5.7a3.16,3.16,0,0,0-3.15-3.15h-9.5a3.16,3.16,0,0,0-3.15,3.15v5.7h-2.6a6.94,6.94,0,0,0-6.92,6.92v12.91a6.94,6.94,0,0,0,6.92,6.92h20.85a6.94,6.94,0,0,0,6.93-6.92V141.74A7,7,0,0,0,359.92,134.82Z" transform="translate(0)" fill="#d6dde6"/><path d="M450.79,134.82h-2.45v-5.7a3.16,3.16,0,0,0-3.15-3.15h-9.5a3.16,3.16,0,0,0-3.15,3.15v5.7h-2.61a7,7,0,0,0-6.92,6.92v12.91a6.94,6.94,0,0,0,6.92,6.92h20.86a6.94,6.94,0,0,0,6.92-6.92V141.74A6.94,6.94,0,0,0,450.79,134.82Z" transform="translate(0)" fill="#d6dde6"/><path d="M178.11,212.43h-2.45v-5.7a3.16,3.16,0,0,0-3.16-3.15H163a3.16,3.16,0,0,0-3.15,3.15v5.7h-2.61a6.94,6.94,0,0,0-6.92,6.92v12.91a6.94,6.94,0,0,0,6.92,6.92h20.86a6.94,6.94,0,0,0,6.92-6.92V219.35A6.94,6.94,0,0,0,178.11,212.43Z" transform="translate(0)" fill="#d6dde6"/><path d="M269.06,212.43h-2.45v-5.7a3.16,3.16,0,0,0-3.16-3.15H254a3.16,3.16,0,0,0-3.15,3.15v5.7H248.2a6.94,6.94,0,0,0-6.92,6.92v12.91a6.94,6.94,0,0,0,6.92,6.92h20.86a6.94,6.94,0,0,0,6.92-6.92V219.35A6.94,6.94,0,0,0,269.06,212.43Z" transform="translate(0)" fill="#d6dde6"/><path d="M359.92,212.43h-2.45v-5.7a3.16,3.16,0,0,0-3.15-3.15h-9.5a3.16,3.16,0,0,0-3.15,3.15v5.7h-2.6a6.94,6.94,0,0,0-6.92,6.92v12.91a6.94,6.94,0,0,0,6.92,6.92h20.85a6.94,6.94,0,0,0,6.93-6.92V219.35A6.94,6.94,0,0,0,359.92,212.43Z" transform="translate(0)" fill="#d6dde6"/><path d="M450.79,212.43h-2.45v-5.7a3.16,3.16,0,0,0-3.15-3.15h-9.5a3.16,3.16,0,0,0-3.15,3.15v5.7h-2.61a6.94,6.94,0,0,0-6.92,6.92v12.91a6.94,6.94,0,0,0,6.92,6.92h20.86a6.94,6.94,0,0,0,6.92-6.92V219.35A6.94,6.94,0,0,0,450.79,212.43Z" transform="translate(0)" fill="#d6dde6"/><path d="M178.11,290.45h-2.45v-5.69a3.17,3.17,0,0,0-3.16-3.16H163a3.16,3.16,0,0,0-3.15,3.16v5.69h-2.61a7,7,0,0,0-6.92,6.93v12.9a6.94,6.94,0,0,0,6.92,6.92h20.86a6.94,6.94,0,0,0,6.92-6.92v-12.9A6.94,6.94,0,0,0,178.11,290.45Z" transform="translate(0)" fill="#d6dde6"/><path d="M269.06,290.45h-2.45v-5.69a3.17,3.17,0,0,0-3.16-3.16H254a3.16,3.16,0,0,0-3.15,3.16v5.69H248.2a7,7,0,0,0-6.92,6.93v12.9a6.94,6.94,0,0,0,6.92,6.92h20.86a6.94,6.94,0,0,0,6.92-6.92v-12.9A7,7,0,0,0,269.06,290.45Z" transform="translate(0)" fill="#d6dde6"/><path d="M359.92,290.45h-2.45v-5.69a3.16,3.16,0,0,0-3.15-3.16h-9.5a3.16,3.16,0,0,0-3.15,3.16v5.69h-2.6a6.94,6.94,0,0,0-6.92,6.93v12.9a6.94,6.94,0,0,0,6.92,6.92h20.85a6.94,6.94,0,0,0,6.93-6.92v-12.9A7,7,0,0,0,359.92,290.45Z" transform="translate(0)" fill="#d6dde6"/><path d="M450.79,290.45h-2.45v-5.69a3.16,3.16,0,0,0-3.15-3.16h-9.5a3.16,3.16,0,0,0-3.15,3.16v5.69h-2.61a7,7,0,0,0-6.92,6.93v12.9a6.94,6.94,0,0,0,6.92,6.92h20.86a6.94,6.94,0,0,0,6.92-6.92v-12.9A6.94,6.94,0,0,0,450.79,290.45Z" transform="translate(0)" fill="#d6dde6"/><path d="M178.11,367.52h-2.45v-5.7a3.16,3.16,0,0,0-3.16-3.15H163a3.16,3.16,0,0,0-3.15,3.15v5.7h-2.61a7,7,0,0,0-6.92,6.92v12.91a6.94,6.94,0,0,0,6.92,6.92h20.86a6.94,6.94,0,0,0,6.92-6.92V374.44A6.94,6.94,0,0,0,178.11,367.52Z" transform="translate(0)" fill="#d6dde6"/><path d="M269.06,367.52h-2.45v-5.7a3.16,3.16,0,0,0-3.16-3.15H254a3.16,3.16,0,0,0-3.15,3.15v5.7H248.2a7,7,0,0,0-6.92,6.92v12.91a6.94,6.94,0,0,0,6.92,6.92h20.86a6.94,6.94,0,0,0,6.92-6.92V374.44A7,7,0,0,0,269.06,367.52Z" transform="translate(0)" fill="#d6dde6"/><path d="M359.92,367.52h-2.45v-5.7a3.16,3.16,0,0,0-3.15-3.15h-9.5a3.16,3.16,0,0,0-3.15,3.15v5.7h-2.6a6.94,6.94,0,0,0-6.92,6.92v12.91a6.94,6.94,0,0,0,6.92,6.92h20.85a6.94,6.94,0,0,0,6.93-6.92V374.44A7,7,0,0,0,359.92,367.52Z" transform="translate(0)" fill="#d6dde6"/><path d="M450.79,367.52h-2.45v-5.7a3.16,3.16,0,0,0-3.15-3.15h-9.5a3.16,3.16,0,0,0-3.15,3.15v5.7h-2.61a7,7,0,0,0-6.92,6.92v12.91a6.94,6.94,0,0,0,6.92,6.92h20.86a6.94,6.94,0,0,0,6.92-6.92V374.44A6.94,6.94,0,0,0,450.79,367.52Z" transform="translate(0)" fill="#d6dde6"/><path d="M137.8,176.4h59.76a1.17,1.17,0,0,1,1.25,1.24v1.25a1.18,1.18,0,0,1-1.25,1.24H137.8a1.18,1.18,0,0,1-1.25-1.24v-1.25A1.25,1.25,0,0,1,137.8,176.4Z" transform="translate(0)" fill="#d6dde6" fill-opacity="0.7"/><path d="M142.28,168.3h50.8c.64,0,1.06.5,1.06,1.25v1.24c0,.75-.42,1.25-1.06,1.25h-50.8a1.1,1.1,0,0,1-1.06-1.25v-1.24A1.18,1.18,0,0,1,142.28,168.3Z" transform="translate(0)" fill="#d6dde6" fill-opacity="0.7"/><path d="M228.75,176.4h59.76a1.17,1.17,0,0,1,1.25,1.24v1.25a1.18,1.18,0,0,1-1.25,1.24H228.75a1.18,1.18,0,0,1-1.25-1.24v-1.25A1.25,1.25,0,0,1,228.75,176.4Z" transform="translate(0)" fill="#d6dde6" fill-opacity="0.7"/><path d="M233.23,168.3H284c.64,0,1.06.5,1.06,1.25v1.24c0,.75-.42,1.25-1.06,1.25h-50.8a1.1,1.1,0,0,1-1.06-1.25v-1.24A1.18,1.18,0,0,1,233.23,168.3Z" transform="translate(0)" fill="#d6dde6" fill-opacity="0.7"/><path d="M319.61,176.4h59.77a1.17,1.17,0,0,1,1.24,1.24v1.25a1.17,1.17,0,0,1-1.24,1.24H319.61a1.18,1.18,0,0,1-1.24-1.24v-1.25A1.25,1.25,0,0,1,319.61,176.4Z" transform="translate(0)" fill="#d6dde6" fill-opacity="0.7"/><path d="M324.1,168.3h50.8c.63,0,1.05.5,1.05,1.25v1.24c0,.75-.42,1.25-1.05,1.25H324.1c-.64,0-1.06-.5-1.06-1.25v-1.24A1.17,1.17,0,0,1,324.1,168.3Z" transform="translate(0)" fill="#d6dde6" fill-opacity="0.7"/><path d="M410.48,176.4h59.76a1.17,1.17,0,0,1,1.25,1.24v1.25a1.18,1.18,0,0,1-1.25,1.24H410.48a1.17,1.17,0,0,1-1.24-1.24v-1.25A1.24,1.24,0,0,1,410.48,176.4Z" transform="translate(0)" fill="#d6dde6" fill-opacity="0.7"/><path d="M415,168.3h50.8c.64,0,1.06.5,1.06,1.25v1.24c0,.75-.42,1.25-1.06,1.25H415a1.1,1.1,0,0,1-1.06-1.25v-1.24A1.18,1.18,0,0,1,415,168.3Z" transform="translate(0)" fill="#d6dde6" fill-opacity="0.7"/><path d="M137.8,253.71h59.76a1.18,1.18,0,0,1,1.25,1.25v1.24a1.18,1.18,0,0,1-1.25,1.25H137.8a1.18,1.18,0,0,1-1.25-1.25V255A1.26,1.26,0,0,1,137.8,253.71Z" transform="translate(0)" fill="#d6dde6" fill-opacity="0.7"/><path d="M142.28,245.62h50.8c.64,0,1.06.5,1.06,1.25v1.24c0,.75-.42,1.25-1.06,1.25h-50.8a1.1,1.1,0,0,1-1.06-1.25v-1.24A1.17,1.17,0,0,1,142.28,245.62Z" transform="translate(0)" fill="#d6dde6" fill-opacity="0.7"/><path d="M228.75,253.71h59.76a1.18,1.18,0,0,1,1.25,1.25v1.24a1.18,1.18,0,0,1-1.25,1.25H228.75a1.18,1.18,0,0,1-1.25-1.25V255A1.26,1.26,0,0,1,228.75,253.71Z" transform="translate(0)" fill="#d6dde6" fill-opacity="0.7"/><path d="M233.23,245.62H284c.64,0,1.06.5,1.06,1.25v1.24c0,.75-.42,1.25-1.06,1.25h-50.8a1.1,1.1,0,0,1-1.06-1.25v-1.24A1.17,1.17,0,0,1,233.23,245.62Z" transform="translate(0)" fill="#d6dde6" fill-opacity="0.7"/><path d="M319.61,253.71h59.77a1.17,1.17,0,0,1,1.24,1.25v1.24a1.17,1.17,0,0,1-1.24,1.25H319.61a1.18,1.18,0,0,1-1.24-1.25V255A1.25,1.25,0,0,1,319.61,253.71Z" transform="translate(0)" fill="#d6dde6" fill-opacity="0.7"/><path d="M324.1,245.62h50.8c.63,0,1.05.5,1.05,1.25v1.24c0,.75-.42,1.25-1.05,1.25H324.1c-.64,0-1.06-.5-1.06-1.25v-1.24A1.17,1.17,0,0,1,324.1,245.62Z" transform="translate(0)" fill="#d6dde6" fill-opacity="0.7"/><path d="M410.48,253.71h59.76a1.18,1.18,0,0,1,1.25,1.25v1.24a1.18,1.18,0,0,1-1.25,1.25H410.48a1.17,1.17,0,0,1-1.24-1.25V255A1.25,1.25,0,0,1,410.48,253.71Z" transform="translate(0)" fill="#d6dde6" fill-opacity="0.7"/><path d="M415,245.62h50.8c.64,0,1.06.5,1.06,1.25v1.24c0,.75-.42,1.25-1.06,1.25H415a1.1,1.1,0,0,1-1.06-1.25v-1.24A1.17,1.17,0,0,1,415,245.62Z" transform="translate(0)" fill="#d6dde6" fill-opacity="0.7"/><path d="M137.8,331h59.76a1.18,1.18,0,0,1,1.25,1.25v1.24a1.18,1.18,0,0,1-1.25,1.25H137.8a1.18,1.18,0,0,1-1.25-1.25v-1.24A1.26,1.26,0,0,1,137.8,331Z" transform="translate(0)" fill="#d6dde6" fill-opacity="0.7"/><path d="M142.28,322.94h50.8c.64,0,1.06.5,1.06,1.25v1.24c0,.75-.42,1.25-1.06,1.25h-50.8a1.1,1.1,0,0,1-1.06-1.25v-1.24A1.17,1.17,0,0,1,142.28,322.94Z" transform="translate(0)" fill="#d6dde6" fill-opacity="0.7"/><path d="M228.75,331h59.76a1.18,1.18,0,0,1,1.25,1.25v1.24a1.18,1.18,0,0,1-1.25,1.25H228.75a1.18,1.18,0,0,1-1.25-1.25v-1.24A1.26,1.26,0,0,1,228.75,331Z" transform="translate(0)" fill="#d6dde6" fill-opacity="0.7"/><path d="M233.23,322.94H284c.64,0,1.06.5,1.06,1.25v1.24c0,.75-.42,1.25-1.06,1.25h-50.8a1.1,1.1,0,0,1-1.06-1.25v-1.24A1.17,1.17,0,0,1,233.23,322.94Z" transform="translate(0)" fill="#d6dde6" fill-opacity="0.7"/><path d="M319.61,331h59.77a1.17,1.17,0,0,1,1.24,1.25v1.24a1.17,1.17,0,0,1-1.24,1.25H319.61a1.18,1.18,0,0,1-1.24-1.25v-1.24A1.25,1.25,0,0,1,319.61,331Z" transform="translate(0)" fill="#d6dde6" fill-opacity="0.7"/><path d="M324.1,322.94h50.8c.63,0,1.05.5,1.05,1.25v1.24c0,.75-.42,1.25-1.05,1.25H324.1c-.64,0-1.06-.5-1.06-1.25v-1.24A1.17,1.17,0,0,1,324.1,322.94Z" transform="translate(0)" fill="#d6dde6" fill-opacity="0.7"/><path d="M410.48,331h59.76a1.18,1.18,0,0,1,1.25,1.25v1.24a1.18,1.18,0,0,1-1.25,1.25H410.48a1.17,1.17,0,0,1-1.24-1.25v-1.24A1.25,1.25,0,0,1,410.48,331Z" transform="translate(0)" fill="#d6dde6" fill-opacity="0.7"/><path d="M415,322.94h50.8c.64,0,1.06.5,1.06,1.25v1.24c0,.75-.42,1.25-1.06,1.25H415a1.1,1.1,0,0,1-1.06-1.25v-1.24A1.17,1.17,0,0,1,415,322.94Z" transform="translate(0)" fill="#d6dde6" fill-opacity="0.7"/><path d="M137.8,408.35h59.76a1.18,1.18,0,0,1,1.25,1.25v1.24a1.18,1.18,0,0,1-1.25,1.25H137.8a1.18,1.18,0,0,1-1.25-1.25V409.6A1.25,1.25,0,0,1,137.8,408.35Z" transform="translate(0)" fill="#d6dde6" fill-opacity="0.7"/><path d="M142.28,400.26h50.8a1.1,1.1,0,0,1,1.06,1.24v1.25c0,.75-.42,1.24-1.06,1.24h-50.8a1.1,1.1,0,0,1-1.06-1.24V401.5A1.17,1.17,0,0,1,142.28,400.26Z" transform="translate(0)" fill="#d6dde6" fill-opacity="0.7"/><path d="M228.75,408.35h59.76a1.18,1.18,0,0,1,1.25,1.25v1.24a1.18,1.18,0,0,1-1.25,1.25H228.75a1.18,1.18,0,0,1-1.25-1.25V409.6A1.25,1.25,0,0,1,228.75,408.35Z" transform="translate(0)" fill="#d6dde6" fill-opacity="0.7"/><path d="M233.23,400.26H284a1.1,1.1,0,0,1,1.06,1.24v1.25c0,.75-.42,1.24-1.06,1.24h-50.8a1.1,1.1,0,0,1-1.06-1.24V401.5A1.17,1.17,0,0,1,233.23,400.26Z" transform="translate(0)" fill="#d6dde6" fill-opacity="0.7"/><path d="M319.61,408.35h59.77a1.17,1.17,0,0,1,1.24,1.25v1.24a1.17,1.17,0,0,1-1.24,1.25H319.61a1.18,1.18,0,0,1-1.24-1.25V409.6A1.25,1.25,0,0,1,319.61,408.35Z" transform="translate(0)" fill="#d6dde6" fill-opacity="0.7"/><path d="M324.1,400.26h50.8A1.09,1.09,0,0,1,376,401.5v1.25c0,.75-.42,1.24-1.05,1.24H324.1c-.64,0-1.06-.49-1.06-1.24V401.5A1.16,1.16,0,0,1,324.1,400.26Z" transform="translate(0)" fill="#d6dde6" fill-opacity="0.7"/><path d="M410.48,408.35h59.76a1.18,1.18,0,0,1,1.25,1.25v1.24a1.18,1.18,0,0,1-1.25,1.25H410.48a1.17,1.17,0,0,1-1.24-1.25V409.6A1.24,1.24,0,0,1,410.48,408.35Z" transform="translate(0)" fill="#d6dde6" fill-opacity="0.7"/><path d="M415,400.26h50.8a1.1,1.1,0,0,1,1.06,1.24v1.25c0,.75-.42,1.24-1.06,1.24H415a1.1,1.1,0,0,1-1.06-1.24V401.5A1.17,1.17,0,0,1,415,400.26Z" transform="translate(0)" fill="#d6dde6" fill-opacity="0.7"/><path d="M178.11,444.72h-2.45V439a3.16,3.16,0,0,0-3.16-3.15H163a3.16,3.16,0,0,0-3.15,3.15v5.7h-2.61a6.94,6.94,0,0,0-6.92,6.92v12.91a7,7,0,0,0,6.92,6.92h20.86a6.94,6.94,0,0,0,6.92-6.92V451.64A6.94,6.94,0,0,0,178.11,444.72Z" transform="translate(0)" fill="#d6dde6"/><path d="M269.06,444.72h-2.45V439a3.16,3.16,0,0,0-3.16-3.15H254a3.16,3.16,0,0,0-3.15,3.15v5.7H248.2a6.94,6.94,0,0,0-6.92,6.92v12.91a7,7,0,0,0,6.92,6.92h20.86a7,7,0,0,0,6.92-6.92V451.64A6.94,6.94,0,0,0,269.06,444.72Z" transform="translate(0)" fill="#d6dde6"/><path d="M359.92,444.72h-2.45V439a3.16,3.16,0,0,0-3.15-3.15h-9.5a3.16,3.16,0,0,0-3.15,3.15v5.7h-2.6a6.94,6.94,0,0,0-6.92,6.92v12.91a6.94,6.94,0,0,0,6.92,6.92h20.85a7,7,0,0,0,6.93-6.92V451.64A6.94,6.94,0,0,0,359.92,444.72Z" transform="translate(0)" fill="#d6dde6"/><path d="M450.79,444.72h-2.45V439a3.16,3.16,0,0,0-3.15-3.15h-9.5a3.16,3.16,0,0,0-3.15,3.15v5.7h-2.61a6.94,6.94,0,0,0-6.92,6.92v12.91a7,7,0,0,0,6.92,6.92h20.86a6.94,6.94,0,0,0,6.92-6.92V451.64A6.94,6.94,0,0,0,450.79,444.72Z" transform="translate(0)" fill="#d6dde6"/><path d="M137.8,485.55h59.76a1.17,1.17,0,0,1,1.25,1.24V488a1.18,1.18,0,0,1-1.25,1.24H137.8a1.18,1.18,0,0,1-1.25-1.24v-1.25A1.25,1.25,0,0,1,137.8,485.55Z" transform="translate(0)" fill="#d6dde6" fill-opacity="0.7"/><path d="M142.28,477.45h50.8c.64,0,1.06.5,1.06,1.25v1.24c0,.75-.42,1.25-1.06,1.25h-50.8a1.1,1.1,0,0,1-1.06-1.25V478.7A1.18,1.18,0,0,1,142.28,477.45Z" transform="translate(0)" fill="#d6dde6" fill-opacity="0.7"/><path d="M228.75,485.55h59.76a1.17,1.17,0,0,1,1.25,1.24V488a1.18,1.18,0,0,1-1.25,1.24H228.75A1.18,1.18,0,0,1,227.5,488v-1.25A1.25,1.25,0,0,1,228.75,485.55Z" transform="translate(0)" fill="#d6dde6" fill-opacity="0.7"/><path d="M233.23,477.45H284c.64,0,1.06.5,1.06,1.25v1.24c0,.75-.42,1.25-1.06,1.25h-50.8a1.1,1.1,0,0,1-1.06-1.25V478.7A1.18,1.18,0,0,1,233.23,477.45Z" transform="translate(0)" fill="#d6dde6" fill-opacity="0.7"/><path d="M319.61,485.55h59.77a1.17,1.17,0,0,1,1.24,1.24V488a1.17,1.17,0,0,1-1.24,1.24H319.61a1.18,1.18,0,0,1-1.24-1.24v-1.25A1.25,1.25,0,0,1,319.61,485.55Z" transform="translate(0)" fill="#d6dde6" fill-opacity="0.7"/><path d="M324.1,477.45h50.8c.63,0,1.05.5,1.05,1.25v1.24c0,.75-.42,1.25-1.05,1.25H324.1c-.64,0-1.06-.5-1.06-1.25V478.7A1.17,1.17,0,0,1,324.1,477.45Z" transform="translate(0)" fill="#d6dde6" fill-opacity="0.7"/><path d="M410.48,485.55h59.76a1.17,1.17,0,0,1,1.25,1.24V488a1.18,1.18,0,0,1-1.25,1.24H410.48a1.17,1.17,0,0,1-1.24-1.24v-1.25A1.24,1.24,0,0,1,410.48,485.55Z" transform="translate(0)" fill="#d6dde6" fill-opacity="0.7"/><path d="M415,477.45h50.8c.64,0,1.06.5,1.06,1.25v1.24c0,.75-.42,1.25-1.06,1.25H415a1.1,1.1,0,0,1-1.06-1.25V478.7A1.18,1.18,0,0,1,415,477.45Z" transform="translate(0)" fill="#d6dde6" fill-opacity="0.7"/><rect x="126.13" y="80.54" width="356.71" height="23.16" rx="3.6" ry="3.6" fill="#ad2128" opacity="0.75" style="isolation:isolate"/><rect x="129.88" y="84.06" width="348.37" height="2.93" rx="1.47" ry="1.47" fill="#fff" opacity="0.5"/><rect x="129.88" y="90.39" width="348.37" height="2.93" rx="1.47" ry="1.47" fill="#fff" opacity="0.5"/><rect x="129.88" y="96.73" width="304.06" height="2.93" rx="1.39" ry="1.39" fill="#fff" opacity="0.5"/><rect width="500" height="13" fill="#ad2128" opacity="0.75"/><path d="M21.86,83.75h80c1,0,1.66.48,1.66,1.19v1.19c0,.72-.71,1.19-1.66,1.19h-80c-1,0-1.67-.47-1.67-1.19V84.94C20.19,84.35,20.9,83.75,21.86,83.75Z" transform="translate(0)" fill="#d6dde6"/><path d="M21.86,155.18h80c1,0,1.66.47,1.66,1.19v1.19c0,.71-.71,1.19-1.66,1.19h-80c-1,0-1.67-.48-1.67-1.19v-1.19C20.19,155.77,20.9,155.18,21.86,155.18Z" transform="translate(0)" fill="#d6dde6"/><path d="M21.38,68.27H78.52a1.12,1.12,0,0,1,1.19,1.19v1.19a1.13,1.13,0,0,1-1.19,1.2H21.38a1.13,1.13,0,0,1-1.19-1.2V69.46A1.2,1.2,0,0,1,21.38,68.27Z" transform="translate(0)" fill="#d6dde6"/><path d="M129.43,68.27H252.52c1.43,0,2.62.48,2.62,1.19v1.19c0,.72-1.19,1.2-2.62,1.2H129.43c-1.43,0-2.62-.48-2.62-1.2V69.46C126.93,68.87,128,68.27,129.43,68.27Z" transform="translate(0)" fill="#d6dde6"/><path d="M22.21,95.65H101.5c1.07,0,2,.48,2,1.2V98c0,.71-1,1.19-2,1.19H22.21c-1.07,0-2-.48-2-1.19V96.85C20.19,96.25,21.14,95.65,22.21,95.65Z" transform="translate(0)" fill="#d6dde6"/><path d="M21.62,107.56H102.1a1.26,1.26,0,0,1,1.42,1.19v1.19a1.26,1.26,0,0,1-1.42,1.19H21.62a1.27,1.27,0,0,1-1.43-1.19v-1.19A1.34,1.34,0,0,1,21.62,107.56Z" transform="translate(0)" fill="#d6dde6"/><path d="M22.33,119.46h78.93c1.19,0,2.14.48,2.14,1.19v1.2c0,.71-1,1.19-2.14,1.19H22.33c-1.19,0-2.14-.48-2.14-1.19v-1.2C20.19,120.06,21.14,119.46,22.33,119.46Z" transform="translate(0)" fill="#d6dde6"/><path d="M22,131.37h79.76c1,0,1.78.48,1.78,1.19v1.19c0,.71-.83,1.19-1.78,1.19H22c-1,0-1.79-.48-1.79-1.19v-1.19C20.19,132,21,131.37,22,131.37Z" transform="translate(0)" fill="#d6dde6"/><path d="M22.57,143.27h78.57c1.31,0,2.38.48,2.38,1.19v1.19c0,.72-1.07,1.2-2.38,1.2H22.57c-1.31,0-2.38-.48-2.38-1.2v-1.19C20.19,143.87,21.26,143.27,22.57,143.27Z" transform="translate(0)" fill="#d6dde6"/><path d="M279.24,24.64h30.95a1.13,1.13,0,0,1,1.19,1.19V27a1.12,1.12,0,0,1-1.19,1.19H279.24A1.12,1.12,0,0,1,278.05,27V25.83A1.19,1.19,0,0,1,279.24,24.64Z" transform="translate(0)" fill="#d6dde6"/><path d="M321.86,24.64h30.95A1.13,1.13,0,0,1,354,25.83V27a1.12,1.12,0,0,1-1.19,1.19H321.86A1.12,1.12,0,0,1,320.67,27V25.83A1.19,1.19,0,0,1,321.86,24.64Z" transform="translate(0)" fill="#d6dde6"/><path d="M364.36,24.64h30.95a1.13,1.13,0,0,1,1.19,1.19V27a1.12,1.12,0,0,1-1.19,1.19H364.36A1.12,1.12,0,0,1,363.17,27V25.83A1.28,1.28,0,0,1,364.36,24.64Z" transform="translate(0)" fill="#d6dde6"/><path d="M407,24.64h30.95a1.13,1.13,0,0,1,1.19,1.19V27a1.12,1.12,0,0,1-1.19,1.19H407A1.12,1.12,0,0,1,405.79,27V25.83A1.19,1.19,0,0,1,407,24.64Z" transform="translate(0)" fill="#d6dde6"/><path d="M451.34,24.64h31a1.13,1.13,0,0,1,1.19,1.19V27a1.12,1.12,0,0,1-1.19,1.19h-31A1.12,1.12,0,0,1,450.15,27V25.83A1.29,1.29,0,0,1,451.34,24.64Z" transform="translate(0)" fill="#ad2128" opacity="0.75" style="isolation:isolate"/><g id="1294d61f-069a-4c2d-8a0e-780434ba6f2a" data-name="Layer 10" opacity="0.85"><rect x="39.31" y="28.57" width="54.45" height="6.02" fill="#010101"/><path d="M39.08,18.35h4v.13a2,2,0,0,0-.66.15.83.83,0,0,0-.31.28.75.75,0,0,0-.12.41,2.19,2.19,0,0,0,0,.28c0,.08.08.25.19.53L44,25l1.77-4.29a4.29,4.29,0,0,0,.37-1.33,1.11,1.11,0,0,0-.08-.44.63.63,0,0,0-.2-.3.76.76,0,0,0-.26-.15,1.35,1.35,0,0,0-.37,0v-.13H48v.13a1.42,1.42,0,0,0-1.07.57,3.87,3.87,0,0,0-.32.53c-.1.23-.26.58-.46,1.05l-2.5,6h-.25l-2.43-6.24a6.5,6.5,0,0,0-.76-1.55,1.21,1.21,0,0,0-.45-.31,2.08,2.08,0,0,0-.65-.09v-.13Z" transform="translate(0)" fill="#010101"/><path d="M54.61,18.35l.11,2h-.15a2.65,2.65,0,0,0-.26-.86,1.76,1.76,0,0,0-.54-.59,1.73,1.73,0,0,0-.67-.31,5.65,5.65,0,0,0-1-.09h-1.4v3.65H51a2.91,2.91,0,0,0,.83-.08.87.87,0,0,0,.46-.26,1,1,0,0,0,.25-.42,3.38,3.38,0,0,0,.13-.7h.15l0,3.27h-.15a4.41,4.41,0,0,0-.15-.76,1.61,1.61,0,0,0-.3-.49,1.05,1.05,0,0,0-.48-.29,2.23,2.23,0,0,0-.74-.09h-.35v1.39c0,.56,0,1,0,1.22a2.06,2.06,0,0,0,.16.64,1.29,1.29,0,0,0,.64.64,2.67,2.67,0,0,0,1.12.2,3.55,3.55,0,0,0,1.22-.19,1.9,1.9,0,0,0,.81-.57,2,2,0,0,0,.36-.6,5.61,5.61,0,0,0,.25-.89h.15l-.08,2.43H48.06v-.14a2,2,0,0,0,.56-.09,1,1,0,0,0,.38-.26,1.11,1.11,0,0,0,.27-.49,4.19,4.19,0,0,0,.07-.93V20.26a5.16,5.16,0,0,0-.07-.93.91.91,0,0,0-.27-.49.87.87,0,0,0-.38-.25,2,2,0,0,0-.57-.1v-.14Z" transform="translate(0)" fill="#010101"/><path d="M58.45,22.6v2.15a5.08,5.08,0,0,0,.07.93,1,1,0,0,0,.26.5.9.9,0,0,0,.39.25,2,2,0,0,0,.57.1v.15H55.85v-.15a1.49,1.49,0,0,0,.57-.1.93.93,0,0,0,.38-.25,1,1,0,0,0,.27-.5,4.92,4.92,0,0,0,.07-.93V20.26a5,5,0,0,0-.07-.93.88.88,0,0,0-.27-.49.82.82,0,0,0-.38-.25,2,2,0,0,0-.57-.1v-.14h3.9a4.92,4.92,0,0,1,1.49.25,2,2,0,0,1,.93.73,1.91,1.91,0,0,1,.34,1.13A1.86,1.86,0,0,1,61.79,22a1.94,1.94,0,0,1-.48.28,5.1,5.1,0,0,1-.7.21,2.32,2.32,0,0,1,.54.32,1.42,1.42,0,0,1,.25.32,7.59,7.59,0,0,1,.35.68c.36.74.64,1.29.82,1.63a5.41,5.41,0,0,0,.47.75,1.11,1.11,0,0,0,.29.26.84.84,0,0,0,.4.09v.15h-2c-.11-.22-.17-.37-.2-.42l-.43-1a14.93,14.93,0,0,0-.77-1.55,3.17,3.17,0,0,0-.71-.9,1.19,1.19,0,0,0-.36-.17,1.53,1.53,0,0,0-.47-.06Zm0-.13h.23a5.17,5.17,0,0,0,1.07-.08,1.28,1.28,0,0,0,.62-.36A2,2,0,0,0,61,20.51a2.3,2.3,0,0,0-.18-.9,1.74,1.74,0,0,0-.52-.7,1.52,1.52,0,0,0-.61-.3,5.12,5.12,0,0,0-1-.08h-.25v3.94Z" transform="translate(0)" fill="#010101"/><path d="M67.22,18.53l-.82,0a4.38,4.38,0,0,0-1.4.24,1.67,1.67,0,0,0-.75.65,3.44,3.44,0,0,0-.43,1.16l-.14,0,.1-2.24H72l.11,2.24-.15,0a2.76,2.76,0,0,0-.51-1.29,1.91,1.91,0,0,0-1-.63,8.29,8.29,0,0,0-1.92-.16v6.22a5.28,5.28,0,0,0,.06.93,1,1,0,0,0,.26.5.87.87,0,0,0,.38.25,2,2,0,0,0,.56.09v.15h-3.9v-.15a2.14,2.14,0,0,0,.58-.09.87.87,0,0,0,.38-.25,1.34,1.34,0,0,0,.27-.5,4.34,4.34,0,0,0,.06-.93V18.53Z" transform="translate(0)" fill="#010101"/><path d="M76.39,18.35v.13a1.9,1.9,0,0,0-.55.09,1,1,0,0,0-.39.26,1.12,1.12,0,0,0-.29.67,5.66,5.66,0,0,0,0,.75v4.49a4.4,4.4,0,0,0,0,.8,1.08,1.08,0,0,0,.16.46,1,1,0,0,0,.41.36,1.75,1.75,0,0,0,.67.15v.14h-3.9v-.14a1.44,1.44,0,0,0,.57-.11,1,1,0,0,0,.39-.25,1.11,1.11,0,0,0,.27-.49,5.2,5.2,0,0,0,.06-.93V20.26a5.2,5.2,0,0,0-.06-.93,1,1,0,0,0-.27-.49.9.9,0,0,0-.39-.25,2,2,0,0,0-.57-.1v-.14Z" transform="translate(0)" fill="#010101"/><path d="M77.3,26.64V24.12h.15a5.43,5.43,0,0,0,.61,1.51,2,2,0,0,0,1.67,1,1.56,1.56,0,0,0,1.16-.46,1.67,1.67,0,0,0,.45-1.2,2,2,0,0,0-.11-.63A1.81,1.81,0,0,0,81,23.8a2,2,0,0,0-.49-.45,8.91,8.91,0,0,0-1-.56l-.89-.49a2.33,2.33,0,0,1-.49-.42,2,2,0,0,1-.52-1.39,2.48,2.48,0,0,1,.2-1,2.37,2.37,0,0,1,.57-.81,2.19,2.19,0,0,1,1.53-.6,2.22,2.22,0,0,1,.53.05,5.35,5.35,0,0,1,.66.23l.41.16a.65.65,0,0,0,.2,0c.14,0,.24-.11.29-.31h.15l0,2.42H82c-.11-.38-.2-.68-.28-.89a3,3,0,0,0-.28-.57,2.16,2.16,0,0,0-.65-.71,1.62,1.62,0,0,0-.82-.22,1.36,1.36,0,0,0-1.08.46,1.14,1.14,0,0,0-.25.46,1.32,1.32,0,0,0-.1.51q0,1,1.32,1.65l.86.41a4,4,0,0,1,1.44,1,2.36,2.36,0,0,1,.5,1.48,2.81,2.81,0,0,1-.22,1.07,2.48,2.48,0,0,1-1,1.11,2.87,2.87,0,0,1-1.49.38,4,4,0,0,1-1.51-.31c-.26-.1-.4-.17-.45-.18l-.16,0a.39.39,0,0,0-.4.29Z" transform="translate(0)" fill="#010101"/><path d="M87.36,18.35v.13a1.92,1.92,0,0,0-.56.09,1,1,0,0,0-.39.26,1.19,1.19,0,0,0-.29.67c0,.22,0,.47,0,.75v4.49a4.27,4.27,0,0,0,.06.8,1.08,1.08,0,0,0,.15.46,1,1,0,0,0,.42.36,1.65,1.65,0,0,0,.66.15v.14H83.48v-.14a1.48,1.48,0,0,0,.57-.11.93.93,0,0,0,.38-.25,1,1,0,0,0,.27-.49,5,5,0,0,0,.07-.93V20.26a5,5,0,0,0-.07-.93.88.88,0,0,0-.27-.49.82.82,0,0,0-.38-.25,2,2,0,0,0-.57-.1v-.14Z" transform="translate(0)" fill="#010101"/><path d="M88.25,26.64V24.12h.15A5.43,5.43,0,0,0,89,25.63a2,2,0,0,0,1.67,1,1.56,1.56,0,0,0,1.16-.46A1.63,1.63,0,0,0,92.3,25a2.3,2.3,0,0,0-.1-.63,2.08,2.08,0,0,0-.27-.56,2,2,0,0,0-.49-.45,8.06,8.06,0,0,0-1-.56l-.89-.49a2.33,2.33,0,0,1-.49-.42,2,2,0,0,1-.52-1.39,2.48,2.48,0,0,1,.2-1,2.4,2.4,0,0,1,.58-.81,2.15,2.15,0,0,1,1.52-.6,2.17,2.17,0,0,1,.53.05,5.35,5.35,0,0,1,.66.23l.41.16a.65.65,0,0,0,.2,0c.14,0,.24-.11.29-.31h.15l0,2.42H93c-.11-.38-.2-.68-.28-.89a3,3,0,0,0-.28-.57,2.16,2.16,0,0,0-.65-.71,1.62,1.62,0,0,0-.82-.22,1.37,1.37,0,0,0-1.08.46,1.14,1.14,0,0,0-.25.46,1.32,1.32,0,0,0-.1.51q0,1,1.32,1.65l.86.41a4,4,0,0,1,1.44,1,2.36,2.36,0,0,1,.5,1.48,2.81,2.81,0,0,1-.22,1.07,2.42,2.42,0,0,1-1,1.11,2.87,2.87,0,0,1-1.49.38,4,4,0,0,1-1.51-.31c-.25-.1-.4-.17-.45-.18l-.16,0a.39.39,0,0,0-.4.29Z" transform="translate(0)" fill="#010101"/><path d="M43.82,30l0,1.07h-.06a.36.36,0,0,0,0-.11,2.81,2.81,0,0,0-.13-.33,1.31,1.31,0,0,0-.27-.36,1.11,1.11,0,0,0-.27-.19.83.83,0,0,0-.32-.05.89.89,0,0,0-.47.12,1.08,1.08,0,0,0-.32.29,2.06,2.06,0,0,0-.24.44,2.13,2.13,0,0,0-.13.78,2.26,2.26,0,0,0,.09.67,1.5,1.5,0,0,0,.27.5,1,1,0,0,0,.86.38,1,1,0,0,0,.48-.1.67.67,0,0,0,.33-.26,1.28,1.28,0,0,0,.2-.53h.06a1.37,1.37,0,0,1-.2.6,1,1,0,0,1-.41.32,2,2,0,0,1-.62.1,1.86,1.86,0,0,1-.62-.09,1.46,1.46,0,0,1-.75-.56,1.78,1.78,0,0,1-.26-1,1.91,1.91,0,0,1,.16-.8,1.42,1.42,0,0,1,.44-.58,1.6,1.6,0,0,1,.52-.27,2,2,0,0,1,.59-.1,2.28,2.28,0,0,1,.61.1l.2.07.1,0s.06,0,.09-.06a.19.19,0,0,0,0-.08h0v0Z" transform="translate(0)" fill="#fff"/><path d="M45.75,30V30a.53.53,0,0,0-.23,0,.48.48,0,0,0-.14.09.49.49,0,0,0-.11.2,3,3,0,0,0,0,.41v1.35a3.84,3.84,0,0,0,0,.46.57.57,0,0,0,.11.27.67.67,0,0,0,.27.26.92.92,0,0,0,.43.08,1.17,1.17,0,0,0,.46-.08,1.07,1.07,0,0,0,.38-.21.5.5,0,0,0,.13-.19.52.52,0,0,0,.05-.23c0-.07,0-.22,0-.47V30.69a2.53,2.53,0,0,0,0-.35.27.27,0,0,0-.11-.19.31.31,0,0,0-.14-.09.72.72,0,0,0-.22,0V30h1.09V30a.41.41,0,0,0-.21,0,.42.42,0,0,0-.14.09.45.45,0,0,0-.11.19,2.53,2.53,0,0,0,0,.35v1.49a1.48,1.48,0,0,1,0,.49.93.93,0,0,1-.2.3,1.84,1.84,0,0,1-2,0,.79.79,0,0,1-.24-.48,3.35,3.35,0,0,1,0-.37V30.69a1.56,1.56,0,0,0,0-.35.29.29,0,0,0-.1-.19.34.34,0,0,0-.15-.09.62.62,0,0,0-.22,0V30h1.5v0Z" transform="translate(0)" fill="#fff"/><path d="M48.15,33.19l0-1h0a2.24,2.24,0,0,0,.24.59.76.76,0,0,0,.65.4.6.6,0,0,0,.45-.19.63.63,0,0,0,.17-.46.67.67,0,0,0,0-.24.74.74,0,0,0-.1-.22.64.64,0,0,0-.19-.17,3.55,3.55,0,0,0-.38-.21,3.29,3.29,0,0,1-.35-.19.62.62,0,0,1-.19-.16.88.88,0,0,1-.11-.91.87.87,0,0,1,.22-.31.82.82,0,0,1,.6-.23.94.94,0,0,1,.2,0,1,1,0,0,1,.25.09l.16.07h.08s.09,0,.11-.12h0V31h0c0-.15-.08-.27-.11-.35a.74.74,0,0,0-.1-.22.88.88,0,0,0-.26-.28.55.55,0,0,0-.31-.1.52.52,0,0,0-.42.19.59.59,0,0,0-.1.17.51.51,0,0,0,0,.2c0,.27.17.48.5.64l.33.16a1.5,1.5,0,0,1,.56.4.85.85,0,0,1,.2.57.82.82,0,0,1-.09.41.87.87,0,0,1-.37.43,1.1,1.1,0,0,1-.59.14,1.43,1.43,0,0,1-.58-.12c-.1,0-.16-.06-.17-.08h-.07a.16.16,0,0,0-.16.12h-.07v0Z" transform="translate(0)" fill="#fff"/><path d="M51.94,30a1.89,1.89,0,0,0-.32,0,1.66,1.66,0,0,0-.54.09.65.65,0,0,0-.3.25,1.79,1.79,0,0,0-.16.45h0l0-.87h3.2l0,.87H53.8a1.11,1.11,0,0,0-.2-.49.76.76,0,0,0-.4-.24,3.16,3.16,0,0,0-.74-.06v2.4a1.6,1.6,0,0,0,0,.36.35.35,0,0,0,.1.2.29.29,0,0,0,.15.09.6.6,0,0,0,.21,0v.06H51.44v-.06a.51.51,0,0,0,.22,0,.46.46,0,0,0,.15-.09.44.44,0,0,0,.1-.19,1.5,1.5,0,0,0,0-.35V30Z" transform="translate(0)" fill="#fff"/><path d="M54.21,31.61a1.55,1.55,0,0,1,.18-.73,1.85,1.85,0,0,1,.49-.6A2,2,0,0,1,55.4,30a1.56,1.56,0,0,1,.57-.11,1.71,1.71,0,0,1,.7.16,1.79,1.79,0,0,1,.6.46,1.55,1.55,0,0,1,.41,1.07,2,2,0,0,1-.1.59,1.62,1.62,0,0,1-.32.51,2.19,2.19,0,0,1-.6.46,1.84,1.84,0,0,1-.73.16,1.76,1.76,0,0,1-.72-.16,1.68,1.68,0,0,1-.89-1A1.52,1.52,0,0,1,54.21,31.61Zm.59,0a1.83,1.83,0,0,0,.37,1.16,1,1,0,0,0,.36.3.84.84,0,0,0,.44.1,1,1,0,0,0,.44-.1,1.17,1.17,0,0,0,.35-.3,1.79,1.79,0,0,0,.38-1.17,2.46,2.46,0,0,0-.11-.72,1.61,1.61,0,0,0-.29-.57.93.93,0,0,0-.33-.28A1.15,1.15,0,0,0,56,30a.87.87,0,0,0-.44.09,1.11,1.11,0,0,0-.35.28,1.8,1.8,0,0,0-.29.57A2.48,2.48,0,0,0,54.8,31.65Z" transform="translate(0)" fill="#fff"/><path d="M62.24,30a.41.41,0,0,0-.21,0,.29.29,0,0,0-.15.09.21.21,0,0,0-.08.11,1.55,1.55,0,0,0,0,.15,2.44,2.44,0,0,0,0,.29v1.74a2.93,2.93,0,0,0,0,.36.33.33,0,0,0,.11.18.54.54,0,0,0,.37.14v0H60.74v0a.67.67,0,0,0,.22,0,.56.56,0,0,0,.15-.1.55.55,0,0,0,.11-.2,2.74,2.74,0,0,0,0-.35V30.32L60,33.18H60l-1.21-2.82v2.08a2.74,2.74,0,0,0,0,.35.36.36,0,0,0,.11.19.29.29,0,0,0,.15.09.6.6,0,0,0,.21,0v.06H58.16v-.06a.41.41,0,0,0,.21,0,.38.38,0,0,0,.15-.09.55.55,0,0,0,.11-.2,2.93,2.93,0,0,0,0-.36V30.68a1.27,1.27,0,0,0,0-.2.89.89,0,0,0,0-.25.35.35,0,0,0-.16-.16.88.88,0,0,0-.28-.07V30h1l1,2.53L61.26,30h1V30Z" transform="translate(0)" fill="#fff"/><path d="M64.94,31.61v.85a2.93,2.93,0,0,0,0,.36.43.43,0,0,0,.11.2.29.29,0,0,0,.15.09.46.46,0,0,0,.22,0v.06H63.93v-.06a.48.48,0,0,0,.22,0A.38.38,0,0,0,64.3,33a.59.59,0,0,0,.11-.19,2.74,2.74,0,0,0,0-.35V30.73a2.73,2.73,0,0,0,0-.31.3.3,0,0,0-.07-.18.44.44,0,0,0-.16-.14A.53.53,0,0,0,64,30h0V30h1.42a2.39,2.39,0,0,1,.55,0,.94.94,0,0,1,.32.15.82.82,0,0,1,.33.67.68.68,0,0,1-.35.64.94.94,0,0,1-.42.12h-.85Zm0-.08h.22a1.11,1.11,0,0,0,.36,0,.49.49,0,0,0,.23-.13A.71.71,0,0,0,66,30.8a1,1,0,0,0-.06-.36.63.63,0,0,0-.19-.26.59.59,0,0,0-.34-.15h-.44Z" transform="translate(0)" fill="#fff"/><path d="M67.86,31.48h1.68v-.76a2.55,2.55,0,0,0,0-.36.25.25,0,0,0-.11-.18.45.45,0,0,0-.14-.1L69,30V30h1.52V30a.62.62,0,0,0-.22,0,.71.71,0,0,0-.14.1.49.49,0,0,0-.11.18,2.55,2.55,0,0,0,0,.36v1.74a2.55,2.55,0,0,0,0,.36.4.4,0,0,0,.25.29.51.51,0,0,0,.22,0v.06H69v-.06a.56.56,0,0,0,.23,0A.42.42,0,0,0,69.4,33a.45.45,0,0,0,.11-.19,2.38,2.38,0,0,0,0-.35V31.6H67.86v.88a2.38,2.38,0,0,0,0,.35.35.35,0,0,0,.1.2.49.49,0,0,0,.15.1.63.63,0,0,0,.23,0v0H66.85v0a.79.79,0,0,0,.23,0,.71.71,0,0,0,.14-.1.49.49,0,0,0,.11-.18,2.55,2.55,0,0,0,0-.36V30.75a2.55,2.55,0,0,0,0-.36.27.27,0,0,0-.11-.19.31.31,0,0,0-.14-.09.73.73,0,0,0-.23,0V30h1.52v.05a.46.46,0,0,0-.22,0,.67.67,0,0,0-.14.09.52.52,0,0,0-.11.19,2.93,2.93,0,0,0,0,.36v.73Z" transform="translate(0)" fill="#fff"/><path d="M74.19,33.21H72.65v-.06a1,1,0,0,0,.29-.06.31.31,0,0,0,.14-.26.9.9,0,0,0-.06-.26l0-.09-.23-.56h-1l-.12.33-.06.15a1.33,1.33,0,0,0-.1.41.34.34,0,0,0,0,.16.29.29,0,0,0,.1.12.85.85,0,0,0,.24.08v0H70.76v0A.41.41,0,0,0,71,33.1a.73.73,0,0,0,.19-.17,2.63,2.63,0,0,0,.15-.26c.05-.1.1-.25.18-.45L72.37,30h.13l1,2.49a3.61,3.61,0,0,0,.19.39.49.49,0,0,0,.15.19l.13.07.22,0v0Zm-1.48-1.4-.49-1.22-.46,1.22Z" transform="translate(0)" fill="#fff"/><path d="M75.4,31.62v.84a2.93,2.93,0,0,0,0,.36.43.43,0,0,0,.11.2.29.29,0,0,0,.15.09.46.46,0,0,0,.22,0v.06H74.39v-.06a.48.48,0,0,0,.22,0,.38.38,0,0,0,.15-.09.59.59,0,0,0,.11-.19,2.74,2.74,0,0,0,0-.35V30.73a2.87,2.87,0,0,0,0-.35.36.36,0,0,0-.11-.19.29.29,0,0,0-.15-.09.62.62,0,0,0-.22,0V30H75.9a1.89,1.89,0,0,1,.57.1.74.74,0,0,1,.36.28.76.76,0,0,1,.14.43.74.74,0,0,1-.28.59,1.18,1.18,0,0,1-.19.11l-.28.08a.68.68,0,0,1,.21.11.58.58,0,0,1,.1.12c0,.06.08.14.13.27l.32.64a2.61,2.61,0,0,0,.18.29.6.6,0,0,0,.12.11l.15,0v0h-.78a1,1,0,0,0-.08-.16l-.16-.37a4.17,4.17,0,0,0-.31-.6,1.49,1.49,0,0,0-.28-.36l-.13-.07-.19,0h-.1v0Zm0-.05h.09l.43,0a.71.71,0,0,0,.23-.14.82.82,0,0,0,.26-.58,1,1,0,0,0-.07-.35.75.75,0,0,0-.2-.26.41.41,0,0,0-.24-.11,1.35,1.35,0,0,0-.38,0h-.1v1.49Z" transform="translate(0)" fill="#fff"/><path d="M81.72,30a.41.41,0,0,0-.21,0,.34.34,0,0,0-.15.09.28.28,0,0,0-.08.11s0,.09,0,.15a2.44,2.44,0,0,0,0,.29v1.74a1.6,1.6,0,0,0,0,.36.27.27,0,0,0,.1.18.59.59,0,0,0,.38.14v0H80.22v0a.79.79,0,0,0,.23,0,.71.71,0,0,0,.14-.1.43.43,0,0,0,.11-.2,2.38,2.38,0,0,0,0-.35V30.32L79.5,33.18h0l-1.21-2.82v2.08a1.5,1.5,0,0,0,0,.35.29.29,0,0,0,.1.19.34.34,0,0,0,.15.09.6.6,0,0,0,.21,0v.06H77.64v-.06a.46.46,0,0,0,.22,0A.42.42,0,0,0,78,33a.43.43,0,0,0,.11-.2,2.93,2.93,0,0,0,0-.36V30.68a1.27,1.27,0,0,0,0-.2.63.63,0,0,0-.05-.25.31.31,0,0,0-.16-.16.88.88,0,0,0-.28-.07V30h1l1,2.53L80.74,30h1V30Z" transform="translate(0)" fill="#fff"/><path d="M85.36,33.21H83.81v-.06a.92.92,0,0,0,.29-.06.3.3,0,0,0,.15-.26,1,1,0,0,0-.07-.26l0-.09-.22-.56h-1l-.12.33-.05.15a1.14,1.14,0,0,0-.11.41.34.34,0,0,0,0,.16.43.43,0,0,0,.11.12.67.67,0,0,0,.24.08v0H81.92v0a.48.48,0,0,0,.23-.07.7.7,0,0,0,.18-.17,1,1,0,0,0,.15-.26c0-.1.11-.25.19-.45L83.53,30h.13l1,2.49a4.06,4.06,0,0,0,.18.39.6.6,0,0,0,.15.19l.13.07.23,0v0Zm-1.48-1.4-.5-1.22-.46,1.22Z" transform="translate(0)" fill="#fff"/><path d="M88.46,30l0,1.07h-.06a.36.36,0,0,0,0-.11,2.81,2.81,0,0,0-.13-.33,1.1,1.1,0,0,0-.26-.36,1.39,1.39,0,0,0-.28-.19A.83.83,0,0,0,87.4,30a.94.94,0,0,0-.47.12,1.08,1.08,0,0,0-.32.29,2.06,2.06,0,0,0-.24.44,2.13,2.13,0,0,0-.13.78,2.26,2.26,0,0,0,.09.67,1.5,1.5,0,0,0,.27.5,1.06,1.06,0,0,0,.86.38,1,1,0,0,0,.48-.1.69.69,0,0,0,.34-.26,1.43,1.43,0,0,0,.19-.53h.06a1.37,1.37,0,0,1-.2.6,1,1,0,0,1-.41.32,1.53,1.53,0,0,1-.62.1,1.86,1.86,0,0,1-.62-.09,1.39,1.39,0,0,1-.74-.56,1.7,1.7,0,0,1-.27-1,1.91,1.91,0,0,1,.16-.8,1.52,1.52,0,0,1,.44-.58,1.6,1.6,0,0,1,.52-.27,2.09,2.09,0,0,1,.59-.1A2.42,2.42,0,0,1,88,30l.2.07s.06,0,.09,0,.06,0,.09-.06a.19.19,0,0,0,0-.08h0Z" transform="translate(0)" fill="#fff"/><path d="M89.68,33.21v-.06a.53.53,0,0,0,.23,0,.46.46,0,0,0,.15-.09.34.34,0,0,0,.09-.19,2.38,2.38,0,0,0,0-.35V32a1.24,1.24,0,0,0,0-.23,1.52,1.52,0,0,0-.19-.34l-.61-.92-.11-.16a.68.68,0,0,0-.24-.24l-.12-.05h-.16V30h1.55v.06a.62.62,0,0,0-.26,0,.2.2,0,0,0-.13.2.27.27,0,0,0,0,.12,1,1,0,0,0,.09.17l.64,1,.54-.86.07-.09a.58.58,0,0,0,.09-.26.28.28,0,0,0-.09-.24.4.4,0,0,0-.27-.08V30h1.09v.06a.6.6,0,0,0-.18,0,.37.37,0,0,0-.14.09,3.39,3.39,0,0,0-.35.45l-.55.83a.68.68,0,0,0-.12.21.88.88,0,0,0,0,.22v.59a2.28,2.28,0,0,0,0,.36.27.27,0,0,0,.11.18.46.46,0,0,0,.37.14v0H89.68Z" transform="translate(0)" fill="#fff"/><text transform="translate(93.72 19.66)" font-size="2.22" fill="#010101" font-family="BaskOldFace, Baskerville Old Face" style="isolation:isolate">®</text></g><g id="f96bf9f4-fa82-449d-86db-e5dadbb44ecf" data-name="Layer 8" opacity="0.75"><polygon points="29.68 35.39 35.9 20.98 36.99 30.19 29.68 35.39" fill="#ad2128"/><polygon points="27.5 35.39 21.28 20.98 20.19 30.19 27.5 35.39" fill="#ad2128"/><polygon points="28.59 22.79 22.4 18.36 28.59 32.78 34.78 18.36 28.59 22.79" fill="#ad2128"/></g></g></svg>