<svg xmlns="http://www.w3.org/2000/svg" viewBox="0 0 500 500"><title>vertisis-square</title><g id="17c76266-737d-4727-8a03-405047defe1e" data-name="Layer 1"><rect x="133.33" y="121.25" width="79.62" height="66.07" fill="#f5f6f8"/><rect x="220.22" y="121.25" width="79.62" height="66.07" fill="#f5f6f8"/><rect x="307.1" y="121.25" width="79.62" height="66.07" fill="#f5f6f8"/><rect x="393.98" y="121.25" width="79.62" height="66.07" fill="#f5f6f8"/><rect x="133.33" y="195.06" width="79.62" height="66.07" fill="#f5f6f8"/><rect x="220.22" y="195.06" width="79.62" height="66.07" fill="#f5f6f8"/><rect x="307.1" y="195.06" width="79.62" height="66.07" fill="#f5f6f8"/><rect x="393.98" y="195.06" width="79.62" height="66.07" fill="#f5f6f8"/><rect x="133.33" y="268.87" width="79.62" height="66.07" fill="#f5f6f8"/><rect x="220.22" y="268.87" width="79.62" height="66.07" fill="#f5f6f8"/><rect x="307.1" y="268.87" width="79.62" height="66.07" fill="#f5f6f8"/><rect x="393.98" y="268.87" width="79.62" height="66.07" fill="#f5f6f8"/><rect x="133.33" y="342.68" width="79.62" height="66.07" fill="#f5f6f8"/><rect x="220.22" y="342.68" width="79.62" height="66.07" fill="#f5f6f8"/><rect x="307.1" y="342.68" width="79.62" height="66.07" fill="#f5f6f8"/><rect x="393.98" y="342.68" width="79.62" height="66.07" fill="#f5f6f8"/><path d="M183,136.26h-2.35v-5.45a3,3,0,0,0-3-3H168.6a3,3,0,0,0-3,3v5.45H163.1a6.64,6.64,0,0,0-6.62,6.62v12.34a6.64,6.64,0,0,0,6.62,6.62H183a6.64,6.64,0,0,0,6.62-6.62V142.88A6.64,6.64,0,0,0,183,136.26Z" fill="#e3e7ed"/><path d="M270,136.26h-2.35v-5.45a3,3,0,0,0-3-3h-9.08a3,3,0,0,0-3,3v5.45h-2.49a6.64,6.64,0,0,0-6.62,6.62v12.34a6.64,6.64,0,0,0,6.62,6.62H270a6.64,6.64,0,0,0,6.62-6.62V142.88A6.64,6.64,0,0,0,270,136.26Z" fill="#e3e7ed"/><path d="M356.88,136.26h-2.35v-5.45a3,3,0,0,0-3-3h-9.08a3,3,0,0,0-3,3v5.45h-2.49a6.64,6.64,0,0,0-6.62,6.62v12.34a6.64,6.64,0,0,0,6.62,6.62h19.94a6.64,6.64,0,0,0,6.62-6.62V142.88A6.64,6.64,0,0,0,356.88,136.26Z" fill="#e3e7ed"/><path d="M443.76,136.26h-2.35v-5.45a3,3,0,0,0-3-3h-9.08a3,3,0,0,0-3,3v5.45h-2.49a6.64,6.64,0,0,0-6.62,6.62v12.34a6.64,6.64,0,0,0,6.62,6.62h19.94a6.64,6.64,0,0,0,6.62-6.62V142.88A6.64,6.64,0,0,0,443.76,136.26Z" fill="#e3e7ed"/><path d="M183,210.47h-2.35V205a3,3,0,0,0-3-3H168.6a3,3,0,0,0-3,3v5.45H163.1a6.64,6.64,0,0,0-6.62,6.62v12.34A6.64,6.64,0,0,0,163.1,236H183a6.64,6.64,0,0,0,6.62-6.62V217.08A6.64,6.64,0,0,0,183,210.47Z" fill="#e3e7ed"/><path d="M270,210.47h-2.35V205a3,3,0,0,0-3-3h-9.08a3,3,0,0,0-3,3v5.45h-2.49a6.64,6.64,0,0,0-6.62,6.62v12.34a6.64,6.64,0,0,0,6.62,6.62H270a6.64,6.64,0,0,0,6.62-6.62V217.08A6.64,6.64,0,0,0,270,210.47Z" fill="#e3e7ed"/><path d="M356.88,210.47h-2.35V205a3,3,0,0,0-3-3h-9.08a3,3,0,0,0-3,3v5.45h-2.49a6.64,6.64,0,0,0-6.62,6.62v12.34a6.64,6.64,0,0,0,6.62,6.62h19.94a6.64,6.64,0,0,0,6.62-6.62V217.08A6.64,6.64,0,0,0,356.88,210.47Z" fill="#e3e7ed"/><path d="M443.76,210.47h-2.35V205a3,3,0,0,0-3-3h-9.08a3,3,0,0,0-3,3v5.45h-2.49a6.64,6.64,0,0,0-6.62,6.62v12.34a6.64,6.64,0,0,0,6.62,6.62h19.94a6.64,6.64,0,0,0,6.62-6.62V217.08A6.64,6.64,0,0,0,443.76,210.47Z" fill="#e3e7ed"/><path d="M183,285.07h-2.35v-5.45a3,3,0,0,0-3-3H168.6a3,3,0,0,0-3,3v5.45H163.1a6.64,6.64,0,0,0-6.62,6.62V304a6.64,6.64,0,0,0,6.62,6.62H183a6.64,6.64,0,0,0,6.62-6.62V291.69A6.64,6.64,0,0,0,183,285.07Z" fill="#e3e7ed"/><path d="M270,285.07h-2.35v-5.45a3,3,0,0,0-3-3h-9.08a3,3,0,0,0-3,3v5.45h-2.49a6.64,6.64,0,0,0-6.62,6.62V304a6.64,6.64,0,0,0,6.62,6.62H270a6.64,6.64,0,0,0,6.62-6.62V291.69A6.64,6.64,0,0,0,270,285.07Z" fill="#e3e7ed"/><path d="M356.88,285.07h-2.35v-5.45a3,3,0,0,0-3-3h-9.08a3,3,0,0,0-3,3v5.45h-2.49a6.64,6.64,0,0,0-6.62,6.62V304a6.64,6.64,0,0,0,6.62,6.62h19.94A6.64,6.64,0,0,0,363.5,304V291.69A6.64,6.64,0,0,0,356.88,285.07Z" fill="#e3e7ed"/><path d="M443.76,285.07h-2.35v-5.45a3,3,0,0,0-3-3h-9.08a3,3,0,0,0-3,3v5.45h-2.49a6.64,6.64,0,0,0-6.62,6.62V304a6.64,6.64,0,0,0,6.62,6.62h19.94a6.64,6.64,0,0,0,6.62-6.62V291.69A6.64,6.64,0,0,0,443.76,285.07Z" fill="#e3e7ed"/><path d="M183,358.76h-2.35v-5.45a3,3,0,0,0-3-3H168.6a3,3,0,0,0-3,3v5.45H163.1a6.64,6.64,0,0,0-6.62,6.62v12.34a6.64,6.64,0,0,0,6.62,6.62H183a6.64,6.64,0,0,0,6.62-6.62V365.38A6.64,6.64,0,0,0,183,358.76Z" fill="#e3e7ed"/><path d="M270,358.76h-2.35v-5.45a3,3,0,0,0-3-3h-9.08a3,3,0,0,0-3,3v5.45h-2.49a6.64,6.64,0,0,0-6.62,6.62v12.34a6.64,6.64,0,0,0,6.62,6.62H270a6.64,6.64,0,0,0,6.62-6.62V365.38A6.64,6.64,0,0,0,270,358.76Z" fill="#e3e7ed"/><path d="M356.88,358.76h-2.35v-5.45a3,3,0,0,0-3-3h-9.08a3,3,0,0,0-3,3v5.45h-2.49a6.64,6.64,0,0,0-6.62,6.62v12.34a6.64,6.64,0,0,0,6.62,6.62h19.94a6.64,6.64,0,0,0,6.62-6.62V365.38A6.64,6.64,0,0,0,356.88,358.76Z" fill="#e3e7ed"/><path d="M443.76,358.76h-2.35v-5.45a3,3,0,0,0-3-3h-9.08a3,3,0,0,0-3,3v5.45h-2.49a6.64,6.64,0,0,0-6.62,6.62v12.34a6.64,6.64,0,0,0,6.62,6.62h19.94a6.64,6.64,0,0,0,6.62-6.62V365.38A6.64,6.64,0,0,0,443.76,358.76Z" fill="#e3e7ed"/><path d="M27.86,83.75h80c1,0,1.67.48,1.67,1.19v1.19c0,.71-.71,1.19-1.67,1.19h-80c-1,0-1.67-.48-1.67-1.19V84.94C26.19,84.35,26.9,83.75,27.86,83.75Z" fill="#f5f6f8"/><path d="M135.12,76.61h57.14a1.12,1.12,0,0,1,1.19,1.19V79a1.12,1.12,0,0,1-1.19,1.19H135.12A1.12,1.12,0,0,1,133.93,79V77.8A1.19,1.19,0,0,1,135.12,76.61Z" fill="#f5f6f8"/><path d="M27.86,155.18h80c1,0,1.67.48,1.67,1.19v1.19c0,.71-.71,1.19-1.67,1.19h-80c-1,0-1.67-.48-1.67-1.19v-1.19C26.19,155.77,26.9,155.18,27.86,155.18Z" fill="#f5f6f8"/><path d="M27.38,68.27H84.52a1.12,1.12,0,0,1,1.19,1.19v1.19a1.12,1.12,0,0,1-1.19,1.19H27.38a1.12,1.12,0,0,1-1.19-1.19V69.46A1.19,1.19,0,0,1,27.38,68.27Z" fill="#d6dde6" fill-opacity="0.7"/><path d="M136.43,68.27h123.1c1.43,0,2.62.48,2.62,1.19v1.19c0,.71-1.19,1.19-2.62,1.19H136.43c-1.43,0-2.62-.48-2.62-1.19V69.46C133.93,68.87,135,68.27,136.43,68.27Z" fill="#d6dde6" fill-opacity="0.7"/><path d="M27.86,166.73h80c1,0,1.67,1.55,1.67,3.33v3.33c0,1.79-.71,3.33-1.67,3.33h-80c-1,0-1.67-1.55-1.67-3.33v-3.33C26.19,168.15,26.9,166.73,27.86,166.73Z" fill="#af1f23" opacity="0.75" style="isolation:isolate"/><path d="M28.21,95.65H107.5c1.07,0,2,.48,2,1.19V98c0,.71-1,1.19-2,1.19H28.21c-1.07,0-2-.48-2-1.19V96.85C26.19,96.25,27.14,95.65,28.21,95.65Z" fill="#f5f6f8"/><path d="M27.62,107.56H108.1c.83,0,1.43.48,1.43,1.19v1.19c0,.71-.6,1.19-1.43,1.19H27.62c-.83,0-1.43-.48-1.43-1.19v-1.19A1.34,1.34,0,0,1,27.62,107.56Z" fill="#f5f6f8"/><path d="M28.33,119.46h78.93c1.19,0,2.14.48,2.14,1.19v1.19c0,.71-1,1.19-2.14,1.19H28.33c-1.19,0-2.14-.48-2.14-1.19v-1.19C26.19,120.06,27.14,119.46,28.33,119.46Z" fill="#f5f6f8"/><path d="M28,131.37h79.76c1,0,1.79.48,1.79,1.19v1.19c0,.71-.83,1.19-1.79,1.19H28c-1,0-1.79-.48-1.79-1.19v-1.19C26.19,132,27,131.37,28,131.37Z" fill="#f5f6f8"/><path d="M28.57,143.27h78.57c1.31,0,2.38.48,2.38,1.19v1.19c0,.71-1.07,1.19-2.38,1.19H28.57c-1.31,0-2.38-.48-2.38-1.19v-1.19C26.19,143.87,27.26,143.27,28.57,143.27Z" fill="#f5f6f8"/><path d="M144.49,176h57.14a1.12,1.12,0,0,1,1.19,1.19v1.19a1.12,1.12,0,0,1-1.19,1.19H144.49a1.12,1.12,0,0,1-1.19-1.19V177.2A1.19,1.19,0,0,1,144.49,176Z" fill="#d6dde6" fill-opacity="0.7"/><path d="M148.78,168.27h48.57a1,1,0,0,1,1,1.19v1.19a1,1,0,0,1-1,1.19H148.78a1,1,0,0,1-1-1.19v-1.19A1.12,1.12,0,0,1,148.78,168.27Z" fill="#d6dde6" fill-opacity="0.7"/><path d="M231.46,176H288.6a1.12,1.12,0,0,1,1.19,1.19v1.19a1.12,1.12,0,0,1-1.19,1.19H231.46a1.12,1.12,0,0,1-1.19-1.19V177.2A1.19,1.19,0,0,1,231.46,176Z" fill="#d6dde6" fill-opacity="0.7"/><path d="M235.74,168.27h48.57a1,1,0,0,1,1,1.19v1.19a1,1,0,0,1-1,1.19H235.74a1,1,0,0,1-1-1.19v-1.19A1.12,1.12,0,0,1,235.74,168.27Z" fill="#d6dde6" fill-opacity="0.7"/><path d="M318.34,176h57.14a1.12,1.12,0,0,1,1.19,1.19v1.19a1.12,1.12,0,0,1-1.19,1.19H318.34a1.12,1.12,0,0,1-1.19-1.19V177.2A1.19,1.19,0,0,1,318.34,176Z" fill="#d6dde6" fill-opacity="0.7"/><path d="M322.62,168.27H371.2a1,1,0,0,1,1,1.19v1.19a1,1,0,0,1-1,1.19H322.62a1,1,0,0,1-1-1.19v-1.19A1.12,1.12,0,0,1,322.62,168.27Z" fill="#d6dde6" fill-opacity="0.7"/><path d="M405.22,176h57.14a1.12,1.12,0,0,1,1.19,1.19v1.19a1.12,1.12,0,0,1-1.19,1.19H405.22a1.12,1.12,0,0,1-1.19-1.19V177.2A1.19,1.19,0,0,1,405.22,176Z" fill="#d6dde6" fill-opacity="0.7"/><path d="M409.51,168.27h48.57a1,1,0,0,1,1,1.19v1.19a1,1,0,0,1-1,1.19H409.51a1,1,0,0,1-1-1.19v-1.19A1.12,1.12,0,0,1,409.51,168.27Z" fill="#d6dde6" fill-opacity="0.7"/><path d="M144.49,249.94h57.14a1.12,1.12,0,0,1,1.19,1.19v1.19a1.12,1.12,0,0,1-1.19,1.19H144.49a1.12,1.12,0,0,1-1.19-1.19v-1.19A1.19,1.19,0,0,1,144.49,249.94Z" fill="#d6dde6" fill-opacity="0.7"/><path d="M148.78,242.2h48.57a1,1,0,0,1,1,1.19v1.19a1,1,0,0,1-1,1.19H148.78a1,1,0,0,1-1-1.19v-1.19A1.12,1.12,0,0,1,148.78,242.2Z" fill="#d6dde6" fill-opacity="0.7"/><path d="M231.46,249.94H288.6a1.12,1.12,0,0,1,1.19,1.19v1.19a1.12,1.12,0,0,1-1.19,1.19H231.46a1.12,1.12,0,0,1-1.19-1.19v-1.19A1.19,1.19,0,0,1,231.46,249.94Z" fill="#d6dde6" fill-opacity="0.7"/><path d="M235.74,242.2h48.57a1,1,0,0,1,1,1.19v1.19a1,1,0,0,1-1,1.19H235.74a1,1,0,0,1-1-1.19v-1.19A1.12,1.12,0,0,1,235.74,242.2Z" fill="#d6dde6" fill-opacity="0.7"/><path d="M318.34,249.94h57.14a1.12,1.12,0,0,1,1.19,1.19v1.19a1.12,1.12,0,0,1-1.19,1.19H318.34a1.12,1.12,0,0,1-1.19-1.19v-1.19A1.19,1.19,0,0,1,318.34,249.94Z" fill="#d6dde6" fill-opacity="0.7"/><path d="M322.62,242.2H371.2a1,1,0,0,1,1,1.19v1.19a1,1,0,0,1-1,1.19H322.62a1,1,0,0,1-1-1.19v-1.19A1.12,1.12,0,0,1,322.62,242.2Z" fill="#d6dde6" fill-opacity="0.7"/><path d="M405.22,249.94h57.14a1.12,1.12,0,0,1,1.19,1.19v1.19a1.12,1.12,0,0,1-1.19,1.19H405.22a1.12,1.12,0,0,1-1.19-1.19v-1.19A1.19,1.19,0,0,1,405.22,249.94Z" fill="#d6dde6" fill-opacity="0.7"/><path d="M409.51,242.2h48.57a1,1,0,0,1,1,1.19v1.19a1,1,0,0,1-1,1.19H409.51a1,1,0,0,1-1-1.19v-1.19A1.12,1.12,0,0,1,409.51,242.2Z" fill="#d6dde6" fill-opacity="0.7"/><path d="M144.49,323.87h57.14a1.12,1.12,0,0,1,1.19,1.19v1.19a1.12,1.12,0,0,1-1.19,1.19H144.49a1.12,1.12,0,0,1-1.19-1.19v-1.19A1.19,1.19,0,0,1,144.49,323.87Z" fill="#d6dde6" fill-opacity="0.7"/><path d="M148.78,316.13h48.57a1,1,0,0,1,1,1.19v1.19a1,1,0,0,1-1,1.19H148.78a1,1,0,0,1-1-1.19v-1.19A1.12,1.12,0,0,1,148.78,316.13Z" fill="#d6dde6" fill-opacity="0.7"/><path d="M231.46,323.87H288.6a1.12,1.12,0,0,1,1.19,1.19v1.19a1.12,1.12,0,0,1-1.19,1.19H231.46a1.12,1.12,0,0,1-1.19-1.19v-1.19A1.19,1.19,0,0,1,231.46,323.87Z" fill="#d6dde6" fill-opacity="0.7"/><path d="M235.74,316.13h48.57a1,1,0,0,1,1,1.19v1.19a1,1,0,0,1-1,1.19H235.74a1,1,0,0,1-1-1.19v-1.19A1.12,1.12,0,0,1,235.74,316.13Z" fill="#d6dde6" fill-opacity="0.7"/><path d="M318.34,323.87h57.14a1.12,1.12,0,0,1,1.19,1.19v1.19a1.12,1.12,0,0,1-1.19,1.19H318.34a1.12,1.12,0,0,1-1.19-1.19v-1.19A1.19,1.19,0,0,1,318.34,323.87Z" fill="#d6dde6" fill-opacity="0.7"/><path d="M322.62,316.13H371.2a1,1,0,0,1,1,1.19v1.19a1,1,0,0,1-1,1.19H322.62a1,1,0,0,1-1-1.19v-1.19A1.12,1.12,0,0,1,322.62,316.13Z" fill="#d6dde6" fill-opacity="0.7"/><path d="M405.22,323.87h57.14a1.12,1.12,0,0,1,1.19,1.19v1.19a1.12,1.12,0,0,1-1.19,1.19H405.22a1.12,1.12,0,0,1-1.19-1.19v-1.19A1.19,1.19,0,0,1,405.22,323.87Z" fill="#d6dde6" fill-opacity="0.7"/><path d="M409.51,316.13h48.57a1,1,0,0,1,1,1.19v1.19a1,1,0,0,1-1,1.19H409.51a1,1,0,0,1-1-1.19v-1.19A1.12,1.12,0,0,1,409.51,316.13Z" fill="#d6dde6" fill-opacity="0.7"/><path d="M144.49,397.8h57.14a1.12,1.12,0,0,1,1.19,1.19v1.19a1.12,1.12,0,0,1-1.19,1.19H144.49a1.12,1.12,0,0,1-1.19-1.19V399A1.19,1.19,0,0,1,144.49,397.8Z" fill="#d6dde6" fill-opacity="0.7"/><path d="M148.78,390.06h48.57a1,1,0,0,1,1,1.19v1.19a1,1,0,0,1-1,1.19H148.78a1,1,0,0,1-1-1.19v-1.19A1.12,1.12,0,0,1,148.78,390.06Z" fill="#d6dde6" fill-opacity="0.7"/><path d="M231.46,397.8H288.6a1.12,1.12,0,0,1,1.19,1.19v1.19a1.12,1.12,0,0,1-1.19,1.19H231.46a1.12,1.12,0,0,1-1.19-1.19V399A1.19,1.19,0,0,1,231.46,397.8Z" fill="#d6dde6" fill-opacity="0.7"/><path d="M235.74,390.06h48.57a1,1,0,0,1,1,1.19v1.19a1,1,0,0,1-1,1.19H235.74a1,1,0,0,1-1-1.19v-1.19A1.12,1.12,0,0,1,235.74,390.06Z" fill="#d6dde6" fill-opacity="0.7"/><path d="M318.34,397.8h57.14a1.12,1.12,0,0,1,1.19,1.19v1.19a1.12,1.12,0,0,1-1.19,1.19H318.34a1.12,1.12,0,0,1-1.19-1.19V399A1.19,1.19,0,0,1,318.34,397.8Z" fill="#d6dde6" fill-opacity="0.7"/><path d="M322.62,390.06H371.2a1,1,0,0,1,1,1.19v1.19a1,1,0,0,1-1,1.19H322.62a1,1,0,0,1-1-1.19v-1.19A1.12,1.12,0,0,1,322.62,390.06Z" fill="#d6dde6" fill-opacity="0.7"/><path d="M405.22,397.8h57.14a1.12,1.12,0,0,1,1.19,1.19v1.19a1.12,1.12,0,0,1-1.19,1.19H405.22a1.12,1.12,0,0,1-1.19-1.19V399A1.19,1.19,0,0,1,405.22,397.8Z" fill="#d6dde6" fill-opacity="0.7"/><path d="M409.51,390.06h48.57a1,1,0,0,1,1,1.19v1.19a1,1,0,0,1-1,1.19H409.51a1,1,0,0,1-1-1.19v-1.19A1.12,1.12,0,0,1,409.51,390.06Z" fill="#d6dde6" fill-opacity="0.7"/><rect x="133.33" y="416.49" width="79.62" height="66.07" fill="#f5f6f8"/><rect x="220.22" y="416.49" width="79.62" height="66.07" fill="#f5f6f8"/><rect x="307.1" y="416.49" width="79.62" height="66.07" fill="#f5f6f8"/><rect x="393.98" y="416.49" width="79.62" height="66.07" fill="#f5f6f8"/><path d="M183,432.57h-2.35v-5.45a3,3,0,0,0-3-3H168.6a3,3,0,0,0-3,3v5.45H163.1a6.64,6.64,0,0,0-6.62,6.62v12.34a6.64,6.64,0,0,0,6.62,6.62H183a6.64,6.64,0,0,0,6.62-6.62V439.19A6.64,6.64,0,0,0,183,432.57Z" fill="#e3e7ed"/><path d="M270,432.57h-2.35v-5.45a3,3,0,0,0-3-3h-9.08a3,3,0,0,0-3,3v5.45h-2.49a6.64,6.64,0,0,0-6.62,6.62v12.34a6.64,6.64,0,0,0,6.62,6.62H270a6.64,6.64,0,0,0,6.62-6.62V439.19A6.64,6.64,0,0,0,270,432.57Z" fill="#e3e7ed"/><path d="M356.88,432.57h-2.35v-5.45a3,3,0,0,0-3-3h-9.08a3,3,0,0,0-3,3v5.45h-2.49a6.64,6.64,0,0,0-6.62,6.62v12.34a6.64,6.64,0,0,0,6.62,6.62h19.94a6.64,6.64,0,0,0,6.62-6.62V439.19A6.64,6.64,0,0,0,356.88,432.57Z" fill="#e3e7ed"/><path d="M443.76,432.57h-2.35v-5.45a3,3,0,0,0-3-3h-9.08a3,3,0,0,0-3,3v5.45h-2.49a6.64,6.64,0,0,0-6.62,6.62v12.34a6.64,6.64,0,0,0,6.62,6.62h19.94a6.64,6.64,0,0,0,6.62-6.62V439.19A6.64,6.64,0,0,0,443.76,432.57Z" fill="#e3e7ed"/><path d="M144.49,471.61h57.14a1.12,1.12,0,0,1,1.19,1.19V474a1.12,1.12,0,0,1-1.19,1.19H144.49A1.12,1.12,0,0,1,143.3,474V472.8A1.19,1.19,0,0,1,144.49,471.61Z" fill="#d6dde6" fill-opacity="0.7"/><path d="M148.78,463.87h48.57a1,1,0,0,1,1,1.19v1.19a1,1,0,0,1-1,1.19H148.78a1,1,0,0,1-1-1.19v-1.19A1.12,1.12,0,0,1,148.78,463.87Z" fill="#d6dde6" fill-opacity="0.7"/><path d="M231.46,471.61H288.6a1.12,1.12,0,0,1,1.19,1.19V474a1.12,1.12,0,0,1-1.19,1.19H231.46a1.12,1.12,0,0,1-1.19-1.19V472.8A1.19,1.19,0,0,1,231.46,471.61Z" fill="#d6dde6" fill-opacity="0.7"/><path d="M235.74,463.87h48.57a1,1,0,0,1,1,1.19v1.19a1,1,0,0,1-1,1.19H235.74a1,1,0,0,1-1-1.19v-1.19A1.12,1.12,0,0,1,235.74,463.87Z" fill="#d6dde6" fill-opacity="0.7"/><path d="M318.34,471.61h57.14a1.12,1.12,0,0,1,1.19,1.19V474a1.12,1.12,0,0,1-1.19,1.19H318.34a1.12,1.12,0,0,1-1.19-1.19V472.8A1.19,1.19,0,0,1,318.34,471.61Z" fill="#d6dde6" fill-opacity="0.7"/><path d="M322.62,463.87H371.2a1,1,0,0,1,1,1.19v1.19a1,1,0,0,1-1,1.19H322.62a1,1,0,0,1-1-1.19v-1.19A1.12,1.12,0,0,1,322.62,463.87Z" fill="#d6dde6" fill-opacity="0.7"/><path d="M405.22,471.61h57.14a1.12,1.12,0,0,1,1.19,1.19V474a1.12,1.12,0,0,1-1.19,1.19H405.22A1.12,1.12,0,0,1,404,474V472.8A1.19,1.19,0,0,1,405.22,471.61Z" fill="#d6dde6" fill-opacity="0.7"/><path d="M409.51,463.87h48.57a1,1,0,0,1,1,1.19v1.19a1,1,0,0,1-1,1.19H409.51a1,1,0,0,1-1-1.19v-1.19A1.12,1.12,0,0,1,409.51,463.87Z" fill="#d6dde6" fill-opacity="0.7"/><rect x="133.33" y="85.54" width="339.29" height="22.02" rx="3.43" ry="3.43" fill="#af1f23" opacity="0.75" style="isolation:isolate"/><rect x="136.9" y="88.89" width="331.35" height="2.79" rx="1.39" ry="1.39" fill="#fff" opacity="0.5"/><rect x="136.9" y="94.91" width="331.35" height="2.79" rx="1.39" ry="1.39" fill="#fff" opacity="0.5"/><rect x="136.9" y="100.93" width="289.21" height="2.79" rx="1.32" ry="1.32" fill="#fff" opacity="0.5"/><path d="M492.17.6H7.11a5.88,5.88,0,0,0-5.92,6v6H498.81v-6C498.81,3.21,495.85.6,492.17.6Z" fill="#af1f23" opacity="0.75" style="isolation:isolate"/><path d="M270.24,24.64h31a1.12,1.12,0,0,1,1.19,1.19V27a1.12,1.12,0,0,1-1.19,1.19h-31A1.12,1.12,0,0,1,269,27V25.83A1.19,1.19,0,0,1,270.24,24.64Z" fill="#adbbcc" fill-opacity="0.2"/><path d="M312.86,24.64h31A1.12,1.12,0,0,1,345,25.83V27a1.12,1.12,0,0,1-1.19,1.19h-31A1.12,1.12,0,0,1,311.67,27V25.83A1.19,1.19,0,0,1,312.86,24.64Z" fill="#adbbcc" fill-opacity="0.2"/><path d="M355.36,24.64h31a1.12,1.12,0,0,1,1.19,1.19V27a1.12,1.12,0,0,1-1.19,1.19h-31A1.12,1.12,0,0,1,354.17,27V25.83A1.28,1.28,0,0,1,355.36,24.64Z" fill="#adbbcc" fill-opacity="0.2"/><path d="M398,24.64h31a1.12,1.12,0,0,1,1.19,1.19V27a1.12,1.12,0,0,1-1.19,1.19H398A1.12,1.12,0,0,1,396.79,27V25.83A1.19,1.19,0,0,1,398,24.64Z" fill="#adbbcc" fill-opacity="0.2"/><path d="M440.48,24.64h31a1.12,1.12,0,0,1,1.19,1.19V27a1.12,1.12,0,0,1-1.19,1.19h-31A1.12,1.12,0,0,1,439.29,27V25.83A1.28,1.28,0,0,1,440.48,24.64Z" fill="#af1f23" opacity="0.75" style="isolation:isolate"/><g id="d38e2d7c-1b17-4741-9642-8627543b7675" data-name="Layer 10" opacity="0.85"><rect x="45.31" y="28.57" width="54.45" height="6.02" fill="#010101"/><path d="M45.08,18.35h4v.13a2.07,2.07,0,0,0-.66.15.88.88,0,0,0-.31.28.78.78,0,0,0-.12.41,1.66,1.66,0,0,0,0,.28c0,.08.08.25.19.53L50,25l1.77-4.29a4.34,4.34,0,0,0,.37-1.33,1.22,1.22,0,0,0-.08-.44.68.68,0,0,0-.2-.31.75.75,0,0,0-.27-.15,1.45,1.45,0,0,0-.37,0v-.13H54v.13a1.4,1.4,0,0,0-1.06.57,2.66,2.66,0,0,0-.32.53c-.11.23-.27.57-.47,1l-2.5,6h-.25l-2.43-6.23a6.29,6.29,0,0,0-.76-1.55,1.09,1.09,0,0,0-.45-.31,1.87,1.87,0,0,0-.65-.09v-.13Z" fill="#010101"/><path d="M60.61,18.35l.11,2h-.15a2.67,2.67,0,0,0-.27-.85,1.73,1.73,0,0,0-.53-.6,1.76,1.76,0,0,0-.68-.31,5.32,5.32,0,0,0-1-.09h-1.4v3.65H57a3.27,3.27,0,0,0,.84-.08.86.86,0,0,0,.45-.27,1,1,0,0,0,.25-.41,3.16,3.16,0,0,0,.13-.7h.15l0,3.27h-.15a3.7,3.7,0,0,0-.16-.76,1.51,1.51,0,0,0-.29-.49,1.08,1.08,0,0,0-.48-.29,2.36,2.36,0,0,0-.74-.09h-.35v1.4c0,.56,0,1,0,1.22a2,2,0,0,0,.16.64,1.25,1.25,0,0,0,.64.64,2.62,2.62,0,0,0,1.12.2,3.59,3.59,0,0,0,1.22-.19,1.88,1.88,0,0,0,.81-.57,2.24,2.24,0,0,0,.36-.6,5.36,5.36,0,0,0,.25-.89h.15l-.08,2.43H54.06v-.15a1.94,1.94,0,0,0,.56-.09.93.93,0,0,0,.39-.25,1.17,1.17,0,0,0,.27-.49,4.08,4.08,0,0,0,.07-.93V20.26a5.25,5.25,0,0,0-.07-.93,1,1,0,0,0-.27-.49.93.93,0,0,0-.39-.25,2,2,0,0,0-.57-.09v-.15Z" fill="#010101"/><path d="M64.45,22.6v2.15a5.25,5.25,0,0,0,.07.93,1,1,0,0,0,.27.49.93.93,0,0,0,.39.25,2,2,0,0,0,.57.11v.15H61.85v-.15a1.62,1.62,0,0,0,.57-.11,1,1,0,0,0,.39-.25,1,1,0,0,0,.27-.49,5,5,0,0,0,.07-.93V20.26a5,5,0,0,0-.07-.93.94.94,0,0,0-.27-.49.93.93,0,0,0-.39-.25,2,2,0,0,0-.57-.09v-.15h3.91a5,5,0,0,1,1.49.25,2,2,0,0,1,.93.73,1.92,1.92,0,0,1,.33,1.13A1.86,1.86,0,0,1,67.79,22a1.74,1.74,0,0,1-.48.28,5.16,5.16,0,0,1-.7.21,2.18,2.18,0,0,1,.54.32,1.27,1.27,0,0,1,.25.32,7.34,7.34,0,0,1,.35.68c.36.74.64,1.29.82,1.63a5.06,5.06,0,0,0,.47.74,1.29,1.29,0,0,0,.29.27,1,1,0,0,0,.4.09v.15h-2l-.2-.43-.43-1a16.63,16.63,0,0,0-.77-1.54,3.07,3.07,0,0,0-.72-.9,1.12,1.12,0,0,0-.36-.17,1.54,1.54,0,0,0-.47-.05Zm0-.13h.23a5,5,0,0,0,1.08-.08,1.33,1.33,0,0,0,.61-.36A2,2,0,0,0,67,20.51a2.29,2.29,0,0,0-.19-.9,1.84,1.84,0,0,0-.52-.7,1.54,1.54,0,0,0-.61-.29,4.89,4.89,0,0,0-1-.08h-.25v3.93Z" fill="#010101"/><path d="M73.22,18.53l-.82,0a4.14,4.14,0,0,0-1.4.24,1.62,1.62,0,0,0-.76.65,3.4,3.4,0,0,0-.43,1.16h-.15l.11-2.25H78l.11,2.25H78a2.84,2.84,0,0,0-.52-1.29,1.9,1.9,0,0,0-1-.62,8,8,0,0,0-1.93-.16v6.22a5.25,5.25,0,0,0,.07.93,1,1,0,0,0,.25.49,1,1,0,0,0,.39.25,2,2,0,0,0,.56.09v.15H71.89v-.15a2,2,0,0,0,.57-.09.93.93,0,0,0,.39-.25,1.17,1.17,0,0,0,.27-.49,4.08,4.08,0,0,0,.07-.93V18.53Z" fill="#010101"/><path d="M82.39,18.35v.13a1.94,1.94,0,0,0-.56.09.93.93,0,0,0-.39.25,1.14,1.14,0,0,0-.29.68,6.13,6.13,0,0,0,0,.74v4.49a4.32,4.32,0,0,0,.05.8,1.06,1.06,0,0,0,.16.47,1,1,0,0,0,.41.36,1.76,1.76,0,0,0,.66.15v.15H78.51v-.15a1.62,1.62,0,0,0,.57-.11,1,1,0,0,0,.39-.25,1,1,0,0,0,.27-.49,5,5,0,0,0,.07-.93V20.26a5,5,0,0,0-.07-.93.94.94,0,0,0-.27-.49.93.93,0,0,0-.39-.25,2,2,0,0,0-.57-.09v-.15Z" fill="#010101"/><path d="M83.3,26.64V24.12h.15a5.5,5.5,0,0,0,.61,1.52,2,2,0,0,0,1.67,1,1.57,1.57,0,0,0,1.16-.47,1.63,1.63,0,0,0,.45-1.2,2.14,2.14,0,0,0-.11-.64A2.17,2.17,0,0,0,87,23.8a2,2,0,0,0-.49-.45,9.87,9.87,0,0,0-1-.56c-.39-.2-.68-.36-.89-.49a2.24,2.24,0,0,1-.49-.41,2,2,0,0,1-.52-1.4,2.44,2.44,0,0,1,.2-1,2.36,2.36,0,0,1,.57-.81,2.17,2.17,0,0,1,1.53-.6,2.25,2.25,0,0,1,.53.05,5.58,5.58,0,0,1,.65.23l.41.16a.53.53,0,0,0,.2,0c.15,0,.24-.11.29-.31h.15l0,2.42H88c-.11-.39-.2-.68-.28-.89a3.26,3.26,0,0,0-.28-.57,2.11,2.11,0,0,0-.65-.7,1.56,1.56,0,0,0-.82-.23,1.36,1.36,0,0,0-1.08.47,1.25,1.25,0,0,0-.25.45,1.43,1.43,0,0,0-.09.52c0,.68.44,1.22,1.32,1.65l.86.41a4,4,0,0,1,1.44,1,2.33,2.33,0,0,1,.51,1.48,2.74,2.74,0,0,1-.23,1.08,2.43,2.43,0,0,1-1,1.1,2.85,2.85,0,0,1-1.49.39,4,4,0,0,1-1.52-.31l-.45-.19-.16,0a.39.39,0,0,0-.4.29Z" fill="#010101"/><path d="M93.36,18.35v.13a1.94,1.94,0,0,0-.56.09.93.93,0,0,0-.39.25,1.14,1.14,0,0,0-.29.68,6.13,6.13,0,0,0,0,.74v4.49a4.32,4.32,0,0,0,.05.8,1.06,1.06,0,0,0,.16.47,1,1,0,0,0,.41.36,1.76,1.76,0,0,0,.66.15v.15H89.48v-.15A1.62,1.62,0,0,0,90,26.4a1,1,0,0,0,.39-.25,1,1,0,0,0,.27-.49,5,5,0,0,0,.07-.93V20.26a5,5,0,0,0-.07-.93.94.94,0,0,0-.27-.49.93.93,0,0,0-.39-.25,2,2,0,0,0-.57-.09v-.15Z" fill="#010101"/><path d="M94.25,26.64V24.12h.15A5.5,5.5,0,0,0,95,25.63a2,2,0,0,0,1.67,1,1.57,1.57,0,0,0,1.16-.47A1.63,1.63,0,0,0,98.3,25a2.14,2.14,0,0,0-.11-.64,2.17,2.17,0,0,0-.27-.56,2,2,0,0,0-.49-.45,9.87,9.87,0,0,0-1-.56c-.39-.2-.68-.36-.89-.49a2.24,2.24,0,0,1-.49-.41,2,2,0,0,1-.52-1.4,2.44,2.44,0,0,1,.2-1,2.36,2.36,0,0,1,.57-.81,2.17,2.17,0,0,1,1.53-.6,2.25,2.25,0,0,1,.53.05,5.58,5.58,0,0,1,.65.23l.41.16a.53.53,0,0,0,.2,0c.15,0,.24-.11.29-.31h.15l0,2.42H99c-.11-.39-.2-.68-.28-.89a3.26,3.26,0,0,0-.28-.57,2.11,2.11,0,0,0-.65-.7,1.56,1.56,0,0,0-.82-.23,1.36,1.36,0,0,0-1.08.47,1.25,1.25,0,0,0-.25.45,1.43,1.43,0,0,0-.09.52c0,.68.44,1.22,1.32,1.65l.86.41a4,4,0,0,1,1.44,1,2.33,2.33,0,0,1,.51,1.48,2.74,2.74,0,0,1-.23,1.08,2.43,2.43,0,0,1-1,1.1,2.85,2.85,0,0,1-1.49.39,4,4,0,0,1-1.52-.31L95,26.39l-.16,0a.39.39,0,0,0-.4.29Z" fill="#010101"/><path d="M49.82,30l0,1.06h-.05l0-.11c-.05-.15-.11-.27-.13-.33a1.15,1.15,0,0,0-.27-.36,1.13,1.13,0,0,0-.28-.19.8.8,0,0,0-.32-.05.9.9,0,0,0-.47.12.94.94,0,0,0-.32.29,1.55,1.55,0,0,0-.24.44,2.4,2.4,0,0,0,0,1.45,1.52,1.52,0,0,0,.27.51,1.22,1.22,0,0,0,1.34.28.74.74,0,0,0,.33-.27,1.31,1.31,0,0,0,.2-.53h.05a1.22,1.22,0,0,1-.2.6.89.89,0,0,1-.41.32,1.73,1.73,0,0,1-.61.11,2,2,0,0,1-.62-.09,1.43,1.43,0,0,1-.74-.56,1.77,1.77,0,0,1-.27-1,1.94,1.94,0,0,1,.16-.8,1.51,1.51,0,0,1,.44-.58,1.59,1.59,0,0,1,.52-.27,1.89,1.89,0,0,1,.6-.11,2.11,2.11,0,0,1,.61.11l.2.07.09,0a.1.1,0,0,0,.09-.05.22.22,0,0,0,0-.08h0v0Z" fill="#fff"/><path d="M51.75,30V30a.57.57,0,0,0-.23,0,.55.55,0,0,0-.15.09.48.48,0,0,0-.11.2,2.59,2.59,0,0,0,0,.41v1.34a3.47,3.47,0,0,0,0,.47.66.66,0,0,0,.11.27.76.76,0,0,0,.28.27,1,1,0,0,0,.43.08,1.37,1.37,0,0,0,.47-.08,1,1,0,0,0,.37-.21.44.44,0,0,0,.13-.19.63.63,0,0,0,.05-.24c0-.07,0-.21,0-.47V30.69a2.2,2.2,0,0,0,0-.36.29.29,0,0,0-.11-.19.34.34,0,0,0-.15-.09.87.87,0,0,0-.21,0V30h1.09V30a.47.47,0,0,0-.21,0,.55.55,0,0,0-.15.09.52.52,0,0,0-.11.19,2.2,2.2,0,0,0,0,.36v1.49a1.52,1.52,0,0,1-.05.49A.82.82,0,0,1,53,33a1.84,1.84,0,0,1-2,0,.75.75,0,0,1-.24-.48,2.59,2.59,0,0,1,0-.37V30.69a2.2,2.2,0,0,0,0-.36.29.29,0,0,0-.11-.19.34.34,0,0,0-.15-.09.87.87,0,0,0-.23,0V30h1.5Z" fill="#fff"/><path d="M54.15,33.19v-1h.05a2,2,0,0,0,.24.58.76.76,0,0,0,.65.4.61.61,0,0,0,.45-.19.63.63,0,0,0,.17-.47.75.75,0,0,0,0-.24.79.79,0,0,0-.11-.21.59.59,0,0,0-.19-.17,2.91,2.91,0,0,0-.39-.21c-.15-.08-.27-.13-.35-.19a.77.77,0,0,1-.19-.16.79.79,0,0,1-.2-.54.89.89,0,0,1,.08-.37.87.87,0,0,1,.23-.31.82.82,0,0,1,.6-.23.8.8,0,0,1,.2,0,1,1,0,0,1,.25.09l.16.07h.08c.05,0,.09,0,.11-.12H56v.94H56c0-.15-.08-.27-.11-.35a1.18,1.18,0,0,0-.11-.23,1,1,0,0,0-.25-.28.64.64,0,0,0-.32-.09.51.51,0,0,0-.41.19.75.75,0,0,0-.11.17.53.53,0,0,0,0,.2c0,.27.17.48.51.64l.33.16a1.59,1.59,0,0,1,.56.4.88.88,0,0,1,.2.57.89.89,0,0,1-.09.41.84.84,0,0,1-.37.43,1,1,0,0,1-.58.15,1.49,1.49,0,0,1-.58-.12l-.17-.08h-.07a.16.16,0,0,0-.16.12h-.07v0Z" fill="#fff"/><path d="M57.94,30h-.32a1.69,1.69,0,0,0-.54.09.67.67,0,0,0-.29.25,1.48,1.48,0,0,0-.16.45h-.05l0-.88h3.2l0,.88H59.8a1.06,1.06,0,0,0-.2-.49.75.75,0,0,0-.4-.24,3.13,3.13,0,0,0-.74-.07v2.41a2.2,2.2,0,0,0,0,.36.37.37,0,0,0,.11.2.34.34,0,0,0,.15.09.87.87,0,0,0,.21,0v.05H57.44v-.05a.57.57,0,0,0,.23,0,.55.55,0,0,0,.15-.09.52.52,0,0,0,.11-.19,2.2,2.2,0,0,0,0-.36V30Z" fill="#fff"/><path d="M60.21,31.61a1.52,1.52,0,0,1,.17-.73,1.91,1.91,0,0,1,.49-.6A2,2,0,0,1,61.4,30a1.67,1.67,0,0,1,.57-.11,1.65,1.65,0,0,1,.7.16,1.78,1.78,0,0,1,.6.45,1.59,1.59,0,0,1,.41,1.08,1.75,1.75,0,0,1-.11.58,1.52,1.52,0,0,1-.32.52,2,2,0,0,1-.6.45,1.72,1.72,0,0,1-.73.16,1.66,1.66,0,0,1-.72-.16,1.74,1.74,0,0,1-.58-.44,1.77,1.77,0,0,1-.31-.51A1.62,1.62,0,0,1,60.21,31.61Zm.58,0a1.8,1.8,0,0,0,.37,1.16,1,1,0,0,0,.36.31.89.89,0,0,0,.44.09,1,1,0,0,0,.44-.09,1.22,1.22,0,0,0,.36-.31,1.81,1.81,0,0,0,.37-1.17,2.53,2.53,0,0,0-.11-.72,1.55,1.55,0,0,0-.29-.57.91.91,0,0,0-.33-.28A1.07,1.07,0,0,0,62,30a.93.93,0,0,0-.44.09,1.1,1.1,0,0,0-.35.28,1.78,1.78,0,0,0-.29.57A2.56,2.56,0,0,0,60.8,31.65Z" fill="#fff"/><path d="M68.24,30a.47.47,0,0,0-.21,0,.34.34,0,0,0-.15.09.21.21,0,0,0-.08.11l0,.15a1.88,1.88,0,0,0,0,.29v1.74a2.2,2.2,0,0,0,0,.36.29.29,0,0,0,.11.19.55.55,0,0,0,.37.13v.05H66.74v-.05a.57.57,0,0,0,.23,0,.55.55,0,0,0,.15-.09.48.48,0,0,0,.11-.2,2.2,2.2,0,0,0,0-.36V30.32L66,33.18H66l-1.21-2.82v2.07a2.2,2.2,0,0,0,0,.36.29.29,0,0,0,.11.19.34.34,0,0,0,.15.09.87.87,0,0,0,.21,0v.05H64.16v-.05a.47.47,0,0,0,.21,0,.55.55,0,0,0,.15-.09.48.48,0,0,0,.11-.2,2.2,2.2,0,0,0,0-.36V30.68a.94.94,0,0,0,0-.2.81.81,0,0,0-.05-.25.31.31,0,0,0-.16-.16.72.72,0,0,0-.28-.07V30h1l1,2.53L67.26,30h1V30Z" fill="#fff"/><path d="M70.94,31.61v.85a2.2,2.2,0,0,0,0,.36.37.37,0,0,0,.11.2.34.34,0,0,0,.15.09.53.53,0,0,0,.23,0v.05H69.93v-.05a.57.57,0,0,0,.23,0A.55.55,0,0,0,70.3,33a.52.52,0,0,0,.11-.19,2.2,2.2,0,0,0,0-.36V30.73a2.16,2.16,0,0,0,0-.32.3.3,0,0,0-.07-.17.42.42,0,0,0-.16-.15A.63.63,0,0,0,70,30h0V30h1.42a2.58,2.58,0,0,1,.54,0,.88.88,0,0,1,.32.15.81.81,0,0,1,.33.68.69.69,0,0,1-.35.64,1.06,1.06,0,0,1-.43.12h-.85Zm0-.08h.23a1.21,1.21,0,0,0,.36,0,.56.56,0,0,0,.23-.13A.71.71,0,0,0,72,30.8a1,1,0,0,0-.07-.36.64.64,0,0,0-.19-.27.63.63,0,0,0-.35-.15h-.44Z" fill="#fff"/><path d="M73.86,31.48h1.67v-.76a2.2,2.2,0,0,0,0-.36.29.29,0,0,0-.11-.19.34.34,0,0,0-.15-.09A.87.87,0,0,0,75,30V30h1.52V30a.47.47,0,0,0-.21,0,.55.55,0,0,0-.15.09.52.52,0,0,0-.11.19,2.2,2.2,0,0,0,0,.36v1.74a2.2,2.2,0,0,0,0,.36.37.37,0,0,0,.11.2.34.34,0,0,0,.15.09.51.51,0,0,0,.21,0v.05H75v-.05a.57.57,0,0,0,.23,0A.55.55,0,0,0,75.4,33a.52.52,0,0,0,.11-.19,2.2,2.2,0,0,0,0-.36V31.6H73.86v.88a2.2,2.2,0,0,0,0,.36A.37.37,0,0,0,74,33a.34.34,0,0,0,.15.09.53.53,0,0,0,.23,0v.05H72.85v-.05a.57.57,0,0,0,.23,0,.55.55,0,0,0,.15-.09.52.52,0,0,0,.11-.19,2.2,2.2,0,0,0,0-.36V30.75a2.2,2.2,0,0,0,0-.36.29.29,0,0,0-.11-.19.34.34,0,0,0-.15-.09.87.87,0,0,0-.23,0V30h1.52v.05a.47.47,0,0,0-.21,0,.55.55,0,0,0-.15.09.52.52,0,0,0-.11.19,2.2,2.2,0,0,0,0,.36v.73Z" fill="#fff"/><path d="M80.19,33.21H78.65v-.05a.86.86,0,0,0,.29-.07.3.3,0,0,0,.15-.25,1,1,0,0,0-.07-.27l0-.09-.23-.56h-1l-.12.33-.05.15a1.25,1.25,0,0,0-.11.41.35.35,0,0,0,0,.16.31.31,0,0,0,.11.12.64.64,0,0,0,.24.08v.05H76.76v-.05A.45.45,0,0,0,77,33.1a.74.74,0,0,0,.19-.17,1.41,1.41,0,0,0,.15-.25c.05-.11.11-.25.19-.45L78.37,30h.13l1,2.49a3,3,0,0,0,.19.4.54.54,0,0,0,.15.19.42.42,0,0,0,.13.07l.23,0v0Zm-1.48-1.4-.49-1.22-.47,1.22Z" fill="#fff"/><path d="M81.4,31.62v.84a2.2,2.2,0,0,0,0,.36.37.37,0,0,0,.11.2.34.34,0,0,0,.15.09.53.53,0,0,0,.23,0v.05H80.39v-.05a.57.57,0,0,0,.23,0,.55.55,0,0,0,.15-.09.52.52,0,0,0,.11-.19,2.2,2.2,0,0,0,0-.36V30.73a2.2,2.2,0,0,0,0-.36.29.29,0,0,0-.11-.19.34.34,0,0,0-.15-.09.87.87,0,0,0-.23,0V30H81.9a2,2,0,0,1,.57.09.75.75,0,0,1,.49.72.71.71,0,0,1-.28.58.85.85,0,0,1-.19.11l-.28.08a1,1,0,0,1,.21.12.41.41,0,0,1,.09.12,2.37,2.37,0,0,1,.13.27l.32.64a1.61,1.61,0,0,0,.19.29.43.43,0,0,0,.12.11l.15,0v.05h-.78a.78.78,0,0,0-.08-.16l-.16-.37a4.17,4.17,0,0,0-.31-.6,1.52,1.52,0,0,0-.28-.36l-.13-.07a.69.69,0,0,0-.19,0H81.4Zm0-.05h.09a2.94,2.94,0,0,0,.43,0,.72.72,0,0,0,.24-.13.82.82,0,0,0,.25-.58,1,1,0,0,0-.07-.35.82.82,0,0,0-.2-.27.49.49,0,0,0-.24-.11,1.58,1.58,0,0,0-.39,0h-.09v1.49Z" fill="#fff"/><path d="M87.72,30a.47.47,0,0,0-.21,0,.34.34,0,0,0-.15.09.21.21,0,0,0-.08.11l0,.15a1.88,1.88,0,0,0,0,.29v1.74a2.2,2.2,0,0,0,0,.36.29.29,0,0,0,.11.19.55.55,0,0,0,.37.13v.05H86.22v-.05a.57.57,0,0,0,.23,0,.55.55,0,0,0,.15-.09.48.48,0,0,0,.11-.2,2.2,2.2,0,0,0,0-.36V30.32L85.5,33.18h-.05l-1.21-2.82v2.07a2.2,2.2,0,0,0,0,.36.29.29,0,0,0,.11.19.34.34,0,0,0,.15.09.87.87,0,0,0,.21,0v.05H83.64v-.05a.47.47,0,0,0,.21,0A.55.55,0,0,0,84,33a.48.48,0,0,0,.11-.2,2.2,2.2,0,0,0,0-.36V30.68a.94.94,0,0,0,0-.2.81.81,0,0,0-.05-.25.31.31,0,0,0-.16-.16.72.72,0,0,0-.28-.07V30h1l1,2.53L86.74,30h1V30Z" fill="#fff"/><path d="M91.36,33.21H89.81v-.05a.86.86,0,0,0,.29-.07.3.3,0,0,0,.15-.25,1,1,0,0,0-.07-.27l0-.09-.23-.56h-1l-.12.33-.05.15a1.25,1.25,0,0,0-.11.41.35.35,0,0,0,0,.16.31.31,0,0,0,.11.12.64.64,0,0,0,.24.08v.05H87.92v-.05a.45.45,0,0,0,.23-.07.74.74,0,0,0,.19-.17,1.41,1.41,0,0,0,.15-.25c.05-.11.11-.25.19-.45L89.53,30h.13l1,2.49a3,3,0,0,0,.19.4.54.54,0,0,0,.15.19.42.42,0,0,0,.13.07l.23,0v0Zm-1.49-1.4-.49-1.22-.47,1.22Z" fill="#fff"/><path d="M94.46,30l0,1.06h-.05l0-.11c-.05-.15-.11-.27-.13-.33a1.15,1.15,0,0,0-.27-.36,1.13,1.13,0,0,0-.28-.19A.8.8,0,0,0,93.4,30a.9.9,0,0,0-.47.12.94.94,0,0,0-.32.29,1.55,1.55,0,0,0-.24.44,2.4,2.4,0,0,0,0,1.45,1.52,1.52,0,0,0,.27.51,1.22,1.22,0,0,0,1.34.28.74.74,0,0,0,.33-.27,1.31,1.31,0,0,0,.2-.53h.05a1.22,1.22,0,0,1-.2.6.89.89,0,0,1-.41.32,1.48,1.48,0,0,1-.61.11,2,2,0,0,1-.62-.09,1.43,1.43,0,0,1-.74-.56,1.77,1.77,0,0,1-.27-1,1.94,1.94,0,0,1,.16-.8,1.51,1.51,0,0,1,.44-.58,1.59,1.59,0,0,1,.52-.27,1.89,1.89,0,0,1,.6-.11A2.11,2.11,0,0,1,94,30l.2.07.09,0a.1.1,0,0,0,.09-.05.22.22,0,0,0,0-.08h0Z" fill="#fff"/><path d="M95.68,33.21v-.05a.57.57,0,0,0,.23,0,.55.55,0,0,0,.15-.09.35.35,0,0,0,.09-.19,2.2,2.2,0,0,0,0-.36V32a.81.81,0,0,0,0-.23,1.28,1.28,0,0,0-.19-.35l-.61-.92-.11-.16a.68.68,0,0,0-.24-.24l-.12-.05h-.16V30h1.54v.05a.74.74,0,0,0-.25,0,.2.2,0,0,0-.13.2.39.39,0,0,0,0,.12,1.17,1.17,0,0,0,.09.17l.64,1,.54-.85.07-.09a.58.58,0,0,0,.09-.27.3.3,0,0,0-.09-.24.42.42,0,0,0-.27-.08V30h1.09v.05l-.19,0a.4.4,0,0,0-.13.09,3,3,0,0,0-.36.45l-.54.82a.93.93,0,0,0-.12.21.79.79,0,0,0,0,.23v.58a2,2,0,0,0,0,.36.33.33,0,0,0,.11.19.49.49,0,0,0,.37.13v.05H95.68Z" fill="#fff"/><text transform="translate(99.72 19.66)" font-size="2.22" fill="#010101" font-family="BaskOldFace, Baskerville Old Face" style="isolation:isolate">®</text></g><g id="6a29d4b6-85bc-4466-8cbd-3e7eb0dde1c4" data-name="Layer 8" opacity="0.75"><polygon points="35.68 35.39 41.9 20.98 42.99 30.19 35.68 35.39" fill="#af1f23"/><polygon points="33.5 35.39 27.28 20.98 26.19 30.19 33.5 35.39" fill="#af1f23"/><polygon points="34.59 22.79 28.4 18.36 34.59 32.78 40.78 18.36 34.59 22.79" fill="#af1f23"/></g></g><g id="de08884f-640c-4ad3-bc51-0cdfc802fdba" data-name="outline"><path d="M494,500H6a6,6,0,0,1-6-6V6A6,6,0,0,1,6,0H494a6,6,0,0,1,6,6V494A6,6,0,0,1,494,500ZM6,2.38A3.58,3.58,0,0,0,2.38,6V494A3.58,3.58,0,0,0,6,497.62H494a3.58,3.58,0,0,0,3.57-3.57V6A3.58,3.58,0,0,0,494,2.38Z" fill="#f0f1f4"/></g></svg>