<?xml version="1.0" encoding="utf-8"?>
<!-- Generator: Adobe Illustrator 21.1.0, SVG Export Plug-In . SVG Version: 6.00 Build 0)  -->
<svg version="1.1" id="_x35_43e96be-a747-4fb7-abeb-1d71d6e5388c"
	 xmlns="http://www.w3.org/2000/svg" xmlns:xlink="http://www.w3.org/1999/xlink" x="0px" y="0px" width="479.8px" height="478.8px"
	 viewBox="0 0 479.8 478.8" style="enable-background:new 0 0 479.8 478.8;" xml:space="preserve">
<style type="text/css">
	.st0{fill:none;}
	.st1{fill:#FFFFFF;}
</style>
<title>carouselIconSprite</title>
<path class="st0" d="M282,247.9c0.4-1,0.8-1.9,1.1-2.9c2.6-7,3.9-14.4,3.9-21.9V85.5l0,0V63.9C286.9,28.7,258.3,0.1,223.1,0H63.9
	C28.7,0.1,0.1,28.7,0,63.9v159.2c0.1,35.3,28.7,63.8,63.9,63.9h159.2C248.8,286.9,271.9,271.5,282,247.9z"/>
<g>
	<path class="st1" d="M349.2,279.4V106.6c-0.1-38.3-31.1-69.2-69.4-69.4H107.1c-38.3,0.1-69.2,31.1-69.4,69.4v172.7
		c0.1,38.3,31.1,69.2,69.4,69.4h172.7C318.1,348.6,349.1,317.6,349.2,279.4z"/>
	<path class="st1" d="M376.3,130.2v149.2c-0.1,53.3-43.2,96.4-96.5,96.5H130.7c2.1,36.8,32.4,65.5,69.3,65.7h172.7
		c38.3-0.1,69.2-31.1,69.4-69.4V199.4C441.9,162.6,413.1,132.2,376.3,130.2z"/>
</g>
</svg>
