<svg id="_x35_43e96be-a747-4fb7-abeb-1d71d6e5388c" xmlns="http://www.w3.org/2000/svg" width="479.8" height="478.8">
  <style>
    .st1{fill:#fff}
  </style>
  <path d="M282 247.9c.4-1 .8-1.9 1.1-2.9 2.6-7 3.9-14.4 3.9-21.9V63.9C286.9 28.7 258.3.1 223.1 0H63.9C28.7.1.1 28.7 0 63.9v159.2c.1 35.3 28.7 63.8 63.9 63.9h159.2c25.7-.1 48.8-15.5 58.9-39.1z" fill="none"/>
  <path class="st1" d="M349.2 279.4V106.6c-.1-38.3-31.1-69.2-69.4-69.4H107.1c-38.3.1-69.2 31.1-69.4 69.4v172.7c.1 38.3 31.1 69.2 69.4 69.4h172.7c38.3-.1 69.3-31.1 69.4-69.3z"/>
  <path class="st1" d="M376.3 130.2v149.2c-.1 53.3-43.2 96.4-96.5 96.5H130.7c2.1 36.8 32.4 65.5 69.3 65.7h172.7c38.3-.1 69.2-31.1 69.4-69.4V199.4c-.2-36.8-29-67.2-65.8-69.2z"/>
</svg>
