<svg data-name="Layer 1" xmlns="http://www.w3.org/2000/svg" viewBox="0 0 479.21 385.1">
  <g data-name="Layer 6">
    <path d="M215.1 72c0-12-2.7-15.6-8-19.3-6-4.2-17.8-3.7-24.7 3.3-2.2 2.2-10.9 11.2-21.1 21.9l53.9 42.2c0-25.9-.1-44.8-.1-48.1zM179.3 198.7V276s-32-33-39-39-9-8-24-8h-58v-71h69.1l-46.8-36.7H42.8c-15.3 0-21 9.7-21 20.7v50.6s-.3 43.1-.3 52.8c0 13.3 9 19.3 21.3 19.3h75.5s64.5 66.1 69.1 70 15.9 3.2 19.9-.1c4.7-3.9 7.4-8.4 7.8-17.9.2-6.7.3-45.1.3-89.7zM337.1 46.1c.8.5 80.7 49.2 80.7 145.9a172 172 0 0 1-16.4 74l30.5 23.9a212.39 212.39 0 0 0 24-97.9c0-48.9-17.1-95.3-49.4-134-24.3-29.1-48.8-43.9-49.9-44.5a19 19 0 0 0-19.5 32.6zM344.7 335.7a19.026 19.026 0 0 0 21.2 31.6 148.72 148.72 0 0 0 14.2-11.3l-30.5-23.9c-3.1 2.4-4.9 3.6-4.9 3.6zM299.2 303a19.09 19.09 0 0 0 15.3 7.7 19.42 19.42 0 0 0 6.3-1.1l-25.2-19.8a18.92 18.92 0 0 0 3.6 13.2z" fill="#fff"/>
    <path d="M297.2 107.8c.5.3 48.3 32.9 48.3 84.2a97.62 97.62 0 0 1-3.9 27.2l31.6 24.8a136.4 136.4 0 0 0 10.3-52c0-71.3-62.6-114-65.2-115.8a19 19 0 1 0-21.1 31.6zM310.8 189.9c0-30.5-23.4-50.1-37.2-56.9a19 19 0 0 0-25.4 8.7 20.82 20.82 0 0 0-1.2 3.2l63.7 49.9c0-1.6.1-3.2.1-4.9zM478.2 357.5a8.34 8.34 0 0 0-.8-1.2 11.41 11.41 0 0 0-1.1-1.1l-56.8-44.5-30-23.5-27.4-21.5-30.2-23.7-28.3-22.2-31.3-24.5-57-44.7-36-28.2-6.8-5.3-27.8-21.8L25.2 1.6a8.79 8.79 0 0 0-1-.6c-.1 0-.1-.1-.2-.1a4.18 4.18 0 0 0-1-.4c-.1 0-.1 0-.2-.1-.3-.1-.7-.2-1.1-.3h-.1a4.1 4.1 0 0 0-1.1-.1h-1c-.3 0-.5.1-.8.1h-.1c-.2.1-.4.1-.6.2s-.2.1-.3.1-.3.1-.5.2-.2.1-.3.1a.76.76 0 0 1-.4.2c-.1.1-.2.1-.3.2s-.3.2-.4.3-.2.1-.2.2-.3.2-.4.4l-.2.2-.6.6L1.7 19.4a6.73 6.73 0 0 0-.7 1.1 8.08 8.08 0 0 0-.9 3.7 5.9 5.9 0 0 0 .2 1.4c.1.5.3.9.4 1.4A7.07 7.07 0 0 0 3 29.9l116.6 91.4 29.9 23.5 29.8 23.4 36.1 28.3 59.4 46.5 3.6 2.9 31.4 24.6 30.2 23.6 27.3 21.4 30 23.5 56.8 44.5a8.79 8.79 0 0 0 1 .6c.1 0 .1.1.2.1a4.18 4.18 0 0 0 1 .4c.1 0 .1 0 .2.1l1.1.3h.1a4.1 4.1 0 0 0 1.1.1h1c.3 0 .5-.1.8-.1h.1a1.42 1.42 0 0 0 .6-.2c.1 0 .2-.1.3-.1s.3-.1.5-.2.2-.1.3-.1a.76.76 0 0 1 .4-.2c.1-.1.2-.1.3-.2s.3-.2.4-.3.2-.1.2-.2.3-.2.4-.4l.2-.2a2.65 2.65 0 0 0 .5-.6l12.9-16.5a7.81 7.81 0 0 0 1.1-2 7.71 7.71 0 0 0-.6-6.3zM18.7.2c-.2.1-.4.1-.6.2" fill="#fff"/>
    <path fill="none" d="M2.9 29.9l116.7 91.4"/>
    <path d="M461.9 384.4c-.2.1-.3.1-.5.2M463.9 383.1l-.4.4M463.3 383.6c-.1.1-.3.2-.4.3M462.6 384.1a.76.76 0 0 1-.4.2M17.9.5c-.2.1-.3.1-.5.2M19.6.1c-.3 0-.5.1-.8.1M22.8.4c-.3-.1-.7-.2-1.1-.3M25.2 1.6a8.79 8.79 0 0 0-1-.6M21.7.1a4.1 4.1 0 0 0-1.1-.1M461.1 384.7c-.2.1-.4.1-.6.2M20.4 0h-.6M14.6 2.9l.6-.6a3.39 3.39 0 0 0-.6.6L1.7 19.4a6.73 6.73 0 0 0-.7 1.1 4.13 4.13 0 0 1 .7-1.1zM.9 20.5a8.08 8.08 0 0 0-.9 3.7M464.7 382.3a2.65 2.65 0 0 0-.5.6" fill="#fff"/>
    <path fill="none" d="M215.4 196.4l59.4 46.6"/>
    <path d="M397.3 339l-30-23.5 30 23.5 56.8 44.5a8.79 8.79 0 0 0 1 .6c-.3-.2-.7-.4-1-.6zM456.2 384.7c-.3-.1-.7-.3-1-.4M16.4 1.2c-.1.1-.3.2-.4.3M457.5 385l-1.1-.3M15.7 1.7c-.1.1-.3.2-.4.4M459.4 385.1h-.6M458.6 385.1a4.1 4.1 0 0 1-1.1-.1M24 .9a4.18 4.18 0 0 0-1-.4M460.4 385a2.2 2.2 0 0 1-.8.1M17.1.8a.76.76 0 0 1-.4.2M119.6 121.3l29.9 23.5 29.8 23.4-29.8-23.4-29.9-23.5z" fill="#fff"/>
    <path fill="none" d="M215.4 196.4l-36.1-28.2"/>
    <path fill="#fff" d="M309.9 270.5l-31.5-24.6 31.5 24.6 30.1 23.6 27.3 21.4-27.3-21.4-30.1-23.6z"/>
  </g>
</svg>
