<?xml version="1.0" encoding="utf-8"?>
<!-- Generator: Adobe Illustrator 22.0.0, SVG Export Plug-In . SVG Version: 6.00 Build 0)  -->
<svg version="1.1" xmlns="http://www.w3.org/2000/svg" xmlns:xlink="http://www.w3.org/1999/xlink" x="0px" y="0px" width="500px"
	 height="500px" viewBox="0 0 500 500" style="enable-background:new 0 0 500 500;" xml:space="preserve">
<style type="text/css">
	.st0{display:none;}
	.st1{display:inline;stroke:#FFFFFF;stroke-miterlimit:10;}
	.st2{display:inline;}
	.st3{fill:#FFFFFF;}
	.st4{display:inline;fill:none;}
	.st5{fill:#FFFFFF;stroke:#FFFFFF;stroke-width:0;stroke-linecap:round;stroke-linejoin:round;}
</style>
<g id="Layer_2" class="st0">
	<rect x="-17" y="-19" class="st1" width="539" height="528"/>
</g>
<g id="Layer_3" class="st0">
	<g class="st2">
		<path class="st3" d="M391.2,193.9c0-1.5,0.7-3,1.9-3.9l83.8-65.2c3-2.4,5.7-4,9.5-4c1.7,0,3.5,0.4,5.3,1.1
			c5.5,2.4,8.3,6.6,8.3,12.5v231.3c0,6-2.8,10.1-8.3,12.6c-1.9,0.7-3.6,1.1-5.3,1.1c-3.8,0-6-1.4-9.5-4L393,307.6
			c-1.2-0.9-1.9-2.4-1.9-3.9V193.9z"/>
		<g>
			<path class="st3" d="M173.1,170.4c-43.9,0-79.6,35.7-79.6,79.6c0,43.9,35.7,79.6,79.6,79.6c43.9,0,79.6-35.7,79.6-79.6
				C252.7,206.1,217,170.4,173.1,170.4z"/>
			<path class="st3" d="M297.1,76.9H49c-27,0-49,22.1-49,49v248.1c0,27,22.1,49,49,49h248.1c27,0,49-22.1,49-49V125.9
				C346.1,99,324.1,76.9,297.1,76.9z M173.1,379.2c-71.3,0-129.2-58-129.2-129.2c0-71.3,58-129.2,129.2-129.2
				c71.3,0,129.2,58,129.2,129.2C302.3,321.3,244.3,379.2,173.1,379.2z"/>
		</g>
	</g>
</g>
<g id="Layer_4" class="st0">
	<path class="st4" d="M289.5,256.4c0.4-1,0.8-1.9,1.1-2.9c2.5-6.8,3.9-14.2,3.9-21.9V94v0V72.4c0-35.2-28.8-63.9-63.9-63.9H71.4
		C36.3,8.5,7.5,37.3,7.5,72.4v159.2c0,35.2,28.8,63.9,63.9,63.9H93h137.6C256.9,295.5,279.7,279.3,289.5,256.4z"/>
	<g class="st2">
		<path class="st3" d="M378.4,296.9V121.6V94.1c0-44.8-36.6-81.4-81.4-81.4H94.1c-44.8,0-81.4,36.6-81.4,81.4v202.8
			c0,44.8,36.6,81.4,81.4,81.4h27.5h175.3C341.7,378.4,378.4,341.7,378.4,296.9z"/>
		<path class="st3" d="M410.2,121.8v175.2c0,62.5-50.8,113.3-113.3,113.3H121.8c2.3,42.8,38,77.1,81.3,77.1h202.8
			c44.8,0,81.4-36.6,81.4-81.4V203.1C487.3,159.7,453,124,410.2,121.8z"/>
	</g>
</g>
<g id="Layer_5" class="st0">
	
		<image style="display:inline;overflow:visible;" width="1232" height="1042" xlink:href="../../../../../../../../../Users/bobbypatterson/Desktop/Screen Shot 2018-03-22 at 10.47.54 AM.png"  transform="matrix(0.5 0 0 0.5 -60 -10.5)">
	</image>
</g>
<g id="Layer_7" class="st0">
</g>
<g id="Layer_8" class="st0">
</g>
<g id="Layer_9" class="st0">
</g>
<g id="Layer_6">
	<g>
		<path class="st3" d="M227.3,130c0-12-2.7-15.6-8-19.3c-6-4.2-17.8-3.7-24.7,3.3c-2.2,2.2-10.9,11.2-21.1,21.9l53.9,42.2
			C227.4,152.2,227.3,133.3,227.3,130z"/>
		<path class="st3" d="M191.5,256.7V334c0,0-32-33-39-39s-9-8-24-8s-58,0-58,0v-71c0,0,54.7,0,69.1,0l-46.8-36.7
			c-16,0-32.1,0-37.8,0c-15.3,0-21,9.7-21,20.7c0,7.4,0,50.6,0,50.6s-0.3,43.1-0.3,52.8c0,13.3,9,19.3,21.3,19.3
			c7.3,0,75.5,0,75.5,0s64.5,66.1,69.1,70c4.7,3.9,15.9,3.2,19.9-0.1c4.7-3.9,7.4-8.4,7.8-17.9c0.2-6.7,0.3-45.1,0.3-89.7
			L191.5,256.7z"/>
		<path class="st3" d="M349.3,104.1c0.8,0.5,80.7,49.2,80.7,145.9c0,26.1-5.5,50.8-16.4,74l30.5,23.9c15.7-30.4,24-63.6,24-97.9
			c0-48.9-17.1-95.3-49.4-134c-24.3-29.1-48.8-43.9-49.9-44.5c-9-5.4-20.7-2.4-26,6.6C337.3,87.1,340.3,98.7,349.3,104.1z"/>
		<path class="st3" d="M356.9,393.7c-8.7,5.9-11,17.7-5.2,26.4c3.7,5.5,9.7,8.4,15.8,8.4c3.6,0,7.3-1,10.6-3.2
			c0.5-0.3,6-4.1,14.2-11.3l-30.5-23.9C358.7,392.5,356.9,393.7,356.9,393.7z"/>
		<path class="st3" d="M311.4,361c3.7,5,9.5,7.7,15.3,7.7c2.1,0,4.3-0.4,6.3-1.1l-25.2-19.8C307.3,352.3,308.5,357,311.4,361z"/>
		<path class="st3" d="M309.4,165.8c0.5,0.3,48.3,32.9,48.3,84.2c0,9.8-1.5,18.9-3.9,27.2l31.6,24.8c6.1-14.9,10.3-32.3,10.3-52
			c0-71.3-62.6-114-65.2-115.8c-8.7-5.8-20.5-3.5-26.4,5.2S300.7,160,309.4,165.8z"/>
		<path class="st3" d="M323,247.9c0-30.5-23.4-50.1-37.2-56.9c-9.4-4.6-20.8-0.7-25.4,8.7c-0.5,1.1-0.9,2.1-1.2,3.2l63.7,49.9
			C322.9,251.2,323,249.6,323,247.9z"/>
		<path class="st3" d="M490.4,415.5c-0.2-0.4-0.5-0.8-0.8-1.2c-0.3-0.4-0.7-0.7-1.1-1.1l-56.8-44.5c0,0,0,0,0,0l-30-23.5l-27.4-21.5
			v0L344.1,300v0l-28.3-22.2c0,0,0,0,0,0l-31.3-24.5v0l-57-44.7v0l-36-28.2v0l-6.8-5.3l0,0l-27.8-21.8c0,0,0,0,0,0L37.4,59.6
			c0,0,0,0,0,0c-0.3-0.2-0.6-0.4-1-0.6c-0.1,0-0.1-0.1-0.2-0.1c-0.3-0.2-0.7-0.3-1-0.4c-0.1,0-0.1,0-0.2-0.1
			c-0.3-0.1-0.7-0.2-1.1-0.3c0,0,0,0-0.1,0c-0.4-0.1-0.7-0.1-1.1-0.1c-0.1,0-0.1,0-0.2,0c-0.2,0-0.4,0-0.6,0c-0.1,0-0.2,0-0.2,0
			c-0.3,0-0.5,0.1-0.8,0.1c0,0-0.1,0-0.1,0c-0.2,0.1-0.4,0.1-0.6,0.2c-0.1,0-0.2,0.1-0.3,0.1c-0.2,0.1-0.3,0.1-0.5,0.2
			c-0.1,0-0.2,0.1-0.3,0.1c-0.1,0.1-0.3,0.2-0.4,0.2c-0.1,0.1-0.2,0.1-0.3,0.2c-0.1,0.1-0.3,0.2-0.4,0.3c-0.1,0.1-0.2,0.1-0.2,0.2
			c-0.1,0.1-0.3,0.2-0.4,0.4c-0.1,0.1-0.1,0.1-0.2,0.2c-0.2,0.2-0.4,0.4-0.6,0.6L13.9,77.4c-0.3,0.4-0.5,0.7-0.7,1.1
			c-0.6,1.2-0.9,2.4-0.9,3.7c0,0.5,0.1,1,0.2,1.4c0.1,0.5,0.3,0.9,0.4,1.4c0.5,1.1,1.2,2.1,2.3,2.9l116.6,91.4l29.9,23.5l29.8,23.4
			l36.1,28.3L287,301l3.6,2.9l31.4,24.6l30.2,23.6l27.3,21.4l30,23.5l56.8,44.5c0.3,0.2,0.6,0.4,1,0.6c0.1,0,0.1,0.1,0.2,0.1
			c0.3,0.2,0.7,0.3,1,0.4c0.1,0,0.1,0,0.2,0.1c0.4,0.1,0.7,0.2,1.1,0.3c0,0,0,0,0.1,0c0.4,0.1,0.7,0.1,1.1,0.1c0.1,0,0.1,0,0.2,0
			c0.2,0,0.4,0,0.6,0c0.1,0,0.2,0,0.2,0c0.3,0,0.5-0.1,0.8-0.1c0,0,0.1,0,0.1,0c0.2,0,0.4-0.1,0.6-0.2c0.1,0,0.2-0.1,0.3-0.1
			c0.2-0.1,0.3-0.1,0.5-0.2c0.1,0,0.2-0.1,0.3-0.1c0.1-0.1,0.3-0.2,0.4-0.2c0.1-0.1,0.2-0.1,0.3-0.2c0.1-0.1,0.3-0.2,0.4-0.3
			c0.1-0.1,0.2-0.1,0.2-0.2c0.1-0.1,0.3-0.2,0.4-0.4c0.1-0.1,0.1-0.1,0.2-0.2c0.2-0.2,0.4-0.4,0.5-0.6c0,0,0,0,0,0l12.9-16.5
			c0.5-0.6,0.8-1.3,1.1-2C491.7,419.7,491.5,417.4,490.4,415.5z"/>
		<path class="st5" d="M30.9,58.2c-0.2,0.1-0.4,0.1-0.6,0.2"/>
		<line class="st5" x1="15.1" y1="87.9" x2="131.8" y2="179.3"/>
		<path class="st5" d="M474.1,442.4c-0.2,0.1-0.3,0.1-0.5,0.2"/>
		<path class="st5" d="M476.1,441.1c-0.1,0.1-0.3,0.3-0.4,0.4"/>
		<path class="st5" d="M475.5,441.6c-0.1,0.1-0.3,0.2-0.4,0.3"/>
		<path class="st5" d="M474.8,442.1c-0.1,0.1-0.3,0.2-0.4,0.2"/>
		<path class="st5" d="M30.1,58.5c-0.2,0.1-0.3,0.1-0.5,0.2"/>
		<path class="st5" d="M31.8,58.1c-0.3,0-0.5,0.1-0.8,0.1"/>
		<path class="st5" d="M35,58.4c-0.3-0.1-0.7-0.2-1.1-0.3"/>
		<path class="st5" d="M37.4,59.6c-0.3-0.2-0.6-0.4-1-0.6"/>
		<path class="st5" d="M33.9,58.1c-0.4-0.1-0.7-0.1-1.1-0.1"/>
		<path class="st5" d="M473.3,442.7c-0.2,0.1-0.4,0.1-0.6,0.2"/>
		<path class="st5" d="M32.6,58c-0.2,0-0.4,0-0.6,0"/>
		<path class="st3" d="M26.8,60.9c0.2-0.2,0.4-0.4,0.6-0.6C27.1,60.5,27,60.7,26.8,60.9L13.9,77.4c-0.3,0.4-0.5,0.7-0.7,1.1
			c0.2-0.4,0.4-0.8,0.7-1.1L26.8,60.9z"/>
		<path class="st5" d="M13.1,78.5c-0.6,1.2-0.9,2.4-0.9,3.7"/>
		<path class="st5" d="M476.9,440.3c-0.2,0.2-0.4,0.4-0.5,0.6"/>
		<line class="st5" x1="227.6" y1="254.4" x2="287" y2="301"/>
		<path class="st3" d="M409.5,397l-30-23.5L409.5,397l56.8,44.5c0.3,0.2,0.6,0.4,1,0.6c-0.3-0.2-0.7-0.4-1-0.6L409.5,397z"/>
		<path class="st5" d="M468.4,442.7c-0.3-0.1-0.7-0.3-1-0.4"/>
		<path class="st5" d="M28.6,59.2c-0.1,0.1-0.3,0.2-0.4,0.3"/>
		<path class="st5" d="M469.7,443c-0.4-0.1-0.7-0.2-1.1-0.3"/>
		<path class="st5" d="M27.9,59.7c-0.1,0.1-0.3,0.2-0.4,0.4"/>
		<path class="st5" d="M471.6,443.1c-0.2,0-0.4,0-0.6,0"/>
		<path class="st5" d="M470.8,443.1c-0.4,0-0.7,0-1.1-0.1"/>
		<path class="st5" d="M36.2,58.9c-0.3-0.2-0.7-0.3-1-0.4"/>
		<path class="st5" d="M472.6,443c-0.3,0.1-0.5,0.1-0.8,0.1"/>
		<path class="st5" d="M29.3,58.8c-0.1,0.1-0.3,0.2-0.4,0.2"/>
		<polygon class="st3" points="131.8,179.3 161.7,202.8 191.5,226.2 161.7,202.8 		"/>
		<line class="st5" x1="227.6" y1="254.4" x2="191.5" y2="226.2"/>
		<polygon class="st3" points="322.1,328.5 290.6,303.9 290.6,303.9 322.1,328.5 352.2,352.1 379.5,373.5 352.2,352.1 		"/>
	</g>
</g>
</svg>
