<svg id="Layer_1" xmlns="http://www.w3.org/2000/svg" width="500" height="500">
  <style>
    .st0{fill:#fff}
  </style>
  <g id="Layer_9">
    <path class="st0" d="M227.3 130c0-12-2.7-15.6-8-19.3-6-4.2-17.8-3.7-24.7 3.3-6.1 6.2-62.9 65.3-62.9 65.3H54.9c-15.3 0-21 9.7-21 20.7v50.6s-.3 43.1-.3 52.8c0 13.3 9 19.3 21.3 19.3h75.5s64.5 66.1 69.1 70c4.7 3.9 15.9 3.2 19.9-.1 4.7-3.9 7.4-8.4 7.8-17.9.7-16.7.1-232.7.1-244.7zm-35.8 204s-32-33-39-39-9-8-24-8h-58v-71h70c13 0 24-17 24-17l27-32v167zM367.5 428.5c-6.1 0-12.1-2.9-15.8-8.4-5.9-8.7-3.5-20.5 5.2-26.4.1-.1 18.8-13 37.1-37.3 23.9-31.9 36-67.7 36-106.4 0-96.7-79.9-145.4-80.7-145.9-9-5.4-12-17-6.6-26s17-12 26-6.6c1 .6 25.6 15.4 49.9 44.5 32.3 38.8 49.4 85.1 49.4 134 0 47-15.4 92.1-44.6 130.5-22 29-44.3 44.1-45.3 44.8-3.2 2.2-6.9 3.2-10.6 3.2z"/>
    <path class="st0" d="M326.7 368.7c-5.8 0-11.6-2.7-15.3-7.7-6.2-8.4-4.4-20.3 4-26.6.4-.3 42.4-32.5 42.4-84.4 0-51.3-47.9-83.9-48.3-84.2-8.7-5.8-11.1-17.6-5.2-26.4s17.6-11.1 26.4-5.2c2.7 1.8 65.2 44.5 65.2 115.8 0 71.4-55.5 113.2-57.8 115-3.5 2.5-7.5 3.7-11.4 3.7z"/>
    <path class="st0" d="M294.3 309.7c-7.7 4.7-18.8 2.8-24.3-4.7-6.6-9.2-3.2-18.9 2.8-25.4s13.7-10.5 13.7-28.7c0-15.5-18.2-26.8-18.4-26.9-8.8-5.1-11.8-16.5-6.7-25.3 5.1-8.8 16.5-11.8 25.3-6.7 1.5.9 36.8 21.8 36.8 58.9 0 30-20.3 53.3-29.2 58.8z"/>
  </g>
</svg>
