<?xml version="1.0" encoding="utf-8"?>
<!-- Generator: Adobe Illustrator 22.0.0, SVG Export Plug-In . SVG Version: 6.00 Build 0)  -->
<svg version="1.1" xmlns="http://www.w3.org/2000/svg" xmlns:xlink="http://www.w3.org/1999/xlink" x="0px" y="0px" width="500px"
	 height="500px" viewBox="0 0 500 500" style="enable-background:new 0 0 500 500;" xml:space="preserve">
<style type="text/css">
	.st0{display:none;}
	.st1{display:inline;stroke:#FFFFFF;stroke-miterlimit:10;}
	.st2{display:inline;}
	.st3{fill:#FFFFFF;}
	.st4{display:inline;fill:none;}
</style>
<g id="Layer_2" class="st0">
	<rect x="-17" y="-19" class="st1" width="539" height="528"/>
</g>
<g id="Layer_3" class="st0">
	<g class="st2">
		<path class="st3" d="M391.2,193.9c0-1.5,0.7-3,1.9-3.9l83.8-65.2c3-2.4,5.7-4,9.5-4c1.7,0,3.5,0.4,5.3,1.1
			c5.5,2.4,8.3,6.6,8.3,12.5v231.3c0,6-2.8,10.1-8.3,12.6c-1.9,0.7-3.6,1.1-5.3,1.1c-3.8,0-6-1.4-9.5-4L393,307.6
			c-1.2-0.9-1.9-2.4-1.9-3.9V193.9z"/>
		<g>
			<path class="st3" d="M173.1,170.4c-43.9,0-79.6,35.7-79.6,79.6c0,43.9,35.7,79.6,79.6,79.6c43.9,0,79.6-35.7,79.6-79.6
				C252.7,206.1,217,170.4,173.1,170.4z"/>
			<path class="st3" d="M297.1,76.9H49c-27,0-49,22.1-49,49v248.1c0,27,22.1,49,49,49h248.1c27,0,49-22.1,49-49V125.9
				C346.1,99,324.1,76.9,297.1,76.9z M173.1,379.2c-71.3,0-129.2-58-129.2-129.2c0-71.3,58-129.2,129.2-129.2
				c71.3,0,129.2,58,129.2,129.2C302.3,321.3,244.3,379.2,173.1,379.2z"/>
		</g>
	</g>
</g>
<g id="Layer_4" class="st0">
	<path class="st4" d="M289.5,256.4c0.4-1,0.8-1.9,1.1-2.9c2.5-6.8,3.9-14.2,3.9-21.9V94v0V72.4c0-35.2-28.8-63.9-63.9-63.9H71.4
		C36.3,8.5,7.5,37.3,7.5,72.4v159.2c0,35.2,28.8,63.9,63.9,63.9H93h137.6C256.9,295.5,279.7,279.3,289.5,256.4z"/>
	<g class="st2">
		<path class="st3" d="M378.4,296.9V121.6V94.1c0-44.8-36.6-81.4-81.4-81.4H94.1c-44.8,0-81.4,36.6-81.4,81.4v202.8
			c0,44.8,36.6,81.4,81.4,81.4h27.5h175.3C341.7,378.4,378.4,341.7,378.4,296.9z"/>
		<path class="st3" d="M410.2,121.8v175.2c0,62.5-50.8,113.3-113.3,113.3H121.8c2.3,42.8,38,77.1,81.3,77.1h202.8
			c44.8,0,81.4-36.6,81.4-81.4V203.1C487.3,159.7,453,124,410.2,121.8z"/>
	</g>
</g>
<g id="Layer_5" class="st0">
	
		<image style="display:inline;overflow:visible;" width="1232" height="1042" xlink:href="../../../../../../../../../Users/bobbypatterson/Desktop/Screen Shot 2018-03-22 at 10.47.54 AM.png"  transform="matrix(0.5 0 0 0.5 -60 -10.5)">
	</image>
</g>
<g id="Layer_7" class="st0">
</g>
<g id="Layer_8" class="st0">
</g>
<g id="Layer_6" class="st0">
	<g class="st2">
		<path d="M470.9,454.6c-4.2,0-8.4-1.4-11.7-4L8.1,97c-8.3-6.5-9.7-18.5-3.2-26.7l12.9-16.5c3.6-4.6,9.1-7.3,15-7.3
			c4.2,0,8.4,1.4,11.7,4l451.1,353.6c4,3.1,6.5,7.6,7.1,12.7s-0.8,10-3.9,14l-12.9,16.5C482.3,452,476.8,454.6,470.9,454.6z"/>
		<path class="st3" d="M32.7,58c1.6,0,3.3,0.5,4.6,1.6l451.2,353.6c3.3,2.6,3.8,7.3,1.3,10.6l-12.9,16.5c-1.5,1.9-3.7,2.9-5.9,2.9
			c-1.6,0-3.3-0.5-4.6-1.6L15.1,87.9c-3.3-2.6-3.8-7.3-1.3-10.6l12.9-16.5C28.3,59,30.5,58,32.7,58 M32.7,35
			c-9.5,0-18.2,4.3-24,11.7L-4.2,63.2C-14.6,76.4-12.3,95.7,1,106l451.2,353.6c5.3,4.2,12,6.5,18.8,6.5c9.5,0,18.2-4.3,24-11.7
			l12.9-16.5c10.4-13.2,8.1-32.5-5.2-42.9L51.5,41.5C46.2,37.3,39.5,35,32.7,35L32.7,35z"/>
	</g>
</g>
<g id="Layer_9">
	<g>
		<path class="st3" d="M227.3,130c0-12-2.7-15.6-8-19.3c-6-4.2-17.8-3.7-24.7,3.3c-6.1,6.2-62.9,65.3-62.9,65.3s-64.1,0-76.8,0
			c-15.3,0-21,9.7-21,20.7c0,7.4,0,50.6,0,50.6s-0.3,43.1-0.3,52.8c0,13.3,9,19.3,21.3,19.3c7.3,0,75.5,0,75.5,0s64.5,66.1,69.1,70
			c4.7,3.9,15.9,3.2,19.9-0.1c4.7-3.9,7.4-8.4,7.8-17.9C227.9,358,227.3,142,227.3,130z M191.5,334c0,0-32-33-39-39s-9-8-24-8
			s-58,0-58,0v-71c0,0,57,0,70,0s24-17,24-17l27-32V334z"/>
		<path class="st3" d="M367.5,428.5c-6.1,0-12.1-2.9-15.8-8.4c-5.9-8.7-3.5-20.5,5.2-26.4c0.1-0.1,18.8-13,37.1-37.3
			C417.9,324.5,430,288.7,430,250c0-96.7-79.9-145.4-80.7-145.9c-9-5.4-12-17-6.6-26c5.4-9,17-12,26-6.6c1,0.6,25.6,15.4,49.9,44.5
			c32.3,38.8,49.4,85.1,49.4,134c0,47-15.4,92.1-44.6,130.5c-22,29-44.3,44.1-45.3,44.8C374.9,427.5,371.2,428.5,367.5,428.5z"/>
		<path class="st3" d="M326.7,368.7c-5.8,0-11.6-2.7-15.3-7.7c-6.2-8.4-4.4-20.3,4-26.6c0.4-0.3,42.4-32.5,42.4-84.4
			c0-51.3-47.9-83.9-48.3-84.2c-8.7-5.8-11.1-17.6-5.2-26.4s17.6-11.1,26.4-5.2c2.7,1.8,65.2,44.5,65.2,115.8
			c0,71.4-55.5,113.2-57.8,115C334.6,367.5,330.6,368.7,326.7,368.7z"/>
		<path class="st3" d="M294.3,309.7c-7.7,4.7-18.8,2.8-24.3-4.7c-6.6-9.2-3.2-18.9,2.8-25.4s13.7-10.5,13.7-28.7
			c0-15.5-18.2-26.8-18.4-26.9c-8.8-5.1-11.8-16.5-6.7-25.3c5.1-8.8,16.5-11.8,25.3-6.7c1.5,0.9,36.8,21.8,36.8,58.9
			C323.5,280.9,303.2,304.2,294.3,309.7z"/>
	</g>
</g>
</svg>
