<svg data-name="Layer 3" xmlns="http://www.w3.org/2000/svg" viewBox="0 0 64.27 44.49">
  <path d="M50.28 15.04a.64.64 0 0 1 .27-.54l10.77-8.38a1.89 1.89 0 0 1 1.23-.52 2 2 0 0 1 .69.14 1.63 1.63 0 0 1 1.06 1.61v29.73a1.64 1.64 0 0 1-1.06 1.61 2 2 0 0 1-.69.14 1.86 1.86 0 0 1-1.23-.52l-10.77-8.66a.64.64 0 0 1-.24-.5zM22.25 12.01a10.23 10.23 0 1 0 10.23 10.23 10.24 10.24 0 0 0-10.23-10.23z" fill="#fff"/>
  <path d="M38.2 0H6.3A6.32 6.32 0 0 0 0 6.3v31.89a6.32 6.32 0 0 0 6.3 6.3h31.89a6.32 6.32 0 0 0 6.3-6.3V6.3A6.32 6.32 0 0 0 38.2 0zM22.25 38.86a16.61 16.61 0 1 1 16.61-16.61 16.63 16.63 0 0 1-16.61 16.61z" fill="#fff"/>
</svg>
