<svg data-name="5f44d7c6-c1b4-4ad4-be8e-4c80ccd6de0f" xmlns="http://www.w3.org/2000/svg" viewBox="0 0 489.02 326.8">
  <path d="M167.58 86.63c-43.9 0-79.61 34.44-79.61 76.77s35.71 76.77 79.61 76.77 79.6-34.44 79.6-76.77-35.67-76.77-79.6-76.77z" fill="#fff"/>
  <path d="M382.29 110.64a4.65 4.65 0 0 1 1.88-3.72l81.75-61.42c2.93-2.25 5.59-3.8 9.32-3.8a15.27 15.27 0 0 1 5.2 1q8.07 3.46 8.07 11.85v217.66q0 8.4-8.08 11.82a15.27 15.27 0 0 1-5.2 1c-3.72 0-5.86-1.3-9.32-3.8l-81.83-63.62a4.65 4.65 0 0 1-1.82-3.66zM290.51.5H48.33C22.03.5.51 21.26.51 46.64v233.52c0 25.34 21.52 46.14 47.82 46.14h242.18c26.35 0 47.83-20.76 47.83-46.14V46.64C338.35 21.26 316.81.5 290.51.5zM169.42 285.04c-69.56 0-126.14-54.54-126.14-121.64S99.89 41.76 169.42 41.76 295.57 96.33 295.57 163.4s-56.59 121.64-126.15 121.64z" fill="#fff" stroke="#efefef" stroke-miterlimit="10"/>
</svg>
