<svg id="e0163367-6bd8-43f3-ba36-4848ac32b07f" data-name="Layer 3" xmlns="http://www.w3.org/2000/svg" viewBox="0 0 64.27 44.49"><title>videoIconSprite</title><path d="M246.73,237.54A.64.64,0,0,1,247,237l10.77-8.38a1.89,1.89,0,0,1,1.23-.52,2,2,0,0,1,.69.14,1.63,1.63,0,0,1,1.06,1.61v29.73a1.64,1.64,0,0,1-1.06,1.61,2,2,0,0,1-.69.14,1.86,1.86,0,0,1-1.23-.52L247,252.15a.64.64,0,0,1-.24-.5Z" transform="translate(-196.45 -222.5)" fill="#fff"/><path d="M218.7,234.51a10.23,10.23,0,1,0,10.23,10.23A10.24,10.24,0,0,0,218.7,234.51Z" transform="translate(-196.45 -222.5)" fill="#fff"/><path d="M234.65,222.5H202.75a6.32,6.32,0,0,0-6.3,6.3v31.89a6.32,6.32,0,0,0,6.3,6.3h31.89a6.32,6.32,0,0,0,6.3-6.3V228.8A6.32,6.32,0,0,0,234.65,222.5ZM218.7,261.36a16.61,16.61,0,1,1,16.61-16.61A16.63,16.63,0,0,1,218.7,261.36Z" transform="translate(-196.45 -222.5)" fill="#fff"/></svg>