<svg id="998e2aab-f999-491f-b498-ed016cf80c63" data-name="5f44d7c6-c1b4-4ad4-be8e-4c80ccd6de0f" xmlns="http://www.w3.org/2000/svg" viewBox="0 0 489.02 326.8"><title>videoIcon</title><path d="M173.07,90.13c-43.9,0-79.61,34.44-79.61,76.77s35.71,76.77,79.61,76.77,79.6-34.44,79.6-76.77S217,90.13,173.07,90.13Z" transform="translate(-5.49 -3.5)" fill="#fff"/><path d="M387.78,114.14a4.65,4.65,0,0,1,1.88-3.72L471.41,49c2.93-2.25,5.59-3.8,9.32-3.8a15.27,15.27,0,0,1,5.2,1Q494,49.66,494,58.05V275.71q0,8.4-8.08,11.82a15.27,15.27,0,0,1-5.2,1c-3.72,0-5.86-1.3-9.32-3.8l-81.83-63.62a4.65,4.65,0,0,1-1.82-3.66Z" transform="translate(-5.49 -3.5)" fill="#fff" stroke="#efefef" stroke-miterlimit="10"/><path d="M296,4H53.82C27.52,4,6,24.76,6,50.14V283.66C6,309,27.52,329.8,53.82,329.8H296c26.35,0,47.83-20.76,47.83-46.14V50.14C343.84,24.76,322.3,4,296,4ZM174.91,288.54C105.35,288.54,48.77,234,48.77,166.9S105.38,45.26,174.91,45.26,301.06,99.83,301.06,166.9,244.47,288.54,174.91,288.54Z" transform="translate(-5.49 -3.5)" fill="#fff" stroke="#efefef" stroke-miterlimit="10"/></svg>