<svg id="77ac3904-6078-48ad-be72-8210c71ac03d" data-name="Component" xmlns="http://www.w3.org/2000/svg" viewBox="0 0 893.77 91.88"><title>bobbypattersonWhite</title><path d="M38.67,27.66,7.36,46.78,38.67,65.89l-4.4,6.28L0,50.81V42.65L34.54,21.29Z" transform="translate(0 -2.18)" fill="#fff"/><path d="M88.38,70.69q-6.73,4.17-16.87,4.17H54.28V13h16q9.6,0,15.88,3.63t6.28,12a12.41,12.41,0,0,1-3.27,9,15.75,15.75,0,0,1-8.21,4.49q14.18,2.42,14.18,15.07Q95.11,66.52,88.38,70.69Zm-8-48.5q-3-2.24-8.75-2.24H63.17V39.06h9.15q11,0,11-9.78Q83.36,24.43,80.35,22.19Zm2,26.38q-3.45-2.51-9.38-2.51H63.17V67.68h9.42q13.19,0,13.19-10.41Q85.78,51.08,82.32,48.57Z" transform="translate(0 -2.18)" fill="#fff"/><path d="M142.4,33q5.38,6.64,5.38,18.12,0,11.31-5.47,18T127,75.94q-10.05,0-15.43-6.6t-5.38-18.08q0-11.3,5.47-18.08t15.43-6.77Q137,26.41,142.4,33Zm-24.18,4.67q-2.92,4.4-2.92,13.55t2.87,13.46q2.87,4.4,8.79,4.4t8.79-4.4q2.87-4.4,2.87-13.55t-2.87-13.46q-2.87-4.39-8.7-4.4T118.21,37.71Z" transform="translate(0 -2.18)" fill="#fff"/><path d="M177,28.25a15.26,15.26,0,0,1,7.36-1.84q9.06,0,13.37,6.5t4.31,18.26q0,11-5,17.9a16.16,16.16,0,0,1-13.86,6.86q-8.08,0-12.65-5.92L170,74.86H162.4V8.55L171,7.48v26A18.78,18.78,0,0,1,177,28.25Zm12.79,36.47q3-4.49,3-13.55,0-17.94-10.59-17.95a10.49,10.49,0,0,0-6.24,2,19.94,19.94,0,0,0-5,5.25V63.38a13.93,13.93,0,0,0,4.49,4.31,11,11,0,0,0,5.65,1.52A9.79,9.79,0,0,0,189.82,64.72Z" transform="translate(0 -2.18)" fill="#fff"/><path d="M230.86,28.25a15.26,15.26,0,0,1,7.36-1.84q9.06,0,13.37,6.5t4.31,18.26q0,11-5,17.9a16.16,16.16,0,0,1-13.86,6.86Q229,75.94,224.4,70l-.54,4.84h-7.63V8.55l8.61-1.08v26A18.78,18.78,0,0,1,230.86,28.25Zm12.79,36.47q3-4.49,3-13.55,0-17.94-10.59-17.95a10.49,10.49,0,0,0-6.24,2,19.94,19.94,0,0,0-5,5.25V63.38a13.93,13.93,0,0,0,4.49,4.31A11,11,0,0,0,235,69.21,9.79,9.79,0,0,0,243.65,64.72Z" transform="translate(0 -2.18)" fill="#fff"/><path d="M293.85,75.13A31.73,31.73,0,0,1,286,88.32q-5.07,4.84-14.13,5.74l-1.17-6.73A25.5,25.5,0,0,0,278.24,85a12.64,12.64,0,0,0,4.53-3.9,25.83,25.83,0,0,0,3-6.24h-3L266.58,27.57h9.15l12.92,41,12.83-41h8.88Z" transform="translate(0 -2.18)" fill="#fff"/><path d="M359.22,47.4q-6.42,4.84-17.54,4.85h-7.81V74.86H325V13h16.33q11.66,0,18,4.8t6.33,14.4Q365.63,42.56,359.22,47.4Zm-6.73-24.58q-3.72-3-10.27-3h-8.34V45.34h8.25q6.64,0,10.36-3t3.72-10.14Q356.21,25.78,352.49,22.82Z" transform="translate(0 -2.18)" fill="#fff"/><path d="M413.5,68.09A5.07,5.07,0,0,0,416.42,70l-2.06,5.92q-7.09-.9-9.15-6.64a16.24,16.24,0,0,1-6.37,4.93,20.88,20.88,0,0,1-8.52,1.71q-7.18,0-11.31-4t-4.13-10.63A13,13,0,0,1,380.66,50q5.79-4,16.55-4H404v-3.5q0-4.75-2.78-6.91t-8.08-2.15a38.11,38.11,0,0,0-12.47,2.42l-2.24-6.28a46.87,46.87,0,0,1,16-3.14q9,0,13.59,4.08t4.62,11.44V64A7.6,7.6,0,0,0,413.5,68.09Zm-14.45-.22a14.26,14.26,0,0,0,5-4.76V51.62h-6.28q-7.18,0-10.45,2.42A8.27,8.27,0,0,0,384,61.13q0,4.13,2.15,6.28t6.46,2.15A12.8,12.8,0,0,0,399.06,67.86Z" transform="translate(0 -2.18)" fill="#fff"/><path d="M464,75a27.16,27.16,0,0,1-7.09.94q-7.81,0-12.07-4a14.13,14.13,0,0,1-4.26-10.77V34H429.88V27.57h10.68V16.9l8.61-1V27.57h16.24L464.33,34H449.17V61q0,3.95,2.06,5.88t6.64,1.93a18.83,18.83,0,0,0,9-2.24l3.23,5.83A22.69,22.69,0,0,1,464,75Z" transform="translate(0 -2.18)" fill="#fff"/><path d="M517.81,75a27.16,27.16,0,0,1-7.09.94q-7.81,0-12.07-4a14.13,14.13,0,0,1-4.26-10.77V34H483.71V27.57h10.68V16.9l8.61-1V27.57h16.24L518.17,34H503V61q0,3.95,2.06,5.88t6.64,1.93a18.83,18.83,0,0,0,9-2.24l3.23,5.83A22.69,22.69,0,0,1,517.81,75Z" transform="translate(0 -2.18)" fill="#fff"/><path d="M550.33,65.3A12.71,12.71,0,0,0,559.71,69a19.24,19.24,0,0,0,6.37-1,27.76,27.76,0,0,0,6.19-3.18l3.86,5.47a24.58,24.58,0,0,1-7.72,4.17,27.94,27.94,0,0,1-9,1.48q-10.5,0-16.33-6.73t-5.83-17.95a30.52,30.52,0,0,1,2.56-12.79,20.78,20.78,0,0,1,7.36-8.84,19.53,19.53,0,0,1,11.17-3.23q9.15,0,14.45,6.28t5.29,17.14q0,2.15-.18,4.31H546.25Q546.61,61.58,550.33,65.3ZM550,36.86q-3.28,3.72-3.72,11h23.51q-.09-7.09-3.1-10.9a9.89,9.89,0,0,0-8.21-3.81A10.77,10.77,0,0,0,550,36.86Z" transform="translate(0 -2.18)" fill="#fff"/><path d="M632.66,27.57l-1.35,16.6h-6.64V34.3h-.09q-10.68,0-15.16,15.25V68.49H619v6.37H593.54V68.49h7.27V33.94h-7.27V27.57h13.82l1.52,11a23.06,23.06,0,0,1,6.78-9.11,16.31,16.31,0,0,1,10.09-3A24.65,24.65,0,0,1,632.66,27.57Z" transform="translate(0 -2.18)" fill="#fff"/><path d="M671.69,67.23a5.8,5.8,0,0,0,3-5.11,7.46,7.46,0,0,0-.81-3.68,7.09,7.09,0,0,0-3.23-2.6,42.11,42.11,0,0,0-7.36-2.42q-8.08-2.06-12-5t-3.9-8.7a11.34,11.34,0,0,1,5-9.65q5-3.63,13.28-3.63,10.32,0,17.59,5.38l-3.77,5.65a27.3,27.3,0,0,0-6.19-3.1,22.38,22.38,0,0,0-7.36-1.12q-9.69,0-9.69,5.74a4.78,4.78,0,0,0,1.08,3.23A9.74,9.74,0,0,0,661,44.53,62.55,62.55,0,0,0,668.55,47q7.71,2.06,11.53,5.25t3.81,9.38A11.79,11.79,0,0,1,678,72.35q-5.88,3.59-14.49,3.59-11.4,0-18.84-6.46L649.35,64a21.64,21.64,0,0,0,6.5,3.77,21.89,21.89,0,0,0,7.67,1.35Q668.73,69.12,671.69,67.23Z" transform="translate(0 -2.18)" fill="#fff"/><path d="M734.59,33Q740,39.69,740,51.17q0,11.31-5.47,18t-15.34,6.73q-10,0-15.43-6.6t-5.38-18.08q0-11.3,5.47-18.08t15.43-6.77Q729.2,26.41,734.59,33ZM710.4,37.71q-2.92,4.4-2.92,13.55t2.87,13.46q2.87,4.4,8.79,4.4t8.79-4.4q2.87-4.4,2.87-13.55t-2.87-13.46q-2.87-4.39-8.7-4.4T710.4,37.71Z" transform="translate(0 -2.18)" fill="#fff"/><path d="M754.59,27.57H762l.63,6.37a20.26,20.26,0,0,1,15.52-7.54q6.64,0,10,3.63t3.32,10.45V74.86h-8.61V45.79a39.77,39.77,0,0,0-.54-7.54,6.29,6.29,0,0,0-2.15-3.86,7.82,7.82,0,0,0-4.85-1.26,11.72,11.72,0,0,0-6.77,2.2,20.62,20.62,0,0,0-5.34,5.34V74.86h-8.61Z" transform="translate(0 -2.18)" fill="#fff"/><path d="M804.3,81.14l38.22-79,6.82,3.23L811.21,84.19Z" transform="translate(0 -2.18)" fill="#fff"/><path d="M893.77,42.65v8.17L859.5,72.17l-4.4-6.28,31.22-19.11-31.22-19,4.13-6.46Z" transform="translate(0 -2.18)" fill="#fff"/></svg>