<svg viewBox="0 0 886.22 88.74" xmlns="http://www.w3.org/2000/svg"><g fill="#3b4550" transform="translate(-3.78 -3.75)"><path d="m41.13 28.36-30.25 18.46 30.25 18.46-4.25 6.07-33.1-20.63v-7.88l33.36-20.63z"/><path d="m89.14 69.92q-6.5 4-16.29 4h-16.64v-59.68h15.42q9.27 0 15.34 3.51t6.03 11.57a12 12 0 0 1 -3.13 8.68 15.21 15.21 0 0 1 -7.93 4.33q13.69 2.34 13.69 14.56.01 9-6.49 13.03zm-7.76-46.84q-2.9-2.17-8.45-2.17h-8.15v18.46h8.84q10.66 0 10.66-9.45 0-4.68-2.9-6.84zm1.91 25.48q-3.34-2.42-9.06-2.43h-9.45v20.87h9.1q12.74 0 12.74-10 0-6-3.33-8.45z"/><path d="m141.3 33.56q5.2 6.41 5.2 17.51 0 10.92-5.29 17.42t-14.81 6.51q-9.71 0-14.91-6.37t-5.2-17.46q0-10.92 5.29-17.46t14.91-6.54q9.62-.02 14.81 6.39zm-23.35 4.51q-2.82 4.25-2.82 13.09t2.77 13q2.77 4.25 8.49 4.25t8.49-4.25q2.77-4.25 2.77-13.09t-2.77-13q-2.77-4.24-8.41-4.25t-8.52 4.25z"/><path d="m174.75 28.93a14.74 14.74 0 0 1 7.11-1.78q8.75 0 12.91 6.28t4.16 17.64q0 10.66-4.81 17.29a15.61 15.61 0 0 1 -13.39 6.64q-7.8 0-12.22-5.72l-.51 4.67h-7.37v-64.05l8.32-1v25.1a18.14 18.14 0 0 1 5.8-5.07zm12.35 35.22q2.9-4.33 2.9-13.09 0-17.33-10.23-17.33a10.13 10.13 0 0 0 -6 1.95 19.26 19.26 0 0 0 -4.81 5.07v22.1a13.45 13.45 0 0 0 4.32 4.15 10.6 10.6 0 0 0 5.46 1.47 9.46 9.46 0 0 0 8.36-4.32z"/><path d="m226.75 28.93a14.74 14.74 0 0 1 7.11-1.78q8.75 0 12.91 6.28t4.16 17.64q0 10.66-4.81 17.29a15.61 15.61 0 0 1 -13.39 6.64q-7.8 0-12.22-5.72l-.51 4.67h-7.37v-64.05l8.32-1v25.1a18.14 18.14 0 0 1 5.8-5.07zm12.35 35.22q2.9-4.33 2.9-13.09 0-17.33-10.23-17.33a10.13 10.13 0 0 0 -6 1.95 19.26 19.26 0 0 0 -4.81 5.07v22.1a13.45 13.45 0 0 0 4.32 4.15 10.6 10.6 0 0 0 5.46 1.47 9.46 9.46 0 0 0 8.36-4.32z"/><path d="m287.58 74.21a30.65 30.65 0 0 1 -7.58 12.73q-4.9 4.68-13.65 5.55l-1.12-6.49a24.63 24.63 0 0 0 7.28-2.25 12.21 12.21 0 0 0 4.37-3.75 25 25 0 0 0 2.9-6h-2.86l-15.68-45.72h8.84l12.48 39.6 12.39-39.6h8.58z"/><path d="m350.71 47.43q-6.2 4.68-16.94 4.68h-7.54v21.84h-8.58v-59.71h15.77q11.26 0 17.38 4.64t6.11 13.91q0 9.96-6.2 14.64zm-6.5-23.74q-3.6-2.86-9.92-2.86h-8.06v24.61h8q6.41 0 10-2.86t3.6-9.79q-.02-6.25-3.62-9.11z"/><path d="m403.14 67.4a4.9 4.9 0 0 0 2.86 1.87l-2 5.73q-6.85-.87-8.84-6.41a15.68 15.68 0 0 1 -6.16 4.75 20.17 20.17 0 0 1 -8.26 1.66q-6.93 0-10.92-3.86a13.63 13.63 0 0 1 -4-10.27 12.53 12.53 0 0 1 5.59-11q5.59-3.87 16-3.87h6.59v-3.34q0-4.59-2.69-6.67t-7.8-2.08a36.8 36.8 0 0 0 -12 2.34l-2.17-6.07a45.27 45.27 0 0 1 15.43-3q8.66 0 13.13 3.94t4.46 11v21.34a7.34 7.34 0 0 0 .78 3.94zm-14-.22a13.77 13.77 0 0 0 4.86-4.59v-11.09h-6.07q-6.93 0-10.1 2.34a8 8 0 0 0 -3.16 6.85 8.22 8.22 0 0 0 2.08 6.07q2.08 2.08 6.24 2.08a12.36 12.36 0 0 0 6.2-1.65z"/><path d="m451.89 74.08a26.23 26.23 0 0 1 -6.89.92q-7.54 0-11.66-3.9a13.65 13.65 0 0 1 -4.12-10.4v-26.18h-10.22v-6.24h10.31v-10.28l8.32-1v11.28h15.69l-1 6.24h-14.73v26.08q0 3.81 2 5.68t6.41 1.86a18.19 18.19 0 0 0 8.66-2.14l3.12 5.63a21.92 21.92 0 0 1 -5.89 2.45z"/><path d="m503.88 74.08a26.23 26.23 0 0 1 -6.88.92q-7.54 0-11.66-3.9a13.65 13.65 0 0 1 -4.12-10.4v-26.18h-10.22v-6.24h10.31v-10.28l8.32-1v11.28h15.69l-1 6.24h-14.73v26.08q0 3.81 2 5.68t6.41 1.86a18.19 18.19 0 0 0 8.66-2.14l3.12 5.63a21.91 21.91 0 0 1 -5.9 2.45z"/><path d="m535.3 64.72a12.27 12.27 0 0 0 9.06 3.6 18.58 18.58 0 0 0 6.15-1 26.81 26.81 0 0 0 6-3.08l3.73 5.29a23.74 23.74 0 0 1 -7.45 4 27 27 0 0 1 -8.7 1.47q-10.14 0-15.77-6.5t-5.63-17.33a29.47 29.47 0 0 1 2.47-12.35 20.07 20.07 0 0 1 7.11-8.54 18.86 18.86 0 0 1 10.79-3.12q8.84 0 14 6.07t5.11 16.55q0 2.08-.17 4.16h-30.65q.35 7.18 3.95 10.78zm-.3-27.47q-3.16 3.6-3.6 10.62h22.71q-.09-6.85-3-10.53a9.55 9.55 0 0 0 -7.93-3.68 10.4 10.4 0 0 0 -8.18 3.59z"/><path d="m614.81 28.28-1.3 16h-6.41v-9.5h-.1q-10.31 0-14.65 14.73v18.28h9.27v6.15h-24.62v-6.15h7v-33.36h-7v-6.15h13.35l1.47 10.66a22.27 22.27 0 0 1 6.54-8.8 15.76 15.76 0 0 1 9.75-2.9 23.8 23.8 0 0 1 6.7 1.04z"/><path d="m652.5 66.58a5.6 5.6 0 0 0 2.86-4.94 7.2 7.2 0 0 0 -.78-3.55 6.85 6.85 0 0 0 -3.12-2.51 40.67 40.67 0 0 0 -7.11-2.34q-7.8-2-11.57-4.85t-3.78-8.39a11 11 0 0 1 4.85-9.32q4.85-3.51 12.82-3.51a27.74 27.74 0 0 1 17 5.2l-3.67 5.44a26.37 26.37 0 0 0 -6-3 21.62 21.62 0 0 0 -7-1.07q-9.36 0-9.36 5.55a4.62 4.62 0 0 0 1 3.12 9.4 9.4 0 0 0 3.51 2.25 60.41 60.41 0 0 0 7.32 2.34q7.45 2 11.14 5.07t3.68 9.06a11.39 11.39 0 0 1 -5.68 10.4q-5.68 3.47-14 3.47-11 0-18.2-6.24l4.51-5.29a20.9 20.9 0 0 0 6.28 3.64 21.14 21.14 0 0 0 7.41 1.3 14.62 14.62 0 0 0 7.89-1.83z"/><path d="m713.25 33.56q5.2 6.41 5.2 17.51 0 10.92-5.29 17.42t-14.82 6.51q-9.71 0-14.91-6.37t-5.2-17.46q0-10.92 5.29-17.46t14.91-6.54q9.62-.02 14.82 6.39zm-23.35 4.51q-2.82 4.25-2.82 13.09t2.77 13q2.77 4.25 8.49 4.25t8.49-4.25q2.77-4.25 2.77-13.09t-2.77-13q-2.78-4.24-8.41-4.25t-8.52 4.25z"/><path d="m732.57 28.28h7.19l.61 6.15a19.57 19.57 0 0 1 15-7.28q6.41 0 9.62 3.51t3.21 10.1v33.19h-8.32v-28.08a38.41 38.41 0 0 0 -.52-7.28 6.08 6.08 0 0 0 -2.08-3.73 7.56 7.56 0 0 0 -4.68-1.21 11.32 11.32 0 0 0 -6.54 2.12 19.91 19.91 0 0 0 -5.16 5.16v33h-8.32z"/><path d="m803.58 80 36.92-76.25 6.59 3.12-36.83 76.13z"/><path d="m890 42.84v7.89l-33.1 20.62-4.25-6.07 30.15-18.46-30.15-18.37 4-6.24z"/></g></svg>