<svg id="4e37d5b3-2110-4bf1-9f32-804cf723b200" data-name="Layer 1" xmlns="http://www.w3.org/2000/svg" viewBox="0 0 879.14 85.37"><title>bobbypattersonTerminalGray</title><path d="M21.58,31.9a15.94,15.94,0,0,1,7.18-1.65q8.83,0,13,5.82T46,52.42q0,9.87-4.86,16T27.62,74.58q-7.87,0-12.34-5.3l-.52,4.34H7.32V14.27l8.4-1V36.6A18,18,0,0,1,21.58,31.9ZM34.05,64.54Q37,60.53,37,52.42q0-16.06-10.33-16.06a10.85,10.85,0,0,0-6.08,1.81,18.62,18.62,0,0,0-4.86,4.7V63.34a13.12,13.12,0,0,0,4.38,3.86,11.47,11.47,0,0,0,5.51,1.37A9.82,9.82,0,0,0,34.05,64.54Z" transform="translate(-7.32 -5.44)" fill="#3b4550"/><path d="M92.82,36.2q5.25,5.94,5.25,16.22,0,10.12-5.34,16.14t-15,6q-9.8,0-15.05-5.9T57.46,52.5q0-10.12,5.34-16.18t15.05-6.06Q87.57,30.25,92.82,36.2ZM69.23,40.37Q66.38,44.3,66.39,52.5t2.8,12q2.8,3.94,8.58,3.94t8.57-3.94q2.8-3.93,2.8-12.12t-2.8-12q-2.8-3.94-8.49-3.94T69.23,40.37Z" transform="translate(-7.32 -5.44)" fill="#3b4550"/><path d="M126.6,31.9a15.94,15.94,0,0,1,7.18-1.65q8.83,0,13,5.82T151,52.42q0,9.87-4.86,16t-13.52,6.14q-7.87,0-12.34-5.3l-.52,4.34h-7.44V14.27l8.4-1V36.6A18,18,0,0,1,126.6,31.9Zm12.47,32.64q2.93-4,2.93-12.12,0-16.06-10.33-16.06a10.85,10.85,0,0,0-6.08,1.81,18.62,18.62,0,0,0-4.86,4.7V63.34a13.12,13.12,0,0,0,4.38,3.86,11.47,11.47,0,0,0,5.51,1.37A9.82,9.82,0,0,0,139.07,64.54Z" transform="translate(-7.32 -5.44)" fill="#3b4550"/><path d="M179.1,31.9a15.94,15.94,0,0,1,7.18-1.65q8.83,0,13,5.82t4.2,16.34q0,9.87-4.86,16t-13.52,6.14q-7.87,0-12.34-5.3l-.52,4.34h-7.44V14.27l8.4-1V36.6A18,18,0,0,1,179.1,31.9Zm12.47,32.64q2.93-4,2.93-12.12,0-16.06-10.33-16.06a10.85,10.85,0,0,0-6.08,1.81,18.62,18.62,0,0,0-4.86,4.7V63.34a13.12,13.12,0,0,0,4.38,3.86,11.47,11.47,0,0,0,5.51,1.37A9.82,9.82,0,0,0,191.57,64.54Z" transform="translate(-7.32 -5.44)" fill="#3b4550"/><path d="M240.54,73.86a28.05,28.05,0,0,1-7.66,11.8Q227.93,90,219.1,90.81l-1.14-6a26.66,26.66,0,0,0,7.35-2.08,12.13,12.13,0,0,0,4.42-3.5,22.42,22.42,0,0,0,2.93-5.58h-2.89L213.93,31.29h8.93L235.46,68,248,31.29h8.66Z" transform="translate(-7.32 -5.44)" fill="#3b4550"/><path d="M308.09,52.42q0,10-4.59,16.06t-13.17,6.1a16.13,16.13,0,0,1-12.08-4.74v20l-8.4,1V31.29h7.26l.61,5.7a16.95,16.95,0,0,1,13.65-6.74Q308.1,30.25,308.09,52.42Zm-25-14.25a18.62,18.62,0,0,0-4.86,4.7V63.34a13.12,13.12,0,0,0,4.38,3.74,11.92,11.92,0,0,0,5.6,1.32q5.42,0,8.18-3.9t2.76-12.08q0-8.19-2.45-12.13a8.25,8.25,0,0,0-7.53-3.93A10.85,10.85,0,0,0,283.11,38.16Z" transform="translate(-7.32 -5.44)" fill="#3b4550"/><path d="M357.23,67.55a5,5,0,0,0,2.85,1.73l-2,5.3q-6.92-.8-8.93-5.94a15.78,15.78,0,0,1-6.21,4.42,21.9,21.9,0,0,1-8.31,1.52q-7,0-11-3.57a12.1,12.1,0,0,1-4-9.52,11.37,11.37,0,0,1,5.64-10.16q5.65-3.57,16.15-3.57H348V44.63q0-4.25-2.71-6.18t-7.88-1.93a40.16,40.16,0,0,0-12.16,2.17l-2.19-5.62a49.38,49.38,0,0,1,15.58-2.81q8.75,0,13.26,3.65t4.51,10.24V63.9A6.34,6.34,0,0,0,357.23,67.55Zm-14.09-.2A13.49,13.49,0,0,0,348,63.1V52.82h-6.12q-7,0-10.19,2.17a7.19,7.19,0,0,0-3.19,6.35,7.25,7.25,0,0,0,2.1,5.62q2.1,1.93,6.3,1.93A13.43,13.43,0,0,0,343.14,67.36Z" transform="translate(-7.32 -5.44)" fill="#3b4550"/><path d="M406.46,73.74a28.75,28.75,0,0,1-6.92.84q-7.61,0-11.77-3.61a12.12,12.12,0,0,1-4.16-9.63V37.08H373.2V31.29h10.41V21.74l8.4-.88V31.29h15.84l-1.05,5.78H392V61.25a6.56,6.56,0,0,0,2,5.26q2,1.73,6.47,1.73a19.76,19.76,0,0,0,8.75-2l3.15,5.22A23.16,23.16,0,0,1,406.46,73.74Z" transform="translate(-7.32 -5.44)" fill="#3b4550"/><path d="M459,73.74a28.75,28.75,0,0,1-6.92.84q-7.61,0-11.77-3.61a12.12,12.12,0,0,1-4.16-9.63V37.08H425.71V31.29h10.41V21.74l8.4-.88V31.29h15.84l-1.05,5.78H444.52V61.25a6.56,6.56,0,0,0,2,5.26q2,1.73,6.47,1.73a19.76,19.76,0,0,0,8.75-2l3.15,5.22A23.16,23.16,0,0,1,459,73.74Z" transform="translate(-7.32 -5.44)" fill="#3b4550"/><path d="M490.68,65.06a13,13,0,0,0,9.14,3.33,20.33,20.33,0,0,0,6.21-.92,28.16,28.16,0,0,0,6-2.85l3.76,4.9a24.67,24.67,0,0,1-7.52,3.74,29.51,29.51,0,0,1-8.75,1.32q-10.24,0-15.93-6T478,52.5a25.44,25.44,0,0,1,2.49-11.45,19.09,19.09,0,0,1,7.18-7.91,20.3,20.3,0,0,1,10.89-2.89q8.93,0,14.09,5.62t5.16,15.34q0,1.93-.17,3.85H486.7Q487.05,61.73,490.68,65.06Zm-.35-25.46q-3.2,3.33-3.63,9.84h22.93q-.09-6.34-3-9.76a10,10,0,0,0-8-3.41A10.93,10.93,0,0,0,490.34,39.61Z" transform="translate(-7.32 -5.44)" fill="#3b4550"/><path d="M571,31.29l-1.31,14.86h-6.48V37.32h-.09q-10.42,0-14.79,13.65V67.92h9.36v5.7H532.82v-5.7h7.09V37h-7.09v-5.7H546.3l1.49,9.88A20.9,20.9,0,0,1,554.4,33a16.91,16.91,0,0,1,9.84-2.69A26.13,26.13,0,0,1,571,31.29Z" transform="translate(-7.32 -5.44)" fill="#3b4550"/><path d="M609,66.8a5.14,5.14,0,0,0,2.89-4.58,6.25,6.25,0,0,0-.79-3.29A6.84,6.84,0,0,0,608,56.59a44.12,44.12,0,0,0-7.18-2.17q-7.88-1.84-11.68-4.5a8.88,8.88,0,0,1-3.81-7.79,9.93,9.93,0,0,1,4.9-8.63q4.9-3.25,13-3.25,10.06,0,17.15,4.82l-3.67,5.06a27.7,27.7,0,0,0-6-2.77,23.6,23.6,0,0,0-7.18-1q-9.45,0-9.45,5.14A4.05,4.05,0,0,0,595,44.39a9.55,9.55,0,0,0,3.54,2.09,64.83,64.83,0,0,0,7.4,2.17q7.52,1.85,11.25,4.7t3.72,8.39a10.39,10.39,0,0,1-5.73,9.64q-5.73,3.22-14.13,3.21-11.12,0-18.38-5.78l4.55-4.9a21.67,21.67,0,0,0,6.35,3.37,23.08,23.08,0,0,0,7.48,1.21A15.85,15.85,0,0,0,609,66.8Z" transform="translate(-7.32 -5.44)" fill="#3b4550"/><path d="M670.39,36.2q5.25,5.94,5.25,16.22,0,10.12-5.34,16.14t-15,6q-9.8,0-15.05-5.9T635,52.5q0-10.12,5.34-16.18t15.05-6.06Q665.14,30.25,670.39,36.2ZM646.8,40.37Q644,44.3,644,52.5t2.8,12q2.8,3.94,8.58,3.94t8.57-3.94q2.8-3.93,2.8-12.12t-2.8-12q-2.8-3.94-8.49-3.94T646.8,40.37Z" transform="translate(-7.32 -5.44)" fill="#3b4550"/><path d="M689.91,31.29h7.26l.61,5.7a19,19,0,0,1,6.87-5,20.56,20.56,0,0,1,8.27-1.77q6.47,0,9.71,3.25t3.24,9.36V73.62h-8.4v-26a32.83,32.83,0,0,0-.52-6.74,5.55,5.55,0,0,0-2.1-3.45,8.15,8.15,0,0,0-4.73-1.12,12.15,12.15,0,0,0-6.61,2A19.37,19.37,0,0,0,698.31,43v30.6h-8.4Z" transform="translate(-7.32 -5.44)" fill="#3b4550"/><path d="M755,34.15a7.38,7.38,0,0,1,5.25-2,7.55,7.55,0,0,1,5.3,2,6.53,6.53,0,0,1,0,9.68,7.45,7.45,0,0,1-5.3,2,7.29,7.29,0,0,1-5.25-2,6.62,6.62,0,0,1,0-9.68ZM755,63a7.37,7.37,0,0,1,5.25-2,7.53,7.53,0,0,1,5.3,2,6.25,6.25,0,0,1,2.14,4.78,6.37,6.37,0,0,1-2.1,4.86,7.49,7.49,0,0,1-5.34,2,7.37,7.37,0,0,1-5.25-2,6.37,6.37,0,0,1-2.1-4.86A6.29,6.29,0,0,1,755,63Z" transform="translate(-7.32 -5.44)" fill="#3b4550"/><path d="M810.06,42.26a36.07,36.07,0,0,1,5.08,3.49,26.85,26.85,0,0,0,3.37,2.49,5.65,5.65,0,0,0,2.93.8q4.64,0,8.58-6.67l5.6,2.57a27.55,27.55,0,0,1-6,7.71,12.49,12.49,0,0,1-8.49,2.89A11.09,11.09,0,0,1,816,54.38a31.74,31.74,0,0,1-5-3.41,22.13,22.13,0,0,0-3.5-2.61,6.3,6.3,0,0,0-3.15-.84,6.83,6.83,0,0,0-4.64,1.76,20.82,20.82,0,0,0-3.94,5l-5.6-2.57A28.69,28.69,0,0,1,796,43.94,12.32,12.32,0,0,1,804.54,41,11.34,11.34,0,0,1,810.06,42.26Z" transform="translate(-7.32 -5.44)" fill="#3b4550"/><path d="M869.39,17.4a31.51,31.51,0,0,1,9.06,2.21,28.93,28.93,0,0,1,7.22,4.22l-4.81,4.66a20.82,20.82,0,0,0-11.47-4.9V41.17q8,2.33,12.52,6.26t4.55,10.76A14.51,14.51,0,0,1,882,68.84q-4.46,4.46-12.6,5.42V86h-6.12V74.5A29.51,29.51,0,0,1,844.8,67l4.73-4.9a22.4,22.4,0,0,0,13.74,6.18V47q-8.14-2.57-12.21-6.3a12,12,0,0,1-4.07-9.2,12.29,12.29,0,0,1,4.24-9.32q4.24-3.94,12-4.66v-12h6.12ZM857.62,26.2a6.39,6.39,0,0,0-2.06,4.94,6.74,6.74,0,0,0,1.66,4.62q1.66,1.89,6,3.49V23.75A10.55,10.55,0,0,0,857.62,26.2Zm11.77,41.72q8.32-1.61,8.31-9.4A8.34,8.34,0,0,0,875.82,53a16.37,16.37,0,0,0-6.43-4.09Z" transform="translate(-7.32 -5.44)" fill="#3b4550"/></svg>