<svg data-name="Component" xmlns="http://www.w3.org/2000/svg" viewBox="0 0 893.77 91.88"><path d="M38.67 25.48L7.36 44.6l31.31 19.11-4.4 6.28L0 48.63v-8.16l34.54-21.36zM88.38 68.51q-6.73 4.17-16.87 4.17H54.28V10.82h16q9.6 0 15.88 3.63t6.28 12a12.41 12.41 0 0 1-3.27 9 15.75 15.75 0 0 1-8.21 4.49q14.18 2.42 14.18 15.07-.03 9.33-6.76 13.5zm-8-48.5q-3-2.24-8.75-2.24h-8.46v19.11h9.15q11 0 11-9.78.04-4.85-2.97-7.09zm2 26.38q-3.45-2.51-9.38-2.51h-9.83V65.5h9.42q13.19 0 13.19-10.41 0-6.19-3.46-8.7zM142.4 30.82q5.38 6.64 5.38 18.12 0 11.31-5.47 18T127 73.76q-10.05 0-15.43-6.6t-5.38-18.08q0-11.3 5.47-18.08t15.43-6.77q9.91 0 15.31 6.59zm-24.18 4.67q-2.92 4.4-2.92 13.55t2.87 13.46q2.87 4.4 8.79 4.4t8.79-4.4q2.87-4.4 2.87-13.55t-2.87-13.46q-2.87-4.39-8.7-4.4t-8.84 4.44zM177 26.07a15.26 15.26 0 0 1 7.36-1.84q9.06 0 13.37 6.5t4.31 18.26q0 11-5 17.9a16.16 16.16 0 0 1-13.86 6.86q-8.08 0-12.65-5.92l-.53 4.85h-7.6V6.37L171 5.3v26a18.78 18.78 0 0 1 6-5.23zm12.79 36.47q3-4.49 3-13.55 0-17.94-10.59-17.95a10.49 10.49 0 0 0-6.24 2 19.94 19.94 0 0 0-5 5.25V61.2a13.93 13.93 0 0 0 4.49 4.31 11 11 0 0 0 5.65 1.52 9.79 9.79 0 0 0 8.72-4.49zM230.86 26.07a15.26 15.26 0 0 1 7.36-1.84q9.06 0 13.37 6.5t4.31 18.26q0 11-5 17.9a16.16 16.16 0 0 1-13.86 6.86q-8.04.01-12.64-5.93l-.54 4.84h-7.63V6.37l8.61-1.08v26a18.78 18.78 0 0 1 6.02-5.22zm12.79 36.47q3-4.49 3-13.55 0-17.94-10.59-17.95a10.49 10.49 0 0 0-6.24 2 19.94 19.94 0 0 0-5 5.25V61.2a13.93 13.93 0 0 0 4.49 4.31 11 11 0 0 0 5.69 1.52 9.79 9.79 0 0 0 8.65-4.49zM293.85 72.95A31.73 31.73 0 0 1 286 86.14q-5.07 4.84-14.13 5.74l-1.17-6.73a25.5 25.5 0 0 0 7.54-2.33 12.64 12.64 0 0 0 4.53-3.9 25.83 25.83 0 0 0 3-6.24h-3l-16.19-47.29h9.15l12.92 41 12.83-41h8.88zM359.22 45.22q-6.42 4.84-17.54 4.85h-7.81v22.61H325V10.82h16.33q11.66 0 18 4.8t6.33 14.4q-.03 10.36-6.44 15.2zm-6.73-24.58q-3.72-3-10.27-3h-8.34v25.52h8.25q6.64 0 10.36-3t3.72-10.14q0-6.42-3.72-9.38zM413.5 65.91a5.07 5.07 0 0 0 2.92 1.91l-2.06 5.92q-7.09-.9-9.15-6.64a16.24 16.24 0 0 1-6.37 4.93 20.88 20.88 0 0 1-8.52 1.71q-7.18 0-11.31-4t-4.13-10.63a13 13 0 0 1 5.78-11.29q5.79-4 16.55-4H404v-3.5q0-4.75-2.78-6.91t-8.08-2.15a38.11 38.11 0 0 0-12.47 2.42l-2.24-6.28a46.87 46.87 0 0 1 16-3.14q9 0 13.59 4.08t4.62 11.44v22.04a7.6 7.6 0 0 0 .86 4.09zm-14.45-.22a14.26 14.26 0 0 0 5-4.76V49.44h-6.28q-7.18 0-10.45 2.42a8.27 8.27 0 0 0-3.32 7.09q0 4.13 2.15 6.28t6.46 2.15a12.8 12.8 0 0 0 6.45-1.7zM464 72.82a27.16 27.16 0 0 1-7.09.94q-7.81 0-12.07-4a14.13 14.13 0 0 1-4.26-10.77V31.82h-10.7v-6.43h10.68V14.72l8.61-1v11.67h16.24l-1.08 6.43h-15.16v27q0 3.95 2.06 5.88t6.64 1.93a18.83 18.83 0 0 0 9-2.24l3.23 5.83a22.69 22.69 0 0 1-6.1 2.6zM517.81 72.82a27.16 27.16 0 0 1-7.09.94q-7.81 0-12.07-4a14.13 14.13 0 0 1-4.26-10.77V31.82h-10.68v-6.43h10.68V14.72l8.61-1v11.67h16.24l-1.07 6.43H503v27q0 3.95 2.06 5.88t6.64 1.93a18.83 18.83 0 0 0 9-2.24l3.23 5.83a22.69 22.69 0 0 1-6.12 2.6zM550.33 63.12a12.71 12.71 0 0 0 9.38 3.7 19.24 19.24 0 0 0 6.37-1 27.76 27.76 0 0 0 6.19-3.18l3.86 5.47a24.58 24.58 0 0 1-7.72 4.17 27.94 27.94 0 0 1-9 1.48q-10.5 0-16.33-6.73t-5.83-17.95a30.52 30.52 0 0 1 2.56-12.79 20.78 20.78 0 0 1 7.36-8.84 19.53 19.53 0 0 1 11.17-3.23q9.15 0 14.45 6.28t5.29 17.14q0 2.15-.18 4.31h-31.65q.36 7.45 4.08 11.17zM550 34.68q-3.28 3.72-3.72 11h23.51q-.09-7.09-3.1-10.9a9.89 9.89 0 0 0-8.21-3.81 10.77 10.77 0 0 0-8.48 3.71zM632.66 25.39l-1.35 16.6h-6.64v-9.87h-.09q-10.68 0-15.16 15.25v18.94H619v6.37h-25.46v-6.37h7.27V31.76h-7.27v-6.37h13.82l1.52 11a23.06 23.06 0 0 1 6.78-9.11 16.31 16.31 0 0 1 10.09-3 24.65 24.65 0 0 1 6.91 1.11zM671.69 65.05a5.8 5.8 0 0 0 3-5.11 7.46 7.46 0 0 0-.81-3.68 7.09 7.09 0 0 0-3.23-2.6 42.11 42.11 0 0 0-7.36-2.42q-8.08-2.06-12-5t-3.9-8.7a11.34 11.34 0 0 1 5-9.65q5-3.63 13.28-3.63 10.32 0 17.59 5.38l-3.77 5.65a27.3 27.3 0 0 0-6.19-3.1 22.38 22.38 0 0 0-7.36-1.12q-9.69 0-9.69 5.74a4.78 4.78 0 0 0 1.08 3.23 9.74 9.74 0 0 0 3.67 2.31 62.55 62.55 0 0 0 7.55 2.47q7.71 2.06 11.53 5.25t3.81 9.38A11.79 11.79 0 0 1 678 70.17q-5.88 3.59-14.49 3.59-11.4 0-18.84-6.46l4.68-5.48a21.64 21.64 0 0 0 6.5 3.77 21.89 21.89 0 0 0 7.67 1.35q5.21 0 8.17-1.89zM734.59 30.82Q740 37.51 740 48.99q0 11.31-5.47 18t-15.34 6.73q-10 0-15.43-6.6t-5.38-18.08q0-11.3 5.47-18.08t15.43-6.77q9.92.04 15.31 6.63zm-24.19 4.71q-2.92 4.4-2.92 13.55t2.87 13.46q2.87 4.4 8.79 4.4t8.79-4.4q2.87-4.4 2.87-13.55t-2.87-13.46q-2.87-4.39-8.7-4.4t-8.83 4.4zM754.59 25.39H762l.63 6.37a20.26 20.26 0 0 1 15.52-7.54q6.64 0 10 3.63t3.32 10.45v34.38h-8.61V43.61a39.77 39.77 0 0 0-.54-7.54 6.29 6.29 0 0 0-2.15-3.86 7.82 7.82 0 0 0-4.85-1.26 11.72 11.72 0 0 0-6.77 2.2 20.62 20.62 0 0 0-5.34 5.34v34.19h-8.61zM804.3 78.96l38.22-79 6.82 3.23-38.13 78.82zM893.77 40.47v8.17L859.5 69.99l-4.4-6.28 31.22-19.11-31.22-19 4.13-6.46z" fill="#fff"/></svg>