<svg id="0a0a579a-e49c-4a4f-9802-0afcdda8bbeb" data-name="Layer 1" xmlns="http://www.w3.org/2000/svg" viewBox="0 0 886.22 88.74"><title>bobbypattersonGray</title><path d="M41.13,28.36,10.88,46.82,41.13,65.28l-4.25,6.07L3.78,50.72V42.84L37.14,22.21Z" transform="translate(-3.78 -3.75)" fill="#3b4550"/><path d="M89.14,69.92q-6.5,4-16.29,4H56.21V14.24H71.63q9.27,0,15.34,3.51T93,29.32A12,12,0,0,1,89.87,38a15.21,15.21,0,0,1-7.93,4.33q13.69,2.34,13.69,14.56Q95.64,65.89,89.14,69.92ZM81.38,23.08q-2.9-2.17-8.45-2.17H64.78V39.37h8.84q10.66,0,10.66-9.45Q84.28,25.24,81.38,23.08Zm1.91,25.48q-3.34-2.42-9.06-2.43H64.78V67h9.1Q86.62,67,86.62,57,86.62,51,83.29,48.55Z" transform="translate(-3.78 -3.75)" fill="#3b4550"/><path d="M141.3,33.56q5.2,6.41,5.2,17.51,0,10.92-5.29,17.42T126.4,75q-9.71,0-14.91-6.37t-5.2-17.46q0-10.92,5.29-17.46t14.91-6.54Q136.11,27.15,141.3,33.56Zm-23.35,4.51q-2.82,4.25-2.82,13.09t2.77,13q2.77,4.25,8.49,4.25t8.49-4.25q2.77-4.25,2.77-13.09t-2.77-13q-2.77-4.24-8.41-4.25T117.95,38.07Z" transform="translate(-3.78 -3.75)" fill="#3b4550"/><path d="M174.75,28.93a14.74,14.74,0,0,1,7.11-1.78q8.75,0,12.91,6.28t4.16,17.64q0,10.66-4.81,17.29A15.61,15.61,0,0,1,180.73,75q-7.8,0-12.22-5.72L168,73.95h-7.37V9.9l8.32-1V34A18.14,18.14,0,0,1,174.75,28.93ZM187.1,64.15q2.9-4.33,2.9-13.09,0-17.33-10.23-17.33a10.13,10.13,0,0,0-6,1.95,19.26,19.26,0,0,0-4.81,5.07v22.1A13.45,13.45,0,0,0,173.28,67a10.6,10.6,0,0,0,5.46,1.47A9.46,9.46,0,0,0,187.1,64.15Z" transform="translate(-3.78 -3.75)" fill="#3b4550"/><path d="M226.75,28.93a14.74,14.74,0,0,1,7.11-1.78q8.75,0,12.91,6.28t4.16,17.64q0,10.66-4.81,17.29A15.61,15.61,0,0,1,232.73,75q-7.8,0-12.22-5.72L220,73.95h-7.37V9.9l8.32-1V34A18.14,18.14,0,0,1,226.75,28.93ZM239.1,64.15q2.9-4.33,2.9-13.09,0-17.33-10.23-17.33a10.13,10.13,0,0,0-6,1.95,19.26,19.26,0,0,0-4.81,5.07v22.1A13.45,13.45,0,0,0,225.28,67a10.6,10.6,0,0,0,5.46,1.47A9.46,9.46,0,0,0,239.1,64.15Z" transform="translate(-3.78 -3.75)" fill="#3b4550"/><path d="M287.58,74.21A30.65,30.65,0,0,1,280,86.94q-4.9,4.68-13.65,5.55L265.23,86a24.63,24.63,0,0,0,7.28-2.25A12.21,12.21,0,0,0,276.88,80a25,25,0,0,0,2.9-6h-2.86L261.24,28.28h8.84l12.48,39.6,12.39-39.6h8.58Z" transform="translate(-3.78 -3.75)" fill="#3b4550"/><path d="M350.71,47.43q-6.2,4.68-16.94,4.68h-7.54V73.95h-8.58V14.24h15.77q11.26,0,17.38,4.64t6.11,13.91Q356.91,42.75,350.71,47.43Zm-6.5-23.74q-3.6-2.86-9.92-2.86h-8.06V45.44h8q6.41,0,10-2.86t3.6-9.79Q347.81,26.54,344.21,23.68Z" transform="translate(-3.78 -3.75)" fill="#3b4550"/><path d="M403.14,67.4A4.9,4.9,0,0,0,406,69.27L404,75q-6.85-.87-8.84-6.41A15.68,15.68,0,0,1,389,73.34,20.17,20.17,0,0,1,380.74,75q-6.93,0-10.92-3.86a13.63,13.63,0,0,1-4-10.27,12.53,12.53,0,0,1,5.59-11Q377,46,387.41,46H394V42.66q0-4.59-2.69-6.67t-7.8-2.08a36.8,36.8,0,0,0-12,2.34l-2.17-6.07a45.27,45.27,0,0,1,15.43-3q8.66,0,13.13,3.94t4.46,11V63.46A7.34,7.34,0,0,0,403.14,67.4Zm-14-.22A13.77,13.77,0,0,0,394,62.59V51.5h-6.07q-6.93,0-10.1,2.34a8,8,0,0,0-3.16,6.85,8.22,8.22,0,0,0,2.08,6.07q2.08,2.08,6.24,2.08A12.36,12.36,0,0,0,389.19,67.19Z" transform="translate(-3.78 -3.75)" fill="#3b4550"/><path d="M451.89,74.08A26.23,26.23,0,0,1,445,75q-7.54,0-11.66-3.9a13.65,13.65,0,0,1-4.12-10.4V34.52H419V28.28h10.31V18l8.32-1V28.28h15.69l-1,6.24H437.59V60.6q0,3.81,2,5.68T446,68.14A18.19,18.19,0,0,0,454.66,66l3.12,5.63A21.92,21.92,0,0,1,451.89,74.08Z" transform="translate(-3.78 -3.75)" fill="#3b4550"/><path d="M503.88,74.08A26.23,26.23,0,0,1,497,75q-7.54,0-11.66-3.9a13.65,13.65,0,0,1-4.12-10.4V34.52H471V28.28h10.31V18l8.32-1V28.28h15.69l-1,6.24H489.59V60.6q0,3.81,2,5.68T498,68.14A18.19,18.19,0,0,0,506.66,66l3.12,5.63A21.91,21.91,0,0,1,503.88,74.08Z" transform="translate(-3.78 -3.75)" fill="#3b4550"/><path d="M535.3,64.72a12.27,12.27,0,0,0,9.06,3.6,18.58,18.58,0,0,0,6.15-1,26.81,26.81,0,0,0,6-3.08l3.73,5.29a23.74,23.74,0,0,1-7.45,4A27,27,0,0,1,544.09,75q-10.14,0-15.77-6.5t-5.63-17.33a29.47,29.47,0,0,1,2.47-12.35,20.07,20.07,0,0,1,7.11-8.54,18.86,18.86,0,0,1,10.79-3.12q8.84,0,14,6.07t5.11,16.55q0,2.08-.17,4.16H531.35Q531.7,61.12,535.3,64.72ZM535,37.25q-3.16,3.6-3.6,10.62h22.71q-.09-6.85-3-10.53a9.55,9.55,0,0,0-7.93-3.68A10.4,10.4,0,0,0,535,37.25Z" transform="translate(-3.78 -3.75)" fill="#3b4550"/><path d="M614.81,28.28l-1.3,16h-6.41V34.78H607q-10.31,0-14.65,14.73V67.79h9.27v6.15H577V67.79h7V34.43h-7V28.28h13.35l1.47,10.66a22.27,22.27,0,0,1,6.54-8.8,15.76,15.76,0,0,1,9.75-2.9A23.8,23.8,0,0,1,614.81,28.28Z" transform="translate(-3.78 -3.75)" fill="#3b4550"/><path d="M652.5,66.58a5.6,5.6,0,0,0,2.86-4.94,7.2,7.2,0,0,0-.78-3.55,6.85,6.85,0,0,0-3.12-2.51,40.67,40.67,0,0,0-7.11-2.34q-7.8-2-11.57-4.85T629,40a11,11,0,0,1,4.85-9.32q4.85-3.51,12.82-3.51a27.74,27.74,0,0,1,17,5.2L660,37.81a26.37,26.37,0,0,0-6-3A21.62,21.62,0,0,0,647,33.74q-9.36,0-9.36,5.55a4.62,4.62,0,0,0,1,3.12,9.4,9.4,0,0,0,3.51,2.25A60.41,60.41,0,0,0,649.47,47q7.45,2,11.14,5.07t3.68,9.06a11.39,11.39,0,0,1-5.68,10.4q-5.68,3.47-14,3.47-11,0-18.2-6.24l4.51-5.29a20.9,20.9,0,0,0,6.28,3.64,21.14,21.14,0,0,0,7.41,1.3A14.62,14.62,0,0,0,652.5,66.58Z" transform="translate(-3.78 -3.75)" fill="#3b4550"/><path d="M713.25,33.56q5.2,6.41,5.2,17.51,0,10.92-5.29,17.42T698.34,75q-9.71,0-14.91-6.37t-5.2-17.46q0-10.92,5.29-17.46t14.91-6.54Q708.05,27.15,713.25,33.56ZM689.9,38.07q-2.82,4.25-2.82,13.09t2.77,13q2.77,4.25,8.49,4.25t8.49-4.25q2.77-4.25,2.77-13.09t-2.77-13q-2.78-4.24-8.41-4.25T689.9,38.07Z" transform="translate(-3.78 -3.75)" fill="#3b4550"/><path d="M732.57,28.28h7.19l.61,6.15a19.57,19.57,0,0,1,15-7.28q6.41,0,9.62,3.51t3.21,10.1V73.95h-8.32V45.87a38.41,38.41,0,0,0-.52-7.28,6.08,6.08,0,0,0-2.08-3.73,7.56,7.56,0,0,0-4.68-1.21,11.32,11.32,0,0,0-6.54,2.12,19.91,19.91,0,0,0-5.16,5.16v33h-8.32Z" transform="translate(-3.78 -3.75)" fill="#3b4550"/><path d="M803.58,80,840.5,3.75l6.59,3.12L810.26,83Z" transform="translate(-3.78 -3.75)" fill="#3b4550"/><path d="M890,42.84v7.89l-33.1,20.62-4.25-6.07L882.8,46.82,852.65,28.45l4-6.24Z" transform="translate(-3.78 -3.75)" fill="#3b4550"/></svg>