<svg id="44077278-5104-4fed-bb63-c6e13b792789" data-name="Layer 1" xmlns="http://www.w3.org/2000/svg" viewBox="0 0 893.77 207.33"><title>bobbypattersonTerminalWhite</title><path d="M38.67-89.37,7.36-70.25,38.67-51.14l-4.4,6.28L0-66.22v-8.17L34.54-95.74Z" transform="translate(0 114.85)" fill="#3b4550"/><path d="M88.38-46.34q-6.73,4.17-16.87,4.17H54.28V-104h16q9.6,0,15.88,3.63t6.28,12a12.41,12.41,0,0,1-3.27,9,15.75,15.75,0,0,1-8.21,4.49Q95.11-72.5,95.11-59.85,95.11-50.51,88.38-46.34Zm-8-48.5q-3-2.24-8.75-2.24H63.17V-78h9.15q11,0,11-9.78Q83.36-92.6,80.35-94.84Zm2,26.38Q78.87-71,72.95-71H63.17v21.62h9.42q13.19,0,13.19-10.41Q85.78-65.95,82.32-68.46Z" transform="translate(0 114.85)" fill="#3b4550"/><path d="M142.4-84q5.38,6.64,5.38,18.12,0,11.31-5.47,18T127-41.09q-10.05,0-15.43-6.6t-5.38-18.08q0-11.3,5.47-18.08t15.43-6.77Q137-90.62,142.4-84Zm-24.18,4.67q-2.92,4.4-2.92,13.55t2.87,13.46q2.87,4.4,8.79,4.4t8.79-4.4q2.87-4.4,2.87-13.55t-2.87-13.46q-2.87-4.39-8.7-4.4T118.21-79.32Z" transform="translate(0 114.85)" fill="#3b4550"/><path d="M177-88.78a15.26,15.26,0,0,1,7.36-1.84q9.06,0,13.37,6.5t4.31,18.26q0,11-5,17.9a16.16,16.16,0,0,1-13.86,6.86q-8.08,0-12.65-5.92L170-42.17H162.4v-66.31l8.61-1.08v26A18.78,18.78,0,0,1,177-88.78Zm12.79,36.47q3-4.49,3-13.55,0-17.94-10.59-17.95a10.49,10.49,0,0,0-6.24,2,19.94,19.94,0,0,0-5,5.25v22.88a13.93,13.93,0,0,0,4.49,4.31,11,11,0,0,0,5.65,1.52A9.79,9.79,0,0,0,189.82-52.31Z" transform="translate(0 114.85)" fill="#3b4550"/><path d="M230.86-88.78a15.26,15.26,0,0,1,7.36-1.84q9.06,0,13.37,6.5t4.31,18.26q0,11-5,17.9a16.16,16.16,0,0,1-13.86,6.86Q229-41.09,224.4-47l-.54,4.84h-7.63v-66.31l8.61-1.08v26A18.78,18.78,0,0,1,230.86-88.78Zm12.79,36.47q3-4.49,3-13.55,0-17.94-10.59-17.95a10.49,10.49,0,0,0-6.24,2,19.94,19.94,0,0,0-5,5.25v22.88a13.93,13.93,0,0,0,4.49,4.31A11,11,0,0,0,235-47.82,9.79,9.79,0,0,0,243.65-52.31Z" transform="translate(0 114.85)" fill="#3b4550"/><path d="M293.85-41.9A31.73,31.73,0,0,1,286-28.71q-5.07,4.84-14.13,5.74L270.7-29.7A25.5,25.5,0,0,0,278.24-32a12.64,12.64,0,0,0,4.53-3.9,25.83,25.83,0,0,0,3-6.24h-3L266.58-89.46h9.15l12.92,41,12.83-41h8.88Z" transform="translate(0 114.85)" fill="#3b4550"/><path d="M359.22-69.63q-6.42,4.84-17.54,4.85h-7.81v22.61H325V-104h16.33q11.66,0,18,4.8t6.33,14.4Q365.63-74.47,359.22-69.63Zm-6.73-24.58q-3.72-3-10.27-3h-8.34v25.48h8.25q6.64,0,10.36-3t3.72-10.14Q356.21-91.25,352.49-94.21Z" transform="translate(0 114.85)" fill="#3b4550"/><path d="M413.5-48.94A5.07,5.07,0,0,0,416.42-47l-2.06,5.92q-7.09-.9-9.15-6.64a16.24,16.24,0,0,1-6.37,4.93,20.88,20.88,0,0,1-8.52,1.71q-7.18,0-11.31-4t-4.13-10.63a13,13,0,0,1,5.79-11.35q5.79-4,16.55-4H404v-3.5q0-4.75-2.78-6.91t-8.08-2.15a38.11,38.11,0,0,0-12.47,2.42l-2.24-6.28a46.87,46.87,0,0,1,16-3.14q9,0,13.59,4.08t4.62,11.44V-53A7.6,7.6,0,0,0,413.5-48.94Zm-14.45-.22a14.26,14.26,0,0,0,5-4.76V-65.41h-6.28q-7.18,0-10.45,2.42A8.27,8.27,0,0,0,384-55.9q0,4.13,2.15,6.28t6.46,2.15A12.8,12.8,0,0,0,399.06-49.17Z" transform="translate(0 114.85)" fill="#3b4550"/><path d="M464-42a27.16,27.16,0,0,1-7.09.94q-7.81,0-12.07-4a14.13,14.13,0,0,1-4.26-10.77V-83H429.88v-6.46h10.68v-10.68l8.61-1v11.66h16.24L464.33-83H449.17v27q0,3.95,2.06,5.88t6.64,1.93a18.83,18.83,0,0,0,9-2.24l3.23,5.83A22.69,22.69,0,0,1,464-42Z" transform="translate(0 114.85)" fill="#3b4550"/><path d="M517.81-42a27.16,27.16,0,0,1-7.09.94q-7.81,0-12.07-4a14.13,14.13,0,0,1-4.26-10.77V-83H483.71v-6.46h10.68v-10.68l8.61-1v11.66h16.24L518.17-83H503v27q0,3.95,2.06,5.88t6.64,1.93a18.83,18.83,0,0,0,9-2.24l3.23,5.83A22.69,22.69,0,0,1,517.81-42Z" transform="translate(0 114.85)" fill="#3b4550"/><path d="M550.33-51.73A12.71,12.71,0,0,0,559.71-48a19.24,19.24,0,0,0,6.37-1,27.76,27.76,0,0,0,6.19-3.18l3.86,5.47a24.58,24.58,0,0,1-7.72,4.17,27.94,27.94,0,0,1-9,1.48q-10.5,0-16.33-6.73t-5.83-17.95a30.52,30.52,0,0,1,2.56-12.79,20.78,20.78,0,0,1,7.36-8.84,19.53,19.53,0,0,1,11.17-3.23q9.15,0,14.45,6.28T578.1-67.2q0,2.15-.18,4.31H546.25Q546.61-55.45,550.33-51.73ZM550-80.17q-3.28,3.72-3.72,11h23.51q-.09-7.09-3.1-10.9a9.89,9.89,0,0,0-8.21-3.81A10.77,10.77,0,0,0,550-80.17Z" transform="translate(0 114.85)" fill="#3b4550"/><path d="M632.66-89.46l-1.35,16.6h-6.64v-9.87h-.09q-10.68,0-15.16,15.25v18.93H619v6.37H593.54v-6.37h7.27V-83.09h-7.27v-6.37h13.82l1.52,11a23.06,23.06,0,0,1,6.78-9.11,16.31,16.31,0,0,1,10.09-3A24.65,24.65,0,0,1,632.66-89.46Z" transform="translate(0 114.85)" fill="#3b4550"/><path d="M671.69-49.8a5.8,5.8,0,0,0,3-5.11,7.46,7.46,0,0,0-.81-3.68,7.09,7.09,0,0,0-3.23-2.6,42.11,42.11,0,0,0-7.36-2.42q-8.08-2.06-12-5t-3.9-8.7a11.34,11.34,0,0,1,5-9.65q5-3.63,13.28-3.63,10.32,0,17.59,5.38l-3.77,5.65a27.3,27.3,0,0,0-6.19-3.1,22.38,22.38,0,0,0-7.36-1.12q-9.69,0-9.69,5.74a4.78,4.78,0,0,0,1.08,3.23A9.74,9.74,0,0,0,661-72.5a62.55,62.55,0,0,0,7.58,2.42q7.71,2.06,11.53,5.25t3.81,9.38A11.79,11.79,0,0,1,678-44.68q-5.88,3.59-14.49,3.59-11.4,0-18.84-6.46L649.35-53a21.64,21.64,0,0,0,6.5,3.77,21.89,21.89,0,0,0,7.67,1.35Q668.73-47.91,671.69-49.8Z" transform="translate(0 114.85)" fill="#3b4550"/><path d="M734.59-84Q740-77.34,740-65.86q0,11.31-5.47,18t-15.34,6.73q-10,0-15.43-6.6t-5.38-18.08q0-11.3,5.47-18.08t15.43-6.77Q729.2-90.62,734.59-84ZM710.4-79.32q-2.92,4.4-2.92,13.55t2.87,13.46q2.87,4.4,8.79,4.4t8.79-4.4q2.87-4.4,2.87-13.55t-2.87-13.46q-2.87-4.39-8.7-4.4T710.4-79.32Z" transform="translate(0 114.85)" fill="#3b4550"/><path d="M754.59-89.46H762l.63,6.37a19.69,19.69,0,0,1,7-5.56,19.66,19.66,0,0,1,8.48-2q6.64,0,10,3.63t3.32,10.45v34.37h-8.61V-71.24a39.77,39.77,0,0,0-.54-7.54,6.29,6.29,0,0,0-2.15-3.86,7.82,7.82,0,0,0-4.85-1.26,11.72,11.72,0,0,0-6.77,2.2,20.62,20.62,0,0,0-5.34,5.34v34.19h-8.61Z" transform="translate(0 114.85)" fill="#3b4550"/><path d="M804.3-35.89l38.22-79,6.82,3.23L811.21-32.84Z" transform="translate(0 114.85)" fill="#3b4550"/><path d="M893.77-74.38v8.17L859.5-44.86l-4.4-6.28,31.22-19.11-31.22-19,4.13-6.46Z" transform="translate(0 114.85)" fill="#3b4550"/><path d="M13.6,31.26a14.18,14.18,0,0,1,6.84-1.71q8.43,0,12.44,6.05t4,17q0,10.26-4.63,16.65a15,15,0,0,1-12.9,6.38A14,14,0,0,1,7.59,70.11l-.5,4.51H0V12.94l8-1v24.2A17.48,17.48,0,0,1,13.6,31.26ZM25.5,65.19q2.79-4.17,2.8-12.6,0-16.69-9.85-16.69a9.75,9.75,0,0,0-5.8,1.88A18.55,18.55,0,0,0,8,42.65V63.94a12.92,12.92,0,0,0,4.17,4,10.23,10.23,0,0,0,5.26,1.42A9.11,9.11,0,0,0,25.5,65.19Z" transform="translate(0 114.85)" fill="#fff"/><path d="M81.54,35.73q5,6.17,5,16.86,0,10.51-5.09,16.78T67.19,75.62q-9.35,0-14.36-6.13t-5-16.81q0-10.52,5.09-16.82t14.36-6.3Q76.53,29.55,81.54,35.73ZM59,40.07q-2.72,4.09-2.71,12.6T59,65.19q2.67,4.1,8.18,4.1t8.18-4.1Q78,61.1,78,52.59T75.36,40.07A9,9,0,0,0,67.27,36Q61.76,36,59,40.07Z" transform="translate(0 114.85)" fill="#fff"/><path d="M113.76,31.26a14.18,14.18,0,0,1,6.84-1.71q8.43,0,12.44,6.05t4,17q0,10.26-4.63,16.65a15,15,0,0,1-12.9,6.38,14,14,0,0,1-11.77-5.51l-.5,4.51h-7.09V12.94l8-1v24.2A17.48,17.48,0,0,1,113.76,31.26Zm11.89,33.92q2.79-4.17,2.8-12.6,0-16.69-9.85-16.69a9.75,9.75,0,0,0-5.8,1.88,18.55,18.55,0,0,0-4.63,4.88V63.94a12.92,12.92,0,0,0,4.17,4,10.23,10.23,0,0,0,5.26,1.42A9.11,9.11,0,0,0,125.65,65.19Z" transform="translate(0 114.85)" fill="#fff"/><path d="M163.84,31.26a14.18,14.18,0,0,1,6.84-1.71q8.43,0,12.44,6.05t4,17q0,10.26-4.63,16.65a15,15,0,0,1-12.9,6.38,14,14,0,0,1-11.77-5.51l-.5,4.51h-7.09V12.94l8-1v24.2A17.48,17.48,0,0,1,163.84,31.26Zm11.89,33.92q2.79-4.17,2.8-12.6,0-16.69-9.85-16.69a9.75,9.75,0,0,0-5.8,1.88,18.55,18.55,0,0,0-4.63,4.88V63.94a12.92,12.92,0,0,0,4.17,4,10.23,10.23,0,0,0,5.26,1.42A9.11,9.11,0,0,0,175.73,65.19Z" transform="translate(0 114.85)" fill="#fff"/><path d="M222.43,74.87a29.51,29.51,0,0,1-7.3,12.27q-4.72,4.51-13.15,5.35l-1.08-6.26a23.86,23.86,0,0,0,7-2.17,11.8,11.8,0,0,0,4.21-3.63,24.07,24.07,0,0,0,2.8-5.8h-2.75l-15.11-44h8.51l12,38.15,11.93-38.15h8.26Z" transform="translate(0 114.85)" fill="#fff"/><path d="M286.86,52.59q0,10.35-4.38,16.7t-12.56,6.34a14.74,14.74,0,0,1-11.52-4.92V91.48l-8,1V30.63h6.93l.58,5.93a16.69,16.69,0,0,1,5.8-5.22,15.17,15.17,0,0,1,7.22-1.79Q286.86,29.55,286.86,52.59ZM263,37.77a18.55,18.55,0,0,0-4.63,4.88V63.94a12.87,12.87,0,0,0,4.17,3.89,10.62,10.62,0,0,0,5.34,1.37,8.7,8.7,0,0,0,7.8-4q2.63-4,2.63-12.56T276,40a7.72,7.72,0,0,0-7.18-4.09A9.75,9.75,0,0,0,263,37.77Z" transform="translate(0 114.85)" fill="#fff"/><path d="M333.72,68.32a4.72,4.72,0,0,0,2.71,1.79l-1.92,5.51q-6.6-.84-8.51-6.17A15.15,15.15,0,0,1,320.07,74a19.37,19.37,0,0,1-7.93,1.58q-6.68,0-10.51-3.71A13.13,13.13,0,0,1,297.79,62a12.08,12.08,0,0,1,5.38-10.56q5.38-3.71,15.4-3.71h6.34V44.49q0-4.42-2.58-6.43t-7.51-2a35.47,35.47,0,0,0-11.6,2.25l-2.09-5.84A43.63,43.63,0,0,1,316,29.55q8.34,0,12.64,3.8T332.93,44V64.52A7.06,7.06,0,0,0,333.72,68.32Zm-13.44-.2a13.28,13.28,0,0,0,4.63-4.43V53h-5.84q-6.68,0-9.72,2.25a7.7,7.7,0,0,0-3,6.6,7.92,7.92,0,0,0,2,5.84q2,2,6,2A12,12,0,0,0,320.28,68.11Z" transform="translate(0 114.85)" fill="#fff"/><path d="M380.67,74.74a25.28,25.28,0,0,1-6.6.88q-7.26,0-11.22-3.76a13.13,13.13,0,0,1-4-10V36.64H349v-6h9.93V20.7l8-.92V30.63H382l-1,6H366.9V61.77q0,3.67,1.92,5.47T375,69a17.58,17.58,0,0,0,8.35-2.09l3,5.42A21,21,0,0,1,380.67,74.74Z" transform="translate(0 114.85)" fill="#fff"/><path d="M430.75,74.74a25.28,25.28,0,0,1-6.6.88q-7.26,0-11.22-3.76a13.13,13.13,0,0,1-4-10V36.64H399v-6H409V20.7l8-.92V30.63h15.11l-1,6H417V61.77q0,3.67,1.92,5.47T425.07,69a17.58,17.58,0,0,0,8.35-2.09l3,5.42A21,21,0,0,1,430.75,74.74Z" transform="translate(0 114.85)" fill="#fff"/><path d="M461,65.73a11.82,11.82,0,0,0,8.72,3.46,17.92,17.92,0,0,0,5.93-1,25.92,25.92,0,0,0,5.76-3L485,70.36a22.83,22.83,0,0,1-7.18,3.89,26,26,0,0,1-8.35,1.37q-9.77,0-15.19-6.26t-5.42-16.69a28.44,28.44,0,0,1,2.38-11.9,19.34,19.34,0,0,1,6.85-8.22,18.16,18.16,0,0,1,10.39-3q8.52,0,13.44,5.84t4.92,15.94q0,2-.17,4H457.2Q457.53,62.26,461,65.73Zm-.33-26.46q-3.05,3.46-3.46,10.23h21.87q-.09-6.59-2.88-10.14a9.2,9.2,0,0,0-7.64-3.55A10,10,0,0,0,460.67,39.27Z" transform="translate(0 114.85)" fill="#fff"/><path d="M537.58,30.63l-1.25,15.44h-6.18V36.9h-.08q-9.93,0-14.1,14.19V68.7h8.93v5.92h-23.7V68.7h6.76V36.56h-6.76V30.63H514l1.42,10.27a21.43,21.43,0,0,1,6.3-8.47,15.16,15.16,0,0,1,9.39-2.8A23,23,0,0,1,537.58,30.63Z" transform="translate(0 114.85)" fill="#fff"/><path d="M573.88,67.53a5.41,5.41,0,0,0,2.75-4.76,7,7,0,0,0-.75-3.42,6.62,6.62,0,0,0-3-2.42A39.57,39.57,0,0,0,566,54.67Q558.52,52.76,554.9,50t-3.63-8.1a10.55,10.55,0,0,1,4.67-9q4.67-3.38,12.35-3.38a26.69,26.69,0,0,1,16.36,5l-3.5,5.26a25.45,25.45,0,0,0-5.76-2.88,20.8,20.8,0,0,0-6.84-1q-9,0-9,5.34a4.44,4.44,0,0,0,1,3,9,9,0,0,0,3.38,2.17A58,58,0,0,0,571,48.66q7.17,1.92,10.72,4.88t3.55,8.72a11,11,0,0,1-5.47,10,25.4,25.4,0,0,1-13.48,3.33q-10.6,0-17.53-6l4.34-5.09a20.41,20.41,0,0,0,13.19,4.76A14.09,14.09,0,0,0,573.88,67.53Z" transform="translate(0 114.85)" fill="#fff"/><path d="M632.39,35.73q5,6.17,5,16.86,0,10.51-5.09,16.78T618,75.62q-9.35,0-14.36-6.13t-5-16.81q0-10.52,5.09-16.82t14.36-6.3Q627.38,29.55,632.39,35.73ZM609.9,40.07q-2.72,4.09-2.71,12.6t2.67,12.51q2.67,4.1,8.18,4.1t8.18-4.1q2.67-4.09,2.67-12.6t-2.67-12.52a9,9,0,0,0-8.1-4.09Q612.61,36,609.9,40.07Z" transform="translate(0 114.85)" fill="#fff"/><path d="M651,30.63h6.93l.58,5.93a18.86,18.86,0,0,1,14.44-7q6.17,0,9.26,3.38t3.09,9.72v32h-8v-27a37.1,37.1,0,0,0-.5-7,5.87,5.87,0,0,0-2-3.59,7.28,7.28,0,0,0-4.51-1.17,10.91,10.91,0,0,0-6.3,2,19.19,19.19,0,0,0-5,5v31.8h-8Z" transform="translate(0 114.85)" fill="#fff"/><path d="M713.1,33.6a6.72,6.72,0,0,1,5-2,7.11,7.11,0,0,1,5.05,12.1,6.79,6.79,0,0,1-5.05,2.09,6.65,6.65,0,0,1-5-2.09,7.31,7.31,0,0,1,0-10.06Zm0,30a6.71,6.71,0,0,1,5-2,6.86,6.86,0,0,1,5.05,2,6.76,6.76,0,0,1,2,5,6.91,6.91,0,0,1-2,5,6.81,6.81,0,0,1-5.09,2,6.71,6.71,0,0,1-5-2,6.91,6.91,0,0,1-2-5A6.82,6.82,0,0,1,713.1,63.56Z" transform="translate(0 114.85)" fill="#fff"/><path d="M765.59,42a34.44,34.44,0,0,1,4.84,3.63,25.85,25.85,0,0,0,3.21,2.59,5.05,5.05,0,0,0,2.8.84q4.42,0,8.18-6.93L790,44.82a28.45,28.45,0,0,1-5.68,8,11.31,11.31,0,0,1-8.09,3,9.86,9.86,0,0,1-5-1.21,30.26,30.26,0,0,1-4.8-3.55,21.33,21.33,0,0,0-3.34-2.71,5.64,5.64,0,0,0-3-.88,6.22,6.22,0,0,0-4.42,1.83,21.43,21.43,0,0,0-3.76,5.18l-5.34-2.67a29.67,29.67,0,0,1,5.63-8.06,11.17,11.17,0,0,1,8.14-3A10.09,10.09,0,0,1,765.59,42Z" transform="translate(0 114.85)" fill="#fff"/><path d="M822.18,16.2a28,28,0,0,1,8.64,2.3,27.17,27.17,0,0,1,6.88,4.38l-4.59,4.84a19.07,19.07,0,0,0-10.94-5.09V40.9a30.85,30.85,0,0,1,11.94,6.51q4.34,4.09,4.34,11.19a15.78,15.78,0,0,1-4.26,11.06q-4.25,4.64-12,5.63V87.47h-5.84V75.54a26.24,26.24,0,0,1-10-2.5,27.89,27.89,0,0,1-7.64-5.35l4.51-5.09A20.6,20.6,0,0,0,816.34,69V46.91q-7.76-2.67-11.64-6.55a13,13,0,0,1-3.88-9.56,13.3,13.3,0,0,1,4-9.68q4-4.09,11.48-4.84V3.76h5.84ZM811,25.34a6.94,6.94,0,0,0-2,5.13,7.39,7.39,0,0,0,1.59,4.8q1.58,2,5.76,3.63V22.79A9.69,9.69,0,0,0,811,25.34ZM822.18,68.7q7.93-1.67,7.93-9.77a9.18,9.18,0,0,0-1.79-5.76,15.55,15.55,0,0,0-6.14-4.26Z" transform="translate(0 114.85)" fill="#fff"/></svg>