<svg id="52bb5479-76ce-4c50-8c17-d16474a3ff9f" data-name="Layer 1" xmlns="http://www.w3.org/2000/svg" viewBox="0 0 893.8 91.9"><title>bobbypatterson</title><path d="M38.7,27.7,7.4,46.8,38.7,65.9l-4.4,6.3L0,50.8V42.6L34.5,21.2Z" transform="translate(0 -2.1)" fill="#fff"/><path d="M88.4,70.7c-4.5,2.8-10.1,4.2-16.9,4.2H54.3V13h16q9.6,0,15.9,3.6t6.3,12a12.48,12.48,0,0,1-3.3,9A15.45,15.45,0,0,1,81,42.1c9.5,1.6,14.2,6.6,14.2,15.1C95.1,63.4,92.9,67.9,88.4,70.7ZM80.3,22.2c-2-1.5-4.9-2.2-8.7-2.2H63.2V39.1h9.2c7.4,0,11-3.3,11-9.8C83.4,26,82.4,23.7,80.3,22.2Zm2,26.4c-2.3-1.7-5.4-2.5-9.4-2.5H63.1V67.7h9.4c8.8,0,13.2-3.5,13.2-10.4C85.8,53.1,84.6,50.2,82.3,48.6Z" transform="translate(0 -2.1)" fill="#fff"/><path d="M142.4,33c3.6,4.4,5.4,10.5,5.4,18.1s-1.8,13.5-5.5,18-8.8,6.7-15.3,6.7c-6.7,0-11.8-2.2-15.4-6.6s-5.4-10.4-5.4-18.1c0-7.5,1.8-13.6,5.5-18.1s8.8-6.8,15.4-6.8C133.7,26.4,138.8,28.6,142.4,33Zm-24.2,4.7c-1.9,2.9-2.9,7.4-2.9,13.5s1,10.5,2.9,13.5,4.8,4.4,8.8,4.4,6.9-1.5,8.8-4.4,2.9-7.4,2.9-13.5-1-10.5-2.9-13.5-4.8-4.4-8.7-4.4A10.07,10.07,0,0,0,118.2,37.7Z" transform="translate(0 -2.1)" fill="#fff"/><path d="M177,28.2a15.57,15.57,0,0,1,7.4-1.8c6,0,10.5,2.2,13.4,6.5s4.3,10.4,4.3,18.3c0,7.4-1.7,13.3-5,17.9S189.2,76,183.2,76a15.34,15.34,0,0,1-12.7-5.9l-.5,4.8h-7.6V8.6L171,7.5v26A21.23,21.23,0,0,1,177,28.2Zm12.8,36.5q3-4.5,3-13.5c0-12-3.5-17.9-10.6-17.9a10.43,10.43,0,0,0-6.2,2,20.72,20.72,0,0,0-5,5.2V63.4a14.08,14.08,0,0,0,4.5,4.3,11,11,0,0,0,5.7,1.5A9.76,9.76,0,0,0,189.8,64.7Z" transform="translate(0 -2.1)" fill="#fff"/><path d="M230.9,28.2a15.57,15.57,0,0,1,7.4-1.8c6,0,10.5,2.2,13.4,6.5S256,43.3,256,51.2c0,7.4-1.7,13.3-5,17.9S243.1,76,237.1,76a15.34,15.34,0,0,1-12.7-5.9l-.5,4.8h-7.6V8.6l8.6-1.1v26A18.84,18.84,0,0,1,230.9,28.2Zm12.8,36.5q3-4.5,3-13.5c0-12-3.5-17.9-10.6-17.9a10.43,10.43,0,0,0-6.2,2,20.72,20.72,0,0,0-5,5.2V63.4a14.08,14.08,0,0,0,4.5,4.3,11,11,0,0,0,5.7,1.5A9.87,9.87,0,0,0,243.7,64.7Z" transform="translate(0 -2.1)" fill="#fff"/><path d="M293.9,75.1c-1.9,5.6-4.5,10-7.9,13.2s-8.1,5.1-14.1,5.7l-1.2-6.7a24.65,24.65,0,0,0,7.5-2.3,12.27,12.27,0,0,0,4.5-3.9,27.58,27.58,0,0,0,3-6.2h-3L266.5,27.6h9.2l12.9,41,12.8-41h8.9Z" transform="translate(0 -2.1)" fill="#fff"/><path d="M359.2,47.4c-4.3,3.2-10.1,4.8-17.5,4.8h-7.8V74.8H325V13h16.3q11.7,0,18,4.8t6.3,14.4C365.6,39.1,363.5,44.2,359.2,47.4Zm-6.7-24.6c-2.5-2-5.9-3-10.3-3h-8.3V45.3h8.3c4.4,0,7.9-1,10.4-3s3.7-5.4,3.7-10.1C356.2,27.9,355,24.8,352.5,22.8Z" transform="translate(0 -2.1)" fill="#fff"/><path d="M413.5,68.1a4.81,4.81,0,0,0,2.9,1.9l-2.1,5.9c-4.7-.6-7.8-2.8-9.2-6.6a15.51,15.51,0,0,1-6.4,4.9,21.49,21.49,0,0,1-8.5,1.7c-4.8,0-8.6-1.3-11.3-4s-4.1-6.2-4.1-10.6c0-4.9,1.9-8.7,5.8-11.3s9.4-4,16.6-4H404V42.5c0-3.2-.9-5.5-2.8-6.9s-4.5-2.2-8.1-2.2a38.61,38.61,0,0,0-12.5,2.4l-2.2-6.3a46.59,46.59,0,0,1,16-3.1c6,0,10.5,1.4,13.6,4.1s4.6,6.5,4.6,11.4V64A7.33,7.33,0,0,0,413.5,68.1Zm-14.4-.2a13.5,13.5,0,0,0,5-4.8V51.6h-6.3q-7.2,0-10.5,2.4a8.26,8.26,0,0,0-3.3,7.1c0,2.8.7,4.8,2.2,6.3s3.6,2.2,6.5,2.2A13.32,13.32,0,0,0,399.1,67.9Z" transform="translate(0 -2.1)" fill="#fff"/><path d="M464,75a28.2,28.2,0,0,1-7.1.9c-5.2,0-9.2-1.3-12.1-4a14.38,14.38,0,0,1-4.3-10.8V34H429.8V27.5h10.7V16.9l8.6-1V27.6h16.2l-1.1,6.5H449v27c0,2.6.7,4.6,2.1,5.9s3.6,1.9,6.6,1.9a18.73,18.73,0,0,0,9-2.2l3.2,5.8A21.39,21.39,0,0,1,464,75Z" transform="translate(0 -2.1)" fill="#fff"/><path d="M517.8,75a28.2,28.2,0,0,1-7.1.9c-5.2,0-9.2-1.3-12.1-4a14.38,14.38,0,0,1-4.3-10.8V34H483.6V27.5h10.7V16.9l8.6-1V27.6h16.2L518,34.1H503v27c0,2.6.7,4.6,2.1,5.9s3.6,1.9,6.6,1.9a18.73,18.73,0,0,0,9-2.2l3.2,5.8A24.3,24.3,0,0,1,517.8,75Z" transform="translate(0 -2.1)" fill="#fff"/><path d="M550.3,65.3a12.66,12.66,0,0,0,9.4,3.7,19.08,19.08,0,0,0,6.4-1,30.61,30.61,0,0,0,6.2-3.2l3.9,5.5a24.9,24.9,0,0,1-7.7,4.2,27.42,27.42,0,0,1-9,1.5c-7,0-12.4-2.2-16.3-6.7s-5.8-10.5-5.8-17.9A30.8,30.8,0,0,1,540,38.6a20.64,20.64,0,0,1,7.4-8.8,19.15,19.15,0,0,1,11.2-3.2q9.15,0,14.4,6.3c3.5,4.2,5.3,9.9,5.3,17.1,0,1.4-.1,2.9-.2,4.3H546.4C546.5,59.1,547.9,62.8,550.3,65.3ZM550,36.9c-2.2,2.5-3.4,6.1-3.7,11h23.5c-.1-4.7-1.1-8.4-3.1-10.9a9.93,9.93,0,0,0-8.2-3.8A10.41,10.41,0,0,0,550,36.9Z" transform="translate(0 -2.1)" fill="#fff"/><path d="M632.7,27.6l-1.3,16.6h-6.6V34.3h-.1c-7.1,0-12.2,5.1-15.2,15.3V68.5h9.6v6.4H593.6V68.5h7.3V33.9h-7.3V27.5h13.8l1.5,11c1.9-4.1,4.1-7.1,6.8-9.1a16.37,16.37,0,0,1,10.1-3A31.3,31.3,0,0,1,632.7,27.6Z" transform="translate(0 -2.1)" fill="#fff"/><path d="M671.7,67.2a5.87,5.87,0,0,0,3-5.1,8.1,8.1,0,0,0-.8-3.7,6.72,6.72,0,0,0-3.2-2.6,37.63,37.63,0,0,0-7.4-2.4c-5.4-1.4-9.4-3-12-5s-3.9-4.9-3.9-8.7a11.34,11.34,0,0,1,5-9.6c3.3-2.4,7.8-3.6,13.3-3.6a28.77,28.77,0,0,1,17.6,5.4l-3.8,5.7a30,30,0,0,0-6.2-3.1,24,24,0,0,0-7.4-1.1c-6.5,0-9.7,1.9-9.7,5.7a4.77,4.77,0,0,0,1.1,3.2,9.7,9.7,0,0,0,3.6,2.3,64.33,64.33,0,0,0,7.6,2.4c5.1,1.4,9,3.1,11.5,5.2s3.8,5.3,3.8,9.4a11.89,11.89,0,0,1-5.9,10.8c-3.9,2.4-8.7,3.6-14.5,3.6-7.6,0-13.9-2.2-18.8-6.5l4.7-5.5a22.22,22.22,0,0,0,6.5,3.8,21.86,21.86,0,0,0,7.7,1.3C667,69.1,669.7,68.5,671.7,67.2Z" transform="translate(0 -2.1)" fill="#fff"/><path d="M734.6,33c3.6,4.4,5.4,10.5,5.4,18.1s-1.8,13.5-5.5,18-8.8,6.7-15.3,6.7c-6.7,0-11.8-2.2-15.4-6.6s-5.4-10.4-5.4-18.1c0-7.5,1.8-13.6,5.5-18.1s8.8-6.8,15.4-6.8C725.9,26.4,731,28.6,734.6,33Zm-24.2,4.7c-1.9,2.9-2.9,7.4-2.9,13.5s1,10.5,2.9,13.5,4.8,4.4,8.8,4.4,6.9-1.5,8.8-4.4,2.9-7.4,2.9-13.5-1-10.5-2.9-13.5-4.8-4.4-8.7-4.4S712.3,34.8,710.4,37.7Z" transform="translate(0 -2.1)" fill="#fff"/><path d="M754.6,27.6H762l.6,6.4a21.16,21.16,0,0,1,7-5.6,20,20,0,0,1,8.5-2c4.4,0,7.7,1.2,10,3.6s3.3,5.9,3.3,10.5V74.9h-8.6V45.8a45.35,45.35,0,0,0-.5-7.5,6.83,6.83,0,0,0-2.2-3.9,8.07,8.07,0,0,0-4.8-1.3,11.49,11.49,0,0,0-6.8,2.2,20.54,20.54,0,0,0-5.3,5.3V74.8h-8.6V27.6Z" transform="translate(0 -2.1)" fill="#fff"/><path d="M804.3,81.1l38.2-79,6.8,3.2L811.2,84.1Z" transform="translate(0 -2.1)" fill="#fff"/><path d="M893.8,42.6v8.2L859.5,72.2l-4.4-6.3,31.2-19.1-31.2-19,4.1-6.5Z" transform="translate(0 -2.1)" fill="#fff"/></svg>